<svg width="100" height="30" viewBox="0 0 100 30" fill="none" xmlns="http://www.w3.org/2000/svg">
<path d="M38.2812 21.839V7.24638H43.553C44.6035 7.24638 45.4698 7.42214 46.1521 7.77366C46.8344 8.12042 47.3424 8.58832 47.6762 9.17735C48.01 9.76162 48.1769 10.41 48.1769 11.1226C48.1769 11.7496 48.0615 12.2674 47.8308 12.6759C47.6051 13.0844 47.3056 13.4074 46.9326 13.6449C46.5644 13.8824 46.1644 14.0582 45.7324 14.1722V14.3147C46.1938 14.3432 46.6577 14.5 47.124 14.785C47.5903 15.07 47.9806 15.4785 48.2947 16.0105C48.6089 16.5426 48.7659 17.1933 48.7659 17.9629C48.7659 18.6944 48.5941 19.3523 48.2505 19.9366C47.9069 20.5209 47.3645 20.984 46.6233 21.326C45.8822 21.668 44.9176 21.839 43.7297 21.839H38.2812ZM40.1072 20.2715H43.7297C44.9225 20.2715 45.7693 20.0482 46.2699 19.6017C46.7755 19.1504 47.0283 18.6042 47.0283 17.9629C47.0283 17.4689 46.8982 17.0128 46.6381 16.5948C46.3779 16.172 46.0073 15.8348 45.5263 15.583C45.0452 15.3265 44.4758 15.1982 43.8181 15.1982H40.1072V20.2715ZM40.1072 13.6592H43.4941C44.0439 13.6592 44.5397 13.5547 44.9814 13.3457C45.4281 13.1367 45.7815 12.8421 46.0417 12.4621C46.3067 12.0821 46.4393 11.6356 46.4393 11.1226C46.4393 10.4813 46.2086 9.93738 45.7472 9.49086C45.2858 9.03959 44.5544 8.81396 43.553 8.81396H40.1072V13.6592Z" fill="white"/>
<path d="M54.8587 22.0956C54.142 22.0956 53.4916 21.9649 52.9075 21.7037C52.3234 21.4377 51.8595 21.0553 51.5159 20.5565C51.1723 20.053 51.0005 19.4449 51.0005 18.7324C51.0005 18.1054 51.1282 17.5971 51.3834 17.2076C51.6387 16.8133 51.9798 16.5046 52.4068 16.2813C52.8339 16.058 53.3051 15.8918 53.8205 15.7825C54.3408 15.6685 54.8636 15.5783 55.3888 15.5118C56.076 15.4263 56.6331 15.3621 57.0602 15.3194C57.4921 15.2719 57.8063 15.1935 58.0026 15.0842C58.2039 14.975 58.3045 14.785 58.3045 14.5142V14.4572C58.3045 13.7542 58.1057 13.2079 57.7081 12.8184C57.3154 12.4289 56.719 12.2341 55.9189 12.2341C55.0894 12.2341 54.439 12.4099 53.9678 12.7614C53.4965 13.1129 53.1652 13.4882 52.9738 13.8872L51.3245 13.3172C51.619 12.6521 52.0117 12.1344 52.5026 11.7638C52.9983 11.3886 53.5383 11.1273 54.1224 10.9801C54.7114 10.828 55.2906 10.752 55.86 10.752C56.2233 10.752 56.6405 10.7948 57.1117 10.8803C57.5878 10.9611 58.0468 11.1297 58.4886 11.3862C58.9352 11.6427 59.3058 12.0299 59.6003 12.5476C59.8949 13.0654 60.0421 13.7589 60.0421 14.6282V21.839H58.3045V20.357H58.2161C58.0983 20.5945 57.902 20.8486 57.6271 21.1194C57.3522 21.3902 56.9865 21.6205 56.53 21.8105C56.0735 22.0006 55.5164 22.0956 54.8587 22.0956ZM55.1237 20.585C55.8109 20.585 56.3901 20.4544 56.8614 20.1931C57.3375 19.9318 57.6958 19.5946 57.9363 19.1813C58.1818 18.768 58.3045 18.3334 58.3045 17.8774V16.3383C58.2309 16.4238 58.0689 16.5022 57.8185 16.5734C57.5731 16.6399 57.2884 16.6993 56.9644 16.7516C56.6454 16.7991 56.3337 16.8418 56.0294 16.8798C55.7299 16.9131 55.487 16.9416 55.3004 16.9653C54.8489 17.0223 54.4267 17.115 54.034 17.2432C53.6463 17.3667 53.3321 17.5544 53.0916 17.8061C52.856 18.0531 52.7382 18.3904 52.7382 18.8179C52.7382 19.4022 52.9615 19.844 53.4082 20.1432C53.8598 20.4377 54.4316 20.585 55.1237 20.585Z" fill="white"/>
<path d="M64.9513 15.2552V21.839H63.2136V10.8946H64.8924V12.6046H65.0396C65.3047 12.0489 65.7072 11.6023 66.2471 11.2651C66.7871 10.9231 67.4841 10.752 68.3382 10.752C69.1039 10.752 69.7739 10.9041 70.3482 11.2081C70.9225 11.5073 71.3692 11.9633 71.6883 12.5761C72.0073 13.1842 72.1669 13.9537 72.1669 14.8847V21.839H70.4292V14.9987C70.4292 14.1389 70.1985 13.4692 69.7371 12.9894C69.2757 12.5049 68.6425 12.2626 67.8375 12.2626C67.2828 12.2626 66.7871 12.379 66.3502 12.6118C65.9183 12.8445 65.5771 13.1842 65.3268 13.6307C65.0764 14.0772 64.9513 14.6187 64.9513 15.2552Z" fill="white"/>
<path d="M81.0556 17.2788H83.0583L84.7371 19.4164L85.1788 19.9865L87.6822 23.2071H85.6795L84.0302 21.0695L83.6179 20.528L81.0556 17.2788ZM88.3007 14.5427C88.3007 16.0818 88.0135 17.4118 87.4392 18.5329C86.8649 19.6539 86.0771 20.5185 85.0757 21.1265C84.0744 21.7345 82.9307 22.0386 81.6447 22.0386C80.3586 22.0386 79.2149 21.7345 78.2136 21.1265C77.2122 20.5185 76.4244 19.6539 75.8501 18.5329C75.2758 17.4118 74.9887 16.0818 74.9887 14.5427C74.9887 13.0036 75.2758 11.6736 75.8501 10.5525C76.4244 9.43148 77.2122 8.56694 78.2136 7.95892C79.2149 7.35089 80.3586 7.04688 81.6447 7.04688C82.9307 7.04688 84.0744 7.35089 85.0757 7.95892C86.0771 8.56694 86.8649 9.43148 87.4392 10.5525C88.0135 11.6736 88.3007 13.0036 88.3007 14.5427ZM86.5336 14.5427C86.5336 13.2792 86.3152 12.2127 85.8783 11.3434C85.4463 10.4742 84.8598 9.81625 84.1186 9.36973C83.3823 8.92321 82.5577 8.69995 81.6447 8.69995C80.7317 8.69995 79.9046 8.92321 79.1634 9.36973C78.4271 9.81625 77.8405 10.4742 77.4037 11.3434C76.9717 12.2127 76.7557 13.2792 76.7557 14.5427C76.7557 15.8063 76.9717 16.8727 77.4037 17.742C77.8405 18.6113 78.4271 19.2692 79.1634 19.7157C79.9046 20.1622 80.7317 20.3855 81.6447 20.3855C82.5577 20.3855 83.3823 20.1622 84.1186 19.7157C84.8598 19.2692 85.4463 18.6113 85.8783 17.742C86.3152 16.8727 86.5336 15.8063 86.5336 14.5427Z" fill="white"/>
<path d="M98.2626 17.3643V10.8946H100V21.839H98.2626V19.9865H98.1448C97.8797 20.5422 97.4674 21.0149 96.9078 21.4044C96.3482 21.7892 95.6414 21.9816 94.7873 21.9816C94.0805 21.9816 93.4522 21.8319 92.9024 21.5327C92.3527 21.2286 91.9207 20.7726 91.6066 20.1646C91.2924 19.5518 91.1354 18.7799 91.1354 17.8489V10.8946H92.873V17.7349C92.873 18.5329 93.1037 19.1694 93.5651 19.6444C94.0314 20.1195 94.6253 20.357 95.3469 20.357C95.7789 20.357 96.2182 20.2501 96.6648 20.0363C97.1164 19.8226 97.4944 19.4948 97.7987 19.053C98.108 18.6113 98.2626 18.0484 98.2626 17.3643Z" fill="white"/>
<path d="M15.2057 9.7653C15.5683 9.69665 16.2181 9.60778 16.5304 9.58407C16.6005 9.57876 17.0539 9.57706 17.5379 9.58031C18.472 9.58661 18.7693 9.60995 19.451 9.73059C21.3988 10.0753 23.0233 10.8832 24.2992 12.1418C25.5784 13.4037 26.3559 14.991 26.6208 16.8817C26.6883 17.3635 26.7152 18.4643 26.6719 18.9687C26.527 20.6532 26.0068 22.1165 25.0867 23.4278C24.5905 24.135 24.0644 24.6881 23.291 25.3159L23.2155 25.3772L23.5311 25.7061C23.7047 25.887 24.0515 26.2477 24.3017 26.5077C24.8023 27.0278 24.8218 27.0622 24.6865 27.1828C24.5926 27.2664 23.2795 28.221 23.2087 28.2571C23.1269 28.2988 22.9664 28.2907 22.9044 28.2419C22.8748 28.2185 22.5203 27.8507 22.1166 27.4246C21.713 26.9985 21.3527 26.6202 21.316 26.584L21.2493 26.5182L20.9687 26.6288C19.3556 27.2651 17.4855 27.4845 15.6685 27.2507C12.6135 26.8577 10.1154 25.1982 8.79451 22.6844C8.4523 22.0331 8.24137 21.4853 8.06267 20.7835C7.97538 20.4407 7.88901 19.984 7.85044 19.6615L7.8295 19.4862L8.49408 19.4712C9.38996 19.4509 9.76336 19.416 10.3481 19.2978L10.6193 19.2431L10.636 19.4004C10.6452 19.4869 10.6751 19.6813 10.7025 19.8325C11.2374 22.7827 13.2682 24.7588 16.2055 25.1872C16.9144 25.2906 17.8259 25.28 18.5922 25.1595C18.9533 25.1027 19.6551 24.9441 19.6551 24.9192C19.6551 24.9098 19.3448 24.5717 18.9655 24.1679C18.5862 23.7641 18.2591 23.4105 18.2385 23.3822C18.1804 23.3023 18.1938 23.235 18.284 23.1533C18.4506 23.0025 19.7222 22.0953 19.807 22.0668C19.9781 22.0093 20.003 22.03 20.8574 22.9372C21.2962 23.4032 21.6665 23.7844 21.6801 23.7844C21.7199 23.7844 22.2295 23.275 22.4182 23.0466C23.2091 22.0891 23.6829 20.9459 23.8811 19.5171C23.9441 19.0624 23.9441 17.7823 23.881 17.328C23.6513 15.6733 23.0261 14.3597 22.0025 13.3804C21.4605 12.862 20.8254 12.4487 20.1397 12.1682C17.9437 11.2699 15.1605 11.4716 13.3135 12.6629C12.2803 13.3294 11.5311 14.2487 11.0703 15.4156C11.0102 15.5678 10.9533 15.7261 10.9439 15.7675C10.9027 15.9485 10.234 16.2911 9.68072 16.4145C9.32007 16.495 8.9048 16.5354 8.44906 16.5344C8.19906 16.5339 7.98964 16.5287 7.9837 16.523C7.97775 16.5173 8.01254 16.3569 8.06101 16.1665C8.41289 14.7847 9.11325 13.5122 10.0953 12.4704C10.557 11.9807 11.2072 11.449 11.7989 11.0773C12.7668 10.4694 14.005 9.99249 15.2057 9.7653Z" fill="white"/>
<path fill-rule="evenodd" clip-rule="evenodd" d="M0.200928 2.0213C0.17037 2.03582 0.133511 2.07679 0.119048 2.11236C0.101525 2.1554 0.0749966 4.96714 0.0396685 10.5262C-0.012265 18.6969 -0.0123926 18.8768 0.034516 18.9373C0.0633396 18.9746 0.122262 19.0073 0.182231 19.0194C0.237123 19.0304 2.30222 19.0354 4.77136 19.0304C8.8549 19.0221 9.37651 19.0252 9.87739 18.9404C9.97716 18.9235 10.0761 18.9031 10.2022 18.8784C12.4486 18.4394 14.0636 17.0572 14.5427 15.1636C14.7297 14.4248 14.7285 13.5245 14.5396 12.8403C14.5041 12.7115 14.4661 12.5976 14.4553 12.5871C14.4444 12.5767 14.3208 12.6222 14.1805 12.6884C13.3743 13.0685 12.7074 13.6098 12.2069 14.2902C12.0511 14.502 12.0332 14.5389 12.0172 14.6803C11.9798 15.013 11.8175 15.4361 11.6183 15.7204C11.1551 16.3815 10.3834 16.7779 9.24796 16.9382C8.98921 16.9747 8.59483 16.9807 5.90421 16.9893L2.85377 16.999L2.83691 16.4032C2.82763 16.0755 2.82003 14.8126 2.82003 13.5966V11.3859L5.75978 11.3944C8.60968 11.4027 8.70967 11.4046 9.03114 11.455C9.38521 11.5106 9.77811 11.6006 10.0236 11.6823C10.1064 11.7099 10.1826 11.7325 10.1928 11.7325C10.203 11.7325 10.3074 11.6486 10.4248 11.546C10.8501 11.1743 11.5271 10.7099 12.0892 10.4043C12.2591 10.3119 12.3273 10.2628 12.3043 10.2493C12.2858 10.2384 12.2091 10.196 12.1339 10.155L11.9972 10.0805L12.2372 9.85502C12.7913 9.33475 13.1646 8.77586 13.4025 8.11054C13.5834 7.6046 13.6606 7.13519 13.6601 6.54278C13.6588 5.03513 12.9649 3.79439 11.659 2.96514C11.0626 2.58647 10.2665 2.28441 9.48579 2.14067C9.35351 2.11631 9.25171 2.09644 9.14912 2.08019C8.66857 2.00408 8.17048 2.0074 4.43976 2.0015C1.49924 1.99688 0.240006 2.00276 0.200928 2.0213ZM10.9448 6.06928C10.6325 4.91311 9.59718 4.20475 8.00716 4.05936C7.68717 4.03009 2.76932 4.02362 2.7685 4.05245C2.75899 4.38848 2.77409 8.66488 2.78572 8.9357L2.80243 9.32407L5.68722 9.31534C8.53379 9.30671 8.57537 9.3059 8.82563 9.25328C9.6963 9.07034 10.2579 8.72861 10.6471 8.14505C10.9983 7.61828 11.1249 6.7359 10.9448 6.06928Z" fill="white"/>
</svg>
