<svg width="96" height="20" viewBox="0 0 96 20" fill="none" xmlns="http://www.w3.org/2000/svg">
<g clip-path="url(#clip0_175_8171)">
<path fill-rule="evenodd" clip-rule="evenodd" d="M5.18718 5.91948C3.90534 7.4288 3.05294 9.32375 2.82854 11.4116H7.51836C7.77991 11.4116 8.00433 11.2363 8.07212 10.9876C8.18513 10.5733 8.35139 10.1812 8.56612 9.81943C8.69202 9.60743 8.65976 9.34127 8.48377 9.16759L5.18718 5.91948ZM1.13504 11.4116H2.24897C2.4314 9.15801 3.34353 7.10685 4.74968 5.48917L3.95539 4.70665C3.71001 4.46599 3.3064 4.4883 3.09169 4.75605C1.73398 6.45501 0.833144 8.5189 0.558696 10.7756C0.518336 11.1135 0.789555 11.4116 1.13504 11.4116ZM11.9192 2.44193C9.80276 2.61724 7.87355 3.46193 6.33822 4.7688L9.64614 8.02801C9.82053 8.20017 10.0917 8.23201 10.3064 8.10932C10.6745 7.89896 11.0717 7.73638 11.4914 7.62801C11.7417 7.56106 11.9192 7.34111 11.9192 7.08454V2.44193ZM5.11614 3.56552L5.90881 4.34646C7.55389 2.96149 9.63485 2.0674 11.9192 1.89368V0.793989C11.9192 0.452926 11.6174 0.18677 11.2735 0.226613C8.98584 0.494363 6.89198 1.3789 5.16619 2.71446C4.89497 2.92484 4.87076 3.32327 5.11614 3.56552ZM13.5611 1.89368C15.8455 2.0674 17.9248 2.96149 19.5682 4.34646L20.3625 3.56393C20.6063 3.32168 20.5837 2.92324 20.3109 2.71127C18.5867 1.3789 16.4944 0.494363 14.2068 0.226613C13.863 0.18677 13.5611 0.452926 13.5611 0.793989V1.89368ZM15.8325 8.02643L19.1404 4.76721C17.6052 3.46193 15.6759 2.61724 13.5595 2.44352V7.08775C13.5595 7.34275 13.7354 7.56264 13.9873 7.62801C14.407 7.73796 14.8058 7.90054 15.1722 8.10932C15.3869 8.23043 15.6566 8.20017 15.8325 8.02643ZM2.78172 13.0276C2.88666 15.1999 3.6648 17.1905 4.91111 18.7906L8.47248 15.2796C8.65007 15.1043 8.68234 14.835 8.55643 14.6214C8.34331 14.2596 8.17866 13.866 8.06886 13.4516C8.00267 13.203 7.77831 13.0276 7.51676 13.0276H2.78172ZM3.94732 19.7389L4.719 18.9787C3.31609 17.3515 2.41364 15.2907 2.24413 13.0276H1.13342C0.787941 13.0276 0.518336 13.3256 0.558696 13.6635C0.828301 15.9235 1.72752 17.989 3.082 19.6895C3.29672 19.9573 3.70193 19.9796 3.94732 19.7389ZM22.6485 11.4132C22.4241 9.32533 21.5733 7.4288 20.2899 5.91948L16.9933 9.16759C16.8189 9.34127 16.7866 9.60743 16.9125 9.81943C17.1273 10.1828 17.2936 10.5749 17.4066 10.9892C17.4744 11.2379 17.6987 11.4132 17.9603 11.4132H22.6485ZM21.5233 4.70505L20.729 5.48759C22.1352 7.10685 23.0473 9.15801 23.2313 11.4116H24.3468C24.6924 11.4116 24.9636 11.1135 24.9216 10.7756C24.6471 8.51733 23.7447 6.45343 22.387 4.75446C22.1722 4.48671 21.7671 4.4644 21.5233 4.70505ZM20.5692 18.7906C21.8139 17.1905 22.5936 15.1999 22.6986 13.0292H17.9619C17.702 13.0292 17.476 13.2045 17.4098 13.4532C17.3 13.8691 17.1353 14.2612 16.9222 14.623C16.7963 14.8365 16.8286 15.1075 17.0062 15.2812L20.5692 18.7906ZM24.3452 13.0292H23.2346C23.065 15.2907 22.1626 17.3515 20.7597 18.9803L21.5314 19.7405C21.7751 19.9827 22.1803 19.9604 22.3951 19.6911C23.7495 17.989 24.6487 15.9235 24.92 13.6651C24.9619 13.3273 24.6908 13.0292 24.3452 13.0292ZM61.0282 5.41254L62.5447 5.24805V8.45407H64.6133V9.88328H62.5447V15.3246H61.0282V9.88328H59.6935H57.626V15.3246H56.1095V9.88328H54.7168V8.45407H56.1095V5.99865L57.626 5.83412V8.45407H59.6355H61.0282V5.41254ZM41.0204 9.23949C41.434 8.74492 42.0953 8.37365 42.9917 8.37365C44.632 8.37365 45.6389 9.37618 45.6389 11.2043V15.3255H44.1224V11.5334C44.1224 10.462 43.6675 9.80186 42.6194 9.80186C41.6404 9.80186 41.0204 10.5298 41.0204 11.5334V15.3265H39.5039V5.70749L41.0204 5.54297V9.23949ZM30.5712 10.5173C30.5712 12.4411 31.8938 13.9526 33.7693 13.9526C35.6447 13.9526 36.9683 12.4956 36.9672 10.5163H38.5384C38.5384 13.2225 36.4979 15.4075 33.7682 15.4075C31.0386 15.4075 28.998 13.2236 28.998 10.5163C28.998 7.81 31.0386 5.625 33.7682 5.625C35.3259 5.625 36.567 6.32626 37.4356 7.38432L36.3606 8.45574C35.7819 7.61774 34.9412 7.082 33.7693 7.082C31.8948 7.082 30.5712 8.59347 30.5712 10.5173ZM52.0349 9.16799C51.745 8.79678 50.9734 8.37109 50.0635 8.37109C48.0921 8.37109 46.6035 9.82809 46.6035 11.8887C46.6035 13.9503 48.0921 15.4062 50.0635 15.4062C50.9868 15.4062 51.745 14.9805 52.0349 14.6093V15.3239H53.5794V8.45336H52.0349V9.16799ZM50.1182 13.9503C48.9741 13.9503 48.0921 13.0156 48.0921 11.8887C48.0921 10.7617 48.9741 9.82809 50.1182 9.82809C51.2354 9.82809 52.0896 10.7627 52.0896 11.8887C52.0896 13.0156 51.2354 13.9503 50.1182 13.9503ZM68.4045 8.37109C66.4468 8.37109 64.9023 9.93809 64.9023 11.8887C64.9023 13.8392 66.4468 15.4062 68.446 15.4062C70.0039 15.4062 71.3406 14.5682 71.8099 13.3179H70.0039C69.7138 13.7579 69.1498 13.978 68.446 13.978C67.4536 13.978 66.6674 13.2767 66.5027 12.411H71.8648C71.8927 12.2465 71.9062 12.0676 71.9062 11.8887C71.9072 9.93709 70.3628 8.37109 68.4045 8.37109ZM66.5716 11.064C66.7922 10.3494 67.537 9.77257 68.4056 9.77257C69.2746 9.77257 70.0184 10.3494 70.239 11.064H66.5716ZM74.4852 8.45336V9.16799C74.8157 8.72788 75.2984 8.37109 76.2638 8.37109V9.82809H76.1255C75.1611 9.82809 74.4852 10.5149 74.4852 11.5318V15.3239H72.9688V8.45336H74.4852ZM84.6555 8.37109C83.6632 8.37109 83.0981 8.76904 82.574 9.31915C82.2016 8.71451 81.6081 8.37109 80.7675 8.37109C80.0092 8.37109 79.3479 8.72894 78.9755 9.23688V8.45336H77.459V15.3239H78.9755V11.2018C78.9755 10.3083 79.4996 9.8003 80.2024 9.8003C81.0016 9.8003 81.4289 10.3083 81.4289 11.2018V15.3239H82.9453V11.2018C82.9453 10.3083 83.4695 9.8003 84.1718 9.8003C84.9849 9.8003 85.3982 10.3083 85.3982 11.2018V15.3239H86.9147V10.8173C86.9168 9.12683 86.0627 8.37109 84.6555 8.37109ZM88.3359 8.45508H89.8524V15.3257H88.3359V8.45508ZM89.0965 5.625C88.5314 5.625 88.0762 6.0783 88.0762 6.65493C88.0762 7.2315 88.5314 7.68481 89.0965 7.68481C89.662 7.68481 90.1168 7.2315 90.1168 6.65493C90.1168 6.0783 89.662 5.625 89.0965 5.625ZM92.8622 15.3265H91.3457V5.70749L92.8622 5.54297V15.3265ZM94.3359 5.70749V15.3265H95.8524V5.54297L94.3359 5.70749Z" fill="#49494A"/>
</g>
<defs>
<clipPath id="clip0_175_8171">
<rect width="95.2977" height="20" fill="white" transform="translate(0.558594)"/>
</clipPath>
</defs>
</svg>
