<svg width="92" height="30" viewBox="0 0 92 30" fill="none" xmlns="http://www.w3.org/2000/svg">
<path d="M26.9953 19.8867L30.0222 19.24C30.1568 20.3179 30.8444 20.8568 32.0851 20.8568C32.6979 20.8568 33.1912 20.7413 33.5649 20.5103C33.9386 20.264 34.1255 19.9637 34.1255 19.6096C34.1255 19.2708 33.9536 19.0014 33.6098 18.8012C33.2809 18.601 32.8624 18.4701 32.3541 18.4085C31.8608 18.3469 31.3152 18.2469 30.7173 18.1083C30.1343 17.9697 29.5887 17.8003 29.0805 17.6002C28.5872 17.4 28.1687 17.0535 27.8249 16.5608C27.496 16.0681 27.3316 15.4522 27.3316 14.7131C27.3316 13.6352 27.78 12.7421 28.6769 12.0339C29.5887 11.3102 30.7248 10.9483 32.0851 10.9483C33.4453 10.9483 34.5664 11.264 35.4484 11.8953C36.3303 12.5112 36.8535 13.3427 37.0179 14.3897L34.0133 15.0364C33.8639 13.9586 33.2211 13.4197 32.0851 13.4197C31.5918 13.4197 31.1807 13.5274 30.8518 13.743C30.5379 13.9586 30.381 14.2357 30.381 14.5745C30.381 14.9286 30.5454 15.2058 30.8743 15.406C31.2181 15.6061 31.6366 15.737 32.1299 15.7986C32.6381 15.8602 33.1837 15.968 33.7667 16.122C34.3646 16.2605 34.9102 16.4299 35.4035 16.6301C35.9117 16.8303 36.3303 17.1844 36.6591 17.6925C37.0029 18.1853 37.1748 18.8089 37.1748 19.5634C37.1748 20.6258 36.6816 21.5189 35.695 22.2426C34.7084 22.9663 33.5051 23.3281 32.0851 23.3281C30.665 23.3281 29.4991 23.0202 28.5872 22.4043C27.6903 21.773 27.1597 20.9338 26.9953 19.8867Z" fill="white"/>
<path d="M40.1825 13.9278H37.8507V11.1793H40.1825V7.66858L43.2095 6.69852V11.1793H46.2141V13.9278H43.2095V18.6626C43.2095 19.7866 43.7551 20.3487 44.8463 20.3487H46.2141V23.0972H44.8463C43.2618 23.0972 42.0884 22.7199 41.3261 21.9654C40.5637 21.1955 40.1825 20.033 40.1825 18.4778V13.9278Z" fill="white"/>
<path d="M53.1156 10.9483C54.5806 10.9483 55.7689 11.3409 56.6807 12.1262C57.5926 12.9115 58.0485 14.0587 58.0485 15.5676V23.0972H55.0215V20.1408C54.3788 22.2657 53.0484 23.3281 51.0304 23.3281C50.0887 23.3281 49.2815 23.0125 48.6088 22.3812C47.9362 21.7499 47.5998 20.9261 47.5998 19.9098C47.5998 17.6771 49.0872 16.3991 52.0618 16.0758L53.9453 15.891C54.6628 15.8448 55.0215 15.5291 55.0215 14.944C55.0215 14.5129 54.8422 14.1664 54.4834 13.9047C54.1396 13.6429 53.6911 13.512 53.1381 13.512C52.5402 13.512 52.0469 13.6737 51.6582 13.9971C51.2845 14.305 51.0454 14.7439 50.9407 15.3136L47.9362 14.6207C48.1006 13.5582 48.6462 12.6806 49.573 11.9877C50.4998 11.2948 51.6806 10.9483 53.1156 10.9483ZM52.1067 20.8568C52.8989 20.8568 53.579 20.5796 54.1471 20.0253C54.73 19.471 55.0215 18.832 55.0215 18.1083V17.808C54.8421 17.9774 54.4983 18.0929 53.9901 18.1545L52.0394 18.3854C51.6059 18.447 51.2621 18.5933 51.008 18.8243C50.7539 19.0398 50.6268 19.317 50.6268 19.6558C50.6268 20.0099 50.7613 20.3025 51.0304 20.5334C51.2995 20.749 51.6582 20.8568 52.1067 20.8568Z" fill="white"/>
<path d="M61.1813 13.9278H58.8494V11.1793H61.1813V7.66858L64.2082 6.69852V11.1793H67.2128V13.9278H64.2082V18.6626C64.2082 19.7866 64.7538 20.3487 65.845 20.3487H67.2128V23.0972H65.845C64.2605 23.0972 63.0871 22.7199 62.3248 21.9654C61.5624 21.1955 61.1813 20.033 61.1813 18.4778V13.9278Z" fill="white"/>
<path d="M68.8088 18.0621V11.1793H71.8357V18.0621C71.8357 18.7858 72.06 19.3709 72.5084 19.8174C72.9568 20.264 73.5323 20.4872 74.2349 20.4872C74.9374 20.4872 75.5129 20.264 75.9614 19.8174C76.4098 19.3709 76.634 18.7858 76.634 18.0621V11.1793H79.661V18.0621C79.661 19.6173 79.1528 20.8876 78.1363 21.873C77.1199 22.8431 75.8194 23.3281 74.2349 23.3281C72.6504 23.3281 71.3499 22.8431 70.3335 21.873C69.317 20.8876 68.8088 19.6173 68.8088 18.0621Z" fill="white"/>
<path d="M81.3204 19.8867L84.3474 19.24C84.4819 20.3179 85.1695 20.8568 86.4102 20.8568C87.0231 20.8568 87.5164 20.7413 87.8901 20.5103C88.2638 20.264 88.4506 19.9637 88.4506 19.6096C88.4506 19.2708 88.2787 19.0014 87.9349 18.8012C87.606 18.601 87.1875 18.4701 86.6793 18.4085C86.186 18.3469 85.6404 18.2469 85.0425 18.1083C84.4595 17.9697 83.9139 17.8003 83.4057 17.6002C82.9124 17.4 82.4938 17.0535 82.15 16.5608C81.8212 16.0681 81.6567 15.4522 81.6567 14.7131C81.6567 13.6352 82.1052 12.7421 83.0021 12.0339C83.9139 11.3102 85.0499 10.9483 86.4102 10.9483C87.7705 10.9483 88.8916 11.264 89.7735 11.8953C90.6554 12.5112 91.1786 13.3427 91.343 14.3897L88.3385 15.0364C88.189 13.9586 87.5463 13.4197 86.4102 13.4197C85.9169 13.4197 85.5058 13.5274 85.177 13.743C84.8631 13.9586 84.7061 14.2357 84.7061 14.5745C84.7061 14.9286 84.8706 15.2058 85.1994 15.406C85.5432 15.6061 85.9618 15.737 86.4551 15.7986C86.9633 15.8602 87.5089 15.968 88.0919 16.122C88.6898 16.2605 89.2354 16.4299 89.7287 16.6301C90.2369 16.8303 90.6554 17.1844 90.9843 17.6925C91.3281 18.1853 91.5 18.8089 91.5 19.5634C91.5 20.6258 91.0067 21.5189 90.0201 22.2426C89.0336 22.9663 87.8303 23.3281 86.4102 23.3281C84.9902 23.3281 83.8242 23.0202 82.9124 22.4043C82.0155 21.773 81.4848 20.9338 81.3204 19.8867Z" fill="white"/>
<path d="M12.7895 26.2378C13.4005 25.8776 13.4002 24.9698 12.789 24.61L4.64058 19.8136C4.36054 19.6488 4.01673 19.6489 3.73681 19.814L0.958073 21.4523C0.347059 21.8125 0.347372 22.7203 0.958633 23.0801L9.10703 27.8765C9.38706 28.0413 9.73087 28.0412 10.0108 27.8761L12.7895 26.2378Z" fill="url(#paint0_linear_39_16782)"/>
<path d="M19.707 8.54772C20.318 8.18747 20.3177 7.27968 19.7064 6.91987L11.558 2.12354C11.278 1.9587 10.9342 1.95883 10.6543 2.12387L7.87552 3.76219C7.26451 4.12244 7.26482 5.03023 7.87608 5.39003L16.0245 10.1864C16.3045 10.3512 16.6483 10.3511 16.9282 10.186L19.707 8.54772Z" fill="url(#paint1_linear_39_16782)"/>
<path d="M20.1315 18.6189C20.1315 18.2823 19.9564 17.9716 19.6727 17.8047L1.88595 7.34088C1.27914 6.9839 0.524303 7.43525 0.524303 8.15508V11.4338C0.524303 11.7704 0.699413 12.0811 0.983128 12.248L18.7698 22.7118C19.3767 23.0688 20.1315 22.6174 20.1315 21.8976V18.6189Z" fill="url(#paint2_linear_39_16782)"/>
<defs>
<linearGradient id="paint0_linear_39_16782" x1="10.3325" y1="-3.05231" x2="10.3325" y2="28" gradientUnits="userSpaceOnUse">
<stop stop-color="#0DDABD"/>
<stop offset="0.557292" stop-color="#558BF6"/>
<stop offset="1" stop-color="#D64DE2"/>
</linearGradient>
<linearGradient id="paint1_linear_39_16782" x1="10.3325" y1="-3.05231" x2="10.3325" y2="28" gradientUnits="userSpaceOnUse">
<stop stop-color="#0DDABD"/>
<stop offset="0.557292" stop-color="#558BF6"/>
<stop offset="1" stop-color="#D64DE2"/>
</linearGradient>
<linearGradient id="paint2_linear_39_16782" x1="10.3325" y1="-3.05231" x2="10.3325" y2="28" gradientUnits="userSpaceOnUse">
<stop stop-color="#0DDABD"/>
<stop offset="0.557292" stop-color="#558BF6"/>
<stop offset="1" stop-color="#D64DE2"/>
</linearGradient>
</defs>
</svg>
