<svg width="81" height="30" viewBox="0 0 81 30" fill="none" xmlns="http://www.w3.org/2000/svg">
<path d="M31.4989 11.8239C31.7636 12.1327 32.0871 12.3974 32.4841 12.6327C33.1458 13.0444 34.131 13.4415 35.4692 13.4415C37.8954 13.4415 39.3659 11.971 39.3659 10.28C39.3659 6.69201 34.2193 7.47135 34.2193 5.72149C34.2193 5.13331 34.6457 4.69217 35.7633 4.69217C36.3515 4.69217 36.822 4.91274 37.1602 5.13331C37.3514 5.26565 37.5131 5.4127 37.6749 5.57445L39.1453 4.10398C38.8954 3.854 38.616 3.61872 38.2778 3.41286C37.7043 3.05994 36.822 2.70703 35.6897 2.70703C33.337 2.70703 31.94 4.10398 31.94 5.72149C31.94 9.30944 37.0867 8.53009 37.0867 10.28C37.0867 10.9417 36.572 11.4563 35.3956 11.4563C34.6163 11.4563 34.0134 11.1916 33.6017 10.9123C33.3517 10.7505 33.1458 10.5593 32.9694 10.3535L31.4989 11.8239Z" fill="white"/>
<path d="M41.0564 10.7211C41.0564 12.4268 42.0122 13.3679 43.4827 13.3679C43.8503 13.3679 44.1885 13.3238 44.4238 13.265C44.5561 13.2209 44.6884 13.1915 44.8061 13.1474V11.3093C44.7326 11.3387 44.659 11.3681 44.5708 11.3828C44.4091 11.4269 44.2179 11.4563 43.9973 11.4563C43.4091 11.4563 43.0415 11.0887 43.0415 10.427V8.00072H44.659V6.16264H43.0415V3.95693H41.277V5.28035C41.277 5.86854 41.0123 6.16264 40.4682 6.16264H39.8065V8.00072H41.0564V10.7211Z" fill="white"/>
<path d="M49.9619 13.2209H51.9471V8.73596C51.9471 7.13315 50.6972 5.86854 48.8591 5.86854C47.9033 5.86854 47.1827 6.22146 46.6681 6.57437C46.374 6.78023 46.124 7.01551 45.9181 7.26549L47.0945 8.44187C47.2121 8.29482 47.3592 8.16248 47.5209 8.04484C47.8003 7.82427 48.1974 7.63311 48.712 7.63311C49.462 7.63311 49.8884 8.07425 49.9619 8.58891L47.6827 9.00064C46.3446 9.23592 45.5505 10.1329 45.5505 11.3093C45.5505 12.4857 46.4328 13.3679 47.7562 13.3679C48.4473 13.3679 48.9914 13.1327 49.3443 12.8533C49.5502 12.7062 49.7266 12.5298 49.8884 12.3386H49.9619V13.2209ZM49.9619 10.1329C49.9619 11.0887 49.3002 11.7504 48.4179 11.7504C47.8297 11.7504 47.5356 11.471 47.5356 11.0152C47.5356 10.6476 47.8297 10.3829 48.3444 10.28L49.9619 9.98586V10.1329Z" fill="white"/>
<path d="M53.201 13.2209H55.1861V9.83881C55.1861 8.66244 55.9214 7.9272 56.8772 7.9272C57.0977 7.9272 57.2595 7.95661 57.3771 7.97131L57.5389 8.00072V6.11991H57.3918C56.686 6.11991 56.1566 6.16264 55.8037 6.45673C55.5979 6.63319 55.4214 6.82435 55.2596 7.04492H55.1861V6.01559H53.201V13.2209Z" fill="white"/>
<path d="M59.2632 10.7211C59.2632 12.4268 60.219 13.3679 61.6895 13.3679C62.0571 13.3679 62.3953 13.3238 62.6306 13.265C62.7629 13.2209 62.8953 13.1915 63.0129 13.1474V11.3093C62.9394 11.3387 62.8659 11.3681 62.7776 11.3828C62.6159 11.4269 62.4247 11.4563 62.2042 11.4563C61.616 11.4563 61.2484 11.0887 61.2484 10.427V8.00072H62.8659V6.16264H61.2484V3.95693H59.4838V5.28035C59.4838 5.86854 59.2191 6.16264 58.675 6.16264H58.0133V8.00072H59.2632V10.7211Z" fill="white"/>
<path d="M64.125 10.3535C64.125 12.1916 65.3013 13.3679 66.7718 13.3679C67.4629 13.3679 68.007 13.0738 68.3599 12.7798C68.5658 12.6033 68.7422 12.4121 68.904 12.1916H68.9775V13.2209H70.9627V6.01559H68.9775V9.83881C68.9775 10.7946 68.3158 11.4563 67.4335 11.4563C66.6101 11.4563 66.1101 10.9417 66.1101 10.0594V6.01559H64.125V10.3535Z" fill="white"/>
<path d="M72.5761 16.3089H74.5613V12.1916H74.6348C74.7819 12.4121 74.973 12.6033 75.1936 12.7798C75.5906 13.0738 76.1347 13.3679 76.914 13.3679C78.6198 13.3679 80.1491 11.8239 80.1491 9.61824C80.1491 7.42724 78.6198 5.86854 76.914 5.86854C76.1347 5.86854 75.5906 6.16264 75.1936 6.45673C74.973 6.63319 74.7819 6.82435 74.6348 7.04492H74.5613V6.01559H72.5761V16.3089ZM76.3258 11.5299C75.2965 11.5299 74.4878 10.7211 74.4878 9.61824C74.4878 8.51539 75.2965 7.70663 76.3258 7.70663C77.3552 7.70663 78.1639 8.51539 78.1639 9.61824C78.1639 10.7211 77.3552 11.5299 76.3258 11.5299Z" fill="white"/>
<path d="M31.4989 26.0259C31.7636 26.3347 32.0871 26.5994 32.4841 26.8347C33.1458 27.2464 34.131 27.6434 35.4692 27.6434C37.8954 27.6434 39.3659 26.173 39.3659 24.4819C39.3659 20.894 34.2193 21.6733 34.2193 19.9235C34.2193 19.3353 34.6457 18.8941 35.7633 18.8941C36.3515 18.8941 36.822 19.1147 37.1602 19.3353C37.3514 19.4676 37.5131 19.6147 37.6749 19.7764L39.1453 18.3059C38.8954 18.056 38.616 17.8207 38.2778 17.6148C37.7043 17.2619 36.822 16.909 35.6897 16.909C33.337 16.909 31.94 18.3059 31.94 19.9235C31.94 23.5114 37.0867 22.7321 37.0867 24.4819C37.0867 25.1436 36.572 25.6583 35.3956 25.6583C34.6163 25.6583 34.0134 25.3936 33.6017 25.1142C33.3517 24.9525 33.1458 24.7613 32.9694 24.5554L31.4989 26.0259Z" fill="white"/>
<path d="M41.0564 24.9231C41.0564 26.6288 42.0122 27.5699 43.4827 27.5699C43.8503 27.5699 44.1885 27.5258 44.4238 27.467C44.5561 27.4229 44.6884 27.3934 44.8061 27.3493V25.5112C44.7326 25.5407 44.659 25.5701 44.5708 25.5848C44.4091 25.6289 44.2179 25.6583 43.9973 25.6583C43.4091 25.6583 43.0415 25.2907 43.0415 24.629V22.2027H44.659V20.3646H43.0415V18.1589H41.277V19.4823C41.277 20.0705 41.0123 20.3646 40.4682 20.3646H39.8065V22.2027H41.0564V24.9231Z" fill="white"/>
<path d="M49.9619 27.4229H51.9471V22.9379C51.9471 21.3351 50.6972 20.0705 48.8591 20.0705C47.9033 20.0705 47.1827 20.4234 46.6681 20.7763C46.374 20.9822 46.124 21.2175 45.9181 21.4675L47.0945 22.6438C47.2121 22.4968 47.3592 22.3644 47.5209 22.2468C47.8003 22.0262 48.1974 21.8351 48.712 21.8351C49.462 21.8351 49.8884 22.2762 49.9619 22.7909L47.6827 23.2026C46.3446 23.4379 45.5505 24.3349 45.5505 25.5112C45.5505 26.6876 46.4328 27.5699 47.7562 27.5699C48.4473 27.5699 48.9914 27.3346 49.3443 27.0552C49.5502 26.9082 49.7266 26.7317 49.8884 26.5406H49.9619V27.4229ZM49.9619 24.3349C49.9619 25.2907 49.3002 25.9524 48.4179 25.9524C47.8297 25.9524 47.5356 25.673 47.5356 25.2172C47.5356 24.8495 47.8297 24.5849 48.3444 24.4819L49.9619 24.1878V24.3349Z" fill="white"/>
<path d="M58.3476 24.8495C58.2153 25.0113 58.0535 25.1583 57.8771 25.2907C57.5683 25.5112 57.1271 25.7318 56.5831 25.7318C55.5537 25.7318 54.745 24.9231 54.745 23.8202C54.745 22.7174 55.5537 21.9086 56.5831 21.9086C57.1271 21.9086 57.5683 22.1292 57.8771 22.3497C58.0535 22.4821 58.2153 22.6291 58.3476 22.7909L59.5975 21.541C59.4064 21.2616 59.1564 21.0263 58.8623 20.8057C58.3476 20.4381 57.6271 20.0705 56.5831 20.0705C54.4509 20.0705 52.7598 21.7615 52.7598 23.8202C52.7598 25.8789 54.4509 27.5699 56.5831 27.5699C57.6271 27.5699 58.3476 27.2023 58.8623 26.8347C59.1564 26.6141 59.4064 26.3788 59.5975 26.0994L58.3476 24.8495Z" fill="white"/>
<path d="M60.62 27.4229H62.6051V25.7318L63.5609 24.629L65.399 27.4229H67.6782L64.8843 23.232L67.5312 20.2176H65.1784L62.6051 23.1585V17.1296H60.62V27.4229Z" fill="white"/>
<path d="M11.6609 15.7709V2.02533C11.6609 1.06334 10.6807 0.412138 9.79388 0.784993L0.824126 4.55637C0.324857 4.76629 0.00012207 5.2551 0.00012207 5.7967V15.7709C0.00012207 16.514 0.602526 17.1164 1.34563 17.1164H10.3154C11.0585 17.1164 11.6609 16.514 11.6609 15.7709Z" fill="#01C08B"/>
<path d="M13.454 14.2213V27.9669C13.454 28.9288 14.4342 29.58 15.321 29.2072L24.2907 25.4358C24.79 25.2259 25.1147 24.7371 25.1147 24.1955V14.2213C25.1147 13.4782 24.5123 12.8758 23.7692 12.8758H14.7995C14.0564 12.8758 13.454 13.4782 13.454 14.2213Z" fill="#FBC939"/>
<path d="M13.454 9.73725V2.07806C13.454 1.10241 14.4599 0.451119 15.3501 0.850361L24.3198 4.8731C24.8035 5.09002 25.1147 5.57071 25.1147 6.1008V9.73725C25.1147 10.4803 24.5123 11.0828 23.7692 11.0828H14.7995C14.0564 11.0828 13.454 10.4804 13.454 9.73725Z" fill="#DE564E"/>
<path d="M11.6608 20.2628V27.9219C11.6608 28.8976 10.6549 29.5489 9.76466 29.1496L0.794913 25.1269C0.311239 24.91 0 24.4293 0 23.8992V20.2628C0 19.5197 0.602404 18.9172 1.34551 18.9172H10.3153C11.0584 18.9172 11.6608 19.5196 11.6608 20.2628Z" fill="#46BEE0"/>
</svg>
