<svg width="107" height="30" viewBox="0 0 107 30" fill="none" xmlns="http://www.w3.org/2000/svg">
<g clip-path="url(#clip0_2377_19684)">
<path opacity="0.8" d="M4.28691 10.7737C4.2824 7.82771 5.16218 4.9463 6.81547 2.49219C4.93577 3.71994 3.35637 5.34416 2.19152 7.24735C1.02666 9.15055 0.305469 11.2852 0.0800999 13.4968C-0.145269 15.7084 0.130819 17.9417 0.888395 20.0353C1.64597 22.1288 2.8661 24.0302 4.46053 25.602C6.05496 27.1737 7.98383 28.3766 10.1076 29.1234C12.2314 29.8703 14.4971 30.1425 16.7407 29.9204C18.9844 29.6984 21.1499 28.9876 23.0807 27.8394C25.0114 26.6912 26.6592 25.1344 27.9048 23.2816C25.6117 24.7784 22.9498 25.6346 20.2024 25.7592C17.455 25.8837 14.7246 25.2719 12.3018 23.9887C9.87902 22.7056 7.8543 20.7992 6.443 18.4723C5.0317 16.1453 4.28658 13.4848 4.28691 10.7737Z" fill="#3373B5"/>
<path opacity="0.8" d="M20.9317 5.63418C23.5676 5.63033 26.1589 6.30451 28.4495 7.59013C27.2916 5.58307 25.6792 3.86663 23.7379 2.57451C21.7967 1.28238 19.5791 0.449468 17.2577 0.140638C14.9364 -0.168191 12.5741 0.0554036 10.3549 0.794006C8.13559 1.53261 6.11926 2.76628 4.46293 4.39891C2.8066 6.03155 1.555 8.01907 0.805614 10.2067C0.0562314 12.3943 -0.170698 14.7228 0.142503 17.0111C0.455704 19.2993 1.30058 21.4853 2.61132 23.3989C3.92205 25.3125 5.66326 26.902 7.69931 28.0435C6.38412 25.7618 5.69927 23.1798 5.71317 20.5554C5.72707 17.9311 6.43923 15.3563 7.77851 13.0882C9.1178 10.8201 11.0373 8.93804 13.3454 7.63002C15.6535 6.32201 18.2693 5.63382 20.9317 5.63418Z" fill="#55A8DC"/>
<path opacity="0.8" d="M15.2175 6.43142e-08C14.2585 -8.71786e-05 13.3016 0.0885851 12.3594 0.26485C15.8386 0.918021 18.9777 2.74706 21.2357 5.43677C23.4937 8.12647 24.7291 11.5083 24.7291 14.9996C24.7291 18.4908 23.4937 21.8727 21.2357 24.5624C18.9777 27.2521 15.8386 29.0811 12.3594 29.7343C14.4403 30.125 16.5811 30.083 18.6446 29.6112C20.7082 29.1393 22.6491 28.248 24.3431 26.9941C26.037 25.7403 27.4467 24.1517 28.482 22.3299C29.5172 20.5081 30.1552 18.4933 30.355 16.4145C30.5548 14.3356 30.3121 12.2386 29.6424 10.2575C28.9727 8.2765 27.8907 6.45513 26.4658 4.91C25.0409 3.36488 23.3044 2.13005 21.3675 1.28456C19.4305 0.439068 17.3358 0.00154618 15.2175 6.43142e-08Z" fill="#4AA79D"/>
<path d="M103.908 8.91947H103.393V8.74805H104.628V8.91947H104.112V10.3114H103.908V8.91947ZM104.909 8.74805H105.236L105.748 10.0157L106.245 8.74805H106.572V10.3114H106.367V8.93061H106.36L105.798 10.3114H105.682L105.126 8.93061H105.118V10.3114H104.914L104.909 8.74805Z" fill="white" stroke="white" stroke-width="0.142724" stroke-miterlimit="10"/>
<path d="M90.0538 8.62012H82.8828V10.3258H90.0538V8.62012Z" fill="white"/>
<path d="M52.5524 8.5752V15.8564C52.5359 18.4509 51.3672 19.7666 49.0804 19.7666C46.7649 19.7666 45.591 18.4518 45.591 15.8581V8.5752H43.7441V15.8564C43.7441 16.8944 43.918 18.3781 44.7476 19.5497C45.6458 20.82 47.104 21.4645 49.0804 21.4645C51.0568 21.4645 52.502 20.82 53.3984 19.5497C54.2253 18.3772 54.3992 16.8927 54.3992 15.8564V8.5752H52.5524Z" fill="white"/>
<path d="M61.2775 8.62695H56.5586V21.4623H58.4055V17.8427H61.2749C64.3773 17.8427 66.3816 16.0376 66.3816 13.2442C66.3816 10.4509 64.3799 8.62695 61.2775 8.62695ZM61.1036 16.1439H58.4081V10.3258H61.1036C63.9443 10.3258 64.5399 11.9131 64.5399 13.2442C64.5373 15.6408 62.6687 16.1439 61.101 16.1439H61.1036Z" fill="white"/>
<path d="M70.2872 8.62695H68.4395V21.4623H70.2872V8.62695Z" fill="white"/>
<path d="M72.252 10.3189H75.7474V21.4555H77.5952V10.3189H81.0715V8.62012H72.252V10.3189Z" fill="white"/>
<path d="M99.4847 16.7243C100.384 16.2486 101.832 15.1361 101.832 12.9067C101.832 10.3422 100 8.62109 97.2727 8.62109H92.3242V21.4556H94.1685V17.2094H97.7283C97.737 17.2094 97.7413 17.2094 97.7413 17.2094C97.7449 17.2131 97.7481 17.2171 97.7509 17.2214L99.9343 21.4547H101.974L99.4847 16.7243ZM97.4996 15.4935H94.1685V10.319H97.1466C99.7064 10.319 99.983 12.1284 99.983 12.9067C99.9991 13.5736 99.7471 14.2199 99.2819 14.7044C98.8167 15.189 98.1761 15.4726 97.4996 15.4935Z" fill="white"/>
<path d="M84.7305 19.7563V15.7844L89.232 15.7818V14.0762H82.8828V21.4628H90.4294V19.7563H84.7305Z" fill="white"/>
<path d="M39.631 8.5752V16.6715C39.631 18.6301 39.2832 19.7632 37.5007 19.7632C37.3328 19.7632 35.8538 19.7134 35.526 17.9941C35.526 17.9778 35.5181 17.9452 35.4608 17.5801C35.3947 17.5801 33.6695 17.8372 33.6348 17.8372C33.648 17.975 33.6727 18.1114 33.7087 18.2452C33.8452 18.8529 34.1504 19.7074 34.8338 20.4017C35.5173 21.096 36.4198 21.4594 37.4963 21.4594C41.0057 21.4594 41.4561 18.9172 41.4561 16.7032V8.5752H39.631Z" fill="white"/>
</g>
<defs>
<clipPath id="clip0_2377_19684">
<rect width="106.615" height="30" fill="white"/>
</clipPath>
</defs>
</svg>
