<svg width="157" height="30" viewBox="0 0 157 30" fill="none" xmlns="http://www.w3.org/2000/svg">
<g clip-path="url(#clip0_2377_19820)">
<path d="M34.8078 6.91092C34.533 6.35946 34.0993 5.90298 33.5626 5.60039C33.0259 5.29779 32.4109 5.16295 31.7968 5.21326C31.1827 5.26357 30.5978 5.49673 30.1176 5.88266C29.6373 6.26859 29.2836 6.78957 29.1023 7.3784L27.6299 12.2171L27.4771 12.7177L26.7557 15.0937L25.8078 18.2226L23.9673 24.2796C23.3863 26.1803 22.1266 27.801 20.4281 28.833C19.2172 29.5712 17.8319 29.9746 16.414 30.0017C16.3551 30.0017 16.2962 30.0017 16.2299 30.0017H16.0459C14.8175 29.9723 13.612 29.6627 12.5215 29.0965C11.4309 28.5303 10.4841 27.7226 9.75321 26.7348C9.62438 26.56 9.49923 26.3778 9.38512 26.1827C9.20944 25.9008 9.05147 25.6082 8.91211 25.3066V25.2864C9.16592 25.8056 9.56051 26.2431 10.0509 26.549C10.5413 26.8549 11.1078 27.0169 11.6857 27.0164C12.1145 27.0167 12.5385 26.9264 12.9299 26.7514C13.3349 26.5723 13.6964 26.3079 13.9899 25.9763C14.2834 25.6447 14.5019 25.2537 14.6305 24.8299L16.1029 20.0005L16.3716 19.1207L16.9771 17.133L17.925 14.0042L19.7655 7.94711C19.9487 7.33888 20.2046 6.75492 20.5274 6.20785C21.2396 4.99146 22.258 3.98286 23.4812 3.28246C24.7044 2.58206 26.0897 2.21431 27.4992 2.21582H27.6833C29.0598 2.24719 30.4054 2.63012 31.5921 3.3282C32.7789 4.02628 33.7674 5.01631 34.4636 6.20417C34.5998 6.42869 34.7227 6.66099 34.8317 6.89987" fill="white"/>
<path d="M16.3491 19.1272L16.0804 20.007L14.608 24.8364C14.4791 25.26 14.2605 25.6509 13.9671 25.9825C13.6736 26.3141 13.3122 26.5785 12.9074 26.7579C12.5159 26.9327 12.0919 27.023 11.6632 27.0229C11.0852 27.0234 10.5188 26.8614 10.0284 26.5555C9.53797 26.2496 9.14338 25.8121 8.88957 25.2929L8.87853 25.2689C8.85644 25.2211 8.83436 25.1732 8.81411 25.1254C8.81411 25.1456 8.83068 25.1659 8.83988 25.1861L0.461963 7.09777C0.257526 6.65666 0.11923 6.18781 0.0515337 5.70636C0.0178289 5.47228 0.000608645 5.23611 0 4.99961C0.000641911 3.91285 0.355302 2.85588 1.0103 1.98868C1.6653 1.12148 2.58497 0.491263 3.63013 0.19342C4.67528 -0.104423 5.78901 -0.053678 6.80275 0.337973C7.81649 0.729625 8.67504 1.44086 9.24847 2.36403C9.38935 2.58841 9.51242 2.82349 9.61656 3.0671L14.2344 14.088L15.5448 17.2168L16.3491 19.1272Z" fill="white"/>
<path d="M38.6005 19.1257L38.2324 20.0257L36.5888 23.9404C36.4134 24.3585 36.1479 24.7327 35.8114 25.0365C35.4748 25.3403 35.0754 25.5662 34.6416 25.6981C34.3655 25.7811 34.0795 25.8263 33.7913 25.8324C33.1661 25.8408 32.5532 25.659 32.0336 25.3113C31.5139 24.9636 31.1122 24.4663 30.8815 23.8852C30.9109 24.014 30.9459 24.1428 30.9845 24.268L29.144 18.2109L28.1944 15.0821L27.4766 12.7152L27.6293 12.2146L29.1017 7.37598C29.2821 6.78637 29.6352 6.26445 30.1154 5.87771C30.5956 5.49097 31.1808 5.25721 31.7953 5.20666C32.4098 5.15611 33.0254 5.2911 33.5623 5.59417C34.0993 5.89724 34.5329 6.35444 34.8072 6.90665L34.8588 7.0134C34.879 7.06493 34.9011 7.11463 34.9214 7.16616C35.0315 7.42261 35.1274 7.68498 35.2085 7.95205L37.049 14.0091L37.9987 17.1379L38.6005 19.1257Z" fill="white"/>
<path d="M54.9505 4.99983C54.95 5.23879 54.9328 5.47741 54.8989 5.71395C54.8302 6.19258 54.6926 6.65876 54.4903 7.09799L46.0498 25.3189C45.9105 25.6204 45.7525 25.913 45.5768 26.1949C45.4609 26.379 45.3357 26.563 45.2087 26.7471C44.4552 27.7587 43.4753 28.58 42.3474 29.145C41.2196 29.7101 39.9751 30.0032 38.7136 30.0011C38.664 30.0011 38.6124 30.0011 38.5609 30.0011H38.41H38.3842C36.7088 29.9339 35.0957 29.3472 33.7687 28.3223C32.4417 27.2973 31.4664 25.8849 30.9781 24.2808C30.9394 24.1557 30.9044 24.0268 30.875 23.898C31.1053 24.4794 31.5069 24.977 32.0266 25.3248C32.5464 25.6726 33.1595 25.8541 33.7848 25.8452C34.073 25.8391 34.3591 25.7939 34.6351 25.7109C35.0689 25.579 35.4683 25.3531 35.8049 25.0493C36.1415 24.7455 36.4069 24.3713 36.5824 23.9532L38.2259 20.0385L38.594 19.1403L39.4057 17.2097L40.7161 14.0808L45.3394 3.05996C45.4436 2.81636 45.5667 2.58129 45.7075 2.35689C46.2805 1.43325 47.1389 0.721527 48.1526 0.329547C49.1664 -0.0624325 50.2803 -0.113307 51.3256 0.184632C52.3709 0.482571 53.2906 1.11309 53.9453 1.98065C54.6001 2.84822 54.9543 3.90556 54.9541 4.99247" fill="white"/>
<path d="M75.8274 21.917H72.4335L70.5249 14.5145C70.4531 14.2513 70.3408 13.7065 70.1568 12.882C69.9728 12.0575 69.8881 11.5016 69.8642 11.2256C69.8261 11.574 69.7292 12.1317 69.5734 12.8986C69.4206 13.666 69.301 14.2145 69.2181 14.5421L67.3243 21.917H63.9323L60.3359 7.82617H63.2807L65.0826 15.5176C65.3967 16.9384 65.6249 18.1691 65.7672 19.2096C65.8053 18.8415 65.8936 18.274 66.0323 17.5072C66.1703 16.7397 66.2991 16.1434 66.4224 15.72L68.4654 7.82617H71.2905L73.3427 15.72C73.4335 16.0734 73.5458 16.6133 73.6795 17.3397C73.8132 18.066 73.9157 18.6894 73.9869 19.2096C74.0513 18.7072 74.1543 18.0832 74.2961 17.3341C74.4378 16.5851 74.5648 15.9795 74.6807 15.5176L76.4734 7.82617H79.4182L75.8274 21.917Z" fill="white"/>
<path d="M82.5702 16.5104C82.5702 17.5779 82.7451 18.3847 83.0948 18.9307C83.4444 19.4767 84.015 19.7497 84.8064 19.7497C85.5905 19.7497 86.1543 19.4785 86.4978 18.9362C86.8414 18.3939 87.0132 17.5853 87.0132 16.5104C87.0132 15.4442 86.8395 14.6466 86.4923 14.1178C86.1451 13.589 85.5763 13.3227 84.7862 13.319C84.0021 13.319 83.4371 13.5841 83.0911 14.1141C82.7451 14.6442 82.5714 15.443 82.5702 16.5104ZM90.0205 16.5104C90.0205 18.2663 89.5579 19.6387 88.6328 20.6276C87.7076 21.6166 86.4193 22.1111 84.7678 22.1111C83.8115 22.1308 82.8671 21.8964 82.0309 21.4319C81.2404 20.9798 80.6052 20.2991 80.2089 19.4792C79.7665 18.5533 79.5484 17.5363 79.5721 16.5104C79.5721 14.7509 80.0316 13.3828 80.9506 12.4062C81.8696 11.4295 83.161 10.9387 84.8248 10.9338C85.781 10.9142 86.7255 11.1465 87.5635 11.6074C88.3515 12.0554 88.9859 12.7309 89.3837 13.5454C89.8264 14.4672 90.0447 15.4808 90.0205 16.5031" fill="white"/>
<path d="M98.0163 10.9393C98.3492 10.9331 98.6818 10.9628 99.0084 11.0276L98.7875 13.7883C98.5038 13.7198 98.2125 13.6876 97.9206 13.6926C96.982 13.6926 96.2507 13.9337 95.7268 14.4159C95.2028 14.8982 94.9409 15.573 94.9409 16.4405V21.9252H91.9961V11.1417H94.2323L94.6666 12.9546H94.8102C95.1332 12.3629 95.5988 11.8612 96.1648 11.4951C96.7151 11.1318 97.3606 10.9396 98.02 10.9429" fill="white"/>
<path d="M103.308 16.0571L104.591 14.4191L107.607 11.1411H110.922L106.643 15.816L111.183 21.9172H107.789L104.686 17.5516L103.424 18.5638V21.9172H100.484V6.9209H103.424V13.6092L103.269 16.0571H103.308Z" fill="white"/>
<path d="M121.342 18.0043C121.342 19.2766 120.885 20.2791 119.969 21.0116C119.054 21.7441 117.78 22.1122 116.148 22.1159C114.771 22.143 113.406 21.8527 112.158 21.2674V18.4865C112.938 18.8477 113.745 19.1474 114.571 19.3828C115.16 19.5459 115.767 19.6331 116.378 19.6423C117.035 19.6423 117.538 19.5196 117.888 19.2742C118.062 19.1467 118.201 18.9777 118.292 18.7825C118.384 18.5873 118.425 18.3722 118.412 18.157C118.416 17.8933 118.336 17.6353 118.182 17.4208C117.994 17.1751 117.764 16.9645 117.503 16.7987C116.913 16.4401 116.303 16.1162 115.675 15.8288C114.983 15.5291 114.333 15.1392 113.743 14.6693C113.319 14.3055 112.968 13.8638 112.71 13.3681C112.443 12.8299 112.311 12.2349 112.326 11.6343C112.326 10.3865 112.748 9.40487 113.592 8.68953C114.436 7.97419 115.602 7.61775 117.089 7.6202C117.796 7.61698 118.5 7.70419 119.185 7.87971C119.898 8.07217 120.596 8.31827 121.272 8.61591L120.308 10.9386C119.702 10.6806 119.079 10.4653 118.443 10.2944C117.969 10.1737 117.482 10.1118 116.993 10.1104C116.426 10.1104 115.994 10.2429 115.692 10.5061C115.458 10.7193 115.303 11.0061 115.254 11.3189C115.205 11.6318 115.264 11.9522 115.421 12.227C115.575 12.4541 115.774 12.6476 116.005 12.7957C116.616 13.1612 117.249 13.4906 117.899 13.7822C119.218 14.4104 120.121 15.0417 120.61 15.676C121.112 16.3461 121.372 17.1671 121.346 18.0043" fill="white"/>
<path d="M128.323 13.2916C127.598 13.2916 127.066 13.5161 126.733 13.9615C126.4 14.4069 126.225 15.1468 126.212 16.1701V16.4922C126.212 17.648 126.384 18.4769 126.728 18.9787C127.071 19.4806 127.616 19.7315 128.362 19.7315C129.68 19.7315 130.339 18.645 130.339 16.472C130.339 15.4118 130.176 14.6143 129.851 14.0793C129.526 13.5444 129.017 13.2793 128.323 13.2842M129.19 22.1039C127.926 22.1039 126.934 21.6444 126.212 20.7253H126.058C126.161 21.6247 126.212 22.1456 126.212 22.2879V26.6536H123.268V11.1419H125.66L126.074 12.5407H126.209C126.897 11.4732 127.915 10.9395 129.264 10.9395C130.538 10.9395 131.534 11.4303 132.253 12.4118C132.972 13.3934 133.331 14.7585 133.331 16.5069C133.356 17.531 133.186 18.5504 132.829 19.5106C132.549 20.2838 132.048 20.9577 131.388 21.4487C130.745 21.8987 129.975 22.1315 129.19 22.1131" fill="white"/>
<path d="M141.339 16.9345L140.201 16.9732C139.342 16.9989 138.706 17.1529 138.293 17.4351C138.086 17.5775 137.92 17.771 137.81 17.9968C137.7 18.2226 137.651 18.4729 137.667 18.7235C137.667 19.5517 138.142 19.9658 139.093 19.9658C139.391 19.9804 139.689 19.9361 139.969 19.8353C140.25 19.7346 140.507 19.5794 140.728 19.3787C140.933 19.1753 141.093 18.9312 141.199 18.6621C141.304 18.3929 141.352 18.1048 141.339 17.8161V16.9345ZM142.207 21.9259L141.639 20.4535H141.561C141.159 20.9956 140.636 21.4367 140.034 21.7419C139.385 22.0086 138.687 22.1341 137.985 22.11C136.951 22.11 136.136 21.8143 135.541 21.2228C134.946 20.6314 134.649 19.7897 134.65 18.6977C134.65 17.5541 135.05 16.7112 135.85 16.1689C136.65 15.6265 137.857 15.3296 139.469 15.2781L141.339 15.2192V14.7388C141.339 13.6455 140.78 13.0995 139.662 13.1008C138.803 13.1008 137.791 13.3609 136.625 13.8811L135.644 11.8952C136.919 11.2375 138.336 10.9032 139.771 10.9216C141.215 10.9216 142.323 11.2363 143.096 11.8658C143.869 12.4952 144.255 13.4529 144.252 14.7388V21.9167L142.207 21.9259Z" fill="white"/>
<path d="M156.711 21.9177H153.766V15.6251C153.766 14.8466 153.626 14.2631 153.35 13.8748C153.074 13.4864 152.634 13.2913 152.03 13.2913C151.207 13.2913 150.613 13.5662 150.247 14.1159C149.879 14.668 149.695 15.5754 149.695 16.849V21.9177H146.75V11.1416H148.997L149.404 12.5165H149.568C149.894 12.0012 150.363 11.5924 150.919 11.3404C151.535 11.0643 152.205 10.9273 152.881 10.9392C154.135 10.9392 155.086 11.2785 155.733 11.957C156.381 12.6355 156.706 13.6171 156.707 14.9018L156.711 21.9177Z" fill="white"/>
<path d="M34.8078 6.91092C34.533 6.35946 34.0993 5.90298 33.5626 5.60039C33.0259 5.29779 32.4109 5.16295 31.7968 5.21326C31.1827 5.26357 30.5978 5.49673 30.1176 5.88266C29.6373 6.26859 29.2836 6.78957 29.1023 7.3784L27.6299 12.2171L27.4771 12.7177L26.7557 15.0937L25.8078 18.2226L23.9673 24.2796C23.3863 26.1803 22.1266 27.801 20.4281 28.833C19.2172 29.5712 17.8319 29.9746 16.414 30.0017C16.3551 30.0017 16.2962 30.0017 16.2299 30.0017H16.0459C14.8175 29.9723 13.612 29.6627 12.5215 29.0965C11.4309 28.5303 10.4841 27.7226 9.75321 26.7348C9.62438 26.56 9.49923 26.3778 9.38512 26.1827C9.20944 25.9008 9.05147 25.6082 8.91211 25.3066V25.2864C9.16592 25.8056 9.56051 26.2431 10.0509 26.549C10.5413 26.8549 11.1078 27.0169 11.6857 27.0164C12.1145 27.0167 12.5385 26.9264 12.9299 26.7514C13.3349 26.5723 13.6964 26.3079 13.9899 25.9763C14.2834 25.6447 14.5019 25.2537 14.6305 24.8299L16.1029 20.0005L16.3716 19.1207L16.9771 17.133L17.925 14.0042L19.7655 7.94711C19.9487 7.33888 20.2046 6.75492 20.5274 6.20785C21.2396 4.99146 22.258 3.98286 23.4812 3.28246C24.7044 2.58206 26.0897 2.21431 27.4992 2.21582H27.6833C29.0598 2.24719 30.4054 2.63012 31.5921 3.3282C32.7789 4.02628 33.7674 5.01631 34.4636 6.20417C34.5998 6.42869 34.7227 6.66099 34.8317 6.89987" fill="#3682FF"/>
<path d="M16.3491 19.1272L16.0804 20.007L14.608 24.8364C14.4791 25.26 14.2605 25.6509 13.9671 25.9825C13.6736 26.3141 13.3122 26.5785 12.9074 26.7579C12.5159 26.9327 12.0919 27.023 11.6632 27.0229C11.0852 27.0234 10.5188 26.8614 10.0284 26.5555C9.53797 26.2496 9.14338 25.8121 8.88957 25.2929L8.87853 25.2689C8.85644 25.2211 8.83436 25.1732 8.81411 25.1254C8.81411 25.1456 8.83068 25.1659 8.83988 25.1861L0.461963 7.09777C0.257526 6.65666 0.11923 6.18781 0.0515337 5.70636C0.0178289 5.47228 0.000608645 5.23611 0 4.99961C0.000641911 3.91285 0.355302 2.85588 1.0103 1.98868C1.6653 1.12148 2.58497 0.491263 3.63013 0.19342C4.67528 -0.104423 5.78901 -0.053678 6.80275 0.337973C7.81649 0.729625 8.67504 1.44086 9.24847 2.36403C9.38935 2.58841 9.51242 2.82349 9.61656 3.0671L14.2344 14.088L15.5448 17.2168L16.3491 19.1272Z" fill="#0A0A9E"/>
<path d="M38.6005 19.1257L38.2324 20.0257L36.5888 23.9404C36.4134 24.3585 36.1479 24.7327 35.8114 25.0365C35.4748 25.3403 35.0754 25.5662 34.6416 25.6981C34.3655 25.7811 34.0795 25.8263 33.7913 25.8324C33.1661 25.8408 32.5532 25.659 32.0336 25.3113C31.5139 24.9636 31.1122 24.4663 30.8815 23.8852C30.9109 24.014 30.9459 24.1428 30.9845 24.268L29.144 18.2109L28.1944 15.0821L27.4766 12.7152L27.6293 12.2146L29.1017 7.37598C29.2821 6.78637 29.6352 6.26445 30.1154 5.87771C30.5956 5.49097 31.1808 5.25721 31.7953 5.20666C32.4098 5.15611 33.0254 5.2911 33.5623 5.59417C34.0993 5.89724 34.5329 6.35444 34.8072 6.90665L34.8588 7.0134C34.879 7.06493 34.9011 7.11463 34.9214 7.16616C35.0315 7.42261 35.1274 7.68498 35.2085 7.95205L37.049 14.0091L37.9987 17.1379L38.6005 19.1257Z" fill="#0A0A9E"/>
<path d="M54.9505 4.99983C54.95 5.23879 54.9328 5.47741 54.8989 5.71395C54.8302 6.19258 54.6926 6.65876 54.4903 7.09799L46.0498 25.3189C45.9105 25.6204 45.7525 25.913 45.5768 26.1949C45.4609 26.379 45.3357 26.563 45.2087 26.7471C44.4552 27.7587 43.4753 28.58 42.3474 29.145C41.2196 29.7101 39.9751 30.0032 38.7136 30.0011C38.664 30.0011 38.6124 30.0011 38.5609 30.0011H38.41H38.3842C36.7088 29.9339 35.0957 29.3472 33.7687 28.3223C32.4417 27.2973 31.4664 25.8849 30.9781 24.2808C30.9394 24.1557 30.9044 24.0268 30.875 23.898C31.1053 24.4794 31.5069 24.977 32.0266 25.3248C32.5464 25.6726 33.1595 25.8541 33.7848 25.8452C34.073 25.8391 34.3591 25.7939 34.6351 25.7109C35.0689 25.579 35.4683 25.3531 35.8049 25.0493C36.1415 24.7455 36.4069 24.3713 36.5824 23.9532L38.2259 20.0385L38.594 19.1403L39.4057 17.2097L40.7161 14.0808L45.3394 3.05996C45.4436 2.81636 45.5667 2.58129 45.7075 2.35689C46.2805 1.43325 47.1389 0.721527 48.1526 0.329547C49.1664 -0.0624325 50.2803 -0.113307 51.3256 0.184632C52.3709 0.482571 53.2906 1.11309 53.9453 1.98065C54.6001 2.84822 54.9543 3.90556 54.9541 4.99247" fill="#3682FF"/>
<path d="M75.8274 21.917H72.4335L70.5249 14.5145C70.4531 14.2513 70.3408 13.7065 70.1568 12.882C69.9728 12.0575 69.8881 11.5016 69.8642 11.2256C69.8261 11.574 69.7292 12.1317 69.5734 12.8986C69.4206 13.666 69.301 14.2145 69.2181 14.5421L67.3243 21.917H63.9323L60.3359 7.82617H63.2807L65.0826 15.5176C65.3967 16.9384 65.6249 18.1691 65.7672 19.2096C65.8053 18.8415 65.8936 18.274 66.0323 17.5072C66.1703 16.7397 66.2991 16.1434 66.4224 15.72L68.4654 7.82617H71.2905L73.3427 15.72C73.4335 16.0734 73.5458 16.6133 73.6795 17.3397C73.8132 18.066 73.9157 18.6894 73.9869 19.2096C74.0513 18.7072 74.1543 18.0832 74.2961 17.3341C74.4378 16.5851 74.5648 15.9795 74.6807 15.5176L76.4734 7.82617H79.4182L75.8274 21.917Z" fill="white"/>
<path d="M82.5702 16.5104C82.5702 17.5779 82.7451 18.3847 83.0948 18.9307C83.4444 19.4767 84.015 19.7497 84.8064 19.7497C85.5905 19.7497 86.1543 19.4785 86.4978 18.9362C86.8414 18.3939 87.0132 17.5853 87.0132 16.5104C87.0132 15.4442 86.8395 14.6466 86.4923 14.1178C86.1451 13.589 85.5763 13.3227 84.7862 13.319C84.0021 13.319 83.4371 13.5841 83.0911 14.1141C82.7451 14.6442 82.5714 15.443 82.5702 16.5104ZM90.0205 16.5104C90.0205 18.2663 89.5579 19.6387 88.6328 20.6276C87.7076 21.6166 86.4193 22.1111 84.7678 22.1111C83.8115 22.1308 82.8671 21.8964 82.0309 21.4319C81.2404 20.9798 80.6052 20.2991 80.2089 19.4792C79.7665 18.5533 79.5484 17.5363 79.5721 16.5104C79.5721 14.7509 80.0316 13.3828 80.9506 12.4062C81.8696 11.4295 83.161 10.9387 84.8248 10.9338C85.781 10.9142 86.7255 11.1465 87.5635 11.6074C88.3515 12.0554 88.9859 12.7309 89.3837 13.5454C89.8264 14.4672 90.0447 15.4808 90.0205 16.5031" fill="white"/>
<path d="M98.0163 10.9393C98.3492 10.9331 98.6818 10.9628 99.0084 11.0276L98.7875 13.7883C98.5038 13.7198 98.2125 13.6876 97.9206 13.6926C96.982 13.6926 96.2507 13.9337 95.7268 14.4159C95.2028 14.8982 94.9409 15.573 94.9409 16.4405V21.9252H91.9961V11.1417H94.2323L94.6666 12.9546H94.8102C95.1332 12.3629 95.5988 11.8612 96.1648 11.4951C96.7151 11.1318 97.3606 10.9396 98.02 10.9429" fill="white"/>
<path d="M103.308 16.0571L104.591 14.4191L107.607 11.1411H110.922L106.643 15.816L111.183 21.9172H107.789L104.686 17.5516L103.424 18.5638V21.9172H100.484V6.9209H103.424V13.6092L103.269 16.0571H103.308Z" fill="white"/>
<path d="M121.342 18.0043C121.342 19.2766 120.885 20.2791 119.969 21.0116C119.054 21.7441 117.78 22.1122 116.148 22.1159C114.771 22.143 113.406 21.8527 112.158 21.2674V18.4865C112.938 18.8477 113.745 19.1474 114.571 19.3828C115.16 19.5459 115.767 19.6331 116.378 19.6423C117.035 19.6423 117.538 19.5196 117.888 19.2742C118.062 19.1467 118.201 18.9777 118.292 18.7825C118.384 18.5873 118.425 18.3722 118.412 18.157C118.416 17.8933 118.336 17.6353 118.182 17.4208C117.994 17.1751 117.764 16.9645 117.503 16.7987C116.913 16.4401 116.303 16.1162 115.675 15.8288C114.983 15.5291 114.333 15.1392 113.743 14.6693C113.319 14.3055 112.968 13.8638 112.71 13.3681C112.443 12.8299 112.311 12.2349 112.326 11.6343C112.326 10.3865 112.748 9.40487 113.592 8.68953C114.436 7.97419 115.602 7.61775 117.089 7.6202C117.796 7.61698 118.5 7.70419 119.185 7.87971C119.898 8.07217 120.596 8.31827 121.272 8.61591L120.308 10.9386C119.702 10.6806 119.079 10.4653 118.443 10.2944C117.969 10.1737 117.482 10.1118 116.993 10.1104C116.426 10.1104 115.994 10.2429 115.692 10.5061C115.458 10.7193 115.303 11.0061 115.254 11.3189C115.205 11.6318 115.264 11.9522 115.421 12.227C115.575 12.4541 115.774 12.6476 116.005 12.7957C116.616 13.1612 117.249 13.4906 117.899 13.7822C119.218 14.4104 120.121 15.0417 120.61 15.676C121.112 16.3461 121.372 17.1671 121.346 18.0043" fill="white"/>
<path d="M128.323 13.2916C127.598 13.2916 127.066 13.5161 126.733 13.9615C126.4 14.4069 126.225 15.1468 126.212 16.1701V16.4922C126.212 17.648 126.384 18.4769 126.728 18.9787C127.071 19.4806 127.616 19.7315 128.362 19.7315C129.68 19.7315 130.339 18.645 130.339 16.472C130.339 15.4118 130.176 14.6143 129.851 14.0793C129.526 13.5444 129.017 13.2793 128.323 13.2842M129.19 22.1039C127.926 22.1039 126.934 21.6444 126.212 20.7253H126.058C126.161 21.6247 126.212 22.1456 126.212 22.2879V26.6536H123.268V11.1419H125.66L126.074 12.5407H126.209C126.897 11.4732 127.915 10.9395 129.264 10.9395C130.538 10.9395 131.534 11.4303 132.253 12.4118C132.972 13.3934 133.331 14.7585 133.331 16.5069C133.356 17.531 133.186 18.5504 132.829 19.5106C132.549 20.2838 132.048 20.9577 131.388 21.4487C130.745 21.8987 129.975 22.1315 129.19 22.1131" fill="white"/>
<path d="M141.339 16.9345L140.201 16.9732C139.342 16.9989 138.706 17.1529 138.293 17.4351C138.086 17.5775 137.92 17.771 137.81 17.9968C137.7 18.2226 137.651 18.4729 137.667 18.7235C137.667 19.5517 138.142 19.9658 139.093 19.9658C139.391 19.9804 139.689 19.9361 139.969 19.8353C140.25 19.7346 140.507 19.5794 140.728 19.3787C140.933 19.1753 141.093 18.9312 141.199 18.6621C141.304 18.3929 141.352 18.1048 141.339 17.8161V16.9345ZM142.207 21.9259L141.639 20.4535H141.561C141.159 20.9956 140.636 21.4367 140.034 21.7419C139.385 22.0086 138.687 22.1341 137.985 22.11C136.951 22.11 136.136 21.8143 135.541 21.2228C134.946 20.6314 134.649 19.7897 134.65 18.6977C134.65 17.5541 135.05 16.7112 135.85 16.1689C136.65 15.6265 137.857 15.3296 139.469 15.2781L141.339 15.2192V14.7388C141.339 13.6455 140.78 13.0995 139.662 13.1008C138.803 13.1008 137.791 13.3609 136.625 13.8811L135.644 11.8952C136.919 11.2375 138.336 10.9032 139.771 10.9216C141.215 10.9216 142.323 11.2363 143.096 11.8658C143.869 12.4952 144.255 13.4529 144.252 14.7388V21.9167L142.207 21.9259Z" fill="white"/>
<path d="M156.711 21.9177H153.766V15.6251C153.766 14.8466 153.626 14.2631 153.35 13.8748C153.074 13.4864 152.634 13.2913 152.03 13.2913C151.207 13.2913 150.613 13.5662 150.247 14.1159C149.879 14.668 149.695 15.5754 149.695 16.849V21.9177H146.75V11.1416H148.997L149.404 12.5165H149.568C149.894 12.0012 150.363 11.5924 150.919 11.3404C151.535 11.0643 152.205 10.9273 152.881 10.9392C154.135 10.9392 155.086 11.2785 155.733 11.957C156.381 12.6355 156.706 13.6171 156.707 14.9018L156.711 21.9177Z" fill="white"/>
</g>
<defs>
<clipPath id="clip0_2377_19820">
<rect width="156.712" height="30" fill="white"/>
</clipPath>
</defs>
</svg>
