<svg width="121" height="20" viewBox="0 0 121 20" fill="none" xmlns="http://www.w3.org/2000/svg">
<path fill-rule="evenodd" clip-rule="evenodd" d="M19.7068 13.7817L24.8263 10.8314L24.8234 10.8286C25.3709 10.4587 25.3709 9.66816 24.8234 9.3633L19.7039 6.41296L10.8197 1.28592C10.2721 0.966892 9.54966 1.36779 9.54966 1.99739V5.96125H4.12537C3.62584 5.96125 3.10938 6.36779 3.10938 6.8675V13.3638C3.10938 13.8636 3.62584 14.2024 4.12537 14.2024H9.55246V18.1832C9.55246 18.8128 10.275 19.1995 10.8225 18.8946L19.7068 13.7817ZM9.54966 5.96125H15.4565C15.9561 5.96125 16.3089 6.36497 16.3089 6.8647V8.3667L19.6899 6.4299V13.7478L16.3089 11.8139V13.361C16.3089 13.8636 15.9561 14.1995 15.4565 14.1995H9.54966V5.96125ZM35.2192 7.2276L36.0714 6.10673L36.0686 6.10955C35.397 5.28799 33.9604 4.68945 32.6453 4.68945C30.6443 4.68945 29.1938 5.92887 29.1938 7.58893C29.1938 9.71843 30.9559 10.2057 32.5198 10.6381C33.7675 10.9831 34.889 11.2932 34.889 12.3744C34.889 13.3738 34.0197 14.0627 32.7215 14.0627C31.4233 14.0627 30.4355 13.4783 29.6284 12.716L28.7168 13.7917C29.6284 14.7346 31.1382 15.4517 32.7215 15.4517C34.9623 15.4517 36.3678 14.0175 36.3678 12.3575C36.3678 10.2756 34.6347 9.7737 33.0759 9.32223C31.8019 8.95326 30.6443 8.61801 30.6443 7.48167C30.6443 6.66009 31.4374 6.07567 32.5437 6.07567C33.5456 6.07567 34.5616 6.51046 35.2192 7.2276ZM40.8501 15.4509C38.7137 15.4509 37.0684 13.805 37.0684 11.6678C37.0684 9.53058 38.7137 7.85352 40.8501 7.85352C42.2556 7.85352 43.4522 8.55652 43.9603 9.63218L42.7806 10.2759C42.4814 9.60398 41.7335 9.16918 40.8529 9.16918C39.4616 9.16918 38.4174 10.2618 38.4174 11.6649C38.4174 13.0681 39.4645 14.1324 40.8529 14.1324C41.7956 14.1324 42.5858 13.6977 42.9612 12.9523L44.1719 13.5057C43.6046 14.6858 42.3487 15.4509 40.8529 15.4509H40.8501ZM46.4441 8.00422H45.0527V15.3024H46.4441V11.1917C46.4441 9.93536 47.3415 9.18722 48.239 9.18722C48.5382 9.18722 48.8514 9.24929 49.1054 9.36789L49.255 8.02122C49.0462 7.93082 48.716 7.85742 48.3576 7.85742C47.6096 7.85742 46.7743 8.37976 46.4441 9.14202V8.00422ZM49.1328 11.6226C49.1328 9.49952 50.7781 7.85352 52.8553 7.85352C54.9324 7.85352 56.3379 9.37812 56.3379 11.3374C56.3379 11.5012 56.3238 11.8004 56.3069 11.9952H50.4931C50.6568 13.356 51.5994 14.2087 52.9145 14.2087C53.8403 14.2087 54.6643 13.805 55.0509 13.1472L56.1431 13.8501C55.59 14.8383 54.3652 15.4509 52.8835 15.4509C50.8063 15.4509 49.1328 13.805 49.1328 11.6226ZM54.9324 10.8603C54.8139 9.84392 53.9447 9.08165 52.796 9.08165C51.6473 9.08165 50.7923 9.77052 50.5382 10.8603H54.9324ZM60.8826 7.85352C58.8055 7.85352 57.1602 9.49952 57.1602 11.6226C57.1602 13.805 58.8337 15.4509 60.9109 15.4509C62.3925 15.4509 63.6173 14.8383 64.1705 13.8501L63.0783 13.1472C62.6917 13.805 61.8676 14.2087 60.9419 14.2087C59.6268 14.2087 58.6841 13.356 58.5204 11.9952H64.3342C64.3511 11.8004 64.3653 11.5012 64.3653 11.3374C64.3653 9.37812 62.9598 7.85352 60.8826 7.85352ZM60.8234 9.08165C61.972 9.08165 62.8412 9.84392 62.9598 10.8603H58.5656C58.8196 9.77052 59.6748 9.08165 60.8234 9.08165ZM66.517 9.31878C66.9799 8.39278 67.8178 7.85352 68.8794 7.85352C70.7474 7.85352 71.927 9.10992 71.927 11.1285V15.3013H70.5362V11.2782C70.5362 10.0077 69.7598 9.16918 68.5629 9.16918C67.3665 9.16918 66.5311 10.0077 66.5311 11.2782H66.517V15.3013H65.1426V8.00318H66.517V9.31878ZM72.5723 11.6369C72.5723 13.8221 74.229 15.4511 76.4275 15.4511V15.454C77.9962 15.454 79.3257 14.6155 79.8789 13.345L78.0109 12.5065C77.7283 13.0881 77.1446 13.4325 76.4275 13.4325C75.3805 13.4325 74.6328 12.6703 74.6328 11.6369C74.6328 10.6036 75.3805 9.82719 76.4275 9.82719C77.0706 9.82719 77.6097 10.1406 77.8783 10.6347L79.6563 9.61826C79.0718 8.52566 77.861 7.80859 76.4275 7.80859C74.2316 7.80859 72.5723 9.45173 72.5723 11.6369ZM87.9207 15.3015H85.8128V14.2541C85.3043 15.0164 84.5259 15.4511 83.4957 15.4511C81.5824 15.4511 80.0723 13.7318 80.0723 11.6228C80.0723 9.51379 81.5824 7.80859 83.4957 7.80859C84.5259 7.80859 85.3043 8.24333 85.8128 9.00566V7.95819H87.9207V15.2987V15.3015ZM83.9755 13.4325C85.0058 13.4325 85.8128 12.6561 85.8128 11.6228C85.8128 10.5895 85.0058 9.81306 83.9755 9.81306C82.9452 9.81306 82.1382 10.6205 82.1382 11.6228C82.1382 12.6251 82.9592 13.4325 83.9755 13.4325ZM89.3575 12.8331L88.5645 14.4028L88.5704 14.4057C89.3322 15.0493 90.6617 15.4672 91.9172 15.4672C93.6359 15.4672 94.8608 14.4649 94.8608 13.1041C94.8608 11.4373 93.3014 11.0122 92.1583 10.7005C91.4969 10.5202 90.9749 10.3779 90.9749 10.055C90.9749 9.75575 91.2428 9.56095 91.6466 9.56095C92.1858 9.56095 93.306 9.79808 93.9491 10.278L94.7255 8.64901C93.9918 8.06461 92.8855 7.81055 91.8692 7.81055C90.1052 7.81055 88.8803 8.81275 88.8803 10.247C88.8803 11.945 90.3966 12.2894 91.5273 12.5462C92.1996 12.6989 92.7356 12.8207 92.7356 13.1775C92.7356 13.4768 92.3777 13.6998 91.8692 13.6998C91.0455 13.6998 89.9106 13.3413 89.3575 12.8331ZM96.4559 12.4316V9.96405H95.0957V7.95952H96.4559V6.03125H98.5644V7.95952H100.373V9.96405H98.5644V12.3271C98.5644 13.016 99.0862 13.448 99.7013 13.448C99.9106 13.448 100.195 13.4028 100.359 13.3435L100.464 15.2125C100.195 15.348 99.7746 15.4214 99.3881 15.4214C97.6694 15.4214 96.4585 14.3288 96.4585 12.4316H96.4559ZM103.811 5.67281C103.811 4.98676 103.227 4.40234 102.524 4.40234C101.824 4.40234 101.24 4.97264 101.24 5.67281C101.24 6.37298 101.821 6.95738 102.524 6.95738C103.227 6.95738 103.811 6.35886 103.811 5.67281ZM103.585 15.303V7.96245H101.477V15.303H103.585ZM108.607 4.42969C108.997 4.42969 109.414 4.52003 109.682 4.65273L109.578 6.50761C109.429 6.46244 109.129 6.40315 108.92 6.40315C108.308 6.40315 107.783 6.85207 107.783 7.524V7.9588H109.592V9.96327H107.783V15.3021H105.675V9.96327H104.314V7.9588H105.675V7.41953C105.675 5.51947 106.885 4.42969 108.604 4.42969H108.607ZM109.834 7.95898L112.659 14.7037H112.656L111.296 17.7388H113.554L117.634 7.95898H115.363L113.735 12.2503L112.106 7.95898H109.834Z" fill="#49494A"/>
</svg>
