<svg width="105" height="20" viewBox="0 0 105 20" fill="none" xmlns="http://www.w3.org/2000/svg">
<g clip-path="url(#clip0_175_8130)">
<path fill-rule="evenodd" clip-rule="evenodd" d="M36.6205 3.32996C36.6202 3.48927 36.6087 3.64835 36.5861 3.80604C36.5403 4.12513 36.4486 4.43592 36.3138 4.72874L30.6889 16.876C30.5961 17.077 30.4908 17.2721 30.3737 17.46C30.2965 17.5827 30.213 17.7054 30.1284 17.8281C29.6263 18.5025 28.9732 19.0501 28.2216 19.4267C27.47 19.8035 26.6406 19.9989 25.8 19.9975H25.6982H25.5976H25.5804C24.4639 19.9527 23.3889 19.5615 22.5046 18.8783C21.6202 18.1949 20.9703 17.2533 20.6449 16.1839C20.6232 16.1138 20.6033 16.042 20.5858 15.9698L19.4217 12.1373L18.7889 10.0515L18.3111 8.47528L17.8307 10.0579L17.199 12.1438L15.9725 16.1818C15.5853 17.449 14.7458 18.5294 13.6139 19.2174C12.8069 19.7096 11.8838 19.9785 10.9388 19.9966H10.8162H10.6935C9.87491 19.977 9.07154 19.7706 8.34481 19.3931C7.61802 19.0156 6.98705 18.4772 6.49998 17.8186C6.41412 17.7021 6.33072 17.5806 6.25468 17.4506C6.16986 17.3144 6.09124 17.1745 6.01904 17.0313C5.98477 16.9755 5.9531 16.9179 5.92417 16.8587L5.91681 16.8427C5.90209 16.8108 5.88737 16.7789 5.87388 16.747C5.87388 16.7484 5.87399 16.7497 5.8742 16.7511L0.30786 4.72859C0.17162 4.43452 0.079457 4.12195 0.034343 3.80098C0.0118815 3.64493 0.000405612 3.48748 0 3.32982C0.000427781 2.60531 0.23678 1.90067 0.673282 1.32253C1.10979 0.744398 1.72267 0.324254 2.41918 0.125692C3.11569 -0.0728704 3.8579 -0.0390404 4.53347 0.22206C5.20905 0.483162 5.7812 0.957318 6.16334 1.57276C6.25723 1.72235 6.33924 1.87907 6.40864 2.04148L9.48605 9.38875L10.3593 11.4746L10.8953 12.7482L10.7163 13.3347L9.73503 16.5543C9.64913 16.8367 9.50345 17.0973 9.30792 17.3184C9.11233 17.5395 8.87148 17.7157 8.60172 17.8353C8.56054 17.8537 8.51882 17.8707 8.47664 17.8863C8.52403 17.8692 8.57085 17.8503 8.61698 17.8297C8.88688 17.7103 9.12779 17.534 9.32338 17.313C9.51897 17.0919 9.66459 16.8312 9.75029 16.5487L10.7315 13.3291L10.9106 12.7426L11.3141 11.4174L11.9458 9.33158L13.1723 5.29352C13.2944 4.88803 13.465 4.49873 13.6801 4.13401C14.1547 3.32309 14.8334 2.65069 15.6485 2.18375C16.4637 1.71682 17.3869 1.47165 18.3262 1.47266H18.4489C19.3662 1.49357 20.263 1.74886 21.0538 2.21425C21.8447 2.67963 22.5035 3.33965 22.9674 4.13156C23.0582 4.28124 23.1401 4.43611 23.2127 4.59536L23.1968 4.60273C23.1818 4.57257 23.166 4.54285 23.1496 4.51357C23.1657 4.54235 23.1811 4.57156 23.1958 4.60118L23.2302 4.67235C23.237 4.68985 23.2442 4.70704 23.2514 4.72424C23.2583 4.74079 23.2653 4.75734 23.2719 4.77419C23.3453 4.94515 23.4092 5.12007 23.4632 5.29811L24.6898 9.33615L25.3227 11.422L25.7237 12.7472L25.4784 13.3472L24.3831 15.957C24.2662 16.2357 24.0893 16.4852 23.865 16.6877C23.6407 16.8903 23.3745 17.0409 23.0854 17.1288C22.9014 17.1841 22.7108 17.2143 22.5188 17.2183C22.1021 17.2239 21.6937 17.1027 21.3474 16.8709C21.0011 16.6391 20.7334 16.3076 20.5796 15.9202L20.5892 15.9607C20.7445 16.3346 21.0068 16.6545 21.3436 16.8799C21.69 17.1118 22.0986 17.2328 22.5153 17.2269C22.7074 17.2228 22.898 17.1927 23.082 17.1373C23.3711 17.0494 23.6372 16.8988 23.8615 16.6963C24.0859 16.4937 24.2627 16.2443 24.3797 15.9655L25.4749 13.3557L25.7202 12.7569L26.2612 11.4699L27.1345 9.38394L30.2155 2.03672C30.2849 1.87432 30.367 1.7176 30.4608 1.568C30.8427 0.952245 31.4147 0.477763 32.0903 0.216443C32.7659 -0.0448767 33.5082 -0.0787931 34.2048 0.119833C34.9014 0.318459 35.5143 0.738805 35.9506 1.31718C36.387 1.89556 36.623 2.60045 36.6229 3.32506L36.6205 3.32996ZM5.8742 16.7511L5.89064 16.7866C5.88883 16.7828 5.88666 16.7789 5.88449 16.7751L5.88448 16.7751C5.87995 16.7671 5.87541 16.7591 5.8742 16.7511ZM68.8488 10.706L69.7038 9.61403L71.7137 7.4287H73.9229L71.0713 10.5453L74.0968 14.6128H71.835L69.7671 11.7024L68.9261 12.3772V14.6128H66.9668V4.61523H68.9261V9.0741L68.8228 10.706H68.8488ZM50.5347 14.6107H48.273L47.0011 9.67568C46.969 9.55825 46.9249 9.35672 46.8625 9.07148L46.8625 9.07138L46.8625 9.07133L46.8625 9.0713C46.8316 8.9304 46.7963 8.76906 46.7558 8.58735C46.6331 8.03768 46.5767 7.66708 46.5608 7.48308C46.5354 7.71535 46.4708 8.08715 46.367 8.59842C46.2651 9.11002 46.1854 9.47568 46.1302 9.69408L44.8681 14.6107H42.6076L40.2109 5.2168H42.1734L43.3742 10.3444C43.5835 11.2916 43.7356 12.1121 43.8304 12.8058C43.8558 12.5604 43.9147 12.182 44.0071 11.6708C44.0991 11.1592 44.1849 10.7616 44.2671 10.4794L45.6286 5.2168H47.5113L48.8789 10.4794C48.9394 10.715 49.0142 11.0749 49.1033 11.5592C49.1924 12.0434 49.2608 12.459 49.3082 12.8058C49.3511 12.4708 49.4198 12.0548 49.5143 11.5554C49.6087 11.0561 49.6933 10.6524 49.7706 10.3444L50.9652 5.2168H52.9277L50.5347 14.6107ZM55.0284 11.0076C55.0284 11.7192 55.145 12.2571 55.3781 12.6211C55.611 12.9851 55.9913 13.1671 56.5187 13.1671C57.0412 13.1671 57.417 12.9863 57.6459 12.6248C57.8749 12.2632 57.9893 11.7242 57.9893 11.0076C57.9893 10.2968 57.8736 9.76503 57.6422 9.41249C57.4108 9.05996 57.0318 8.88243 56.5052 8.87996C55.9827 8.87996 55.6062 9.05669 55.3756 9.41003C55.145 9.76343 55.0292 10.296 55.0284 11.0076ZM59.9935 11.0076C59.9935 12.1782 59.6852 13.0931 59.0687 13.7524C58.4521 14.4117 57.5936 14.7414 56.493 14.7414C55.8557 14.7545 55.2263 14.5982 54.669 14.2886C54.1422 13.9872 53.7189 13.5334 53.4548 12.9868C53.16 12.3695 53.0147 11.6915 53.0305 11.0076C53.0305 9.83456 53.3367 8.92249 53.9491 8.27143C54.5616 7.62029 55.4222 7.29309 56.531 7.28983C57.1682 7.27676 57.7976 7.43163 58.3561 7.73889C58.8812 8.03756 59.304 8.48789 59.5691 9.03089C59.8641 9.64543 60.0096 10.3212 59.9935 11.0027V11.0076ZM65.9837 7.35432C65.766 7.31112 65.5444 7.29132 65.3225 7.29546L65.325 7.29786C64.8855 7.29566 64.4554 7.42379 64.0886 7.66599C63.7114 7.91006 63.4012 8.24452 63.1859 8.63899H63.0902L62.8008 7.43039H61.3105V14.6194H63.273V10.9629C63.273 10.3846 63.4475 9.93472 63.7967 9.61319C64.1459 9.29173 64.6332 9.13099 65.2587 9.13099C65.4533 9.12766 65.6474 9.14912 65.8365 9.19479L65.9837 7.35432ZM79.9515 14.0077C80.5619 13.5194 80.8665 12.8511 80.8665 12.0029H80.8691C80.8865 11.4447 80.7132 10.8974 80.3787 10.4507C80.0528 10.0278 79.451 9.60693 78.572 9.18814C78.1388 8.99373 77.717 8.77413 77.3098 8.53047C77.1559 8.43174 77.0232 8.30273 76.9206 8.15133C76.816 7.96813 76.7767 7.75453 76.8093 7.54594C76.842 7.3374 76.9453 7.1462 77.1012 7.00407C77.3025 6.8286 77.5904 6.74027 77.9682 6.74027C78.2941 6.7412 78.6187 6.78247 78.9345 6.86294C79.3584 6.97687 79.7735 7.1204 80.1774 7.2924L80.8198 5.74394C80.3693 5.54552 79.9042 5.38145 79.429 5.25314C78.9725 5.13613 78.5034 5.07799 78.0322 5.08014C77.0412 5.0785 76.2642 5.31613 75.7017 5.79302C75.1393 6.26992 74.858 6.92434 74.858 7.7562C74.8481 8.1566 74.936 8.55327 75.114 8.91207C75.2859 9.24253 75.5198 9.537 75.8024 9.77954C76.1956 10.0928 76.6287 10.3527 77.0899 10.5525C77.5084 10.7441 77.9149 10.9601 78.3081 11.1991C78.482 11.3097 78.6353 11.4501 78.7606 11.6139C78.8632 11.7569 78.9165 11.9289 78.9139 12.1047C78.9225 12.2481 78.8952 12.3915 78.8339 12.5217C78.7733 12.6518 78.6806 12.7645 78.5647 12.8495C78.3314 13.0131 77.9962 13.0949 77.5584 13.0949C77.1512 13.0887 76.7467 13.0306 76.3542 12.9219C75.8037 12.7649 75.2659 12.5651 74.7461 12.3243V14.1783C75.5778 14.5685 76.4874 14.762 77.4051 14.7439C78.4927 14.7415 79.3417 14.4961 79.9515 14.0077ZM85.5191 8.86299C85.036 8.86299 84.6814 9.01266 84.4595 9.30959C84.2376 9.60652 84.121 10.0998 84.1123 10.782V10.9967C84.1123 11.7673 84.2269 12.3199 84.4562 12.6544C84.6848 12.989 85.048 13.1563 85.5451 13.1563C86.4235 13.1563 86.8626 12.4319 86.8626 10.9833C86.8626 10.2765 86.754 9.74479 86.5374 9.38812C86.3208 9.03152 85.9816 8.85479 85.5191 8.85806V8.86299ZM86.0969 14.7379C85.2546 14.7379 84.5935 14.4315 84.1123 13.8188H84.0097C84.0783 14.4184 84.1123 14.7657 84.1123 14.8605V17.771H82.1504V7.42986H83.7445L84.0204 8.36239H84.1103C84.5688 7.65072 85.2472 7.29492 86.1462 7.29492C86.9953 7.29492 87.659 7.62212 88.1382 8.27645C88.6173 8.93085 88.8566 9.84092 88.8566 11.0065C88.8732 11.6893 88.7599 12.3689 88.522 13.009C88.3354 13.5245 88.0015 13.9737 87.5617 14.3011C87.1332 14.6011 86.6201 14.7563 86.0969 14.744V14.7379ZM93.4356 11.3161L94.194 11.2903V11.8781C94.2027 12.0705 94.1707 12.2626 94.1007 12.4421C94.0301 12.6215 93.9234 12.7842 93.7868 12.9198C93.6395 13.0536 93.4683 13.1571 93.281 13.2242C93.0944 13.2914 92.8958 13.3209 92.6972 13.3112C92.0635 13.3112 91.7469 13.0351 91.7469 12.483C91.7363 12.3159 91.7689 12.1491 91.8422 11.9985C91.9155 11.848 92.0261 11.719 92.1641 11.6241C92.4393 11.4359 92.8632 11.3333 93.4356 11.3161ZM94.3939 13.6363L94.7725 14.6179L96.1353 14.6118V9.82653C96.1373 8.96926 95.88 8.3308 95.3649 7.9112C94.8497 7.49153 94.1114 7.28173 93.1491 7.28173C92.1927 7.26946 91.2484 7.49233 90.3988 7.9308L91.0525 9.25473C91.8296 8.90793 92.504 8.73453 93.0764 8.73453C93.8215 8.73366 94.194 9.09766 94.194 9.82653V10.1468L92.9478 10.1861C91.8735 10.2204 91.0692 10.4183 90.536 10.7799C90.0029 11.1415 89.7363 11.7034 89.7363 12.4658C89.7357 13.1938 89.9336 13.7549 90.3301 14.1492C90.7266 14.5435 91.2698 14.7407 91.9588 14.7407C92.4267 14.7567 92.8918 14.6731 93.3243 14.4953C93.7255 14.2918 94.0741 13.9977 94.3419 13.6363H94.3939ZM104.437 14.6144H102.474V10.4193C102.474 9.90033 102.381 9.51133 102.197 9.25246C102.013 8.99353 101.72 8.86346 101.318 8.86346C100.769 8.86346 100.373 9.04673 100.129 9.4132C99.884 9.78126 99.7614 10.3862 99.7614 11.2353V14.6144H97.7988V7.43033H99.2963L99.5675 8.34693H99.6768C99.894 8.0034 100.207 7.73086 100.577 7.56286C100.988 7.3788 101.434 7.28746 101.885 7.2954C102.72 7.2954 103.354 7.5216 103.785 7.97393C104.217 8.42626 104.434 9.08066 104.434 9.93713L104.437 14.6144Z" fill="#49494A"/>
</g>
<defs>
<clipPath id="clip0_175_8130">
<rect width="104.628" height="20" fill="white"/>
</clipPath>
</defs>
</svg>
