<svg width="405" height="96" viewBox="0 0 405 96" fill="none" xmlns="http://www.w3.org/2000/svg">
<path d="M291.603 52.5948H229.579C230.647 59.8288 233.794 65.5438 239.822 69.4645C244.687 72.6306 250.098 73.6701 255.818 73.0103C257.812 72.7777 259.829 72.4027 261.728 71.7667C266.764 70.0769 270.538 67.001 271.971 61.4901H291.1C290.645 65.0027 289.553 68.1687 287.953 71.1496C283.942 78.6114 277.791 83.7568 269.93 86.5906C255.514 91.7787 241.55 90.9053 228.762 81.9436C219.103 75.1748 213.558 65.6292 211.859 53.9619C210.639 45.5982 211.475 37.4292 215.168 29.7348C221.362 16.8286 231.586 9.08671 245.675 6.63743C254.484 5.10425 263.071 6.11054 271.036 10.3398C283.169 16.7811 290.032 26.9532 291.746 40.5762C292.24 44.4827 292.13 48.394 291.613 52.5996L291.603 52.5948ZM271.572 38.5779C271.463 37.7424 271.416 37.0162 271.269 36.3137C270.41 32.2363 268.145 29.0418 264.913 26.5165C261.315 23.7065 257.176 22.5341 252.638 22.3015C242.608 21.7841 233.779 27.8504 230.855 37.4529C230.751 37.7899 230.727 38.1554 230.656 38.5779H271.577H271.572Z" fill="#F9F9F9"/>
<path d="M209.631 70.85V86.9413C209.631 87.4634 209.204 87.8906 208.682 87.8906H137.6C137.6 87.8906 137.638 79.2042 137.572 75.7723C137.548 74.524 137.904 73.5984 138.763 72.668C152.6 57.659 166.403 42.6215 180.216 27.584C180.71 27.0476 181.868 25.747 181.868 25.747H141.782C141.26 25.747 140.833 25.3198 140.833 24.7977V8.51184C140.833 7.9897 141.26 7.5625 141.782 7.5625H209.199C209.199 7.5625 209.176 16.5907 209.233 20.5162C209.247 21.4893 208.805 22.1063 208.207 22.7566C199.364 32.3639 165.05 69.9054 165.05 69.9054H208.687C209.209 69.9054 209.636 70.3326 209.636 70.8548L209.631 70.85Z" fill="#F9F9F9"/>
<path d="M373.559 87.5685H356.39C355.868 87.5685 355.441 87.1461 355.441 86.6239C355.427 81.5308 355.351 57.0853 355.365 45.0952C355.365 42.1997 355.137 39.347 354.283 36.5607C351.943 28.9328 345.748 24.2715 337.75 24.0769C332.495 23.9487 327.801 25.2826 324.037 29.1321C321.103 32.132 319.508 35.8012 318.958 39.9166C318.716 41.7298 318.621 43.581 318.616 45.4132C318.592 57.2325 318.597 81.5308 318.602 86.6192C318.602 87.1413 318.175 87.5685 317.652 87.5685H300.332C299.81 87.5685 299.382 87.1508 299.382 86.6287C299.363 81.3646 299.283 55.3623 299.468 42.1807C299.601 32.8203 302.629 24.3617 308.961 17.3034C314.619 10.9998 321.725 7.29737 330.089 6.03001C336.986 4.98099 343.816 5.26104 350.4 7.67236C363.282 12.3858 370.91 21.7273 373.678 35.0322C374.323 38.1271 374.527 41.3548 374.551 44.5256C374.632 56.848 374.532 81.5165 374.513 86.6334C374.513 87.1556 374.086 87.5733 373.564 87.5733L373.559 87.5685Z" fill="#F9F9F9"/>
<path d="M386.079 7.55469H402.986C403.509 7.55469 403.936 7.97714 403.936 8.49928L404.14 86.8908C404.14 87.4176 403.717 87.8448 403.191 87.8448H386.102C385.58 87.8448 385.153 87.4176 385.153 86.8955L385.129 8.50402C385.129 7.98189 385.557 7.55469 386.079 7.55469Z" fill="#F9F9F9"/>
<path d="M68.5499 0.107232C67.749 -0.218873 66.8427 0.227123 66.6125 1.06157C66.5309 1.3589 66.4398 1.65623 66.3439 1.94876C65.4663 4.59117 63.9892 7.00818 61.9655 9.03675C58.5414 12.4656 53.9855 14.3599 49.1371 14.3647H49.1227C44.2839 14.3647 39.728 12.48 36.3039 9.06072C34.2801 7.03696 32.7935 4.61994 31.9111 1.98233C31.8152 1.6898 31.7241 1.39247 31.6377 1.09514C31.4075 0.260693 30.5012 -0.180507 29.7003 0.145597C25.0053 2.07345 20.6605 4.67749 16.7856 7.83303C16.2964 8.23107 16.1382 8.90726 16.3732 9.49233C16.5698 9.98149 16.7808 10.4658 17.0014 10.9406C18.7326 14.7148 21.14 18.1917 24.1661 21.2129C30.8369 27.8693 39.6944 31.538 49.1179 31.538H49.1515C58.5845 31.5284 67.4517 27.8453 74.1177 21.1698C77.1389 18.1437 79.5367 14.662 81.2632 10.8879C81.4838 10.4083 81.69 9.92394 81.8866 9.43478C82.1216 8.84971 81.9633 8.17353 81.4742 7.77549C77.5945 4.62474 73.2449 2.03029 68.5499 0.107232Z" fill="#97C3B9"/>
<path d="M81.321 84.2718C79.5898 80.5072 77.1871 77.0399 74.1707 74.0282C67.4951 67.3623 58.6088 63.684 49.1853 63.7032C34.9566 63.7176 22.6845 72.1867 17.1023 84.3437C16.8865 84.8185 16.6755 85.298 16.4741 85.7824C16.2343 86.3675 16.3926 87.0485 16.8865 87.4513C20.7662 90.5972 25.1111 93.1869 29.8012 95.1052C30.6021 95.4313 31.5037 94.9901 31.7387 94.1556C31.8202 93.8535 31.9113 93.561 32.012 93.2636C34.4243 86.0797 41.2101 80.886 49.1997 80.8764H49.2189C54.0577 80.8764 58.6135 82.7611 62.0376 86.1804C64.0566 88.1946 65.5337 90.602 66.4161 93.2301C66.5168 93.5226 66.6079 93.8199 66.6894 94.1173C66.9244 94.9517 67.826 95.3929 68.6269 95.062C73.3218 93.1341 77.6619 90.5349 81.5368 87.3794C82.0259 86.9813 82.1842 86.3003 81.9492 85.7153C81.7526 85.2261 81.5416 84.7465 81.321 84.267V84.2718Z" fill="#97C3B9"/>
<path d="M2.36133 39.095C1.64198 39.095 1.04252 39.6274 0.937016 40.3371C0.582137 42.7206 0.399902 45.1615 0.399902 47.6457C0.399902 50.149 0.591729 52.6092 0.960994 55.0118C1.07129 55.7216 1.67075 56.2491 2.3901 56.2491L51.3346 56.1772L95.9821 56.11C96.7015 56.11 97.3009 55.5777 97.4064 54.868C97.7613 52.4845 97.9484 50.0435 97.9436 47.5546C97.9436 45.0512 97.7517 42.5911 97.3825 40.1884C97.2722 39.4787 96.6727 38.9512 95.9534 38.9512L51.2962 39.0183L2.36133 39.0902V39.095Z" fill="#97C3B9"/>
</svg>
