<svg width="67" height="20" viewBox="0 0 67 20" fill="none" xmlns="http://www.w3.org/2000/svg">
<g clip-path="url(#clip0_175_8162)">
<path fill-rule="evenodd" clip-rule="evenodd" d="M11.1423 2.40574C11.1799 2.27104 11.3278 2.19904 11.4585 2.25169C12.2247 2.56212 12.9346 2.98094 13.5678 3.48956C13.6476 3.55381 13.6734 3.66297 13.6351 3.75741C13.603 3.83638 13.5693 3.91457 13.5333 3.99199C13.2516 4.60123 12.8602 5.16327 12.3672 5.65177C11.2793 6.72938 9.83216 7.32394 8.29269 7.32549H8.2872C6.74928 7.32549 5.30374 6.73326 4.21506 5.65873C3.7212 5.17102 3.32831 4.60975 3.04578 4.00049C3.00977 3.92385 2.97534 3.84567 2.94325 3.7667C2.9049 3.67226 2.93072 3.5631 3.01056 3.49884C3.64294 2.98945 4.35202 2.56909 5.11824 2.25788C5.24895 2.20524 5.39686 2.27646 5.43443 2.41116C5.44853 2.45916 5.46339 2.50716 5.47904 2.55438C5.62305 2.98016 5.86567 3.37034 6.19595 3.69703C6.75477 4.249 7.49829 4.55324 8.28799 4.55324H8.29034C9.0816 4.55246 9.82512 4.24667 10.3839 3.69316C10.7142 3.36569 10.9553 2.97552 11.0985 2.54896C11.1141 2.50174 11.129 2.45374 11.1423 2.40574ZM58.4342 16.3713H61.2362L61.237 16.372C61.3222 16.372 61.3919 16.3046 61.3919 16.2203L61.3924 16.074C61.3965 15.0026 61.4106 11.313 61.3981 9.42294C61.3942 8.91108 61.3609 8.39004 61.2556 7.89044C60.8039 5.74266 59.559 4.23468 57.4566 3.4738C56.3821 3.08454 55.2675 3.03933 54.1419 3.20867C52.7769 3.41326 51.6172 4.01094 50.6938 5.02851C49.6604 6.16792 49.1662 7.53337 49.1445 9.0444C49.1143 11.1723 49.1274 15.3698 49.1305 16.2196C49.1305 16.3038 49.2003 16.3713 49.2855 16.3713H52.1121C52.1975 16.3713 52.2672 16.3023 52.2672 16.218C52.2664 15.3966 52.2656 11.4742 52.2695 9.56622C52.2703 9.27045 52.2858 8.97162 52.3253 8.67892C52.415 8.01458 52.6753 7.42226 53.1542 6.938C53.7685 6.31658 54.5345 6.10125 55.3921 6.12195C56.6974 6.15336 57.7084 6.90582 58.0903 8.13718C58.2297 8.58697 58.2669 9.04747 58.2669 9.51489C58.2649 11.2358 58.2745 14.546 58.2782 15.837L58.2783 15.849L58.2783 15.8631L58.2783 15.8652L58.2793 16.2188C58.2793 16.3031 58.349 16.3713 58.4342 16.3713ZM47.8595 10.7233H37.7371C37.9114 11.8911 38.425 12.8136 39.4088 13.4466C40.2028 13.9577 41.0858 14.1255 42.0194 14.019C42.3448 13.9814 42.674 13.9209 42.9839 13.8182C43.8057 13.5454 44.4217 13.0489 44.6555 12.1593H47.7774C47.7031 12.7263 47.5249 13.2374 47.2638 13.7186C46.6092 14.9231 45.6054 15.7537 44.3224 16.2112C41.9697 17.0487 39.6908 16.9077 37.6038 15.461C36.0275 14.3684 35.1225 12.8274 34.8452 10.944C34.6461 9.59387 34.7826 8.27517 35.3853 7.03308C36.3961 4.94966 38.0647 3.6999 40.364 3.30452C41.8016 3.05702 43.203 3.21946 44.5029 3.90218C46.483 4.94199 47.6031 6.58405 47.8828 8.78318C47.9634 9.4138 47.9455 10.0452 47.8611 10.7241L47.8595 10.7233ZM44.5753 8.33356L44.5753 8.33339C44.5659 8.24942 44.5571 8.17139 44.541 8.0951C44.4008 7.43689 44.0311 6.92121 43.5037 6.51355C42.9165 6.05994 42.241 5.87068 41.5004 5.83313C39.8635 5.74961 38.4226 6.72888 37.9454 8.27899C37.9338 8.31606 37.9283 8.35527 37.9223 8.39806L37.9223 8.39813L37.9223 8.39819L37.9223 8.39824C37.9195 8.41819 37.9166 8.43893 37.9129 8.4606H44.5904C44.5846 8.4166 44.5799 8.37447 44.5753 8.33375V8.33372L44.5753 8.33365L44.5753 8.33356ZM34.4829 13.6714V16.269C34.4829 16.3533 34.4132 16.4223 34.328 16.4223H22.7274C22.7274 16.4223 22.7336 15.02 22.7228 14.466C22.7189 14.2645 22.777 14.1151 22.9172 13.9649C24.8542 11.8867 26.787 9.80518 28.7203 7.72313L29.6824 6.68711C29.763 6.60052 29.952 6.39056 29.952 6.39056H23.4099C23.3247 6.39056 23.255 6.3216 23.255 6.23732V3.60833C23.255 3.52404 23.3247 3.45508 23.4099 3.45508H34.4124C34.4124 3.45508 34.4086 4.91248 34.4179 5.54617C34.4202 5.70325 34.3481 5.80285 34.2505 5.90783C32.8073 7.45872 27.2073 13.519 27.2073 13.519H34.3288C34.414 13.519 34.4837 13.5879 34.4837 13.6722L34.4829 13.6714ZM63.28 3.45508H66.0393C66.1246 3.45508 66.1943 3.52327 66.1943 3.60756L66.2276 16.2621C66.2276 16.3472 66.1586 16.4161 66.0727 16.4161H63.2838C63.1986 16.4161 63.1289 16.3472 63.1289 16.2629L63.125 3.60833C63.125 3.52404 63.1949 3.45508 63.28 3.45508ZM13.5405 15.8379C13.2579 15.2302 12.8658 14.6705 12.3735 14.1843C11.2841 13.1083 9.83382 12.5145 8.2959 12.5176C5.97377 12.5199 3.97096 13.8871 3.05995 15.8495C3.02473 15.9262 2.99029 16.0036 2.95742 16.0818C2.91829 16.1762 2.94412 16.2862 3.02473 16.3512C3.65789 16.859 4.36698 17.2771 5.13241 17.5867C5.26312 17.6394 5.41026 17.5682 5.44861 17.4335C5.46191 17.3847 5.47678 17.3375 5.49321 17.2895C5.8869 16.1298 6.99435 15.2914 8.29825 15.2898H8.30139C9.09108 15.2898 9.83459 15.5941 10.3934 16.146C10.7229 16.4712 10.964 16.8598 11.108 17.2841C11.1244 17.3313 11.1393 17.3793 11.1526 17.4273C11.1909 17.562 11.3381 17.6332 11.4688 17.5798C12.235 17.2686 12.9433 16.849 13.5757 16.3396C13.6555 16.2753 13.6813 16.1654 13.643 16.071C13.6109 15.992 13.5765 15.9146 13.5405 15.8372V15.8379ZM0.423595 8.74521C0.440813 8.63064 0.538645 8.5447 0.656043 8.5447V8.54392L8.64223 8.53232L15.9303 8.52148C16.0477 8.52148 16.1455 8.60664 16.1635 8.7212C16.2238 9.10907 16.2551 9.5062 16.2551 9.91031C16.2559 10.3121 16.2254 10.7061 16.1674 11.0909C16.1502 11.2055 16.0524 11.2914 15.935 11.2914L8.6485 11.3022L0.660739 11.3138C0.54334 11.3138 0.445508 11.2287 0.427508 11.1141C0.367244 10.7263 0.335938 10.3291 0.335938 9.92502C0.335938 9.524 0.365678 9.12997 0.423595 8.74521Z" fill="#49494A"/>
</g>
<defs>
<clipPath id="clip0_175_8162">
<rect width="65.9753" height="20" fill="white" transform="translate(0.25)"/>
</clipPath>
</defs>
</svg>
