<svg width="200" height="164" viewBox="0 0 200 164" fill="none" xmlns="http://www.w3.org/2000/svg">
<path opacity="0.6" d="M47.2195 149L50.6915 138.92H52.0565L55.5285 149H54.4575L51.1605 139.494H51.5665L48.2905 149H47.2195ZM48.7665 146.557V145.591H53.9745V146.557H48.7665ZM59.9285 149.21C59.1678 149.21 58.5238 149.04 57.9965 148.699C57.4692 148.358 57.0678 147.889 56.7925 147.292C56.5218 146.69 56.3818 145.999 56.3725 145.22C56.3818 144.427 56.5265 143.731 56.8065 143.134C57.0865 142.532 57.4902 142.065 58.0175 141.734C58.5448 141.398 59.1842 141.23 59.9355 141.23C60.7008 141.23 61.3658 141.417 61.9305 141.79C62.4998 142.163 62.8895 142.674 63.0995 143.323L62.0915 143.645C61.9142 143.192 61.6318 142.842 61.2445 142.595C60.8618 142.343 60.4232 142.217 59.9285 142.217C59.3732 142.217 58.9135 142.345 58.5495 142.602C58.1855 142.854 57.9148 143.206 57.7375 143.659C57.5602 144.112 57.4692 144.632 57.4645 145.22C57.4738 146.125 57.6838 146.853 58.0945 147.404C58.5052 147.95 59.1165 148.223 59.9285 148.223C60.4418 148.223 60.8782 148.106 61.2375 147.873C61.6015 147.635 61.8768 147.29 62.0635 146.837L63.0995 147.145C62.8195 147.817 62.4088 148.33 61.8675 148.685C61.3262 149.035 60.6798 149.21 59.9285 149.21ZM68.6605 149C68.2358 149.089 67.8158 149.124 67.4005 149.105C66.9898 149.086 66.6211 148.998 66.2945 148.839C65.9725 148.68 65.7275 148.433 65.5595 148.097C65.4241 147.817 65.3495 147.535 65.3355 147.25C65.3261 146.961 65.3215 146.632 65.3215 146.263V139.34H66.3435V146.221C66.3435 146.538 66.3458 146.804 66.3505 147.019C66.3598 147.229 66.4088 147.416 66.4975 147.579C66.6655 147.892 66.9315 148.078 67.2955 148.139C67.6641 148.2 68.1191 148.186 68.6605 148.097V149ZM63.7045 142.322V141.44H68.6605V142.322H63.7045ZM70.2899 140.005V138.85H71.3189V140.005H70.2899ZM70.2899 149V141.44H71.3189V149H70.2899ZM75.4615 149L72.7175 141.44H73.7605L75.9935 147.656L78.2125 141.44H79.2695L76.5255 149H75.4615ZM83.4524 149.21C82.7151 149.21 82.0758 149.047 81.5344 148.72C80.9978 148.393 80.5801 147.934 80.2814 147.341C79.9828 146.748 79.8334 146.053 79.8334 145.255C79.8334 144.429 79.9804 143.715 80.2744 143.113C80.5684 142.511 80.9814 142.047 81.5134 141.72C82.0501 141.393 82.6824 141.23 83.4104 141.23C84.1571 141.23 84.7941 141.403 85.3214 141.748C85.8488 142.089 86.2478 142.579 86.5184 143.218C86.7891 143.857 86.9128 144.62 86.8894 145.507H85.8394V145.143C85.8208 144.163 85.6084 143.423 85.2024 142.924C84.8011 142.425 84.2131 142.175 83.4384 142.175C82.6264 142.175 82.0034 142.439 81.5694 142.966C81.1401 143.493 80.9254 144.245 80.9254 145.22C80.9254 146.172 81.1401 146.912 81.5694 147.439C82.0034 147.962 82.6171 148.223 83.4104 148.223C83.9518 148.223 84.4231 148.099 84.8244 147.852C85.2304 147.6 85.5501 147.238 85.7834 146.767L86.7424 147.138C86.4438 147.796 86.0028 148.307 85.4194 148.671C84.8408 149.03 84.1851 149.21 83.4524 149.21ZM80.5614 145.507V144.646H86.3364V145.507H80.5614ZM92.5239 149.21C91.5206 149.21 90.6736 148.988 89.9829 148.545C89.2922 148.097 88.7696 147.479 88.4149 146.69C88.0602 145.901 87.8829 144.991 87.8829 143.96C87.8829 142.929 88.0602 142.019 88.4149 141.23C88.7696 140.441 89.2922 139.825 89.9829 139.382C90.6736 138.934 91.5206 138.71 92.5239 138.71C93.6952 138.71 94.6519 139.011 95.3939 139.613C96.1359 140.21 96.6446 141.013 96.9199 142.021L95.8699 142.294C95.6552 141.496 95.2702 140.864 94.7149 140.397C94.1596 139.93 93.4292 139.697 92.5239 139.697C91.7352 139.697 91.0796 139.877 90.5569 140.236C90.0342 140.595 89.6399 141.097 89.3739 141.741C89.1126 142.38 88.9772 143.12 88.9679 143.96C88.9632 144.8 89.0916 145.54 89.3529 146.179C89.6189 146.818 90.0156 147.32 90.5429 147.684C91.0749 148.043 91.7352 148.223 92.5239 148.223C93.4292 148.223 94.1596 147.99 94.7149 147.523C95.2702 147.052 95.6552 146.419 95.8699 145.626L96.9199 145.899C96.6446 146.907 96.1359 147.712 95.3939 148.314C94.6519 148.911 93.6952 149.21 92.5239 149.21ZM100.627 149.21C100.058 149.21 99.5797 149.107 99.1924 148.902C98.8097 148.697 98.5227 148.424 98.3314 148.083C98.14 147.742 98.0444 147.371 98.0444 146.97C98.0444 146.559 98.126 146.209 98.2894 145.92C98.4574 145.626 98.6837 145.386 98.9684 145.199C99.2577 145.012 99.5914 144.87 99.9694 144.772C100.352 144.679 100.774 144.597 101.236 144.527C101.703 144.452 102.158 144.389 102.601 144.338C103.049 144.282 103.441 144.228 103.777 144.177L103.413 144.401C103.427 143.654 103.283 143.101 102.979 142.742C102.676 142.383 102.149 142.203 101.397 142.203C100.879 142.203 100.441 142.32 100.081 142.553C99.7267 142.786 99.477 143.155 99.3324 143.659L98.3314 143.365C98.504 142.688 98.8517 142.163 99.3744 141.79C99.897 141.417 100.576 141.23 101.411 141.23C102.102 141.23 102.688 141.361 103.168 141.622C103.654 141.879 103.997 142.252 104.197 142.742C104.291 142.961 104.351 143.206 104.379 143.477C104.407 143.748 104.421 144.023 104.421 144.303V149H103.504V147.103L103.77 147.215C103.514 147.864 103.115 148.358 102.573 148.699C102.032 149.04 101.383 149.21 100.627 149.21ZM100.746 148.321C101.227 148.321 101.647 148.235 102.006 148.062C102.366 147.889 102.655 147.654 102.874 147.355C103.094 147.052 103.236 146.711 103.301 146.333C103.357 146.09 103.388 145.824 103.392 145.535C103.397 145.241 103.399 145.022 103.399 144.877L103.791 145.08C103.441 145.127 103.061 145.173 102.65 145.22C102.244 145.267 101.843 145.32 101.446 145.381C101.054 145.442 100.7 145.514 100.382 145.598C100.168 145.659 99.96 145.745 99.7594 145.857C99.5587 145.964 99.393 146.109 99.2624 146.291C99.1364 146.473 99.0734 146.699 99.0734 146.97C99.0734 147.189 99.127 147.402 99.2344 147.607C99.3464 147.812 99.5237 147.983 99.7664 148.118C100.014 148.253 100.34 148.321 100.746 148.321ZM115.26 149L115.267 144.037C115.267 143.454 115.103 142.996 114.777 142.665C114.455 142.329 114.044 142.161 113.545 142.161C113.26 142.161 112.982 142.226 112.712 142.357C112.441 142.488 112.217 142.698 112.04 142.987C111.867 143.276 111.781 143.654 111.781 144.121L111.172 143.946C111.158 143.405 111.263 142.931 111.487 142.525C111.715 142.119 112.028 141.804 112.425 141.58C112.826 141.351 113.279 141.237 113.783 141.237C114.543 141.237 115.152 141.473 115.61 141.944C116.067 142.411 116.296 143.043 116.296 143.841L116.289 149H115.26ZM106.237 149V141.44H107.161V143.302H107.273V149H106.237ZM110.759 149L110.766 144.107C110.766 143.505 110.605 143.031 110.283 142.686C109.965 142.336 109.545 142.161 109.023 142.161C108.5 142.161 108.078 142.341 107.756 142.7C107.434 143.055 107.273 143.528 107.273 144.121L106.657 143.785C106.657 143.3 106.771 142.866 107 142.483C107.228 142.096 107.541 141.792 107.938 141.573C108.334 141.349 108.785 141.237 109.289 141.237C109.769 141.237 110.196 141.34 110.57 141.545C110.948 141.75 111.244 142.049 111.459 142.441C111.673 142.833 111.781 143.309 111.781 143.869L111.774 149H110.759ZM121.506 149.21C120.811 149.21 120.223 149.035 119.742 148.685C119.261 148.33 118.897 147.852 118.65 147.25C118.403 146.643 118.279 145.964 118.279 145.213C118.279 144.448 118.403 143.766 118.65 143.169C118.902 142.567 119.271 142.093 119.756 141.748C120.241 141.403 120.839 141.23 121.548 141.23C122.239 141.23 122.831 141.405 123.326 141.755C123.821 142.105 124.199 142.581 124.46 143.183C124.726 143.785 124.859 144.462 124.859 145.213C124.859 145.969 124.726 146.648 124.46 147.25C124.194 147.852 123.811 148.33 123.312 148.685C122.813 149.035 122.211 149.21 121.506 149.21ZM118.104 152.36V141.44H119.028V147.131H119.14V152.36H118.104ZM121.401 148.251C121.928 148.251 122.367 148.118 122.717 147.852C123.067 147.586 123.328 147.224 123.501 146.767C123.678 146.305 123.767 145.787 123.767 145.213C123.767 144.644 123.681 144.13 123.508 143.673C123.335 143.216 123.072 142.854 122.717 142.588C122.367 142.322 121.921 142.189 121.38 142.189C120.853 142.189 120.414 142.317 120.064 142.574C119.719 142.831 119.46 143.188 119.287 143.645C119.114 144.098 119.028 144.62 119.028 145.213C119.028 145.796 119.114 146.319 119.287 146.781C119.46 147.238 119.721 147.598 120.071 147.859C120.421 148.12 120.864 148.251 121.401 148.251ZM128.559 149.21C127.99 149.21 127.511 149.107 127.124 148.902C126.741 148.697 126.454 148.424 126.263 148.083C126.072 147.742 125.976 147.371 125.976 146.97C125.976 146.559 126.058 146.209 126.221 145.92C126.389 145.626 126.615 145.386 126.9 145.199C127.189 145.012 127.523 144.87 127.901 144.772C128.284 144.679 128.706 144.597 129.168 144.527C129.635 144.452 130.09 144.389 130.533 144.338C130.981 144.282 131.373 144.228 131.709 144.177L131.345 144.401C131.359 143.654 131.214 143.101 130.911 142.742C130.608 142.383 130.08 142.203 129.329 142.203C128.811 142.203 128.372 142.32 128.013 142.553C127.658 142.786 127.409 143.155 127.264 143.659L126.263 143.365C126.436 142.688 126.783 142.163 127.306 141.79C127.829 141.417 128.508 141.23 129.343 141.23C130.034 141.23 130.619 141.361 131.1 141.622C131.585 141.879 131.928 142.252 132.129 142.742C132.222 142.961 132.283 143.206 132.311 143.477C132.339 143.748 132.353 144.023 132.353 144.303V149H131.436V147.103L131.702 147.215C131.445 147.864 131.046 148.358 130.505 148.699C129.964 149.04 129.315 149.21 128.559 149.21ZM128.678 148.321C129.159 148.321 129.579 148.235 129.938 148.062C130.297 147.889 130.587 147.654 130.806 147.355C131.025 147.052 131.168 146.711 131.233 146.333C131.289 146.09 131.319 145.824 131.324 145.535C131.329 145.241 131.331 145.022 131.331 144.877L131.723 145.08C131.373 145.127 130.993 145.173 130.582 145.22C130.176 145.267 129.775 145.32 129.378 145.381C128.986 145.442 128.631 145.514 128.314 145.598C128.099 145.659 127.892 145.745 127.691 145.857C127.49 145.964 127.325 146.109 127.194 146.291C127.068 146.473 127.005 146.699 127.005 146.97C127.005 147.189 127.059 147.402 127.166 147.607C127.278 147.812 127.455 147.983 127.698 148.118C127.945 148.253 128.272 148.321 128.678 148.321ZM134.315 140.005V138.85H135.344V140.005H134.315ZM134.315 149V141.44H135.344V149H134.315ZM140.446 152.57C140.059 152.57 139.676 152.512 139.298 152.395C138.925 152.283 138.579 152.103 138.262 151.856C137.945 151.613 137.679 151.296 137.464 150.904L138.395 150.386C138.605 150.806 138.899 151.107 139.277 151.289C139.66 151.476 140.049 151.569 140.446 151.569C140.992 151.569 141.433 151.466 141.769 151.261C142.11 151.06 142.357 150.762 142.511 150.365C142.665 149.968 142.74 149.474 142.735 148.881V146.865H142.854V141.44H143.771V148.895C143.771 149.11 143.764 149.315 143.75 149.511C143.741 149.712 143.72 149.908 143.687 150.099C143.598 150.664 143.414 151.128 143.134 151.492C142.859 151.856 142.495 152.127 142.042 152.304C141.594 152.481 141.062 152.57 140.446 152.57ZM140.376 149.21C139.671 149.21 139.069 149.035 138.57 148.685C138.071 148.33 137.688 147.852 137.422 147.25C137.156 146.648 137.023 145.969 137.023 145.213C137.023 144.462 137.154 143.785 137.415 143.183C137.681 142.581 138.061 142.105 138.556 141.755C139.051 141.405 139.643 141.23 140.334 141.23C141.043 141.23 141.641 141.403 142.126 141.748C142.611 142.093 142.978 142.567 143.225 143.169C143.477 143.766 143.603 144.448 143.603 145.213C143.603 145.964 143.479 146.643 143.232 147.25C142.985 147.852 142.621 148.33 142.14 148.685C141.659 149.035 141.071 149.21 140.376 149.21ZM140.481 148.251C141.018 148.251 141.461 148.12 141.811 147.859C142.161 147.598 142.422 147.238 142.595 146.781C142.768 146.319 142.854 145.796 142.854 145.213C142.854 144.62 142.768 144.098 142.595 143.645C142.422 143.188 142.161 142.831 141.811 142.574C141.466 142.317 141.029 142.189 140.502 142.189C139.961 142.189 139.513 142.322 139.158 142.588C138.803 142.854 138.54 143.216 138.367 143.673C138.199 144.13 138.115 144.644 138.115 145.213C138.115 145.787 138.201 146.305 138.374 146.767C138.551 147.224 138.815 147.586 139.165 147.852C139.515 148.118 139.954 148.251 140.481 148.251ZM151.188 149V145.143C151.188 144.723 151.148 144.338 151.069 143.988C150.99 143.633 150.861 143.325 150.684 143.064C150.511 142.798 150.285 142.593 150.005 142.448C149.73 142.303 149.394 142.231 148.997 142.231C148.633 142.231 148.311 142.294 148.031 142.42C147.756 142.546 147.522 142.728 147.331 142.966C147.144 143.199 147.002 143.484 146.904 143.82C146.806 144.156 146.757 144.539 146.757 144.968L146.029 144.807C146.029 144.032 146.164 143.381 146.435 142.854C146.706 142.327 147.079 141.928 147.555 141.657C148.031 141.386 148.577 141.251 149.193 141.251C149.646 141.251 150.04 141.321 150.376 141.461C150.717 141.601 151.004 141.79 151.237 142.028C151.475 142.266 151.666 142.539 151.811 142.847C151.956 143.15 152.061 143.475 152.126 143.82C152.191 144.161 152.224 144.501 152.224 144.842V149H151.188ZM145.721 149V141.44H146.652V143.302H146.757V149H145.721Z" fill="#0E041B"/>
<path d="M95.8129 67.7297C96.88 67.7297 97.9471 67.316 99.0963 66.4474C100.451 65.4961 101.641 64.7102 101.641 64.7102L102.051 64.4207L101.641 64.1311C101.477 64.007 83.623 51.5155 81.776 50.316C80.9141 49.6956 79.929 49.5715 79.1492 49.9438C78.4104 50.316 78 51.1019 78 52.0533V56.3136L78.1642 56.3963C78.2873 56.4791 90.5593 65.0825 92.9398 66.6956C93.9249 67.3988 94.8689 67.7297 95.8129 67.7297Z" fill="#352E3F"/>
<path d="M119.741 60.2433C118.674 59.4574 80.3804 32.5304 78.7386 31.3723L78.2051 31V37.618C78.2051 39.7275 79.3133 40.5134 80.6677 41.5061C80.6677 41.5061 110.055 62.146 113.708 64.6691C110.055 67.2336 82.3915 86.5499 80.6266 87.6667C78.5334 89.073 78.3282 89.983 78.3282 91.8857V99C78.3282 99 118.838 69.7981 119.7 69.1363C121.547 67.7299 121.957 66.0754 121.998 64.8759V64.1314C122.039 62.6423 121.26 61.3187 119.741 60.2433Z" fill="#352E3F"/>
</svg>
