<svg width="200" height="164" viewBox="0 0 200 164" fill="none" xmlns="http://www.w3.org/2000/svg">
<path opacity="0.6" d="M11.8571 149L15.3291 138.92H16.6941L20.1661 149H19.0951L15.7981 139.494H16.2041L12.9281 149H11.8571ZM13.4041 146.557V145.591H18.6121V146.557H13.4041ZM24.3632 149.21C23.6585 149.21 23.0565 149.035 22.5572 148.685C22.0579 148.33 21.6752 147.852 21.4092 147.25C21.1432 146.648 21.0102 145.969 21.0102 145.213C21.0102 144.462 21.1409 143.785 21.4022 143.183C21.6682 142.581 22.0485 142.105 22.5432 141.755C23.0379 141.405 23.6305 141.23 24.3212 141.23C25.0305 141.23 25.6279 141.403 26.1132 141.748C26.5985 142.093 26.9649 142.567 27.2122 143.169C27.4642 143.766 27.5902 144.448 27.5902 145.213C27.5902 145.964 27.4665 146.643 27.2192 147.25C26.9719 147.852 26.6079 148.33 26.1272 148.685C25.6465 149.035 25.0585 149.21 24.3632 149.21ZM24.4682 148.251C25.0049 148.251 25.4482 148.12 25.7982 147.859C26.1482 147.598 26.4095 147.238 26.5822 146.781C26.7549 146.319 26.8412 145.796 26.8412 145.213C26.8412 144.62 26.7549 144.098 26.5822 143.645C26.4095 143.188 26.1482 142.831 25.7982 142.574C25.4529 142.317 25.0165 142.189 24.4892 142.189C23.9479 142.189 23.4999 142.322 23.1452 142.588C22.7905 142.854 22.5269 143.216 22.3542 143.673C22.1862 144.13 22.1022 144.644 22.1022 145.213C22.1022 145.787 22.1885 146.305 22.3612 146.767C22.5385 147.224 22.8022 147.586 23.1522 147.852C23.5022 148.118 23.9409 148.251 24.4682 148.251ZM26.8412 149V143.309H26.7292V138.92H27.7652V149H26.8412ZM32.886 149.21C32.1347 149.21 31.493 149.04 30.961 148.699C30.429 148.358 30.0207 147.887 29.736 147.285C29.4514 146.683 29.309 145.992 29.309 145.213C29.309 144.42 29.4537 143.724 29.743 143.127C30.0324 142.53 30.443 142.065 30.975 141.734C31.5117 141.398 32.1487 141.23 32.886 141.23C33.642 141.23 34.286 141.4 34.818 141.741C35.3547 142.077 35.763 142.546 36.043 143.148C36.3277 143.745 36.47 144.434 36.47 145.213C36.47 146.006 36.3277 146.704 36.043 147.306C35.7584 147.903 35.3477 148.37 34.811 148.706C34.2744 149.042 33.6327 149.21 32.886 149.21ZM32.886 148.223C33.726 148.223 34.3514 147.945 34.762 147.39C35.1727 146.83 35.378 146.104 35.378 145.213C35.378 144.298 35.1704 143.57 34.755 143.029C34.3444 142.488 33.7214 142.217 32.886 142.217C32.3214 142.217 31.8547 142.345 31.486 142.602C31.122 142.854 30.849 143.206 30.667 143.659C30.4897 144.107 30.401 144.625 30.401 145.213C30.401 146.123 30.611 146.853 31.031 147.404C31.451 147.95 32.0694 148.223 32.886 148.223ZM41.4092 149.21C40.7138 149.21 40.1258 149.035 39.6452 148.685C39.1645 148.33 38.8005 147.852 38.5532 147.25C38.3058 146.643 38.1822 145.964 38.1822 145.213C38.1822 144.448 38.3058 143.766 38.5532 143.169C38.8052 142.567 39.1738 142.093 39.6592 141.748C40.1445 141.403 40.7418 141.23 41.4512 141.23C42.1418 141.23 42.7345 141.405 43.2292 141.755C43.7238 142.105 44.1018 142.581 44.3632 143.183C44.6292 143.785 44.7622 144.462 44.7622 145.213C44.7622 145.969 44.6292 146.648 44.3632 147.25C44.0972 147.852 43.7145 148.33 43.2152 148.685C42.7158 149.035 42.1138 149.21 41.4092 149.21ZM38.0072 149V138.92H39.0432V143.309H38.9312V149H38.0072ZM41.3042 148.251C41.8315 148.251 42.2702 148.118 42.6202 147.852C42.9702 147.586 43.2315 147.224 43.4042 146.767C43.5815 146.305 43.6702 145.787 43.6702 145.213C43.6702 144.644 43.5838 144.13 43.4112 143.673C43.2385 143.216 42.9748 142.854 42.6202 142.588C42.2702 142.322 41.8245 142.189 41.2832 142.189C40.7558 142.189 40.3172 142.317 39.9672 142.574C39.6218 142.831 39.3628 143.188 39.1902 143.645C39.0175 144.098 38.9312 144.62 38.9312 145.213C38.9312 145.796 39.0175 146.319 39.1902 146.781C39.3628 147.238 39.6242 147.598 39.9742 147.859C40.3242 148.12 40.7675 148.251 41.3042 148.251ZM49.4983 149.21C48.761 149.21 48.1217 149.047 47.5803 148.72C47.0437 148.393 46.626 147.934 46.3273 147.341C46.0287 146.748 45.8793 146.053 45.8793 145.255C45.8793 144.429 46.0263 143.715 46.3203 143.113C46.6143 142.511 47.0273 142.047 47.5593 141.72C48.096 141.393 48.7283 141.23 49.4563 141.23C50.203 141.23 50.84 141.403 51.3673 141.748C51.8947 142.089 52.2937 142.579 52.5643 143.218C52.835 143.857 52.9587 144.62 52.9353 145.507H51.8853V145.143C51.8667 144.163 51.6543 143.423 51.2483 142.924C50.847 142.425 50.259 142.175 49.4843 142.175C48.6723 142.175 48.0493 142.439 47.6153 142.966C47.186 143.493 46.9713 144.245 46.9713 145.22C46.9713 146.172 47.186 146.912 47.6153 147.439C48.0493 147.962 48.663 148.223 49.4563 148.223C49.9977 148.223 50.469 148.099 50.8703 147.852C51.2763 147.6 51.596 147.238 51.8293 146.767L52.7883 147.138C52.4897 147.796 52.0487 148.307 51.4653 148.671C50.8867 149.03 50.231 149.21 49.4983 149.21ZM46.6073 145.507V144.646H52.3823V145.507H46.6073ZM57.2915 149V138.92H63.5915V139.907H58.3205V143.393H62.7515V144.38H58.3205V148.013H63.5915V149H57.2915ZM64.4359 149L67.3899 145.178L64.4989 141.44H65.7309L67.9919 144.387L70.2319 141.44H71.4639L68.5729 145.178L71.5339 149H70.2949L67.9919 145.969L65.6749 149H64.4359ZM76.0537 149.21C75.3584 149.21 74.7704 149.035 74.2897 148.685C73.809 148.33 73.445 147.852 73.1977 147.25C72.9504 146.643 72.8267 145.964 72.8267 145.213C72.8267 144.448 72.9504 143.766 73.1977 143.169C73.4497 142.567 73.8184 142.093 74.3037 141.748C74.789 141.403 75.3864 141.23 76.0957 141.23C76.7864 141.23 77.379 141.405 77.8737 141.755C78.3684 142.105 78.7464 142.581 79.0077 143.183C79.2737 143.785 79.4067 144.462 79.4067 145.213C79.4067 145.969 79.2737 146.648 79.0077 147.25C78.7417 147.852 78.359 148.33 77.8597 148.685C77.3604 149.035 76.7584 149.21 76.0537 149.21ZM72.6517 152.36V141.44H73.5757V147.131H73.6877V152.36H72.6517ZM75.9487 148.251C76.476 148.251 76.9147 148.118 77.2647 147.852C77.6147 147.586 77.876 147.224 78.0487 146.767C78.226 146.305 78.3147 145.787 78.3147 145.213C78.3147 144.644 78.2284 144.13 78.0557 143.673C77.883 143.216 77.6194 142.854 77.2647 142.588C76.9147 142.322 76.469 142.189 75.9277 142.189C75.4004 142.189 74.9617 142.317 74.6117 142.574C74.2664 142.831 74.0074 143.188 73.8347 143.645C73.662 144.098 73.5757 144.62 73.5757 145.213C73.5757 145.796 73.662 146.319 73.8347 146.781C74.0074 147.238 74.2687 147.598 74.6187 147.859C74.9687 148.12 75.412 148.251 75.9487 148.251ZM84.1429 149.21C83.4055 149.21 82.7662 149.047 82.2249 148.72C81.6882 148.393 81.2705 147.934 80.9719 147.341C80.6732 146.748 80.5239 146.053 80.5239 145.255C80.5239 144.429 80.6709 143.715 80.9649 143.113C81.2589 142.511 81.6719 142.047 82.2039 141.72C82.7405 141.393 83.3729 141.23 84.1009 141.23C84.8475 141.23 85.4845 141.403 86.0119 141.748C86.5392 142.089 86.9382 142.579 87.2089 143.218C87.4795 143.857 87.6032 144.62 87.5799 145.507H86.5299V145.143C86.5112 144.163 86.2989 143.423 85.8929 142.924C85.4915 142.425 84.9035 142.175 84.1289 142.175C83.3169 142.175 82.6939 142.439 82.2599 142.966C81.8305 143.493 81.6159 144.245 81.6159 145.22C81.6159 146.172 81.8305 146.912 82.2599 147.439C82.6939 147.962 83.3075 148.223 84.1009 148.223C84.6422 148.223 85.1135 148.099 85.5149 147.852C85.9209 147.6 86.2405 147.238 86.4739 146.767L87.4329 147.138C87.1342 147.796 86.6932 148.307 86.1099 148.671C85.5312 149.03 84.8755 149.21 84.1429 149.21ZM81.2519 145.507V144.646H87.0269V145.507H81.2519ZM89.1333 149V141.44H90.0573V143.26L89.8753 143.022C89.9593 142.798 90.069 142.593 90.2043 142.406C90.3397 142.215 90.4867 142.058 90.6453 141.937C90.8413 141.764 91.07 141.634 91.3313 141.545C91.5927 141.452 91.8563 141.398 92.1223 141.384C92.3883 141.365 92.631 141.384 92.8503 141.44V142.406C92.575 142.336 92.274 142.32 91.9473 142.357C91.6207 142.394 91.3197 142.525 91.0443 142.749C90.7923 142.945 90.6033 143.181 90.4773 143.456C90.3513 143.727 90.2673 144.016 90.2253 144.324C90.1833 144.627 90.1623 144.928 90.1623 145.227V149H89.1333ZM94.3182 140.005V138.85H95.3472V140.005H94.3182ZM94.3182 149V141.44H95.3472V149H94.3182ZM100.645 149.21C99.9075 149.21 99.2682 149.047 98.7268 148.72C98.1902 148.393 97.7725 147.934 97.4738 147.341C97.1752 146.748 97.0258 146.053 97.0258 145.255C97.0258 144.429 97.1728 143.715 97.4668 143.113C97.7608 142.511 98.1738 142.047 98.7058 141.72C99.2425 141.393 99.8748 141.23 100.603 141.23C101.349 141.23 101.986 141.403 102.514 141.748C103.041 142.089 103.44 142.579 103.711 143.218C103.981 143.857 104.105 144.62 104.082 145.507H103.032V145.143C103.013 144.163 102.801 143.423 102.395 142.924C101.993 142.425 101.405 142.175 100.631 142.175C99.8188 142.175 99.1958 142.439 98.7618 142.966C98.3325 143.493 98.1178 144.245 98.1178 145.22C98.1178 146.172 98.3325 146.912 98.7618 147.439C99.1958 147.962 99.8095 148.223 100.603 148.223C101.144 148.223 101.615 148.099 102.017 147.852C102.423 147.6 102.742 147.238 102.976 146.767L103.935 147.138C103.636 147.796 103.195 148.307 102.612 148.671C102.033 149.03 101.377 149.21 100.645 149.21ZM97.7538 145.507V144.646H103.529V145.507H97.7538ZM110.89 149V145.143C110.89 144.723 110.851 144.338 110.771 143.988C110.692 143.633 110.564 143.325 110.386 143.064C110.214 142.798 109.987 142.593 109.707 142.448C109.432 142.303 109.096 142.231 108.699 142.231C108.335 142.231 108.013 142.294 107.733 142.42C107.458 142.546 107.225 142.728 107.033 142.966C106.847 143.199 106.704 143.484 106.606 143.82C106.508 144.156 106.459 144.539 106.459 144.968L105.731 144.807C105.731 144.032 105.867 143.381 106.137 142.854C106.408 142.327 106.781 141.928 107.257 141.657C107.733 141.386 108.279 141.251 108.895 141.251C109.348 141.251 109.742 141.321 110.078 141.461C110.419 141.601 110.706 141.79 110.939 142.028C111.177 142.266 111.369 142.539 111.513 142.847C111.658 143.15 111.763 143.475 111.828 143.82C111.894 144.161 111.926 144.501 111.926 144.842V149H110.89ZM105.423 149V141.44H106.354V143.302H106.459V149H105.423ZM116.838 149.21C116.077 149.21 115.433 149.04 114.906 148.699C114.378 148.358 113.977 147.889 113.702 147.292C113.431 146.69 113.291 145.999 113.282 145.22C113.291 144.427 113.436 143.731 113.716 143.134C113.996 142.532 114.399 142.065 114.927 141.734C115.454 141.398 116.093 141.23 116.845 141.23C117.61 141.23 118.275 141.417 118.84 141.79C119.409 142.163 119.799 142.674 120.009 143.323L119.001 143.645C118.823 143.192 118.541 142.842 118.154 142.595C117.771 142.343 117.332 142.217 116.838 142.217C116.282 142.217 115.823 142.345 115.459 142.602C115.095 142.854 114.824 143.206 114.647 143.659C114.469 144.112 114.378 144.632 114.374 145.22C114.383 146.125 114.593 146.853 115.004 147.404C115.414 147.95 116.026 148.223 116.838 148.223C117.351 148.223 117.787 148.106 118.147 147.873C118.511 147.635 118.786 147.29 118.973 146.837L120.009 147.145C119.729 147.817 119.318 148.33 118.777 148.685C118.235 149.035 117.589 149.21 116.838 149.21ZM124.448 149.21C123.71 149.21 123.071 149.047 122.53 148.72C121.993 148.393 121.575 147.934 121.277 147.341C120.978 146.748 120.829 146.053 120.829 145.255C120.829 144.429 120.976 143.715 121.27 143.113C121.564 142.511 121.977 142.047 122.509 141.72C123.045 141.393 123.678 141.23 124.406 141.23C125.152 141.23 125.789 141.403 126.317 141.748C126.844 142.089 127.243 142.579 127.514 143.218C127.784 143.857 127.908 144.62 127.885 145.507H126.835V145.143C126.816 144.163 126.604 143.423 126.198 142.924C125.796 142.425 125.208 142.175 124.434 142.175C123.622 142.175 122.999 142.439 122.565 142.966C122.135 143.493 121.921 144.245 121.921 145.22C121.921 146.172 122.135 146.912 122.565 147.439C122.999 147.962 123.612 148.223 124.406 148.223C124.947 148.223 125.418 148.099 125.82 147.852C126.226 147.6 126.545 147.238 126.779 146.767L127.738 147.138C127.439 147.796 126.998 148.307 126.415 148.671C125.836 149.03 125.18 149.21 124.448 149.21ZM121.557 145.507V144.646H127.332V145.507H121.557ZM132.241 149V138.92H133.186L137.148 147.397L141.089 138.92H142.048V148.993H141.068V141.216L137.477 149H136.812L133.228 141.216V149H132.241ZM146.175 149.21C145.606 149.21 145.128 149.107 144.74 148.902C144.358 148.697 144.071 148.424 143.879 148.083C143.688 147.742 143.592 147.371 143.592 146.97C143.592 146.559 143.674 146.209 143.837 145.92C144.005 145.626 144.232 145.386 144.516 145.199C144.806 145.012 145.139 144.87 145.517 144.772C145.9 144.679 146.322 144.597 146.784 144.527C147.251 144.452 147.706 144.389 148.149 144.338C148.597 144.282 148.989 144.228 149.325 144.177L148.961 144.401C148.975 143.654 148.831 143.101 148.527 142.742C148.224 142.383 147.697 142.203 146.945 142.203C146.427 142.203 145.989 142.32 145.629 142.553C145.275 142.786 145.025 143.155 144.88 143.659L143.879 143.365C144.052 142.688 144.4 142.163 144.922 141.79C145.445 141.417 146.124 141.23 146.959 141.23C147.65 141.23 148.236 141.361 148.716 141.622C149.202 141.879 149.545 142.252 149.745 142.742C149.839 142.961 149.899 143.206 149.927 143.477C149.955 143.748 149.969 144.023 149.969 144.303V149H149.052V147.103L149.318 147.215C149.062 147.864 148.663 148.358 148.121 148.699C147.58 149.04 146.931 149.21 146.175 149.21ZM146.294 148.321C146.775 148.321 147.195 148.235 147.554 148.062C147.914 147.889 148.203 147.654 148.422 147.355C148.642 147.052 148.784 146.711 148.849 146.333C148.905 146.09 148.936 145.824 148.94 145.535C148.945 145.241 148.947 145.022 148.947 144.877L149.339 145.08C148.989 145.127 148.609 145.173 148.198 145.22C147.792 145.267 147.391 145.32 146.994 145.381C146.602 145.442 146.248 145.514 145.93 145.598C145.716 145.659 145.508 145.745 145.307 145.857C145.107 145.964 144.941 146.109 144.81 146.291C144.684 146.473 144.621 146.699 144.621 146.97C144.621 147.189 144.675 147.402 144.782 147.607C144.894 147.812 145.072 147.983 145.314 148.118C145.562 148.253 145.888 148.321 146.294 148.321ZM157.252 149V145.143C157.252 144.723 157.212 144.338 157.133 143.988C157.053 143.633 156.925 143.325 156.748 143.064C156.575 142.798 156.349 142.593 156.069 142.448C155.793 142.303 155.457 142.231 155.061 142.231C154.697 142.231 154.375 142.294 154.095 142.42C153.819 142.546 153.586 142.728 153.395 142.966C153.208 143.199 153.066 143.484 152.968 143.82C152.87 144.156 152.821 144.539 152.821 144.968L152.093 144.807C152.093 144.032 152.228 143.381 152.499 142.854C152.769 142.327 153.143 141.928 153.619 141.657C154.095 141.386 154.641 141.251 155.257 141.251C155.709 141.251 156.104 141.321 156.44 141.461C156.78 141.601 157.067 141.79 157.301 142.028C157.539 142.266 157.73 142.539 157.875 142.847C158.019 143.15 158.124 143.475 158.19 143.82C158.255 144.161 158.288 144.501 158.288 144.842V149H157.252ZM151.785 149V141.44H152.716V143.302H152.821V149H151.785ZM162.267 149.21C161.698 149.21 161.219 149.107 160.832 148.902C160.449 148.697 160.162 148.424 159.971 148.083C159.78 147.742 159.684 147.371 159.684 146.97C159.684 146.559 159.766 146.209 159.929 145.92C160.097 145.626 160.323 145.386 160.608 145.199C160.897 145.012 161.231 144.87 161.609 144.772C161.992 144.679 162.414 144.597 162.876 144.527C163.343 144.452 163.798 144.389 164.241 144.338C164.689 144.282 165.081 144.228 165.417 144.177L165.053 144.401C165.067 143.654 164.922 143.101 164.619 142.742C164.316 142.383 163.788 142.203 163.037 142.203C162.519 142.203 162.08 142.32 161.721 142.553C161.366 142.786 161.117 143.155 160.972 143.659L159.971 143.365C160.144 142.688 160.491 142.163 161.014 141.79C161.537 141.417 162.216 141.23 163.051 141.23C163.742 141.23 164.327 141.361 164.808 141.622C165.293 141.879 165.636 142.252 165.837 142.742C165.93 142.961 165.991 143.206 166.019 143.477C166.047 143.748 166.061 144.023 166.061 144.303V149H165.144V147.103L165.41 147.215C165.153 147.864 164.754 148.358 164.213 148.699C163.672 149.04 163.023 149.21 162.267 149.21ZM162.386 148.321C162.867 148.321 163.287 148.235 163.646 148.062C164.005 147.889 164.295 147.654 164.514 147.355C164.733 147.052 164.876 146.711 164.941 146.333C164.997 146.09 165.027 145.824 165.032 145.535C165.037 145.241 165.039 145.022 165.039 144.877L165.431 145.08C165.081 145.127 164.701 145.173 164.29 145.22C163.884 145.267 163.483 145.32 163.086 145.381C162.694 145.442 162.339 145.514 162.022 145.598C161.807 145.659 161.6 145.745 161.399 145.857C161.198 145.964 161.033 146.109 160.902 146.291C160.776 146.473 160.713 146.699 160.713 146.97C160.713 147.189 160.767 147.402 160.874 147.607C160.986 147.812 161.163 147.983 161.406 148.118C161.653 148.253 161.98 148.321 162.386 148.321ZM170.886 152.57C170.499 152.57 170.116 152.512 169.738 152.395C169.365 152.283 169.02 152.103 168.702 151.856C168.385 151.613 168.119 151.296 167.904 150.904L168.835 150.386C169.045 150.806 169.339 151.107 169.717 151.289C170.1 151.476 170.49 151.569 170.886 151.569C171.432 151.569 171.873 151.466 172.209 151.261C172.55 151.06 172.797 150.762 172.951 150.365C173.105 149.968 173.18 149.474 173.175 148.881V146.865H173.294V141.44H174.211V148.895C174.211 149.11 174.204 149.315 174.19 149.511C174.181 149.712 174.16 149.908 174.127 150.099C174.039 150.664 173.854 151.128 173.574 151.492C173.299 151.856 172.935 152.127 172.482 152.304C172.034 152.481 171.502 152.57 170.886 152.57ZM170.816 149.21C170.112 149.21 169.51 149.035 169.01 148.685C168.511 148.33 168.128 147.852 167.862 147.25C167.596 146.648 167.463 145.969 167.463 145.213C167.463 144.462 167.594 143.785 167.855 143.183C168.121 142.581 168.502 142.105 168.996 141.755C169.491 141.405 170.084 141.23 170.774 141.23C171.484 141.23 172.081 141.403 172.566 141.748C173.052 142.093 173.418 142.567 173.665 143.169C173.917 143.766 174.043 144.448 174.043 145.213C174.043 145.964 173.92 146.643 173.672 147.25C173.425 147.852 173.061 148.33 172.58 148.685C172.1 149.035 171.512 149.21 170.816 149.21ZM170.921 148.251C171.458 148.251 171.901 148.12 172.251 147.859C172.601 147.598 172.863 147.238 173.035 146.781C173.208 146.319 173.294 145.796 173.294 145.213C173.294 144.62 173.208 144.098 173.035 143.645C172.863 143.188 172.601 142.831 172.251 142.574C171.906 142.317 171.47 142.189 170.942 142.189C170.401 142.189 169.953 142.322 169.598 142.588C169.244 142.854 168.98 143.216 168.807 143.673C168.639 144.13 168.555 144.644 168.555 145.213C168.555 145.787 168.642 146.305 168.814 146.767C168.992 147.224 169.255 147.586 169.605 147.852C169.955 148.118 170.394 148.251 170.921 148.251ZM179.367 149.21C178.63 149.21 177.991 149.047 177.449 148.72C176.913 148.393 176.495 147.934 176.196 147.341C175.898 146.748 175.748 146.053 175.748 145.255C175.748 144.429 175.895 143.715 176.189 143.113C176.483 142.511 176.896 142.047 177.428 141.72C177.965 141.393 178.597 141.23 179.325 141.23C180.072 141.23 180.709 141.403 181.236 141.748C181.764 142.089 182.163 142.579 182.433 143.218C182.704 143.857 182.828 144.62 182.804 145.507H181.754V145.143C181.736 144.163 181.523 143.423 181.117 142.924C180.716 142.425 180.128 142.175 179.353 142.175C178.541 142.175 177.918 142.439 177.484 142.966C177.055 143.493 176.84 144.245 176.84 145.22C176.84 146.172 177.055 146.912 177.484 147.439C177.918 147.962 178.532 148.223 179.325 148.223C179.867 148.223 180.338 148.099 180.739 147.852C181.145 147.6 181.465 147.238 181.698 146.767L182.657 147.138C182.359 147.796 181.918 148.307 181.334 148.671C180.756 149.03 180.1 149.21 179.367 149.21ZM176.476 145.507V144.646H182.251V145.507H176.476ZM184.358 149V141.44H185.282V143.26L185.1 143.022C185.184 142.798 185.294 142.593 185.429 142.406C185.564 142.215 185.711 142.058 185.87 141.937C186.066 141.764 186.295 141.634 186.556 141.545C186.817 141.452 187.081 141.398 187.347 141.384C187.613 141.365 187.856 141.384 188.075 141.44V142.406C187.8 142.336 187.499 142.32 187.172 142.357C186.845 142.394 186.544 142.525 186.269 142.749C186.017 142.945 185.828 143.181 185.702 143.456C185.576 143.727 185.492 144.016 185.45 144.324C185.408 144.627 185.387 144.928 185.387 145.227V149H184.358Z" fill="#0E041B"/>
<path fill-rule="evenodd" clip-rule="evenodd" d="M100 101C80.2762 101 64.293 84.8857 64.293 65C64.293 45.1143 80.2762 29 100 29C119.724 29 135.708 45.1143 135.708 65C135.708 84.8857 119.724 101 100 101ZM100.041 32.6735C82.3329 32.649 67.9609 47.1061 67.9366 64.9592V64.9673C67.9285 82.8286 82.3086 97.3265 100 97.3265C117.692 97.3265 132.04 82.8939 132.064 65.0408C132.088 47.1878 117.749 32.698 100.041 32.6735ZM121.076 60.8255C121.853 62.0769 122.266 63.5234 122.267 65C122.266 66.4766 121.853 67.9231 121.076 69.1745C120.298 70.4259 119.188 71.4318 117.87 72.0776C118.506 73.6075 118.675 75.2935 118.357 76.9209C118.039 78.5483 117.249 80.0435 116.085 81.2164C114.922 82.3892 113.439 83.1867 111.825 83.5072C110.21 83.8277 108.538 83.6568 107.021 83.0163C106.38 84.3442 105.383 85.4637 104.141 86.2469C102.9 87.0301 101.465 87.4454 100.001 87.4454C98.5362 87.4454 97.1014 87.0301 95.86 86.2469C94.6186 85.4637 93.6208 84.3442 92.9806 83.0163C91.4631 83.6568 89.7908 83.8277 88.1767 83.5072C86.5625 83.1867 85.0794 82.3892 83.9161 81.2164C82.7528 80.0435 81.9618 78.5483 81.6439 76.9209C81.326 75.2935 81.4955 73.6075 82.1308 72.0776C80.8137 71.4321 79.7034 70.4261 78.9265 69.1746C78.1497 67.923 77.7377 66.4764 77.7377 65C77.7377 63.5236 78.1497 62.077 78.9265 60.8254C79.7034 59.5739 80.8137 58.5679 82.1308 57.9224C81.4955 56.3925 81.326 54.7065 81.6439 53.0791C81.9618 51.4517 82.7528 49.9565 83.9161 48.7836C85.0794 47.6108 86.5625 46.8133 88.1767 46.4928C89.7908 46.1723 91.4631 46.3432 92.9806 46.9837C93.6208 45.6558 94.6186 44.5363 95.86 43.7531C97.1014 42.9699 98.5362 42.5546 100.001 42.5546C101.465 42.5546 102.9 42.9699 104.141 43.7531C105.383 44.5363 106.38 45.6558 107.021 46.9837C108.538 46.3432 110.21 46.1723 111.825 46.4928C113.439 46.8133 114.922 47.6108 116.085 48.7836C117.249 49.9565 118.039 51.4517 118.357 53.0791C118.675 54.7065 118.506 56.3925 117.87 57.9224C119.188 58.5682 120.298 59.5741 121.076 60.8255ZM116.303 53.5747C116.079 52.3283 115.485 51.18 114.599 50.2816C113.708 49.3886 112.569 48.7895 111.333 48.5635C110.097 48.3376 108.822 48.4955 107.677 49.0163C107.761 49.4796 107.804 49.9494 107.806 50.4204C107.808 52.1994 108.51 53.9049 109.758 55.1629C111.006 56.4208 112.697 57.1285 114.462 57.1306C114.929 57.1325 115.395 57.1762 115.854 57.2612C116.371 56.1066 116.528 54.821 116.303 53.5747ZM105.863 79.7184C106.098 79.951 106.35 80.1665 106.616 80.3633C106.649 80.1034 106.665 79.8416 106.664 79.5796C106.667 77.4953 107.489 75.4971 108.951 74.0233C110.412 72.5495 112.394 71.7205 114.462 71.7184C114.722 71.7188 114.981 71.7025 115.239 71.6694C115.044 71.4014 114.83 71.1478 114.599 70.9102C113.045 69.3426 112.172 67.2167 112.172 65C112.172 62.7833 113.045 60.6574 114.599 59.0898C114.83 58.8522 115.044 58.5986 115.239 58.3306C114.981 58.2975 114.722 58.2812 114.462 58.2816C112.394 58.2795 110.412 57.4505 108.951 55.9767C107.489 54.5029 106.667 52.5047 106.664 50.4204C106.665 50.1584 106.649 49.8966 106.616 49.6367C106.35 49.8335 106.098 50.049 105.863 50.2816C104.308 51.8489 102.199 52.7294 100.001 52.7294C97.802 52.7294 95.6933 51.8489 94.1385 50.2816C93.9029 50.049 93.6512 49.8335 93.3855 49.6367C93.3527 49.8966 93.3364 50.1584 93.3369 50.4204C93.3348 52.5047 92.5126 54.5029 91.0508 55.9767C89.5889 57.4505 87.6069 58.2795 85.5396 58.2816C85.2797 58.2812 85.0201 58.2975 84.7623 58.3306C84.9575 58.5986 85.1712 58.8522 85.4019 59.0898C86.9565 60.6574 87.8298 62.7833 87.8298 65C87.8298 67.2167 86.9565 69.3426 85.4019 70.9102C85.1712 71.1478 84.9575 71.4014 84.7623 71.6694C85.0201 71.7025 85.2797 71.7188 85.5396 71.7184C87.6069 71.7205 89.5889 72.5495 91.0508 74.0233C92.5126 75.4971 93.3348 77.4953 93.3369 79.5796C93.3364 79.8416 93.3527 80.1034 93.3855 80.3633C93.6512 80.1665 93.9029 79.951 94.1385 79.7184C95.6933 78.1511 97.802 77.2707 100.001 77.2707C102.199 77.2707 104.308 78.1511 105.863 79.7184ZM103.542 44.7297C102.481 44.0583 101.254 43.7021 100.001 43.702C98.7478 43.7021 97.5203 44.0583 96.4591 44.7297C95.3978 45.4011 94.5458 46.3606 94.0008 47.498C94.5965 47.8554 95.1458 48.2859 95.6364 48.7796C96.7947 49.9451 98.3642 50.5996 100.001 50.5996C101.637 50.5996 103.207 49.9451 104.365 48.7796C104.855 48.2859 105.405 47.8554 106 47.498C105.455 46.3606 104.603 45.4011 103.542 44.7297ZM88.6682 48.5635C87.432 48.7895 86.293 49.3886 85.4019 50.2816C84.5162 51.18 83.9219 52.3283 83.6978 53.5747C83.4737 54.821 83.6303 56.1066 84.1469 57.2612C84.6064 57.1762 85.0724 57.1325 85.5396 57.1306C87.3041 57.1285 88.9958 56.4208 90.2435 55.1629C91.4912 53.9049 92.1931 52.1994 92.1952 50.4204C92.1971 49.9494 92.2404 49.4796 92.3248 49.0163C91.1795 48.4955 89.9044 48.3376 88.6682 48.5635ZM79.8952 61.4294C79.2292 62.4993 78.8759 63.7369 78.8758 65C78.8759 66.2631 79.2292 67.5007 79.8952 68.5706C80.5611 69.6405 81.5128 70.4995 82.6409 71.049C82.9954 70.4485 83.4224 69.8946 83.9121 69.4C85.0681 68.2323 85.7174 66.6498 85.7174 65C85.7174 63.3502 85.0681 61.7677 83.9121 60.6C83.4224 60.1054 82.9954 59.5515 82.6409 58.951C81.5128 59.5005 80.5611 60.3595 79.8952 61.4294ZM83.6978 76.4253C83.9219 77.6717 84.5162 78.82 85.4019 79.7184C86.293 80.6114 87.432 81.2105 88.6682 81.4365C89.9044 81.6624 91.1795 81.5045 92.3248 80.9837C92.2404 80.5204 92.1971 80.0506 92.1952 79.5796C92.1931 77.8006 91.4912 76.0951 90.2435 74.8371C88.9958 73.5792 87.3041 72.8716 85.5396 72.8694C85.0724 72.8675 84.6064 72.8238 84.1469 72.7388C83.6303 73.8934 83.4737 75.179 83.6978 76.4253ZM96.4591 85.2703C97.5203 85.9417 98.7478 86.2979 100.001 86.298C101.254 86.2979 102.481 85.9417 103.542 85.2703C104.603 84.5989 105.455 83.6394 106 82.502C105.405 82.1446 104.855 81.7141 104.365 81.2204C103.207 80.0549 101.637 79.4004 100.001 79.4004C98.3642 79.4004 96.7947 80.0549 95.6364 81.2204C95.1458 81.7141 94.5965 82.1446 94.0008 82.502C94.5458 83.6394 95.3978 84.5989 96.4591 85.2703ZM111.333 81.4365C112.569 81.2105 113.708 80.6114 114.599 79.7184C115.485 78.82 116.079 77.6717 116.303 76.4253C116.528 75.179 116.371 73.8934 115.854 72.7388C115.395 72.8238 114.929 72.8675 114.462 72.8694C112.697 72.8716 111.006 73.5792 109.758 74.8371C108.51 76.0951 107.808 77.8006 107.806 79.5796C107.804 80.0506 107.761 80.5204 107.677 80.9837C108.822 81.5045 110.097 81.6624 111.333 81.4365ZM116.089 69.4C116.579 69.8946 117.006 70.4485 117.36 71.049C118.488 70.4994 119.44 69.6404 120.106 68.5704C120.771 67.5005 121.124 66.263 121.124 65C121.124 63.737 120.771 62.4995 120.106 61.4296C119.44 60.3597 118.488 59.5006 117.36 58.951C117.006 59.5515 116.579 60.1054 116.089 60.6C114.933 61.7677 114.284 63.3502 114.284 65C114.284 66.6498 114.933 68.2323 116.089 69.4Z" fill="#0D041B" fill-opacity="0.75"/>
</svg>
