<svg width="200" height="164" viewBox="0 0 200 164" fill="none" xmlns="http://www.w3.org/2000/svg">
<path opacity="0.6" d="M63.7966 149L67.2686 138.92H68.6336L72.1056 149H71.0346L67.7376 139.494H68.1436L64.8676 149H63.7966ZM65.3436 146.557V145.591H70.5516V146.557H65.3436ZM76.3726 152.57C75.9853 152.57 75.6026 152.512 75.2246 152.395C74.8513 152.283 74.506 152.103 74.1886 151.856C73.8713 151.613 73.6053 151.296 73.3906 150.904L74.3216 150.386C74.5316 150.806 74.8256 151.107 75.2036 151.289C75.5863 151.476 75.976 151.569 76.3726 151.569C76.9186 151.569 77.3596 151.466 77.6956 151.261C78.0363 151.06 78.2836 150.762 78.4376 150.365C78.5916 149.968 78.6663 149.474 78.6616 148.881V146.865H78.7806V141.44H79.6976V148.895C79.6976 149.11 79.6906 149.315 79.6766 149.511C79.6673 149.712 79.6463 149.908 79.6136 150.099C79.525 150.664 79.3406 151.128 79.0606 151.492C78.7853 151.856 78.4213 152.127 77.9686 152.304C77.5206 152.481 76.9886 152.57 76.3726 152.57ZM76.3026 149.21C75.598 149.21 74.996 149.035 74.4966 148.685C73.9973 148.33 73.6146 147.852 73.3486 147.25C73.0826 146.648 72.9496 145.969 72.9496 145.213C72.9496 144.462 73.0803 143.785 73.3416 143.183C73.6076 142.581 73.988 142.105 74.4826 141.755C74.9773 141.405 75.57 141.23 76.2606 141.23C76.97 141.23 77.5673 141.403 78.0526 141.748C78.538 142.093 78.9043 142.567 79.1516 143.169C79.4036 143.766 79.5296 144.448 79.5296 145.213C79.5296 145.964 79.406 146.643 79.1586 147.25C78.9113 147.852 78.5473 148.33 78.0666 148.685C77.586 149.035 76.998 149.21 76.3026 149.21ZM76.4076 148.251C76.9443 148.251 77.3876 148.12 77.7376 147.859C78.0876 147.598 78.349 147.238 78.5216 146.781C78.6943 146.319 78.7806 145.796 78.7806 145.213C78.7806 144.62 78.6943 144.098 78.5216 143.645C78.349 143.188 78.0876 142.831 77.7376 142.574C77.3923 142.317 76.956 142.189 76.4286 142.189C75.8873 142.189 75.4393 142.322 75.0846 142.588C74.73 142.854 74.4663 143.216 74.2936 143.673C74.1256 144.13 74.0416 144.644 74.0416 145.213C74.0416 145.787 74.128 146.305 74.3006 146.767C74.478 147.224 74.7416 147.586 75.0916 147.852C75.4416 148.118 75.8803 148.251 76.4076 148.251ZM81.7948 140.005V138.85H82.8238V140.005H81.7948ZM81.7948 149V141.44H82.8238V149H81.7948ZM85.0624 149V138.71H86.0914V149H85.0624ZM88.33 140.005V138.85H89.359V140.005H88.33ZM88.33 149V141.44H89.359V149H88.33ZM95.5735 149C95.1489 149.089 94.7289 149.124 94.3135 149.105C93.9029 149.086 93.5342 148.998 93.2075 148.839C92.8855 148.68 92.6405 148.433 92.4725 148.097C92.3372 147.817 92.2625 147.535 92.2485 147.25C92.2392 146.961 92.2345 146.632 92.2345 146.263V139.34H93.2565V146.221C93.2565 146.538 93.2589 146.804 93.2635 147.019C93.2729 147.229 93.3219 147.416 93.4105 147.579C93.5785 147.892 93.8445 148.078 94.2085 148.139C94.5772 148.2 95.0322 148.186 95.5735 148.097V149ZM90.6175 142.322V141.44H95.5735V142.322H90.6175ZM97.9359 152.36L99.3989 148.391L99.4199 149.567L96.1089 141.44H97.2009L99.9169 148.237H99.4689L101.975 141.44H103.025L98.9649 152.36H97.9359ZM111.124 149.21C110.121 149.21 109.274 148.988 108.583 148.545C107.893 148.097 107.37 147.479 107.015 146.69C106.661 145.901 106.483 144.991 106.483 143.96C106.483 142.929 106.661 142.019 107.015 141.23C107.37 140.441 107.893 139.825 108.583 139.382C109.274 138.934 110.121 138.71 111.124 138.71C112.296 138.71 113.252 139.011 113.994 139.613C114.736 140.21 115.245 141.013 115.52 142.021L114.47 142.294C114.256 141.496 113.871 140.864 113.315 140.397C112.76 139.93 112.03 139.697 111.124 139.697C110.336 139.697 109.68 139.877 109.157 140.236C108.635 140.595 108.24 141.097 107.974 141.741C107.713 142.38 107.578 143.12 107.568 143.96C107.564 144.8 107.692 145.54 107.953 146.179C108.219 146.818 108.616 147.32 109.143 147.684C109.675 148.043 110.336 148.223 111.124 148.223C112.03 148.223 112.76 147.99 113.315 147.523C113.871 147.052 114.256 146.419 114.47 145.626L115.52 145.899C115.245 146.907 114.736 147.712 113.994 148.314C113.252 148.911 112.296 149.21 111.124 149.21ZM117.065 149V138.92H118.01L121.972 147.397L125.913 138.92H126.872V148.993H125.892V141.216L122.301 149H121.636L118.052 141.216V149H117.065ZM132.336 149.21C131.632 149.21 130.997 149.093 130.432 148.86C129.872 148.622 129.408 148.286 129.039 147.852C128.675 147.418 128.437 146.902 128.325 146.305L129.375 146.13C129.543 146.783 129.898 147.297 130.439 147.67C130.981 148.039 131.627 148.223 132.378 148.223C132.873 148.223 133.316 148.146 133.708 147.992C134.1 147.833 134.408 147.609 134.632 147.32C134.856 147.031 134.968 146.688 134.968 146.291C134.968 146.03 134.922 145.808 134.828 145.626C134.735 145.439 134.611 145.285 134.457 145.164C134.303 145.043 134.135 144.942 133.953 144.863C133.771 144.779 133.594 144.711 133.421 144.66L130.866 143.897C130.558 143.808 130.274 143.696 130.012 143.561C129.751 143.421 129.522 143.255 129.326 143.064C129.135 142.868 128.986 142.639 128.878 142.378C128.771 142.117 128.717 141.818 128.717 141.482C128.717 140.913 128.867 140.42 129.165 140.005C129.464 139.59 129.872 139.27 130.39 139.046C130.908 138.822 131.499 138.712 132.161 138.717C132.833 138.717 133.433 138.836 133.96 139.074C134.492 139.312 134.931 139.653 135.276 140.096C135.622 140.535 135.85 141.055 135.962 141.657L134.884 141.853C134.814 141.414 134.653 141.034 134.401 140.712C134.149 140.39 133.827 140.143 133.435 139.97C133.048 139.793 132.621 139.702 132.154 139.697C131.702 139.697 131.298 139.774 130.943 139.928C130.593 140.077 130.316 140.283 130.11 140.544C129.905 140.805 129.802 141.104 129.802 141.44C129.802 141.781 129.896 142.054 130.082 142.259C130.274 142.464 130.507 142.625 130.782 142.742C131.062 142.859 131.333 142.954 131.594 143.029L133.568 143.61C133.774 143.666 134.014 143.748 134.289 143.855C134.569 143.958 134.84 144.107 135.101 144.303C135.367 144.494 135.587 144.746 135.759 145.059C135.932 145.372 136.018 145.768 136.018 146.249C136.018 146.716 135.925 147.133 135.738 147.502C135.556 147.871 135.297 148.181 134.961 148.433C134.63 148.685 134.24 148.876 133.792 149.007C133.349 149.142 132.864 149.21 132.336 149.21Z" fill="#0E041B"/>
<path fill-rule="evenodd" clip-rule="evenodd" d="M106.383 87.2716H79.9887L99.8839 52.6238L119.779 87.2716L125.582 97.5944H137.562L99.8828 31.9783L62.2046 97.5944H111.008L106.383 87.2716Z" fill="#0D041B" fill-opacity="0.75"/>
</svg>
