<svg width="106" height="23" viewBox="0 0 106 23" fill="none" xmlns="http://www.w3.org/2000/svg">
<path fill-rule="evenodd" clip-rule="evenodd" d="M17.6944 17.9915C17.3288 17.2188 16.7098 16.601 15.936 16.2388C12.6627 14.7036 8.70988 15.132 5.81672 17.5261L5.1652 18.0655L5.70458 17.414C8.62241 13.8884 8.62241 8.78608 5.70458 5.26047L5.1652 4.60895L5.81672 5.14833C9.34233 8.06616 14.4446 8.06616 17.9702 5.14833L18.6217 4.60895L18.0824 5.26047C15.6613 8.18727 15.2509 12.1984 16.85 15.4942C17.1942 16.2051 17.7706 16.7793 18.4827 17.1213C19.9371 17.821 21.5306 18.1294 23.1073 18.0475V4.60783C23.1073 2.1307 21.0989 0.122314 18.6217 0.122314H5.1652C2.68808 0.122314 0.679688 2.1307 0.679688 4.60783V18.0644C0.679688 20.5415 2.68808 22.5499 5.1652 22.5499H18.5959C18.6744 20.9968 18.375 19.428 17.6955 17.9915H17.6944Z" fill="url(#paint0_linear_6380_17626)"/>
<path d="M40.8824 5.6915C39.8258 4.80813 38.4361 4.36035 36.7486 4.36035C35.0612 4.36035 33.7215 4.75445 32.6503 5.53166C31.5705 6.31498 30.925 7.32402 30.7335 8.53071L30.7066 8.70031L34.4438 9.53731L34.4792 9.35185C34.5878 8.77595 34.8428 8.32451 35.2345 8.0085C35.6286 7.69127 36.1471 7.53143 36.7743 7.53143C37.355 7.53143 37.8333 7.66443 38.1945 7.92553C38.5434 8.1781 38.7118 8.50143 38.7118 8.91383C38.7118 9.2518 38.6044 9.70812 37.6649 9.76669L35.5419 9.96923C32.0988 10.3328 30.3516 11.8043 30.3516 14.3433C30.3516 15.5037 30.7542 16.4578 31.5473 17.1813C32.3355 17.9 33.2957 18.2648 34.3987 18.2648C36.4253 18.2648 37.8711 17.3619 38.7118 15.5793C38.7118 16.923 39.8011 18.0122 41.1447 18.0122H42.4881V9.59465C42.4881 7.89625 41.9476 6.58218 40.8812 5.6915H40.8824ZM38.713 12.3753C38.713 13.1196 38.4129 13.7614 37.7992 14.336C37.1891 14.907 36.4534 15.1962 35.6127 15.1962C35.1527 15.1962 34.783 15.0864 34.5146 14.8704C34.2547 14.6618 34.1278 14.3983 34.1278 14.0664C34.1278 13.7345 34.2474 13.4929 34.4926 13.2843C34.7501 13.0647 35.11 12.9219 35.5566 12.8597L37.754 12.6071C38.1579 12.5595 38.4751 12.4839 38.7118 12.3765L38.713 12.3753Z" fill="white"/>
<path d="M61.5129 4.35938C60.5136 4.35938 59.6156 4.68881 58.8445 5.33669C58.2076 5.87232 57.7159 6.57267 57.3791 7.42065C57.0717 6.57267 56.6093 5.87476 56.0016 5.33913C55.2635 4.68881 54.3557 4.35938 53.304 4.35938C52.3193 4.35938 51.4506 4.68027 50.7222 5.31351C50.2134 5.75397 49.7961 6.31522 49.4716 6.98873V4.61194H45.6953V18.01H49.4716V10.5283C49.4716 9.73643 49.6985 9.08123 50.1451 8.57854C50.5929 8.07585 51.1553 7.83183 51.8642 7.83183C52.4694 7.83183 52.9635 8.07463 53.3772 8.57366C53.7932 9.07635 54.0043 9.73399 54.0043 10.5283V18.01H57.7806V10.5283C57.7806 9.73643 58.0075 9.08123 58.4541 8.57854C58.9018 8.07585 59.4643 7.83183 60.1732 7.83183C60.7943 7.83183 61.2982 8.07463 61.7118 8.57366C62.1278 9.07635 62.3389 9.73399 62.3389 10.5283V18.01H66.1152V9.92189C66.1152 8.32109 65.6894 6.98141 64.8499 5.94309C64.0007 4.89257 62.877 4.35938 61.5129 4.35938Z" fill="white"/>
<path fill-rule="evenodd" clip-rule="evenodd" d="M74.6164 5.47725C75.4802 4.73542 76.5185 4.35962 77.7032 4.35962C79.3687 4.35962 80.7682 5.03678 81.8602 6.37159C82.9436 7.69664 83.4927 9.35722 83.4927 11.3118C83.4927 13.2665 82.9436 14.9283 81.8602 16.2521C80.7682 17.5869 79.3699 18.2641 77.7032 18.2641C76.5185 18.2641 75.4802 17.8883 74.6164 17.1464C73.9831 16.6035 73.4719 15.9092 73.0875 15.0771V22.5175H69.3125V4.61218H73.0875V7.54778C73.4719 6.71445 73.9831 6.02142 74.6164 5.47725ZM78.6793 13.8021C79.2845 13.142 79.5908 12.3038 79.5908 11.3118L79.5895 11.3131C79.5895 10.337 79.2833 9.50851 78.6781 8.84721C78.0693 8.18224 77.3445 7.85891 76.4648 7.85891C75.4936 7.85891 74.6798 8.18835 74.0453 8.83867C73.4096 9.49021 73.0875 10.3223 73.0875 11.3118C73.0875 12.3014 73.4097 13.1384 74.0466 13.7984C74.681 14.4561 75.4948 14.7904 76.466 14.7904C77.3457 14.7904 78.0705 14.4671 78.6793 13.8021Z" fill="white"/>
<path fill-rule="evenodd" clip-rule="evenodd" d="M85.8984 0.078125V18.0119H89.6747V0.078125H85.8984Z" fill="white"/>
<path fill-rule="evenodd" clip-rule="evenodd" d="M98.5514 16.2581L102.069 4.61206H105.911L100.486 22.5175H96.6435L98.0182 18.0114C96.4485 18.0114 95.0628 16.9865 94.6032 15.4856L91.2734 4.61206H95.3486L98.5514 16.2581Z" fill="white"/>
<defs>
<linearGradient id="paint0_linear_6380_17626" x1="-7.2653" y1="4.34129" x2="10.5414" y2="36.1618" gradientUnits="userSpaceOnUse">
<stop stop-color="#F95765"/>
<stop offset="0.518041" stop-color="#8650DB"/>
<stop offset="1" stop-color="#309FFF"/>
</linearGradient>
</defs>
</svg>
