<svg width="149" height="32" viewBox="0 0 149 32" fill="none" xmlns="http://www.w3.org/2000/svg">
<path d="M50.9784 18.9397H44.7801L43.6812 21.0935H41.176L46.6116 10.9091H49.1757L54.6113 21.0935H52.076L50.9771 18.9397H50.9784ZM49.9972 17.0483L47.8727 12.9018L45.7482 17.0483H49.9972Z" fill="#8C8CA6"/>
<path d="M67.6819 10.9091V21.0935H65.6307L58.2759 13.7319V21.0935H56.0049V10.9091H58.4957L65.4109 17.8927V10.9091H67.6819Z" fill="#8C8CA6"/>
<path d="M71.6497 10.9091L75.5181 18.7799L79.3721 10.9091H81.9074L76.7348 21.0935H74.2583L69.0857 10.9091H71.6497Z" fill="#8C8CA6"/>
<path d="M83.2964 21.0935V10.9091H85.6407V21.0935H83.2964Z" fill="#8C8CA6"/>
<path d="M97.9923 19.0852V21.0935H88.3953V10.9091H90.7396V19.0852H97.9923Z" fill="#8C8CA6"/>
<path d="M98.6081 16.0017C98.6081 12.5969 101.128 10.5899 105.128 10.5899C109.129 10.5899 111.648 12.5982 111.648 16.0017C111.648 19.4051 109.129 21.4134 105.128 21.4134C101.128 21.4134 98.6081 19.4051 98.6081 16.0017ZM109.26 16.0017C109.26 13.8193 107.662 12.5969 105.128 12.5969C102.594 12.5969 100.997 13.8193 100.997 16.0017C100.997 18.184 102.58 19.4064 105.128 19.4064C107.677 19.4064 109.26 18.184 109.26 16.0017Z" fill="#8C8CA6"/>
<path d="M125.553 19.0271C124.528 20.4093 122.505 21.4134 119.721 21.4134C115.604 21.4134 113.099 19.4051 113.099 16.0017C113.099 12.5982 115.604 10.5899 119.721 10.5899C122.241 10.5899 124.029 11.5356 125.055 12.5255L123.223 13.8492C122.33 12.9762 121.29 12.5683 119.736 12.5683C117.054 12.5683 115.487 13.7323 115.487 16.0017C115.487 18.2711 117.098 19.435 119.823 19.435C121.362 19.435 122.621 19.0998 123.354 18.2269V17.237H119.486V15.3457H125.552V19.0271H125.553Z" fill="#8C8CA6"/>
<path d="M127.676 21.0935V10.9091H130.02V21.0935H127.676Z" fill="#8C8CA6"/>
<path d="M141.83 17.7463L143.969 18.8089C143.002 20.2495 141.024 21.4134 138.342 21.4134C134.488 21.4134 131.983 19.3908 131.983 16.0017C131.983 12.6125 134.488 10.5899 138.444 10.5899C141.023 10.5899 143.001 11.7681 143.939 13.1802L141.785 14.2428C141.053 13.1074 139.939 12.5982 138.415 12.5982C135.983 12.5982 134.372 13.7621 134.372 16.003C134.372 18.2438 135.983 19.4077 138.415 19.4077C139.939 19.4077 141.067 18.9128 141.83 17.7488V17.7463Z" fill="#8C8CA6"/>
<path d="M146.469 10.9191H145.729V12.2675H145.341V10.9191H144.606V10.5879H146.468V10.9191H146.469Z" fill="#8C8CA6"/>
<path d="M149 10.5881V12.2677H148.613V11.0986L147.871 11.9988H147.851L147.11 11.0986V12.2677H146.736V10.5881H147.155L147.871 11.4766L148.587 10.5881H149Z" fill="#8C8CA6"/>
<path d="M17.1153 21.7956L13.553 10.7955H9.28173C8.74274 10.7955 8.19984 10.8422 7.67132 10.9344C5.5468 11.3034 3.60542 12.4127 2.20171 14.056C0.782307 15.7188 0 17.8375 0 20.0211C0 22.4854 0.965456 24.8028 2.71845 26.5448C4.47145 28.2868 6.51356 29 8.99261 29H9.00569C11.0753 28.9974 13.0899 28.3011 14.7147 27.0346L12.3455 24.6794L11.5083 25.2017L11.5031 25.2042L11.4874 25.212C10.7024 25.568 9.86257 25.7498 8.99392 25.7498C5.67892 25.7498 3.27052 23.3168 3.27052 20.0211C3.27052 16.7255 5.96673 14.0456 9.28173 14.0456C9.7239 14.0456 10.3178 14.1275 10.7482 14.2236L13.3267 22.284L16.4756 25.4134H22.5208L18.897 21.7943H17.1153V21.7956ZM32.9289 9.45616C31.1523 7.69078 28.791 6.71781 26.2779 6.71781C26.0673 6.71781 25.8462 6.72561 25.6238 6.74119L25.4747 6.75159L25.3871 6.63078C24.5812 5.5305 23.515 4.61599 22.3036 3.98986C21.0517 3.34164 19.6401 3 18.2181 3C16.3173 3 14.5054 3.58976 12.9787 4.70432C11.5933 5.71626 10.552 7.07764 9.94499 8.65726H13.5426C14.7526 7.18936 16.4311 6.38007 18.2887 6.38007C19.5289 6.38007 20.7285 6.7386 21.7581 7.41929C22.7576 8.07919 23.5359 8.9937 24.0213 10.0732C24.763 9.76792 25.548 9.61204 26.3591 9.61204C26.6351 9.61204 26.9137 9.63023 27.1885 9.6679C28.6471 9.86405 29.988 10.5785 30.9652 11.6814C31.9516 12.7947 32.4945 14.2249 32.4945 15.7097C32.4945 19.0728 29.7434 21.8073 26.3604 21.8073H22.1048L25.7193 25.416H26.2779C28.7897 25.416 31.1523 24.4443 32.9289 22.6776C34.7054 20.9123 35.684 18.5636 35.684 16.0669C35.684 13.5702 34.7054 11.2228 32.9289 9.45616Z" fill="#8C8CA6"/>
</svg>
