<svg width="122" height="32" viewBox="0 0 122 32" fill="none" xmlns="http://www.w3.org/2000/svg">
<path fill-rule="evenodd" clip-rule="evenodd" d="M95.5553 22.0117C94.8013 22.0725 94.1673 22.0725 93.4734 22.0725C90.8491 22.0725 89.7625 21.4028 89.7625 19.2416V13.7928H93.4219H93.5039H97.2234V18.9981C97.2234 23.4728 99.0946 25.7558 105.068 25.7558C105.793 25.7558 106.336 25.7558 107.121 25.695V22.0117C106.366 22.0725 105.733 22.0725 105.039 22.0725C102.414 22.0725 101.327 21.4028 101.327 19.2416V13.7928H105.068V10.2312H101.327V6H97.2234V10.2312H93.5039H93.4219H89.7625V6H85.6588V10.2312H81.8574V13.7928H85.6588V18.9981C85.6588 23.4728 87.5299 25.7558 93.5039 25.7558C94.2283 25.7558 94.7717 25.7558 95.5553 25.695V22.0117ZM114.699 25.9994C110.565 25.9994 107.881 23.412 107.881 18.4502V17.3542C107.881 12.2707 110.656 9.74414 114.79 9.74414H115.092C119.225 9.74414 122.001 12.2707 122.001 17.3542V18.4502C122.001 23.412 119.316 25.9994 115.182 25.9994H114.699ZM114.941 22.4378C116.752 22.4378 117.898 21.4029 117.898 19.1503V16.6542C117.898 14.4929 116.811 13.3057 114.941 13.3057C112.98 13.3057 111.984 14.4929 111.984 16.6542V19.1503C111.984 21.4029 113.07 22.4378 114.941 22.4378ZM71.0668 19.0894V19.3025C71.0668 21.5246 72.1831 22.5596 74.2952 22.5596C76.0754 22.5596 77.0409 21.9508 77.3728 20.9159H81.1142C80.3902 24.0817 78.0065 25.9994 74.4762 25.9994H73.9935C69.7693 25.9994 67.084 23.412 67.084 18.4502V17.3542C67.084 12.2707 69.8599 9.74414 73.9935 9.74414H74.2952C78.4289 9.74414 81.2048 12.3316 81.2048 17.2325V19.0894H71.0668ZM74.1142 13.184C72.1831 13.184 71.1574 14.1885 71.0668 16.3498H77.2219C77.1315 14.1885 76.0151 13.184 74.1142 13.184ZM51.8633 20.6724C52.0443 23.9598 53.915 25.9994 59.3159 25.9994C63.9926 25.9994 66.2858 24.5687 66.2858 21.068C66.2858 17.6891 64.1133 16.9585 59.8288 16.1367C56.6003 15.5279 55.9366 15.3757 55.9366 14.3102C55.9366 13.3666 56.6003 13.0013 58.7727 13.0013C61.1865 13.0013 61.9107 13.4883 62.0313 15.0408H66.1349C66.0142 11.388 63.7211 9.74414 58.8934 9.74414C54.4882 9.74414 52.0141 11.2966 52.0141 14.4624C52.0141 17.9023 54.79 18.6633 58.3202 19.3329C58.6816 19.402 59.0153 19.4624 59.3223 19.5179C61.4503 19.9031 62.3029 20.0574 62.3029 21.2811C62.3029 22.3769 61.6693 22.7423 59.3762 22.7423C56.9925 22.7423 56.0573 22.3465 55.9667 20.6724H51.8633ZM44.2319 25.9994C38.831 25.9994 36.9603 23.9598 36.7793 20.6724H40.8826C40.9732 22.3465 41.9086 22.7423 44.2922 22.7423C46.5853 22.7423 47.2189 22.3769 47.2189 21.2811C47.2189 20.0574 46.3664 19.9031 44.2383 19.5179L44.2381 19.5179L44.2375 19.5178C43.9307 19.4622 43.5973 19.4019 43.2362 19.3329C39.706 18.6633 36.9301 17.9023 36.9301 14.4624C36.9301 11.2966 39.4043 9.74414 43.8094 9.74414C48.637 9.74414 50.9301 11.388 51.0508 15.0408H46.9474C46.8267 13.4883 46.1026 13.0013 43.6887 13.0013C41.5163 13.0013 40.8525 13.3666 40.8525 14.3102C40.8525 15.3757 41.5163 15.5279 44.7448 16.1367C49.0294 16.9585 51.2017 17.6891 51.2017 21.068C51.2017 24.5687 48.9086 25.9994 44.2319 25.9994ZM21.5273 21.3085C21.5273 24.3524 23.1869 25.8746 26.4756 25.8746C29.5231 25.8746 31.1826 24.4438 31.6653 21.4302H31.786L31.605 24.322V25.5701H35.6482V15.2203C35.6482 11.3544 33.6868 9.77148 29.1006 9.77148H28.7989C24.2428 9.77148 22.1912 11.5066 22.1912 15.0985H26.1739C26.1739 13.6374 26.8075 13.0895 28.9498 13.0895C30.9411 13.0895 31.605 13.6679 31.605 15.3421V16.2553H28.4972C23.7601 16.2553 21.5273 17.8686 21.5273 21.3085ZM31.6653 18.9341C31.6653 21.3389 30.6093 22.4347 28.1955 22.4347C26.5662 22.4347 25.6912 22.0389 25.6912 20.7301C25.6912 19.482 26.3549 18.9341 28.4972 18.9341H31.6653ZM4.23438 10.0144V6.07031H11.0262C18.2359 6.07031 20.9875 8.38947 20.9875 13.8009C20.9875 18.1673 19.196 20.5206 14.7165 21.2666V17.0337C14.7725 17.0083 14.8285 16.9834 14.8844 16.9585C15.8687 16.5201 16.823 16.0951 16.823 13.8009C16.823 11.3763 14.962 10.0031 11.5835 10.0031H8.97129V10.0144H4.23438ZM4.23438 25.8763V25.8709V21.5249H0V17.0078H4.23438V12.4902H8.97129H9.03551V17.0078H13.2629V17.0341H13.2684V21.4449L13.2629 21.4454V21.5249H11.7041C11.4826 21.5296 11.2567 21.532 11.0262 21.532H9.03551V25.8709H8.9712V25.8763H4.23438Z" fill="#9593A7"/>
</svg>
