<svg width="30" height="26" viewBox="0 0 30 26" fill="none" xmlns="http://www.w3.org/2000/svg">
<path fill-rule="evenodd" clip-rule="evenodd" d="M12.3584 3.09473H28.1932C28.8585 3.09473 29.3979 3.6341 29.3979 4.29946C29.3979 4.96481 28.8585 5.50419 28.1932 5.50419H12.3539C11.833 7.24196 10.2215 8.50831 8.31422 8.50831C6.40692 8.50831 4.79539 7.24196 4.27457 5.50419H1.68911C1.02375 5.50419 0.484375 4.96481 0.484375 4.29946C0.484375 3.6341 1.02375 3.09473 1.68911 3.09473H4.26998C4.78588 1.34904 6.40129 0.0751953 8.31422 0.0751953C10.2271 0.0751953 11.8426 1.34904 12.3584 3.09473ZM1.68911 19.961C1.02375 19.961 0.484375 20.5004 0.484375 21.1658C0.484375 21.8311 1.02375 22.3705 1.68911 22.3705H7.9926C8.50846 24.1162 10.1239 25.3902 12.0369 25.3902C13.9498 25.3902 15.5653 24.1162 16.0811 22.3705H28.1932C28.8585 22.3705 29.3979 21.8311 29.3979 21.1658C29.3979 20.5004 28.8585 19.961 28.1932 19.961H16.0765C15.5556 18.2233 13.9441 16.957 12.0369 16.957C10.1296 16.957 8.51813 18.2233 7.99726 19.961H1.68911ZM0.484375 12.7321C0.484375 12.0667 1.02375 11.5273 1.68911 11.5273H17.5457C18.0641 9.78567 19.6776 8.51562 21.5877 8.51562C23.4977 8.51562 25.1112 9.78567 25.6296 11.5273H28.1932C28.8585 11.5273 29.3979 12.0667 29.3979 12.7321C29.3979 13.3974 28.8585 13.9368 28.1932 13.9368H25.6296C25.1113 15.6786 23.4978 16.9487 21.5877 16.9487C19.6775 16.9487 18.064 15.6786 17.5457 13.9368H1.68911C1.02375 13.9368 0.484375 13.3974 0.484375 12.7321Z" fill="url(#paint0_linear_6365_4018)"/>
<defs>
<linearGradient id="paint0_linear_6365_4018" x1="20.3881" y1="20.0235" x2="-0.62481" y2="0.821574" gradientUnits="userSpaceOnUse">
<stop offset="0.27" stop-color="#19191E"/>
<stop offset="0.875" stop-color="#49494A" stop-opacity="0.7"/>
</linearGradient>
</defs>
</svg>
