<svg width="24" height="24" viewBox="0 0 24 24" fill="none" xmlns="http://www.w3.org/2000/svg">
<g clip-path="url(#clip0_8_67521)">
<path d="M12 0.611328C13.5918 0.611328 15.1058 0.943078 16.4829 1.53529L15.6548 2.36343C15.4831 2.53514 15.3336 2.72408 15.2031 2.92294C14.1991 2.56726 13.124 2.36343 12 2.36343C6.68675 2.36343 2.36343 6.68675 2.36343 12C2.36343 17.3133 6.68675 21.6366 12 21.6366C17.3133 21.6366 21.6366 17.3133 21.6366 12C21.6366 10.876 21.4327 9.80173 21.0771 8.79865C21.2759 8.66812 21.4649 8.5178 21.6366 8.34522L22.4647 7.51708C23.0569 8.89423 23.3887 10.4082 23.3887 12C23.3887 18.2795 18.2795 23.3887 12 23.3887C5.72046 23.3887 0.611328 18.2795 0.611328 12C0.611328 5.72046 5.72046 0.611328 12 0.611328ZM21.6451 1.47882C21.8194 1.47887 21.9897 1.53089 22.1343 1.62823C22.2788 1.72557 22.3911 1.86381 22.4566 2.02528C22.5222 2.18675 22.5382 2.3641 22.5024 2.53467C22.4667 2.70524 22.3809 2.86128 22.256 2.98283L21.1233 4.11553H21.8864C22.4409 4.11553 22.7186 4.78562 22.3261 5.17809L20.3978 7.10643C20.0693 7.43495 19.6233 7.61974 19.159 7.61974H17.6191L12.6194 12.6194C12.5387 12.7035 12.442 12.7706 12.335 12.8168C12.228 12.8631 12.1129 12.8875 11.9963 12.8887C11.8798 12.8899 11.7641 12.8678 11.6562 12.8238C11.5483 12.7797 11.4503 12.7146 11.3679 12.6321C11.2854 12.5497 11.2203 12.4517 11.1762 12.3438C11.1322 12.2359 11.1101 12.1202 11.1113 12.0037C11.1125 11.8871 11.1369 11.772 11.1832 11.665C11.2294 11.558 11.2965 11.4613 11.3806 11.3806L16.3803 6.38095V4.84101C16.3803 4.37671 16.5651 3.93074 16.8936 3.60222L18.8219 1.67388C19.2144 1.28141 19.8845 1.55908 19.8845 2.11362V2.87674L21.0172 1.74404C21.0988 1.66011 21.1964 1.59341 21.3043 1.54786C21.4122 1.5023 21.528 1.47883 21.6451 1.47882ZM12 4.11553C12.9321 4.11553 13.8233 4.28563 14.6538 4.58436C14.6468 4.67021 14.6282 4.75429 14.6282 4.84101V5.65547L14.055 6.22867C13.4111 5.99914 12.721 5.86764 12 5.86764C8.61932 5.86764 5.86764 8.61844 5.86764 12C5.86764 15.3816 8.61932 18.1324 12 18.1324C15.3807 18.1324 18.1324 15.3816 18.1324 12C18.1324 11.279 18.0017 10.5889 17.7713 9.94504L18.3445 9.37185H19.159C19.2457 9.37185 19.3298 9.35319 19.4156 9.34618C19.7135 10.1767 19.8845 11.0679 19.8845 12C19.8845 16.347 16.3478 19.8845 12 19.8845C7.65216 19.8845 4.11554 16.347 4.11554 12C4.11554 7.65303 7.65216 4.11553 12 4.11553ZM12 7.61974C12.2067 7.61974 12.4034 7.6533 12.6023 7.68134L10.1418 10.1418L10.1435 10.1435C9.66695 10.6192 9.37185 11.2755 9.37185 12C9.37185 13.449 10.551 14.6282 12 14.6282C12.7245 14.6282 13.3808 14.333 13.8565 13.8565L13.8582 13.8582L16.3187 11.3977C16.3467 11.5966 16.3803 11.7933 16.3803 12C16.3803 14.4153 14.4153 16.3803 12 16.3803C9.58473 16.3803 7.61974 14.4153 7.61974 12C7.61974 9.58473 9.58473 7.61974 12 7.61974Z" fill="url(#paint0_linear_8_67521)"/>
</g>
<defs>
<linearGradient id="paint0_linear_8_67521" x1="22.7804" y1="1.21959" x2="0.535377" y2="23.4646" gradientUnits="userSpaceOnUse">
<stop stop-color="white"/>
<stop offset="1" stop-color="white" stop-opacity="0.6"/>
</linearGradient>
<clipPath id="clip0_8_67521">
<rect width="24" height="24" fill="white"/>
</clipPath>
</defs>
</svg>
