<svg width="24" height="24" viewBox="0 0 24 24" fill="none" xmlns="http://www.w3.org/2000/svg">
<g clip-path="url(#clip0_155_26727)">
<path d="M3.00008 0.000106828C1.3551 0.000106828 0.000107293 1.35509 0.000107293 3.00008V5.00006C-0.00789264 5.55206 0.434432 6.00573 0.986427 6.01373C1.53842 6.02173 1.99209 5.5804 2.00009 5.02741V5.00006V3.00008C2.00009 2.43509 2.43509 2.00009 3.00008 2.00009H5.00006C5.55206 2.00809 6.00573 1.56576 6.01373 1.01377C6.02173 0.461775 5.5804 0.00810676 5.02741 0.000106828H5.00006H3.00008ZM18.9999 0.000106828C18.4479 -0.0078931 17.9943 0.434431 17.9863 0.986426C17.9783 1.53842 18.4196 1.99209 18.9726 2.00009H18.9999H20.9999C21.5649 2.00009 21.9999 2.43509 21.9999 3.00008V5.00006C21.9919 5.55206 22.4342 6.00573 22.9862 6.01373C23.5382 6.02173 23.9919 5.5804 23.9999 5.02741V5.00006V3.00008C23.9999 1.35509 22.6449 0.000106828 20.9999 0.000106828H18.9999ZM12.002 4.99616C6.05201 4.99616 2.2029 11.4366 2.1329 11.5566C2.0429 11.6866 1.99228 11.8361 1.99228 11.9961C1.99228 12.1261 2.02189 12.257 2.09189 12.377H2.10165C2.11165 12.4069 5.34201 18.996 12.002 18.996C18.6319 18.996 21.8525 12.4667 21.8925 12.3867C21.9025 12.3867 21.9023 12.377 21.9023 12.377C21.9723 12.257 22.0116 12.1261 22.0116 11.9961C22.0116 11.8361 21.961 11.6866 21.871 11.5566C21.831 11.4966 20.8525 9.85635 19.1425 8.23636C17.4325 6.60638 14.9719 4.99616 12.002 4.99616ZM12.002 7.09575C14.5819 7.09575 16.6718 9.28612 16.6718 11.9961C16.6718 14.6961 14.5819 16.8964 12.002 16.8964C9.42198 16.8964 7.33207 14.6961 7.33207 11.9961C7.33207 9.28612 9.42198 7.09575 12.002 7.09575ZM12 9.91994C10.894 9.91994 9.99807 10.8159 9.99807 11.9219C9.99807 13.0279 10.894 13.9238 12 13.9238C13.106 13.9238 14.0019 13.0279 14.0019 11.9219C14.0019 10.8159 13.106 9.91994 12 9.91994ZM0.984474 17.9863C0.432478 17.9953 -0.00789264 18.4489 0.000107293 18.9999V20.9999C0.000107293 22.6449 1.3551 23.9999 3.00008 23.9999H5.00006C5.55206 24.0079 6.00573 23.5656 6.01373 23.0136C6.02173 22.4616 5.5804 22.0079 5.02741 21.9999H5.00006H3.00008C2.43509 21.9999 2.00009 21.5649 2.00009 20.9999V18.9999C2.00809 18.4479 1.56577 17.9943 1.01377 17.9863H0.984474ZM22.9843 17.9863C22.4333 17.9953 21.9919 18.4489 21.9999 18.9999V20.9999C21.9999 21.5649 21.5649 21.9999 20.9999 21.9999H18.9999C18.4479 21.9919 17.9943 22.4342 17.9863 22.9862C17.9783 23.5382 18.4206 23.9919 18.9726 23.9999H18.9999H20.9999C22.6449 23.9999 23.9999 22.6449 23.9999 20.9999V18.9999C24.0079 18.4479 23.5656 17.9943 23.0136 17.9863H22.9843Z" fill="url(#paint0_linear_155_26727)"/>
</g>
<defs>
<linearGradient id="paint0_linear_155_26727" x1="0.640914" y1="0.640914" x2="24.08" y2="24.08" gradientUnits="userSpaceOnUse">
<stop stop-color="white"/>
<stop offset="1" stop-color="white" stop-opacity="0.6"/>
</linearGradient>
<clipPath id="clip0_155_26727">
<rect width="24" height="24" fill="white"/>
</clipPath>
</defs>
</svg>
