<svg width="24" height="24" viewBox="0 0 24 24" fill="none" xmlns="http://www.w3.org/2000/svg">
<path fill-rule="evenodd" clip-rule="evenodd" d="M16.9317 2.95677C18.5025 4.25817 19.5529 6.08041 19.8916 8.09127C21.1205 8.31365 22.2215 8.98767 22.9781 9.98067C23.7347 10.9737 24.092 12.2138 23.9797 13.4568C23.8675 14.6999 23.2937 15.856 22.3714 16.6975C21.4491 17.5391 20.2451 18.0051 18.9963 18.004H12.9977V22.0008C12.9977 22.2658 12.8923 22.52 12.7048 22.7074C12.5173 22.8948 12.263 23.0001 11.9979 23.0001C11.7327 23.0001 11.4784 22.8948 11.2909 22.7074C11.1034 22.52 10.998 22.2658 10.998 22.0008V18.0038H12.9974V14.5065H15.497C15.593 14.5065 15.687 14.4789 15.7677 14.4269C15.8484 14.375 15.9124 14.3009 15.9521 14.2135C15.9918 14.1261 16.0055 14.0292 15.9915 13.9343C15.9776 13.8393 15.9366 13.7504 15.8734 13.6781L12.3741 9.6811C12.3259 9.62951 12.2676 9.58837 12.2029 9.56025C12.1381 9.53212 12.0682 9.51761 11.9976 9.51761C11.927 9.51761 11.8572 9.53212 11.7924 9.56025C11.7277 9.58837 11.6694 9.62951 11.6212 9.6811L8.12189 13.6781C8.05871 13.7504 8.01769 13.8393 8.00373 13.9343C7.98977 14.0292 8.00346 14.1261 8.04316 14.2135C8.08286 14.3009 8.1469 14.375 8.22761 14.4269C8.30832 14.4789 8.4023 14.5065 8.49831 14.5065H10.9978V18.004H4.99899C3.84565 18.0069 2.72694 17.6102 1.83341 16.8814C0.939876 16.1525 0.326793 15.1366 0.0985858 14.0067C-0.129622 12.8767 0.0411611 11.7027 0.581844 10.6845C1.12253 9.66629 1.99967 8.86691 3.06386 8.42253C3.32306 6.3999 4.30092 4.53773 5.81916 3.17552C7.3374 1.81332 9.29489 1.04181 11.3348 1.00165C13.3746 0.961495 15.361 1.65537 16.9317 2.95677Z" fill="url(#paint0_linear_57_2177)"/>
<defs>
<linearGradient id="paint0_linear_57_2177" x1="0.640914" y1="1.5875" x2="22.0457" y2="24.9382" gradientUnits="userSpaceOnUse">
<stop stop-color="white"/>
<stop offset="1" stop-color="white" stop-opacity="0.6"/>
</linearGradient>
</defs>
</svg>
