<svg width="24" height="24" viewBox="0 0 24 24" fill="none" xmlns="http://www.w3.org/2000/svg">
<path d="M19.3973 0H4.60318C3.58146 0 2.75391 0.826154 2.75391 1.84615V22.1538C2.75391 23.1738 3.58146 24 4.60318 24H19.3973C20.4191 24 21.2466 23.1738 21.2466 22.1538V1.84615C21.2466 0.826154 20.4191 0 19.3973 0ZM6.45245 4.61538H17.5481C18.0585 4.61538 18.4727 5.02892 18.4727 5.53846C18.4727 6.048 18.0585 6.46154 17.5481 6.46154H6.45245C5.94205 6.46154 5.52781 6.048 5.52781 5.53846C5.52781 5.02892 5.94205 4.61538 6.45245 4.61538ZM17.5481 15.2308C17.5231 15.2308 17.5 15.2252 17.476 15.2234L15.2291 17.4665C15.2309 17.4905 15.2365 17.5135 15.2365 17.5385C15.2365 18.3028 14.6151 18.9231 13.8495 18.9231C13.0839 18.9231 12.4626 18.3028 12.4626 17.5385C12.4626 17.5135 12.4681 17.4905 12.47 17.4665L10.2231 15.2234C10.1991 15.2252 10.176 15.2308 10.151 15.2308C10.126 15.2308 10.1029 15.2252 10.0789 15.2234L7.83201 17.4665C7.83385 17.4905 7.8394 17.5135 7.8394 17.5385C7.8394 18.3028 7.21805 18.9231 6.45245 18.9231C5.68685 18.9231 5.0655 18.3028 5.0655 17.5385C5.0655 16.7742 5.68685 16.1538 6.45245 16.1538C6.47741 16.1538 6.50053 16.1594 6.52457 16.1612L8.77144 13.9182C8.76959 13.8942 8.76404 13.8711 8.76404 13.8462C8.76404 13.0818 9.38539 12.4615 10.151 12.4615C10.9166 12.4615 11.5379 13.0818 11.5379 13.8462C11.5379 13.8711 11.5324 13.8942 11.5305 13.9182L13.7774 16.1612C13.8015 16.1594 13.8246 16.1538 13.8495 16.1538C13.8745 16.1538 13.8976 16.1594 13.9217 16.1612L16.1685 13.9182C16.1667 13.8942 16.1611 13.8711 16.1611 13.8462C16.1611 13.0818 16.7825 12.4615 17.5481 12.4615C18.3137 12.4615 18.935 13.0818 18.935 13.8462C18.935 14.6105 18.3137 15.2308 17.5481 15.2308Z" fill="url(#paint0_linear_155_26749)"/>
<defs>
<linearGradient id="paint0_linear_155_26749" x1="3.24775" y1="0.640914" x2="25.9124" y2="18.1047" gradientUnits="userSpaceOnUse">
<stop stop-color="white"/>
<stop offset="1" stop-color="white" stop-opacity="0.6"/>
</linearGradient>
</defs>
</svg>
