<svg width="24" height="24" viewBox="0 0 24 24" fill="none" xmlns="http://www.w3.org/2000/svg">
<g clip-path="url(#clip0_155_26756)">
<path d="M2.66667 0C1.19333 0 0 1.19333 0 2.66667V21.3333C0 22.8067 1.19333 24 2.66667 24H21.3333C22.8067 24 24 22.8067 24 21.3333V2.66667C24 1.19333 22.8067 0 21.3333 0H2.66667ZM2.66667 6.66667H21.3333V21.3333H2.66667V6.66667ZM17.3333 9.33333C16.992 9.33333 16.6506 9.46396 16.3906 9.72396L15.4479 10.6667H14.6667C13.9307 10.6667 13.3333 11.264 13.3333 12C13.3333 12.736 13.9307 13.3333 14.6667 13.3333H16C16.3533 13.3333 16.692 13.1934 16.9427 12.9427L18.276 11.6094C18.796 11.0894 18.796 10.244 18.276 9.72396C18.016 9.46396 17.6747 9.33333 17.3333 9.33333ZM6.66667 10.6667C5.93067 10.6667 5.33333 11.264 5.33333 12C5.33333 12.736 5.93067 13.3333 6.66667 13.3333H9.33333C10.0693 13.3333 10.6667 12.736 10.6667 12C10.6667 11.264 10.0693 10.6667 9.33333 10.6667H6.66667ZM17.3333 14.6667C16.992 14.6667 16.6506 14.7973 16.3906 15.0573L15.4479 16H14.6667C13.9307 16 13.3333 16.5973 13.3333 17.3333C13.3333 18.0693 13.9307 18.6667 14.6667 18.6667H16C16.3533 18.6667 16.692 18.5267 16.9427 18.276L18.276 16.9427C18.796 16.4227 18.796 15.5773 18.276 15.0573C18.016 14.7973 17.6747 14.6667 17.3333 14.6667ZM6.66667 16C5.93067 16 5.33333 16.5973 5.33333 17.3333C5.33333 18.0693 5.93067 18.6667 6.66667 18.6667H9.33333C10.0693 18.6667 10.6667 18.0693 10.6667 17.3333C10.6667 16.5973 10.0693 16 9.33333 16H6.66667Z" fill="url(#paint0_linear_155_26756)"/>
</g>
<defs>
<linearGradient id="paint0_linear_155_26756" x1="0.640914" y1="0.640914" x2="24.08" y2="24.08" gradientUnits="userSpaceOnUse">
<stop stop-color="white"/>
<stop offset="1" stop-color="white" stop-opacity="0.6"/>
</linearGradient>
<clipPath id="clip0_155_26756">
<rect width="24" height="24" fill="white"/>
</clipPath>
</defs>
</svg>
