<svg width="24" height="24" viewBox="0 0 24 24" fill="none" xmlns="http://www.w3.org/2000/svg">
<path fill-rule="evenodd" clip-rule="evenodd" d="M18.8613 0.5H17.278C17.1724 0.499963 17.0693 0.530576 16.9819 0.587885C16.8945 0.645194 16.8268 0.726567 16.7877 0.821491L15.8651 3.05557H14.6549L14.0955 0.886913C14.0669 0.776387 14.001 0.678281 13.9082 0.60818C13.8155 0.538079 13.7012 0.500003 13.5836 0.5H10.4169C10.2991 0.499918 10.1846 0.538015 10.0917 0.608224C9.99887 0.678434 9.93292 0.776718 9.90441 0.887424L9.34549 3.05557H8.1353L7.21274 0.821491C7.17358 0.726567 7.10593 0.645194 7.01853 0.587885C6.93113 0.530576 6.82799 0.499963 6.72244 0.5H5.13911C4.99913 0.5 4.86489 0.55385 4.76591 0.649702C4.66693 0.745554 4.61133 0.875558 4.61133 1.01111V5.10003C4.61133 5.17061 4.62644 5.24044 4.65568 5.30509C4.68493 5.36975 4.72769 5.42783 4.78127 5.47569L7.79172 8.16671H16.2087L19.2171 5.47569C19.271 5.42802 19.3142 5.37001 19.3438 5.30534C19.3734 5.24068 19.3888 5.17076 19.3891 5.10003V1.01111C19.3891 0.875558 19.3335 0.745554 19.2345 0.649702C19.1355 0.55385 19.0013 0.5 18.8613 0.5ZM7.77864 9.18945L5.25586 18.3895H18.7459L16.2231 9.18945H7.77864ZM3.02778 23.5002H20.9722C21.1122 23.5002 21.2464 23.4463 21.3454 23.3505C21.4444 23.2546 21.5 23.1246 21.5 22.9891V20.9446C21.5 20.538 21.3332 20.1479 21.0363 19.8604C20.7393 19.5728 20.3366 19.4113 19.9167 19.4113H4.08333C3.66341 19.4113 3.26068 19.5728 2.96375 19.8604C2.66682 20.1479 2.5 20.538 2.5 20.9446V22.9891C2.5 23.1246 2.55561 23.2546 2.65458 23.3505C2.75356 23.4463 2.8878 23.5002 3.02778 23.5002Z" fill="url(#paint0_linear_57_3426)"/>
<defs>
<linearGradient id="paint0_linear_57_3426" x1="3.00739" y1="1.11421" x2="25.0661" y2="19.3366" gradientUnits="userSpaceOnUse">
<stop stop-color="white"/>
<stop offset="1" stop-color="white" stop-opacity="0.6"/>
</linearGradient>
</defs>
</svg>
