<svg width="24" height="24" viewBox="0 0 24 24" fill="none" xmlns="http://www.w3.org/2000/svg">
<g clip-path="url(#clip0_3991_10720)">
<path d="M9.87449 21.5439C9.55747 21.1353 9.09519 21.0309 8.67994 21.2644C8.67402 21.2677 8.6673 21.2695 8.66052 21.2695C8.65891 21.2695 8.65743 21.2695 8.65605 21.2695C8.63711 21.2695 8.62175 21.2542 8.62175 21.2352V21.2352C8.64632 20.412 8.17961 19.6916 7.59009 19.623C7.47973 19.623 7.36937 19.6422 7.25901 19.6807C7.18376 19.7069 7.08476 19.7612 7.03913 19.6959C7.01369 19.6595 7.01746 19.6029 7.02168 19.5735C7.02353 19.5607 7.02692 19.5481 7.0303 19.5356C7.24229 18.7518 6.99609 17.9051 6.43561 17.5648C6.17458 17.4129 5.87503 17.4224 5.60519 17.5695C5.53474 17.6079 5.41376 17.6388 5.40371 17.5592V17.5592C5.39639 17.5012 5.4158 17.469 5.43535 17.4139C5.68527 16.7092 5.50821 15.8684 5.0355 15.4723C4.54423 15.095 3.95471 15.2665 3.61082 15.884L2.7511 17.359C2.39025 17.9973 2.45349 18.9317 2.87158 19.4534C2.88401 19.4689 2.91148 19.5039 2.92305 19.5201V19.5201L3.04586 19.6573C3.38294 20.0271 3.86162 20.0674 4.22744 19.7781C4.24219 19.7665 4.25377 19.7446 4.27252 19.746C4.27358 19.7461 4.27463 19.7463 4.27569 19.7465C4.3191 19.7569 4.32316 19.8185 4.32316 19.8631V19.8631C4.24947 20.412 4.39685 20.9951 4.71617 21.3381L4.81443 21.441C5.14859 21.8077 5.57553 21.8505 5.96001 21.6323C5.98229 21.6196 6.00393 21.5893 6.02643 21.6016C6.03312 21.6052 6.0398 21.6116 6.04648 21.6195C6.06093 21.6365 6.06716 21.6588 6.06716 21.6812V21.6812C6.01803 22.1957 6.16541 22.7102 6.46017 23.0533L6.53386 23.1219C6.85112 23.47 7.252 23.5261 7.62078 23.3442C7.68303 23.3135 7.7866 23.2583 7.7866 23.3277V23.3277V23.362C7.83573 23.7393 7.98311 24.0824 8.20418 24.3225L8.2533 24.3911C8.72874 24.889 9.38821 24.8087 9.76419 24.1812C9.78956 24.1388 9.8064 24.0941 9.82961 24.0506V24.0506C9.86843 23.9777 9.91425 23.9062 9.94429 23.8293L10.0464 23.5678C10.3412 22.8818 10.2675 22.0585 9.87449 21.5439ZM19.7735 17.8049C19.7244 17.702 19.6753 17.5991 19.6262 17.5305L18.8401 16.1927L12.5028 5.42159C12.4291 5.31869 12.3308 5.28438 12.2326 5.35299L9.18671 7.71989C8.20418 8.47455 7.0497 8.61176 5.99347 8.06292C5.42851 7.78849 4.96181 7.13674 4.74074 6.34777C4.56879 5.5245 4.64248 4.66693 4.93724 3.91227C5.01093 3.70645 4.96181 3.46633 4.83899 3.36342V3.36342C4.75192 3.30263 4.63466 3.29482 4.52847 3.29482H0.589522C0.270197 3.29482 0 3.67215 0 4.11809V15.5409C5.05263e-08 15.9869 0.270197 16.3299 0.589522 16.3299H1.26915C1.62414 16.3299 1.95252 16.1417 2.13197 15.8354L2.72654 14.8206C3.51257 13.4828 4.93724 13.3113 5.89522 14.4089C6.13423 14.6951 6.33765 15.0474 6.48073 15.4431C6.59997 15.7728 6.84609 16.0459 7.12535 16.2579C7.53099 16.5658 7.85535 17.0485 8.0496 17.6376C8.15287 17.9508 8.3693 18.2165 8.63169 18.4163C8.86315 18.5926 9.07324 18.8208 9.24464 19.1009C9.42139 19.3898 9.69126 19.6176 9.98534 19.7855C10.2617 19.9433 10.5175 20.1779 10.7342 20.4806C11.4465 21.5096 11.5939 23.1219 11.0535 24.3568V24.3568C10.9788 24.5447 11.0157 24.7699 11.191 24.8706C11.7233 25.1764 12.367 24.928 12.7238 24.2539C12.9199 23.8432 12.9937 23.3642 12.9452 22.8851C12.945 22.8829 12.9449 22.8807 12.9449 22.8784C12.9449 22.8709 12.9449 22.8513 12.9449 22.8294C12.9449 22.8204 12.9522 22.8132 12.9611 22.8132V22.8132C12.9664 22.8132 12.9713 22.8157 12.9743 22.8199L13.0677 22.9504C13.5099 23.5678 14.1976 23.6707 14.738 23.1905C15.1552 22.7793 15.3517 22.0601 15.2542 21.3747C15.254 21.3732 15.2539 21.3717 15.2539 21.3702V21.3544C15.2539 21.3454 15.2611 21.3381 15.2701 21.3381V21.3381C15.2753 21.3381 15.2802 21.3407 15.2833 21.3449L15.3767 21.4753C15.8188 22.0928 16.5066 22.1957 17.047 21.7155C17.4646 21.3038 17.6611 20.5835 17.5874 19.8974C17.5874 19.8696 17.5874 19.8643 17.5874 19.845C17.5874 19.8361 17.5947 19.8288 17.6036 19.8288V19.8288C17.6089 19.8288 17.6138 19.8313 17.6168 19.8356L17.7102 19.966C18.1278 20.5492 18.7664 20.6521 19.2823 20.2404C19.9455 19.7945 20.142 18.6625 19.7735 17.8049ZM23.4335 3.29482H22.3281C21.8614 3.29482 21.3947 3.19191 20.9771 2.95179L14.2959 -0.615712C12.9449 -1.33607 11.422 -1.02735 10.2921 0.173254L6.09172 4.63263C6.01803 4.73554 5.94434 4.87275 5.89522 5.00996C5.72327 5.55881 5.89522 6.21056 6.31279 6.48498C7.07426 6.93092 7.93398 6.89662 8.64632 6.31347L12.208 3.50063C12.4782 3.29482 12.8221 3.39772 13.0186 3.70645L20.8052 16.9131C20.8789 17.016 21.0017 17.0503 21.0754 16.9474L21.3947 16.57C21.5667 16.3985 21.7632 16.2956 21.9597 16.2956H23.4089C23.7282 16.2956 23.9739 15.9526 23.9984 15.5066V4.11809C24.023 3.67215 23.7528 3.29482 23.4335 3.29482Z" fill="url(#paint0_linear_3991_10720)"/>
</g>
<defs>
<linearGradient id="paint0_linear_3991_10720" x1="16.5213" y1="22.1933" x2="-6.30052" y2="7.71479" gradientUnits="userSpaceOnUse">
<stop offset="0.27" stop-color="#19191E"/>
<stop offset="0.875" stop-color="#49494A" stop-opacity="0.7"/>
</linearGradient>
<clipPath id="clip0_3991_10720">
<rect width="24" height="24" fill="white"/>
</clipPath>
</defs>
</svg>
