<svg width="24" height="24" viewBox="0 0 24 24" fill="none" xmlns="http://www.w3.org/2000/svg">
<g clip-path="url(#clip0_327_35219)">
<path d="M3.47366 2L5.16617 3.6925L1.85927 6.97336L3.4997 8.61379L6.78056 5.30689L8.4991 7.02544V2H3.47366ZM17.1653 2C16.7063 2 16.332 2.3743 16.332 2.83323V21.1644C16.332 21.6233 16.7063 21.9976 17.1653 21.9976H21.8308C22.2898 21.9976 22.6641 21.6233 22.6641 21.1644V2.83323C22.6641 2.3743 22.2898 2 21.8308 2H17.1653ZM9.33233 8.66587C8.8734 8.66587 8.4991 9.04017 8.4991 9.4991V21.1644C8.4991 21.6233 8.8734 21.9976 9.33233 21.9976H14.3317C14.7907 21.9976 15.165 21.6233 15.165 21.1644V9.4991C15.165 9.04017 14.7907 8.66587 14.3317 8.66587H9.33233ZM1.83323 12.832C1.3743 12.832 1 13.2063 1 13.6653V21.1644C1 21.6233 1.3743 21.9976 1.83323 21.9976H6.4988C6.95773 21.9976 7.33203 21.6233 7.33203 21.1644V13.6653C7.33203 13.2063 6.95773 12.832 6.4988 12.832H1.83323Z" fill="url(#paint0_linear_327_35219)"/>
</g>
<defs>
<linearGradient id="paint0_linear_327_35219" x1="15.9133" y1="19.8388" x2="-2.67435" y2="5.99933" gradientUnits="userSpaceOnUse">
<stop offset="0.27" stop-color="#19191E"/>
<stop offset="0.875" stop-color="#49494A" stop-opacity="0.7"/>
</linearGradient>
<clipPath id="clip0_327_35219">
<rect width="24" height="24" fill="white"/>
</clipPath>
</defs>
</svg>
