<svg width="24" height="24" viewBox="0 0 24 24" fill="none" xmlns="http://www.w3.org/2000/svg">
<path fill-rule="evenodd" clip-rule="evenodd" d="M18.5011 1.125H17.0011C16.9012 1.12496 16.8034 1.15391 16.7206 1.20811C16.6378 1.2623 16.5737 1.33925 16.5366 1.42901L15.6626 3.54162H14.5161L13.9861 1.49088C13.9591 1.38636 13.8966 1.29359 13.8088 1.2273C13.7209 1.16101 13.6126 1.125 13.5011 1.125H10.5011C10.3895 1.12492 10.2811 1.16095 10.1931 1.22734C10.1051 1.29373 10.0427 1.38667 10.0156 1.49136L9.48615 3.54162H8.33965L7.46565 1.42901C7.42855 1.33925 7.36446 1.2623 7.28166 1.20811C7.19885 1.15391 7.10114 1.12496 7.00115 1.125H5.50115C5.36854 1.125 5.24136 1.17592 5.14759 1.26656C5.05383 1.3572 5.00115 1.48014 5.00115 1.60832V5.47492C5.00115 5.54167 5.01546 5.6077 5.04317 5.66884C5.07088 5.72998 5.11139 5.78491 5.16215 5.83016L8.01415 8.37486H15.9881L18.8381 5.83016C18.8893 5.78508 18.9302 5.73022 18.9582 5.66907C18.9863 5.60793 19.0009 5.54181 19.0011 5.47492V1.60832C19.0011 1.48014 18.9485 1.3572 18.8547 1.26656C18.7609 1.17592 18.6338 1.125 18.5011 1.125ZM8.00328 9.34131L5.61328 18.0411H18.3933L16.0033 9.34131H8.00328ZM3.5 22.8744H20.5C20.6326 22.8744 20.7598 22.8235 20.8536 22.7328C20.9473 22.6422 21 22.5193 21 22.3911V20.4578C21 20.0732 20.842 19.7044 20.5607 19.4325C20.2794 19.1606 19.8978 19.0078 19.5 19.0078H4.5C4.10218 19.0078 3.72064 19.1606 3.43934 19.4325C3.15804 19.7044 3 20.0732 3 20.4578V22.3911C3 22.5193 3.05268 22.6422 3.14645 22.7328C3.24021 22.8235 3.36739 22.8744 3.5 22.8744Z" fill="url(#paint0_linear_3991_10593)"/>
<defs>
<linearGradient id="paint0_linear_3991_10593" x1="15.391" y1="20.5265" x2="-2.74636" y2="10.21" gradientUnits="userSpaceOnUse">
<stop offset="0.27" stop-color="#19191E"/>
<stop offset="0.875" stop-color="#49494A" stop-opacity="0.7"/>
</linearGradient>
</defs>
</svg>
