<svg width="24" height="24" viewBox="0 0 24 24" fill="none" xmlns="http://www.w3.org/2000/svg">
<g clip-path="url(#clip0_258_23282)">
<path fill-rule="evenodd" clip-rule="evenodd" d="M10.3583 0.5C10.3583 0.223857 10.5822 0 10.8583 0H13.131C13.4072 0 13.631 0.223858 13.631 0.5V1.75947C18.047 2.45967 21.5349 5.94764 22.235 10.3636H23.5C23.7761 10.3636 24 10.5875 24 10.8636V13.1364C24 13.4125 23.7761 13.6364 23.5 13.6364H22.235C21.5349 18.0524 18.047 21.5403 13.631 22.2405V23.5012C13.631 23.7773 13.4072 24.0012 13.131 24.0012H10.8583C10.5822 24.0012 10.3583 23.7773 10.3583 23.5012V22.2406C5.94209 21.5406 2.45395 18.0525 1.75383 13.6364H0.5C0.223857 13.6364 0 13.4125 0 13.1364V10.8636C0 10.5875 0.223858 10.3636 0.5 10.3636H1.75383C2.45395 5.94746 5.94209 2.45939 10.3583 1.75938V0.5ZM19.6308 12C19.6308 16.2174 16.2119 19.6364 11.9944 19.6364C7.77696 19.6364 4.35804 16.2174 4.35804 12C4.35804 7.78255 7.77696 4.36364 11.9944 4.36364C16.2119 4.36364 19.6308 7.78255 19.6308 12ZM12.0015 15.0015C13.6592 15.0015 15.003 13.6577 15.003 12C15.003 10.3423 13.6592 8.99852 12.0015 8.99852C10.3438 8.99852 9 10.3423 9 12C9 13.6577 10.3438 15.0015 12.0015 15.0015Z" fill="url(#paint0_linear_258_23282)"/>
</g>
<defs>
<linearGradient id="paint0_linear_258_23282" x1="0.640914" y1="0.640946" x2="24.0812" y2="24.0801" gradientUnits="userSpaceOnUse">
<stop stop-color="white"/>
<stop offset="1" stop-color="white" stop-opacity="0.6"/>
</linearGradient>
<clipPath id="clip0_258_23282">
<rect width="24" height="24" fill="white"/>
</clipPath>
</defs>
</svg>
