<svg width="24" height="24" viewBox="0 0 24 24" fill="none" xmlns="http://www.w3.org/2000/svg">
<g clip-path="url(#clip0_155_26364)">
<path fill-rule="evenodd" clip-rule="evenodd" d="M5.25 0H18.75C19.1642 0 19.5 0.335786 19.5 0.749999V3.74999C19.5 4.16421 19.1642 4.49999 18.75 4.49999H5.25C4.83578 4.49999 4.5 4.16421 4.5 3.74999V0.749999C4.5 0.335786 4.83578 0 5.25 0ZM15.7492 5.99999V13.224L20.5957 18.951C20.9441 19.3436 21.1883 19.8175 21.3057 20.3291C21.4231 20.8408 21.4101 21.3737 21.2677 21.879C21.0821 22.4946 20.7023 23.0338 20.1852 23.416C19.6681 23.7983 19.0413 24.0031 18.3982 24H5.60024C4.9572 24.0031 4.33037 23.7983 3.81324 23.416C3.29612 23.0338 2.91641 22.4946 2.73075 21.879C2.58819 21.3736 2.57517 20.8405 2.69287 20.3288C2.81058 19.8171 3.05522 19.3433 3.40425 18.951L8.24924 13.224V5.99999H15.7492Z" fill="url(#paint0_linear_155_26364)"/>
</g>
<defs>
<linearGradient id="paint0_linear_155_26364" x1="3.11458" y1="0.640914" x2="25.8636" y2="18.4342" gradientUnits="userSpaceOnUse">
<stop stop-color="white"/>
<stop offset="1" stop-color="white" stop-opacity="0.6"/>
</linearGradient>
<clipPath id="clip0_155_26364">
<rect width="24" height="24" fill="white"/>
</clipPath>
</defs>
</svg>
