<svg width="24" height="24" viewBox="0 0 24 24" fill="none" xmlns="http://www.w3.org/2000/svg">
<path d="M11.4758 19.0083C11.7973 18.8104 12.2027 18.8104 12.5242 19.0083L17.3853 22.0001C18.1404 22.4649 19.082 21.7898 18.8842 20.9255L17.5805 15.2266C17.4988 14.8697 17.6188 14.4966 17.8932 14.2542L22.2515 10.4041C22.9104 9.82205 22.5515 8.73416 21.6756 8.65838L15.9764 8.16532C15.605 8.13318 15.2823 7.8971 15.1392 7.55283L12.9234 2.22174C12.5819 1.40014 11.4181 1.40014 11.0766 2.22174L8.86083 7.55284C8.71775 7.8971 8.39503 8.13318 8.02361 8.16532L2.32438 8.65838C1.4485 8.73416 1.08963 9.82205 1.74851 10.4041L6.10676 14.2542C6.3812 14.4966 6.50118 14.8697 6.41951 15.2266L5.11578 20.9255C4.91804 21.7898 5.85963 22.4649 6.61475 22.0001L11.4758 19.0083Z" fill="url(#paint0_linear_3991_10582)"/>
<defs>
<linearGradient id="paint0_linear_3991_10582" x1="16.5213" y1="20.7401" x2="-4.76966" y2="5.63522" gradientUnits="userSpaceOnUse">
<stop offset="0.27" stop-color="#19191E"/>
<stop offset="0.875" stop-color="#49494A" stop-opacity="0.7"/>
</linearGradient>
</defs>
</svg>
