<svg width="24" height="24" viewBox="0 0 24 24" fill="none" xmlns="http://www.w3.org/2000/svg">
<path d="M12 2C9.72421 2.00018 7.49538 2.64741 5.5735 3.86618C3.65163 5.08495 2.11594 6.82502 1.14558 8.88341C0.175225 10.9418 -0.189803 13.2336 0.0930792 15.4916C0.375962 17.7496 1.29509 19.8806 2.74326 21.636C2.83712 21.7499 2.95502 21.8416 3.0885 21.9045C3.22198 21.9674 3.36774 22 3.51532 22H20.4847C20.6323 22 20.778 21.9674 20.9115 21.9045C21.045 21.8416 21.1629 21.7499 21.2567 21.636C22.7049 19.8806 23.624 17.7496 23.9069 15.4916C24.1898 13.2336 23.8248 10.9418 22.8544 8.88341C21.8841 6.82502 20.3484 5.08495 18.4265 3.86618C16.5046 2.64741 14.2758 2.00018 12 2ZM13.4141 17.414C13.039 17.7889 12.5304 17.9996 12 17.9996C11.4696 17.9996 10.961 17.7889 10.5859 17.414C10.1859 17.014 6.36955 12.106 5.20946 10.614C5.06501 10.4214 4.99489 10.1832 5.01195 9.94311C5.02902 9.703 5.13213 9.4771 5.30236 9.30689C5.47258 9.13668 5.6985 9.03358 5.93862 9.01652C6.17875 8.99945 6.41698 9.06957 6.60957 9.214C8.10369 10.374 13.0101 14.186 13.4101 14.59C13.7844 14.9644 13.995 15.4718 13.9957 16.0012C13.9965 16.5305 13.7873 17.0386 13.4141 17.414Z" fill="url(#paint0_linear_256_2652)"/>
<defs>
<linearGradient id="paint0_linear_256_2652" x1="0.640914" y1="2.53409" x2="19.8533" y2="25.589" gradientUnits="userSpaceOnUse">
<stop stop-color="white"/>
<stop offset="1" stop-color="white" stop-opacity="0.6"/>
</linearGradient>
</defs>
</svg>
