<svg width="24" height="24" viewBox="0 0 24 24" fill="none" xmlns="http://www.w3.org/2000/svg">
<path d="M12 1C5.95 1 1 5.95 1 12C1 18.05 5.95 23 12 23C18.05 23 23 18.05 23 12C23 5.95 18.05 1 12 1ZM12 14.75C10.4875 14.75 9.25 13.5125 9.25 12C9.25 10.4875 10.4875 9.25 12 9.25C13.5125 9.25 14.75 10.4875 14.75 12C14.75 13.5125 13.5125 14.75 12 14.75ZM12 3.75C13.2375 3.75 14.475 4.025 15.575 4.575L13.4355 6.7145C12.3891 6.42988 11.6109 6.42988 10.5631 6.7145L8.425 4.575C9.525 4.025 10.7625 3.75 12 3.75ZM3.75 12C3.75 10.7625 4.025 9.525 4.575 8.425L6.7145 10.5645C6.42988 11.6109 6.42988 12.3891 6.7145 13.4369L4.575 15.575C4.025 14.475 3.75 13.2375 3.75 12ZM12 20.25C10.7625 20.25 9.525 19.975 8.425 19.425L10.5645 17.2855C11.6109 17.5701 12.3891 17.5701 13.4369 17.2855L15.575 19.425C14.475 19.975 13.2375 20.25 12 20.25ZM19.425 15.575L17.2855 13.4355C17.5701 12.3891 17.5701 11.6109 17.2855 10.5631L19.425 8.425C19.975 9.525 20.25 10.7625 20.25 12C20.25 13.2375 19.975 14.475 19.425 15.575Z" fill="url(#paint0_linear_57_3372)"/>
<defs>
<linearGradient id="paint0_linear_57_3372" x1="1.5875" y1="1.5875" x2="23.0734" y2="23.0734" gradientUnits="userSpaceOnUse">
<stop stop-color="white"/>
<stop offset="1" stop-color="white" stop-opacity="0.6"/>
</linearGradient>
</defs>
</svg>
