<svg width="24" height="25" viewBox="0 0 24 25" fill="none" xmlns="http://www.w3.org/2000/svg">
<g id="BoundingBox">
<path id="Vector" d="M12 1.5C7.81636 1.5 3.46484 2.45068 3.46484 2.45068L3.46129 2.45426C3.04953 2.53738 2.67899 2.76165 2.41261 3.089C2.14623 3.41634 2.00044 3.82657 2 4.25V9.75C2 19.2815 11.1104 23.2655 11.1104 23.2655C11.3821 23.4192 11.6884 23.5 12 23.5C12.3103 23.4993 12.6154 23.4186 12.886 23.2655H12.8896C12.8896 23.2655 22 19.2815 22 9.75V4.25C22.0002 3.82545 21.8543 3.41398 21.5871 3.08583C21.32 2.75768 20.9482 2.53319 20.5352 2.45068C20.5352 2.45068 16.1836 1.5 12 1.5ZM12 7.91667C13.5064 7.91667 14.7273 9.14775 14.7273 10.6667C14.7273 11.862 13.9664 12.8698 12.9091 13.2484V16.1667C12.9091 16.6727 12.5018 17.0833 12 17.0833C11.4982 17.0833 11.0909 16.6727 11.0909 16.1667V13.2484C10.0336 12.8698 9.27273 11.862 9.27273 10.6667C9.27273 9.14775 10.4936 7.91667 12 7.91667Z" fill="url(#paint0_linear_3976_6370)"/>
</g>
<defs>
<linearGradient id="paint0_linear_3976_6370" x1="15.7678" y1="21.1251" x2="-3.416" y2="9.13904" gradientUnits="userSpaceOnUse">
<stop offset="0.27" stop-color="#19191E"/>
<stop offset="0.875" stop-color="#49494A" stop-opacity="0.7"/>
</linearGradient>
</defs>
</svg>
