<svg width="24" height="24" viewBox="0 0 24 24" fill="none" xmlns="http://www.w3.org/2000/svg">
<g clip-path="url(#clip0_3991_10812)">
<path fill-rule="evenodd" clip-rule="evenodd" d="M13.4171 6.36265H29.2518C29.9171 6.36265 30.4565 6.90202 30.4565 7.56738C30.4565 8.23273 29.9171 8.77211 29.2518 8.77211H13.4124C12.8914 10.5097 11.28 11.7759 9.37281 11.7759C7.46564 11.7759 5.8542 10.5097 5.33327 8.77211H2.7477C2.08234 8.77211 1.54297 8.23273 1.54297 7.56738C1.54297 6.90202 2.08235 6.36265 2.7477 6.36265H5.32848C5.84426 4.61678 7.45976 3.34277 9.37281 3.34277C11.2859 3.34277 12.9014 4.61678 13.4171 6.36265ZM2.7477 23.2286C2.08235 23.2286 1.54297 23.768 1.54297 24.4333C1.54297 25.0987 2.08234 25.6381 2.7477 25.6381H9.05134C9.56735 27.3836 11.1827 28.6572 13.0955 28.6572C15.0083 28.6572 16.6236 27.3836 17.1396 25.6381H29.2518C29.9171 25.6381 30.4565 25.0987 30.4565 24.4333C30.4565 23.768 29.9171 23.2286 29.2518 23.2286H17.1352C16.6145 21.4906 15.0029 20.2241 13.0955 20.2241C11.188 20.2241 9.57642 21.4906 9.05571 23.2286H2.7477ZM1.54297 15.9994C1.54297 15.334 2.08235 14.7947 2.7477 14.7947H18.6043C19.1226 13.0529 20.7361 11.7827 22.6462 11.7827C24.5564 11.7827 26.1699 13.0529 26.6882 14.7947H29.2518C29.9171 14.7947 30.4565 15.334 30.4565 15.9994C30.4565 16.6647 29.9171 17.2041 29.2518 17.2041H26.6882C26.1698 18.9458 24.5563 20.2158 22.6462 20.2158C20.7362 20.2158 19.1227 18.9458 18.6043 17.2041H2.7477C2.08234 17.2041 1.54297 16.6647 1.54297 15.9994Z" fill="url(#paint0_linear_3991_10812)"/>
</g>
<defs>
<linearGradient id="paint0_linear_3991_10812" x1="21.4467" y1="23.2907" x2="0.434162" y2="4.08872" gradientUnits="userSpaceOnUse">
<stop offset="0.27" stop-color="#19191E"/>
<stop offset="0.875" stop-color="#49494A" stop-opacity="0.7"/>
</linearGradient>
<clipPath id="clip0_3991_10812">
<rect width="24" height="24" fill="white"/>
</clipPath>
</defs>
</svg>
