<svg width="200" height="164" viewBox="0 0 200 164" fill="none" xmlns="http://www.w3.org/2000/svg">
<path opacity="0.6" d="M65.5152 149V138.92H69.4072C69.9718 138.92 70.4642 139.037 70.8842 139.27C71.3042 139.503 71.6308 139.818 71.8642 140.215C72.0975 140.607 72.2142 141.041 72.2142 141.517C72.2142 142.058 72.0695 142.541 71.7802 142.966C71.4908 143.386 71.1035 143.678 70.6182 143.841L70.6042 143.498C71.2575 143.685 71.7708 144.011 72.1442 144.478C72.5175 144.945 72.7042 145.509 72.7042 146.172C72.7042 146.755 72.5805 147.259 72.3332 147.684C72.0858 148.104 71.7382 148.428 71.2902 148.657C70.8422 148.886 70.3218 149 69.7292 149H65.5152ZM66.5512 148.013H69.4772C69.8878 148.013 70.2565 147.941 70.5832 147.796C70.9098 147.647 71.1665 147.437 71.3532 147.166C71.5445 146.895 71.6402 146.569 71.6402 146.186C71.6402 145.813 71.5538 145.477 71.3812 145.178C71.2085 144.879 70.9728 144.641 70.6742 144.464C70.3802 144.282 70.0442 144.191 69.6662 144.191H66.5512V148.013ZM66.5512 143.218H69.4002C69.7222 143.218 70.0162 143.146 70.2822 143.001C70.5482 142.852 70.7582 142.649 70.9122 142.392C71.0708 142.135 71.1502 141.839 71.1502 141.503C71.1502 141.027 70.9845 140.64 70.6532 140.341C70.3265 140.042 69.9088 139.893 69.4002 139.893H66.5512V143.218ZM76.9921 149.189C76.5394 149.189 76.1428 149.119 75.8021 148.979C75.4661 148.839 75.1791 148.65 74.9411 148.412C74.7078 148.174 74.5188 147.903 74.3741 147.6C74.2294 147.292 74.1244 146.968 74.0591 146.627C73.9938 146.282 73.9611 145.939 73.9611 145.598V141.44H74.9971V145.297C74.9971 145.712 75.0368 146.097 75.1161 146.452C75.1954 146.807 75.3214 147.117 75.4941 147.383C75.6714 147.644 75.8978 147.847 76.1731 147.992C76.4531 148.137 76.7914 148.209 77.1881 148.209C77.5521 148.209 77.8718 148.146 78.1471 148.02C78.4271 147.894 78.6604 147.714 78.8471 147.481C79.0384 147.243 79.1831 146.956 79.2811 146.62C79.3791 146.279 79.4281 145.897 79.4281 145.472L80.1561 145.633C80.1561 146.408 80.0208 147.059 79.7501 147.586C79.4794 148.113 79.1061 148.512 78.6301 148.783C78.1541 149.054 77.6081 149.189 76.9921 149.189ZM79.5331 149V147.138H79.4281V141.44H80.4571V149H79.5331ZM86.5296 149C86.1049 149.089 85.6849 149.124 85.2696 149.105C84.8589 149.086 84.4903 148.998 84.1636 148.839C83.8416 148.68 83.5966 148.433 83.4286 148.097C83.2933 147.817 83.2186 147.535 83.2046 147.25C83.1953 146.961 83.1906 146.632 83.1906 146.263V139.34H84.2126V146.221C84.2126 146.538 84.2149 146.804 84.2196 147.019C84.2289 147.229 84.2779 147.416 84.3666 147.579C84.5346 147.892 84.8006 148.078 85.1646 148.139C85.5333 148.2 85.9883 148.186 86.5296 148.097V149ZM81.5736 142.322V141.44H86.5296V142.322H81.5736ZM91.2966 149C90.8719 149.089 90.4519 149.124 90.0366 149.105C89.6259 149.086 89.2573 148.998 88.9306 148.839C88.6086 148.68 88.3636 148.433 88.1956 148.097C88.0603 147.817 87.9856 147.535 87.9716 147.25C87.9623 146.961 87.9576 146.632 87.9576 146.263V139.34H88.9796V146.221C88.9796 146.538 88.9819 146.804 88.9866 147.019C88.9959 147.229 89.0449 147.416 89.1336 147.579C89.3016 147.892 89.5676 148.078 89.9316 148.139C90.3003 148.2 90.7553 148.186 91.2966 148.097V149ZM86.3406 142.322V141.44H91.2966V142.322H86.3406ZM95.9895 149.21C95.2522 149.21 94.6129 149.047 94.0715 148.72C93.5349 148.393 93.1172 147.934 92.8185 147.341C92.5199 146.748 92.3705 146.053 92.3705 145.255C92.3705 144.429 92.5175 143.715 92.8115 143.113C93.1055 142.511 93.5185 142.047 94.0505 141.72C94.5872 141.393 95.2195 141.23 95.9475 141.23C96.6942 141.23 97.3312 141.403 97.8585 141.748C98.3859 142.089 98.7849 142.579 99.0555 143.218C99.3262 143.857 99.4499 144.62 99.4265 145.507H98.3765V145.143C98.3579 144.163 98.1455 143.423 97.7395 142.924C97.3382 142.425 96.7502 142.175 95.9755 142.175C95.1635 142.175 94.5405 142.439 94.1065 142.966C93.6772 143.493 93.4625 144.245 93.4625 145.22C93.4625 146.172 93.6772 146.912 94.1065 147.439C94.5405 147.962 95.1542 148.223 95.9475 148.223C96.4889 148.223 96.9602 148.099 97.3615 147.852C97.7675 147.6 98.0872 147.238 98.3205 146.767L99.2795 147.138C98.9809 147.796 98.5399 148.307 97.9565 148.671C97.3779 149.03 96.7222 149.21 95.9895 149.21ZM93.0985 145.507V144.646H98.8735V145.507H93.0985ZM100.98 149V141.44H101.904V143.26L101.722 143.022C101.806 142.798 101.916 142.593 102.051 142.406C102.186 142.215 102.333 142.058 102.492 141.937C102.688 141.764 102.917 141.634 103.178 141.545C103.439 141.452 103.703 141.398 103.969 141.384C104.235 141.365 104.478 141.384 104.697 141.44V142.406C104.422 142.336 104.121 142.32 103.794 142.357C103.467 142.394 103.166 142.525 102.891 142.749C102.639 142.945 102.45 143.181 102.324 143.456C102.198 143.727 102.114 144.016 102.072 144.324C102.03 144.627 102.009 144.928 102.009 145.227V149H100.98ZM110.106 149.21C109.103 149.21 108.256 148.988 107.565 148.545C106.874 148.097 106.352 147.479 105.997 146.69C105.642 145.901 105.465 144.991 105.465 143.96C105.465 142.929 105.642 142.019 105.997 141.23C106.352 140.441 106.874 139.825 107.565 139.382C108.256 138.934 109.103 138.71 110.106 138.71C111.277 138.71 112.234 139.011 112.976 139.613C113.718 140.21 114.227 141.013 114.502 142.021L113.452 142.294C113.237 141.496 112.852 140.864 112.297 140.397C111.742 139.93 111.011 139.697 110.106 139.697C109.317 139.697 108.662 139.877 108.139 140.236C107.616 140.595 107.222 141.097 106.956 141.741C106.695 142.38 106.559 143.12 106.55 143.96C106.545 144.8 106.674 145.54 106.935 146.179C107.201 146.818 107.598 147.32 108.125 147.684C108.657 148.043 109.317 148.223 110.106 148.223C111.011 148.223 111.742 147.99 112.297 147.523C112.852 147.052 113.237 146.419 113.452 145.626L114.502 145.899C114.227 146.907 113.718 147.712 112.976 148.314C112.234 148.911 111.277 149.21 110.106 149.21ZM116.046 149V138.92H116.991L120.953 147.397L124.894 138.92H125.853V148.993H124.873V141.216L121.282 149H120.617L117.033 141.216V149H116.046ZM131.318 149.21C130.613 149.21 129.979 149.093 129.414 148.86C128.854 148.622 128.39 148.286 128.021 147.852C127.657 147.418 127.419 146.902 127.307 146.305L128.357 146.13C128.525 146.783 128.88 147.297 129.421 147.67C129.962 148.039 130.609 148.223 131.36 148.223C131.855 148.223 132.298 148.146 132.69 147.992C133.082 147.833 133.39 147.609 133.614 147.32C133.838 147.031 133.95 146.688 133.95 146.291C133.95 146.03 133.903 145.808 133.81 145.626C133.717 145.439 133.593 145.285 133.439 145.164C133.285 145.043 133.117 144.942 132.935 144.863C132.753 144.779 132.576 144.711 132.403 144.66L129.848 143.897C129.54 143.808 129.255 143.696 128.994 143.561C128.733 143.421 128.504 143.255 128.308 143.064C128.117 142.868 127.967 142.639 127.86 142.378C127.753 142.117 127.699 141.818 127.699 141.482C127.699 140.913 127.848 140.42 128.147 140.005C128.446 139.59 128.854 139.27 129.372 139.046C129.89 138.822 130.48 138.712 131.143 138.717C131.815 138.717 132.415 138.836 132.942 139.074C133.474 139.312 133.913 139.653 134.258 140.096C134.603 140.535 134.832 141.055 134.944 141.657L133.866 141.853C133.796 141.414 133.635 141.034 133.383 140.712C133.131 140.39 132.809 140.143 132.417 139.97C132.03 139.793 131.603 139.702 131.136 139.697C130.683 139.697 130.28 139.774 129.925 139.928C129.575 140.077 129.297 140.283 129.092 140.544C128.887 140.805 128.784 141.104 128.784 141.44C128.784 141.781 128.877 142.054 129.064 142.259C129.255 142.464 129.489 142.625 129.764 142.742C130.044 142.859 130.315 142.954 130.576 143.029L132.55 143.61C132.755 143.666 132.996 143.748 133.271 143.855C133.551 143.958 133.822 144.107 134.083 144.303C134.349 144.494 134.568 144.746 134.741 145.059C134.914 145.372 135 145.768 135 146.249C135 146.716 134.907 147.133 134.72 147.502C134.538 147.871 134.279 148.181 133.943 148.433C133.612 148.685 133.222 148.876 132.774 149.007C132.331 149.142 131.845 149.21 131.318 149.21Z" fill="#0E041B"/>
<path d="M84.0526 58.7846C84.4525 58.7846 84.7525 58.6835 85.0524 58.5824L95.0506 53.125C96.0504 52.6197 96.3504 51.3059 95.8505 50.2952C95.3506 49.2846 94.0508 48.9814 93.051 49.4867L83.1528 54.9442C82.1529 55.2473 81.653 56.258 81.853 57.2686C82.1529 58.2793 83.1528 58.9867 84.0526 58.7846ZM99.2499 66.7686C99.5498 66.7686 99.9497 66.6676 100.25 66.4654L116.147 57.7739C116.747 57.4707 117.147 56.7633 117.147 56.0559C117.147 55.2473 116.847 54.5399 116.247 54.2367C115.547 53.8324 114.847 53.8324 114.147 54.1356L98.25 62.8271C97.3502 63.2314 96.7503 64.242 97.0502 65.2527C97.2502 66.2633 98.25 66.8697 99.2499 66.7686ZM140.442 55.3484C140.042 54.1356 139.143 53.125 138.043 52.6197L120.846 43.4229C118.046 42.008 114.747 42.008 111.848 43.4229L110.448 44.0293L98.55 37.5612C95.7505 36.1463 92.4511 36.1463 89.5516 37.5612L61.9566 52.6197C60.5568 53.2261 59.657 54.5399 59.457 56.0559V71.4176C59.457 72.2261 59.857 72.9335 60.5568 73.2367L95.5505 92.4388C98.35 93.8537 101.749 93.8537 104.549 92.4388L139.443 73.0346C140.142 72.7314 140.542 72.0239 140.542 71.2154V56.0559C140.542 55.8537 140.442 55.5505 140.442 55.3484ZM63.9562 56.258L91.4513 41.3005C93.051 40.5931 94.9506 40.5931 96.6503 41.3005L110.448 48.7793L113.747 46.9601C115.447 46.2527 117.347 46.2527 118.946 46.9601L136.043 56.258L136.243 56.359L136.043 56.4601L102.649 74.6516C100.95 75.4601 99.0499 75.4601 97.4502 74.6516L63.9562 56.258ZM102.549 88.9016C100.95 89.609 99.0499 89.609 97.4502 88.9016L63.5563 70.2048V60.9069L95.4505 78.2899C98.25 79.7048 101.649 79.7048 104.449 78.2899L136.443 60.9069V70.0027L102.549 88.9016Z" fill="#0D041B" fill-opacity="0.75"/>
</svg>
