<svg width="28" height="28" viewBox="0 0 28 28" fill="none" xmlns="http://www.w3.org/2000/svg">
<g id="ChartBar">
<path id="Vector" d="M25.375 22.75C25.375 22.9821 25.2828 23.2046 25.1187 23.3687C24.9546 23.5328 24.7321 23.625 24.5 23.625H3.5C3.26794 23.625 3.04538 23.5328 2.88128 23.3687C2.71719 23.2046 2.625 22.9821 2.625 22.75C2.625 22.5179 2.71719 22.2954 2.88128 22.1313C3.04538 21.9672 3.26794 21.875 3.5 21.875H4.375V14.875C4.375 14.6429 4.46719 14.4204 4.63128 14.2563C4.79538 14.0922 5.01794 14 5.25 14H7.875C8.10706 14 8.32962 14.0922 8.49372 14.2563C8.65781 14.4204 8.75 14.6429 8.75 14.875V21.875H10.5V9.625C10.5 9.39294 10.5922 9.17038 10.7563 9.00628C10.9204 8.84219 11.1429 8.75 11.375 8.75H14.875C15.1071 8.75 15.3296 8.84219 15.4937 9.00628C15.6578 9.17038 15.75 9.39294 15.75 9.625V21.875H17.5V4.375C17.5 4.14294 17.5922 3.92038 17.7563 3.75628C17.9204 3.59219 18.1429 3.5 18.375 3.5H22.75C22.9821 3.5 23.2046 3.59219 23.3687 3.75628C23.5328 3.92038 23.625 4.14294 23.625 4.375V21.875H24.5C24.7321 21.875 24.9546 21.9672 25.1187 22.1313C25.2828 22.2954 25.375 22.5179 25.375 22.75Z" fill="url(#paint0_linear_3976_6444)"/>
</g>
<defs>
<linearGradient id="paint0_linear_3976_6444" x1="18.2858" y1="21.4525" x2="-0.634015" y2="6.75316" gradientUnits="userSpaceOnUse">
<stop offset="0.27" stop-color="#19191E"/>
<stop offset="0.875" stop-color="#49494A" stop-opacity="0.7"/>
</linearGradient>
</defs>
</svg>
