<svg width="169" height="36" viewBox="0 0 169 36" fill="none" xmlns="http://www.w3.org/2000/svg">
<path d="M58.9803 24.8428C55.6829 24.8428 53.3577 22.1812 53.3577 18.7936C53.3577 15.4059 55.6848 12.7443 58.9803 12.7443C61.0407 12.7443 62.5189 13.6877 63.5364 15.1633L65.4263 13.2767C63.8991 11.4135 61.7172 10.1787 58.9785 10.1787C54.1794 10.1787 50.5918 14.0262 50.5918 18.7918C50.5918 23.5591 54.1794 27.4048 58.9785 27.4048C63.7776 27.4048 67.3652 23.5573 67.3652 18.7918H64.6029C64.6047 22.2772 62.2777 24.8428 58.9803 24.8428Z" fill="#8C8CA6"/>
<path d="M75.1908 15.0198C73.6147 15.0198 72.4521 15.6734 71.7248 16.5443V10.0352L69.0586 10.3249V27.2631H71.7248V20.5837C71.7248 18.8166 72.8148 17.5347 74.5361 17.5347C76.3788 17.5347 77.1787 18.6971 77.1787 20.5837V27.2613H79.8448V20.0043C79.8448 16.7851 78.0746 15.0198 75.1908 15.0198Z" fill="#8C8CA6"/>
<path d="M91.0942 16.4218C90.5846 15.7681 89.2279 15.0186 87.6282 15.0186C84.1621 15.0186 81.5449 17.5842 81.5449 21.2126C81.5449 24.8429 84.1621 27.4067 87.6282 27.4067C89.2515 27.4067 90.5846 26.6571 91.0942 26.0035V27.2619H93.8094V15.1634H91.0942V16.4218ZM87.7243 24.8429C85.7129 24.8429 84.1621 23.1971 84.1621 21.2126C84.1621 19.2282 85.7129 17.5842 87.7243 17.5842C89.6886 17.5842 91.1903 19.23 91.1903 21.2126C91.1903 23.1971 89.6886 24.8429 87.7243 24.8429Z" fill="#8C8CA6"/>
<path d="M109.567 9.51855L106.901 9.80825V15.164H104.453H100.919V10.5506L98.2532 10.8403V15.164H95.8047V17.6808H98.2532V27.2625H100.919V17.6808H104.554H106.901V27.2625H109.567V17.6808H113.204V15.164H109.567V9.51855Z" fill="#8C8CA6"/>
<path d="M119.874 15.0186C116.432 15.0186 113.717 17.7779 113.717 21.2126C113.717 24.6474 116.432 27.4067 119.947 27.4067C122.686 27.4067 125.036 25.9311 125.862 23.7294H122.686C122.176 24.5043 121.184 24.8918 119.947 24.8918C118.202 24.8918 116.82 23.657 116.53 22.1324H125.958C126.007 21.8427 126.03 21.5277 126.03 21.2126C126.032 17.7761 123.317 15.0186 119.874 15.0186ZM116.651 19.7605C117.04 18.5022 118.349 17.4864 119.876 17.4864C121.403 17.4864 122.711 18.5022 123.099 19.7605H116.651Z" fill="#8C8CA6"/>
<path d="M130.563 16.4218V15.1634H127.896V27.2619H130.563V20.5844C130.563 18.7937 131.751 17.5842 133.446 17.5842H133.69V15.0186C131.992 15.0186 131.143 15.6468 130.563 16.4218Z" fill="#8C8CA6"/>
<path d="M148.446 15.0186C146.701 15.0186 145.707 15.7193 144.785 16.6879C144.131 15.6233 143.088 15.0186 141.61 15.0186C140.277 15.0186 139.114 15.6486 138.459 16.5431V15.1634H135.793V27.2619H138.459V20.0031C138.459 18.4297 139.381 17.5353 140.616 17.5353C142.021 17.5353 142.772 18.4297 142.772 20.0031V27.2619H145.438V20.0031C145.438 18.4297 146.36 17.5353 147.595 17.5353C149.024 17.5353 149.751 18.4297 149.751 20.0031V27.2619H152.418V19.326C152.421 16.3493 150.92 15.0186 148.446 15.0186Z" fill="#8C8CA6"/>
<path d="M157.584 15.1641H154.918V27.2625H157.584V15.1641Z" fill="#8C8CA6"/>
<path d="M156.253 10.1787C155.259 10.1787 154.459 10.9772 154.459 11.9929C154.459 13.0087 155.259 13.8072 156.253 13.8072C157.247 13.8072 158.047 13.0087 158.047 11.9929C158.047 10.9772 157.247 10.1787 156.253 10.1787Z" fill="#8C8CA6"/>
<path d="M160.207 27.2631H162.873V10.0352L160.207 10.3249V27.2631Z" fill="#8C8CA6"/>
<path d="M165.467 10.3249V27.2631H168.133V10.0352L165.467 10.3249Z" fill="#8C8CA6"/>
<path d="M4.57983 20.3706C4.97436 16.6941 6.47302 13.3573 8.72668 10.6996L14.5226 16.4191C14.832 16.725 14.8888 17.1937 14.6674 17.567C14.2899 18.204 13.9975 18.8944 13.7989 19.6241C13.6796 20.0619 13.2851 20.3706 12.8253 20.3706H4.57983ZM3.56085 20.3706H1.60238C0.994966 20.3706 0.51812 19.8458 0.589079 19.2508C1.0716 15.2769 2.65541 11.6425 5.04248 8.65087C5.41998 8.17938 6.12958 8.14009 6.56101 8.56387L7.95749 9.94183C5.48527 12.7904 3.88159 16.4023 3.56085 20.3706ZM10.7504 8.67332C13.4497 6.37203 16.8416 4.88461 20.5627 4.5759V12.7511C20.5627 13.2029 20.2505 13.5902 19.8105 13.7081C19.0725 13.8989 18.3743 14.1852 17.7272 14.5556C17.3496 14.7717 16.8728 14.7156 16.5663 14.4125L10.7504 8.67332ZM9.99543 7.92961L8.6018 6.55445C8.17036 6.12787 8.21294 5.42626 8.68979 5.0558C11.724 2.704 15.4054 1.14642 19.4273 0.674937C20.0319 0.604776 20.5627 1.07345 20.5627 1.67403V3.61048C16.5464 3.91639 12.8877 5.4908 9.99543 7.92961ZM34.0109 7.92961C31.1214 5.4908 27.4656 3.91639 23.4493 3.61048V1.67403C23.4493 1.07345 23.9801 0.604776 24.5847 0.674937C28.6066 1.14642 32.2851 2.704 35.3165 5.05019C35.7962 5.42345 35.8359 6.12506 35.4074 6.55164L34.0109 7.92961ZM33.2587 8.67051L27.4429 14.4097C27.1335 14.7156 26.6595 14.7689 26.282 14.5556C25.6377 14.188 24.9366 13.9017 24.1986 13.7081C23.7558 13.593 23.4465 13.2057 23.4465 12.7567V4.57871C27.1676 4.88461 30.5594 6.37203 33.2587 8.67051ZM8.24132 33.3645C6.0501 30.5468 4.68201 27.0415 4.49751 23.2163H12.8225C13.2823 23.2163 13.6768 23.525 13.7932 23.9629C13.9862 24.6925 14.2757 25.3857 14.6504 26.0228C14.8718 26.3988 14.815 26.8731 14.5028 27.1819L8.24132 33.3645ZM7.90356 33.6956L6.54682 35.0343C6.11538 35.4581 5.40295 35.4188 5.02545 34.9473C2.64406 31.9528 1.06309 28.3157 0.589079 24.3361C0.51812 23.7411 0.992127 23.2163 1.59954 23.2163H3.55234C3.85037 27.2015 5.43701 30.8302 7.90356 33.6956ZM35.2796 10.6996C37.5361 13.3573 39.032 16.697 39.4265 20.3734H31.1839C30.724 20.3734 30.3295 20.0647 30.2103 19.6269C30.0116 18.8972 29.7193 18.2068 29.3418 17.567C29.1204 17.1937 29.1771 16.725 29.4837 16.4191L35.2796 10.6996ZM36.0517 9.93903L37.4481 8.56106C37.8767 8.13729 38.5892 8.17658 38.9667 8.64806C41.3537 11.6397 42.9404 15.2741 43.4229 19.2508C43.4967 19.8458 43.0199 20.3706 42.4125 20.3706H40.4511C40.1276 16.4023 38.5239 12.7904 36.0517 9.93903ZM39.5145 23.2191C39.33 27.0415 37.959 30.5468 35.7707 33.3645L29.5064 27.1847C29.1942 26.8788 29.1374 26.4017 29.3588 26.0256C29.7335 25.3885 30.023 24.6981 30.216 23.9657C30.3324 23.5279 30.7297 23.2191 31.1867 23.2191H39.5145ZM40.4568 23.2191H42.4096C43.017 23.2191 43.4939 23.7439 43.4201 24.3389C42.9432 28.3157 41.3623 31.9528 38.9809 34.9501C38.6034 35.4244 37.8909 35.4637 37.4623 35.0371L36.1056 33.6984C38.5721 30.8302 40.1588 27.2015 40.4568 23.2191Z" fill="#8C8CA6"/>
</svg>
