<svg width="24" height="30" viewBox="0 0 24 30" fill="none" xmlns="http://www.w3.org/2000/svg">
<path fill-rule="evenodd" clip-rule="evenodd" d="M20.6682 0.500244H18.6682C18.5349 0.500197 18.4046 0.538795 18.2942 0.611053C18.1838 0.683311 18.0983 0.785908 18.0489 0.905592L16.8835 3.72241H15.3549L14.6482 0.98808C14.6121 0.848723 14.5288 0.725028 14.4117 0.636642C14.2945 0.548256 14.1501 0.500248 14.0015 0.500244H10.0015C9.85271 0.50014 9.70813 0.548175 9.59082 0.636698C9.47351 0.725221 9.39021 0.849141 9.3542 0.988724L8.6482 3.72241H7.11953L5.9542 0.905592C5.90473 0.785908 5.81928 0.683311 5.70888 0.611053C5.59847 0.538795 5.46819 0.500197 5.33486 0.500244H3.33486C3.15805 0.500244 2.98848 0.56814 2.86346 0.688994C2.73843 0.809849 2.6682 0.973763 2.6682 1.14468V6.30014C2.6682 6.38914 2.68728 6.47717 2.72422 6.55869C2.76117 6.64021 2.81518 6.71345 2.88286 6.77379L6.68553 10.1667H17.3175L21.1175 6.77379C21.1857 6.71368 21.2402 6.64054 21.2776 6.55901C21.315 6.47748 21.3345 6.38933 21.3349 6.30014V1.14468C21.3349 0.973763 21.2646 0.809849 21.1396 0.688994C21.0146 0.56814 20.845 0.500244 20.6682 0.500244ZM6.67104 11.4553L3.48438 23.0551H20.5244L17.3377 11.4553H6.67104ZM0.666667 29.4995H23.3333C23.5101 29.4995 23.6797 29.4316 23.8047 29.3107C23.9298 29.1898 24 29.0259 24 28.855V26.2773C24 25.7645 23.7893 25.2728 23.4142 24.9102C23.0391 24.5477 22.5304 24.344 22 24.344H2C1.46957 24.344 0.960859 24.5477 0.585787 24.9102C0.210714 25.2728 0 25.7645 0 26.2773V28.855C0 29.0259 0.070238 29.1898 0.195262 29.3107C0.320287 29.4316 0.489856 29.4995 0.666667 29.4995Z" fill="url(#paint0_linear_6365_3987)"/>
<defs>
<linearGradient id="paint0_linear_6365_3987" x1="16.5213" y1="26.3689" x2="-7.66181" y2="12.6136" gradientUnits="userSpaceOnUse">
<stop offset="0.27" stop-color="#19191E"/>
<stop offset="0.875" stop-color="#49494A" stop-opacity="0.7"/>
</linearGradient>
</defs>
</svg>
