<svg width="36" height="36" viewBox="0 0 36 36" fill="none" xmlns="http://www.w3.org/2000/svg">
<rect width="36" height="36" rx="8" fill="white" fill-opacity="0.1"/>
<rect x="0.4" y="0.4" width="35.2" height="35.2" rx="7.6" stroke="url(#paint0_linear_429_53887)" stroke-opacity="0.5" stroke-width="0.8" style="mix-blend-mode:overlay"/>
<rect x="2.4" y="2.4" width="31.2" height="31.2" rx="5.6" fill="url(#paint1_radial_429_53887)"/>
<rect x="2.4" y="2.4" width="31.2" height="31.2" rx="5.6" stroke="url(#paint2_radial_429_53887)" stroke-width="0.8"/>
<g style="mix-blend-mode:overlay">
<path fill-rule="evenodd" clip-rule="evenodd" d="M18.0008 10.6998C13.9691 10.6998 10.7008 13.9681 10.7008 17.9998C10.7008 22.0315 13.9691 25.2998 18.0008 25.2998C22.0325 25.2998 25.3008 22.0315 25.3008 17.9998C25.3008 13.9681 22.0325 10.6998 18.0008 10.6998ZM9.30078 17.9998C9.30078 13.1949 13.1959 9.2998 18.0008 9.2998C22.8057 9.2998 26.7008 13.1949 26.7008 17.9998C26.7008 22.8047 22.8057 26.6998 18.0008 26.6998C13.1959 26.6998 9.30078 22.8047 9.30078 17.9998ZM14.5058 14.5048C14.7792 14.2315 15.2224 14.2315 15.4958 14.5048L18.0008 17.0099L20.5058 14.5048C20.7792 14.2315 21.2224 14.2315 21.4958 14.5048C21.7691 14.7782 21.7691 15.2214 21.4958 15.4948L18.9907 17.9998L21.4958 20.5048C21.7691 20.7782 21.7691 21.2214 21.4958 21.4948C21.2224 21.7681 20.7792 21.7681 20.5058 21.4948L18.0008 18.9898L15.4958 21.4948C15.2224 21.7681 14.7792 21.7681 14.5058 21.4948C14.2324 21.2214 14.2324 20.7782 14.5058 20.5048L17.0108 17.9998L14.5058 15.4948C14.2324 15.2214 14.2324 14.7782 14.5058 14.5048Z" fill="white"/>
</g>
<g style="mix-blend-mode:overlay" opacity="0.5">
<path fill-rule="evenodd" clip-rule="evenodd" d="M18.0008 10.6998C13.9691 10.6998 10.7008 13.9681 10.7008 17.9998C10.7008 22.0315 13.9691 25.2998 18.0008 25.2998C22.0325 25.2998 25.3008 22.0315 25.3008 17.9998C25.3008 13.9681 22.0325 10.6998 18.0008 10.6998ZM9.30078 17.9998C9.30078 13.1949 13.1959 9.2998 18.0008 9.2998C22.8057 9.2998 26.7008 13.1949 26.7008 17.9998C26.7008 22.8047 22.8057 26.6998 18.0008 26.6998C13.1959 26.6998 9.30078 22.8047 9.30078 17.9998ZM14.5058 14.5048C14.7792 14.2315 15.2224 14.2315 15.4958 14.5048L18.0008 17.0099L20.5058 14.5048C20.7792 14.2315 21.2224 14.2315 21.4958 14.5048C21.7691 14.7782 21.7691 15.2214 21.4958 15.4948L18.9907 17.9998L21.4958 20.5048C21.7691 20.7782 21.7691 21.2214 21.4958 21.4948C21.2224 21.7681 20.7792 21.7681 20.5058 21.4948L18.0008 18.9898L15.4958 21.4948C15.2224 21.7681 14.7792 21.7681 14.5058 21.4948C14.2324 21.2214 14.2324 20.7782 14.5058 20.5048L17.0108 17.9998L14.5058 15.4948C14.2324 15.2214 14.2324 14.7782 14.5058 14.5048Z" fill="white"/>
</g>
<defs>
<linearGradient id="paint0_linear_429_53887" x1="18" y1="0" x2="18" y2="36" gradientUnits="userSpaceOnUse">
<stop stop-color="white" stop-opacity="0.4"/>
<stop offset="1" stop-color="white" stop-opacity="0.2"/>
</linearGradient>
<radialGradient id="paint1_radial_429_53887" cx="0" cy="0" r="1" gradientUnits="userSpaceOnUse" gradientTransform="translate(18 0.333332) rotate(90) scale(23.6667 25.43)">
<stop stop-color="#18161D"/>
<stop offset="1" stop-color="#141217"/>
</radialGradient>
<radialGradient id="paint2_radial_429_53887" cx="0" cy="0" r="1" gradientUnits="userSpaceOnUse" gradientTransform="translate(18 2) scale(30 33.3277)">
<stop offset="0.0285444" stop-color="#36313F"/>
<stop offset="1" stop-color="#14131B"/>
</radialGradient>
</defs>
</svg>
