<svg width="36" height="36" viewBox="0 0 36 36" fill="none" xmlns="http://www.w3.org/2000/svg">
<rect width="36" height="36" rx="8" fill="white" fill-opacity="0.1"/>
<rect x="0.4" y="0.4" width="35.2" height="35.2" rx="7.6" stroke="url(#paint0_linear_429_53854)" stroke-opacity="0.5" stroke-width="0.8" style="mix-blend-mode:overlay"/>
<rect x="2.4" y="2.4" width="31.2" height="31.2" rx="5.6" fill="url(#paint1_radial_429_53854)"/>
<rect x="2.4" y="2.4" width="31.2" height="31.2" rx="5.6" stroke="url(#paint2_radial_429_53854)" stroke-width="0.8"/>
<g style="mix-blend-mode:overlay">
<path fill-rule="evenodd" clip-rule="evenodd" d="M21.0808 10.1246C21.1914 9.75418 20.9808 9.3642 20.6104 9.25358C20.2399 9.14295 19.8499 9.35356 19.7393 9.724L14.916 25.875C14.8054 26.2454 15.016 26.6354 15.3864 26.746C15.7568 26.8566 16.1468 26.646 16.2574 26.2756L21.0808 10.1246ZM12.6487 12.6302C12.9504 12.8719 12.999 13.3125 12.7573 13.6142L9.24878 17.9933L12.7579 22.3863C12.9992 22.6883 12.95 23.1288 12.6479 23.3701C12.3458 23.6114 11.9054 23.5621 11.6641 23.2601L7.80542 18.4295C7.60108 18.1737 7.60135 17.8104 7.80606 17.5549L11.6647 12.7388C11.9064 12.4371 12.347 12.3885 12.6487 12.6302ZM23.3504 12.63C23.6522 12.3884 24.0927 12.4372 24.3343 12.739L28.193 17.5589C28.3975 17.8143 28.3978 18.1772 28.1937 18.4329L24.3422 23.2598C24.1011 23.5619 23.6606 23.6114 23.3584 23.3703C23.0562 23.1292 23.0067 22.6888 23.2479 22.3866L26.7504 17.9971L23.2414 13.614C22.9998 13.3122 23.0486 12.8717 23.3504 12.63Z" fill="white"/>
</g>
<g style="mix-blend-mode:overlay">
<path fill-rule="evenodd" clip-rule="evenodd" d="M21.0808 10.1246C21.1914 9.75418 20.9808 9.3642 20.6104 9.25358C20.2399 9.14295 19.8499 9.35356 19.7393 9.724L14.916 25.875C14.8054 26.2454 15.016 26.6354 15.3864 26.746C15.7568 26.8566 16.1468 26.646 16.2574 26.2756L21.0808 10.1246ZM12.6487 12.6302C12.9504 12.8719 12.999 13.3125 12.7573 13.6142L9.24878 17.9933L12.7579 22.3863C12.9992 22.6883 12.95 23.1288 12.6479 23.3701C12.3458 23.6114 11.9054 23.5621 11.6641 23.2601L7.80542 18.4295C7.60108 18.1737 7.60135 17.8104 7.80606 17.5549L11.6647 12.7388C11.9064 12.4371 12.347 12.3885 12.6487 12.6302ZM23.3504 12.63C23.6522 12.3884 24.0927 12.4372 24.3343 12.739L28.193 17.5589C28.3975 17.8143 28.3978 18.1772 28.1937 18.4329L24.3422 23.2598C24.1011 23.5619 23.6606 23.6114 23.3584 23.3703C23.0562 23.1292 23.0067 22.6888 23.2479 22.3866L26.7504 17.9971L23.2414 13.614C22.9998 13.3122 23.0486 12.8717 23.3504 12.63Z" fill="white"/>
</g>
<g style="mix-blend-mode:overlay">
<path fill-rule="evenodd" clip-rule="evenodd" d="M20.9865 10.0961C21.0813 9.77855 20.9008 9.44429 20.5833 9.34947C20.2658 9.25464 19.9315 9.43517 19.8367 9.75268L15.0134 25.9036C14.9185 26.2212 15.0991 26.5554 15.4166 26.6502C15.7341 26.7451 16.0684 26.5645 16.1632 26.247L20.9865 10.0961ZM23.4145 12.7082C23.6732 12.5011 24.0507 12.5429 24.2578 12.8016L28.1165 17.6214C28.2918 17.8403 28.292 18.1514 28.1171 18.3706L24.2656 23.1975C24.0589 23.4565 23.6814 23.4989 23.4224 23.2922C23.1633 23.0855 23.1209 22.708 23.3276 22.449L26.88 17.997L23.3211 13.5516C23.114 13.2929 23.1558 12.9153 23.4145 12.7082ZM12.5877 12.7083C12.8463 12.9155 12.888 13.2931 12.6808 13.5517L9.12228 17.9932L12.6814 22.4488C12.8882 22.7077 12.846 23.0852 12.587 23.292C12.3281 23.4988 11.9506 23.4566 11.7438 23.1977L7.88511 18.3672C7.70997 18.1479 7.71019 17.8365 7.88566 17.6175L11.7443 12.8014C11.9515 12.5428 12.3291 12.5011 12.5877 12.7083Z" fill="white"/>
</g>
<defs>
<linearGradient id="paint0_linear_429_53854" x1="18" y1="0" x2="18" y2="36" gradientUnits="userSpaceOnUse">
<stop stop-color="white" stop-opacity="0.4"/>
<stop offset="1" stop-color="white" stop-opacity="0.2"/>
</linearGradient>
<radialGradient id="paint1_radial_429_53854" cx="0" cy="0" r="1" gradientUnits="userSpaceOnUse" gradientTransform="translate(18 0.333332) rotate(90) scale(23.6667 25.43)">
<stop stop-color="#242438"/>
<stop offset="1" stop-color="#0C0D12"/>
</radialGradient>
<radialGradient id="paint2_radial_429_53854" cx="0" cy="0" r="1" gradientUnits="userSpaceOnUse" gradientTransform="translate(18 2) scale(20.6667 29.8891)">
<stop offset="0.0285444" stop-color="#4B4B6C"/>
<stop offset="1" stop-color="#13141B"/>
</radialGradient>
</defs>
</svg>
