<svg width="123" height="123" viewBox="0 0 123 123" fill="none" xmlns="http://www.w3.org/2000/svg">
<path d="M112.672 121.547H9.62635C4.72495 121.547 0.751587 117.574 0.751587 112.672V9.62635C0.751587 4.72495 4.72495 0.751587 9.62636 0.751587H112.672C117.574 0.751587 121.547 4.72495 121.547 9.62636V112.672C121.547 117.574 117.574 121.547 112.672 121.547Z" fill="#0C0B0F"/>
<path d="M112.672 121.547H9.62635C4.72495 121.547 0.751587 117.574 0.751587 112.672V9.62635C0.751587 4.72495 4.72495 0.751587 9.62636 0.751587H112.672C117.574 0.751587 121.547 4.72495 121.547 9.62636V112.672C121.547 117.574 117.574 121.547 112.672 121.547Z" stroke="#3F3A4B" stroke-width="1.5"/>
<path opacity="0.8" d="M23.5245 34.2969H22.3306L25.7838 24.8924H26.9594L30.4126 34.2969H29.2186L26.4083 26.3803H26.3349L23.5245 34.2969ZM23.9654 30.6233H28.7778V31.6335H23.9654V30.6233ZM33.5474 34.4622C33.1005 34.4622 32.6948 34.378 32.3305 34.2096C31.9662 34.0382 31.677 33.7918 31.4627 33.4703C31.2484 33.1458 31.1412 32.754 31.1412 32.2948C31.1412 31.8907 31.2208 31.5631 31.38 31.3121C31.5392 31.058 31.752 30.859 32.0183 30.7151C32.2846 30.5712 32.5785 30.4641 32.9 30.3937C33.2245 30.3202 33.5505 30.262 33.8781 30.2192C34.3066 30.1641 34.6541 30.1227 34.9204 30.0952C35.1898 30.0646 35.3858 30.0141 35.5082 29.9437C35.6337 29.8732 35.6965 29.7508 35.6965 29.5763V29.5396C35.6965 29.0865 35.5725 28.7344 35.3245 28.4834C35.0796 28.2324 34.7077 28.1068 34.2087 28.1068C33.6913 28.1068 33.2857 28.2201 32.9918 28.4467C32.6979 28.6732 32.4913 28.915 32.3719 29.1722L31.3433 28.8048C31.5269 28.3762 31.7719 28.0426 32.078 27.8038C32.3872 27.5619 32.7239 27.3936 33.0882 27.2987C33.4556 27.2007 33.8168 27.1517 34.1719 27.1517C34.3985 27.1517 34.6587 27.1793 34.9526 27.2344C35.2495 27.2864 35.5358 27.3951 35.8113 27.5604C36.0899 27.7257 36.321 27.9752 36.5047 28.3089C36.6884 28.6426 36.7802 29.0895 36.7802 29.6498V34.2969H35.6965V33.3417H35.6414C35.5679 33.4948 35.4455 33.6586 35.274 33.8331C35.1026 34.0076 34.8745 34.1561 34.5898 34.2785C34.3051 34.401 33.9576 34.4622 33.5474 34.4622ZM33.7127 33.4887C34.1413 33.4887 34.5026 33.4045 34.7965 33.2361C35.0934 33.0677 35.3169 32.8504 35.4669 32.5841C35.62 32.3177 35.6965 32.0376 35.6965 31.7437V30.7518C35.6506 30.8069 35.5495 30.8575 35.3934 30.9034C35.2403 30.9462 35.0628 30.9845 34.8607 31.0182C34.6618 31.0488 34.4674 31.0763 34.2776 31.1008C34.0908 31.1223 33.9393 31.1406 33.8229 31.1559C33.5413 31.1927 33.278 31.2524 33.0331 31.335C32.7913 31.4146 32.5954 31.5355 32.4453 31.6978C32.2984 31.857 32.2249 32.0743 32.2249 32.3499C32.2249 32.7264 32.3642 33.0111 32.6428 33.204C32.9244 33.3938 33.2811 33.4887 33.7127 33.4887ZM42.0248 34.2969V24.8924H45.3127C45.9678 24.8924 46.5081 25.0057 46.9336 25.2323C47.3592 25.4557 47.676 25.7573 47.8842 26.1369C48.0924 26.5134 48.1964 26.9313 48.1964 27.3905C48.1964 27.7946 48.1245 28.1283 47.9806 28.3916C47.8398 28.6548 47.653 28.863 47.4204 29.0161C47.1908 29.1691 46.9413 29.2824 46.6719 29.3559V29.4477C46.9597 29.4661 47.249 29.5671 47.5398 29.7508C47.8306 29.9345 48.074 30.1977 48.2699 30.5406C48.4658 30.8835 48.5638 31.3029 48.5638 31.7988C48.5638 32.2703 48.4567 32.6943 48.2424 33.0708C48.0281 33.4474 47.6898 33.7458 47.2275 33.9663C46.7653 34.1867 46.1637 34.2969 45.4229 34.2969H42.0248ZM43.1636 33.2866H45.4229C46.1668 33.2866 46.6949 33.1428 47.0071 32.855C47.3224 32.5642 47.4801 32.2121 47.4801 31.7988C47.4801 31.4804 47.399 31.1866 47.2367 30.9172C47.0745 30.6447 46.8433 30.4273 46.5433 30.2651C46.2433 30.0998 45.8882 30.0171 45.478 30.0171H43.1636V33.2866ZM43.1636 29.0253H45.2759C45.6188 29.0253 45.928 28.9579 46.2035 28.8232C46.4821 28.6885 46.7025 28.4987 46.8648 28.2538C47.0301 28.0089 47.1127 27.7211 47.1127 27.3905C47.1127 26.9772 46.9688 26.6267 46.6811 26.3389C46.3933 26.0481 45.9372 25.9027 45.3127 25.9027H43.1636V29.0253ZM50.1764 34.2969V24.8924H51.2601V28.364H51.352C51.4316 28.2415 51.5418 28.0854 51.6826 27.8956C51.8265 27.7028 52.0316 27.5313 52.2979 27.3813C52.5673 27.2282 52.9316 27.1517 53.3908 27.1517C53.9847 27.1517 54.5082 27.3002 54.9613 27.5971C55.4144 27.8941 55.768 28.315 56.022 28.8599C56.2761 29.4049 56.4032 30.0477 56.4032 30.7886C56.4032 31.5355 56.2761 32.183 56.022 32.731C55.768 33.2759 55.4159 33.6984 54.9659 33.9984C54.5159 34.2953 53.997 34.4438 53.4092 34.4438C52.9561 34.4438 52.5933 34.3688 52.3209 34.2188C52.0484 34.0657 51.8387 33.8928 51.6918 33.6999C51.5448 33.504 51.4316 33.3417 51.352 33.2132H51.2234V34.2969H50.1764ZM51.2418 30.7702C51.2418 31.3029 51.3198 31.7728 51.476 32.18C51.6321 32.5841 51.8602 32.9009 52.1602 33.1305C52.4602 33.357 52.8275 33.4703 53.2622 33.4703C53.7153 33.4703 54.0934 33.3509 54.3965 33.1121C54.7026 32.8703 54.9322 32.5458 55.0853 32.1386C55.2414 31.7284 55.3195 31.2723 55.3195 30.7702C55.3195 30.2743 55.2429 29.8273 55.0899 29.4293C54.9399 29.0283 54.7118 28.7115 54.4057 28.4788C54.1026 28.2431 53.7214 28.1252 53.2622 28.1252C52.8214 28.1252 52.451 28.237 52.151 28.4604C51.851 28.6809 51.6244 28.99 51.4714 29.388C51.3183 29.7829 51.2418 30.2437 51.2418 30.7702ZM68.8951 27.8313H67.7563C67.6889 27.5038 67.5711 27.216 67.4027 26.968C67.2374 26.7201 67.0353 26.5119 66.7965 26.3435C66.5608 26.1721 66.2991 26.0435 66.0113 25.9578C65.7235 25.8721 65.4235 25.8292 65.1113 25.8292C64.5419 25.8292 64.026 25.9731 63.5638 26.2609C63.1046 26.5486 62.7387 26.9726 62.4663 27.5328C62.1969 28.0931 62.0622 28.7803 62.0622 29.5947C62.0622 30.409 62.1969 31.0962 62.4663 31.6565C62.7387 32.2167 63.1046 32.6407 63.5638 32.9285C64.026 33.2162 64.5419 33.3601 65.1113 33.3601C65.4235 33.3601 65.7235 33.3172 66.0113 33.2315C66.2991 33.1458 66.5608 33.0188 66.7965 32.8504C67.0353 32.679 67.2374 32.4693 67.4027 32.2213C67.5711 31.9703 67.6889 31.6825 67.7563 31.358H68.8951C68.8094 31.8386 68.6532 32.2687 68.4267 32.6483C68.2002 33.028 67.9185 33.3509 67.5818 33.6173C67.245 33.8805 66.867 34.0811 66.4476 34.2188C66.0312 34.3566 65.5858 34.4255 65.1113 34.4255C64.3092 34.4255 63.5959 34.2295 62.9714 33.8377C62.3469 33.4458 61.8555 32.8887 61.4974 32.1662C61.1392 31.4437 60.9601 30.5865 60.9601 29.5947C60.9601 28.6028 61.1392 27.7456 61.4974 27.0231C61.8555 26.3007 62.3469 25.7435 62.9714 25.3516C63.5959 24.9598 64.3092 24.7639 65.1113 24.7639C65.5858 24.7639 66.0312 24.8327 66.4476 24.9705C66.867 25.1083 67.245 25.3103 67.5818 25.5767C67.9185 25.8399 68.2002 26.1614 68.4267 26.541C68.6532 26.9175 68.8094 27.3476 68.8951 27.8313ZM73.1952 34.4438C72.5339 34.4438 71.9645 34.2877 71.487 33.9754C71.0094 33.6632 70.642 33.2331 70.3849 32.6851C70.1277 32.1371 69.9991 31.5111 69.9991 30.8069C69.9991 30.0906 70.1308 29.4584 70.3941 28.9105C70.6604 28.3594 71.0308 27.9293 71.5053 27.6201C71.9829 27.3078 72.5401 27.1517 73.1768 27.1517C73.6728 27.1517 74.1197 27.2436 74.5177 27.4272C74.9157 27.6109 75.2417 27.8681 75.4958 28.1987C75.7499 28.5293 75.9075 28.915 75.9688 29.3559H74.885C74.8024 29.0344 74.6187 28.7497 74.334 28.5018C74.0524 28.2507 73.6728 28.1252 73.1952 28.1252C72.7727 28.1252 72.4023 28.2354 72.0839 28.4558C71.7686 28.6732 71.5222 28.9809 71.3446 29.3788C71.1701 29.7737 71.0829 30.2375 71.0829 30.7702C71.0829 31.3151 71.1686 31.7896 71.34 32.1937C71.5145 32.5978 71.7594 32.9116 72.0747 33.1351C72.3931 33.3586 72.7666 33.4703 73.1952 33.4703C73.4768 33.4703 73.7324 33.4213 73.962 33.3234C74.1917 33.2254 74.386 33.0846 74.5452 32.9009C74.7044 32.7172 74.8177 32.4968 74.885 32.2397H75.9688C75.9075 32.656 75.756 33.031 75.5141 33.3647C75.2754 33.6953 74.9585 33.9586 74.5636 34.1545C74.1718 34.3474 73.7156 34.4438 73.1952 34.4438ZM83.7217 34.2969H80.8196V24.8924H83.8503C84.7626 24.8924 85.5432 25.0807 86.1922 25.4573C86.8412 25.8307 87.3387 26.368 87.6846 27.0691C88.0306 27.767 88.2035 28.6028 88.2035 29.5763C88.2035 30.5559 88.029 31.3993 87.68 32.1065C87.331 32.8106 86.8229 33.3525 86.1555 33.7321C85.4881 34.1086 84.6769 34.2969 83.7217 34.2969ZM81.9584 33.2866H83.6482C84.4258 33.2866 85.0702 33.1366 85.5815 32.8366C86.0927 32.5366 86.4739 32.1095 86.7249 31.5554C86.9759 31.0013 87.1014 30.3416 87.1014 29.5763C87.1014 28.8171 86.9775 28.1635 86.7295 27.6155C86.4815 27.0645 86.1111 26.642 85.6182 26.3481C85.1253 26.0512 84.5115 25.9027 83.7768 25.9027H81.9584V33.2866ZM92.3716 34.4438C91.7838 34.4438 91.2649 34.2953 90.8149 33.9984C90.3649 33.6984 90.0128 33.2759 89.7587 32.731C89.5046 32.183 89.3776 31.5355 89.3776 30.7886C89.3776 30.0477 89.5046 29.4049 89.7587 28.8599C90.0128 28.315 90.3664 27.8941 90.8195 27.5971C91.2726 27.3002 91.7961 27.1517 92.39 27.1517C92.8492 27.1517 93.2119 27.2282 93.4783 27.3813C93.7477 27.5313 93.9528 27.7028 94.0936 27.8956C94.2375 28.0854 94.3492 28.2415 94.4288 28.364H94.5207V24.8924H95.6044V34.2969H94.5574V33.2132H94.4288C94.3492 33.3417 94.2359 33.504 94.089 33.6999C93.9421 33.8928 93.7324 34.0657 93.4599 34.2188C93.1874 34.3688 92.8247 34.4438 92.3716 34.4438ZM92.5185 33.4703C92.9532 33.4703 93.3206 33.357 93.6206 33.1305C93.9206 32.9009 94.1487 32.5841 94.3048 32.18C94.461 31.7728 94.539 31.3029 94.539 30.7702C94.539 30.2437 94.4625 29.7829 94.3094 29.388C94.1564 28.99 93.9298 28.6809 93.6298 28.4604C93.3298 28.237 92.9594 28.1252 92.5185 28.1252C92.0593 28.1252 91.6767 28.2431 91.3705 28.4788C91.0675 28.7115 90.8394 29.0283 90.6863 29.4293C90.5363 29.8273 90.4613 30.2743 90.4613 30.7702C90.4613 31.2723 90.5379 31.7284 90.6909 32.1386C90.847 32.5458 91.0766 32.8703 91.3797 33.1121C91.6859 33.3509 92.0655 33.4703 92.5185 33.4703ZM23.1388 50.2969V40.8924H28.8145V41.9027H24.2776V45.0804H28.5207V46.0906H24.2776V49.2866H28.888V50.2969H23.1388ZM33.4189 50.4438C32.7392 50.4438 32.153 50.2938 31.6601 49.9938C31.1703 49.6907 30.7922 49.2683 30.5259 48.7264C30.2626 48.1815 30.131 47.5478 30.131 46.8253C30.131 46.1028 30.2626 45.4661 30.5259 44.915C30.7922 44.3609 31.1626 43.9293 31.6372 43.6201C32.1147 43.3078 32.6719 43.1517 33.3086 43.1517C33.676 43.1517 34.0388 43.2129 34.397 43.3354C34.7551 43.4578 35.0812 43.6568 35.375 43.9324C35.6689 44.2048 35.9031 44.566 36.0776 45.0161C36.2521 45.4661 36.3394 46.0202 36.3394 46.6784V47.1376H30.9024V46.2008H35.2373C35.2373 45.8028 35.1577 45.4477 34.9985 45.1355C34.8424 44.8232 34.6189 44.5768 34.3281 44.3961C34.0403 44.2155 33.7005 44.1252 33.3086 44.1252C32.877 44.1252 32.5035 44.2324 32.1882 44.4467C31.8759 44.6579 31.6356 44.9334 31.4672 45.2732C31.2989 45.613 31.2147 45.9773 31.2147 46.3661V46.9906C31.2147 47.5233 31.3065 47.9749 31.4902 48.3453C31.677 48.7126 31.9356 48.9927 32.2663 49.1856C32.5969 49.3754 32.9811 49.4703 33.4189 49.4703C33.7036 49.4703 33.9607 49.4305 34.1903 49.3509C34.423 49.2683 34.6235 49.1458 34.7919 48.9836C34.9602 48.8182 35.0903 48.6131 35.1822 48.3682L36.2292 48.6621C36.119 49.0172 35.9337 49.3295 35.6735 49.5989C35.4133 49.8652 35.0919 50.0734 34.7092 50.2234C34.3265 50.3703 33.8964 50.4438 33.4189 50.4438ZM41.2545 50.2969V40.8924H46.8935V41.9027H42.3933V45.0804H46.471V46.0906H42.3933V50.2969H41.2545ZM51.5793 43.2436V44.162H47.7771V43.2436H51.5793ZM48.9159 50.2969V42.27C48.9159 41.8659 49.0108 41.5292 49.2006 41.2598C49.3904 40.9904 49.6369 40.7884 49.9399 40.6537C50.243 40.519 50.5629 40.4516 50.8997 40.4516C51.166 40.4516 51.3834 40.473 51.5517 40.5159C51.7201 40.5588 51.8456 40.5986 51.9283 40.6353L51.616 41.5721C51.5609 41.5537 51.4844 41.5307 51.3864 41.5032C51.2915 41.4756 51.166 41.4619 51.0099 41.4619C50.6517 41.4619 50.393 41.5522 50.2338 41.7328C50.0777 41.9134 49.9996 42.1782 49.9996 42.5272V50.2969H48.9159ZM62.7935 43.8313C62.6924 43.5221 62.5593 43.2451 62.394 43.0002C62.2317 42.7522 62.0373 42.541 61.8108 42.3665C61.5873 42.192 61.3332 42.0588 61.0485 41.967C60.7638 41.8751 60.4515 41.8292 60.1117 41.8292C59.5546 41.8292 59.0479 41.9731 58.5918 42.2609C58.1356 42.5486 57.7729 42.9726 57.5035 43.5328C57.2341 44.0931 57.0994 44.7803 57.0994 45.5947C57.0994 46.409 57.2356 47.0962 57.5081 47.6565C57.7805 48.2167 58.1494 48.6407 58.6147 48.9285C59.0801 49.2162 59.6036 49.3601 60.1852 49.3601C60.724 49.3601 61.1985 49.2453 61.6087 49.0157C62.022 48.783 62.3434 48.4555 62.573 48.033C62.8057 47.6075 62.922 47.107 62.922 46.5314L63.271 46.6049H60.4424V45.5947H64.0241V46.6049C64.0241 47.3794 63.8588 48.0529 63.5282 48.6254C63.2006 49.1979 62.7475 49.6417 62.169 49.9571C61.5934 50.2693 60.9322 50.4255 60.1852 50.4255C59.3525 50.4255 58.6209 50.2295 57.9902 49.8377C57.3627 49.4458 56.8728 48.8887 56.5208 48.1662C56.1718 47.4437 55.9973 46.5865 55.9973 45.5947C55.9973 44.8508 56.0968 44.1819 56.2958 43.588C56.4978 42.991 56.7825 42.4828 57.1499 42.0634C57.5172 41.644 57.952 41.3226 58.454 41.0991C58.9561 40.8756 59.5086 40.7639 60.1117 40.7639C60.6077 40.7639 61.0699 40.8389 61.4985 40.9889C61.9302 41.1358 62.3144 41.3455 62.6511 41.618C62.9909 41.8874 63.2741 42.2103 63.5006 42.5869C63.7272 42.9604 63.8833 43.3752 63.969 43.8313H62.7935ZM68.4161 53.0888C67.8926 53.0888 67.4425 53.0215 67.066 52.8868C66.6895 52.7551 66.3757 52.5806 66.1246 52.3633C65.8767 52.149 65.6792 51.9194 65.5323 51.6745L66.3956 51.0683C66.4935 51.1969 66.6175 51.3439 66.7675 51.5092C66.9175 51.6775 67.1226 51.823 67.3829 51.9454C67.6461 52.0709 67.9905 52.1337 68.4161 52.1337C68.9855 52.1337 69.4554 51.9959 69.8258 51.7204C70.1962 51.4449 70.3814 51.0132 70.3814 50.4255V48.9927H70.2896C70.21 49.1213 70.0967 49.2805 69.9498 49.4703C69.8059 49.6571 69.5977 49.8239 69.3253 49.9708C69.0559 50.1147 68.6916 50.1867 68.2324 50.1867C67.663 50.1867 67.1517 50.052 66.6986 49.7826C66.2486 49.5132 65.892 49.1213 65.6287 48.607C65.3685 48.0927 65.2384 47.4682 65.2384 46.7335C65.2384 46.011 65.3654 45.3819 65.6195 44.8462C65.8736 44.3074 66.2272 43.891 66.6803 43.5971C67.1334 43.3002 67.6568 43.1517 68.2507 43.1517C68.7099 43.1517 69.0742 43.2282 69.3436 43.3813C69.6161 43.5313 69.8243 43.7028 69.9682 43.8956C70.1151 44.0854 70.2284 44.2415 70.308 44.364H70.4182V43.2436H71.4651V50.4989C71.4651 51.1051 71.3274 51.5979 71.0519 51.9775C70.7794 52.3602 70.412 52.6403 69.9498 52.8179C69.4906 52.9985 68.9793 53.0888 68.4161 53.0888ZM68.3793 49.2132C68.814 49.2132 69.1814 49.1137 69.4814 48.9147C69.7814 48.7157 70.0095 48.4295 70.1656 48.056C70.3217 47.6825 70.3998 47.2355 70.3998 46.7151C70.3998 46.2069 70.3233 45.7584 70.1702 45.3697C70.0171 44.9809 69.7906 44.6763 69.4906 44.4558C69.1906 44.2354 68.8202 44.1252 68.3793 44.1252C67.9201 44.1252 67.5375 44.2415 67.2313 44.4742C66.9282 44.7069 66.7002 45.0191 66.5471 45.411C66.3971 45.8028 66.3221 46.2375 66.3221 46.7151C66.3221 47.2049 66.3986 47.6381 66.5517 48.0146C66.7078 48.3881 66.9374 48.682 67.2405 48.8963C67.5466 49.1075 67.9262 49.2132 68.3793 49.2132ZM76.7155 50.2969V40.8924H77.8543V45.0804H82.8688V40.8924H84.0076V50.2969H82.8688V46.0906H77.8543V50.2969H76.7155ZM86.9657 46.0539V50.2969H85.8819V40.8924H86.9657V44.3456H87.0575C87.2228 43.9813 87.4708 43.692 87.8014 43.4777C88.1351 43.2604 88.579 43.1517 89.1331 43.1517C89.6137 43.1517 90.0346 43.2481 90.3959 43.441C90.7571 43.6308 91.0372 43.9232 91.2362 44.3181C91.4383 44.7099 91.5393 45.2089 91.5393 45.8151V50.2969H90.4556V45.8885C90.4556 45.3283 90.3102 44.8951 90.0193 44.589C89.7316 44.2798 89.3321 44.1252 88.8208 44.1252C88.4657 44.1252 88.1473 44.2002 87.8657 44.3502C87.5871 44.5002 87.3667 44.7191 87.2044 45.0069C87.0452 45.2946 86.9657 45.6436 86.9657 46.0539ZM24.2776 56.8924V66.2969H23.1388V56.8924H24.2776ZM26.1554 66.2969V59.2436H27.2392V66.2969H26.1554ZM26.7065 58.068C26.4953 58.068 26.3131 57.9961 26.16 57.8522C26.01 57.7083 25.935 57.5353 25.935 57.3333C25.935 57.1312 26.01 56.9583 26.16 56.8144C26.3131 56.6705 26.4953 56.5986 26.7065 56.5986C26.9177 56.5986 27.0983 56.6705 27.2483 56.8144C27.4014 56.9583 27.4779 57.1312 27.4779 57.3333C27.4779 57.5353 27.4014 57.7083 27.2483 57.8522C27.0983 57.9961 26.9177 58.068 26.7065 58.068ZM36.0908 56.8924H37.2296V63.6151C37.2296 64.2152 37.1194 64.7249 36.899 65.1443C36.6785 65.5637 36.3678 65.8821 35.9668 66.0994C35.5657 66.3168 35.0928 66.4255 34.5478 66.4255C34.0335 66.4255 33.5759 66.3321 33.1748 66.1453C32.7738 65.9555 32.4585 65.6861 32.2289 65.3371C31.9993 64.9882 31.8845 64.5733 31.8845 64.0927H33.0049C33.0049 64.359 33.0707 64.5917 33.2024 64.7907C33.3371 64.9866 33.5208 65.1397 33.7534 65.2499C33.9861 65.3601 34.2509 65.4152 34.5478 65.4152C34.8754 65.4152 35.154 65.3463 35.3836 65.2086C35.6132 65.0708 35.7877 64.8688 35.9071 64.6024C36.0295 64.333 36.0908 64.0039 36.0908 63.6151V56.8924ZM39.1062 59.2436H40.19V66.8112C40.19 67.2459 40.1149 67.6224 39.9649 67.9408C39.818 68.2592 39.5945 68.5056 39.2945 68.6801C38.9976 68.8546 38.6225 68.9419 38.1695 68.9419C38.1327 68.9419 38.096 68.9419 38.0593 68.9419C38.0225 68.9419 37.9858 68.9419 37.9491 68.9419V67.9316C37.9858 67.9316 38.0195 67.9316 38.0501 67.9316C38.0807 67.9316 38.1144 67.9316 38.1511 67.9316C38.4817 67.9316 38.7236 67.8337 38.8766 67.6377C39.0297 67.4449 39.1062 67.1694 39.1062 66.8112V59.2436ZM39.6389 58.068C39.4277 58.068 39.2455 57.9961 39.0925 57.8522C38.9425 57.7083 38.8675 57.5353 38.8675 57.3333C38.8675 57.1312 38.9425 56.9583 39.0925 56.8144C39.2455 56.6705 39.4277 56.5986 39.6389 56.5986C39.8501 56.5986 40.0308 56.6705 40.1808 56.8144C40.3338 56.9583 40.4104 57.1312 40.4104 57.3333C40.4104 57.5353 40.3338 57.7083 40.1808 57.8522C40.0308 57.9961 39.8501 58.068 39.6389 58.068ZM45.4414 66.2969V56.8924H46.5802V61.5579H46.6904L50.9151 56.8924H52.4029L48.4538 61.1355L52.4029 66.2969H51.0253L47.7558 61.9253L46.5802 63.2478V66.2969H45.4414ZM54.4816 63.7254L54.4632 62.3845H54.6837L57.7695 59.2436H59.1104L55.8225 62.5682H55.7306L54.4816 63.7254ZM53.4714 66.2969V56.8924H54.5551V66.2969H53.4714ZM57.9532 66.2969L55.198 62.8069L55.9694 62.0539L59.3308 66.2969H57.9532ZM63.7717 66.2969V56.8924H64.9106V65.2866H69.2822V66.2969H63.7717ZM71.7236 56.8924V66.2969H70.6399V56.8924H71.7236ZM76.9751 56.8924H78.3343L81.5304 64.6989H81.6406L84.8366 56.8924H86.1958V66.2969H85.1305V59.1517H85.0387L82.0998 66.2969H81.0712L78.1323 59.1517H78.0404V66.2969H76.9751V56.8924ZM88.0737 66.2969V59.2436H89.1206V60.3456H89.2125C89.3594 59.9691 89.5967 59.6767 89.9242 59.4686C90.2518 59.2573 90.6452 59.1517 91.1044 59.1517C91.5697 59.1517 91.957 59.2573 92.2662 59.4686C92.5784 59.6767 92.8218 59.9691 92.9963 60.3456H93.0698C93.2504 59.9813 93.5213 59.692 93.8825 59.4777C94.2438 59.2604 94.677 59.1517 95.1821 59.1517C95.8127 59.1517 96.3286 59.3492 96.7296 59.7441C97.1306 60.1359 97.3311 60.7467 97.3311 61.5763V66.2969H96.2474V61.5763C96.2474 61.0559 96.1051 60.6839 95.8204 60.4604C95.5357 60.237 95.2004 60.1252 94.8147 60.1252C94.3188 60.1252 93.9346 60.2752 93.6621 60.5752C93.3897 60.8722 93.2534 61.2487 93.2534 61.7049V66.2969H92.1514V61.4661C92.1514 61.065 92.0212 60.7421 91.761 60.4972C91.5008 60.2492 91.1656 60.1252 90.7554 60.1252C90.4737 60.1252 90.2105 60.2002 89.9656 60.3502C89.7237 60.5002 89.5278 60.7084 89.3778 60.9747C89.2308 61.238 89.1574 61.5426 89.1574 61.8885V66.2969H88.0737ZM30.5962 72.8924V82.2969H29.4942L24.3695 74.9129H24.2776V82.2969H23.1388V72.8924H24.2409L29.3839 80.2948H29.4758V72.8924H30.5962ZM33.5532 78.0539V82.2969H32.4695V75.2436H33.5164V76.3456H33.6083C33.7736 75.9875 34.0246 75.6997 34.3614 75.4823C34.6981 75.2619 35.1328 75.1517 35.6655 75.1517C36.1431 75.1517 36.5609 75.2497 36.9191 75.4456C37.2773 75.6385 37.5559 75.9324 37.7549 76.3273C37.9538 76.7191 38.0533 77.2151 38.0533 77.8151V82.2969H36.9696V77.8885C36.9696 77.3344 36.8257 76.9028 36.538 76.5936C36.2502 76.2813 35.8553 76.1252 35.3532 76.1252C35.0073 76.1252 34.6981 76.2002 34.4256 76.3502C34.1563 76.5002 33.9435 76.7191 33.7874 77.0069C33.6312 77.2946 33.5532 77.6436 33.5532 78.0539ZM51.2352 77.5947C51.2352 78.5865 51.0561 79.4437 50.6979 80.1662C50.3398 80.8887 49.8484 81.4458 49.2239 81.8377C48.5994 82.2295 47.8861 82.4255 47.084 82.4255C46.282 82.4255 45.5687 82.2295 44.9441 81.8377C44.3196 81.4458 43.8283 80.8887 43.4701 80.1662C43.1119 79.4437 42.9328 78.5865 42.9328 77.5947C42.9328 76.6028 43.1119 75.7456 43.4701 75.0231C43.8283 74.3007 44.3196 73.7435 44.9441 73.3516C45.5687 72.9598 46.282 72.7639 47.084 72.7639C47.8861 72.7639 48.5994 72.9598 49.2239 73.3516C49.8484 73.7435 50.3398 74.3007 50.6979 75.0231C51.0561 75.7456 51.2352 76.6028 51.2352 77.5947ZM50.1331 77.5947C50.1331 76.7803 49.9969 76.0931 49.7244 75.5328C49.455 74.9726 49.0892 74.5486 48.6269 74.2609C48.1677 73.9731 47.6534 73.8292 47.084 73.8292C46.5146 73.8292 45.9988 73.9731 45.5365 74.2609C45.0773 74.5486 44.7115 74.9726 44.439 75.5328C44.1696 76.0931 44.0349 76.7803 44.0349 77.5947C44.0349 78.409 44.1696 79.0962 44.439 79.6565C44.7115 80.2167 45.0773 80.6407 45.5365 80.9285C45.9988 81.2162 46.5146 81.3601 47.084 81.3601C47.6534 81.3601 48.1677 81.2162 48.6269 80.9285C49.0892 80.6407 49.455 80.2167 49.7244 79.6565C49.9969 79.0962 50.1331 78.409 50.1331 77.5947ZM55.6099 82.4438C54.9732 82.4438 54.4145 82.2923 53.9338 81.9892C53.4563 81.6861 53.0828 81.2621 52.8134 80.7172C52.547 80.1723 52.4139 79.5355 52.4139 78.8069C52.4139 78.0722 52.547 77.4309 52.8134 76.8829C53.0828 76.3349 53.4563 75.9094 53.9338 75.6063C54.4145 75.3032 54.9732 75.1517 55.6099 75.1517C56.2467 75.1517 56.8038 75.3032 57.2814 75.6063C57.762 75.9094 58.1355 76.3349 58.4019 76.8829C58.6712 77.4309 58.8059 78.0722 58.8059 78.8069C58.8059 79.5355 58.6712 80.1723 58.4019 80.7172C58.1355 81.2621 57.762 81.6861 57.2814 81.9892C56.8038 82.2923 56.2467 82.4438 55.6099 82.4438ZM55.6099 81.4703C56.0936 81.4703 56.4916 81.3463 56.8038 81.0984C57.1161 80.8504 57.3472 80.5244 57.4972 80.1203C57.6472 79.7162 57.7222 79.2784 57.7222 78.8069C57.7222 78.3355 57.6472 77.8962 57.4972 77.489C57.3472 77.0819 57.1161 76.7528 56.8038 76.5018C56.4916 76.2507 56.0936 76.1252 55.6099 76.1252C55.1262 76.1252 54.7282 76.2507 54.416 76.5018C54.1037 76.7528 53.8726 77.0819 53.7226 77.489C53.5726 77.8962 53.4976 78.3355 53.4976 78.8069C53.4976 79.2784 53.5726 79.7162 53.7226 80.1203C53.8726 80.5244 54.1037 80.8504 54.416 81.0984C54.7282 81.3463 55.1262 81.4703 55.6099 81.4703ZM63.7268 82.2969V72.8924H66.9045C67.6422 72.8924 68.2453 73.0256 68.7137 73.2919C69.1852 73.5552 69.5341 73.9119 69.7607 74.3619C69.9872 74.8119 70.1005 75.314 70.1005 75.8681C70.1005 76.4222 69.9872 76.9258 69.7607 77.3788C69.5372 77.8319 69.1913 78.1932 68.7229 78.4625C68.2545 78.7289 67.6545 78.8621 66.9228 78.8621H64.6452V77.8518H66.8861C67.3912 77.8518 67.7968 77.7646 68.103 77.5901C68.4091 77.4156 68.6311 77.1798 68.7688 76.8829C68.9096 76.5829 68.98 76.2446 68.98 75.8681C68.98 75.4915 68.9096 75.1548 68.7688 74.8578C68.6311 74.5609 68.4076 74.3282 68.0984 74.1598C67.7892 73.9884 67.379 73.9027 66.8677 73.9027H64.8656V82.2969H63.7268ZM71.5294 84.9419V75.2436H72.5764V76.364H72.705C72.7846 76.2415 72.8948 76.0854 73.0356 75.8956C73.1795 75.7028 73.3846 75.5313 73.6509 75.3813C73.9203 75.2282 74.2846 75.1517 74.7438 75.1517C75.3377 75.1517 75.8612 75.3002 76.3143 75.5971C76.7674 75.8941 77.121 76.315 77.3751 76.8599C77.6292 77.4049 77.7562 78.0477 77.7562 78.7886C77.7562 79.5355 77.6292 80.183 77.3751 80.731C77.121 81.2759 76.7689 81.6984 76.3189 81.9984C75.8689 82.2953 75.35 82.4438 74.7622 82.4438C74.3091 82.4438 73.9464 82.3688 73.6739 82.2188C73.4014 82.0657 73.1917 81.8928 73.0448 81.6999C72.8979 81.504 72.7846 81.3417 72.705 81.2132H72.6132V84.9419H71.5294ZM72.5948 78.7702C72.5948 79.3029 72.6728 79.7728 72.829 80.18C72.9851 80.5841 73.2132 80.9009 73.5132 81.1305C73.8132 81.357 74.1806 81.4703 74.6153 81.4703C75.0683 81.4703 75.4464 81.3509 75.7495 81.1121C76.0556 80.8703 76.2852 80.5458 76.4383 80.1386C76.5944 79.7284 76.6725 79.2723 76.6725 78.7702C76.6725 78.2743 76.596 77.8273 76.4429 77.4293C76.2929 77.0283 76.0648 76.7115 75.7587 76.4788C75.4556 76.2431 75.0745 76.1252 74.6153 76.1252C74.1744 76.1252 73.804 76.237 73.504 76.4604C73.204 76.6809 72.9774 76.99 72.8244 77.388C72.6713 77.7829 72.5948 78.2437 72.5948 78.7702ZM86.0923 79.358H87.3414L88.3883 80.7356L88.6639 81.103L90.2251 83.1785H88.9761L87.9475 81.8009L87.6904 81.4519L86.0923 79.358ZM90.6109 77.5947C90.6109 78.5865 90.4318 79.4437 90.0736 80.1662C89.7154 80.8887 89.2241 81.4458 88.5996 81.8377C87.9751 82.2295 87.2618 82.4255 86.4597 82.4255C85.6576 82.4255 84.9443 82.2295 84.3198 81.8377C83.6953 81.4458 83.204 80.8887 82.8458 80.1662C82.4876 79.4437 82.3085 78.5865 82.3085 77.5947C82.3085 76.6028 82.4876 75.7456 82.8458 75.0231C83.204 74.3007 83.6953 73.7435 84.3198 73.3516C84.9443 72.9598 85.6576 72.7639 86.4597 72.7639C87.2618 72.7639 87.9751 72.9598 88.5996 73.3516C89.2241 73.7435 89.7154 74.3007 90.0736 75.0231C90.4318 75.7456 90.6109 76.6028 90.6109 77.5947ZM89.5088 77.5947C89.5088 76.7803 89.3726 76.0931 89.1001 75.5328C88.8307 74.9726 88.4649 74.5486 88.0026 74.2609C87.5434 73.9731 87.0291 73.8292 86.4597 73.8292C85.8903 73.8292 85.3745 73.9731 84.9122 74.2609C84.453 74.5486 84.0872 74.9726 83.8147 75.5328C83.5453 76.0931 83.4106 76.7803 83.4106 77.5947C83.4106 78.409 83.5453 79.0962 83.8147 79.6565C84.0872 80.2167 84.453 80.6407 84.9122 80.9285C85.3745 81.2162 85.8903 81.3601 86.4597 81.3601C87.0291 81.3601 87.5434 81.2162 88.0026 80.9285C88.4649 80.6407 88.8307 80.2167 89.1001 79.6565C89.3726 79.0962 89.5088 78.409 89.5088 77.5947ZM96.9326 84.9419V81.2132H96.8408C96.7612 81.3417 96.6479 81.504 96.501 81.6999C96.354 81.8928 96.1443 82.0657 95.8718 82.2188C95.5994 82.3688 95.2366 82.4438 94.7835 82.4438C94.1958 82.4438 93.6769 82.2953 93.2269 81.9984C92.7768 81.6984 92.4248 81.2759 92.1707 80.731C91.9166 80.183 91.7896 79.5355 91.7896 78.7886C91.7896 78.0477 91.9166 77.4049 92.1707 76.8599C92.4248 76.315 92.7784 75.8941 93.2314 75.5971C93.6845 75.3002 94.208 75.1517 94.8019 75.1517C95.2611 75.1517 95.6239 75.2282 95.8902 75.3813C96.1596 75.5313 96.3647 75.7028 96.5055 75.8956C96.6494 76.0854 96.7612 76.2415 96.8408 76.364H96.9693V75.2436H98.0163V84.9419H96.9326ZM94.9305 81.4703C95.3652 81.4703 95.7326 81.357 96.0326 81.1305C96.3326 80.9009 96.5606 80.5841 96.7168 80.18C96.8729 79.7728 96.951 79.3029 96.951 78.7702C96.951 78.2437 96.8744 77.7829 96.7214 77.388C96.5683 76.99 96.3418 76.6809 96.0418 76.4604C95.7417 76.237 95.3713 76.1252 94.9305 76.1252C94.4713 76.1252 94.0886 76.2431 93.7825 76.4788C93.4794 76.7115 93.2513 77.0283 93.0983 77.4293C92.9483 77.8273 92.8733 78.2743 92.8733 78.7702C92.8733 79.2723 92.9498 79.7284 93.1029 80.1386C93.259 80.5458 93.4886 80.8703 93.7917 81.1121C94.0978 81.3509 94.4774 81.4703 94.9305 81.4703ZM23.1388 98.2969V88.8924H26.3165C27.0512 88.8924 27.6543 89.018 28.1257 89.269C28.5972 89.517 28.9462 89.8583 29.1727 90.293C29.3993 90.7277 29.5125 91.2221 29.5125 91.7762C29.5125 92.3303 29.3993 92.8217 29.1727 93.2503C28.9462 93.6788 28.5987 94.0156 28.1303 94.2605C27.6619 94.5023 27.0635 94.6233 26.3349 94.6233H23.7633V93.5947H26.2981C26.8002 93.5947 27.2043 93.5212 27.5104 93.3742C27.8196 93.2273 28.0431 93.0191 28.1808 92.7497C28.3217 92.4773 28.3921 92.1528 28.3921 91.7762C28.3921 91.3997 28.3217 91.0706 28.1808 90.7889C28.04 90.5073 27.815 90.2899 27.5058 90.1369C27.1966 89.9807 26.7879 89.9027 26.2798 89.9027H24.2776V98.2969H23.1388ZM27.5655 94.0722L29.8799 98.2969H28.5574L26.2798 94.0722H27.5655ZM31.0046 98.2969V91.2436H32.0516V92.3089H32.1251C32.2536 91.9599 32.4863 91.6767 32.823 91.4594C33.1598 91.242 33.5394 91.1333 33.9619 91.1333C34.0415 91.1333 34.1409 91.1349 34.2603 91.1379C34.3797 91.141 34.47 91.1456 34.5313 91.1517V92.2538C34.4945 92.2446 34.4103 92.2308 34.2787 92.2125C34.1501 92.191 34.0139 92.1803 33.87 92.1803C33.5271 92.1803 33.221 92.2523 32.9516 92.3961C32.6853 92.537 32.474 92.7329 32.3179 92.9839C32.1649 93.2319 32.0883 93.5151 32.0883 93.8334V98.2969H31.0046ZM44.2255 91.2436C44.1704 90.7782 43.9469 90.417 43.5551 90.1598C43.1632 89.9027 42.6826 89.7741 42.1132 89.7741C41.6968 89.7741 41.3325 89.8415 41.0203 89.9762C40.7111 90.1109 40.4692 90.2961 40.2947 90.5318C40.1233 90.7675 40.0376 91.0354 40.0376 91.3354C40.0376 91.5864 40.0973 91.8022 40.2167 91.9829C40.3391 92.1604 40.4953 92.3089 40.6851 92.4283C40.8749 92.5446 41.0739 92.6411 41.282 92.7176C41.4902 92.7911 41.6815 92.8508 41.856 92.8967L42.8112 93.1538C43.0561 93.2181 43.3285 93.3069 43.6285 93.4202C43.9316 93.5334 44.2209 93.688 44.4964 93.884C44.775 94.0768 45.0046 94.3248 45.1852 94.6279C45.3658 94.9309 45.4562 95.3029 45.4562 95.7437C45.4562 96.2519 45.323 96.7111 45.0567 97.1213C44.7934 97.5315 44.4076 97.8576 43.8995 98.0994C43.3943 98.3413 42.7805 98.4622 42.0581 98.4622C41.3846 98.4622 40.8014 98.3535 40.3085 98.1362C39.8187 97.9188 39.433 97.6157 39.1513 97.2269C38.8727 96.8381 38.7151 96.3866 38.6784 95.8723H39.8539C39.8845 96.2274 40.0039 96.5213 40.2121 96.754C40.4233 96.9836 40.6897 97.155 41.0111 97.2683C41.3356 97.3785 41.6846 97.4336 42.0581 97.4336C42.4928 97.4336 42.8831 97.3632 43.229 97.2223C43.575 97.0785 43.849 96.8795 44.051 96.6254C44.2531 96.3682 44.3541 96.0682 44.3541 95.7254C44.3541 95.4131 44.2668 95.159 44.0923 94.9631C43.9178 94.7672 43.6882 94.608 43.4035 94.4855C43.1188 94.3631 42.8112 94.2559 42.4805 94.1641L41.3233 93.8334C40.5886 93.6222 40.007 93.3207 39.5784 92.9288C39.1498 92.537 38.9355 92.0242 38.9355 91.3905C38.9355 90.8639 39.0779 90.4047 39.3626 90.0129C39.6503 89.618 40.0361 89.3118 40.5197 89.0945C41.0065 88.8741 41.5499 88.7639 42.1499 88.7639C42.7561 88.7639 43.2949 88.8725 43.7663 89.0899C44.2377 89.3042 44.6112 89.5981 44.8867 89.9716C45.1653 90.345 45.3123 90.769 45.3276 91.2436H44.2255ZM51.9191 92.8232L50.9456 93.0987C50.8844 92.9365 50.794 92.7788 50.6747 92.6257C50.5583 92.4696 50.3991 92.341 50.1971 92.24C49.995 92.139 49.7363 92.0885 49.421 92.0885C48.9894 92.0885 48.6297 92.188 48.3419 92.387C48.0572 92.5829 47.9149 92.8324 47.9149 93.1355C47.9149 93.4049 48.0128 93.6176 48.2087 93.7737C48.4047 93.9299 48.7108 94.06 49.1271 94.1641L50.1741 94.4212C50.8048 94.5743 51.2747 94.8085 51.5839 95.1238C51.8931 95.4361 52.0477 95.8386 52.0477 96.3315C52.0477 96.7356 51.9313 97.0968 51.6987 97.4152C51.4691 97.7336 51.1476 97.9846 50.7343 98.1683C50.3211 98.352 49.8404 98.4438 49.2925 98.4438C48.573 98.4438 47.9776 98.2877 47.5062 97.9754C47.0347 97.6632 46.7362 97.207 46.6107 96.607L47.6393 96.3499C47.7373 96.7295 47.9225 97.0142 48.195 97.204C48.4705 97.3938 48.8302 97.4887 49.2741 97.4887C49.7792 97.4887 50.1802 97.3815 50.4772 97.1672C50.7772 96.9499 50.9272 96.6897 50.9272 96.3866C50.9272 96.1417 50.8415 95.9366 50.6701 95.7713C50.4986 95.6029 50.2353 95.4774 49.8802 95.3947L48.7047 95.1192C48.0587 94.9661 47.5842 94.7289 47.2812 94.4074C46.9811 94.0829 46.8311 93.6773 46.8311 93.1906C46.8311 92.7926 46.9429 92.4405 47.1664 92.1344C47.3929 91.8283 47.7006 91.588 48.0894 91.4135C48.4812 91.239 48.9251 91.1517 49.421 91.1517C50.119 91.1517 50.667 91.3048 51.065 91.6109C51.466 91.917 51.7507 92.3211 51.9191 92.8232ZM56.4312 89.9027V88.8924H63.4846V89.9027H60.5273V98.2969H59.3885V89.9027H56.4312ZM67.904 91.2436V92.162H64.2488V91.2436H67.904ZM65.3142 89.5537H66.3979V96.2764C66.3979 96.5825 66.4423 96.8121 66.531 96.9652C66.6229 97.1152 66.7392 97.2162 66.88 97.2683C67.0239 97.3172 67.1754 97.3417 67.3346 97.3417C67.454 97.3417 67.552 97.3356 67.6285 97.3234C67.7051 97.3081 67.7663 97.2958 67.8122 97.2866L68.0326 98.2601C67.9591 98.2877 67.8566 98.3152 67.725 98.3428C67.5933 98.3734 67.4265 98.3887 67.2244 98.3887C66.9183 98.3887 66.6183 98.3229 66.3244 98.1913C66.0336 98.0596 65.7917 97.8591 65.5989 97.5897C65.4091 97.3203 65.3142 96.9805 65.3142 96.5703V89.5537ZM78.9724 88.8924H80.1113V95.1192C80.1113 95.7621 79.9597 96.3361 79.6566 96.8412C79.3566 97.3433 78.9326 97.7397 78.3847 98.0305C77.8367 98.3183 77.1938 98.4622 76.456 98.4622C75.7182 98.4622 75.0754 98.3183 74.5274 98.0305C73.9794 97.7397 73.5539 97.3433 73.2508 96.8412C72.9508 96.3361 72.8008 95.7621 72.8008 95.1192V88.8924H73.9396V95.0274C73.9396 95.4866 74.0406 95.8953 74.2427 96.2534C74.4447 96.6085 74.7325 96.8887 75.106 97.0938C75.4825 97.2958 75.9325 97.3968 76.456 97.3968C76.9795 97.3968 77.4295 97.2958 77.8061 97.0938C78.1826 96.8887 78.4704 96.6085 78.6694 96.2534C78.8714 95.8953 78.9724 95.4866 78.9724 95.0274V88.8924ZM86.4249 95.4131V91.2436H87.5087V98.2969H86.4249V97.103H86.3515C86.1862 97.4611 85.929 97.7657 85.58 98.0168C85.231 98.2647 84.7902 98.3887 84.2575 98.3887C83.8167 98.3887 83.4248 98.2923 83.082 98.0994C82.7391 97.9035 82.4697 97.6096 82.2738 97.2178C82.0778 96.8228 81.9799 96.3254 81.9799 95.7254V91.2436H83.0636V95.6519C83.0636 96.1662 83.2075 96.5764 83.4952 96.8825C83.7861 97.1887 84.1565 97.3417 84.6065 97.3417C84.8759 97.3417 85.1499 97.2729 85.4285 97.1351C85.7101 96.9973 85.9458 96.7861 86.1356 96.5014C86.3285 96.2167 86.4249 95.8539 86.4249 95.4131Z" fill="white"/>
</svg>
