<svg width="123" height="123" viewBox="0 0 123 123" fill="none" xmlns="http://www.w3.org/2000/svg">
<path d="M112.672 121.547H9.62635C4.72495 121.547 0.751587 117.574 0.751587 112.672V9.62635C0.751587 4.72495 4.72495 0.751587 9.62636 0.751587H112.672C117.574 0.751587 121.547 4.72495 121.547 9.62636V112.672C121.547 117.574 117.574 121.547 112.672 121.547Z" fill="#0C0B0F"/>
<path d="M112.672 121.547H9.62635C4.72495 121.547 0.751587 117.574 0.751587 112.672V9.62635C0.751587 4.72495 4.72495 0.751587 9.62636 0.751587H112.672C117.574 0.751587 121.547 4.72495 121.547 9.62636V112.672C121.547 117.574 117.574 121.547 112.672 121.547Z" stroke="#3F3A4B" stroke-width="1.5"/>
<ellipse cx="37.7572" cy="37.5887" rx="16.1283" ry="15.9637" stroke="#DBCFFC" stroke-width="0.621586" stroke-dasharray="0.31 0.31"/>
<circle cx="37.7588" cy="39.4034" r="14.1534" stroke="#DBCFFC" stroke-width="0.621586" stroke-dasharray="0.31 0.31"/>
<ellipse cx="37.7574" cy="42.0358" rx="11.191" ry="11.5202" stroke="#DBCFFC" stroke-width="0.621586" stroke-dasharray="0.31 0.31"/>
<ellipse cx="37.76" cy="45.1589" rx="8.2287" ry="8.39328" stroke="#DBCFFC" stroke-width="0.621586" stroke-dasharray="0.31 0.31"/>
<ellipse cx="37.7606" cy="47.9549" rx="5.92467" ry="5.59552" stroke="#DBCFFC" stroke-width="0.621586" stroke-dasharray="0.31 0.31"/>
<ellipse cx="37.7565" cy="49.4425" rx="4.60807" ry="4.11435" stroke="#DBCFFC" stroke-width="0.621586" stroke-dasharray="0.31 0.31"/>
<circle cx="78.3037" cy="44.1797" r="8.95694" transform="rotate(-45 78.3037 44.1797)" stroke="#DBCFFC" stroke-width="0.621586" stroke-dasharray="0.31 0.31"/>
<circle cx="90.9717" cy="31.5078" r="8.95694" transform="rotate(-45 90.9717 31.5078)" stroke="#DBCFFC" stroke-width="0.621586" stroke-dasharray="0.31 0.31"/>
<circle cx="78.3047" cy="31.5108" r="8.64615" transform="rotate(45 78.3047 31.5108)" stroke="#DBCFFC" stroke-width="0.621586"/>
<circle cx="90.9688" cy="44.1748" r="8.64615" transform="rotate(45 90.9688 44.1748)" stroke="#DBCFFC" stroke-width="0.621586"/>
<path d="M42.6583 91.1972C38.7011 95.1544 34.4238 98.0212 30.718 99.4645C28.8647 100.186 27.1684 100.547 25.7345 100.519C24.3027 100.492 23.1524 100.08 22.3503 99.2776C21.5482 98.4755 21.136 97.3253 21.1087 95.8935C21.0814 94.4595 21.4416 92.7633 22.1635 90.91C23.6067 87.2042 26.4736 82.9269 30.4308 78.9697C34.388 75.0125 38.6653 72.1456 42.3711 70.7023C44.2244 69.9805 45.9207 69.6203 47.3546 69.6476C48.7864 69.6749 49.9367 70.0871 50.7387 70.8892C51.5408 71.6913 51.9531 72.8416 51.9803 74.2734C52.0077 75.7073 51.6474 77.4035 50.9256 79.2569C49.4823 82.9627 46.6155 87.2399 42.6583 91.1972Z" stroke="#DBCFFC" stroke-width="0.621586"/>
<path d="M30.4317 91.1974C26.4745 87.2401 23.6077 82.9629 22.1644 79.2571C21.4426 77.4037 21.0824 75.7075 21.1097 74.2736C21.137 72.8418 21.5492 71.6915 22.3513 70.8894C23.1534 70.0873 24.3036 69.6751 25.7355 69.6478C27.1694 69.6205 28.8656 69.9807 30.719 70.7025C34.4247 72.1458 38.702 75.0126 42.6592 78.9699C46.6165 82.9271 49.4833 87.2044 50.9266 90.9101C51.6484 92.7635 52.0086 94.4597 51.9813 95.8936C51.954 97.3254 51.5418 98.4757 50.7397 99.2778C49.9376 100.08 48.7873 100.492 47.3555 100.519C45.9216 100.547 44.2254 100.187 42.372 99.4647C38.6662 98.0214 34.389 95.1546 30.4317 91.1974Z" stroke="#DBCFFC" stroke-width="0.621586"/>
<ellipse cx="37.0993" cy="85.2387" rx="16.4509" ry="16.4574" stroke="#DBCFFC" stroke-width="0.621586" stroke-dasharray="0.31 0.31"/>
<path d="M84.5469 68.0859V101.001" stroke="#DBCFFC" stroke-width="0.621586" stroke-dasharray="0.31 0.31"/>
<path d="M68.0898 84.5469L101.005 84.5469" stroke="#DBCFFC" stroke-width="0.621586" stroke-dasharray="0.31 0.31"/>
<path d="M72.9102 72.9062L96.1844 96.1805" stroke="#DBCFFC" stroke-width="0.621586" stroke-dasharray="0.31 0.31"/>
<path d="M72.9102 96.1797L96.1844 72.9054" stroke="#DBCFFC" stroke-width="0.621586" stroke-dasharray="0.31 0.31"/>
<path d="M70.293 92.7734L98.798 76.316" stroke="#DBCFFC" stroke-width="0.621586" stroke-dasharray="0.31 0.31"/>
<path d="M68.6484 88.8047L100.442 80.2857" stroke="#DBCFFC" stroke-width="0.621586" stroke-dasharray="0.31 0.31"/>
<path d="M68.6484 80.2812L100.442 88.8002" stroke="#DBCFFC" stroke-width="0.621586" stroke-dasharray="0.31 0.31"/>
<path d="M70.293 76.3125L98.798 92.7699" stroke="#DBCFFC" stroke-width="0.621586" stroke-dasharray="0.31 0.31"/>
<path d="M76.3203 70.2891L92.7777 98.7941" stroke="#DBCFFC" stroke-width="0.621586" stroke-dasharray="0.31 0.31"/>
<path d="M80.2891 68.6484L88.808 100.442" stroke="#DBCFFC" stroke-width="0.621586" stroke-dasharray="0.31 0.31"/>
<path d="M88.8047 68.6484L80.2857 100.442" stroke="#DBCFFC" stroke-width="0.621586" stroke-dasharray="0.31 0.31"/>
<path d="M92.7773 70.2891L76.3199 98.7941" stroke="#DBCFFC" stroke-width="0.621586" stroke-dasharray="0.31 0.31"/>
</svg>
