<svg width="123" height="123" viewBox="0 0 123 123" fill="none" xmlns="http://www.w3.org/2000/svg">
<path d="M112.672 121.547H9.62635C4.72495 121.547 0.751587 117.574 0.751587 112.672V9.62635C0.751587 4.72495 4.72495 0.751587 9.62636 0.751587H112.672C117.574 0.751587 121.547 4.72495 121.547 9.62636V112.672C121.547 117.574 117.574 121.547 112.672 121.547Z" fill="#0C0B0F"/>
<path d="M112.672 121.547H9.62635C4.72495 121.547 0.751587 117.574 0.751587 112.672V9.62635C0.751587 4.72495 4.72495 0.751587 9.62636 0.751587H112.672C117.574 0.751587 121.547 4.72495 121.547 9.62636V112.672C121.547 117.574 117.574 121.547 112.672 121.547Z" stroke="#3F3A4B" stroke-width="1.5"/>
<path opacity="0.4" d="M44.6797 28.6057C44.6797 27.1709 45.8428 26.0078 47.2775 26.0078L56.4883 26.0078C57.9231 26.0078 59.0862 27.1709 59.0862 28.6057V93.5245C59.0862 94.9593 57.9231 96.1224 56.4883 96.1224H47.2775C45.8428 96.1224 44.6797 94.9593 44.6797 93.5245V28.6057Z" fill="#DDD3F8"/>
<path opacity="0.7" d="M63.2031 28.6057C63.2031 27.1709 64.3662 26.0078 65.801 26.0078L75.0118 26.0078C76.4465 26.0078 77.6096 27.1709 77.6096 28.6057V93.5245C77.6096 94.9593 76.4465 96.1224 75.0118 96.1224H65.801C64.3662 96.1224 63.2031 94.9593 63.2031 93.5245V28.6057Z" fill="#DDD3F8"/>
<path opacity="0.9" d="M81.7266 28.6057C81.7266 27.1709 82.8897 26.0078 84.3244 26.0078L93.5352 26.0078C94.97 26.0078 96.133 27.1709 96.133 28.6057V93.5245C96.133 94.9593 94.97 96.1224 93.5352 96.1224H84.3244C82.8897 96.1224 81.7266 94.9593 81.7266 93.5245V28.6057Z" fill="#DDD3F8"/>
<rect opacity="0.15" x="26.1602" y="26.0078" width="14.4065" height="70.1146" rx="2.59784" fill="#DDD3F8"/>
</svg>
