<svg width="200" height="164" viewBox="0 0 200 164" fill="none" xmlns="http://www.w3.org/2000/svg">
<path opacity="0.6" d="M69.8628 149.21C68.8594 149.21 68.0124 148.988 67.3218 148.545C66.6311 148.097 66.1084 147.479 65.7538 146.69C65.3991 145.901 65.2218 144.991 65.2218 143.96C65.2218 142.929 65.3991 142.019 65.7538 141.23C66.1084 140.441 66.6311 139.825 67.3218 139.382C68.0124 138.934 68.8594 138.71 69.8628 138.71C71.0341 138.71 71.9908 139.011 72.7328 139.613C73.4748 140.21 73.9834 141.013 74.2588 142.021L73.2088 142.294C72.9941 141.496 72.6091 140.864 72.0538 140.397C71.4984 139.93 70.7681 139.697 69.8628 139.697C69.0741 139.697 68.4184 139.877 67.8958 140.236C67.3731 140.595 66.9788 141.097 66.7128 141.741C66.4514 142.38 66.3161 143.12 66.3068 143.96C66.3021 144.8 66.4304 145.54 66.6918 146.179C66.9578 146.818 67.3544 147.32 67.8818 147.684C68.4138 148.043 69.0741 148.223 69.8628 148.223C70.7681 148.223 71.4984 147.99 72.0538 147.523C72.6091 147.052 72.9941 146.419 73.2088 145.626L74.2588 145.899C73.9834 146.907 73.4748 147.712 72.7328 148.314C71.9908 148.911 71.0341 149.21 69.8628 149.21ZM78.9602 149.21C78.2089 149.21 77.5672 149.04 77.0352 148.699C76.5032 148.358 76.0949 147.887 75.8102 147.285C75.5256 146.683 75.3832 145.992 75.3832 145.213C75.3832 144.42 75.5279 143.724 75.8172 143.127C76.1066 142.53 76.5172 142.065 77.0492 141.734C77.5859 141.398 78.2229 141.23 78.9602 141.23C79.7162 141.23 80.3602 141.4 80.8922 141.741C81.4289 142.077 81.8372 142.546 82.1172 143.148C82.4019 143.745 82.5442 144.434 82.5442 145.213C82.5442 146.006 82.4019 146.704 82.1172 147.306C81.8326 147.903 81.4219 148.37 80.8852 148.706C80.3486 149.042 79.7069 149.21 78.9602 149.21ZM78.9602 148.223C79.8002 148.223 80.4256 147.945 80.8362 147.39C81.2469 146.83 81.4522 146.104 81.4522 145.213C81.4522 144.298 81.2446 143.57 80.8292 143.029C80.4186 142.488 79.7956 142.217 78.9602 142.217C78.3956 142.217 77.9289 142.345 77.5602 142.602C77.1962 142.854 76.9232 143.206 76.7412 143.659C76.5639 144.107 76.4752 144.625 76.4752 145.213C76.4752 146.123 76.6852 146.853 77.1052 147.404C77.5252 147.95 78.1436 148.223 78.9602 148.223ZM89.5484 149V145.143C89.5484 144.723 89.5087 144.338 89.4294 143.988C89.3501 143.633 89.2217 143.325 89.0444 143.064C88.8717 142.798 88.6454 142.593 88.3654 142.448C88.0901 142.303 87.7541 142.231 87.3574 142.231C86.9934 142.231 86.6714 142.294 86.3914 142.42C86.1161 142.546 85.8827 142.728 85.6914 142.966C85.5047 143.199 85.3624 143.484 85.2644 143.82C85.1664 144.156 85.1174 144.539 85.1174 144.968L84.3894 144.807C84.3894 144.032 84.5247 143.381 84.7954 142.854C85.0661 142.327 85.4394 141.928 85.9154 141.657C86.3914 141.386 86.9374 141.251 87.5534 141.251C88.0061 141.251 88.4004 141.321 88.7364 141.461C89.0771 141.601 89.3641 141.79 89.5974 142.028C89.8354 142.266 90.0267 142.539 90.1714 142.847C90.3161 143.15 90.4211 143.475 90.4864 143.82C90.5517 144.161 90.5844 144.501 90.5844 144.842V149H89.5484ZM84.0814 149V141.44H85.0124V143.302H85.1174V149H84.0814ZM96.5169 149C96.0922 149.089 95.6722 149.124 95.2569 149.105C94.8462 149.086 94.4776 148.998 94.1509 148.839C93.8289 148.68 93.5839 148.433 93.4159 148.097C93.2806 147.817 93.2059 147.535 93.1919 147.25C93.1826 146.961 93.1779 146.632 93.1779 146.263V139.34H94.1999V146.221C94.1999 146.538 94.2022 146.804 94.2069 147.019C94.2162 147.229 94.2652 147.416 94.3539 147.579C94.5219 147.892 94.7879 148.078 95.1519 148.139C95.5206 148.2 95.9756 148.186 96.5169 148.097V149ZM91.5609 142.322V141.44H96.5169V142.322H91.5609ZM100.932 149.21C100.195 149.21 99.5553 149.047 99.0139 148.72C98.4773 148.393 98.0596 147.934 97.7609 147.341C97.4623 146.748 97.3129 146.053 97.3129 145.255C97.3129 144.429 97.4599 143.715 97.7539 143.113C98.0479 142.511 98.4609 142.047 98.9929 141.72C99.5296 141.393 100.162 141.23 100.89 141.23C101.637 141.23 102.274 141.403 102.801 141.748C103.328 142.089 103.727 142.579 103.998 143.218C104.269 143.857 104.392 144.62 104.369 145.507H103.319V145.143C103.3 144.163 103.088 143.423 102.682 142.924C102.281 142.425 101.693 142.175 100.918 142.175C100.106 142.175 99.4829 142.439 99.0489 142.966C98.6196 143.493 98.4049 144.245 98.4049 145.22C98.4049 146.172 98.6196 146.912 99.0489 147.439C99.4829 147.962 100.097 148.223 100.89 148.223C101.431 148.223 101.903 148.099 102.304 147.852C102.71 147.6 103.03 147.238 103.263 146.767L104.222 147.138C103.923 147.796 103.482 148.307 102.899 148.671C102.32 149.03 101.665 149.21 100.932 149.21ZM98.0409 145.507V144.646H103.816V145.507H98.0409ZM111.177 149V145.143C111.177 144.723 111.138 144.338 111.058 143.988C110.979 143.633 110.851 143.325 110.673 143.064C110.501 142.798 110.274 142.593 109.994 142.448C109.719 142.303 109.383 142.231 108.986 142.231C108.622 142.231 108.3 142.294 108.02 142.42C107.745 142.546 107.512 142.728 107.32 142.966C107.134 143.199 106.991 143.484 106.893 143.82C106.795 144.156 106.746 144.539 106.746 144.968L106.018 144.807C106.018 144.032 106.154 143.381 106.424 142.854C106.695 142.327 107.068 141.928 107.544 141.657C108.02 141.386 108.566 141.251 109.182 141.251C109.635 141.251 110.029 141.321 110.365 141.461C110.706 141.601 110.993 141.79 111.226 142.028C111.464 142.266 111.656 142.539 111.8 142.847C111.945 143.15 112.05 143.475 112.115 143.82C112.181 144.161 112.213 144.501 112.213 144.842V149H111.177ZM105.71 149V141.44H106.641V143.302H106.746V149H105.71ZM118.146 149C117.721 149.089 117.301 149.124 116.886 149.105C116.475 149.086 116.106 148.998 115.78 148.839C115.458 148.68 115.213 148.433 115.045 148.097C114.909 147.817 114.835 147.535 114.821 147.25C114.811 146.961 114.807 146.632 114.807 146.263V139.34H115.829V146.221C115.829 146.538 115.831 146.804 115.836 147.019C115.845 147.229 115.894 147.416 115.983 147.579C116.151 147.892 116.417 148.078 116.781 148.139C117.149 148.2 117.604 148.186 118.146 148.097V149ZM113.19 142.322V141.44H118.146V142.322H113.19ZM120.384 149V140.88C120.384 140.684 120.394 140.49 120.412 140.299C120.436 140.108 120.48 139.926 120.545 139.753C120.611 139.576 120.713 139.412 120.853 139.263C121.007 139.095 121.175 138.974 121.357 138.899C121.539 138.82 121.728 138.768 121.924 138.745C122.125 138.722 122.321 138.71 122.512 138.71H123.478V139.578H122.582C122.19 139.578 121.896 139.674 121.7 139.865C121.509 140.056 121.413 140.357 121.413 140.768V149H120.384ZM119.075 142.322V141.44H123.478V142.322H119.075ZM127.489 149.189C127.036 149.189 126.64 149.119 126.299 148.979C125.963 148.839 125.676 148.65 125.438 148.412C125.205 148.174 125.016 147.903 124.871 147.6C124.726 147.292 124.621 146.968 124.556 146.627C124.491 146.282 124.458 145.939 124.458 145.598V141.44H125.494V145.297C125.494 145.712 125.534 146.097 125.613 146.452C125.692 146.807 125.818 147.117 125.991 147.383C126.168 147.644 126.395 147.847 126.67 147.992C126.95 148.137 127.288 148.209 127.685 148.209C128.049 148.209 128.369 148.146 128.644 148.02C128.924 147.894 129.157 147.714 129.344 147.481C129.535 147.243 129.68 146.956 129.778 146.62C129.876 146.279 129.925 145.897 129.925 145.472L130.653 145.633C130.653 146.408 130.518 147.059 130.247 147.586C129.976 148.113 129.603 148.512 129.127 148.783C128.651 149.054 128.105 149.189 127.489 149.189ZM130.03 149V147.138H129.925V141.44H130.954V149H130.03ZM133.051 149V138.71H134.08V149H133.051Z" fill="#0E041B"/>
<path fill-rule="evenodd" clip-rule="evenodd" d="M90.6676 52.8133C93.7272 49.5263 97.9906 47.6047 102.756 47.6047C107.521 47.6047 111.784 49.5263 114.844 52.6616C117.552 55.3923 121.765 55.3923 124.474 52.6616C127.182 49.9309 127.182 45.6831 124.474 42.9524C118.906 37.5415 111.232 34.0522 102.756 34.0522C94.8771 34.0522 87.6919 37.0664 82.2469 41.9986C81.7457 42.2966 81.2709 42.6653 80.8351 43.1047C75.4682 48.7178 72.0073 56.4549 72.0073 65.001C72.0073 73.0926 75.1098 80.4588 80.1654 85.9838C80.4156 86.3574 80.7062 86.7139 81.0373 87.0477C86.6048 92.4586 94.2789 95.9479 102.756 95.9479C111.232 95.9479 118.906 92.4586 124.474 86.8455C127.182 84.1147 127.182 79.867 124.474 77.1362C121.765 74.7089 117.552 74.7089 114.844 77.1868C111.784 80.4738 107.521 82.3954 102.756 82.3954C98.2629 82.3954 94.216 80.6871 91.2037 77.8639C91.0399 77.6301 90.8607 77.4044 90.666 77.1881C87.4058 74.1034 85.4496 69.8556 85.4496 65.001C85.4496 60.4762 87.1054 56.4787 89.8484 53.4586C90.1335 53.2663 90.4075 53.0513 90.6676 52.8133Z" fill="#0D041B" fill-opacity="0.75"/>
</svg>
