<svg width="200" height="164" viewBox="0 0 200 164" fill="none" xmlns="http://www.w3.org/2000/svg">
<path opacity="0.6" d="M32.7026 139.21C31.6993 139.21 30.8523 138.988 30.1616 138.545C29.4709 138.097 28.9483 137.479 28.5936 136.69C28.2389 135.901 28.0616 134.991 28.0616 133.96C28.0616 132.929 28.2389 132.019 28.5936 131.23C28.9483 130.441 29.4709 129.825 30.1616 129.382C30.8523 128.934 31.6993 128.71 32.7026 128.71C33.8739 128.71 34.8306 129.011 35.5726 129.613C36.3146 130.21 36.8233 131.013 37.0986 132.021L36.0486 132.294C35.8339 131.496 35.4489 130.864 34.8936 130.397C34.3383 129.93 33.6079 129.697 32.7026 129.697C31.9139 129.697 31.2583 129.877 30.7356 130.236C30.2129 130.595 29.8186 131.097 29.5526 131.741C29.2913 132.38 29.1559 133.12 29.1466 133.96C29.1419 134.8 29.2703 135.54 29.5316 136.179C29.7976 136.818 30.1943 137.32 30.7216 137.684C31.2536 138.043 31.9139 138.223 32.7026 138.223C33.6079 138.223 34.3383 137.99 34.8936 137.523C35.4489 137.052 35.8339 136.419 36.0486 135.626L37.0986 135.899C36.8233 136.907 36.3146 137.712 35.5726 138.314C34.8306 138.911 33.8739 139.21 32.7026 139.21ZM41.5341 139.189C41.0814 139.189 40.6848 139.119 40.3441 138.979C40.0081 138.839 39.7211 138.65 39.4831 138.412C39.2498 138.174 39.0608 137.903 38.9161 137.6C38.7714 137.292 38.6664 136.968 38.6011 136.627C38.5358 136.282 38.5031 135.939 38.5031 135.598V131.44H39.5391V135.297C39.5391 135.712 39.5788 136.097 39.6581 136.452C39.7374 136.807 39.8634 137.117 40.0361 137.383C40.2134 137.644 40.4398 137.847 40.7151 137.992C40.9951 138.137 41.3334 138.209 41.7301 138.209C42.0941 138.209 42.4138 138.146 42.6891 138.02C42.9691 137.894 43.2024 137.714 43.3891 137.481C43.5804 137.243 43.7251 136.956 43.8231 136.62C43.9211 136.279 43.9701 135.897 43.9701 135.472L44.6981 135.633C44.6981 136.408 44.5628 137.059 44.2921 137.586C44.0214 138.113 43.6481 138.512 43.1721 138.783C42.6961 139.054 42.1501 139.189 41.5341 139.189ZM44.0751 139V137.138H43.9701V131.44H44.9991V139H44.0751ZM49.7766 139.203C48.8899 139.203 48.1596 139.012 47.5856 138.629C47.0163 138.246 46.6663 137.714 46.5356 137.033L47.5856 136.858C47.6976 137.287 47.9519 137.63 48.3486 137.887C48.7499 138.139 49.2446 138.265 49.8326 138.265C50.4066 138.265 50.8593 138.146 51.1906 137.908C51.5219 137.665 51.6876 137.336 51.6876 136.921C51.6876 136.688 51.6339 136.499 51.5266 136.354C51.4239 136.205 51.2116 136.067 50.8896 135.941C50.5676 135.815 50.0869 135.666 49.4476 135.493C48.7616 135.306 48.2249 135.12 47.8376 134.933C47.4503 134.746 47.1749 134.532 47.0116 134.289C46.8483 134.042 46.7666 133.741 46.7666 133.386C46.7666 132.957 46.8879 132.581 47.1306 132.259C47.3733 131.932 47.7093 131.68 48.1386 131.503C48.5679 131.321 49.0673 131.23 49.6366 131.23C50.2059 131.23 50.7146 131.323 51.1626 131.51C51.6153 131.692 51.9793 131.949 52.2546 132.28C52.5299 132.611 52.6933 132.996 52.7446 133.435L51.6946 133.624C51.6246 133.181 51.4029 132.831 51.0296 132.574C50.6609 132.313 50.1919 132.177 49.6226 132.168C49.0859 132.154 48.6496 132.257 48.3136 132.476C47.9776 132.691 47.8096 132.978 47.8096 133.337C47.8096 133.538 47.8703 133.71 47.9916 133.855C48.1129 133.995 48.3323 134.128 48.6496 134.254C48.9716 134.38 49.4289 134.518 50.0216 134.667C50.7169 134.844 51.2629 135.031 51.6596 135.227C52.0563 135.423 52.3386 135.654 52.5066 135.92C52.6746 136.186 52.7586 136.515 52.7586 136.907C52.7586 137.621 52.4926 138.183 51.9606 138.594C51.4333 139 50.7053 139.203 49.7766 139.203ZM58.4271 139C58.0024 139.089 57.5824 139.124 57.1671 139.105C56.7564 139.086 56.3877 138.998 56.0611 138.839C55.7391 138.68 55.4941 138.433 55.3261 138.097C55.1907 137.817 55.1161 137.535 55.1021 137.25C55.0927 136.961 55.0881 136.632 55.0881 136.263V129.34H56.1101V136.221C56.1101 136.538 56.1124 136.804 56.1171 137.019C56.1264 137.229 56.1754 137.416 56.2641 137.579C56.4321 137.892 56.6981 138.078 57.0621 138.139C57.4307 138.2 57.8857 138.186 58.4271 138.097V139ZM53.4711 132.322V131.44H58.4271V132.322H53.4711ZM62.8001 139.21C62.0488 139.21 61.4071 139.04 60.8751 138.699C60.3431 138.358 59.9348 137.887 59.6501 137.285C59.3654 136.683 59.2231 135.992 59.2231 135.213C59.2231 134.42 59.3678 133.724 59.6571 133.127C59.9464 132.53 60.3571 132.065 60.8891 131.734C61.4258 131.398 62.0628 131.23 62.8001 131.23C63.5561 131.23 64.2001 131.4 64.7321 131.741C65.2688 132.077 65.6771 132.546 65.9571 133.148C66.2418 133.745 66.3841 134.434 66.3841 135.213C66.3841 136.006 66.2418 136.704 65.9571 137.306C65.6724 137.903 65.2618 138.37 64.7251 138.706C64.1884 139.042 63.5468 139.21 62.8001 139.21ZM62.8001 138.223C63.6401 138.223 64.2654 137.945 64.6761 137.39C65.0868 136.83 65.2921 136.104 65.2921 135.213C65.2921 134.298 65.0844 133.57 64.6691 133.029C64.2584 132.488 63.6354 132.217 62.8001 132.217C62.2354 132.217 61.7688 132.345 61.4001 132.602C61.0361 132.854 60.7631 133.206 60.5811 133.659C60.4038 134.107 60.3151 134.625 60.3151 135.213C60.3151 136.123 60.5251 136.853 60.9451 137.404C61.3651 137.95 61.9834 138.223 62.8001 138.223ZM76.9442 139L76.9512 134.037C76.9512 133.454 76.7879 132.996 76.4612 132.665C76.1392 132.329 75.7286 132.161 75.2292 132.161C74.9446 132.161 74.6669 132.226 74.3962 132.357C74.1256 132.488 73.9016 132.698 73.7242 132.987C73.5516 133.276 73.4652 133.654 73.4652 134.121L72.8562 133.946C72.8422 133.405 72.9472 132.931 73.1712 132.525C73.3999 132.119 73.7126 131.804 74.1092 131.58C74.5106 131.351 74.9632 131.237 75.4672 131.237C76.2279 131.237 76.8369 131.473 77.2942 131.944C77.7516 132.411 77.9802 133.043 77.9802 133.841L77.9732 139H76.9442ZM67.9212 139V131.44H68.8452V133.302H68.9572V139H67.9212ZM72.4432 139L72.4502 134.107C72.4502 133.505 72.2892 133.031 71.9672 132.686C71.6499 132.336 71.2299 132.161 70.7072 132.161C70.1846 132.161 69.7622 132.341 69.4402 132.7C69.1182 133.055 68.9572 133.528 68.9572 134.121L68.3412 133.785C68.3412 133.3 68.4556 132.866 68.6842 132.483C68.9129 132.096 69.2256 131.792 69.6222 131.573C70.0189 131.349 70.4692 131.237 70.9732 131.237C71.4539 131.237 71.8809 131.34 72.2542 131.545C72.6322 131.75 72.9286 132.049 73.1432 132.441C73.3579 132.833 73.4652 133.309 73.4652 133.869L73.4582 139H72.4432ZM82.5982 139V128.92H83.6272V133.463H89.1992V128.92H90.2212V139H89.1992V134.45H83.6272V139H82.5982ZM94.8631 139V129.907H91.3421V128.92H99.4131V129.907H95.8921V139H94.8631ZM100.536 139V128.92H101.481L105.443 137.397L109.384 128.92H110.343V138.993H109.363V131.216L105.772 139H105.107L101.523 131.216V139H100.536ZM112.447 139V128.92H113.476V138.013H118.264V139H112.447ZM122.006 128.92H123.063L120.375 139H119.318L122.006 128.92ZM128.966 139.21C127.963 139.21 127.116 138.988 126.425 138.545C125.735 138.097 125.212 137.479 124.857 136.69C124.503 135.901 124.325 134.991 124.325 133.96C124.325 132.929 124.503 132.019 124.857 131.23C125.212 130.441 125.735 129.825 126.425 129.382C127.116 128.934 127.963 128.71 128.966 128.71C130.138 128.71 131.094 129.011 131.836 129.613C132.578 130.21 133.087 131.013 133.362 132.021L132.312 132.294C132.098 131.496 131.713 130.864 131.157 130.397C130.602 129.93 129.872 129.697 128.966 129.697C128.178 129.697 127.522 129.877 126.999 130.236C126.477 130.595 126.082 131.097 125.816 131.741C125.555 132.38 125.42 133.12 125.41 133.96C125.406 134.8 125.534 135.54 125.795 136.179C126.061 136.818 126.458 137.32 126.985 137.684C127.517 138.043 128.178 138.223 128.966 138.223C129.872 138.223 130.602 137.99 131.157 137.523C131.713 137.052 132.098 136.419 132.312 135.626L133.362 135.899C133.087 136.907 132.578 137.712 131.836 138.314C131.094 138.911 130.138 139.21 128.966 139.21ZM138.831 139.21C138.126 139.21 137.491 139.093 136.927 138.86C136.367 138.622 135.902 138.286 135.534 137.852C135.17 137.418 134.932 136.902 134.82 136.305L135.87 136.13C136.038 136.783 136.392 137.297 136.934 137.67C137.475 138.039 138.121 138.223 138.873 138.223C139.367 138.223 139.811 138.146 140.203 137.992C140.595 137.833 140.903 137.609 141.127 137.32C141.351 137.031 141.463 136.688 141.463 136.291C141.463 136.03 141.416 135.808 141.323 135.626C141.229 135.439 141.106 135.285 140.952 135.164C140.798 135.043 140.63 134.942 140.448 134.863C140.266 134.779 140.088 134.711 139.916 134.66L137.361 133.897C137.053 133.808 136.768 133.696 136.507 133.561C136.245 133.421 136.017 133.255 135.821 133.064C135.629 132.868 135.48 132.639 135.373 132.378C135.265 132.117 135.212 131.818 135.212 131.482C135.212 130.913 135.361 130.42 135.66 130.005C135.958 129.59 136.367 129.27 136.885 129.046C137.403 128.822 137.993 128.712 138.656 128.717C139.328 128.717 139.927 128.836 140.455 129.074C140.987 129.312 141.425 129.653 141.771 130.096C142.116 130.535 142.345 131.055 142.457 131.657L141.379 131.853C141.309 131.414 141.148 131.034 140.896 130.712C140.644 130.39 140.322 130.143 139.93 129.97C139.542 129.793 139.115 129.702 138.649 129.697C138.196 129.697 137.792 129.774 137.438 129.928C137.088 130.077 136.81 130.283 136.605 130.544C136.399 130.805 136.297 131.104 136.297 131.44C136.297 131.781 136.39 132.054 136.577 132.259C136.768 132.464 137.001 132.625 137.277 132.742C137.557 132.859 137.827 132.954 138.089 133.029L140.063 133.61C140.268 133.666 140.508 133.748 140.784 133.855C141.064 133.958 141.334 134.107 141.596 134.303C141.862 134.494 142.081 134.746 142.254 135.059C142.426 135.372 142.513 135.768 142.513 136.249C142.513 136.716 142.419 137.133 142.233 137.502C142.051 137.871 141.792 138.181 141.456 138.433C141.124 138.685 140.735 138.876 140.287 139.007C139.843 139.142 139.358 139.21 138.831 139.21ZM147.663 139.21C146.958 139.21 146.323 139.093 145.759 138.86C145.199 138.622 144.734 138.286 144.366 137.852C144.002 137.418 143.764 136.902 143.652 136.305L144.702 136.13C144.87 136.783 145.224 137.297 145.766 137.67C146.307 138.039 146.953 138.223 147.705 138.223C148.199 138.223 148.643 138.146 149.035 137.992C149.427 137.833 149.735 137.609 149.959 137.32C150.183 137.031 150.295 136.688 150.295 136.291C150.295 136.03 150.248 135.808 150.155 135.626C150.061 135.439 149.938 135.285 149.784 135.164C149.63 135.043 149.462 134.942 149.28 134.863C149.098 134.779 148.92 134.711 148.748 134.66L146.193 133.897C145.885 133.808 145.6 133.696 145.339 133.561C145.077 133.421 144.849 133.255 144.653 133.064C144.461 132.868 144.312 132.639 144.205 132.378C144.097 132.117 144.044 131.818 144.044 131.482C144.044 130.913 144.193 130.42 144.492 130.005C144.79 129.59 145.199 129.27 145.717 129.046C146.235 128.822 146.825 128.712 147.488 128.717C148.16 128.717 148.759 128.836 149.287 129.074C149.819 129.312 150.257 129.653 150.603 130.096C150.948 130.535 151.177 131.055 151.289 131.657L150.211 131.853C150.141 131.414 149.98 131.034 149.728 130.712C149.476 130.39 149.154 130.143 148.762 129.97C148.374 129.793 147.947 129.702 147.481 129.697C147.028 129.697 146.624 129.774 146.27 129.928C145.92 130.077 145.642 130.283 145.437 130.544C145.231 130.805 145.129 131.104 145.129 131.44C145.129 131.781 145.222 132.054 145.409 132.259C145.6 132.464 145.833 132.625 146.109 132.742C146.389 132.859 146.659 132.954 146.921 133.029L148.895 133.61C149.1 133.666 149.34 133.748 149.616 133.855C149.896 133.958 150.166 134.107 150.428 134.303C150.694 134.494 150.913 134.746 151.086 135.059C151.258 135.372 151.345 135.768 151.345 136.249C151.345 136.716 151.251 137.133 151.065 137.502C150.883 137.871 150.624 138.181 150.288 138.433C149.956 138.685 149.567 138.876 149.119 139.007C148.675 139.142 148.19 139.21 147.663 139.21ZM155.338 128.92H156.395L153.707 139H152.65L155.338 128.92ZM159.939 139.203C159.267 139.203 158.691 139.016 158.21 138.643C157.73 138.27 157.405 137.77 157.237 137.145L158.266 136.9C158.35 137.269 158.544 137.581 158.847 137.838C159.155 138.09 159.517 138.216 159.932 138.216C160.194 138.216 160.457 138.153 160.723 138.027C160.994 137.901 161.206 137.693 161.36 137.404C161.463 137.203 161.521 136.986 161.535 136.753C161.554 136.515 161.563 136.23 161.563 135.899V128.92H162.599V135.899C162.599 136.179 162.597 136.433 162.592 136.662C162.588 136.886 162.562 137.103 162.515 137.313C162.473 137.518 162.392 137.726 162.27 137.936C162.028 138.361 161.701 138.678 161.29 138.888C160.884 139.098 160.434 139.203 159.939 139.203ZM168.211 139.21C167.507 139.21 166.872 139.093 166.307 138.86C165.747 138.622 165.283 138.286 164.914 137.852C164.55 137.418 164.312 136.902 164.2 136.305L165.25 136.13C165.418 136.783 165.773 137.297 166.314 137.67C166.856 138.039 167.502 138.223 168.253 138.223C168.748 138.223 169.191 138.146 169.583 137.992C169.975 137.833 170.283 137.609 170.507 137.32C170.731 137.031 170.843 136.688 170.843 136.291C170.843 136.03 170.797 135.808 170.703 135.626C170.61 135.439 170.486 135.285 170.332 135.164C170.178 135.043 170.01 134.942 169.828 134.863C169.646 134.779 169.469 134.711 169.296 134.66L166.741 133.897C166.433 133.808 166.149 133.696 165.887 133.561C165.626 133.421 165.397 133.255 165.201 133.064C165.01 132.868 164.861 132.639 164.753 132.378C164.646 132.117 164.592 131.818 164.592 131.482C164.592 130.913 164.742 130.42 165.04 130.005C165.339 129.59 165.747 129.27 166.265 129.046C166.783 128.822 167.374 128.712 168.036 128.717C168.708 128.717 169.308 128.836 169.835 129.074C170.367 129.312 170.806 129.653 171.151 130.096C171.497 130.535 171.725 131.055 171.837 131.657L170.759 131.853C170.689 131.414 170.528 131.034 170.276 130.712C170.024 130.39 169.702 130.143 169.31 129.97C168.923 129.793 168.496 129.702 168.029 129.697C167.577 129.697 167.173 129.774 166.818 129.928C166.468 130.077 166.191 130.283 165.985 130.544C165.78 130.805 165.677 131.104 165.677 131.44C165.677 131.781 165.771 132.054 165.957 132.259C166.149 132.464 166.382 132.625 166.657 132.742C166.937 132.859 167.208 132.954 167.469 133.029L169.443 133.61C169.649 133.666 169.889 133.748 170.164 133.855C170.444 133.958 170.715 134.107 170.976 134.303C171.242 134.494 171.462 134.746 171.634 135.059C171.807 135.372 171.893 135.768 171.893 136.249C171.893 136.716 171.8 137.133 171.613 137.502C171.431 137.871 171.172 138.181 170.836 138.433C170.505 138.685 170.115 138.876 169.667 139.007C169.224 139.142 168.739 139.21 168.211 139.21ZM73.058 159L70.146 148.92H71.217L73.576 157.243L75.921 148.927L76.999 148.92L79.358 157.243L81.703 148.92H82.781L79.876 159H78.84L76.46 150.733L74.094 159H73.058ZM86.3577 159.21C85.6204 159.21 84.981 159.047 84.4397 158.72C83.903 158.393 83.4854 157.934 83.1867 157.341C82.888 156.748 82.7387 156.053 82.7387 155.255C82.7387 154.429 82.8857 153.715 83.1797 153.113C83.4737 152.511 83.8867 152.047 84.4187 151.72C84.9554 151.393 85.5877 151.23 86.3157 151.23C87.0624 151.23 87.6994 151.403 88.2267 151.748C88.754 152.089 89.153 152.579 89.4237 153.218C89.6944 153.857 89.818 154.62 89.7947 155.507H88.7447V155.143C88.726 154.163 88.5137 153.423 88.1077 152.924C87.7064 152.425 87.1184 152.175 86.3437 152.175C85.5317 152.175 84.9087 152.439 84.4747 152.966C84.0454 153.493 83.8307 154.245 83.8307 155.22C83.8307 156.172 84.0454 156.912 84.4747 157.439C84.9087 157.962 85.5224 158.223 86.3157 158.223C86.857 158.223 87.3284 158.099 87.7297 157.852C88.1357 157.6 88.4554 157.238 88.6887 156.767L89.6477 157.138C89.349 157.796 88.908 158.307 88.3247 158.671C87.746 159.03 87.0904 159.21 86.3577 159.21ZM83.4667 155.507V154.646H89.2417V155.507H83.4667ZM94.7432 159.21C94.0478 159.21 93.4598 159.035 92.9792 158.685C92.4985 158.33 92.1345 157.852 91.8872 157.25C91.6398 156.643 91.5162 155.964 91.5162 155.213C91.5162 154.448 91.6398 153.766 91.8872 153.169C92.1392 152.567 92.5078 152.093 92.9932 151.748C93.4785 151.403 94.0758 151.23 94.7852 151.23C95.4758 151.23 96.0685 151.405 96.5632 151.755C97.0578 152.105 97.4358 152.581 97.6972 153.183C97.9632 153.785 98.0962 154.462 98.0962 155.213C98.0962 155.969 97.9632 156.648 97.6972 157.25C97.4312 157.852 97.0485 158.33 96.5492 158.685C96.0498 159.035 95.4478 159.21 94.7432 159.21ZM91.3412 159V148.92H92.3772V153.309H92.2652V159H91.3412ZM94.6382 158.251C95.1655 158.251 95.6042 158.118 95.9542 157.852C96.3042 157.586 96.5655 157.224 96.7382 156.767C96.9155 156.305 97.0042 155.787 97.0042 155.213C97.0042 154.644 96.9178 154.13 96.7452 153.673C96.5725 153.216 96.3088 152.854 95.9542 152.588C95.6042 152.322 95.1585 152.189 94.6172 152.189C94.0898 152.189 93.6512 152.317 93.3012 152.574C92.9558 152.831 92.6968 153.188 92.5242 153.645C92.3515 154.098 92.2652 154.62 92.2652 155.213C92.2652 155.796 92.3515 156.319 92.5242 156.781C92.6968 157.238 92.9582 157.598 93.3082 157.859C93.6582 158.12 94.1015 158.251 94.6382 158.251ZM102.386 159.203C101.499 159.203 100.769 159.012 100.195 158.629C99.6256 158.246 99.2756 157.714 99.145 157.033L100.195 156.858C100.307 157.287 100.561 157.63 100.958 157.887C101.359 158.139 101.854 158.265 102.442 158.265C103.016 158.265 103.469 158.146 103.8 157.908C104.131 157.665 104.297 157.336 104.297 156.921C104.297 156.688 104.243 156.499 104.136 156.354C104.033 156.205 103.821 156.067 103.499 155.941C103.177 155.815 102.696 155.666 102.057 155.493C101.371 155.306 100.834 155.12 100.447 154.933C100.06 154.746 99.7843 154.532 99.621 154.289C99.4576 154.042 99.376 153.741 99.376 153.386C99.376 152.957 99.4973 152.581 99.74 152.259C99.9826 151.932 100.319 151.68 100.748 151.503C101.177 151.321 101.677 151.23 102.246 151.23C102.815 151.23 103.324 151.323 103.772 151.51C104.225 151.692 104.589 151.949 104.864 152.28C105.139 152.611 105.303 152.996 105.354 153.435L104.304 153.624C104.234 153.181 104.012 152.831 103.639 152.574C103.27 152.313 102.801 152.177 102.232 152.168C101.695 152.154 101.259 152.257 100.923 152.476C100.587 152.691 100.419 152.978 100.419 153.337C100.419 153.538 100.48 153.71 100.601 153.855C100.722 153.995 100.942 154.128 101.259 154.254C101.581 154.38 102.038 154.518 102.631 154.667C103.326 154.844 103.872 155.031 104.269 155.227C104.666 155.423 104.948 155.654 105.116 155.92C105.284 156.186 105.368 156.515 105.368 156.907C105.368 157.621 105.102 158.183 104.57 158.594C104.043 159 103.315 159.203 102.386 159.203ZM107.06 150.005V148.85H108.089V150.005H107.06ZM107.06 159V151.44H108.089V159H107.06ZM114.304 159C113.879 159.089 113.459 159.124 113.044 159.105C112.633 159.086 112.265 158.998 111.938 158.839C111.616 158.68 111.371 158.433 111.203 158.097C111.068 157.817 110.993 157.535 110.979 157.25C110.97 156.961 110.965 156.632 110.965 156.263V149.34H111.987V156.221C111.987 156.538 111.989 156.804 111.994 157.019C112.003 157.229 112.052 157.416 112.141 157.579C112.309 157.892 112.575 158.078 112.939 158.139C113.308 158.2 113.763 158.186 114.304 158.097V159ZM109.348 152.322V151.44H114.304V152.322H109.348ZM118.719 159.21C117.982 159.21 117.342 159.047 116.801 158.72C116.264 158.393 115.847 157.934 115.548 157.341C115.249 156.748 115.1 156.053 115.1 155.255C115.1 154.429 115.247 153.715 115.541 153.113C115.835 152.511 116.248 152.047 116.78 151.72C117.317 151.393 117.949 151.23 118.677 151.23C119.424 151.23 120.061 151.403 120.588 151.748C121.115 152.089 121.514 152.579 121.785 153.218C122.056 153.857 122.179 154.62 122.156 155.507H121.106V155.143C121.087 154.163 120.875 153.423 120.469 152.924C120.068 152.425 119.48 152.175 118.705 152.175C117.893 152.175 117.27 152.439 116.836 152.966C116.407 153.493 116.192 154.245 116.192 155.22C116.192 156.172 116.407 156.912 116.836 157.439C117.27 157.962 117.884 158.223 118.677 158.223C119.218 158.223 119.69 158.099 120.091 157.852C120.497 157.6 120.817 157.238 121.05 156.767L122.009 157.138C121.71 157.796 121.269 158.307 120.686 158.671C120.107 159.03 119.452 159.21 118.719 159.21ZM115.828 155.507V154.646H121.603V155.507H115.828ZM126.53 159.203C125.644 159.203 124.913 159.012 124.339 158.629C123.77 158.246 123.42 157.714 123.289 157.033L124.339 156.858C124.451 157.287 124.706 157.63 125.102 157.887C125.504 158.139 125.998 158.265 126.586 158.265C127.16 158.265 127.613 158.146 127.944 157.908C128.276 157.665 128.441 157.336 128.441 156.921C128.441 156.688 128.388 156.499 128.28 156.354C128.178 156.205 127.965 156.067 127.643 155.941C127.321 155.815 126.841 155.666 126.201 155.493C125.515 155.306 124.979 155.12 124.591 154.933C124.204 154.746 123.929 154.532 123.765 154.289C123.602 154.042 123.52 153.741 123.52 153.386C123.52 152.957 123.642 152.581 123.884 152.259C124.127 151.932 124.463 151.68 124.892 151.503C125.322 151.321 125.821 151.23 126.39 151.23C126.96 151.23 127.468 151.323 127.916 151.51C128.369 151.692 128.733 151.949 129.008 152.28C129.284 152.611 129.447 152.996 129.498 153.435L128.448 153.624C128.378 153.181 128.157 152.831 127.783 152.574C127.415 152.313 126.946 152.177 126.376 152.168C125.84 152.154 125.403 152.257 125.067 152.476C124.731 152.691 124.563 152.978 124.563 153.337C124.563 153.538 124.624 153.71 124.745 153.855C124.867 153.995 125.086 154.128 125.403 154.254C125.725 154.38 126.183 154.518 126.775 154.667C127.471 154.844 128.017 155.031 128.413 155.227C128.81 155.423 129.092 155.654 129.26 155.92C129.428 156.186 129.512 156.515 129.512 156.907C129.512 157.621 129.246 158.183 128.714 158.594C128.187 159 127.459 159.203 126.53 159.203Z" fill="#0E041B"/>
<path fill-rule="evenodd" clip-rule="evenodd" d="M75.7559 38C71.8899 38 68.7559 41.134 68.7559 45V49.0834L131.244 49.0834V45C131.244 41.134 128.11 38 124.244 38H75.7559ZM131.244 51.4167L68.7559 51.4167V85.25C68.7559 89.116 71.8899 92.25 75.7559 92.25H124.244C128.11 92.25 131.244 89.116 131.244 85.25V51.4167ZM77.7094 43.8114C77.7094 44.8746 76.8545 45.7364 75.8 45.7364C74.7455 45.7364 73.8907 44.8746 73.8907 43.8114C73.8907 42.7483 74.7455 41.8864 75.8 41.8864C76.8545 41.8864 77.7094 42.7483 77.7094 43.8114ZM84.4799 43.8114C84.4799 44.8746 83.6251 45.7364 82.5706 45.7364C81.5161 45.7364 80.6612 44.8746 80.6612 43.8114C80.6612 42.7483 81.5161 41.8864 82.5706 41.8864C83.6251 41.8864 84.4799 42.7483 84.4799 43.8114ZM89.3414 45.7364C90.3959 45.7364 91.2507 44.8746 91.2507 43.8114C91.2507 42.7483 90.3959 41.8864 89.3414 41.8864C88.2869 41.8864 87.432 42.7483 87.432 43.8114C87.432 44.8746 88.2869 45.7364 89.3414 45.7364ZM103.476 59.9239V61.1145H101.926V65.3063C101.926 65.5941 101.969 65.8107 102.054 65.9562C102.14 66.0984 102.25 66.196 102.384 66.2489C102.522 66.2985 102.671 66.3233 102.832 66.3233C102.95 66.3233 103.053 66.315 103.142 66.2985C103.23 66.282 103.299 66.2687 103.348 66.2588L103.614 67.4841C103.529 67.5172 103.408 67.5502 103.25 67.5833C103.093 67.6197 102.896 67.6395 102.66 67.6428C102.273 67.6495 101.912 67.58 101.577 67.4345C101.243 67.289 100.972 67.0641 100.765 66.7598C100.559 66.4556 100.455 66.0736 100.455 65.6139V61.1145H99.3482V59.9239H100.455V58.0984H101.926V59.9239H103.476ZM80.4327 67.6974C79.7012 67.6974 79.0714 67.5304 78.5433 67.1964C78.0185 66.8591 77.615 66.3944 77.3329 65.8024C77.0508 65.2104 76.9097 64.5325 76.9097 63.7685C76.9097 62.9946 77.0541 62.3117 77.3427 61.7197C77.6314 61.1244 78.0381 60.6598 78.563 60.3258C79.0878 59.9917 79.7062 59.8247 80.418 59.8247C80.992 59.8247 81.5037 59.9322 81.9531 60.1472C82.4025 60.3588 82.765 60.6565 83.0406 61.0401C83.3194 61.4237 83.485 61.8719 83.5375 62.3845H82.1057C82.027 62.0273 81.8465 61.7197 81.5644 61.4618C81.2856 61.2038 80.9117 61.0748 80.4426 61.0748C80.0325 61.0748 79.6734 61.184 79.365 61.4022C79.0599 61.6172 78.8221 61.9248 78.6516 62.3249C78.481 62.7218 78.3957 63.1914 78.3957 63.7338C78.3957 64.2894 78.4793 64.7689 78.6466 65.1724C78.8139 65.5759 79.0501 65.8884 79.3552 66.11C79.6635 66.3316 80.026 66.4424 80.4426 66.4424C80.7214 66.4424 80.974 66.3911 81.2003 66.2886C81.4299 66.1827 81.6218 66.0323 81.776 65.8371C81.9335 65.642 82.0434 65.4072 82.1057 65.1327H83.5375C83.485 65.6255 83.3259 66.0653 83.0602 66.4523C82.7945 66.8392 82.4386 67.1435 81.9925 67.365C81.5497 67.5866 81.0297 67.6974 80.4327 67.6974ZM89.6213 64.3836V59.9239H91.0974V67.5436H89.6508V66.2241H89.572C89.3982 66.6309 89.1194 66.9698 88.7356 67.241C88.3551 67.5089 87.8811 67.6428 87.3136 67.6428C86.8281 67.6428 86.3984 67.5354 86.0244 67.3204C85.6538 67.1021 85.3618 66.7797 85.1486 66.3531C84.9387 65.9264 84.8337 65.3989 84.8337 64.7706V59.9239H86.3049V64.592C86.3049 65.1112 86.4476 65.5246 86.733 65.8322C87.0184 66.1397 87.389 66.2935 87.845 66.2935C88.1205 66.2935 88.3944 66.2241 88.6667 66.0852C88.9422 65.9463 89.1702 65.7363 89.3506 65.4552C89.5343 65.1741 89.6245 64.8169 89.6213 64.3836ZM97.127 62.0223L98.4604 61.7842C98.3095 61.1889 97.9995 60.7144 97.5305 60.3605C97.0614 60.0033 96.4184 59.8247 95.6017 59.8247C95.0342 59.8247 94.5307 59.9206 94.0911 60.1124C93.6515 60.301 93.3071 60.5639 93.0578 60.9012C92.8085 61.2385 92.6839 61.6321 92.6839 62.0819C92.6839 62.6242 92.8512 63.0724 93.1857 63.4262C93.5236 63.7801 94.0452 64.038 94.7504 64.2001L96.0297 64.4829C96.3906 64.5655 96.6579 64.6879 96.8318 64.85C97.0089 65.012 97.0975 65.2121 97.0975 65.4502C97.0975 65.7445 96.9531 65.9942 96.6645 66.1993C96.3758 66.401 95.9904 66.5019 95.5082 66.5019C95.0653 66.5019 94.7061 66.4076 94.4306 66.2191C94.1551 66.0273 93.973 65.7445 93.8844 65.3708L92.4624 65.5891C92.5838 66.2638 92.9118 66.7846 93.4465 67.1517C93.9812 67.5155 94.6717 67.6974 95.518 67.6974C96.1281 67.6974 96.6645 67.5965 97.127 67.3948C97.5928 67.1931 97.9553 66.9153 98.2144 66.5614C98.4768 66.2042 98.608 65.7975 98.608 65.3411C98.608 64.802 98.4375 64.3638 98.0963 64.0265C97.7552 63.6891 97.2369 63.4395 96.5415 63.2774L95.3409 62.9996C94.9243 62.9004 94.6225 62.7731 94.4355 62.6176C94.2486 62.4622 94.1551 62.2571 94.1551 62.0025C94.1551 61.7082 94.2945 61.4684 94.5733 61.2832C94.8521 61.0947 95.1998 61.0004 95.6164 61.0004C95.9215 61.0004 96.1757 61.05 96.3791 61.1492C96.5825 61.2485 96.7432 61.3758 96.8613 61.5312C96.9827 61.6867 97.0712 61.8504 97.127 62.0223ZM106.074 67.2063C106.602 67.5337 107.221 67.6974 107.929 67.6974C108.638 67.6974 109.256 67.5337 109.784 67.2063C110.312 66.8789 110.722 66.4209 111.014 65.8322C111.306 65.2435 111.452 64.5556 111.452 63.7685C111.452 62.9781 111.306 62.2869 111.014 61.6949C110.722 61.1029 110.312 60.6432 109.784 60.3158C109.256 59.9884 108.638 59.8247 107.929 59.8247C107.221 59.8247 106.602 59.9884 106.074 60.3158C105.546 60.6432 105.136 61.1029 104.844 61.6949C104.552 62.2869 104.406 62.9781 104.406 63.7685C104.406 64.5556 104.552 65.2435 104.844 65.8322C105.136 66.4209 105.546 66.8789 106.074 67.2063ZM109.076 66.0852C108.774 66.3299 108.393 66.4523 107.934 66.4523C107.471 66.4523 107.088 66.3299 106.783 66.0852C106.481 65.8404 106.256 65.5147 106.109 65.1079C105.964 64.7011 105.892 64.253 105.892 63.7636C105.892 63.2774 105.964 62.8309 106.109 62.4242C106.256 62.0141 106.481 61.685 106.783 61.437C107.088 61.1889 107.471 61.0649 107.934 61.0649C108.393 61.0649 108.774 61.1889 109.076 61.437C109.377 61.685 109.6 62.0141 109.745 62.4242C109.892 62.8309 109.966 63.2774 109.966 63.7636C109.966 64.253 109.892 64.7011 109.745 65.1079C109.6 65.5147 109.377 65.8404 109.076 66.0852ZM112.817 67.5436V59.9239H114.229V61.1641H114.323C114.48 60.7441 114.738 60.4167 115.095 60.1819C115.453 59.9438 115.881 59.8247 116.379 59.8247C116.885 59.8247 117.308 59.9438 117.649 60.1819C117.993 60.42 118.248 60.7474 118.412 61.1641H118.49C118.671 60.7573 118.958 60.4332 119.351 60.1918C119.745 59.9471 120.214 59.8247 120.759 59.8247C121.444 59.8247 122.004 60.0413 122.437 60.4746C122.873 60.9078 123.091 61.561 123.091 62.4341V67.5436H121.62V62.573C121.62 62.0571 121.48 61.6834 121.201 61.4518C120.923 61.2203 120.59 61.1046 120.203 61.1046C119.724 61.1046 119.351 61.2534 119.086 61.5511C118.82 61.8454 118.687 62.2241 118.687 62.6871V67.5436H117.221V62.4787C117.221 62.0653 117.093 61.733 116.837 61.4816C116.581 61.2303 116.248 61.1046 115.838 61.1046C115.559 61.1046 115.302 61.179 115.066 61.3278C114.833 61.4733 114.644 61.6767 114.5 61.938C114.359 62.1993 114.288 62.5019 114.288 62.8458V67.5436H112.817ZM82.1596 81.2832C82.6878 81.6172 83.3176 81.7842 84.0491 81.7842C84.6461 81.7842 85.166 81.6735 85.6088 81.4519C86.055 81.2303 86.4109 80.926 86.6766 80.5391C86.9423 80.1522 87.1014 79.7123 87.1538 79.2195H85.722C85.6597 79.494 85.5498 79.7288 85.3923 79.924C85.2382 80.1191 85.0463 80.2696 84.8166 80.3754C84.5903 80.4779 84.3377 80.5292 84.0589 80.5292C83.6423 80.5292 83.2798 80.4184 82.9715 80.1968C82.6664 79.9752 82.4303 79.6627 82.263 79.2592C82.0957 78.8558 82.012 78.3762 82.012 77.8206C82.012 77.2782 82.0973 76.8086 82.2679 76.4118C82.4385 76.0116 82.6763 75.704 82.9813 75.4891C83.2897 75.2708 83.6489 75.1617 84.0589 75.1617C84.528 75.1617 84.9019 75.2906 85.1808 75.5486C85.4629 75.8066 85.6433 76.1141 85.722 76.4713H87.1538C87.1014 75.9587 86.9357 75.5106 86.6569 75.1269C86.3813 74.7433 86.0189 74.4457 85.5695 74.234C85.1201 74.019 84.6084 73.9116 84.0343 73.9116C83.3225 73.9116 82.7042 74.0786 82.1793 74.4126C81.6545 74.7466 81.2477 75.2113 80.9591 75.8066C80.6704 76.3985 80.5261 77.0815 80.5261 77.8553C80.5261 78.6193 80.6671 79.2973 80.9492 79.8892C81.2313 80.4812 81.6348 80.9459 82.1596 81.2832ZM91.6335 81.7842C90.925 81.7842 90.3067 81.6205 89.7785 81.2931C89.2504 80.9657 88.8404 80.5077 88.5484 79.919C88.2565 79.3303 88.1105 78.6424 88.1105 77.8553C88.1105 77.0649 88.2565 76.3737 88.5484 75.7818C88.8404 75.1898 89.2504 74.7301 89.7785 74.4027C90.3067 74.0753 90.925 73.9116 91.6335 73.9116C92.3421 73.9116 92.9604 74.0753 93.4885 74.4027C94.0166 74.7301 94.4267 75.1898 94.7186 75.7818C95.0106 76.3737 95.1565 77.0649 95.1565 77.8553C95.1565 78.6424 95.0106 79.3303 94.7186 79.919C94.4267 80.5077 94.0166 80.9657 93.4885 81.2931C92.9604 81.6205 92.3421 81.7842 91.6335 81.7842ZM91.6384 80.5391C92.0977 80.5391 92.4782 80.4167 92.78 80.172C93.0818 79.9273 93.3048 79.6015 93.4492 79.1947C93.5968 78.788 93.6706 78.3398 93.6706 77.8504C93.6706 77.3642 93.5968 76.9178 93.4492 76.511C93.3048 76.1009 93.0818 75.7718 92.78 75.5238C92.4782 75.2758 92.0977 75.1517 91.6384 75.1517C91.1759 75.1517 90.7921 75.2758 90.4871 75.5238C90.1853 75.7718 89.9606 76.1009 89.813 76.511C89.6686 76.9178 89.5965 77.3642 89.5965 77.8504C89.5965 78.3398 89.6686 78.788 89.813 79.1947C89.9606 79.6015 90.1853 79.9273 90.4871 80.172C90.7921 80.4167 91.1759 80.5391 91.6384 80.5391ZM97.7173 81.308C98.1962 81.6222 98.7407 81.7793 99.3508 81.7793C99.8101 81.7793 100.184 81.7016 100.473 81.5461C100.761 81.3907 100.988 81.2088 101.152 81.0004C101.319 80.7921 101.447 80.6069 101.535 80.4448H101.659V81.6305H103.095V71.4709H101.624V75.246H101.535C101.447 75.0872 101.322 74.9037 101.162 74.6954C101.004 74.487 100.781 74.3051 100.492 74.1497C100.207 73.9909 99.8298 73.9116 99.3607 73.9116C98.7538 73.9116 98.2109 74.067 97.732 74.3779C97.2531 74.6887 96.8759 75.1369 96.6003 75.7222C96.3281 76.3076 96.1919 77.012 96.1919 77.8355C96.1919 78.659 96.3264 79.3651 96.5954 79.9537C96.8677 80.5391 97.2416 80.9905 97.7173 81.308ZM100.748 80.177C100.456 80.4018 100.099 80.5143 99.6756 80.5143C99.2393 80.5143 98.8719 80.3969 98.5734 80.1621C98.2782 79.924 98.0551 79.6015 97.9042 79.1947C97.7533 78.788 97.6779 78.3299 97.6779 77.8206C97.6779 77.3179 97.7517 76.8665 97.8993 76.4663C98.0502 76.0662 98.2733 75.7503 98.5685 75.5188C98.8637 75.2873 99.2327 75.1716 99.6756 75.1716C100.105 75.1716 100.466 75.2824 100.758 75.504C101.05 75.7255 101.271 76.0348 101.422 76.4316C101.573 76.8285 101.649 77.2915 101.649 77.8206C101.649 78.3564 101.572 78.826 101.417 79.2295C101.267 79.6329 101.043 79.9488 100.748 80.177ZM108.175 81.7842C107.431 81.7842 106.789 81.6238 106.251 81.3031C105.717 80.979 105.303 80.5242 105.011 79.9389C104.723 79.3502 104.578 78.6606 104.578 77.8702C104.578 77.0897 104.723 76.4018 105.011 75.8066C105.303 75.2113 105.71 74.7466 106.232 74.4126C106.757 74.0786 107.37 73.9116 108.072 73.9116C108.498 73.9116 108.912 73.9827 109.312 74.1249C109.712 74.2671 110.071 74.4903 110.389 74.7946C110.708 75.0988 110.959 75.494 111.142 75.9802C111.326 76.463 111.418 77.05 111.418 77.7412V78.2671H106.046C106.057 78.7315 106.145 79.1301 106.31 79.4626C106.491 79.8198 106.742 80.0926 107.063 80.2811C107.385 80.4663 107.76 80.5589 108.19 80.5589C108.469 80.5589 108.723 80.5193 108.953 80.4399C109.182 80.3572 109.381 80.2348 109.548 80.0728C109.715 79.9107 109.843 79.7107 109.932 79.4725L111.324 79.7255C111.213 80.1389 111.013 80.5011 110.724 80.8119C110.439 81.1195 110.079 81.3593 109.646 81.5312C109.217 81.6999 108.726 81.7842 108.175 81.7842ZM106.291 76.2381C106.147 76.5224 106.066 76.8283 106.048 77.1559H109.976C109.976 76.7656 109.897 76.42 109.74 76.1191C109.582 75.8148 109.361 75.5751 109.076 75.3998C108.794 75.2245 108.462 75.1369 108.082 75.1369C107.668 75.1369 107.308 75.2394 106.999 75.4444C106.694 75.6462 106.458 75.9107 106.291 76.2381ZM113.969 81.308C114.448 81.6222 114.992 81.7793 115.602 81.7793C116.061 81.7793 116.435 81.7016 116.724 81.5461C117.013 81.3907 117.239 81.2088 117.403 81.0004C117.57 80.7921 117.698 80.6069 117.787 80.4448H117.91V81.6305H119.347V71.4709H117.875V75.246H117.787C117.698 75.0872 117.574 74.9037 117.413 74.6954C117.256 74.487 117.032 74.3051 116.744 74.1497C116.458 73.9909 116.081 73.9116 115.612 73.9116C115.005 73.9116 114.462 74.067 113.983 74.3779C113.505 74.6887 113.127 75.1369 112.852 75.7222C112.579 76.3076 112.443 77.012 112.443 77.8355C112.443 78.659 112.578 79.3651 112.847 79.9537C113.119 80.5391 113.493 80.9905 113.969 81.308ZM117 80.177C116.708 80.4018 116.35 80.5143 115.927 80.5143C115.491 80.5143 115.123 80.3969 114.825 80.1621C114.53 79.924 114.307 79.6015 114.156 79.1947C114.005 78.788 113.929 78.3299 113.929 77.8206C113.929 77.3179 114.003 76.8665 114.151 76.4663C114.302 76.0662 114.525 75.7503 114.82 75.5188C115.115 75.2873 115.484 75.1716 115.927 75.1716C116.357 75.1716 116.718 75.2824 117.009 75.504C117.301 75.7255 117.523 76.0348 117.674 76.4316C117.825 76.8285 117.9 77.2915 117.9 77.8206C117.9 78.3564 117.823 78.826 117.669 79.2295C117.518 79.6329 117.295 79.9488 117 80.177Z" fill="#0D041B" fill-opacity="0.75"/>
</svg>
