<svg width="47" height="32" viewBox="0 0 47 32" fill="none" xmlns="http://www.w3.org/2000/svg">
<g clip-path="url(#clip0_5954_19002)">
<path d="M33.7379 11.1822C32.1101 11.1469 30.8806 10.4976 30.3655 9.39662C30.0358 8.68381 30.0771 7.8863 30.4754 7.34993C30.8326 6.87708 31.6911 6.26307 33.1953 6.73593C35.139 7.34287 36.1967 8.74733 36.6707 10.5752C35.6335 10.9775 34.6239 11.2104 33.731 11.1892L33.7379 11.1822ZM47.0006 6.07252L44.5006 4.38576C43.4497 6.03017 41.5128 7.82984 39.4042 9.17078C38.4495 6.19249 36.5127 4.26578 33.7585 3.72235C31.3614 3.2495 29.3009 3.89173 28.1058 5.47968C27.0069 6.94059 26.8421 8.95905 27.6663 10.7305C28.669 12.883 30.915 14.2099 33.6692 14.2663C34.7544 14.2875 35.9014 14.0758 37.069 13.6876C37.0896 14.7039 37.0278 15.5861 36.9729 16.1295C36.6157 19.623 35.297 25.5443 30.393 25.9254C26.739 26.2006 24.7266 22.4319 24.3901 18.5644C24.0467 14.7039 26.3269 11.4715 26.3475 11.4433L24.6717 9.39662C22.3364 11.5915 21.21 14.3581 21.4092 18.8396C21.6908 25.2126 25.75 29.3624 30.6196 28.9884C35.7846 28.5861 39.1845 24.0199 39.9468 16.4471C40.0911 14.9862 40.1117 13.6241 40.0087 12.3678C42.8865 10.7587 45.5308 8.3521 46.9938 6.07252H47.0006Z" fill="#8C8CA6"/>
<path d="M0 28.1954V10.1069H3.58527V28.1884H0V28.1954ZM0 4.98317V4.84202C0 3.82573 0.803595 3 1.79263 3C2.78167 3 3.58527 3.82573 3.58527 4.84202V4.98317C3.58527 5.99946 2.78167 6.82519 1.79263 6.82519C0.803595 6.82519 0 5.99946 0 4.98317Z" fill="#8C8CA6"/>
<path d="M21.5661 10.1133L14.6084 28.1947H11.5452L4.86914 10.1133H8.83217L13.2485 23.5085H13.3172L17.6992 10.1133H21.5661Z" fill="#8C8CA6"/>
</g>
<defs>
<clipPath id="clip0_5954_19002">
<rect width="47" height="26" fill="white" transform="translate(0 3)"/>
</clipPath>
</defs>
</svg>
