<svg width="96" height="32" viewBox="0 0 96 32" fill="none" xmlns="http://www.w3.org/2000/svg">
<path fill-rule="evenodd" clip-rule="evenodd" d="M15.7309 4.95232C15.7856 4.75951 16.0012 4.65646 16.1916 4.73181C17.3079 5.17615 18.3421 5.77562 19.2647 6.50362C19.3809 6.5956 19.4186 6.75183 19.3627 6.88701C19.3159 7.00004 19.267 7.11196 19.2145 7.22277C18.804 8.09482 18.2338 8.89928 17.5154 9.59849C15.9305 11.1409 13.8221 11.9919 11.5791 11.9941H11.5711C9.33045 11.9941 7.22433 11.1465 5.63819 9.60845C4.91866 8.91037 4.34624 8.10701 3.9346 7.23496C3.88214 7.12526 3.83197 7.01334 3.78522 6.90031C3.72934 6.76513 3.76697 6.60889 3.88328 6.51692C4.80464 5.78781 5.83774 5.18612 6.95408 4.74067C7.14451 4.66532 7.36002 4.76727 7.41476 4.96007C7.43528 5.02877 7.45695 5.09747 7.47976 5.16507C7.68957 5.77451 8.04306 6.33298 8.52426 6.80059C9.33843 7.59064 10.4217 8.02612 11.5723 8.02612H11.5757C12.7285 8.02501 13.8118 7.58733 14.6259 6.79505C15.1071 6.32633 15.4584 5.76786 15.6671 5.15731C15.6898 5.08972 15.7115 5.02102 15.7309 4.95232ZM84.6412 24.9387H88.7235L88.7247 24.9399C88.8488 24.9399 88.9503 24.8433 88.9503 24.7227L88.951 24.5444L88.951 24.5404L88.9511 24.5317C88.957 23.0223 88.9777 17.7096 88.9593 14.9934C88.9537 14.2606 88.9052 13.5149 88.7518 12.7998C88.0937 9.72558 86.28 7.56715 83.2169 6.47806C81.6514 5.92091 80.0273 5.8562 78.3873 6.09859C76.3987 6.39142 74.7091 7.24689 73.3638 8.7034C71.8581 10.3343 71.138 12.2887 71.1065 14.4516C71.0625 17.4973 71.0817 23.5053 71.0861 24.7216C71.0861 24.8422 71.1877 24.9387 71.3119 24.9387H75.4304C75.5545 24.9387 75.656 24.84 75.656 24.7194C75.655 23.5437 75.6538 17.9293 75.6594 15.1984C75.6606 14.7751 75.6831 14.3474 75.7407 13.9284C75.8716 12.9775 76.2508 12.1297 76.9484 11.4365C77.8434 10.547 78.9596 10.2389 80.209 10.2685C82.1108 10.3134 83.5837 11.3905 84.1401 13.153C84.3432 13.7968 84.3974 14.4559 84.3974 15.1249C84.3944 17.607 84.4086 22.399 84.414 24.216L84.4154 24.7205C84.4154 24.8411 84.517 24.9387 84.6412 24.9387ZM69.2244 16.8572H54.4764C54.7304 18.5286 55.4786 19.8491 56.9121 20.7551C58.0689 21.4866 59.3556 21.7268 60.7156 21.5743C61.1896 21.5207 61.6693 21.4339 62.1208 21.287C63.3182 20.8966 64.2156 20.1858 64.5564 18.9125H69.1048C68.9964 19.7241 68.7368 20.4557 68.3566 21.1445C67.4028 22.8685 65.9401 24.0574 64.0711 24.7122C60.6433 25.911 57.3229 25.7092 54.2823 23.6385C51.9855 22.0745 50.6673 19.8689 50.2632 17.1731C49.9731 15.2406 50.1718 13.353 51.0498 11.5752C52.5227 8.59308 54.9539 6.80427 58.3037 6.23834C60.3985 5.88409 62.4401 6.1166 64.334 7.09381C67.2188 8.58212 68.8509 10.9325 69.2583 14.0802C69.3757 14.9829 69.3497 15.8865 69.2267 16.8583L69.2244 16.8572ZM64.4615 13.6185C64.4531 13.5555 64.4462 13.4953 64.4395 13.437L64.4395 13.4368C64.4257 13.3165 64.4129 13.2046 64.3893 13.0953C64.185 12.1532 63.6467 11.4151 62.878 10.8316C62.0226 10.1823 61.0384 9.91139 59.9594 9.85766C57.5746 9.73811 55.4753 11.1398 54.78 13.3585C54.7631 13.4116 54.7551 13.4678 54.7463 13.5292C54.7422 13.5577 54.738 13.5874 54.7326 13.6185H64.4615ZM49.728 21.0803V24.7983C49.728 24.919 49.6264 25.0177 49.5023 25.0177H32.6009C32.6009 25.0177 32.6099 23.0106 32.594 22.2177C32.5884 21.9292 32.6731 21.7154 32.8773 21.5004C35.7274 18.4962 38.5716 15.487 41.4164 12.4771L41.4191 12.4742L42.7337 11.0833C42.8511 10.9594 43.1266 10.6589 43.1266 10.6589H33.5952C33.471 10.6589 33.3694 10.5602 33.3694 10.4395V6.67656C33.3694 6.55591 33.471 6.4572 33.5952 6.4572H49.6253C49.6253 6.4572 49.6197 8.54324 49.6332 9.45027C49.6366 9.6751 49.5317 9.81768 49.3894 9.96794C47.2868 12.1878 39.1278 20.862 39.1278 20.862H49.5034C49.6276 20.862 49.7292 20.9608 49.7292 21.0814L49.728 21.0803ZM91.7062 6.45117H95.7262C95.8507 6.45117 95.9524 6.54878 95.9524 6.66943L96.0009 24.7824C96.0009 24.9042 95.9002 25.0029 95.7747 25.0029H91.7119C91.5877 25.0029 91.4862 24.9042 91.4862 24.7835L91.4805 6.67053C91.4805 6.54988 91.5821 6.45117 91.7062 6.45117ZM19.2362 24.1782C18.8246 23.3083 18.2532 22.5072 17.536 21.8114C15.9488 20.2711 13.8357 19.4212 11.5951 19.4256C8.21188 19.4289 5.29387 21.3859 3.96658 24.1948C3.91526 24.3046 3.86508 24.4153 3.8172 24.5272C3.76018 24.6625 3.79781 24.8198 3.91526 24.9129C4.83776 25.6398 5.87086 26.2381 6.98606 26.6814C7.17649 26.7567 7.39086 26.6548 7.44674 26.4619C7.46612 26.3922 7.48779 26.3246 7.51174 26.2558C8.0853 24.596 9.69882 23.3959 11.5986 23.3937H11.6031C12.7536 23.3937 13.8369 23.8292 14.6511 24.6192C15.1312 25.0846 15.4824 25.6409 15.6921 26.2481C15.7161 26.3157 15.7378 26.3844 15.7572 26.453C15.813 26.6459 16.0274 26.7479 16.2179 26.6714C17.3342 26.2259 18.3662 25.6254 19.2875 24.8962C19.4038 24.8042 19.4414 24.6469 19.3856 24.5117C19.3388 24.3987 19.2886 24.2879 19.2362 24.1771V24.1782ZM0.127713 14.0292C0.152799 13.8652 0.295335 13.7422 0.466379 13.7422V13.7411L12.1019 13.7245L22.7202 13.709C22.8913 13.709 23.0339 13.8309 23.06 13.9949C23.1479 14.55 23.1935 15.1184 23.1935 15.6969C23.1946 16.272 23.1501 16.836 23.0657 17.3867C23.0407 17.5508 22.8982 17.6737 22.7271 17.6737L12.1111 17.6892L0.473221 17.7058C0.302177 17.7058 0.159641 17.5839 0.133414 17.42C0.0456116 16.8648 0 16.2964 0 15.718C0 15.1439 0.0433311 14.58 0.127713 14.0292Z" fill="#9593A7"/>
</svg>
