<svg width="19" height="18" viewBox="0 0 19 18" fill="none" xmlns="http://www.w3.org/2000/svg">
<path d="M2.14394 0L3.61084 1.4669L0.744736 4.31044L2.1665 5.73221L5.01004 2.8661L6.49951 4.35558V0H2.14394ZM14.0105 0C13.6128 0 13.2884 0.324412 13.2884 0.722168V16.6099C13.2884 17.0076 13.6128 17.332 14.0105 17.332H18.0542C18.452 17.332 18.7764 17.0076 18.7764 16.6099V0.722168C18.7764 0.324412 18.452 0 18.0542 0H14.0105ZM7.22168 5.77734C6.82392 5.77734 6.49951 6.10176 6.49951 6.49951V16.6099C6.49951 17.0076 6.82392 17.332 7.22168 17.332H11.5547C11.9524 17.332 12.2769 17.0076 12.2769 16.6099V6.49951C12.2769 6.10176 11.9524 5.77734 11.5547 5.77734H7.22168ZM0.722168 9.38818C0.324412 9.38818 0 9.71259 0 10.1104V16.6099C0 17.0076 0.324412 17.332 0.722168 17.332H4.76584C5.1636 17.332 5.48801 17.0076 5.48801 16.6099V10.1104C5.48801 9.71259 5.1636 9.38818 4.76584 9.38818H0.722168Z" fill="url(#paint0_linear_8_67719)"/>
<defs>
<linearGradient id="paint0_linear_8_67719" x1="0.501418" y1="0.462847" x2="17.3743" y2="18.7418" gradientUnits="userSpaceOnUse">
<stop stop-color="white"/>
<stop offset="1" stop-color="white" stop-opacity="0.6"/>
</linearGradient>
</defs>
</svg>
