<svg width="200" height="164" viewBox="0 0 200 164" fill="none" xmlns="http://www.w3.org/2000/svg">
<path opacity="0.6" d="M79.9321 149V138.92H82.9911C83.0985 138.92 83.2805 138.922 83.5371 138.927C83.7985 138.932 84.0481 138.95 84.2861 138.983C85.0515 139.09 85.6908 139.375 86.2041 139.837C86.7175 140.299 87.1025 140.887 87.3591 141.601C87.6158 142.315 87.7441 143.101 87.7441 143.96C87.7441 144.819 87.6158 145.605 87.3591 146.319C87.1025 147.033 86.7175 147.621 86.2041 148.083C85.6908 148.545 85.0515 148.83 84.2861 148.937C84.0528 148.965 83.8031 148.984 83.5371 148.993C83.2711 148.998 83.0891 149 82.9911 149H79.9321ZM80.9961 148.013H82.9911C83.1825 148.013 83.3878 148.008 83.6071 147.999C83.8311 147.985 84.0225 147.962 84.1811 147.929C84.7691 147.826 85.2428 147.588 85.6021 147.215C85.9661 146.842 86.2321 146.375 86.4001 145.815C86.5681 145.25 86.6521 144.632 86.6521 143.96C86.6521 143.283 86.5681 142.663 86.4001 142.098C86.2321 141.533 85.9661 141.067 85.6021 140.698C85.2381 140.329 84.7645 140.094 84.1811 139.991C84.0225 139.958 83.8288 139.937 83.6001 139.928C83.3761 139.914 83.1731 139.907 82.9911 139.907H80.9961V148.013ZM89.3384 149V141.44H90.2624V143.26L90.0804 143.022C90.1644 142.798 90.2741 142.593 90.4094 142.406C90.5447 142.215 90.6917 142.058 90.8504 141.937C91.0464 141.764 91.2751 141.634 91.5364 141.545C91.7977 141.452 92.0614 141.398 92.3274 141.384C92.5934 141.365 92.8361 141.384 93.0554 141.44V142.406C92.7801 142.336 92.4791 142.32 92.1524 142.357C91.8257 142.394 91.5247 142.525 91.2494 142.749C90.9974 142.945 90.8084 143.181 90.6824 143.456C90.5564 143.727 90.4724 144.016 90.4304 144.324C90.3884 144.627 90.3674 144.928 90.3674 145.227V149H89.3384ZM97.2743 149.189C96.8217 149.189 96.425 149.119 96.0843 148.979C95.7483 148.839 95.4613 148.65 95.2233 148.412C94.99 148.174 94.801 147.903 94.6563 147.6C94.5117 147.292 94.4067 146.968 94.3413 146.627C94.276 146.282 94.2433 145.939 94.2433 145.598V141.44H95.2793V145.297C95.2793 145.712 95.319 146.097 95.3983 146.452C95.4777 146.807 95.6037 147.117 95.7763 147.383C95.9537 147.644 96.18 147.847 96.4553 147.992C96.7353 148.137 97.0737 148.209 97.4703 148.209C97.8343 148.209 98.154 148.146 98.4293 148.02C98.7093 147.894 98.9427 147.714 99.1293 147.481C99.3207 147.243 99.4653 146.956 99.5633 146.62C99.6613 146.279 99.7103 145.897 99.7103 145.472L100.438 145.633C100.438 146.408 100.303 147.059 100.032 147.586C99.7617 148.113 99.3883 148.512 98.9123 148.783C98.4363 149.054 97.8903 149.189 97.2743 149.189ZM99.8153 149V147.138H99.7103V141.44H100.739V149H99.8153ZM106.091 149.21C105.395 149.21 104.807 149.035 104.327 148.685C103.846 148.33 103.482 147.852 103.235 147.25C102.987 146.643 102.864 145.964 102.864 145.213C102.864 144.448 102.987 143.766 103.235 143.169C103.487 142.567 103.855 142.093 104.341 141.748C104.826 141.403 105.423 141.23 106.133 141.23C106.823 141.23 107.416 141.405 107.911 141.755C108.405 142.105 108.783 142.581 109.045 143.183C109.311 143.785 109.444 144.462 109.444 145.213C109.444 145.969 109.311 146.648 109.045 147.25C108.779 147.852 108.396 148.33 107.897 148.685C107.397 149.035 106.795 149.21 106.091 149.21ZM102.689 152.36V141.44H103.613V147.131H103.725V152.36H102.689ZM105.986 148.251C106.513 148.251 106.952 148.118 107.302 147.852C107.652 147.586 107.913 147.224 108.086 146.767C108.263 146.305 108.352 145.787 108.352 145.213C108.352 144.644 108.265 144.13 108.093 143.673C107.92 143.216 107.656 142.854 107.302 142.588C106.952 142.322 106.506 142.189 105.965 142.189C105.437 142.189 104.999 142.317 104.649 142.574C104.303 142.831 104.044 143.188 103.872 143.645C103.699 144.098 103.613 144.62 103.613 145.213C103.613 145.796 103.699 146.319 103.872 146.781C104.044 147.238 104.306 147.598 104.656 147.859C105.006 148.12 105.449 148.251 105.986 148.251ZM113.144 149.21C112.575 149.21 112.096 149.107 111.709 148.902C111.326 148.697 111.039 148.424 110.848 148.083C110.657 147.742 110.561 147.371 110.561 146.97C110.561 146.559 110.643 146.209 110.806 145.92C110.974 145.626 111.2 145.386 111.485 145.199C111.774 145.012 112.108 144.87 112.486 144.772C112.869 144.679 113.291 144.597 113.753 144.527C114.22 144.452 114.675 144.389 115.118 144.338C115.566 144.282 115.958 144.228 116.294 144.177L115.93 144.401C115.944 143.654 115.799 143.101 115.496 142.742C115.193 142.383 114.665 142.203 113.914 142.203C113.396 142.203 112.957 142.32 112.598 142.553C112.243 142.786 111.994 143.155 111.849 143.659L110.848 143.365C111.021 142.688 111.368 142.163 111.891 141.79C112.414 141.417 113.093 141.23 113.928 141.23C114.619 141.23 115.204 141.361 115.685 141.622C116.17 141.879 116.513 142.252 116.714 142.742C116.807 142.961 116.868 143.206 116.896 143.477C116.924 143.748 116.938 144.023 116.938 144.303V149H116.021V147.103L116.287 147.215C116.03 147.864 115.631 148.358 115.09 148.699C114.549 149.04 113.9 149.21 113.144 149.21ZM113.263 148.321C113.744 148.321 114.164 148.235 114.523 148.062C114.882 147.889 115.172 147.654 115.391 147.355C115.61 147.052 115.753 146.711 115.818 146.333C115.874 146.09 115.904 145.824 115.909 145.535C115.914 145.241 115.916 145.022 115.916 144.877L116.308 145.08C115.958 145.127 115.578 145.173 115.167 145.22C114.761 145.267 114.36 145.32 113.963 145.381C113.571 145.442 113.216 145.514 112.899 145.598C112.684 145.659 112.477 145.745 112.276 145.857C112.075 145.964 111.91 146.109 111.779 146.291C111.653 146.473 111.59 146.699 111.59 146.97C111.59 147.189 111.644 147.402 111.751 147.607C111.863 147.812 112.04 147.983 112.283 148.118C112.53 148.253 112.857 148.321 113.263 148.321ZM118.9 149V138.71H119.929V149H118.9Z" fill="#0E041B"/>
<path d="M112.68 40.6657C107.03 35.1718 101.67 29.8223 100.076 23.75C98.4825 29.8223 93.1227 35.173 87.4728 40.6669C79.0708 49.0529 69.5102 58.595 69.5102 72.9089C69.0754 89.6808 82.5479 103.706 99.352 103.995C116.156 104.285 130.208 90.9826 130.498 74.2107V72.9095C130.642 58.595 121.082 49.0529 112.68 40.6663V40.6657ZM85.1554 75.6552C84.2864 76.812 83.4174 78.1133 82.8373 79.4146C82.692 79.5596 82.5473 79.8485 82.2584 79.8485L82.1137 79.8473C81.3894 79.8473 80.6646 78.546 80.6646 78.546C80.5192 78.2565 80.2298 77.8238 80.0857 77.5343L79.9403 77.246C78.0564 73.1966 79.6503 67.5588 79.6503 67.5588C80.3739 64.8124 81.6783 62.0643 83.2721 59.7512C84.2858 58.3049 85.4454 56.8598 86.6039 55.4135L88.053 56.8598L94.8618 63.8001C95.1519 64.0896 95.1519 64.5223 94.8618 64.8118L87.7629 72.7644L85.1548 75.6546L85.1554 75.6552ZM100.366 95.608C94.5718 95.608 89.7915 90.8364 89.9356 85.0535C89.9356 82.4504 90.9493 79.9936 92.5438 78.1133C94.7171 75.5102 97.4694 72.9083 100.512 69.4384C103.988 73.1978 106.306 75.6552 108.48 78.5478C108.625 78.6929 108.77 78.9818 108.914 79.2707C110.073 81.0053 110.797 83.03 110.797 85.1992C110.941 90.982 106.161 95.6092 100.366 95.6092V95.608ZM120.213 78.8355C120.067 79.2701 119.634 79.5584 119.199 79.7029L119.054 79.7041C118.619 79.559 118.33 79.2701 118.04 78.9812C116.157 76.2348 114.129 73.6317 111.811 71.3181L109.06 68.4267L99.788 58.8845C97.9053 57.1499 96.0215 55.1252 94.2829 53.2456C94.2829 53.1011 94.1382 53.1011 94.1382 53.1011C93.8481 52.6672 93.5593 52.2338 93.4139 51.6548V51.3653C93.1239 49.7745 93.704 48.1844 94.863 47.0276C96.601 45.293 98.4849 43.4127 100.223 41.5336C102.105 43.5578 104.133 45.5819 106.163 47.606C110.219 51.3653 113.841 55.5586 117.172 60.0407C119.924 63.9439 121.373 68.4267 121.373 73.1984C121.082 74.933 120.792 76.9571 120.213 78.8361L120.213 78.8355Z" fill="#0D041B" fill-opacity="0.75"/>
</svg>
