<svg width="200" height="164" viewBox="0 0 200 164" fill="none" xmlns="http://www.w3.org/2000/svg">
<path opacity="0.6" d="M84.0816 149V138.92H87.1406C87.2479 138.92 87.4299 138.922 87.6866 138.927C87.9479 138.932 88.1976 138.95 88.4356 138.983C89.2009 139.09 89.8402 139.375 90.3536 139.837C90.8669 140.299 91.2519 140.887 91.5086 141.601C91.7652 142.315 91.8936 143.101 91.8936 143.96C91.8936 144.819 91.7652 145.605 91.5086 146.319C91.2519 147.033 90.8669 147.621 90.3536 148.083C89.8402 148.545 89.2009 148.83 88.4356 148.937C88.2022 148.965 87.9526 148.984 87.6866 148.993C87.4206 148.998 87.2386 149 87.1406 149H84.0816ZM85.1456 148.013H87.1406C87.3319 148.013 87.5372 148.008 87.7566 147.999C87.9806 147.985 88.1719 147.962 88.3306 147.929C88.9186 147.826 89.3922 147.588 89.7516 147.215C90.1156 146.842 90.3816 146.375 90.5496 145.815C90.7176 145.25 90.8016 144.632 90.8016 143.96C90.8016 143.283 90.7176 142.663 90.5496 142.098C90.3816 141.533 90.1156 141.067 89.7516 140.698C89.3876 140.329 88.9139 140.094 88.3306 139.991C88.1719 139.958 87.9782 139.937 87.7496 139.928C87.5256 139.914 87.3226 139.907 87.1406 139.907H85.1456V148.013ZM96.3788 149.189C95.9261 149.189 95.5295 149.119 95.1888 148.979C94.8528 148.839 94.5658 148.65 94.3278 148.412C94.0945 148.174 93.9055 147.903 93.7608 147.6C93.6161 147.292 93.5111 146.968 93.4458 146.627C93.3805 146.282 93.3478 145.939 93.3478 145.598V141.44H94.3838V145.297C94.3838 145.712 94.4235 146.097 94.5028 146.452C94.5821 146.807 94.7081 147.117 94.8808 147.383C95.0581 147.644 95.2845 147.847 95.5598 147.992C95.8398 148.137 96.1781 148.209 96.5748 148.209C96.9388 148.209 97.2585 148.146 97.5338 148.02C97.8138 147.894 98.0471 147.714 98.2338 147.481C98.4251 147.243 98.5698 146.956 98.6678 146.62C98.7658 146.279 98.8148 145.897 98.8148 145.472L99.5428 145.633C99.5428 146.408 99.4075 147.059 99.1368 147.586C98.8661 148.113 98.4928 148.512 98.0168 148.783C97.5408 149.054 96.9948 149.189 96.3788 149.189ZM98.9198 149V147.138H98.8148V141.44H99.8438V149H98.9198ZM104.733 149.21C104.029 149.21 103.427 149.035 102.927 148.685C102.428 148.33 102.045 147.852 101.779 147.25C101.513 146.648 101.38 145.969 101.38 145.213C101.38 144.462 101.511 143.785 101.772 143.183C102.038 142.581 102.419 142.105 102.913 141.755C103.408 141.405 104.001 141.23 104.691 141.23C105.401 141.23 105.998 141.403 106.483 141.748C106.969 142.093 107.335 142.567 107.582 143.169C107.834 143.766 107.96 144.448 107.96 145.213C107.96 145.964 107.837 146.643 107.589 147.25C107.342 147.852 106.978 148.33 106.497 148.685C106.017 149.035 105.429 149.21 104.733 149.21ZM104.838 148.251C105.375 148.251 105.818 148.12 106.168 147.859C106.518 147.598 106.78 147.238 106.952 146.781C107.125 146.319 107.211 145.796 107.211 145.213C107.211 144.62 107.125 144.098 106.952 143.645C106.78 143.188 106.518 142.831 106.168 142.574C105.823 142.317 105.387 142.189 104.859 142.189C104.318 142.189 103.87 142.322 103.515 142.588C103.161 142.854 102.897 143.216 102.724 143.673C102.556 144.13 102.472 144.644 102.472 145.213C102.472 145.787 102.559 146.305 102.731 146.767C102.909 147.224 103.172 147.586 103.522 147.852C103.872 148.118 104.311 148.251 104.838 148.251ZM107.211 149V143.309H107.099V138.92H108.135V149H107.211ZM112.262 149.21C111.693 149.21 111.214 149.107 110.827 148.902C110.444 148.697 110.157 148.424 109.966 148.083C109.775 147.742 109.679 147.371 109.679 146.97C109.679 146.559 109.761 146.209 109.924 145.92C110.092 145.626 110.318 145.386 110.603 145.199C110.892 145.012 111.226 144.87 111.604 144.772C111.987 144.679 112.409 144.597 112.871 144.527C113.338 144.452 113.793 144.389 114.236 144.338C114.684 144.282 115.076 144.228 115.412 144.177L115.048 144.401C115.062 143.654 114.917 143.101 114.614 142.742C114.311 142.383 113.783 142.203 113.032 142.203C112.514 142.203 112.075 142.32 111.716 142.553C111.361 142.786 111.112 143.155 110.967 143.659L109.966 143.365C110.139 142.688 110.486 142.163 111.009 141.79C111.532 141.417 112.211 141.23 113.046 141.23C113.737 141.23 114.322 141.361 114.803 141.622C115.288 141.879 115.631 142.252 115.832 142.742C115.925 142.961 115.986 143.206 116.014 143.477C116.042 143.748 116.056 144.023 116.056 144.303V149H115.139V147.103L115.405 147.215C115.148 147.864 114.749 148.358 114.208 148.699C113.667 149.04 113.018 149.21 112.262 149.21ZM112.381 148.321C112.862 148.321 113.282 148.235 113.641 148.062C114 147.889 114.29 147.654 114.509 147.355C114.728 147.052 114.871 146.711 114.936 146.333C114.992 146.09 115.022 145.824 115.027 145.535C115.032 145.241 115.034 145.022 115.034 144.877L115.426 145.08C115.076 145.127 114.696 145.173 114.285 145.22C113.879 145.267 113.478 145.32 113.081 145.381C112.689 145.442 112.334 145.514 112.017 145.598C111.802 145.659 111.595 145.745 111.394 145.857C111.193 145.964 111.028 146.109 110.897 146.291C110.771 146.473 110.708 146.699 110.708 146.97C110.708 147.189 110.762 147.402 110.869 147.607C110.981 147.812 111.158 147.983 111.401 148.118C111.648 148.253 111.975 148.321 112.381 148.321Z" fill="#0E041B"/>
<path fill-rule="evenodd" clip-rule="evenodd" d="M57.7124 86.2624H142.287C144.967 86.2624 147.14 84.0718 147.14 81.3706V48.6296C147.14 45.9284 144.967 43.7378 142.287 43.7378H57.7124C55.0332 43.7378 52.8604 45.9284 52.8604 48.6296V81.3706C52.8604 84.0718 55.0332 86.2624 57.7124 86.2624ZM75.7927 52.5004V61.5452C74.3454 60.474 72.7508 59.841 70.8228 59.841C66.0039 59.841 62.0836 63.7934 62.0836 68.6518C62.0836 73.5103 66.0039 77.4627 70.8228 77.4627C72.7508 77.4627 74.3454 76.8278 75.7927 75.7585V77.1155H80.1918V52.4986H75.7927V52.5004ZM71.215 73.319C68.6629 73.319 66.5858 71.2249 66.5858 68.6518C66.5858 66.0787 68.6629 63.9846 71.215 63.9846C73.7672 63.9846 75.8443 66.0787 75.8443 68.6518C75.8424 71.2249 73.7672 73.319 71.215 73.319ZM115.178 52.5004V61.5452C113.731 60.474 112.136 59.841 110.208 59.841C105.389 59.841 101.469 63.7934 101.469 68.6518C101.469 73.5103 105.389 77.4627 110.208 77.4627C112.136 77.4627 113.731 76.8278 115.178 75.7585V77.1155H119.577V52.4986H115.178V52.5004ZM110.6 73.319C108.048 73.319 105.971 71.2249 105.971 68.6518C105.971 66.0787 108.048 63.9846 110.6 63.9846C113.153 63.9846 115.23 66.0787 115.23 68.6518C115.23 71.2249 113.153 73.319 110.6 73.319ZM124.029 65.39L122.492 62.3528C123.591 61.4969 125.858 59.7741 129.568 59.7704C135.698 59.7704 137.913 63.8454 137.913 67.1537V77.1749H133.632L133.616 75.6007C133.282 76.1873 131.901 77.498 128.336 77.498C124.84 77.498 122.291 75.4503 122.291 72.1587C122.291 67.2892 127.255 66.5169 129.553 66.4668C131.268 66.4333 133.433 66.5503 133.433 66.5503C133.433 66.5503 133.395 63.4945 129.463 63.4945C127.498 63.4945 125.812 64.1814 124.029 65.39ZM126.241 71.9749C126.241 73.889 127.905 74.1415 128.905 74.1415C130.903 74.1415 133.435 72.8642 133.437 69.8084C133.437 69.8084 131.321 69.775 129.539 69.8084C127.889 69.8418 126.241 70.5807 126.241 71.9749ZM87.4008 69.3592C87.4008 71.2658 88.9329 72.8104 90.824 72.8104H91.0118C92.9029 72.8104 94.435 71.2658 94.435 69.3592V60.8918H98.8561V77.1267H94.5988L94.5933 75.0456C94.1274 75.7232 92.7759 77.0784 89.8536 77.0784C87.8501 77.0784 85.7399 76.0407 84.6461 74.7745C83.5597 73.5158 83.0073 71.6575 83.0073 69.2496V60.8936H87.3972L87.4008 69.3592Z" fill="#0D041B" fill-opacity="0.75"/>
</svg>
