<svg width="40" height="40" viewBox="0 0 40 40" fill="none" xmlns="http://www.w3.org/2000/svg">
<g clip-path="url(#bgblur_0_327_41454_clip_path)" data-figma-skip-parse="true"><foreignObject x="-2" y="-2" width="44" height="44"><div xmlns="http://www.w3.org/1999/xhtml" style="backdrop-filter:blur(1px);height:100%;width:100%"></div></foreignObject></g><g data-figma-bg-blur-radius="2">
<circle cx="20" cy="20" r="20" fill="white" fill-opacity="0.04"/>
<circle cx="20" cy="20" r="20" fill="url(#paint0_radial_327_41454)" fill-opacity="0.04"/>
<circle cx="20" cy="20" r="19.6" stroke="url(#paint1_linear_327_41454)" stroke-opacity="0.2" stroke-width="0.8" style="mix-blend-mode:overlay"/>
</g>
<g style="mix-blend-mode:plus-lighter" opacity="0.2">
<path fill-rule="evenodd" clip-rule="evenodd" d="M17.741 11.7472C14.4323 11.7472 11.7501 14.4294 11.7501 17.7381C11.7501 21.0467 14.4323 23.7289 17.741 23.7289C21.0497 23.7289 23.7319 21.0467 23.7319 17.7381C23.7319 14.4294 21.0497 11.7472 17.741 11.7472ZM10.25 17.7381C10.25 13.6009 13.6038 10.2471 17.741 10.2471C21.8781 10.2471 25.232 13.6009 25.232 17.7381C25.232 19.5369 24.5979 21.1877 23.5411 22.4791L28.1224 27.0605C28.4154 27.3534 28.4154 27.8283 28.1224 28.1212C27.8295 28.4141 27.3546 28.4141 27.0617 28.1212L22.4801 23.5397C21.189 24.5956 19.539 25.229 17.741 25.229C13.6038 25.229 10.25 21.8752 10.25 17.7381ZM18.4903 15.1465C18.4903 14.7322 18.1545 14.3964 17.7402 14.3964C17.326 14.3964 16.9902 14.7322 16.9902 15.1465V16.9887H15.1484C14.7342 16.9887 14.3984 17.3245 14.3984 17.7388C14.3984 18.153 14.7342 18.4888 15.1484 18.4888H16.9902V20.3318C16.9902 20.7461 17.326 21.0819 17.7402 21.0819C18.1545 21.0819 18.4903 20.7461 18.4903 20.3318V18.4888H20.3338C20.748 18.4888 21.0838 18.153 21.0838 17.7388C21.0838 17.3245 20.748 16.9887 20.3338 16.9887H18.4903V15.1465Z" fill="white" style="mix-blend-mode:overlay"/>
</g>
<g opacity="0.8">
<path fill-rule="evenodd" clip-rule="evenodd" d="M17.741 11.7472C14.4323 11.7472 11.7501 14.4294 11.7501 17.7381C11.7501 21.0467 14.4323 23.7289 17.741 23.7289C21.0497 23.7289 23.7319 21.0467 23.7319 17.7381C23.7319 14.4294 21.0497 11.7472 17.741 11.7472ZM10.25 17.7381C10.25 13.6009 13.6038 10.2471 17.741 10.2471C21.8781 10.2471 25.232 13.6009 25.232 17.7381C25.232 19.5369 24.5979 21.1877 23.5411 22.4791L28.1224 27.0605C28.4154 27.3534 28.4154 27.8283 28.1224 28.1212C27.8295 28.4141 27.3546 28.4141 27.0617 28.1212L22.4801 23.5397C21.189 24.5956 19.539 25.229 17.741 25.229C13.6038 25.229 10.25 21.8752 10.25 17.7381ZM18.4903 15.1465C18.4903 14.7322 18.1545 14.3964 17.7402 14.3964C17.326 14.3964 16.9902 14.7322 16.9902 15.1465V16.9887H15.1484C14.7342 16.9887 14.3984 17.3245 14.3984 17.7388C14.3984 18.153 14.7342 18.4888 15.1484 18.4888H16.9902V20.3318C16.9902 20.7461 17.326 21.0819 17.7402 21.0819C18.1545 21.0819 18.4903 20.7461 18.4903 20.3318V18.4888H20.3338C20.748 18.4888 21.0838 18.153 21.0838 17.7388C21.0838 17.3245 20.748 16.9887 20.3338 16.9887H18.4903V15.1465Z" fill="white" style="mix-blend-mode:overlay"/>
</g>
<defs>
<clipPath id="bgblur_0_327_41454_clip_path"><circle cx="20" cy="20" r="20"/>
</clipPath><radialGradient id="paint0_radial_327_41454" cx="0" cy="0" r="1" gradientUnits="userSpaceOnUse" gradientTransform="translate(-1.99999 -9) rotate(71.9588) scale(92.0245 204.556)">
<stop stop-color="#A265D1"/>
<stop offset="1" stop-color="#E790E7" stop-opacity="0.4"/>
</radialGradient>
<linearGradient id="paint1_linear_327_41454" x1="25" y1="40" x2="13.5" y2="8.21799e-07" gradientUnits="userSpaceOnUse">
<stop stop-color="white" stop-opacity="0.5"/>
<stop offset="1" stop-color="white"/>
</linearGradient>
</defs>
</svg>
