<svg width="22" height="22" viewBox="0 0 22 22" fill="none" xmlns="http://www.w3.org/2000/svg">
<g style="mix-blend-mode:overlay">
<path d="M20.1654 11.2783C20.1654 6.1848 16.0614 2.05566 10.9987 2.05566C5.93609 2.05566 1.83203 6.1848 1.83203 11.2783C1.83203 15.8816 5.18413 19.6971 9.56641 20.389V13.9443H7.23893V11.2783H9.56641V9.24647C9.56641 6.93504 10.935 5.65827 13.0287 5.65827C14.0318 5.65827 15.0807 5.83841 15.0807 5.83841V8.10806H13.9249C12.7862 8.10806 12.431 8.81903 12.431 9.54841V11.2783H14.9733L14.5669 13.9443H12.431V20.389C16.8133 19.6971 20.1654 15.8817 20.1654 11.2783Z" fill="white"/>
</g>
<g style="mix-blend-mode:overlay">
<path d="M20.1654 11.2783C20.1654 6.1848 16.0614 2.05566 10.9987 2.05566C5.93609 2.05566 1.83203 6.1848 1.83203 11.2783C1.83203 15.8816 5.18413 19.6971 9.56641 20.389V13.9443H7.23893V11.2783H9.56641V9.24647C9.56641 6.93504 10.935 5.65827 13.0287 5.65827C14.0318 5.65827 15.0807 5.83841 15.0807 5.83841V8.10806H13.9249C12.7862 8.10806 12.431 8.81903 12.431 9.54841V11.2783H14.9733L14.5669 13.9443H12.431V20.389C16.8133 19.6971 20.1654 15.8817 20.1654 11.2783Z" fill="white"/>
</g>
</svg>
