<svg width="79" height="32" viewBox="0 0 79 32" fill="none" xmlns="http://www.w3.org/2000/svg">
<path fill-rule="evenodd" clip-rule="evenodd" d="M76.5054 4.41616C77.698 4.41616 78.7383 3.51469 78.7383 2.2091C78.7383 0.934535 77.698 0.00195312 76.5054 0.00195312C75.2821 0.00195312 74.2422 0.934535 74.2422 2.2091C74.2422 3.51469 75.2821 4.41616 76.5054 4.41616Z" fill="#8C8CA6"/>
<path d="M21.9486 7.51778V16.1271C21.9486 17.6426 22.7052 18.6745 24.3169 18.6745C25.5544 18.6745 26.6306 17.9475 26.9392 16.7128L26.9484 16.6752V7.51778H31.06V21.9312H26.9813V20.6092C26.1589 21.512 24.7445 22.2536 23.0341 22.2536C19.7777 22.2536 17.9076 20.1678 17.8705 17.0287L17.8699 16.9333V7.51778H21.9486ZM7.36792 7.34291C8.57542 7.34291 9.73468 7.6432 10.759 8.18462L10.759 7.52569H14.7966V21.9781H10.759L10.759 21.2221C9.73468 21.7529 8.57542 22.0432 7.36792 22.0432C3.38525 22.0432 0 19.041 0 14.693C0 10.4485 3.38525 7.34291 7.36792 7.34291ZM50.3666 7.19531C53.3624 7.19531 55.1655 9.21794 55.2013 12.4184L55.2018 12.5157V21.9312H51.1231V13.3541C51.1231 11.8063 50.4324 10.7745 49.018 10.7745C47.9762 10.7745 47.0312 11.4061 46.7567 12.607L46.7484 12.6446V21.9312H42.6368V13.3541C42.6368 11.8063 41.9788 10.7745 40.5645 10.7745C39.5227 10.7745 38.5454 11.4061 38.2703 12.607L38.262 12.6446V21.9312H34.1832V7.51778H38.262V8.7108C38.9856 7.80794 40.3342 7.19531 41.9788 7.19531C43.7222 7.19531 45.1037 7.96921 45.926 9.03327C46.8799 8.00143 48.2943 7.19531 50.3666 7.19531ZM66.2193 7.19531C69.5083 7.19531 71.3788 9.28115 71.4159 12.4202L71.4165 12.5157V21.9312H67.3377V13.3541C67.3377 11.8385 66.5483 10.8067 64.9366 10.8067C63.6991 10.8067 62.6229 11.5336 62.2823 12.7683L62.2722 12.8059V21.9312H58.1935V7.51778H62.2722V8.83977C63.0617 7.93699 64.509 7.19531 66.2193 7.19531ZM78.4872 7.51778V21.9312H74.4082V7.51778H78.4872ZM7.34149 11.2575C5.47374 11.2575 3.88619 12.7091 3.88619 14.693C3.88619 16.7253 5.47374 18.1286 7.34149 18.1286C9.16252 18.1286 10.7502 16.7253 10.7502 14.693C10.7502 12.7091 9.16252 11.2575 7.34149 11.2575Z" fill="#8C8CA6"/>
<path d="M28.7673 26.1387V26.2834H29.3064V29.0962C29.3064 29.9415 29.0722 30.1794 28.5502 30.1794C28.2219 30.1794 28.1677 29.9296 28.1677 29.8004C28.1677 29.4929 28.1507 29.3048 27.8709 29.3048C27.5896 29.3048 27.5566 29.5893 27.5566 29.6762C27.5566 30.0635 27.7288 30.36 28.4975 30.36C29.4137 30.36 29.9034 30.0502 29.9034 29.0218V26.2826L30.4601 26.2834V26.1387L28.7673 26.1387ZM30.452 29.802C30.3867 29.8671 30.3544 29.9443 30.3544 30.0381C30.3544 30.1312 30.3867 30.2077 30.4528 30.2694C30.5184 30.3339 30.5965 30.3651 30.6877 30.3651C30.7805 30.3651 30.8588 30.3339 30.9258 30.2694C30.9903 30.2077 31.023 30.1312 31.023 30.0381C31.023 29.9433 30.9903 29.8658 30.9258 29.802C30.8612 29.7371 30.7833 29.707 30.6877 29.707C30.5933 29.707 30.5154 29.7371 30.452 29.802ZM34.2114 29.802C34.147 29.8671 34.1159 29.9443 34.1159 30.0381C34.1159 30.1312 34.147 30.2077 34.2114 30.2694C34.28 30.3339 34.356 30.3651 34.4472 30.3651C34.5415 30.3651 34.6203 30.3339 34.6867 30.2694C34.7521 30.2077 34.7844 30.1312 34.7844 30.0381C34.7844 29.9433 34.7521 29.8658 34.6871 29.802C34.6212 29.7371 34.5423 29.707 34.4472 29.707C34.354 29.707 34.2757 29.7371 34.2114 29.802ZM31.6099 26.139V26.2833H32.0969V29.492C32.0969 29.7442 32.0814 29.8098 32.0532 29.8828C32.0231 29.9644 31.9551 30.0287 31.8544 30.0705C31.7794 30.1023 31.6658 30.1189 31.5143 30.123V30.2556H33.2988V30.1244C33.1475 30.1207 33.0321 30.1033 32.9566 30.0764C32.8501 30.0342 32.7811 29.9723 32.7474 29.8883C32.7178 29.8162 32.7026 29.7526 32.7026 29.6258V28.527L33.1441 28.5251C34.4266 28.5251 34.787 28.0185 34.787 27.3271C34.787 26.6284 34.5657 26.1387 33.2672 26.1387L31.6099 26.139ZM32.7026 26.3017L33.0093 26.2977C33.9983 26.2977 34.2142 26.705 34.2142 27.365C34.2142 28.0293 33.8254 28.3681 33.041 28.3681H32.7026V26.3017ZM39.4163 26.1482C39.4014 26.1864 38.1596 29.2846 38.1596 29.2846L38.1313 29.3031L38.1016 29.2846C38.1016 29.2846 36.7783 26.1864 36.7628 26.1482H35.5952V26.2809H36.102V29.4674L36.0911 29.7575C36.083 29.8341 36.0591 29.9025 36.0217 29.9568C35.9822 30.0161 35.918 30.061 35.8345 30.0906C35.7794 30.1086 35.6973 30.1209 35.5952 30.1232V30.2558H36.7541V30.125C36.6555 30.1209 36.6127 30.1111 36.555 30.0918C36.47 30.0638 36.4061 30.0216 36.3639 29.961C36.3262 29.9046 36.3018 29.8373 36.2933 29.7575L36.2804 29.4674V26.7151H36.3485C36.3485 26.7151 37.8469 30.2173 37.8626 30.2558H37.9877L39.406 26.754H39.4417V29.5918C39.4417 29.7132 39.4294 29.807 39.406 29.8796C39.378 29.9646 39.3176 30.0287 39.2299 30.072C39.1649 30.101 39.0657 30.118 38.9351 30.1232V30.2558H40.552V30.1232C40.4229 30.1168 40.323 30.0994 40.2552 30.0689C40.1612 30.0232 40.1003 29.9568 40.0736 29.872C40.0501 29.7979 40.0389 29.7075 40.0389 29.5918V26.2835L40.4687 26.2793V26.1482L39.4163 26.1482ZM40.8446 28.8137C40.8446 30.2797 41.9838 30.3765 42.2297 30.3765C42.7167 30.3765 43.6397 30.0725 43.6397 28.786C43.6397 27.7851 43.0493 27.2404 42.2492 27.2404C41.386 27.2404 40.8446 27.8131 40.8446 28.8137ZM41.4889 28.8299C41.4889 28.0259 41.5389 27.4226 42.2377 27.4226C42.9927 27.4226 42.9962 28.0469 42.9962 28.7793C42.9962 29.8316 42.8166 30.1946 42.2377 30.1946C41.5889 30.1946 41.4889 29.8701 41.4889 28.8299ZM45.0779 27.9015L45.0375 27.9001C45.0331 27.9015 44.9632 27.448 44.9368 27.3143C44.7354 27.3143 43.9377 27.3124 43.9377 27.3124V27.4658H44.4783C44.4783 27.4658 44.4753 27.9253 44.4753 28.0909V29.4984C44.4753 29.6999 44.453 29.8405 44.4096 29.9256C44.3542 30.0261 44.2303 30.0764 44.0251 30.0764H43.9377V30.2558H45.612V30.0764H45.5217C45.302 30.0764 45.2073 30.0287 45.1484 29.9334C45.0951 29.8493 45.0712 29.707 45.0712 29.4984V28.4429C45.0712 28.087 45.3388 27.6818 45.6596 27.6818C45.9949 27.6818 45.9871 28.199 46.3672 27.9909C46.5738 27.8777 46.5389 27.2851 45.8975 27.2851C45.3813 27.2851 45.2204 27.5905 45.0779 27.9015ZM50.3052 27.4672C50.114 27.6129 50.0396 27.7475 50.0396 27.9402C50.0396 28.0298 50.0637 28.093 50.114 28.1353C50.1644 28.1803 50.2236 28.2009 50.2961 28.2009C50.4625 28.2009 50.5562 28.1162 50.5907 27.897C50.6162 27.7344 50.6516 27.6417 50.7316 27.557C50.8171 27.4672 50.9506 27.4223 51.1312 27.4223C51.3411 27.4223 51.4897 27.4789 51.573 27.5921C51.6493 27.6984 51.6899 27.8432 51.6899 28.0219V28.5155C51.1533 28.564 49.8868 28.6658 49.9431 29.6319C49.9642 30.0098 50.2972 30.3416 50.7272 30.3416C51.2027 30.3416 51.5036 30.0704 51.7079 29.8534C51.7407 30.059 51.9313 30.3045 52.278 30.3045C52.6678 30.3045 52.9006 30.1133 52.9277 29.6349H52.8275C52.8011 29.8428 52.6727 29.955 52.567 29.955C52.3877 29.955 52.3309 29.8552 52.3176 29.6889L52.307 29.3123V28.0792C52.307 27.813 52.2642 27.6341 52.1075 27.4773C51.9531 27.3205 51.6545 27.2403 51.2229 27.2403C50.8085 27.2403 50.5008 27.3169 50.3052 27.4672ZM50.5291 29.5186C50.5291 28.9706 51.279 28.6964 51.6899 28.6964V29.6434L51.6798 29.6668L51.6672 29.6787C51.3803 29.9392 51.1613 30.0321 51.0011 30.0321C50.5907 30.0321 50.5291 29.6898 50.5291 29.5186ZM54.106 27.8457L54.0523 27.8436L53.9473 27.3088L53.0372 27.3073V27.4607C53.2082 27.4678 53.4931 27.471 53.4931 27.471V29.495C53.4931 29.6522 53.4809 29.7655 53.4577 29.8405C53.4334 29.93 53.3754 29.9926 53.2895 30.0287C53.2344 30.0525 53.1477 30.0656 53.0372 30.0705V30.2558H54.4843V30.0691C54.3387 30.0574 54.2407 30.0179 54.1883 29.9435C54.1318 29.8639 54.106 29.7272 54.106 29.5273V28.7499C54.106 28.4246 54.1042 28.1106 54.215 27.9163C54.3345 27.7045 54.5535 27.5877 54.7985 27.5877C55.0189 27.5877 55.1348 27.6584 55.2076 27.7984C55.2669 27.9123 55.3053 28.2513 55.3053 28.4846L55.2982 29.4481C55.2982 29.6085 55.3184 29.7272 55.3053 29.8031C55.289 29.8919 55.2488 29.961 55.1793 30.0069C55.1286 30.0418 55.0491 30.0599 54.9472 30.0675V30.2558H56.3418V30.0705C56.1655 30.059 56.0501 30.0161 55.9994 29.9335C55.9421 29.8493 55.8948 29.7077 55.8948 29.4965L55.9028 28.1628C55.9028 27.9701 55.8769 27.8051 55.8045 27.6697C55.7314 27.538 55.6287 27.4382 55.5009 27.3725C55.3712 27.3073 55.2225 27.275 55.0591 27.275C54.4708 27.275 54.2347 27.6346 54.106 27.8457ZM49.4473 27.1215C49.3611 27.1491 49.3037 27.2259 49.2735 27.3557C49.2508 27.4755 49.2055 27.5448 49.1449 27.5642C49.0844 27.582 49.0168 27.5768 48.9362 27.5495C48.7863 27.4099 48.4986 27.2404 47.9923 27.2404C47.1771 27.2404 46.8179 27.8218 46.8179 28.3523C46.8179 28.9732 47.0562 29.2738 47.5805 29.3844C47.6124 29.3912 47.6124 29.4263 47.5848 29.4326C47.1374 29.5234 46.7411 29.6544 46.7411 30.0799C46.7411 30.3364 46.8882 30.477 47.0764 30.5539C47.2842 30.6384 47.5763 30.6822 47.9429 30.6888C48.2635 30.6923 48.4906 30.7037 48.6386 30.7214C48.7987 30.7397 48.9252 30.7854 49.0189 30.8536C49.1152 30.9282 49.1662 31.0381 49.1662 31.1821C49.1662 31.379 49.061 31.5374 48.8514 31.6548C48.6562 31.7639 48.3896 31.821 48.0578 31.821C47.7733 31.821 47.5405 31.7898 47.3304 31.6588C47.1748 31.5622 47.1443 31.3726 47.1771 31.2359C47.2061 31.0977 47.1567 30.952 46.9967 30.925C46.9087 30.9102 46.7979 30.9582 46.7467 31.0381C46.6988 31.1126 46.6818 31.2012 46.6818 31.3068C46.6818 31.6569 46.9519 31.821 47.1583 31.8813C47.4731 31.9774 47.682 32.0006 47.9714 32.0006C48.3552 32.0006 48.667 31.9419 48.8898 31.8288C49.1127 31.7161 49.2681 31.5784 49.351 31.4199C49.4384 31.2604 49.4802 31.0975 49.4802 30.9408C49.4802 30.7292 49.4338 30.5566 49.3436 30.4297C49.0523 30.0285 48.6386 30.0799 47.7087 30.0355C47.2614 30.0355 47.1751 29.9546 47.1751 29.8169C47.1751 29.615 47.3408 29.5354 47.9886 29.436C48.6259 29.3368 49.22 29.1024 49.22 28.323C49.22 28.099 49.1676 27.9064 49.1044 27.7718C49.2361 27.8012 49.3591 27.8012 49.4714 27.764C49.6001 27.7243 49.6834 27.6598 49.7318 27.5694C49.7803 27.4786 49.7911 27.3932 49.7643 27.3099C49.7217 27.1734 49.6488 27.1054 49.5434 27.1054C49.514 27.1054 49.482 27.1108 49.4473 27.1215ZM47.4092 28.3523C47.4092 27.805 47.5998 27.3978 48.0079 27.3978C48.4827 27.3978 48.6215 27.7688 48.6215 28.3409C48.6215 29.1593 48.3642 29.2664 48.0079 29.2664C47.6271 29.2664 47.4092 29.128 47.4092 28.3523Z" fill="#8C8CA6"/>
<path d="M59.44 30.3321C59.0619 30.3321 58.7726 30.2059 58.5722 29.9533C58.3717 29.7009 58.2715 29.3258 58.2715 28.828C58.2715 28.3267 58.3697 27.9543 58.5664 27.7109C58.7631 27.4675 59.0544 27.3457 59.44 27.3457C59.6065 27.3457 59.7578 27.363 59.8939 27.3974C60.0301 27.4321 60.1473 27.471 60.2457 27.5147L60.1662 27.8961C60.0376 27.8562 59.9194 27.8245 59.8116 27.8008C59.7039 27.7772 59.5913 27.7653 59.4741 27.7653C59.3683 27.7653 59.2737 27.779 59.1905 27.8061C59.1072 27.8334 59.0382 27.8841 58.9835 27.9584C58.9286 28.0326 58.887 28.1341 58.8586 28.2628C58.8303 28.3915 58.8161 28.559 58.8161 28.7655V28.8525C58.8161 29.0627 58.8303 29.2367 58.8586 29.3744C58.887 29.5121 58.9294 29.6217 58.9863 29.7033C59.043 29.7849 59.1119 29.8419 59.1933 29.8745C59.2746 29.9071 59.3683 29.9233 59.4741 29.9233C59.6102 29.9233 59.7323 29.9061 59.8401 29.8716C59.9478 29.8371 60.0641 29.7926 60.1889 29.7381L60.274 30.1167C60.1794 30.1682 60.0622 30.217 59.9224 30.2631C59.7823 30.309 59.6216 30.3321 59.44 30.3321Z" fill="#8C8CA6"/>
<path d="M61.8454 30.3321C61.4746 30.3321 61.1825 30.2041 60.969 29.9479C60.7552 29.6918 60.6484 29.3221 60.6484 28.8389C60.6484 28.3521 60.757 27.9816 60.9746 27.7272C61.192 27.473 61.4823 27.3457 61.8454 27.3457C62.2122 27.3457 62.5024 27.471 62.7161 27.7217C62.9299 27.9725 63.0367 28.3394 63.0367 28.8225C63.0367 29.313 62.9307 29.6873 62.719 29.9452C62.5072 30.2032 62.2159 30.3321 61.8454 30.3321ZM61.8454 29.9452C61.9475 29.9452 62.0382 29.9271 62.1177 29.8906C62.1971 29.8544 62.2642 29.7953 62.3191 29.7136C62.3738 29.6318 62.4165 29.5238 62.4466 29.3893C62.477 29.255 62.4921 29.0878 62.4921 28.8879V28.8008C62.4921 28.5936 62.4779 28.422 62.4495 28.2858C62.4212 28.1495 62.3805 28.0415 62.3275 27.9615C62.2745 27.8816 62.2075 27.8253 62.1263 27.7926C62.0449 27.7599 61.9512 27.7436 61.8454 27.7436C61.7394 27.7436 61.6459 27.7591 61.5646 27.7898C61.4832 27.8208 61.4151 27.8762 61.3604 27.9561C61.3055 28.036 61.2639 28.1413 61.2355 28.2721C61.2072 28.4029 61.193 28.57 61.193 28.7735V28.8662C61.193 29.0696 61.2081 29.2404 61.2385 29.3784C61.2686 29.5165 61.3111 29.6273 61.366 29.7109C61.4208 29.7945 61.4888 29.8544 61.5702 29.8906C61.6515 29.927 61.7432 29.9452 61.8454 29.9452Z" fill="#8C8CA6"/>
<path d="M66.0093 27.4602C66.0698 27.4312 66.1435 27.4048 66.2305 27.3811C66.3176 27.3576 66.4178 27.3457 66.5313 27.3457C66.7808 27.3457 66.9738 27.4166 67.1099 27.5582C67.2461 27.6999 67.3142 27.9307 67.3142 28.2503V30.2558H66.7922V28.1849C66.7922 28.0215 66.7553 27.9089 66.6816 27.8471C66.6078 27.7854 66.5048 27.7544 66.3723 27.7544C66.2437 27.7544 66.1351 27.7744 66.0461 27.8144C65.9574 27.8544 65.8637 27.9052 65.7654 27.967V30.2558H65.2434V28.1849C65.2434 28.0215 65.2047 27.9089 65.1271 27.8471C65.0496 27.7854 64.9485 27.7544 64.8237 27.7544C64.7027 27.7544 64.5958 27.7726 64.5032 27.809C64.4105 27.8453 64.3149 27.8943 64.2167 27.9561V30.2558H63.6948V27.4002H64.0124L64.1996 27.7544L64.4663 27.4602C64.5267 27.4312 64.5997 27.4048 64.6848 27.3811C64.7699 27.3576 64.8709 27.3457 64.9881 27.3457C65.0978 27.3457 65.1943 27.3557 65.2775 27.3757C65.3606 27.3957 65.4364 27.4239 65.5045 27.4602L65.7144 27.7763L66.0093 27.4602Z" fill="#8C8CA6"/>
<path d="M68.9082 27.4438C68.9724 27.4184 69.0435 27.3957 69.121 27.3757C69.1984 27.3557 69.2921 27.3457 69.4017 27.3457C69.7346 27.3457 69.9851 27.471 70.1534 27.7217C70.3217 27.9725 70.4059 28.343 70.4059 28.8335C70.4059 29.313 70.3197 29.6682 70.1478 29.8988C69.9757 30.1297 69.7176 30.2449 69.3733 30.2449C69.2145 30.2449 69.0756 30.2196 68.9564 30.1686C68.8373 30.1178 68.7361 30.0615 68.6529 29.9997V31.1387H68.1311V27.4002H68.4487L68.6303 27.7436L68.9082 27.4438ZM68.8998 29.8362C68.9998 29.8835 69.118 29.907 69.2542 29.907C69.4584 29.907 69.6116 29.8317 69.7137 29.6809C69.8158 29.5302 69.8669 29.2731 69.8669 28.9098V28.7299C69.8669 28.5483 69.8546 28.3948 69.83 28.2694C69.8055 28.144 69.7684 28.0432 69.7195 27.967C69.6702 27.8907 69.6079 27.8362 69.5323 27.8035C69.4565 27.7708 69.3696 27.7544 69.2712 27.7544C69.154 27.7544 69.0463 27.7717 68.9478 27.8062C68.8496 27.8408 68.7512 27.8889 68.6529 27.9506V29.6999C68.7171 29.7436 68.7994 29.789 68.8998 29.8362Z" fill="#8C8CA6"/>
<path d="M72.4424 28.2721C72.4424 28.1995 72.4348 28.1323 72.4197 28.0706C72.4045 28.0088 72.379 27.9561 72.3431 27.9125C72.3071 27.8689 72.2588 27.8344 72.1985 27.809C72.138 27.7836 72.0604 27.7708 71.9658 27.7708C71.8297 27.7708 71.6897 27.7881 71.546 27.8225C71.4023 27.8572 71.2491 27.9016 71.0866 27.9561L71.0071 27.5691C71.1394 27.5147 71.287 27.4639 71.4496 27.4166C71.6121 27.3694 71.7956 27.3457 71.9999 27.3457C72.3408 27.3457 72.5866 27.4321 72.7377 27.6046C72.8887 27.7772 72.9644 28.0578 72.9644 28.4465V29.7872C72.9644 29.8634 72.9784 29.9143 73.0068 29.9397C73.0352 29.9652 73.0814 29.9779 73.1458 29.9779H73.2649L73.2819 30.2231C73.2516 30.2449 73.2091 30.2658 73.1544 30.2858C73.0995 30.3057 73.0324 30.3157 72.953 30.3157C72.907 30.3157 72.8612 30.313 72.8152 30.3076C72.7693 30.3022 72.7252 30.2921 72.6831 30.2776L72.4708 29.9615L72.222 30.2395C72.1655 30.2648 72.0957 30.2867 72.0129 30.3049C71.9299 30.323 71.8357 30.3321 71.7302 30.3321C71.6172 30.3321 71.5088 30.3176 71.4053 30.2885C71.3016 30.2594 71.211 30.2122 71.1338 30.1468C71.0566 30.0814 70.9954 29.9969 70.9501 29.8934C70.9049 29.7899 70.8824 29.6618 70.8824 29.5092C70.8824 29.3639 70.9029 29.2395 70.9445 29.1359C70.9859 29.0324 71.05 28.9461 71.1366 28.8771C71.2233 28.808 71.3345 28.7536 71.4702 28.7136C71.6058 28.6736 71.7678 28.6427 71.9564 28.621L72.4424 28.5664L72.4424 28.2721ZM72.4424 28.8716L71.9909 28.9261C71.7765 28.9479 71.6223 28.9969 71.5282 29.0733C71.4342 29.1495 71.3872 29.2803 71.3872 29.4656V29.5092C71.3872 29.6727 71.4286 29.7908 71.5112 29.8634C71.594 29.9362 71.7202 29.9724 71.8895 29.9724C72.0323 29.9724 72.1471 29.9489 72.2336 29.9016C72.3201 29.8544 72.3897 29.7999 72.4424 29.7381V28.8716Z" fill="#8C8CA6"/>
<path d="M74.6321 27.4602C74.6963 27.4312 74.773 27.4048 74.8618 27.3811C74.9506 27.3576 75.0537 27.3457 75.1709 27.3457C75.4206 27.3457 75.6162 27.4166 75.7582 27.5582C75.8999 27.6999 75.9708 27.9307 75.9708 28.2503V30.2558H75.449V28.1849C75.449 28.0215 75.4092 27.9089 75.3299 27.8471C75.2504 27.7854 75.1444 27.7544 75.0121 27.7544C74.8797 27.7544 74.7663 27.7735 74.6718 27.8117C74.5772 27.8498 74.4751 27.9016 74.3654 27.967V30.2558H73.8436V27.4002H74.1612L74.354 27.7653L74.6321 27.4602Z" fill="#8C8CA6"/>
<path d="M77.3776 30.1686L76.4189 27.4002H76.9579L77.4911 29.0678L77.6329 29.8961L77.7861 29.0678L78.3137 27.4002H78.8072L77.5706 31.1387H77.0657L77.3776 30.1686Z" fill="#8C8CA6"/>
<path d="M24.7655 28.2549C24.7655 28.1836 24.7578 28.1177 24.7423 28.0571C24.7267 27.9965 24.7006 27.9448 24.6638 27.9019C24.6269 27.8592 24.5775 27.8253 24.5157 27.8004C24.4537 27.7755 24.3743 27.7629 24.2775 27.7629C24.138 27.7629 23.9947 27.7799 23.8475 27.8137C23.7003 27.8477 23.5435 27.8913 23.3771 27.9448L23.2957 27.565C23.4312 27.5115 23.5823 27.4617 23.7489 27.4153C23.9152 27.3689 24.1032 27.3457 24.3123 27.3457C24.6614 27.3457 24.9132 27.4305 25.0679 27.5998C25.2226 27.7692 25.3 28.0446 25.3 28.4261V29.7418C25.3 29.8167 25.3144 29.8667 25.3435 29.8916C25.3726 29.9166 25.4199 29.929 25.4858 29.929H25.6078L25.6252 30.1697C25.5942 30.1911 25.5507 30.2116 25.4946 30.2312C25.4384 30.2508 25.3697 30.2606 25.2883 30.2606C25.2413 30.2606 25.1944 30.258 25.1473 30.2526C25.1002 30.2473 25.0551 30.2374 25.012 30.2232L24.7946 29.913L24.5398 30.1858C24.482 30.2106 24.4104 30.2321 24.3256 30.2499C24.2406 30.2677 24.1442 30.2767 24.0362 30.2767C23.9205 30.2767 23.8094 30.2624 23.7034 30.2339C23.5972 30.2053 23.5045 30.159 23.4254 30.0949C23.3464 30.0307 23.2837 29.9477 23.2373 29.8461C23.191 29.7445 23.168 29.6189 23.168 29.4691C23.168 29.3265 23.189 29.2043 23.2316 29.1027C23.274 29.0011 23.3396 28.9164 23.4283 28.8486C23.5171 28.7809 23.631 28.7275 23.7699 28.6882C23.9088 28.649 24.0746 28.6186 24.2678 28.5973L24.7655 28.5438L24.7655 28.2549ZM24.7655 28.8433L24.3032 28.8968C24.0836 28.9182 23.9257 28.9663 23.8294 29.0412C23.733 29.116 23.6849 29.2444 23.6849 29.4263V29.4691C23.6849 29.6295 23.7273 29.7454 23.8119 29.8167C23.8967 29.8881 24.0259 29.9236 24.1993 29.9236C24.3456 29.9236 24.4631 29.9006 24.5517 29.8542C24.6402 29.8078 24.7116 29.7543 24.7655 29.6937V28.8433Z" fill="#8C8CA6"/>
</svg>
