<svg width="200" height="164" viewBox="0 0 200 164" fill="none" xmlns="http://www.w3.org/2000/svg">
<path opacity="0.6" d="M82.0639 149.21C81.3546 149.21 80.7153 149.086 80.1459 148.839C79.5766 148.592 79.0913 148.239 78.6899 147.782C78.2933 147.325 77.9899 146.774 77.7799 146.13C77.5699 145.481 77.4649 144.758 77.4649 143.96C77.4649 142.905 77.6469 141.986 78.0109 141.202C78.3796 140.413 78.9069 139.802 79.5929 139.368C80.2789 138.934 81.1026 138.717 82.0639 138.717C83.1373 138.717 84.0099 138.969 84.6819 139.473C85.3586 139.972 85.8299 140.644 86.0959 141.489L85.0599 141.741C84.8406 141.125 84.4789 140.633 83.9749 140.264C83.4756 139.895 82.8526 139.711 82.1059 139.711C81.3173 139.706 80.6616 139.884 80.1389 140.243C79.6163 140.598 79.2219 141.097 78.9559 141.741C78.6946 142.38 78.5616 143.12 78.5569 143.96C78.5523 144.8 78.6806 145.54 78.9419 146.179C79.2079 146.814 79.6046 147.313 80.1319 147.677C80.6593 148.036 81.3173 148.218 82.1059 148.223C82.8293 148.223 83.4266 148.083 83.8979 147.803C84.3693 147.523 84.7263 147.122 84.9689 146.599C85.2163 146.076 85.3563 145.458 85.3889 144.744H83.0649V143.862H86.4669C86.4809 143.969 86.4879 144.084 86.4879 144.205C86.4926 144.322 86.4949 144.406 86.4949 144.457C86.4949 145.367 86.3316 146.181 86.0049 146.9C85.6783 147.614 85.1859 148.179 84.5279 148.594C83.8746 149.005 83.0533 149.21 82.0639 149.21ZM90.059 149.21C89.4897 149.21 89.0113 149.107 88.624 148.902C88.2413 148.697 87.9543 148.424 87.763 148.083C87.5717 147.742 87.476 147.371 87.476 146.97C87.476 146.559 87.5577 146.209 87.721 145.92C87.889 145.626 88.1153 145.386 88.4 145.199C88.6893 145.012 89.023 144.87 89.401 144.772C89.7837 144.679 90.206 144.597 90.668 144.527C91.1347 144.452 91.5897 144.389 92.033 144.338C92.481 144.282 92.873 144.228 93.209 144.177L92.845 144.401C92.859 143.654 92.7143 143.101 92.411 142.742C92.1077 142.383 91.5803 142.203 90.829 142.203C90.311 142.203 89.8723 142.32 89.513 142.553C89.1583 142.786 88.9087 143.155 88.764 143.659L87.763 143.365C87.9357 142.688 88.2833 142.163 88.806 141.79C89.3287 141.417 90.0077 141.23 90.843 141.23C91.5337 141.23 92.1193 141.361 92.6 141.622C93.0853 141.879 93.4283 142.252 93.629 142.742C93.7223 142.961 93.783 143.206 93.811 143.477C93.839 143.748 93.853 144.023 93.853 144.303V149H92.936V147.103L93.202 147.215C92.9453 147.864 92.5463 148.358 92.005 148.699C91.4637 149.04 90.815 149.21 90.059 149.21ZM90.178 148.321C90.6587 148.321 91.0787 148.235 91.438 148.062C91.7973 147.889 92.0867 147.654 92.306 147.355C92.5253 147.052 92.6677 146.711 92.733 146.333C92.789 146.09 92.8193 145.824 92.824 145.535C92.8287 145.241 92.831 145.022 92.831 144.877L93.223 145.08C92.873 145.127 92.4927 145.173 92.082 145.22C91.676 145.267 91.2747 145.32 90.878 145.381C90.486 145.442 90.1313 145.514 89.814 145.598C89.5993 145.659 89.3917 145.745 89.191 145.857C88.9903 145.964 88.8247 146.109 88.694 146.291C88.568 146.473 88.505 146.699 88.505 146.97C88.505 147.189 88.5587 147.402 88.666 147.607C88.778 147.812 88.9553 147.983 89.198 148.118C89.4453 148.253 89.772 148.321 90.178 148.321ZM99.7913 149C99.3666 149.089 98.9466 149.124 98.5313 149.105C98.1206 149.086 97.752 148.998 97.4253 148.839C97.1033 148.68 96.8583 148.433 96.6903 148.097C96.555 147.817 96.4803 147.535 96.4663 147.25C96.457 146.961 96.4523 146.632 96.4523 146.263V139.34H97.4743V146.221C97.4743 146.538 97.4766 146.804 97.4813 147.019C97.4906 147.229 97.5396 147.416 97.6283 147.579C97.7963 147.892 98.0623 148.078 98.4263 148.139C98.795 148.2 99.25 148.186 99.7913 148.097V149ZM94.8353 142.322V141.44H99.7913V142.322H94.8353ZM104.102 149.203C103.215 149.203 102.485 149.012 101.911 148.629C101.341 148.246 100.991 147.714 100.861 147.033L101.911 146.858C102.023 147.287 102.277 147.63 102.674 147.887C103.075 148.139 103.57 148.265 104.158 148.265C104.732 148.265 105.184 148.146 105.516 147.908C105.847 147.665 106.013 147.336 106.013 146.921C106.013 146.688 105.959 146.499 105.852 146.354C105.749 146.205 105.537 146.067 105.215 145.941C104.893 145.815 104.412 145.666 103.773 145.493C103.087 145.306 102.55 145.12 102.163 144.933C101.775 144.746 101.5 144.532 101.337 144.289C101.173 144.042 101.092 143.741 101.092 143.386C101.092 142.957 101.213 142.581 101.456 142.259C101.698 141.932 102.034 141.68 102.464 141.503C102.893 141.321 103.392 141.23 103.962 141.23C104.531 141.23 105.04 141.323 105.488 141.51C105.94 141.692 106.304 141.949 106.58 142.28C106.855 142.611 107.018 142.996 107.07 143.435L106.02 143.624C105.95 143.181 105.728 142.831 105.355 142.574C104.986 142.313 104.517 142.177 103.948 142.168C103.411 142.154 102.975 142.257 102.639 142.476C102.303 142.691 102.135 142.978 102.135 143.337C102.135 143.538 102.195 143.71 102.317 143.855C102.438 143.995 102.657 144.128 102.975 144.254C103.297 144.38 103.754 144.518 104.347 144.667C105.042 144.844 105.588 145.031 105.985 145.227C106.381 145.423 106.664 145.654 106.832 145.92C107 146.186 107.084 146.515 107.084 146.907C107.084 147.621 106.818 148.183 106.286 148.594C105.758 149 105.03 149.203 104.102 149.203ZM112.031 149.21C111.336 149.21 110.748 149.035 110.267 148.685C109.787 148.33 109.423 147.852 109.175 147.25C108.928 146.643 108.804 145.964 108.804 145.213C108.804 144.448 108.928 143.766 109.175 143.169C109.427 142.567 109.796 142.093 110.281 141.748C110.767 141.403 111.364 141.23 112.073 141.23C112.764 141.23 113.357 141.405 113.851 141.755C114.346 142.105 114.724 142.581 114.985 143.183C115.251 143.785 115.384 144.462 115.384 145.213C115.384 145.969 115.251 146.648 114.985 147.25C114.719 147.852 114.337 148.33 113.837 148.685C113.338 149.035 112.736 149.21 112.031 149.21ZM108.629 149V138.92H109.665V143.309H109.553V149H108.629ZM111.926 148.251C112.454 148.251 112.892 148.118 113.242 147.852C113.592 147.586 113.854 147.224 114.026 146.767C114.204 146.305 114.292 145.787 114.292 145.213C114.292 144.644 114.206 144.13 114.033 143.673C113.861 143.216 113.597 142.854 113.242 142.588C112.892 142.322 112.447 142.189 111.905 142.189C111.378 142.189 110.939 142.317 110.589 142.574C110.244 142.831 109.985 143.188 109.812 143.645C109.64 144.098 109.553 144.62 109.553 145.213C109.553 145.796 109.64 146.319 109.812 146.781C109.985 147.238 110.246 147.598 110.596 147.859C110.946 148.12 111.39 148.251 111.926 148.251ZM117.63 152.36L119.093 148.391L119.114 149.567L115.803 141.44H116.895L119.611 148.237H119.163L121.669 141.44H122.719L118.659 152.36H117.63Z" fill="black"/>
<path d="M100 32.9316C82.5058 32.9316 68.1924 47.3624 68.1924 65C68.1924 82.6376 82.5058 97.0684 100 97.0684C117.494 97.0684 131.808 82.6376 131.808 65C131.808 47.3624 117.494 32.9316 100 32.9316ZM82.2772 82.8681C77.5061 78.0578 75.0072 71.6442 75.0072 65.461L99.7714 90.1967C93.4099 89.9662 87.0484 87.6773 82.2772 82.8671V82.8681ZM105.451 89.5123L75.69 59.5023C78.1889 48.2784 88.1855 39.8033 100 39.8033C108.406 39.8033 115.675 43.9261 120.221 50.1113L116.811 53.0876C112.952 47.8204 106.816 44.3861 100 44.3861C91.1396 44.3861 83.642 50.1123 80.6868 58.1294L106.816 84.4715C113.406 82.1806 118.403 76.4544 119.993 69.5828H109.089V65H124.993C124.993 76.9114 116.587 86.9899 105.454 89.5092L105.451 89.5123Z" fill="#0D041B" fill-opacity="0.75"/>
</svg>
