<svg width="200" height="164" viewBox="0 0 200 164" fill="none" xmlns="http://www.w3.org/2000/svg">
<path opacity="0.6" d="M75.3579 149.21C74.6485 149.21 74.0092 149.086 73.4399 148.839C72.8705 148.592 72.3852 148.239 71.9839 147.782C71.5872 147.325 71.2839 146.774 71.0739 146.13C70.8639 145.481 70.7589 144.758 70.7589 143.96C70.7589 142.905 70.9409 141.986 71.3049 141.202C71.6735 140.413 72.2009 139.802 72.8869 139.368C73.5729 138.934 74.3965 138.717 75.3579 138.717C76.4312 138.717 77.3039 138.969 77.9759 139.473C78.6525 139.972 79.1239 140.644 79.3899 141.489L78.3539 141.741C78.1345 141.125 77.7729 140.633 77.2689 140.264C76.7695 139.895 76.1465 139.711 75.3999 139.711C74.6112 139.706 73.9555 139.884 73.4329 140.243C72.9102 140.598 72.5159 141.097 72.2499 141.741C71.9885 142.38 71.8555 143.12 71.8509 143.96C71.8462 144.8 71.9745 145.54 72.2359 146.179C72.5019 146.814 72.8985 147.313 73.4259 147.677C73.9532 148.036 74.6112 148.218 75.3999 148.223C76.1232 148.223 76.7205 148.083 77.1919 147.803C77.6632 147.523 78.0202 147.122 78.2629 146.599C78.5102 146.076 78.6502 145.458 78.6829 144.744H76.3589V143.862H79.7609C79.7749 143.969 79.7819 144.084 79.7819 144.205C79.7865 144.322 79.7889 144.406 79.7889 144.457C79.7889 145.367 79.6255 146.181 79.2989 146.9C78.9722 147.614 78.4799 148.179 77.8219 148.594C77.1685 149.005 76.3472 149.21 75.3579 149.21ZM84.347 149.21C83.5956 149.21 82.954 149.04 82.422 148.699C81.89 148.358 81.4816 147.887 81.197 147.285C80.9123 146.683 80.77 145.992 80.77 145.213C80.77 144.42 80.9146 143.724 81.204 143.127C81.4933 142.53 81.904 142.065 82.436 141.734C82.9726 141.398 83.6096 141.23 84.347 141.23C85.103 141.23 85.747 141.4 86.279 141.741C86.8156 142.077 87.224 142.546 87.504 143.148C87.7886 143.745 87.931 144.434 87.931 145.213C87.931 146.006 87.7886 146.704 87.504 147.306C87.2193 147.903 86.8086 148.37 86.272 148.706C85.7353 149.042 85.0936 149.21 84.347 149.21ZM84.347 148.223C85.187 148.223 85.8123 147.945 86.223 147.39C86.6336 146.83 86.839 146.104 86.839 145.213C86.839 144.298 86.6313 143.57 86.216 143.029C85.8053 142.488 85.1823 142.217 84.347 142.217C83.7823 142.217 83.3156 142.345 82.947 142.602C82.583 142.854 82.31 143.206 82.128 143.659C81.9506 144.107 81.862 144.625 81.862 145.213C81.862 146.123 82.072 146.853 82.492 147.404C82.912 147.95 83.5303 148.223 84.347 148.223ZM89.4751 149V138.92H92.5341C92.6415 138.92 92.8235 138.922 93.0801 138.927C93.3415 138.932 93.5911 138.95 93.8291 138.983C94.5945 139.09 95.2338 139.375 95.7471 139.837C96.2605 140.299 96.6455 140.887 96.9021 141.601C97.1588 142.315 97.2871 143.101 97.2871 143.96C97.2871 144.819 97.1588 145.605 96.9021 146.319C96.6455 147.033 96.2605 147.621 95.7471 148.083C95.2338 148.545 94.5945 148.83 93.8291 148.937C93.5958 148.965 93.3461 148.984 93.0801 148.993C92.8141 148.998 92.6321 149 92.5341 149H89.4751ZM90.5391 148.013H92.5341C92.7255 148.013 92.9308 148.008 93.1501 147.999C93.3741 147.985 93.5655 147.962 93.7241 147.929C94.3121 147.826 94.7858 147.588 95.1451 147.215C95.5091 146.842 95.7751 146.375 95.9431 145.815C96.1111 145.25 96.1951 144.632 96.1951 143.96C96.1951 143.283 96.1111 142.663 95.9431 142.098C95.7751 141.533 95.5091 141.067 95.1451 140.698C94.7811 140.329 94.3075 140.094 93.7241 139.991C93.5655 139.958 93.3718 139.937 93.1431 139.928C92.9191 139.914 92.7161 139.907 92.5341 139.907H90.5391V148.013ZM101.044 149.21C100.475 149.21 99.9967 149.107 99.6094 148.902C99.2267 148.697 98.9397 148.424 98.7484 148.083C98.557 147.742 98.4614 147.371 98.4614 146.97C98.4614 146.559 98.543 146.209 98.7064 145.92C98.8744 145.626 99.1007 145.386 99.3854 145.199C99.6747 145.012 100.008 144.87 100.386 144.772C100.769 144.679 101.191 144.597 101.653 144.527C102.12 144.452 102.575 144.389 103.018 144.338C103.466 144.282 103.858 144.228 104.194 144.177L103.83 144.401C103.844 143.654 103.7 143.101 103.396 142.742C103.093 142.383 102.566 142.203 101.814 142.203C101.296 142.203 100.858 142.32 100.498 142.553C100.144 142.786 99.894 143.155 99.7494 143.659L98.7484 143.365C98.921 142.688 99.2687 142.163 99.7914 141.79C100.314 141.417 100.993 141.23 101.828 141.23C102.519 141.23 103.105 141.361 103.585 141.622C104.071 141.879 104.414 142.252 104.614 142.742C104.708 142.961 104.768 143.206 104.796 143.477C104.824 143.748 104.838 144.023 104.838 144.303V149H103.921V147.103L104.187 147.215C103.931 147.864 103.532 148.358 102.99 148.699C102.449 149.04 101.8 149.21 101.044 149.21ZM101.163 148.321C101.644 148.321 102.064 148.235 102.423 148.062C102.783 147.889 103.072 147.654 103.291 147.355C103.511 147.052 103.653 146.711 103.718 146.333C103.774 146.09 103.805 145.824 103.809 145.535C103.814 145.241 103.816 145.022 103.816 144.877L104.208 145.08C103.858 145.127 103.478 145.173 103.067 145.22C102.661 145.267 102.26 145.32 101.863 145.381C101.471 145.442 101.117 145.514 100.799 145.598C100.585 145.659 100.377 145.745 100.176 145.857C99.9757 145.964 99.81 146.109 99.6794 146.291C99.5534 146.473 99.4904 146.699 99.4904 146.97C99.4904 147.189 99.544 147.402 99.6514 147.607C99.7634 147.812 99.9407 147.983 100.183 148.118C100.431 148.253 100.757 148.321 101.163 148.321ZM109.594 149.21C108.889 149.21 108.287 149.035 107.788 148.685C107.288 148.33 106.906 147.852 106.64 147.25C106.374 146.648 106.241 145.969 106.241 145.213C106.241 144.462 106.371 143.785 106.633 143.183C106.899 142.581 107.279 142.105 107.774 141.755C108.268 141.405 108.861 141.23 109.552 141.23C110.261 141.23 110.858 141.403 111.344 141.748C111.829 142.093 112.195 142.567 112.443 143.169C112.695 143.766 112.821 144.448 112.821 145.213C112.821 145.964 112.697 146.643 112.45 147.25C112.202 147.852 111.838 148.33 111.358 148.685C110.877 149.035 110.289 149.21 109.594 149.21ZM109.699 148.251C110.235 148.251 110.679 148.12 111.029 147.859C111.379 147.598 111.64 147.238 111.813 146.781C111.985 146.319 112.072 145.796 112.072 145.213C112.072 144.62 111.985 144.098 111.813 143.645C111.64 143.188 111.379 142.831 111.029 142.574C110.683 142.317 110.247 142.189 109.72 142.189C109.178 142.189 108.73 142.322 108.376 142.588C108.021 142.854 107.757 143.216 107.585 143.673C107.417 144.13 107.333 144.644 107.333 145.213C107.333 145.787 107.419 146.305 107.592 146.767C107.769 147.224 108.033 147.586 108.383 147.852C108.733 148.118 109.171 148.251 109.699 148.251ZM112.072 149V143.309H111.96V138.92H112.996V149H112.072ZM117.892 149.21C117.188 149.21 116.586 149.035 116.086 148.685C115.587 148.33 115.204 147.852 114.938 147.25C114.672 146.648 114.539 145.969 114.539 145.213C114.539 144.462 114.67 143.785 114.931 143.183C115.197 142.581 115.578 142.105 116.072 141.755C116.567 141.405 117.16 141.23 117.85 141.23C118.56 141.23 119.157 141.403 119.642 141.748C120.128 142.093 120.494 142.567 120.741 143.169C120.993 143.766 121.119 144.448 121.119 145.213C121.119 145.964 120.996 146.643 120.748 147.25C120.501 147.852 120.137 148.33 119.656 148.685C119.176 149.035 118.588 149.21 117.892 149.21ZM117.997 148.251C118.534 148.251 118.977 148.12 119.327 147.859C119.677 147.598 119.939 147.238 120.111 146.781C120.284 146.319 120.37 145.796 120.37 145.213C120.37 144.62 120.284 144.098 120.111 143.645C119.939 143.188 119.677 142.831 119.327 142.574C118.982 142.317 118.546 142.189 118.018 142.189C117.477 142.189 117.029 142.322 116.674 142.588C116.32 142.854 116.056 143.216 115.883 143.673C115.715 144.13 115.631 144.644 115.631 145.213C115.631 145.787 115.718 146.305 115.89 146.767C116.068 147.224 116.331 147.586 116.681 147.852C117.031 148.118 117.47 148.251 117.997 148.251ZM120.37 149V143.309H120.258V138.92H121.294V149H120.37ZM124.336 152.36L125.799 148.391L125.82 149.567L122.509 141.44H123.601L126.317 148.237H125.869L128.375 141.44H129.425L125.365 152.36H124.336Z" fill="#0E041B"/>
<mask id="mask0_4915_16086" style="mask-type:luminance" maskUnits="userSpaceOnUse" x="64" y="33" width="72" height="64">
<path d="M64.7666 33.3386H135.234V96.6613H64.7666V33.3386Z" fill="white"/>
</mask>
<g mask="url(#mask0_4915_16086)">
<path fill-rule="evenodd" clip-rule="evenodd" d="M127.907 64.367C126.965 67.9857 125.437 71.5152 123.368 74.8578C122.046 76.9924 120.558 78.9575 118.925 80.7367C120.789 73.0659 119.527 63.6689 114.953 54.8567C114.631 54.237 113.888 54.0317 113.3 54.4024L99.055 63.3862C98.5097 63.7304 98.3436 64.4553 98.6844 65.006L100.773 68.3793C101.114 68.93 101.832 69.0973 102.378 68.7534L111.611 62.9305C111.92 63.8254 112.197 64.7263 112.434 65.6335C113.322 69.043 113.653 72.3703 113.417 75.523C112.978 81.392 110.611 85.965 106.751 88.3994C104.823 89.6153 102.583 90.2591 100.149 90.3292C100.096 90.3281 100.042 90.33 99.9895 90.3292C99.9441 90.3292 99.8981 90.3281 99.8527 90.3292C97.4181 90.2594 95.178 89.6153 93.2496 88.3991C89.3897 85.965 87.022 81.392 86.5833 75.523C86.3477 72.3703 86.6786 69.043 87.5667 65.6335C88.5095 62.0148 90.0365 58.4853 92.1064 55.1427C94.1757 51.8001 96.6494 48.8674 99.4591 46.426C102.106 44.1257 104.924 42.3669 107.835 41.1987C113.254 39.0237 118.364 39.1669 122.224 41.6014C126.084 44.0355 128.452 48.6085 128.891 54.4775C129.127 57.6302 128.796 60.9575 127.907 64.367ZM76.6327 74.8578C74.5631 71.5152 73.0358 67.9857 72.093 64.367C71.2049 60.9575 70.874 57.6302 71.1096 54.4775C71.5486 48.6085 73.916 44.0355 77.7762 41.6014C81.6362 39.1669 86.7466 39.0237 92.1656 41.1987C92.9815 41.526 93.7887 41.9067 94.5882 42.3272C91.6997 44.9687 89.0459 48.1431 86.7885 51.7892C80.8105 61.4442 78.9923 72.1686 81.0766 80.7377C79.443 78.9584 77.9545 76.9927 76.6327 74.8578ZM125.547 36.2342C118.224 31.6154 108.583 32.7131 99.9978 38.1692C91.4142 32.715 81.776 31.6163 74.4532 36.2345C62.8837 43.5307 61.4786 62.3247 71.3148 78.2116C78.5677 89.9255 89.9063 96.7873 100.001 96.6595C110.095 96.7867 121.433 89.9252 128.686 78.2116C138.522 62.3247 137.117 43.5307 125.547 36.2342Z" fill="#0D041B" fill-opacity="0.75"/>
</g>
</svg>
