<svg width="200" height="164" viewBox="0 0 200 164" fill="none" xmlns="http://www.w3.org/2000/svg">
<path opacity="0.6" d="M50.4477 149.21C49.7384 149.21 49.099 149.086 48.5297 148.839C47.9604 148.592 47.475 148.239 47.0737 147.782C46.677 147.325 46.3737 146.774 46.1637 146.13C45.9537 145.481 45.8487 144.758 45.8487 143.96C45.8487 142.905 46.0307 141.986 46.3947 141.202C46.7634 140.413 47.2907 139.802 47.9767 139.368C48.6627 138.934 49.4864 138.717 50.4477 138.717C51.521 138.717 52.3937 138.969 53.0657 139.473C53.7424 139.972 54.2137 140.644 54.4797 141.489L53.4437 141.741C53.2244 141.125 52.8627 140.633 52.3587 140.264C51.8594 139.895 51.2364 139.711 50.4897 139.711C49.701 139.706 49.0454 139.884 48.5227 140.243C48 140.598 47.6057 141.097 47.3397 141.741C47.0784 142.38 46.9454 143.12 46.9407 143.96C46.936 144.8 47.0644 145.54 47.3257 146.179C47.5917 146.814 47.9884 147.313 48.5157 147.677C49.043 148.036 49.701 148.218 50.4897 148.223C51.213 148.223 51.8104 148.083 52.2817 147.803C52.753 147.523 53.11 147.122 53.3527 146.599C53.6 146.076 53.74 145.458 53.7727 144.744H51.4487V143.862H54.8507C54.8647 143.969 54.8717 144.084 54.8717 144.205C54.8764 144.322 54.8787 144.406 54.8787 144.457C54.8787 145.367 54.7154 146.181 54.3887 146.9C54.062 147.614 53.5697 148.179 52.9117 148.594C52.2584 149.005 51.437 149.21 50.4477 149.21ZM59.4368 149.21C58.6855 149.21 58.0438 149.04 57.5118 148.699C56.9798 148.358 56.5715 147.887 56.2868 147.285C56.0021 146.683 55.8598 145.992 55.8598 145.213C55.8598 144.42 56.0045 143.724 56.2938 143.127C56.5831 142.53 56.9938 142.065 57.5258 141.734C58.0625 141.398 58.6995 141.23 59.4368 141.23C60.1928 141.23 60.8368 141.4 61.3688 141.741C61.9055 142.077 62.3138 142.546 62.5938 143.148C62.8785 143.745 63.0208 144.434 63.0208 145.213C63.0208 146.006 62.8785 146.704 62.5938 147.306C62.3091 147.903 61.8985 148.37 61.3618 148.706C60.8251 149.042 60.1835 149.21 59.4368 149.21ZM59.4368 148.223C60.2768 148.223 60.9021 147.945 61.3128 147.39C61.7235 146.83 61.9288 146.104 61.9288 145.213C61.9288 144.298 61.7211 143.57 61.3058 143.029C60.8951 142.488 60.2721 142.217 59.4368 142.217C58.8721 142.217 58.4055 142.345 58.0368 142.602C57.6728 142.854 57.3998 143.206 57.2178 143.659C57.0405 144.107 56.9518 144.625 56.9518 145.213C56.9518 146.123 57.1618 146.853 57.5818 147.404C58.0018 147.95 58.6201 148.223 59.4368 148.223ZM67.722 149.21C66.9706 149.21 66.329 149.04 65.797 148.699C65.265 148.358 64.8566 147.887 64.572 147.285C64.2873 146.683 64.145 145.992 64.145 145.213C64.145 144.42 64.2896 143.724 64.579 143.127C64.8683 142.53 65.279 142.065 65.811 141.734C66.3476 141.398 66.9846 141.23 67.722 141.23C68.478 141.23 69.122 141.4 69.654 141.741C70.1906 142.077 70.599 142.546 70.879 143.148C71.1636 143.745 71.306 144.434 71.306 145.213C71.306 146.006 71.1636 146.704 70.879 147.306C70.5943 147.903 70.1836 148.37 69.647 148.706C69.1103 149.042 68.4686 149.21 67.722 149.21ZM67.722 148.223C68.562 148.223 69.1873 147.945 69.598 147.39C70.0086 146.83 70.214 146.104 70.214 145.213C70.214 144.298 70.0063 143.57 69.591 143.029C69.1803 142.488 68.5573 142.217 67.722 142.217C67.1573 142.217 66.6906 142.345 66.322 142.602C65.958 142.854 65.685 143.206 65.503 143.659C65.3256 144.107 65.237 144.625 65.237 145.213C65.237 146.123 65.447 146.853 65.867 147.404C66.287 147.95 66.9053 148.223 67.722 148.223ZM75.8531 152.57C75.4658 152.57 75.0831 152.512 74.7051 152.395C74.3318 152.283 73.9865 152.103 73.6691 151.856C73.3518 151.613 73.0858 151.296 72.8711 150.904L73.8021 150.386C74.0121 150.806 74.3061 151.107 74.6841 151.289C75.0668 151.476 75.4565 151.569 75.8531 151.569C76.3991 151.569 76.8401 151.466 77.1761 151.261C77.5168 151.06 77.7641 150.762 77.9181 150.365C78.0721 149.968 78.1468 149.474 78.1421 148.881V146.865H78.2611V141.44H79.1781V148.895C79.1781 149.11 79.1711 149.315 79.1571 149.511C79.1478 149.712 79.1268 149.908 79.0941 150.099C79.0055 150.664 78.8211 151.128 78.5411 151.492C78.2658 151.856 77.9018 152.127 77.4491 152.304C77.0011 152.481 76.4691 152.57 75.8531 152.57ZM75.7831 149.21C75.0785 149.21 74.4765 149.035 73.9771 148.685C73.4778 148.33 73.0951 147.852 72.8291 147.25C72.5631 146.648 72.4301 145.969 72.4301 145.213C72.4301 144.462 72.5608 143.785 72.8221 143.183C73.0881 142.581 73.4685 142.105 73.9631 141.755C74.4578 141.405 75.0505 141.23 75.7411 141.23C76.4505 141.23 77.0478 141.403 77.5331 141.748C78.0185 142.093 78.3848 142.567 78.6321 143.169C78.8841 143.766 79.0101 144.448 79.0101 145.213C79.0101 145.964 78.8865 146.643 78.6391 147.25C78.3918 147.852 78.0278 148.33 77.5471 148.685C77.0665 149.035 76.4785 149.21 75.7831 149.21ZM75.8881 148.251C76.4248 148.251 76.8681 148.12 77.2181 147.859C77.5681 147.598 77.8295 147.238 78.0021 146.781C78.1748 146.319 78.2611 145.796 78.2611 145.213C78.2611 144.62 78.1748 144.098 78.0021 143.645C77.8295 143.188 77.5681 142.831 77.2181 142.574C76.8728 142.317 76.4365 142.189 75.9091 142.189C75.3678 142.189 74.9198 142.322 74.5651 142.588C74.2105 142.854 73.9468 143.216 73.7741 143.673C73.6061 144.13 73.5221 144.644 73.5221 145.213C73.5221 145.787 73.6085 146.305 73.7811 146.767C73.9585 147.224 74.2221 147.586 74.5721 147.852C74.9221 148.118 75.3608 148.251 75.8881 148.251ZM81.2753 149V138.71H82.3043V149H81.2753ZM87.6019 149.21C86.8645 149.21 86.2252 149.047 85.6839 148.72C85.1472 148.393 84.7295 147.934 84.4309 147.341C84.1322 146.748 83.9829 146.053 83.9829 145.255C83.9829 144.429 84.1299 143.715 84.4239 143.113C84.7179 142.511 85.1309 142.047 85.6629 141.72C86.1995 141.393 86.8319 141.23 87.5599 141.23C88.3065 141.23 88.9435 141.403 89.4709 141.748C89.9982 142.089 90.3972 142.579 90.6679 143.218C90.9385 143.857 91.0622 144.62 91.0389 145.507H89.9889V145.143C89.9702 144.163 89.7579 143.423 89.3519 142.924C88.9505 142.425 88.3625 142.175 87.5879 142.175C86.7759 142.175 86.1529 142.439 85.7189 142.966C85.2895 143.493 85.0749 144.245 85.0749 145.22C85.0749 146.172 85.2895 146.912 85.7189 147.439C86.1529 147.962 86.7665 148.223 87.5599 148.223C88.1012 148.223 88.5725 148.099 88.9739 147.852C89.3799 147.6 89.6995 147.238 89.9329 146.767L90.8919 147.138C90.5932 147.796 90.1522 148.307 89.5689 148.671C88.9902 149.03 88.3345 149.21 87.6019 149.21ZM84.7109 145.507V144.646H90.4859V145.507H84.7109ZM94.695 149L98.167 138.92H99.532L103.004 149H101.933L98.636 139.494H99.042L95.766 149H94.695ZM96.242 146.557V145.591H101.45V146.557H96.242ZM109.728 149V145.143C109.728 144.723 109.688 144.338 109.609 143.988C109.53 143.633 109.401 143.325 109.224 143.064C109.051 142.798 108.825 142.593 108.545 142.448C108.27 142.303 107.934 142.231 107.537 142.231C107.173 142.231 106.851 142.294 106.571 142.42C106.296 142.546 106.062 142.728 105.871 142.966C105.684 143.199 105.542 143.484 105.444 143.82C105.346 144.156 105.297 144.539 105.297 144.968L104.569 144.807C104.569 144.032 104.704 143.381 104.975 142.854C105.246 142.327 105.619 141.928 106.095 141.657C106.571 141.386 107.117 141.251 107.733 141.251C108.186 141.251 108.58 141.321 108.916 141.461C109.257 141.601 109.544 141.79 109.777 142.028C110.015 142.266 110.206 142.539 110.351 142.847C110.496 143.15 110.601 143.475 110.666 143.82C110.731 144.161 110.764 144.501 110.764 144.842V149H109.728ZM104.261 149V141.44H105.192V143.302H105.297V149H104.261ZM114.744 149.21C114.174 149.21 113.696 149.107 113.309 148.902C112.926 148.697 112.639 148.424 112.448 148.083C112.256 147.742 112.161 147.371 112.161 146.97C112.161 146.559 112.242 146.209 112.406 145.92C112.574 145.626 112.8 145.386 113.085 145.199C113.374 145.012 113.708 144.87 114.086 144.772C114.468 144.679 114.891 144.597 115.353 144.527C115.819 144.452 116.274 144.389 116.718 144.338C117.166 144.282 117.558 144.228 117.894 144.177L117.53 144.401C117.544 143.654 117.399 143.101 117.096 142.742C116.792 142.383 116.265 142.203 115.514 142.203C114.996 142.203 114.557 142.32 114.198 142.553C113.843 142.786 113.593 143.155 113.449 143.659L112.448 143.365C112.62 142.688 112.968 142.163 113.491 141.79C114.013 141.417 114.692 141.23 115.528 141.23C116.218 141.23 116.804 141.361 117.285 141.622C117.77 141.879 118.113 142.252 118.314 142.742C118.407 142.961 118.468 143.206 118.496 143.477C118.524 143.748 118.538 144.023 118.538 144.303V149H117.621V147.103L117.887 147.215C117.63 147.864 117.231 148.358 116.69 148.699C116.148 149.04 115.5 149.21 114.744 149.21ZM114.863 148.321C115.343 148.321 115.763 148.235 116.123 148.062C116.482 147.889 116.771 147.654 116.991 147.355C117.21 147.052 117.352 146.711 117.418 146.333C117.474 146.09 117.504 145.824 117.509 145.535C117.513 145.241 117.516 145.022 117.516 144.877L117.908 145.08C117.558 145.127 117.177 145.173 116.767 145.22C116.361 145.267 115.959 145.32 115.563 145.381C115.171 145.442 114.816 145.514 114.499 145.598C114.284 145.659 114.076 145.745 113.876 145.857C113.675 145.964 113.509 146.109 113.379 146.291C113.253 146.473 113.19 146.699 113.19 146.97C113.19 147.189 113.243 147.402 113.351 147.607C113.463 147.812 113.64 147.983 113.883 148.118C114.13 148.253 114.457 148.321 114.863 148.321ZM120.5 149V138.71H121.529V149H120.5ZM124.705 152.36L126.168 148.391L126.189 149.567L122.878 141.44H123.97L126.686 148.237H126.238L128.744 141.44H129.794L125.734 152.36H124.705ZM135.687 149C135.262 149.089 134.842 149.124 134.427 149.105C134.016 149.086 133.647 148.998 133.321 148.839C132.999 148.68 132.754 148.433 132.586 148.097C132.45 147.817 132.376 147.535 132.362 147.25C132.352 146.961 132.348 146.632 132.348 146.263V139.34H133.37V146.221C133.37 146.538 133.372 146.804 133.377 147.019C133.386 147.229 133.435 147.416 133.524 147.579C133.692 147.892 133.958 148.078 134.322 148.139C134.69 148.2 135.145 148.186 135.687 148.097V149ZM130.731 142.322V141.44H135.687V142.322H130.731ZM137.316 140.005V138.85H138.345V140.005H137.316ZM137.316 149V141.44H138.345V149H137.316ZM143.58 149.21C142.819 149.21 142.175 149.04 141.648 148.699C141.121 148.358 140.719 147.889 140.444 147.292C140.173 146.69 140.033 145.999 140.024 145.22C140.033 144.427 140.178 143.731 140.458 143.134C140.738 142.532 141.142 142.065 141.669 141.734C142.196 141.398 142.836 141.23 143.587 141.23C144.352 141.23 145.017 141.417 145.582 141.79C146.151 142.163 146.541 142.674 146.751 143.323L145.743 143.645C145.566 143.192 145.283 142.842 144.896 142.595C144.513 142.343 144.075 142.217 143.58 142.217C143.025 142.217 142.565 142.345 142.201 142.602C141.837 142.854 141.566 143.206 141.389 143.659C141.212 144.112 141.121 144.632 141.116 145.22C141.125 146.125 141.335 146.853 141.746 147.404C142.157 147.95 142.768 148.223 143.58 148.223C144.093 148.223 144.53 148.106 144.889 147.873C145.253 147.635 145.528 147.29 145.715 146.837L146.751 147.145C146.471 147.817 146.06 148.33 145.519 148.685C144.978 149.035 144.331 149.21 143.58 149.21ZM151.017 149.203C150.13 149.203 149.4 149.012 148.826 148.629C148.256 148.246 147.906 147.714 147.776 147.033L148.826 146.858C148.938 147.287 149.192 147.63 149.589 147.887C149.99 148.139 150.485 148.265 151.073 148.265C151.647 148.265 152.099 148.146 152.431 147.908C152.762 147.665 152.928 147.336 152.928 146.921C152.928 146.688 152.874 146.499 152.767 146.354C152.664 146.205 152.452 146.067 152.13 145.941C151.808 145.815 151.327 145.666 150.688 145.493C150.002 145.306 149.465 145.12 149.078 144.933C148.69 144.746 148.415 144.532 148.252 144.289C148.088 144.042 148.007 143.741 148.007 143.386C148.007 142.957 148.128 142.581 148.371 142.259C148.613 141.932 148.949 141.68 149.379 141.503C149.808 141.321 150.307 141.23 150.877 141.23C151.446 141.23 151.955 141.323 152.403 141.51C152.855 141.692 153.219 141.949 153.495 142.28C153.77 142.611 153.933 142.996 153.985 143.435L152.935 143.624C152.865 143.181 152.643 142.831 152.27 142.574C151.901 142.313 151.432 142.177 150.863 142.168C150.326 142.154 149.89 142.257 149.554 142.476C149.218 142.691 149.05 142.978 149.05 143.337C149.05 143.538 149.11 143.71 149.232 143.855C149.353 143.995 149.572 144.128 149.89 144.254C150.212 144.38 150.669 144.518 151.262 144.667C151.957 144.844 152.503 145.031 152.9 145.227C153.296 145.423 153.579 145.654 153.747 145.92C153.915 146.186 153.999 146.515 153.999 146.907C153.999 147.621 153.733 148.183 153.201 148.594C152.673 149 151.945 149.203 151.017 149.203Z" fill="#0E041B"/>
<path d="M130 89.7412C130.006 90.9037 129.763 92.0541 129.288 93.1164C128.813 94.1786 128.116 95.1283 127.243 95.9026C126.371 96.6769 125.342 97.2581 124.227 97.6076C123.111 97.9571 121.933 98.0669 120.771 97.9299C116.542 97.3081 113.443 93.6514 113.546 89.4047V40.5806C113.444 36.3294 116.551 32.6707 120.785 32.0556C121.946 31.9206 123.122 32.032 124.236 32.3824C125.35 32.7328 126.377 33.3143 127.248 34.0884C128.119 34.8624 128.815 35.8114 129.289 36.8726C129.764 37.9338 130.006 39.0829 130 40.2441V89.7412Z" fill="#352E3F"/>
<path d="M78.2268 81.6504C82.7704 81.6504 86.4536 85.3105 86.4536 89.8251C86.4536 94.34 82.7704 97.9998 78.2268 97.9998C73.6832 97.9998 70 94.34 70 89.8254C70 85.3105 73.6832 81.6504 78.2268 81.6504V81.6504ZM99.8733 56.8738C95.3084 57.1225 91.7662 60.9275 91.8724 65.4693V87.4275C91.8724 93.3867 94.5112 97.0045 98.3775 97.7756C99.5762 98.017 100.814 97.9903 102.001 97.6974C103.188 97.4045 104.294 96.8527 105.24 96.0821C106.186 95.3115 106.947 94.3414 107.469 93.2422C107.99 92.1429 108.259 90.9421 108.255 89.7268V65.0909C108.257 64.0018 108.041 62.9232 107.619 61.918C107.197 60.9129 106.578 60.0013 105.798 59.2364C105.018 58.4715 104.092 57.8687 103.075 57.4631C102.057 57.0575 100.969 56.8573 99.8733 56.874V56.8738Z" fill="#352E3F"/>
</svg>
