<svg width="200" height="164" viewBox="0 0 200 164" fill="none" xmlns="http://www.w3.org/2000/svg">
<path opacity="0.6" d="M73.1577 149V138.92H74.1867V143.463H79.7587V138.92H80.7807V149H79.7587V144.45H74.1867V149H73.1577ZM85.6327 149.189C85.1801 149.189 84.7834 149.119 84.4427 148.979C84.1067 148.839 83.8197 148.65 83.5817 148.412C83.3484 148.174 83.1594 147.903 83.0147 147.6C82.8701 147.292 82.7651 146.968 82.6997 146.627C82.6344 146.282 82.6017 145.939 82.6017 145.598V141.44H83.6377V145.297C83.6377 145.712 83.6774 146.097 83.7567 146.452C83.8361 146.807 83.9621 147.117 84.1347 147.383C84.3121 147.644 84.5384 147.847 84.8137 147.992C85.0937 148.137 85.4321 148.209 85.8287 148.209C86.1927 148.209 86.5124 148.146 86.7877 148.02C87.0677 147.894 87.3011 147.714 87.4877 147.481C87.6791 147.243 87.8237 146.956 87.9217 146.62C88.0197 146.279 88.0687 145.897 88.0687 145.472L88.7967 145.633C88.7967 146.408 88.6614 147.059 88.3907 147.586C88.1201 148.113 87.7467 148.512 87.2707 148.783C86.7947 149.054 86.2487 149.189 85.6327 149.189ZM88.1737 149V147.138H88.0687V141.44H89.0977V149H88.1737ZM94.4492 149.21C93.7539 149.21 93.1659 149.035 92.6852 148.685C92.2046 148.33 91.8406 147.852 91.5932 147.25C91.3459 146.643 91.2222 145.964 91.2222 145.213C91.2222 144.448 91.3459 143.766 91.5932 143.169C91.8452 142.567 92.2139 142.093 92.6992 141.748C93.1846 141.403 93.7819 141.23 94.4912 141.23C95.1819 141.23 95.7746 141.405 96.2692 141.755C96.7639 142.105 97.1419 142.581 97.4032 143.183C97.6692 143.785 97.8022 144.462 97.8022 145.213C97.8022 145.969 97.6692 146.648 97.4032 147.25C97.1372 147.852 96.7546 148.33 96.2552 148.685C95.7559 149.035 95.1539 149.21 94.4492 149.21ZM91.0472 149V138.92H92.0832V143.309H91.9712V149H91.0472ZM94.3442 148.251C94.8716 148.251 95.3102 148.118 95.6602 147.852C96.0102 147.586 96.2716 147.224 96.4442 146.767C96.6216 146.305 96.7102 145.787 96.7102 145.213C96.7102 144.644 96.6239 144.13 96.4512 143.673C96.2786 143.216 96.0149 142.854 95.6602 142.588C95.3102 142.322 94.8646 142.189 94.3232 142.189C93.7959 142.189 93.3572 142.317 93.0072 142.574C92.6619 142.831 92.4029 143.188 92.2302 143.645C92.0576 144.098 91.9712 144.62 91.9712 145.213C91.9712 145.796 92.0576 146.319 92.2302 146.781C92.4029 147.238 92.6642 147.598 93.0142 147.859C93.3642 148.12 93.8076 148.251 94.3442 148.251ZM102.092 149.203C101.205 149.203 100.475 149.012 99.901 148.629C99.3317 148.246 98.9817 147.714 98.851 147.033L99.901 146.858C100.013 147.287 100.267 147.63 100.664 147.887C101.065 148.139 101.56 148.265 102.148 148.265C102.722 148.265 103.175 148.146 103.506 147.908C103.837 147.665 104.003 147.336 104.003 146.921C104.003 146.688 103.949 146.499 103.842 146.354C103.739 146.205 103.527 146.067 103.205 145.941C102.883 145.815 102.402 145.666 101.763 145.493C101.077 145.306 100.54 145.12 100.153 144.933C99.7657 144.746 99.4903 144.532 99.327 144.289C99.1637 144.042 99.082 143.741 99.082 143.386C99.082 142.957 99.2033 142.581 99.446 142.259C99.6887 141.932 100.025 141.68 100.454 141.503C100.883 141.321 101.383 141.23 101.952 141.23C102.521 141.23 103.03 141.323 103.478 141.51C103.931 141.692 104.295 141.949 104.57 142.28C104.845 142.611 105.009 142.996 105.06 143.435L104.01 143.624C103.94 143.181 103.718 142.831 103.345 142.574C102.976 142.313 102.507 142.177 101.938 142.168C101.401 142.154 100.965 142.257 100.629 142.476C100.293 142.691 100.125 142.978 100.125 143.337C100.125 143.538 100.186 143.71 100.307 143.855C100.428 143.995 100.648 144.128 100.965 144.254C101.287 144.38 101.744 144.518 102.337 144.667C103.032 144.844 103.578 145.031 103.975 145.227C104.372 145.423 104.654 145.654 104.822 145.92C104.99 146.186 105.074 146.515 105.074 146.907C105.074 147.621 104.808 148.183 104.276 148.594C103.749 149 103.021 149.203 102.092 149.203ZM110.021 149.21C109.326 149.21 108.738 149.035 108.257 148.685C107.777 148.33 107.413 147.852 107.165 147.25C106.918 146.643 106.794 145.964 106.794 145.213C106.794 144.448 106.918 143.766 107.165 143.169C107.417 142.567 107.786 142.093 108.271 141.748C108.757 141.403 109.354 141.23 110.063 141.23C110.754 141.23 111.347 141.405 111.841 141.755C112.336 142.105 112.714 142.581 112.975 143.183C113.241 143.785 113.374 144.462 113.374 145.213C113.374 145.969 113.241 146.648 112.975 147.25C112.709 147.852 112.327 148.33 111.827 148.685C111.328 149.035 110.726 149.21 110.021 149.21ZM106.619 152.36V141.44H107.543V147.131H107.655V152.36H106.619ZM109.916 148.251C110.444 148.251 110.882 148.118 111.232 147.852C111.582 147.586 111.844 147.224 112.016 146.767C112.194 146.305 112.282 145.787 112.282 145.213C112.282 144.644 112.196 144.13 112.023 143.673C111.851 143.216 111.587 142.854 111.232 142.588C110.882 142.322 110.437 142.189 109.895 142.189C109.368 142.189 108.929 142.317 108.579 142.574C108.234 142.831 107.975 143.188 107.802 143.645C107.63 144.098 107.543 144.62 107.543 145.213C107.543 145.796 107.63 146.319 107.802 146.781C107.975 147.238 108.236 147.598 108.586 147.859C108.936 148.12 109.38 148.251 109.916 148.251ZM118.069 149.21C117.317 149.21 116.676 149.04 116.144 148.699C115.612 148.358 115.203 147.887 114.919 147.285C114.634 146.683 114.492 145.992 114.492 145.213C114.492 144.42 114.636 143.724 114.926 143.127C115.215 142.53 115.626 142.065 116.158 141.734C116.694 141.398 117.331 141.23 118.069 141.23C118.825 141.23 119.469 141.4 120.001 141.741C120.537 142.077 120.946 142.546 121.226 143.148C121.51 143.745 121.653 144.434 121.653 145.213C121.653 146.006 121.51 146.704 121.226 147.306C120.941 147.903 120.53 148.37 119.994 148.706C119.457 149.042 118.815 149.21 118.069 149.21ZM118.069 148.223C118.909 148.223 119.534 147.945 119.945 147.39C120.355 146.83 120.561 146.104 120.561 145.213C120.561 144.298 120.353 143.57 119.938 143.029C119.527 142.488 118.904 142.217 118.069 142.217C117.504 142.217 117.037 142.345 116.669 142.602C116.305 142.854 116.032 143.206 115.85 143.659C115.672 144.107 115.584 144.625 115.584 145.213C115.584 146.123 115.794 146.853 116.214 147.404C116.634 147.95 117.252 148.223 118.069 148.223ZM127.313 149C126.888 149.089 126.468 149.124 126.053 149.105C125.642 149.086 125.273 148.998 124.947 148.839C124.625 148.68 124.38 148.433 124.212 148.097C124.076 147.817 124.002 147.535 123.988 147.25C123.978 146.961 123.974 146.632 123.974 146.263V139.34H124.996V146.221C124.996 146.538 124.998 146.804 125.003 147.019C125.012 147.229 125.061 147.416 125.15 147.579C125.318 147.892 125.584 148.078 125.948 148.139C126.316 148.2 126.771 148.186 127.313 148.097V149ZM122.357 142.322V141.44H127.313V142.322H122.357Z" fill="#0E041B"/>
<path d="M119.066 52.3109V43.4359C120.23 42.8862 121.216 42.015 121.909 40.9232C122.602 39.8314 122.974 38.5638 122.981 37.2676V37.0587C122.977 35.247 122.261 33.5109 120.99 32.2295C119.72 30.9482 117.998 30.2257 116.201 30.22H115.994C114.197 30.2249 112.475 30.9465 111.204 32.2273C109.933 33.5081 109.217 35.2439 109.211 37.0556V37.2645C109.217 38.5535 109.583 39.8148 110.268 40.9032C110.953 41.9916 111.929 42.863 113.084 43.4171L113.124 43.4359V52.3296C109.758 52.8481 106.589 54.2578 103.94 56.4148L103.978 56.3867L79.765 37.3767C80.2255 35.6354 80.0726 33.7869 79.3325 32.1464C78.5923 30.506 77.3106 29.1752 75.706 28.381C74.1014 27.5867 72.2733 27.3782 70.5332 27.791C68.7932 28.2038 67.2491 29.2123 66.1641 30.6446C65.0792 32.0769 64.5206 33.8443 64.5837 35.6453C64.6467 37.4464 65.3275 39.1697 66.5099 40.5213C67.6923 41.8729 69.3031 42.7692 71.0676 43.0573C72.8322 43.3454 74.6412 43.0075 76.1863 42.1012L76.1492 42.1199L99.9535 60.8024C97.8489 63.9837 96.7312 67.7246 96.7429 71.5485C96.7429 75.7366 98.0575 79.619 100.291 82.7936L100.25 82.7343L93.0065 90.0377C92.4265 89.849 91.8218 89.7491 91.2125 89.7414H91.2063C89.9626 89.7414 88.7468 90.1133 87.7127 90.8099C86.6786 91.5065 85.8727 92.4966 85.3967 93.6551C84.9208 94.8135 84.7963 96.0882 85.0389 97.318C85.2815 98.5478 85.8804 99.6775 86.7598 100.564C87.6393 101.451 88.7597 102.055 89.9795 102.299C91.1993 102.544 92.4637 102.418 93.6127 101.938C94.7617 101.459 95.7438 100.646 96.4348 99.6034C97.1257 98.5608 97.4945 97.3351 97.4945 96.0812C97.4871 95.4506 97.3839 94.8248 97.1883 94.2257L97.2007 94.2694L104.367 87.044C106.703 88.8421 109.415 90.0793 112.296 90.6616C115.178 91.2439 118.153 91.1559 120.995 90.4043C123.838 89.6527 126.473 88.2573 128.7 86.3243C130.927 84.3912 132.688 81.9715 133.848 79.2492C135.008 76.5268 135.536 73.5737 135.393 70.6143C135.251 67.655 134.44 64.7675 133.024 62.1715C131.607 59.5755 129.622 57.3394 127.22 55.6334C124.817 53.9274 122.06 52.7964 119.158 52.3265L119.047 52.3109H119.066ZM116.084 81.5524C114.124 81.5475 112.209 80.957 110.581 79.8554C108.954 78.7539 107.687 77.1907 106.94 75.3634C106.193 73.5362 106 71.5268 106.386 69.589C106.771 67.6513 107.718 65.8722 109.105 64.4765C110.493 63.0808 112.26 62.1311 114.183 61.7474C116.106 61.3636 118.099 61.5631 119.909 62.3205C121.72 63.0779 123.267 64.3594 124.356 66.0029C125.444 67.6465 126.025 69.5785 126.025 71.5547V71.561C126.025 74.2125 124.98 76.7555 123.121 78.6304C121.261 80.5054 118.739 81.5587 116.109 81.5587L116.084 81.5524Z" fill="#0D041B" fill-opacity="0.75"/>
</svg>
