<svg width="18" height="18" viewBox="0 0 18 18" fill="none" xmlns="http://www.w3.org/2000/svg">
<g clip-path="url(#clip0_327_36202)">
<rect width="16" height="16" rx="8" transform="matrix(-1 0 0 1 17 1)" fill="#E55678" fill-opacity="0.1"/>
<g opacity="0.7" filter="url(#filter0_f_327_36202)">
<path fill-rule="evenodd" clip-rule="evenodd" d="M11.2353 6.08883C11.4227 5.90138 11.7266 5.90138 11.9141 6.08883C12.1016 6.27628 12.1016 6.5802 11.9141 6.76765L9.6819 8.99986L11.9137 11.2317C12.1012 11.4191 12.1012 11.7231 11.9137 11.9105C11.7263 12.098 11.4224 12.098 11.2349 11.9105L9.00307 9.67868L6.77124 11.9105C6.58379 12.098 6.27987 12.098 6.09242 11.9105C5.90497 11.7231 5.90497 11.4191 6.09242 11.2317L8.32425 8.99986L6.09205 6.76765C5.90459 6.5802 5.90459 6.27628 6.09205 6.08883C6.2795 5.90138 6.58342 5.90138 6.77087 6.08883L9.00307 8.32103L11.2353 6.08883Z" fill="url(#paint0_linear_327_36202)"/>
</g>
<path fill-rule="evenodd" clip-rule="evenodd" d="M11.2353 6.08883C11.4227 5.90138 11.7266 5.90138 11.9141 6.08883C12.1016 6.27628 12.1016 6.5802 11.9141 6.76765L9.6819 8.99986L11.9137 11.2317C12.1012 11.4191 12.1012 11.7231 11.9137 11.9105C11.7263 12.098 11.4224 12.098 11.2349 11.9105L9.00307 9.67868L6.77124 11.9105C6.58379 12.098 6.27987 12.098 6.09242 11.9105C5.90497 11.7231 5.90497 11.4191 6.09242 11.2317L8.32425 8.99986L6.09205 6.76765C5.90459 6.5802 5.90459 6.27628 6.09205 6.08883C6.2795 5.90138 6.58342 5.90138 6.77087 6.08883L9.00307 8.32103L11.2353 6.08883Z" fill="url(#paint1_linear_327_36202)"/>
</g>
<rect x="0.28" y="-0.28" width="16.56" height="16.56" rx="8.28" transform="matrix(-1 0 0 1 17.56 1)" stroke="#E55678" stroke-opacity="0.2" stroke-width="0.56"/>
<defs>
<filter id="filter0_f_327_36202" x="-0.713542" y="-0.718425" width="19.4349" height="19.4364" filterUnits="userSpaceOnUse" color-interpolation-filters="sRGB">
<feFlood flood-opacity="0" result="BackgroundImageFix"/>
<feBlend mode="normal" in="SourceGraphic" in2="BackgroundImageFix" result="shape"/>
<feGaussianBlur stdDeviation="3.33333" result="effect1_foregroundBlur_327_36202"/>
</filter>
<linearGradient id="paint0_linear_327_36202" x1="5.95155" y1="5.94824" x2="18.6682" y2="18.6672" gradientUnits="userSpaceOnUse">
<stop stop-color="#E55678"/>
<stop offset="1" stop-color="#E55678" stop-opacity="0.2"/>
</linearGradient>
<linearGradient id="paint1_linear_327_36202" x1="5.95155" y1="5.94824" x2="18.6682" y2="18.6672" gradientUnits="userSpaceOnUse">
<stop stop-color="#E55678"/>
<stop offset="1" stop-color="#E55678" stop-opacity="0.2"/>
</linearGradient>
<clipPath id="clip0_327_36202">
<rect width="16" height="16" rx="8" transform="matrix(-1 0 0 1 17 1)" fill="white"/>
</clipPath>
</defs>
</svg>
