<svg width="26" height="26" viewBox="0 0 26 26" fill="none" xmlns="http://www.w3.org/2000/svg">
<g clip-path="url(#clip0_155_25893)">
<rect width="24" height="24" rx="12" transform="matrix(-1 0 0 1 25 1)" fill="#E55678" fill-opacity="0.1"/>
<g opacity="0.7" filter="url(#filter0_f_155_25893)">
<path fill-rule="evenodd" clip-rule="evenodd" d="M16.351 8.63325C16.6321 8.35207 17.088 8.35207 17.3692 8.63325C17.6504 8.91442 17.6504 9.3703 17.3692 9.65148L14.0209 12.9998L17.3686 16.3475C17.6498 16.6287 17.6498 17.0846 17.3686 17.3658C17.0875 17.6469 16.6316 17.6469 16.3504 17.3658L13.0027 14.018L9.65491 17.3658C9.37373 17.6469 8.91785 17.6469 8.63668 17.3658C8.3555 17.0846 8.3555 16.6287 8.63668 16.3475L11.9844 12.9998L8.63612 9.65148C8.35494 9.3703 8.35494 8.91442 8.63612 8.63325C8.91729 8.35207 9.37317 8.35207 9.65435 8.63325L13.0027 11.9816L16.351 8.63325Z" fill="url(#paint0_linear_155_25893)"/>
</g>
<path fill-rule="evenodd" clip-rule="evenodd" d="M16.351 8.63325C16.6321 8.35207 17.088 8.35207 17.3692 8.63325C17.6504 8.91442 17.6504 9.3703 17.3692 9.65148L14.0209 12.9998L17.3686 16.3475C17.6498 16.6287 17.6498 17.0846 17.3686 17.3658C17.0875 17.6469 16.6316 17.6469 16.3504 17.3658L13.0027 14.018L9.65491 17.3658C9.37373 17.6469 8.91785 17.6469 8.63668 17.3658C8.3555 17.0846 8.3555 16.6287 8.63668 16.3475L11.9844 12.9998L8.63612 9.65148C8.35494 9.3703 8.35494 8.91442 8.63612 8.63325C8.91729 8.35207 9.37317 8.35207 9.65435 8.63325L13.0027 11.9816L16.351 8.63325Z" fill="url(#paint1_linear_155_25893)"/>
</g>
<rect x="0.42" y="-0.42" width="24.84" height="24.84" rx="12.42" transform="matrix(-1 0 0 1 25.84 1)" stroke="#E55678" stroke-opacity="0.2" stroke-width="0.84"/>
<defs>
<filter id="filter0_f_155_25893" x="-1.57422" y="-1.57764" width="29.1543" height="29.1543" filterUnits="userSpaceOnUse" color-interpolation-filters="sRGB">
<feFlood flood-opacity="0" result="BackgroundImageFix"/>
<feBlend mode="normal" in="SourceGraphic" in2="BackgroundImageFix" result="shape"/>
<feGaussianBlur stdDeviation="5" result="effect1_foregroundBlur_155_25893"/>
</filter>
<linearGradient id="paint0_linear_155_25893" x1="8.42538" y1="8.42236" x2="27.5004" y2="27.5008" gradientUnits="userSpaceOnUse">
<stop stop-color="#E55678"/>
<stop offset="1" stop-color="#E55678" stop-opacity="0.2"/>
</linearGradient>
<linearGradient id="paint1_linear_155_25893" x1="8.42538" y1="8.42236" x2="27.5004" y2="27.5008" gradientUnits="userSpaceOnUse">
<stop stop-color="#E55678"/>
<stop offset="1" stop-color="#E55678" stop-opacity="0.2"/>
</linearGradient>
<clipPath id="clip0_155_25893">
<rect width="24" height="24" rx="12" transform="matrix(-1 0 0 1 25 1)" fill="white"/>
</clipPath>
</defs>
</svg>
