<svg width="22" height="22" viewBox="0 0 22 22" fill="none" xmlns="http://www.w3.org/2000/svg">
<path fill-rule="evenodd" clip-rule="evenodd" d="M0.364075 7.96488C0.364075 9.05362 1.24666 9.93621 2.3354 9.93621H7.96775C9.05649 9.93621 9.93908 9.05362 9.93908 7.96488V2.33253C9.93908 1.2438 9.05649 0.361206 7.96775 0.361206H2.3354C1.24666 0.361206 0.364075 1.2438 0.364075 2.33253V7.96488ZM0.364075 19.6674C0.364075 20.7562 1.24666 21.6388 2.3354 21.6388H7.96775C9.05649 21.6388 9.93908 20.7562 9.93908 19.6674V14.0351C9.93908 12.9463 9.05649 12.0637 7.96775 12.0637H2.3354C1.24666 12.0637 0.364075 12.9463 0.364075 14.0351V19.6674ZM14.0385 9.93621C12.9497 9.93621 12.0671 9.05362 12.0671 7.96488V2.33253C12.0671 1.2438 12.9497 0.361206 14.0385 0.361206H19.6708C20.7595 0.361206 21.6421 1.2438 21.6421 2.33253V7.96488C21.6421 9.05362 20.7595 9.93621 19.6708 9.93621H14.0385ZM13.8909 17.3834V19.2072C13.8909 19.5429 14.1631 19.8151 14.4989 19.8151H16.3227V21.6389H14.4989C13.1559 21.6389 12.0671 20.5502 12.0671 19.2072V17.3834H13.8909ZM14.4989 12.0637C13.1559 12.0637 12.0671 13.1525 12.0671 14.4955V16.3193H13.8909V14.4955C13.8909 14.1597 14.1631 13.8876 14.4989 13.8876H16.3227V12.0637H14.4989ZM17.3873 12.0637H19.2111C20.5541 12.0637 21.6428 13.1525 21.6428 14.4955V16.3193H19.819V14.4955C19.819 14.1597 19.5468 13.8876 19.2111 13.8876H17.3873V12.0637ZM21.6428 19.2072V17.3834H19.819V19.2072C19.819 19.5429 19.5468 19.8151 19.2111 19.8151H17.3873V21.6389H19.2111C20.5541 21.6389 21.6428 20.5502 21.6428 19.2072Z" fill="url(#paint0_linear_8_67586)"/>
<defs>
<linearGradient id="paint0_linear_8_67586" x1="0.932322" y1="0.929422" x2="21.7128" y2="21.711" gradientUnits="userSpaceOnUse">
<stop stop-color="white"/>
<stop offset="1" stop-color="white" stop-opacity="0.6"/>
</linearGradient>
</defs>
</svg>
