<svg width="25" height="21" viewBox="0 0 25 21" fill="none" xmlns="http://www.w3.org/2000/svg">
<path d="M24.6877 10.9425L22.2941 13.3361C22.22 13.4103 22.132 13.4691 22.0351 13.5093C21.9382 13.5494 21.8344 13.5701 21.7296 13.5701C21.6247 13.5701 21.5209 13.5494 21.424 13.5093C21.3272 13.4691 21.2392 13.4103 21.1651 13.3361L18.7714 10.9425C18.6217 10.7927 18.5376 10.5897 18.5376 10.378C18.5376 10.1662 18.6217 9.96318 18.7714 9.81347C18.9212 9.66375 19.1242 9.57964 19.3359 9.57964C19.5477 9.57964 19.7507 9.66375 19.9004 9.81347L20.9317 10.8457V10.378C20.9326 8.51954 20.3436 6.7088 19.2495 5.20658C18.1554 3.70437 16.6127 2.58822 14.8436 2.01894C13.0745 1.44965 11.1704 1.45661 9.40552 2.03882C7.64065 2.62102 6.10614 3.74842 5.02305 5.2586C4.89952 5.43053 4.71276 5.54635 4.50383 5.58058C4.29491 5.6148 4.08095 5.56464 3.90902 5.44111C3.73709 5.31758 3.62126 5.13081 3.58704 4.92189C3.55281 4.71297 3.60298 4.49901 3.7265 4.32708C5.00658 2.54235 6.82015 1.21002 8.90594 0.522027C10.9917 -0.165968 13.2421 -0.174114 15.3328 0.498761C17.4235 1.17164 19.2467 2.4908 20.5396 4.26621C21.8326 6.04162 22.5286 8.18164 22.5274 10.378V10.8457L23.5587 9.81347C23.7084 9.66375 23.9115 9.57964 24.1232 9.57964C24.3349 9.57964 24.538 9.66375 24.6877 9.81347C24.8374 9.96318 24.9215 10.1662 24.9215 10.378C24.9215 10.5897 24.8374 10.7927 24.6877 10.9425ZM20.5806 16.4279C19.3002 18.2112 17.4869 19.5423 15.4018 20.2295C13.3166 20.9167 11.0672 20.9246 8.97735 20.252C6.88747 19.5794 5.06491 18.261 3.77202 16.4866C2.47913 14.7123 1.78259 12.5734 1.78268 10.378V9.91021L0.751427 10.9425C0.601713 11.0922 0.398657 11.1763 0.18693 11.1763C-0.0247976 11.1763 -0.227853 11.0922 -0.377567 10.9425C-0.527281 10.7927 -0.611389 10.5897 -0.611389 10.378C-0.611389 10.1662 -0.527281 9.96318 -0.377567 9.81347L2.01606 7.41984C2.09016 7.34566 2.17816 7.28681 2.27502 7.24665C2.37188 7.2065 2.4757 7.18583 2.58056 7.18583C2.68541 7.18583 2.78923 7.2065 2.88609 7.24665C2.98295 7.28681 3.07095 7.34566 3.14505 7.41984L5.53868 9.81347C5.68839 9.96318 5.7725 10.1662 5.7725 10.378C5.7725 10.5897 5.68839 10.7927 5.53868 10.9425C5.38896 11.0922 5.18591 11.1763 4.97418 11.1763C4.76245 11.1763 4.5594 11.0922 4.40968 10.9425L3.37843 9.91021V10.378C3.37654 12.5264 4.16618 14.6003 5.59652 16.2034C6.48639 14.914 7.73764 13.9164 9.19295 13.3361C8.41121 12.7204 7.84078 11.8764 7.56096 10.9214C7.28115 9.96647 7.30587 8.94806 7.63169 8.00782C7.95751 7.06758 8.56823 6.25223 9.37891 5.67518C10.1896 5.09812 11.16 4.78803 12.1551 4.78803C13.1502 4.78803 14.1205 5.09812 14.9312 5.67518C15.7419 6.25223 16.3526 7.06758 16.6784 8.00782C17.0042 8.94806 17.029 9.96647 16.7492 10.9214C16.4693 11.8764 15.8989 12.7204 15.1172 13.3361C16.5738 13.9165 17.8259 14.9152 18.7156 16.2064C18.9173 15.9799 19.1074 15.7432 19.2851 15.4973C19.4086 15.3254 19.5954 15.2096 19.8043 15.1753C20.0132 15.1411 20.2272 15.1913 20.3991 15.3148C20.571 15.4383 20.6869 15.6251 20.7211 15.834C20.7553 16.043 20.7051 16.2569 20.5816 16.4288L20.5806 16.4279Z" fill="url(#paint0_linear_16_68164)"/>
<defs>
<linearGradient id="paint0_linear_16_68164" x1="0.0704602" y1="0.554144" x2="19.9081" y2="24.9635" gradientUnits="userSpaceOnUse">
<stop stop-color="white"/>
<stop offset="1" stop-color="white" stop-opacity="0.6"/>
</linearGradient>
</defs>
</svg>
