<svg width="18" height="22" viewBox="0 0 18 22" fill="none" xmlns="http://www.w3.org/2000/svg">
<path d="M14.7084 2.79928L16.0442 1.39172C16.116 1.31602 16.173 1.22615 16.2118 1.12723C16.2507 1.02832 16.2707 0.922311 16.2707 0.815251C16.2707 0.708191 16.2507 0.602179 16.2118 0.503268C16.173 0.404357 16.116 0.314485 16.0442 0.238782C15.9724 0.163078 15.8872 0.103027 15.7934 0.0620572C15.6996 0.021087 15.599 -2.25613e-09 15.4975 0C15.396 2.25613e-09 15.2954 0.021087 15.2016 0.0620572C15.1078 0.103027 15.0226 0.163078 14.9508 0.238782L13.5454 1.72171C12.0931 0.603302 10.3413 0.000570842 8.54297 0.000570842C6.74461 0.000570842 4.99279 0.603302 3.54053 1.72171L2.13513 0.238782C1.99013 0.0858923 1.79348 0 1.58842 0C1.38337 0 1.18672 0.0858923 1.04172 0.238782C0.896725 0.391671 0.815268 0.599033 0.815268 0.815251C0.815268 1.03147 0.896725 1.23883 1.04172 1.39172L2.37757 2.79928C0.877589 4.46159 0.0416432 6.6687 0.0429703 8.96323V13.0372C0.0429703 15.4143 0.938504 17.694 2.53256 19.3749C4.12662 21.0557 6.28863 22 8.54297 22C10.7973 22 12.9593 21.0557 14.5534 19.3749C16.1474 17.694 17.043 15.4143 17.043 13.0372V8.96323C17.0443 6.6687 16.2083 4.46159 14.7084 2.79928ZM8.54297 1.63005C10.3868 1.63221 12.1545 2.4055 13.4583 3.78027C14.7621 5.15504 15.4955 7.01901 15.4975 8.96323V9.77803H1.58842V8.96323C1.59047 7.01901 2.32384 5.15504 3.62762 3.78027C4.93141 2.4055 6.69914 1.63221 8.54297 1.63005ZM10.0884 6.92624C10.0884 6.68451 10.1564 6.44821 10.2838 6.24722C10.4111 6.04623 10.5922 5.88958 10.8039 5.79707C11.0157 5.70457 11.2488 5.68036 11.4736 5.72752C11.6985 5.77468 11.905 5.89108 12.0671 6.06201C12.2292 6.23294 12.3396 6.45071 12.3843 6.6878C12.4291 6.92488 12.4061 7.17062 12.3184 7.39395C12.2306 7.61728 12.0821 7.80816 11.8915 7.94246C11.7009 8.07675 11.4768 8.14843 11.2475 8.14843C10.9401 8.14843 10.6453 8.01967 10.4279 7.79046C10.2105 7.56125 10.0884 7.25038 10.0884 6.92624ZM4.67933 6.92624C4.67933 6.68451 4.74731 6.44821 4.87467 6.24722C5.00204 6.04623 5.18306 5.88958 5.39486 5.79707C5.60665 5.70457 5.83971 5.68036 6.06455 5.72752C6.28939 5.77468 6.49592 5.89108 6.65802 6.06201C6.82013 6.23294 6.93052 6.45071 6.97524 6.6878C7.01997 6.92488 6.99701 7.17062 6.90928 7.39395C6.82156 7.61728 6.67299 7.80816 6.48238 7.94246C6.29177 8.07675 6.06767 8.14843 5.83842 8.14843C5.53101 8.14843 5.23619 8.01967 5.01882 7.79046C4.80145 7.56125 4.67933 7.25038 4.67933 6.92624Z" fill="url(#paint0_linear_16_68157)"/>
<defs>
<linearGradient id="paint0_linear_16_68157" x1="0.496949" y1="0.587504" x2="21.2879" y2="16.6533" gradientUnits="userSpaceOnUse">
<stop stop-color="white"/>
<stop offset="1" stop-color="white" stop-opacity="0.6"/>
</linearGradient>
</defs>
</svg>
