<svg width="24" height="23" viewBox="0 0 24 23" fill="none" xmlns="http://www.w3.org/2000/svg">
<path d="M9.57238 17.7028C9.52559 17.881 8.3557 22.0799 1.92071 22.0799C1.66613 22.0799 1.42197 21.983 1.24195 21.8105C1.06194 21.6379 0.960803 21.4039 0.960803 21.1599C0.960803 14.992 5.34159 13.8707 5.52757 13.8259C5.77467 13.7667 6.03618 13.804 6.25457 13.9297C6.47295 14.0553 6.63032 14.2589 6.69206 14.4958C6.75379 14.7326 6.71484 14.9833 6.58376 15.1926C6.45269 15.4019 6.24023 15.5528 5.99312 15.6119C5.88513 15.6407 3.30298 16.3641 2.92622 20.1961C6.92424 19.835 7.68016 17.3646 7.71136 17.2496C7.77501 17.0131 7.93408 16.8105 8.15359 16.6864C8.3731 16.5622 8.63506 16.5268 8.88185 16.5878C9.12864 16.6488 9.34003 16.8012 9.46953 17.0116C9.59903 17.222 9.63603 17.4731 9.57238 17.7097V17.7028ZM20.7313 9.95128L20.159 10.4999V17.2082C20.1604 17.4508 20.1115 17.6912 20.0151 17.9155C19.9187 18.1398 19.7767 18.3435 19.5974 18.5147L15.4794 22.4595C15.3018 22.6309 15.0906 22.7669 14.8579 22.8597C14.6252 22.9525 14.3756 23.0002 14.1235 23C13.9155 22.9999 13.7089 22.9677 13.5116 22.9045C13.1729 22.7972 12.8722 22.6011 12.6436 22.3385C12.4151 22.0759 12.2677 21.7573 12.2181 21.4187L11.5738 16.992L6.2691 11.9076L1.65314 11.29C1.29934 11.2424 0.966411 11.1012 0.691796 10.8821C0.417181 10.6631 0.211776 10.375 0.0986894 10.0502C-0.0143976 9.72534 -0.0306809 9.37672 0.0516713 9.04352C0.134023 8.71031 0.311744 8.40574 0.564841 8.16407L4.68045 4.21702C4.85908 4.04518 5.07159 3.9091 5.30559 3.8167C5.5396 3.7243 5.79044 3.67742 6.04352 3.67879H13.0425L13.6148 3.1302C16.8161 0.0629598 20.6737 -0.0692982 22.1832 0.0169572C22.6512 0.0442196 23.0927 0.234724 23.4242 0.552526C23.7558 0.870329 23.9546 1.29345 23.983 1.74207C24.0706 3.18541 23.9314 6.88289 20.7313 9.95128ZM1.92071 9.46825L6.37829 10.064L11.1226 5.5189H6.04352L1.92071 9.46825ZM18.2392 12.34L13.496 16.8862L14.1199 21.1599L18.2392 17.2082V12.34Z" fill="url(#paint0_linear_16_68531)"/>
<defs>
<linearGradient id="paint0_linear_16_68531" x1="0.640883" y1="0.614209" x2="23.083" y2="24.0321" gradientUnits="userSpaceOnUse">
<stop stop-color="white"/>
<stop offset="1" stop-color="white" stop-opacity="0.6"/>
</linearGradient>
</defs>
</svg>
