<svg width="108" height="30" viewBox="0 0 108 30" fill="none" xmlns="http://www.w3.org/2000/svg">
<path opacity="0.8" d="M4.67167 10.7738C4.66716 7.82784 5.54694 4.94642 7.20024 2.49231C5.32053 3.72007 3.74114 5.34428 2.57628 7.24748C1.41143 9.15067 0.690235 11.2853 0.464866 13.4969C0.239496 15.7085 0.515584 17.9419 1.27316 20.0354C2.03074 22.129 3.25086 24.0304 4.84529 25.6021C6.43972 27.1739 8.3686 28.3767 10.4924 29.1235C12.6162 29.8704 14.8819 30.1426 17.1255 29.9206C19.3691 29.6985 21.5346 28.9877 23.4654 27.8395C25.3962 26.6914 27.044 25.1346 28.2896 23.2817C25.9964 24.7786 23.3346 25.6348 20.5872 25.7593C17.8397 25.8838 15.1094 25.272 12.6866 23.9889C10.2638 22.7058 8.23907 20.7993 6.82776 18.4724C5.41646 16.1454 4.67135 13.4849 4.67167 10.7738Z" fill="#8C8CA6"/>
<path opacity="0.8" d="M21.3164 5.63418C23.9523 5.63033 26.5437 6.30451 28.8343 7.59013C27.6763 5.58307 26.0639 3.86663 24.1227 2.57451C22.1815 1.28238 19.9638 0.449468 17.6425 0.140638C15.3212 -0.168191 12.9589 0.0554036 10.7396 0.794006C8.52036 1.53261 6.50402 2.76628 4.84769 4.39891C3.19137 6.03155 1.93976 8.01907 1.19038 10.2067C0.440997 12.3943 0.214068 14.7228 0.527269 17.0111C0.84047 19.2993 1.68535 21.4853 2.99608 23.3989C4.30682 25.3125 6.04803 26.902 8.08408 28.0435C6.76888 25.7618 6.08404 23.1798 6.09794 20.5554C6.11183 17.9311 6.82399 15.3563 8.16328 13.0882C9.50257 10.8201 11.4221 8.93804 13.7302 7.63002C16.0383 6.32201 18.6541 5.63382 21.3164 5.63418Z" fill="#8C8CA6"/>
<path opacity="0.8" d="M15.6023 6.43142e-08C14.6432 -8.71786e-05 13.6863 0.0885851 12.7441 0.26485C16.2233 0.918021 19.3624 2.74706 21.6204 5.43677C23.8784 8.12647 25.1139 11.5083 25.1139 14.9996C25.1139 18.4908 23.8784 21.8727 21.6204 24.5624C19.3624 27.2521 16.2233 29.0811 12.7441 29.7343C14.8251 30.125 16.9659 30.083 19.0294 29.6112C21.093 29.1393 23.0339 28.248 24.7278 26.9941C26.4218 25.7403 27.8315 24.1517 28.8667 22.3299C29.902 20.5081 30.5399 18.4933 30.7397 16.4145C30.9396 14.3356 30.6969 12.2386 30.0272 10.2575C29.3575 8.2765 28.2755 6.45513 26.8506 4.91C25.4257 3.36488 23.6892 2.13005 21.7522 1.28456C19.8153 0.439068 17.7206 0.00154618 15.6023 6.43142e-08Z" fill="#8C8CA6"/>
<path d="M104.293 8.91947H103.777V8.74805H105.013V8.91947H104.496V10.3114H104.293V8.91947ZM105.294 8.74805H105.621L106.133 10.0157L106.629 8.74805H106.956V10.3114H106.752V8.93061H106.745L106.182 10.3114H106.067L105.51 8.93061H105.502V10.3114H105.299L105.294 8.74805Z" fill="#8C8CA6" stroke="#8C8CA6" stroke-width="0.142724" stroke-miterlimit="10"/>
<path d="M90.4385 8.62012H83.2676V10.3258H90.4385V8.62012Z" fill="#8C8CA6"/>
<path d="M52.9372 8.5752V15.8564C52.9206 18.4509 51.752 19.7666 49.4652 19.7666C47.1496 19.7666 45.9758 18.4518 45.9758 15.8581V8.5752H44.1289V15.8564C44.1289 16.8944 44.3028 18.3781 45.1323 19.5497C46.0305 20.82 47.4887 21.4645 49.4652 21.4645C51.4416 21.4645 52.8867 20.82 53.7832 19.5497C54.6101 18.3772 54.784 16.8927 54.784 15.8564V8.5752H52.9372Z" fill="#8C8CA6"/>
<path d="M61.6622 8.62695H56.9434V21.4623H58.7902V17.8427H61.6596C64.7621 17.8427 66.7663 16.0376 66.7663 13.2442C66.7663 10.4509 64.7647 8.62695 61.6622 8.62695ZM61.4883 16.1439H58.7928V10.3258H61.4883C64.3291 10.3258 64.9247 11.9131 64.9247 13.2442C64.9221 15.6408 63.0535 16.1439 61.4857 16.1439H61.4883Z" fill="#8C8CA6"/>
<path d="M70.6719 8.62695H68.8242V21.4623H70.6719V8.62695Z" fill="#8C8CA6"/>
<path d="M72.6367 10.3189H76.1322V21.4555H77.9799V10.3189H81.4563V8.62012H72.6367V10.3189Z" fill="#8C8CA6"/>
<path d="M99.8695 16.7243C100.769 16.2486 102.217 15.1361 102.217 12.9067C102.217 10.3422 100.385 8.62109 97.6574 8.62109H92.709V21.4556H94.5532V17.2094H98.113C98.1217 17.2094 98.1261 17.2094 98.1261 17.2094C98.1297 17.2131 98.1329 17.2171 98.1357 17.2214L100.319 21.4547H102.359L99.8695 16.7243ZM97.8844 15.4935H94.5532V10.319H97.5313C100.091 10.319 100.368 12.1284 100.368 12.9067C100.384 13.5736 100.132 14.2199 99.6667 14.7044C99.2015 15.189 98.5608 15.4726 97.8844 15.4935Z" fill="#8C8CA6"/>
<path d="M85.1153 19.7563V15.7844L89.6168 15.7818V14.0762H83.2676V21.4628H90.8141V19.7563H85.1153Z" fill="#8C8CA6"/>
<path d="M40.0177 8.5752V16.6715C40.0177 18.6301 39.6699 19.7632 37.8874 19.7632C37.7196 19.7632 36.2405 19.7134 35.9127 17.9941C35.9127 17.9778 35.9049 17.9452 35.8475 17.5801C35.7814 17.5801 34.0563 17.8372 34.0215 17.8372C34.0347 17.975 34.0594 18.1114 34.0954 18.2452C34.2319 18.8529 34.5371 19.7074 35.2206 20.4017C35.904 21.096 36.8066 21.4594 37.883 21.4594C41.3924 21.4594 41.8428 18.9172 41.8428 16.7032V8.5752H40.0177Z" fill="#8C8CA6"/>
</svg>
