<svg width="200" height="164" viewBox="0 0 200 164" fill="none" xmlns="http://www.w3.org/2000/svg">
<path opacity="0.6" d="M67.8872 149V138.92H68.9162V143.68L73.5152 138.92H74.8312L70.1342 143.785L75.2162 149H73.8722L68.9162 143.96V149H67.8872ZM78.7962 149.21C78.0448 149.21 77.4032 149.04 76.8712 148.699C76.3392 148.358 75.9308 147.887 75.6462 147.285C75.3615 146.683 75.2192 145.992 75.2192 145.213C75.2192 144.42 75.3638 143.724 75.6532 143.127C75.9425 142.53 76.3532 142.065 76.8852 141.734C77.4218 141.398 78.0588 141.23 78.7962 141.23C79.5522 141.23 80.1962 141.4 80.7282 141.741C81.2648 142.077 81.6732 142.546 81.9532 143.148C82.2378 143.745 82.3802 144.434 82.3802 145.213C82.3802 146.006 82.2378 146.704 81.9532 147.306C81.6685 147.903 81.2578 148.37 80.7212 148.706C80.1845 149.042 79.5428 149.21 78.7962 149.21ZM78.7962 148.223C79.6362 148.223 80.2615 147.945 80.6722 147.39C81.0828 146.83 81.2882 146.104 81.2882 145.213C81.2882 144.298 81.0805 143.57 80.6652 143.029C80.2545 142.488 79.6315 142.217 78.7962 142.217C78.2315 142.217 77.7648 142.345 77.3962 142.602C77.0322 142.854 76.7592 143.206 76.5772 143.659C76.3998 144.107 76.3112 144.625 76.3112 145.213C76.3112 146.123 76.5212 146.853 76.9412 147.404C77.3612 147.95 77.9795 148.223 78.7962 148.223ZM89.3843 149V145.143C89.3843 144.723 89.3447 144.338 89.2653 143.988C89.186 143.633 89.0577 143.325 88.8803 143.064C88.7077 142.798 88.4813 142.593 88.2013 142.448C87.926 142.303 87.59 142.231 87.1933 142.231C86.8293 142.231 86.5073 142.294 86.2273 142.42C85.952 142.546 85.7187 142.728 85.5273 142.966C85.3407 143.199 85.1983 143.484 85.1003 143.82C85.0023 144.156 84.9533 144.539 84.9533 144.968L84.2253 144.807C84.2253 144.032 84.3607 143.381 84.6313 142.854C84.902 142.327 85.2753 141.928 85.7513 141.657C86.2273 141.386 86.7733 141.251 87.3893 141.251C87.842 141.251 88.2363 141.321 88.5723 141.461C88.913 141.601 89.2 141.79 89.4333 142.028C89.6713 142.266 89.8627 142.539 90.0073 142.847C90.152 143.15 90.257 143.475 90.3223 143.82C90.3877 144.161 90.4203 144.501 90.4203 144.842V149H89.3843ZM83.9173 149V141.44H84.8483V143.302H84.9533V149H83.9173ZM96.3528 149C95.9282 149.089 95.5082 149.124 95.0928 149.105C94.6822 149.086 94.3135 148.998 93.9868 148.839C93.6648 148.68 93.4198 148.433 93.2518 148.097C93.1165 147.817 93.0418 147.535 93.0278 147.25C93.0185 146.961 93.0138 146.632 93.0138 146.263V139.34H94.0358V146.221C94.0358 146.538 94.0382 146.804 94.0428 147.019C94.0522 147.229 94.1012 147.416 94.1898 147.579C94.3578 147.892 94.6238 148.078 94.9878 148.139C95.3565 148.2 95.8115 148.186 96.3528 148.097V149ZM91.3968 142.322V141.44H96.3528V142.322H91.3968ZM100.768 149.21C100.031 149.21 99.3912 149.047 98.8499 148.72C98.3132 148.393 97.8955 147.934 97.5969 147.341C97.2982 146.748 97.1489 146.053 97.1489 145.255C97.1489 144.429 97.2959 143.715 97.5899 143.113C97.8839 142.511 98.2969 142.047 98.8289 141.72C99.3655 141.393 99.9979 141.23 100.726 141.23C101.473 141.23 102.11 141.403 102.637 141.748C103.164 142.089 103.563 142.579 103.834 143.218C104.105 143.857 104.228 144.62 104.205 145.507H103.155V145.143C103.136 144.163 102.924 143.423 102.518 142.924C102.117 142.425 101.529 142.175 100.754 142.175C99.9419 142.175 99.3189 142.439 98.8849 142.966C98.4555 143.493 98.2409 144.245 98.2409 145.22C98.2409 146.172 98.4555 146.912 98.8849 147.439C99.3189 147.962 99.9325 148.223 100.726 148.223C101.267 148.223 101.739 148.099 102.14 147.852C102.546 147.6 102.866 147.238 103.099 146.767L104.058 147.138C103.759 147.796 103.318 148.307 102.735 148.671C102.156 149.03 101.501 149.21 100.768 149.21ZM97.8769 145.507V144.646H103.652V145.507H97.8769ZM111.013 149V145.143C111.013 144.723 110.974 144.338 110.894 143.988C110.815 143.633 110.687 143.325 110.509 143.064C110.337 142.798 110.11 142.593 109.83 142.448C109.555 142.303 109.219 142.231 108.822 142.231C108.458 142.231 108.136 142.294 107.856 142.42C107.581 142.546 107.348 142.728 107.156 142.966C106.97 143.199 106.827 143.484 106.729 143.82C106.631 144.156 106.582 144.539 106.582 144.968L105.854 144.807C105.854 144.032 105.99 143.381 106.26 142.854C106.531 142.327 106.904 141.928 107.38 141.657C107.856 141.386 108.402 141.251 109.018 141.251C109.471 141.251 109.865 141.321 110.201 141.461C110.542 141.601 110.829 141.79 111.062 142.028C111.3 142.266 111.492 142.539 111.636 142.847C111.781 143.15 111.886 143.475 111.951 143.82C112.017 144.161 112.049 144.501 112.049 144.842V149H111.013ZM105.546 149V141.44H106.477V143.302H106.582V149H105.546ZM117.982 149C117.557 149.089 117.137 149.124 116.722 149.105C116.311 149.086 115.942 148.998 115.616 148.839C115.294 148.68 115.049 148.433 114.881 148.097C114.745 147.817 114.671 147.535 114.657 147.25C114.647 146.961 114.643 146.632 114.643 146.263V139.34H115.665V146.221C115.665 146.538 115.667 146.804 115.672 147.019C115.681 147.229 115.73 147.416 115.819 147.579C115.987 147.892 116.253 148.078 116.617 148.139C116.985 148.2 117.44 148.186 117.982 148.097V149ZM113.026 142.322V141.44H117.982V142.322H113.026ZM119.667 149V147.803H120.864V149H119.667ZM125.189 149.21C124.62 149.21 124.141 149.107 123.754 148.902C123.371 148.697 123.084 148.424 122.893 148.083C122.702 147.742 122.606 147.371 122.606 146.97C122.606 146.559 122.688 146.209 122.851 145.92C123.019 145.626 123.245 145.386 123.53 145.199C123.819 145.012 124.153 144.87 124.531 144.772C124.914 144.679 125.336 144.597 125.798 144.527C126.265 144.452 126.72 144.389 127.163 144.338C127.611 144.282 128.003 144.228 128.339 144.177L127.975 144.401C127.989 143.654 127.844 143.101 127.541 142.742C127.238 142.383 126.71 142.203 125.959 142.203C125.441 142.203 125.002 142.32 124.643 142.553C124.288 142.786 124.039 143.155 123.894 143.659L122.893 143.365C123.066 142.688 123.413 142.163 123.936 141.79C124.459 141.417 125.138 141.23 125.973 141.23C126.664 141.23 127.249 141.361 127.73 141.622C128.215 141.879 128.558 142.252 128.759 142.742C128.852 142.961 128.913 143.206 128.941 143.477C128.969 143.748 128.983 144.023 128.983 144.303V149H128.066V147.103L128.332 147.215C128.075 147.864 127.676 148.358 127.135 148.699C126.594 149.04 125.945 149.21 125.189 149.21ZM125.308 148.321C125.789 148.321 126.209 148.235 126.568 148.062C126.927 147.889 127.217 147.654 127.436 147.355C127.655 147.052 127.798 146.711 127.863 146.333C127.919 146.09 127.949 145.824 127.954 145.535C127.959 145.241 127.961 145.022 127.961 144.877L128.353 145.08C128.003 145.127 127.623 145.173 127.212 145.22C126.806 145.267 126.405 145.32 126.008 145.381C125.616 145.442 125.261 145.514 124.944 145.598C124.729 145.659 124.522 145.745 124.321 145.857C124.12 145.964 123.955 146.109 123.824 146.291C123.698 146.473 123.635 146.699 123.635 146.97C123.635 147.189 123.689 147.402 123.796 147.607C123.908 147.812 124.085 147.983 124.328 148.118C124.575 148.253 124.902 148.321 125.308 148.321ZM130.945 140.005V138.85H131.974V140.005H130.945ZM130.945 149V141.44H131.974V149H130.945Z" fill="black"/>
<path fill-rule="evenodd" clip-rule="evenodd" d="M99.9999 101.467C119.977 101.467 136.171 85.1405 136.171 65C136.171 44.8597 119.977 28.5327 99.9999 28.5327C80.0233 28.5327 63.8291 44.8597 63.8291 65C63.8291 85.1405 80.0233 101.467 99.9999 101.467ZM104.456 64.7706L119.792 84.9538H111.86L96.764 64.7705L111.952 44.5875H119.792L104.456 64.7706ZM84.3031 44.5875H91.0125V84.9538H84.3031V44.5875Z" fill="#0D041B" fill-opacity="0.75"/>
</svg>
