<svg width="18" height="18" viewBox="0 0 18 18" fill="none" xmlns="http://www.w3.org/2000/svg">
<path d="M1.87137 16.1301C2.29659 16.5559 2.80176 16.8935 3.35786 17.1235C3.91395 17.3535 4.51001 17.4713 5.11179 17.4702C5.7137 17.4713 6.30989 17.3534 6.86613 17.1234C7.42237 16.8935 7.92771 16.5559 8.35312 16.1301L10.9455 13.5368L9.64929 12.2406L7.05696 14.8339C6.54039 15.3482 5.84116 15.6369 5.11225 15.6369C4.38334 15.6369 3.68411 15.3482 3.16754 14.8339C2.65283 14.3176 2.36381 13.6182 2.36381 12.8892C2.36381 12.1601 2.65283 11.4608 3.16754 10.9445L5.76079 8.35215L4.46462 7.05598L1.87137 9.64831C1.0132 10.5086 0.53125 11.6741 0.53125 12.8892C0.53125 14.1043 1.0132 15.2698 1.87137 16.1301ZM16.131 8.35215C16.9888 7.49166 17.4704 6.32624 17.4704 5.11127C17.4704 3.8963 16.9888 2.73089 16.131 1.8704C15.2708 1.01222 14.1053 0.530273 12.8902 0.530273C11.6751 0.530273 10.5095 1.01222 9.64929 1.8704L7.05696 4.46365L8.35312 5.75981L10.9455 3.16656C11.462 2.6523 12.1613 2.36359 12.8902 2.36359C13.6191 2.36359 14.3183 2.6523 14.8349 3.16656C15.3496 3.6829 15.6386 4.38222 15.6386 5.11127C15.6386 5.84033 15.3496 6.53965 14.8349 7.05598L12.2416 9.64831L13.5378 10.9445L16.131 8.35215Z" fill="#27272B"/>
<path d="M5.75986 13.5378L4.46278 12.2416L12.2425 4.46281L13.5387 5.75989L5.75986 13.5378Z" fill="#27272B"/>
</svg>
