<svg width="22" height="22" viewBox="0 0 22 22" fill="none" xmlns="http://www.w3.org/2000/svg">
<g style="mix-blend-mode:overlay">
<path fill-rule="evenodd" clip-rule="evenodd" d="M4.125 2.97241C3.36561 2.97241 2.75 3.58802 2.75 4.34741V18.0974C2.75 18.8568 3.36561 19.4724 4.125 19.4724H17.875C18.6344 19.4724 19.25 18.8568 19.25 18.0974V4.34741C19.25 3.58802 18.6344 2.97241 17.875 2.97241H4.125ZM7.8107 6.64157C7.81586 7.51813 7.15973 8.05825 6.38113 8.05438C5.64765 8.05052 5.00827 7.46657 5.01214 6.64286C5.01601 5.86813 5.62831 5.24552 6.42367 5.26357C7.23062 5.28161 7.81586 5.8733 7.8107 6.64157ZM11.2564 9.17069H8.9464H8.94511V17.0172H11.3866V16.8342C11.3866 16.4859 11.3863 16.1376 11.386 15.7892C11.3853 14.8598 11.3844 13.9295 11.3892 13.0005C11.3905 12.7749 11.4008 12.5403 11.4588 12.325C11.6766 11.5206 12.3998 11.0011 13.2068 11.1288C13.725 11.2099 14.0678 11.5103 14.2122 11.9989C14.3012 12.3044 14.3412 12.6331 14.345 12.9515C14.3555 13.9118 14.354 14.8721 14.3525 15.8325C14.352 16.1715 14.3514 16.5107 14.3514 16.8496V17.0159H16.8007V16.8277C16.8007 16.4134 16.8005 15.9992 16.8002 15.5849C16.7997 14.5495 16.7992 13.5142 16.8019 12.4784C16.8032 12.0105 16.753 11.549 16.6382 11.0966C16.4668 10.4236 16.1123 9.86675 15.5361 9.46461C15.1275 9.17842 14.6789 8.99409 14.1774 8.97346C14.1203 8.97109 14.0628 8.96798 14.0049 8.96486C13.7485 8.95099 13.4879 8.93691 13.2428 8.98635C12.5416 9.12686 11.9255 9.44784 11.4601 10.0137C11.406 10.0786 11.3531 10.1445 11.2742 10.2429L11.2564 10.2651V9.17069ZM5.20817 17.0198H7.63805V9.1758H5.20817V17.0198Z" fill="white"/>
</g>
<g style="mix-blend-mode:overlay">
<path fill-rule="evenodd" clip-rule="evenodd" d="M4.125 2.97241C3.36561 2.97241 2.75 3.58802 2.75 4.34741V18.0974C2.75 18.8568 3.36561 19.4724 4.125 19.4724H17.875C18.6344 19.4724 19.25 18.8568 19.25 18.0974V4.34741C19.25 3.58802 18.6344 2.97241 17.875 2.97241H4.125ZM7.8107 6.64157C7.81586 7.51813 7.15973 8.05825 6.38113 8.05438C5.64765 8.05052 5.00827 7.46657 5.01214 6.64286C5.01601 5.86813 5.62831 5.24552 6.42367 5.26357C7.23062 5.28161 7.81586 5.8733 7.8107 6.64157ZM11.2564 9.17069H8.9464H8.94511V17.0172H11.3866V16.8342C11.3866 16.4859 11.3863 16.1376 11.386 15.7892C11.3853 14.8598 11.3844 13.9295 11.3892 13.0005C11.3905 12.7749 11.4008 12.5403 11.4588 12.325C11.6766 11.5206 12.3998 11.0011 13.2068 11.1288C13.725 11.2099 14.0678 11.5103 14.2122 11.9989C14.3012 12.3044 14.3412 12.6331 14.345 12.9515C14.3555 13.9118 14.354 14.8721 14.3525 15.8325C14.352 16.1715 14.3514 16.5107 14.3514 16.8496V17.0159H16.8007V16.8277C16.8007 16.4134 16.8005 15.9992 16.8002 15.5849C16.7997 14.5495 16.7992 13.5142 16.8019 12.4784C16.8032 12.0105 16.753 11.549 16.6382 11.0966C16.4668 10.4236 16.1123 9.86675 15.5361 9.46461C15.1275 9.17842 14.6789 8.99409 14.1774 8.97346C14.1203 8.97109 14.0628 8.96798 14.0049 8.96486C13.7485 8.95099 13.4879 8.93691 13.2428 8.98635C12.5416 9.12686 11.9255 9.44784 11.4601 10.0137C11.406 10.0786 11.3531 10.1445 11.2742 10.2429L11.2564 10.2651V9.17069ZM5.20817 17.0198H7.63805V9.1758H5.20817V17.0198Z" fill="white"/>
</g>
</svg>
