<svg width="22" height="22" viewBox="0 0 22 22" fill="none" xmlns="http://www.w3.org/2000/svg">
<g style="mix-blend-mode:overlay">
<path d="M3.87137 18.1298C4.29659 18.5556 4.80176 18.8932 5.35786 19.1232C5.91395 19.3532 6.51001 19.4711 7.11179 19.47C7.7137 19.471 8.30989 19.3532 8.86613 19.1232C9.42237 18.8932 9.92771 18.5556 10.3531 18.1298L12.9455 15.5366L11.6493 14.2404L9.05696 16.8337C8.54039 17.3479 7.84116 17.6366 7.11225 17.6366C6.38334 17.6366 5.68411 17.3479 5.16754 16.8337C4.65283 16.3173 4.36381 15.618 4.36381 14.8889C4.36381 14.1599 4.65283 13.4606 5.16754 12.9442L7.76079 10.3519L6.46462 9.05573L3.87137 11.6481C3.0132 12.5083 2.53125 13.6738 2.53125 14.8889C2.53125 16.1041 3.0132 17.2696 3.87137 18.1298ZM18.131 10.3519C18.9888 9.49141 19.4704 8.32599 19.4704 7.11103C19.4704 5.89606 18.9888 4.73064 18.131 3.87015C17.2708 3.01197 16.1053 2.53003 14.8902 2.53003C13.6751 2.53003 12.5095 3.01197 11.6493 3.87015L9.05696 6.4634L10.3531 7.75957L12.9455 5.16632C13.462 4.65206 14.1613 4.36335 14.8902 4.36335C15.6191 4.36335 16.3183 4.65206 16.8349 5.16632C17.3496 5.68265 17.6386 6.38197 17.6386 7.11103C17.6386 7.84008 17.3496 8.5394 16.8349 9.05573L14.2416 11.6481L15.5378 12.9442L18.131 10.3519Z" fill="white"/>
<path d="M7.75986 15.5376L6.46278 14.2414L14.2425 6.46256L15.5387 7.75965L7.75986 15.5376Z" fill="white"/>
</g>
<g style="mix-blend-mode:overlay">
<path d="M3.87137 18.1298C4.29659 18.5556 4.80176 18.8932 5.35786 19.1232C5.91395 19.3532 6.51001 19.4711 7.11179 19.47C7.7137 19.471 8.30989 19.3532 8.86613 19.1232C9.42237 18.8932 9.92771 18.5556 10.3531 18.1298L12.9455 15.5366L11.6493 14.2404L9.05696 16.8337C8.54039 17.3479 7.84116 17.6366 7.11225 17.6366C6.38334 17.6366 5.68411 17.3479 5.16754 16.8337C4.65283 16.3173 4.36381 15.618 4.36381 14.8889C4.36381 14.1599 4.65283 13.4606 5.16754 12.9442L7.76079 10.3519L6.46462 9.05573L3.87137 11.6481C3.0132 12.5083 2.53125 13.6738 2.53125 14.8889C2.53125 16.1041 3.0132 17.2696 3.87137 18.1298ZM18.131 10.3519C18.9888 9.49141 19.4704 8.32599 19.4704 7.11103C19.4704 5.89606 18.9888 4.73064 18.131 3.87015C17.2708 3.01197 16.1053 2.53003 14.8902 2.53003C13.6751 2.53003 12.5095 3.01197 11.6493 3.87015L9.05696 6.4634L10.3531 7.75957L12.9455 5.16632C13.462 4.65206 14.1613 4.36335 14.8902 4.36335C15.6191 4.36335 16.3183 4.65206 16.8349 5.16632C17.3496 5.68265 17.6386 6.38197 17.6386 7.11103C17.6386 7.84008 17.3496 8.5394 16.8349 9.05573L14.2416 11.6481L15.5378 12.9442L18.131 10.3519Z" fill="white"/>
<path d="M7.75986 15.5376L6.46278 14.2414L14.2425 6.46256L15.5387 7.75965L7.75986 15.5376Z" fill="white"/>
</g>
</svg>
