<svg width="18" height="18" viewBox="0 0 18 18" fill="none" xmlns="http://www.w3.org/2000/svg">
<path fill-rule="evenodd" clip-rule="evenodd" d="M2.125 0.972656C1.36561 0.972656 0.75 1.58826 0.75 2.34766V16.0977C0.75 16.857 1.36561 17.4727 2.125 17.4727H15.875C16.6344 17.4727 17.25 16.857 17.25 16.0977V2.34766C17.25 1.58826 16.6344 0.972656 15.875 0.972656H2.125ZM5.8107 4.64182C5.81586 5.51838 5.15973 6.0585 4.38113 6.05463C3.64765 6.05076 3.00827 5.46682 3.01214 4.64311C3.01601 3.86838 3.62831 3.24576 4.42367 3.26381C5.23062 3.28186 5.81586 3.87354 5.8107 4.64182ZM9.25639 7.17094H6.9464H6.94511V15.0175H9.38656V14.8344C9.38656 14.4862 9.38628 14.1378 9.38601 13.7894C9.38527 12.8601 9.38445 11.9298 9.38922 11.0007C9.3905 10.7751 9.40077 10.5405 9.45879 10.3252C9.67659 9.52085 10.3998 9.00137 11.2068 9.12906C11.725 9.21019 12.0678 9.51058 12.2122 9.99916C12.3012 10.3046 12.3412 10.6333 12.345 10.9518C12.3555 11.9121 12.354 12.8724 12.3525 13.8328C12.352 14.1717 12.3514 14.5109 12.3514 14.8499V15.0162H14.8007V14.828C14.8007 14.4136 14.8005 13.9994 14.8002 13.5852C14.7997 12.5498 14.7992 11.5144 14.8019 10.4787C14.8032 10.0107 14.753 9.54926 14.6382 9.0968C14.4668 8.42387 14.1123 7.867 13.5361 7.46486C13.1275 7.17866 12.6789 6.99433 12.1774 6.97371C12.1203 6.97133 12.0628 6.96823 12.0049 6.9651C11.7485 6.95124 11.4879 6.93716 11.2428 6.9866C10.5416 7.1271 9.92547 7.44808 9.46008 8.01394C9.40599 8.07884 9.3531 8.14475 9.27417 8.24311L9.25639 8.26538V7.17094ZM3.20817 15.02H5.63805V7.17604H3.20817V15.02Z" fill="#27272B"/>
</svg>
