<svg width="165" height="34" viewBox="0 0 165 34" fill="none" xmlns="http://www.w3.org/2000/svg">
<path d="M47.6153 26.9537H35.002V7.86334H38.8726V23.4902H47.6153V26.9537Z" fill="#8C8CA6"/>
<path d="M50.3049 25.1265C48.8793 23.7265 48.1666 21.9902 48.1666 19.9176C48.1666 17.8449 48.8793 16.1086 50.3049 14.7086C51.7304 13.3086 53.5078 12.6087 55.6371 12.6087C57.7664 12.6087 59.5438 13.3086 60.9694 14.7086C62.3949 16.1086 63.1077 17.8449 63.1077 19.9176C63.1077 21.9902 62.3949 23.7265 60.9694 25.1265C59.5438 26.5265 57.7664 27.2265 55.6371 27.2265C53.5078 27.2265 51.7304 26.5265 50.3049 25.1265ZM51.956 19.9176C51.956 21.0448 52.3078 21.9902 53.0116 22.7538C53.7153 23.4993 54.5905 23.872 55.6371 23.872C56.6837 23.872 57.5589 23.4993 58.2626 22.7538C58.9664 21.9902 59.3183 21.0448 59.3183 19.9176C59.3183 18.7903 58.9664 17.854 58.2626 17.1085C57.5589 16.3631 56.6837 15.9904 55.6371 15.9904C54.5905 15.9904 53.7153 16.3722 53.0116 17.1358C52.3078 17.8813 51.956 18.8085 51.956 19.9176Z" fill="#8C8CA6"/>
<path d="M66.4955 25.1265C65.07 23.7265 64.3572 21.9902 64.3572 19.9176C64.3572 17.8449 65.07 16.1086 66.4955 14.7086C67.921 13.3086 69.6985 12.6087 71.8277 12.6087C73.3255 12.6087 74.6698 12.9996 75.8608 13.7814C77.0517 14.5632 77.9449 15.6631 78.5404 17.0813L75.1841 18.254C74.8773 17.5267 74.4262 16.9722 73.8307 16.5904C73.2352 16.1904 72.5676 15.9904 71.8277 15.9904C70.7811 15.9904 69.906 16.3722 69.2022 17.1358C68.4985 17.8813 68.1466 18.8085 68.1466 19.9176C68.1466 21.0448 68.4985 21.9902 69.2022 22.7538C69.906 23.4993 70.7811 23.872 71.8277 23.872C72.5676 23.872 73.2352 23.672 73.8307 23.272C74.4262 22.872 74.8773 22.3084 75.1841 21.5812L78.5404 22.7538C77.9449 24.172 77.0517 25.272 75.8608 26.0538C74.6698 26.8356 73.3255 27.2265 71.8277 27.2265C69.6985 27.2265 67.921 26.5265 66.4955 25.1265Z" fill="#8C8CA6"/>
<path d="M86.0105 12.6087C87.7789 12.6087 89.2135 13.0723 90.3142 13.9995C91.415 14.9268 91.9653 16.2813 91.9653 18.0631V26.9537H88.3113V23.4629C87.5353 25.9719 85.9293 27.2265 83.4933 27.2265C82.3565 27.2265 81.3821 26.8537 80.57 26.1083C79.758 25.3629 79.352 24.3902 79.352 23.1902C79.352 20.5539 81.1475 19.0449 84.7384 18.663L87.012 18.4449C87.8782 18.3903 88.3113 18.0176 88.3113 17.3267C88.3113 16.8176 88.0947 16.4086 87.6616 16.0995C87.2466 15.7904 86.7053 15.6359 86.0376 15.6359C85.3158 15.6359 84.7203 15.8268 84.2512 16.2086C83.8001 16.5722 83.5113 17.0904 83.385 17.7631L79.758 16.9449C79.9565 15.6904 80.6151 14.6541 81.7339 13.8359C82.8527 13.0177 84.2782 12.6087 86.0105 12.6087ZM84.7925 24.3083C85.7489 24.3083 86.5699 23.9811 87.2556 23.3266C87.9594 22.672 88.3113 21.9175 88.3113 21.063V20.7084C88.0947 20.9084 87.6797 21.0448 87.0662 21.1175L84.7113 21.3902C84.188 21.463 83.773 21.6357 83.4662 21.9084C83.1595 22.163 83.0061 22.4902 83.0061 22.8902C83.0061 23.3084 83.1685 23.6538 83.4933 23.9265C83.8181 24.1811 84.2512 24.3083 84.7925 24.3083Z" fill="#8C8CA6"/>
<path d="M97.8677 26.9537H94.2136V6.77246H97.8677V26.9537Z" fill="#8C8CA6"/>
<path d="M107.53 21.9084L111.455 21.1175C111.599 21.9902 111.978 22.672 112.591 23.1629C113.223 23.6356 114.053 23.872 115.082 23.872C116.002 23.872 116.751 23.6629 117.328 23.2447C117.924 22.8084 118.221 22.272 118.221 21.6357C118.221 21.1448 118.032 20.7357 117.653 20.4085C117.274 20.063 116.778 19.7903 116.164 19.5903C115.569 19.3903 114.91 19.1994 114.188 19.0176C113.467 18.8358 112.736 18.6085 111.996 18.3358C111.274 18.0631 110.606 17.7358 109.993 17.354C109.397 16.9722 108.91 16.4358 108.531 15.7449C108.152 15.0359 107.963 14.1995 107.963 13.2359C107.963 11.636 108.631 10.2996 109.966 9.22694C111.319 8.13606 112.97 7.59062 114.919 7.59062C116.886 7.59062 118.51 8.08152 119.791 9.06331C121.072 10.0451 121.83 11.3269 122.065 12.9087L118.14 13.6995C117.996 12.8632 117.626 12.1996 117.03 11.7087C116.453 11.1996 115.704 10.9451 114.784 10.9451C113.954 10.9451 113.277 11.1451 112.754 11.5451C112.231 11.9269 111.969 12.4178 111.969 13.0177C111.969 13.4905 112.158 13.8905 112.537 14.2177C112.916 14.5268 113.403 14.7813 113.999 14.9813C114.612 15.1631 115.28 15.345 116.002 15.5268C116.724 15.7086 117.445 15.9449 118.167 16.2358C118.907 16.5086 119.575 16.8449 120.17 17.2449C120.784 17.6449 121.28 18.2085 121.659 18.9358C122.038 19.663 122.227 20.5266 122.227 21.5266C122.227 23.1447 121.524 24.4993 120.116 25.5901C118.727 26.681 117.012 27.2265 114.973 27.2265C112.934 27.2265 111.247 26.7446 109.912 25.781C108.576 24.8174 107.782 23.5266 107.53 21.9084Z" fill="#8C8CA6"/>
<path d="M132.781 12.6087C134.333 12.6087 135.578 13.1541 136.516 14.245C137.473 15.3359 137.951 16.7267 137.951 18.4176V26.9537H134.297V19.0721C134.297 18.1631 134.008 17.4176 133.431 16.8358C132.853 16.254 132.131 15.9631 131.265 15.9631C130.291 15.9631 129.497 16.254 128.883 16.8358C128.27 17.4176 127.963 18.1631 127.963 19.0721V26.9537H124.309V6.77246H127.963V16.4813C128.324 15.2813 128.928 14.3359 129.777 13.645C130.643 12.9541 131.644 12.6087 132.781 12.6087Z" fill="#8C8CA6"/>
<path d="M139.856 8.98149C139.856 8.36333 140.073 7.84516 140.506 7.42699C140.939 6.99064 141.462 6.77246 142.076 6.77246C142.671 6.77246 143.186 6.99064 143.619 7.42699C144.052 7.84516 144.268 8.36333 144.268 8.98149C144.268 9.58147 144.052 10.0996 143.619 10.536C143.186 10.9723 142.671 11.1905 142.076 11.1905C141.462 11.1905 140.939 10.9723 140.506 10.536C140.073 10.0996 139.856 9.58147 139.856 8.98149ZM143.889 26.9537H140.235V12.8814H143.889V26.9537Z" fill="#8C8CA6"/>
<path d="M164.384 12.8814V16.1268H160.784V21.7175C160.784 23.0447 161.442 23.7084 162.76 23.7084H164.384V26.9537H162.76C160.847 26.9537 159.43 26.5083 158.51 25.6174C157.59 24.7083 157.13 23.3356 157.13 21.4993V16.1268H151.662V26.9537H148.008V16.1268H145.193V12.8814H148.008V12.2269C148.008 10.3905 148.468 9.02694 149.388 8.13606C150.309 7.22699 151.725 6.77246 153.638 6.77246H155.289V10.0178H153.638C152.321 10.0178 151.662 10.6814 151.662 12.0087V12.8814H157.13V8.73604L160.784 7.59062V12.8814H164.384Z" fill="#8C8CA6"/>
<path d="M23.8249 8.52146C24.2753 8.52146 24.5869 8.07295 24.4009 7.66274C22.1175 2.62517 16.6259 -0.78568 10.8071 0.25158C7.6969 0.807507 5.14623 2.38876 3.1615 4.8622C2.94866 5.12745 2.84054 5.46031 2.84054 5.8004V7.22619C2.84054 7.94155 2.26063 8.52146 1.54527 8.52146C0.829913 8.52146 0.25 9.10137 0.25 9.81673V13.9935C0.25 14.708 0.829247 15.2872 1.54379 15.2872C2.25832 15.2872 2.83757 14.708 2.83757 13.9935V10.0965C2.83757 9.22665 3.54276 8.52146 4.41266 8.52146H7.79285C8.71999 8.52146 9.47159 7.76417 9.47159 6.83001V3.44712C9.47159 2.51296 10.2232 1.75567 11.1503 1.75567H14.5078C15.435 1.75567 16.1866 2.51296 16.1866 3.44712V6.83001C16.1866 7.76417 15.435 8.52146 14.5078 8.52146H11.1503C10.2232 8.52146 9.47159 9.36332 9.47159 10.2975V13.5958C9.47159 14.53 10.2232 15.2872 11.1503 15.2872H14.5078C15.435 15.2872 16.1866 16.0445 16.1866 16.9787V20.3616C16.1866 21.2957 15.435 22.053 14.5078 22.053H11.1503C10.2232 22.053 9.47159 21.2957 9.47159 20.3616V16.9787C9.47159 16.0445 8.71999 15.2872 7.79285 15.2872H4.51929C3.59214 15.2872 2.84054 16.0445 2.84054 16.9787V20.6479C2.84054 20.9024 2.90177 21.1534 3.02183 21.3779C4.81301 24.7261 7.0048 27.7935 9.31372 30.7872C9.86535 31.5009 10.417 32.2145 10.9857 32.9517C12.0065 34.2748 13.9971 34.2606 14.9918 32.9174C16.0476 31.4916 17.2799 29.8209 18.0288 28.7835C20.2175 25.7617 22.2955 22.6585 23.8679 19.2294C24.2632 18.3783 24.6062 17.5173 24.8747 16.6426C25.0865 15.9522 24.547 15.2872 23.8249 15.2872C22.8977 15.2872 22.1461 14.53 22.1461 13.5958V10.2129C22.1461 9.27874 22.8977 8.52146 23.8249 8.52146Z" fill="#8C8CA6"/>
<path opacity="0.5" fill-rule="evenodd" clip-rule="evenodd" d="M7.8253 28.8186H7.98079C8.85069 28.8186 9.55588 28.1134 9.55588 27.2436V23.6279C9.55588 22.758 8.85069 22.0529 7.98079 22.0529H4.41599C4.0918 22.0529 3.7905 22.1508 3.54004 22.3187C4.82234 24.5865 6.28151 26.7307 7.8253 28.8186Z" fill="#8C8CA6"/>
<path opacity="0.5" fill-rule="evenodd" clip-rule="evenodd" d="M22.281 22.3152C22.0316 22.1495 21.7323 22.053 21.4104 22.053H17.8456C16.9757 22.053 16.2705 22.7582 16.2705 23.6281V27.2437C16.2705 28.1136 16.9757 28.8188 17.8456 28.8188H18.0034C18.012 28.8069 18.0205 28.7951 18.0289 28.7834C19.5428 26.6933 21.0037 24.5642 22.281 22.3152Z" fill="#8C8CA6"/>
<path opacity="0.5" fill-rule="evenodd" clip-rule="evenodd" d="M23.7195 8.52136H20.3632C19.4933 8.52136 18.7881 9.22656 18.7881 10.0965V13.7121C18.7881 14.582 19.4933 15.2871 20.3632 15.2871H23.7194C22.8501 15.2865 22.1456 14.5815 22.1456 13.7121V10.0964C22.1456 9.22695 22.8502 8.522 23.7195 8.52136Z" fill="#8C8CA6"/>
</svg>
