<svg width="207" height="44" viewBox="0 0 207 44" fill="none" xmlns="http://www.w3.org/2000/svg">
<path fill-rule="evenodd" clip-rule="evenodd" d="M33.9147 35.0746C33.1989 33.5618 31.9869 32.352 30.4718 31.6427C24.0627 28.6369 16.3229 29.4756 10.658 34.1634L9.38233 35.2195L10.4385 33.9438C16.1516 27.0406 16.1516 17.0503 10.4385 10.147L9.38233 8.87134L10.658 9.92747C17.5612 15.6406 27.5516 15.6406 34.4548 9.92747L35.7305 8.87134L34.6744 10.147C29.9339 15.8778 29.1303 23.7317 32.2613 30.1848C32.9354 31.5769 34.064 32.7011 35.4582 33.3708C38.306 34.7409 41.4261 35.3447 44.5132 35.1844V8.86915C44.5132 4.01889 40.5808 0.0864258 35.7305 0.0864258H9.38233C4.53207 0.0864258 0.599609 4.01889 0.599609 8.86915V35.2173C0.599609 40.0676 4.53207 44 9.38233 44H35.68C35.8337 40.959 35.2475 37.8873 33.9169 35.0746H33.9147Z" fill="url(#paint0_linear_150_13749)"/>
<path d="M79.3129 10.9907C77.244 9.26104 74.523 8.38428 71.219 8.38428C67.915 8.38428 65.2918 9.15593 63.1943 10.6777C61.08 12.2115 59.8162 14.1872 59.4411 16.5499L59.3886 16.882L66.7061 18.5209L66.7754 18.1577C66.988 17.0301 67.4873 16.1462 68.2542 15.5274C69.0258 14.9063 70.0412 14.5933 71.2691 14.5933C72.4063 14.5933 73.3428 14.8537 74.0499 15.365C74.7332 15.8595 75.0629 16.4926 75.0629 17.3001C75.0629 17.9618 74.8526 18.8553 73.0131 18.97L68.8562 19.3666C62.1144 20.0785 58.6934 22.9596 58.6934 27.9312C58.6934 30.2031 59.4817 32.0713 61.0346 33.488C62.5779 34.8952 64.458 35.6095 66.6177 35.6095C70.5859 35.6095 73.4168 33.8416 75.0629 30.3512C75.0629 32.9822 77.1957 35.1149 79.8266 35.1149H82.4569V18.6331C82.4569 15.3076 81.3985 12.7347 79.3105 10.9907H79.3129ZM75.0653 24.0777C75.0653 25.535 74.4776 26.7916 73.2759 27.9168C72.0814 29.0349 70.6408 29.6011 68.9948 29.6011C68.0941 29.6011 67.3703 29.3861 66.8447 28.9632C66.3358 28.5547 66.0874 28.0387 66.0874 27.3889C66.0874 26.7391 66.3215 26.266 66.8017 25.8575C67.3058 25.4275 68.0105 25.148 68.8849 25.0261L73.1875 24.5316C73.9783 24.4384 74.5994 24.2903 75.0629 24.0801L75.0653 24.0777Z" fill="white"/>
<path d="M119.7 8.38281C117.743 8.38281 115.985 9.02785 114.475 10.2964C113.228 11.3452 112.265 12.7165 111.606 14.3768C111.004 12.7165 110.098 11.35 108.909 10.3012C107.463 9.02785 105.686 8.38281 103.626 8.38281C101.698 8.38281 99.9975 9.01112 98.5712 10.251C97.575 11.1135 96.758 12.2124 96.1225 13.5311V8.87734H88.7285V35.1111H96.1225V20.4617C96.1225 18.9112 96.5669 17.6283 97.4412 16.644C98.318 15.6597 99.4193 15.1819 100.807 15.1819C101.992 15.1819 102.96 15.6574 103.77 16.6345C104.584 17.6187 104.998 18.9064 104.998 20.4617V35.1111H112.392V20.4617C112.392 18.9112 112.836 17.6283 113.71 16.644C114.587 15.6597 115.689 15.1819 117.077 15.1819C118.293 15.1819 119.279 15.6574 120.089 16.6345C120.904 17.6187 121.317 18.9064 121.317 20.4617V35.1111H128.711V19.2743C128.711 16.1399 127.877 13.5168 126.234 11.4838C124.571 9.42681 122.371 8.38281 119.7 8.38281Z" fill="white"/>
<path fill-rule="evenodd" clip-rule="evenodd" d="M145.373 10.5716C147.065 9.11912 149.098 8.3833 151.418 8.3833C154.679 8.3833 157.419 9.7092 159.557 12.3228C161.678 14.9173 162.753 18.1687 162.753 21.9959C162.753 25.8231 161.678 29.0769 159.557 31.669C157.419 34.2826 154.681 35.6085 151.418 35.6085C149.098 35.6085 147.065 34.8727 145.373 33.4202C144.133 32.357 143.132 30.9977 142.38 29.3684V43.9372H134.988V8.87783H142.38V14.6258C143.132 12.9941 144.133 11.6371 145.373 10.5716ZM153.329 26.8719C154.514 25.5794 155.113 23.9382 155.113 21.9959L155.111 21.9983C155.111 20.0871 154.511 18.4649 153.326 17.1701C152.134 15.8681 150.715 15.235 148.993 15.235C147.091 15.235 145.498 15.88 144.255 17.1534C143.011 18.4291 142.38 20.0584 142.38 21.9959C142.38 23.9334 143.011 25.5722 144.258 26.8647C145.5 28.1524 147.093 28.807 148.995 28.807C150.718 28.807 152.137 28.1739 153.329 26.8719Z" fill="white"/>
<path fill-rule="evenodd" clip-rule="evenodd" d="M167.459 0.000488281V35.1153H174.853V0.000488281H167.459Z" fill="white"/>
<path fill-rule="evenodd" clip-rule="evenodd" d="M192.239 31.6806L199.126 8.87744H206.649L196.026 43.9371H188.503L191.195 35.1136C188.121 35.1136 185.408 33.1068 184.508 30.1681L177.988 8.87744H185.968L192.239 31.6806Z" fill="white"/>
<defs>
<linearGradient id="paint0_linear_150_13749" x1="-14.9568" y1="8.34726" x2="19.9091" y2="70.6524" gradientUnits="userSpaceOnUse">
<stop stop-color="#F95765"/>
<stop offset="0.518041" stop-color="#8650DB"/>
<stop offset="1" stop-color="#309FFF"/>
</linearGradient>
</defs>
</svg>
