<svg width="164" height="40" viewBox="0 0 164 40" fill="none" xmlns="http://www.w3.org/2000/svg">
<g clip-path="url(#clip0_220_3847)">
<path fill-rule="evenodd" clip-rule="evenodd" d="M128.799 28.0215C127.783 28.1027 126.929 28.1027 125.993 28.1027C122.456 28.1027 120.991 27.2097 120.991 24.3279V17.0626H125.93H126.034H131.054V24.0033C131.054 29.9698 133.576 33.0139 141.628 33.0139C142.604 33.0139 143.337 33.0139 144.395 32.9327V28.0215C143.377 28.1027 142.524 28.1027 141.588 28.1027C138.05 28.1027 136.585 27.2097 136.585 24.3279V17.0626H141.628V12.3137H136.585V6.67188H131.054V12.3137H126.034H125.93H120.991V6.67188H115.46V12.3137H110.336V17.0626H115.46V24.0033C115.46 29.9698 117.982 33.0139 126.034 33.0139C127.011 33.0139 127.743 33.0139 128.799 32.9327V28.0215ZM154.596 33.3385C149.025 33.3385 145.406 29.8885 145.406 23.2725V21.8112C145.406 15.033 149.147 11.6641 154.719 11.6641H155.126C160.697 11.6641 164.439 15.033 164.439 21.8112V23.2725C164.439 29.8885 160.819 33.3385 155.247 33.3385H154.596ZM154.923 28.5895C157.363 28.5895 158.908 27.2096 158.908 24.206V20.8777C158.908 17.996 157.444 16.413 154.923 16.413C152.279 16.413 150.937 17.996 150.937 20.8777V24.206C150.937 27.2096 152.4 28.5895 154.923 28.5895ZM95.7904 24.1248V24.409C95.7904 27.3719 97.2951 28.7519 100.142 28.7519C102.542 28.7519 103.843 27.9402 104.29 26.5602H109.333C108.357 30.7814 105.145 33.3385 100.386 33.3385H99.7354C94.0415 33.3385 90.4219 29.8885 90.4219 23.2725V21.8112C90.4219 15.033 94.1636 11.6641 99.7354 11.6641H100.142C105.714 11.6641 109.455 15.1141 109.455 21.6489V24.1248H95.7904ZM99.898 16.2506C97.2951 16.2506 95.9125 17.59 95.7904 20.4719H104.087C103.965 17.59 102.46 16.2506 99.898 16.2506ZM69.9062 26.2356C70.1502 30.619 72.6718 33.3385 79.9517 33.3385C86.2555 33.3385 89.3465 31.4308 89.3465 26.7631C89.3465 22.2577 86.4183 21.2836 80.6431 20.1877C76.2913 19.376 75.3967 19.173 75.3967 17.7524C75.3967 16.4942 76.2913 16.0071 79.2196 16.0071C82.4732 16.0071 83.4493 16.6565 83.6119 18.7265H89.1431C88.9805 13.8559 85.8895 11.6641 79.3823 11.6641C73.4444 11.6641 70.1095 13.7341 70.1095 17.9553C70.1095 22.542 73.8512 23.5566 78.6096 24.4495C79.0967 24.5416 79.5464 24.6221 79.9603 24.6962L79.9604 24.6962C82.8288 25.2098 83.978 25.4156 83.978 27.0472C83.978 28.5084 83.1239 28.9955 80.033 28.9955C76.82 28.9955 75.5594 28.4678 75.4373 26.2356H69.9062ZM59.6236 33.3385C52.3436 33.3385 49.8221 30.619 49.5781 26.2356H55.1091C55.2311 28.4678 56.4919 28.9955 59.7049 28.9955C62.7958 28.9955 63.6499 28.5084 63.6499 27.0472C63.6499 25.4156 62.5007 25.2098 59.6323 24.6962L59.6321 24.6962C59.2183 24.6221 58.7686 24.5416 58.2814 24.4495C53.5231 23.5566 49.7814 22.542 49.7814 17.9553C49.7814 13.7341 53.1164 11.6641 59.0541 11.6641C65.5613 11.6641 68.6522 13.8559 68.8149 18.7265H63.2838C63.1211 16.6565 62.1451 16.0071 58.8913 16.0071C55.9632 16.0071 55.0685 16.4942 55.0685 17.7524C55.0685 19.173 55.9632 19.376 60.3149 20.1877C66.0901 21.2836 69.0183 22.2577 69.0183 26.7631C69.0183 31.4308 65.9273 33.3385 59.6236 33.3385ZM29.0156 27.0863C29.0156 31.145 31.2525 33.1746 35.6854 33.1746C39.7932 33.1746 42.0301 31.2669 42.6807 27.2486H42.8434L42.5994 31.1045V32.7687H48.0492V18.9684C48.0492 13.8138 45.4056 11.7031 39.2237 11.7031H38.8171C32.6758 11.7031 29.9104 14.0167 29.9104 18.8061H35.2788C35.2788 16.8579 36.1328 16.1274 39.0205 16.1274C41.7046 16.1274 42.5994 16.8985 42.5994 19.1309V20.3485H38.4104C32.0252 20.3485 29.0156 22.4996 29.0156 27.0863ZM42.6807 23.9204C42.6807 27.1268 41.2574 28.5879 38.0037 28.5879C35.8075 28.5879 34.6282 28.0603 34.6282 26.3151C34.6282 24.6509 35.5228 23.9204 38.4104 23.9204H42.6807ZM5.71094 12.0246V6.76562H14.8657C24.5838 6.76562 28.2927 9.85795 28.2927 17.0734C28.2927 22.8955 25.8779 26.0333 19.8399 27.028V21.384C19.9153 21.3502 19.9909 21.3169 20.0663 21.2837C21.3929 20.6992 22.6793 20.1324 22.6793 17.0734C22.6793 13.8405 20.1708 12.0095 15.6169 12.0095H12.0959V12.0246H5.71094ZM5.71094 33.1768V33.1696V27.3745H0V21.3516H5.71094V15.3281H12.0959H12.1825V21.3516H17.8772V21.3868H17.888V27.2681L17.8772 27.269V27.3745H15.7891C15.4875 27.381 15.1798 27.3842 14.8657 27.3842H12.1825V33.1696H12.0958V33.1768H5.71094Z" fill="url(#paint0_linear_220_3847)"/>
</g>
<defs>
<linearGradient id="paint0_linear_220_3847" x1="154.994" y1="33.0052" x2="-0.000236671" y2="7.00681" gradientUnits="userSpaceOnUse">
<stop stop-color="white"/>
<stop offset="1" stop-color="white" stop-opacity="0.6"/>
</linearGradient>
<clipPath id="clip0_220_3847">
<rect width="164" height="40" fill="white"/>
</clipPath>
</defs>
</svg>
