<svg width="156" height="42" viewBox="0 0 156 42" fill="none" xmlns="http://www.w3.org/2000/svg">
<mask id="path-1-outside-1_1_4904" maskUnits="userSpaceOnUse" x="53.8418" y="11.1299" width="97" height="31" fill="black">
<rect fill="white" x="53.8418" y="11.1299" width="97" height="31"/>
<path d="M54.9749 34.1299V11.4321H58.2175V31.5683H68.5936V34.1299H54.9749ZM77.0372 34.519C75.524 34.519 74.1513 34.1731 72.9191 33.4814C71.7086 32.768 70.7466 31.7844 70.0333 30.5307C69.3199 29.2553 68.9632 27.7745 68.9632 26.0884C68.9632 24.4022 69.3199 22.9323 70.0333 21.6785C70.7682 20.4031 71.741 19.4195 72.9516 18.7278C74.1837 18.0144 75.5672 17.6577 77.102 17.6577C78.6368 17.6577 80.0095 18.0144 81.2201 18.7278C82.4522 19.4195 83.4142 20.4031 84.1059 21.6785C84.8193 22.9323 85.176 24.4022 85.176 26.0884C85.176 27.7745 84.8193 29.2553 84.1059 30.5307C83.3926 31.7844 82.4198 32.768 81.1876 33.4814C79.9555 34.1731 78.572 34.519 77.0372 34.519ZM77.0372 31.8277C77.9018 31.8277 78.7017 31.6223 79.4367 31.2116C80.1716 30.7793 80.7553 30.1415 81.1876 29.2985C81.6416 28.4338 81.8686 27.3638 81.8686 26.0884C81.8686 24.7913 81.6416 23.7213 81.1876 22.8782C80.7553 22.0352 80.1716 21.4083 79.4367 20.9976C78.7233 20.5652 77.9451 20.3491 77.102 20.3491C76.259 20.3491 75.4699 20.5652 74.735 20.9976C74 21.4083 73.4055 22.046 72.9516 22.9107C72.4976 23.7537 72.2706 24.813 72.2706 26.0884C72.2706 27.3638 72.4976 28.4338 72.9516 29.2985C73.4055 30.1415 73.9892 30.7793 74.7025 31.2116C75.4375 31.6223 76.2157 31.8277 77.0372 31.8277ZM91.1932 34.1299L85.389 18.0468H88.7937L93.236 31.4061H93.3008L97.7755 18.0468H101.115L95.3436 34.1299H91.1932ZM107.278 34.519C105.959 34.519 104.857 34.3028 103.97 33.8705C103.106 33.4165 102.457 32.8112 102.025 32.0547C101.614 31.2981 101.409 30.4766 101.409 29.5903C101.409 28.5311 101.69 27.6232 102.252 26.8666C102.814 26.11 103.614 25.5263 104.651 25.1156C105.689 24.7049 106.943 24.4995 108.413 24.4995H112.693C112.693 23.5484 112.541 22.7594 112.239 22.1325C111.936 21.5056 111.504 21.0408 110.942 20.7382C110.401 20.4355 109.72 20.2842 108.899 20.2842C107.926 20.2842 107.072 20.522 106.337 20.9976C105.624 21.4731 105.181 22.2081 105.008 23.2025H101.765C101.895 22.0136 102.284 21.0192 102.933 20.2194C103.603 19.3979 104.457 18.771 105.494 18.3387C106.532 17.8847 107.678 17.6577 108.931 17.6577C110.445 17.6577 111.72 17.928 112.758 18.4684C113.795 19.0088 114.584 19.7762 115.125 20.7706C115.665 21.7434 115.935 22.8999 115.935 24.2401V34.1299H113.179L112.855 31.4061H112.79C112.531 31.8817 112.217 32.3141 111.85 32.7032C111.482 33.0923 111.061 33.4165 110.585 33.6759C110.131 33.9353 109.623 34.1407 109.061 34.292C108.521 34.4433 107.926 34.519 107.278 34.519ZM107.959 31.8925C108.694 31.8925 109.342 31.752 109.904 31.471C110.488 31.19 110.974 30.8117 111.363 30.3361C111.752 29.8389 112.055 29.2877 112.271 28.6824C112.487 28.0771 112.606 27.4502 112.628 26.8017H108.737C107.807 26.8017 107.051 26.9098 106.467 27.126C105.883 27.3422 105.462 27.6448 105.202 28.0339C104.965 28.423 104.846 28.877 104.846 29.3958C104.846 29.893 104.965 30.3361 105.202 30.7252C105.462 31.0927 105.819 31.3845 106.273 31.6007C106.748 31.7952 107.31 31.8925 107.959 31.8925ZM125.151 41.2959C123.682 41.2959 122.374 41.1122 121.228 40.7447C120.104 40.3772 119.228 39.8151 118.602 39.0586C117.975 38.302 117.661 37.3832 117.661 36.3024C117.661 35.7403 117.791 35.1783 118.05 34.6163C118.31 34.0542 118.731 33.5138 119.315 32.995C119.899 32.4762 120.688 32.0114 121.682 31.6007L123.433 33.0274C122.374 33.4598 121.65 33.9353 121.26 34.4541C120.893 34.9946 120.709 35.5458 120.709 36.1078C120.709 36.6915 120.893 37.1887 121.26 37.5994C121.628 38.0101 122.147 38.3128 122.817 38.5073C123.487 38.7235 124.265 38.8316 125.151 38.8316C126.059 38.8316 126.816 38.7127 127.421 38.4749C128.027 38.2371 128.481 37.902 128.783 37.4697C129.107 37.059 129.27 36.5726 129.27 36.0106C129.27 35.3621 129.01 34.8324 128.491 34.4217C127.994 34.011 127.032 33.7624 125.605 33.6759C124.395 33.5895 123.357 33.4706 122.493 33.3192C121.65 33.1463 120.936 32.9626 120.353 32.768C119.769 32.5518 119.272 32.3141 118.861 32.0547C118.472 31.7736 118.126 31.4926 117.823 31.2116V30.4658L121.066 27.1584L123.271 28.0339L120.158 31.3089L120.774 29.9146C120.99 30.0659 121.206 30.2064 121.423 30.3361C121.66 30.4442 121.963 30.5523 122.33 30.6604C122.72 30.7684 123.228 30.8765 123.854 30.9846C124.481 31.0711 125.292 31.1467 126.286 31.2116C127.735 31.3413 128.902 31.6007 129.788 31.9898C130.696 32.3573 131.356 32.8761 131.766 33.5462C132.177 34.1947 132.382 34.9838 132.382 35.9133C132.382 36.7996 132.123 37.6535 131.604 38.4749C131.085 39.2963 130.296 39.9665 129.237 40.4853C128.178 41.0257 126.816 41.2959 125.151 41.2959ZM125.151 29.1688C123.79 29.1688 122.622 28.9094 121.65 28.3906C120.698 27.8718 119.963 27.18 119.445 26.3153C118.947 25.4507 118.699 24.4779 118.699 23.3971C118.699 22.3378 118.947 21.3759 119.445 20.5112C119.963 19.6465 120.698 18.9548 121.65 18.436C122.622 17.9171 123.79 17.6577 125.151 17.6577C126.513 17.6577 127.67 17.9171 128.621 18.436C129.594 18.9548 130.329 19.6465 130.826 20.5112C131.345 21.3759 131.604 22.3378 131.604 23.3971C131.604 24.4779 131.345 25.4507 130.826 26.3153C130.329 27.18 129.594 27.8718 128.621 28.3906C127.67 28.9094 126.513 29.1688 125.151 29.1688ZM125.151 26.672C126.189 26.672 127.021 26.4018 127.648 25.8614C128.297 25.2993 128.621 24.4887 128.621 23.4295C128.621 22.3702 128.297 21.5704 127.648 21.03C127.021 20.468 126.189 20.1869 125.151 20.1869C124.092 20.1869 123.238 20.468 122.59 21.03C121.963 21.5704 121.65 22.3702 121.65 23.4295C121.65 24.4887 121.963 25.2993 122.59 25.8614C123.238 26.4018 124.092 26.672 125.151 26.672ZM127.746 20.4463L126.967 18.0468H133.679V20.0248L127.746 20.4463ZM142.589 34.519C141.011 34.519 139.616 34.1731 138.406 33.4814C137.195 32.768 136.244 31.7844 135.552 30.5307C134.86 29.2769 134.515 27.8069 134.515 26.1208C134.515 24.4347 134.85 22.9647 135.52 21.7109C136.212 20.4355 137.163 19.4411 138.373 18.7278C139.605 18.0144 141.021 17.6577 142.621 17.6577C144.221 17.6577 145.593 18.0144 146.739 18.7278C147.885 19.4195 148.771 20.3382 149.398 21.4839C150.046 22.6296 150.371 23.9051 150.371 25.3102C150.371 25.5263 150.371 25.7641 150.371 26.0235C150.371 26.2829 150.349 26.5531 150.306 26.8342H136.914V24.5644H147.128C147.063 23.2241 146.609 22.1757 145.766 21.4191C144.923 20.6409 143.864 20.2518 142.589 20.2518C141.724 20.2518 140.913 20.4463 140.157 20.8354C139.422 21.2245 138.827 21.8082 138.373 22.5864C137.919 23.343 137.692 24.305 137.692 25.4723V26.3802C137.692 27.5691 137.919 28.5743 138.373 29.3958C138.827 30.1956 139.422 30.8009 140.157 31.2116C140.913 31.6223 141.713 31.8277 142.556 31.8277C143.594 31.8277 144.448 31.6007 145.118 31.1467C145.809 30.6712 146.328 30.0335 146.674 29.2336H149.917C149.614 30.2496 149.128 31.1575 148.458 31.9574C147.787 32.7356 146.955 33.3625 145.961 33.8381C144.988 34.292 143.864 34.519 142.589 34.519Z"/>
</mask>
<path d="M54.9749 34.1299V11.4321H58.2175V31.5683H68.5936V34.1299H54.9749ZM77.0372 34.519C75.524 34.519 74.1513 34.1731 72.9191 33.4814C71.7086 32.768 70.7466 31.7844 70.0333 30.5307C69.3199 29.2553 68.9632 27.7745 68.9632 26.0884C68.9632 24.4022 69.3199 22.9323 70.0333 21.6785C70.7682 20.4031 71.741 19.4195 72.9516 18.7278C74.1837 18.0144 75.5672 17.6577 77.102 17.6577C78.6368 17.6577 80.0095 18.0144 81.2201 18.7278C82.4522 19.4195 83.4142 20.4031 84.1059 21.6785C84.8193 22.9323 85.176 24.4022 85.176 26.0884C85.176 27.7745 84.8193 29.2553 84.1059 30.5307C83.3926 31.7844 82.4198 32.768 81.1876 33.4814C79.9555 34.1731 78.572 34.519 77.0372 34.519ZM77.0372 31.8277C77.9018 31.8277 78.7017 31.6223 79.4367 31.2116C80.1716 30.7793 80.7553 30.1415 81.1876 29.2985C81.6416 28.4338 81.8686 27.3638 81.8686 26.0884C81.8686 24.7913 81.6416 23.7213 81.1876 22.8782C80.7553 22.0352 80.1716 21.4083 79.4367 20.9976C78.7233 20.5652 77.9451 20.3491 77.102 20.3491C76.259 20.3491 75.4699 20.5652 74.735 20.9976C74 21.4083 73.4055 22.046 72.9516 22.9107C72.4976 23.7537 72.2706 24.813 72.2706 26.0884C72.2706 27.3638 72.4976 28.4338 72.9516 29.2985C73.4055 30.1415 73.9892 30.7793 74.7025 31.2116C75.4375 31.6223 76.2157 31.8277 77.0372 31.8277ZM91.1932 34.1299L85.389 18.0468H88.7937L93.236 31.4061H93.3008L97.7755 18.0468H101.115L95.3436 34.1299H91.1932ZM107.278 34.519C105.959 34.519 104.857 34.3028 103.97 33.8705C103.106 33.4165 102.457 32.8112 102.025 32.0547C101.614 31.2981 101.409 30.4766 101.409 29.5903C101.409 28.5311 101.69 27.6232 102.252 26.8666C102.814 26.11 103.614 25.5263 104.651 25.1156C105.689 24.7049 106.943 24.4995 108.413 24.4995H112.693C112.693 23.5484 112.541 22.7594 112.239 22.1325C111.936 21.5056 111.504 21.0408 110.942 20.7382C110.401 20.4355 109.72 20.2842 108.899 20.2842C107.926 20.2842 107.072 20.522 106.337 20.9976C105.624 21.4731 105.181 22.2081 105.008 23.2025H101.765C101.895 22.0136 102.284 21.0192 102.933 20.2194C103.603 19.3979 104.457 18.771 105.494 18.3387C106.532 17.8847 107.678 17.6577 108.931 17.6577C110.445 17.6577 111.72 17.928 112.758 18.4684C113.795 19.0088 114.584 19.7762 115.125 20.7706C115.665 21.7434 115.935 22.8999 115.935 24.2401V34.1299H113.179L112.855 31.4061H112.79C112.531 31.8817 112.217 32.3141 111.85 32.7032C111.482 33.0923 111.061 33.4165 110.585 33.6759C110.131 33.9353 109.623 34.1407 109.061 34.292C108.521 34.4433 107.926 34.519 107.278 34.519ZM107.959 31.8925C108.694 31.8925 109.342 31.752 109.904 31.471C110.488 31.19 110.974 30.8117 111.363 30.3361C111.752 29.8389 112.055 29.2877 112.271 28.6824C112.487 28.0771 112.606 27.4502 112.628 26.8017H108.737C107.807 26.8017 107.051 26.9098 106.467 27.126C105.883 27.3422 105.462 27.6448 105.202 28.0339C104.965 28.423 104.846 28.877 104.846 29.3958C104.846 29.893 104.965 30.3361 105.202 30.7252C105.462 31.0927 105.819 31.3845 106.273 31.6007C106.748 31.7952 107.31 31.8925 107.959 31.8925ZM125.151 41.2959C123.682 41.2959 122.374 41.1122 121.228 40.7447C120.104 40.3772 119.228 39.8151 118.602 39.0586C117.975 38.302 117.661 37.3832 117.661 36.3024C117.661 35.7403 117.791 35.1783 118.05 34.6163C118.31 34.0542 118.731 33.5138 119.315 32.995C119.899 32.4762 120.688 32.0114 121.682 31.6007L123.433 33.0274C122.374 33.4598 121.65 33.9353 121.26 34.4541C120.893 34.9946 120.709 35.5458 120.709 36.1078C120.709 36.6915 120.893 37.1887 121.26 37.5994C121.628 38.0101 122.147 38.3128 122.817 38.5073C123.487 38.7235 124.265 38.8316 125.151 38.8316C126.059 38.8316 126.816 38.7127 127.421 38.4749C128.027 38.2371 128.481 37.902 128.783 37.4697C129.107 37.059 129.27 36.5726 129.27 36.0106C129.27 35.3621 129.01 34.8324 128.491 34.4217C127.994 34.011 127.032 33.7624 125.605 33.6759C124.395 33.5895 123.357 33.4706 122.493 33.3192C121.65 33.1463 120.936 32.9626 120.353 32.768C119.769 32.5518 119.272 32.3141 118.861 32.0547C118.472 31.7736 118.126 31.4926 117.823 31.2116V30.4658L121.066 27.1584L123.271 28.0339L120.158 31.3089L120.774 29.9146C120.99 30.0659 121.206 30.2064 121.423 30.3361C121.66 30.4442 121.963 30.5523 122.33 30.6604C122.72 30.7684 123.228 30.8765 123.854 30.9846C124.481 31.0711 125.292 31.1467 126.286 31.2116C127.735 31.3413 128.902 31.6007 129.788 31.9898C130.696 32.3573 131.356 32.8761 131.766 33.5462C132.177 34.1947 132.382 34.9838 132.382 35.9133C132.382 36.7996 132.123 37.6535 131.604 38.4749C131.085 39.2963 130.296 39.9665 129.237 40.4853C128.178 41.0257 126.816 41.2959 125.151 41.2959ZM125.151 29.1688C123.79 29.1688 122.622 28.9094 121.65 28.3906C120.698 27.8718 119.963 27.18 119.445 26.3153C118.947 25.4507 118.699 24.4779 118.699 23.3971C118.699 22.3378 118.947 21.3759 119.445 20.5112C119.963 19.6465 120.698 18.9548 121.65 18.436C122.622 17.9171 123.79 17.6577 125.151 17.6577C126.513 17.6577 127.67 17.9171 128.621 18.436C129.594 18.9548 130.329 19.6465 130.826 20.5112C131.345 21.3759 131.604 22.3378 131.604 23.3971C131.604 24.4779 131.345 25.4507 130.826 26.3153C130.329 27.18 129.594 27.8718 128.621 28.3906C127.67 28.9094 126.513 29.1688 125.151 29.1688ZM125.151 26.672C126.189 26.672 127.021 26.4018 127.648 25.8614C128.297 25.2993 128.621 24.4887 128.621 23.4295C128.621 22.3702 128.297 21.5704 127.648 21.03C127.021 20.468 126.189 20.1869 125.151 20.1869C124.092 20.1869 123.238 20.468 122.59 21.03C121.963 21.5704 121.65 22.3702 121.65 23.4295C121.65 24.4887 121.963 25.2993 122.59 25.8614C123.238 26.4018 124.092 26.672 125.151 26.672ZM127.746 20.4463L126.967 18.0468H133.679V20.0248L127.746 20.4463ZM142.589 34.519C141.011 34.519 139.616 34.1731 138.406 33.4814C137.195 32.768 136.244 31.7844 135.552 30.5307C134.86 29.2769 134.515 27.8069 134.515 26.1208C134.515 24.4347 134.85 22.9647 135.52 21.7109C136.212 20.4355 137.163 19.4411 138.373 18.7278C139.605 18.0144 141.021 17.6577 142.621 17.6577C144.221 17.6577 145.593 18.0144 146.739 18.7278C147.885 19.4195 148.771 20.3382 149.398 21.4839C150.046 22.6296 150.371 23.9051 150.371 25.3102C150.371 25.5263 150.371 25.7641 150.371 26.0235C150.371 26.2829 150.349 26.5531 150.306 26.8342H136.914V24.5644H147.128C147.063 23.2241 146.609 22.1757 145.766 21.4191C144.923 20.6409 143.864 20.2518 142.589 20.2518C141.724 20.2518 140.913 20.4463 140.157 20.8354C139.422 21.2245 138.827 21.8082 138.373 22.5864C137.919 23.343 137.692 24.305 137.692 25.4723V26.3802C137.692 27.5691 137.919 28.5743 138.373 29.3958C138.827 30.1956 139.422 30.8009 140.157 31.2116C140.913 31.6223 141.713 31.8277 142.556 31.8277C143.594 31.8277 144.448 31.6007 145.118 31.1467C145.809 30.6712 146.328 30.0335 146.674 29.2336H149.917C149.614 30.2496 149.128 31.1575 148.458 31.9574C147.787 32.7356 146.955 33.3625 145.961 33.8381C144.988 34.292 143.864 34.519 142.589 34.519Z" fill="#8C8CA6"/>
<path d="M54.9749 34.1299H54.7841C54.7841 34.2353 54.8695 34.3207 54.9749 34.3207V34.1299ZM54.9749 11.4321V11.2412C54.8695 11.2412 54.7841 11.3266 54.7841 11.4321H54.9749ZM58.2175 11.4321H58.4083C58.4083 11.3266 58.3229 11.2412 58.2175 11.2412V11.4321ZM58.2175 31.5683H58.0266C58.0266 31.6737 58.1121 31.7591 58.2175 31.7591V31.5683ZM68.5936 31.5683H68.7845C68.7845 31.4629 68.699 31.3774 68.5936 31.3774V31.5683ZM68.5936 34.1299V34.3207C68.699 34.3207 68.7845 34.2353 68.7845 34.1299H68.5936ZM55.1658 34.1299V11.4321H54.7841V34.1299H55.1658ZM54.9749 11.6229H58.2175V11.2412H54.9749V11.6229ZM58.0266 11.4321V31.5683H58.4083V11.4321H58.0266ZM58.2175 31.7591H68.5936V31.3774H58.2175V31.7591ZM68.4028 31.5683V34.1299H68.7845V31.5683H68.4028ZM68.5936 33.939H54.9749V34.3207H68.5936V33.939ZM72.9191 33.4814L72.8222 33.6458L72.8257 33.6478L72.9191 33.4814ZM70.0333 30.5307L69.8667 30.6238L69.8674 30.625L70.0333 30.5307ZM70.0333 21.6785L69.8679 21.5832L69.8674 21.5841L70.0333 21.6785ZM72.9516 18.7278L73.0463 18.8935L73.0472 18.893L72.9516 18.7278ZM81.2201 18.7278L81.1231 18.8923L81.1266 18.8942L81.2201 18.7278ZM84.1059 21.6785L83.9381 21.7695L83.94 21.7729L84.1059 21.6785ZM84.1059 30.5307L84.2718 30.625L84.2725 30.6238L84.1059 30.5307ZM81.1876 33.4814L81.2811 33.6478L81.2833 33.6466L81.1876 33.4814ZM79.4367 31.2116L79.5298 31.3782L79.5334 31.3761L79.4367 31.2116ZM81.1876 29.2985L81.0186 29.2098L81.0178 29.2114L81.1876 29.2985ZM81.1876 22.8782L81.0178 22.9654L81.0196 22.9687L81.1876 22.8782ZM79.4367 20.9976L79.3377 21.1609L79.3435 21.1642L79.4367 20.9976ZM74.735 20.9976L74.8281 21.1642L74.8317 21.1621L74.735 20.9976ZM72.9516 22.9107L73.1196 23.0012L73.1205 22.9994L72.9516 22.9107ZM72.9516 29.2985L72.7826 29.3872L72.7835 29.389L72.9516 29.2985ZM74.7025 31.2116L74.6035 31.3749L74.6094 31.3782L74.7025 31.2116ZM77.0372 34.3281C75.5543 34.3281 74.2142 33.9895 73.0126 33.3149L72.8257 33.6478C74.0884 34.3567 75.4936 34.7099 77.0372 34.7099V34.3281ZM73.016 33.3169C71.835 32.621 70.8965 31.6619 70.1992 30.4363L69.8674 30.625C70.5968 31.907 71.5822 32.9151 72.8222 33.6458L73.016 33.3169ZM70.1998 30.4375C69.5047 29.1947 69.1541 27.7469 69.1541 26.0884H68.7724C68.7724 27.802 69.1351 29.3158 69.8667 30.6238L70.1998 30.4375ZM69.1541 26.0884C69.1541 24.4297 69.5047 22.9934 70.1992 21.7729L69.8674 21.5841C69.1351 22.8712 68.7724 24.3748 68.7724 26.0884H69.1541ZM70.1986 21.7738C70.9177 20.526 71.8667 19.5675 73.0463 18.8935L72.8569 18.5621C71.6153 19.2715 70.6188 20.2802 69.8679 21.5832L70.1986 21.7738ZM73.0472 18.893C74.248 18.1977 75.5981 17.8486 77.102 17.8486V17.4669C75.5363 17.4669 74.1194 17.8311 72.8559 18.5626L73.0472 18.893ZM77.102 17.8486C78.606 17.8486 79.9446 18.1977 81.1232 18.8922L81.317 18.5633C80.0744 17.8311 78.6677 17.4669 77.102 17.4669V17.8486ZM81.1266 18.8942C82.3265 19.5678 83.2631 20.5249 83.9381 21.7695L84.2737 21.5875C83.5653 20.2813 82.5779 19.2712 81.3135 18.5614L81.1266 18.8942ZM83.94 21.7729C84.6344 22.9934 84.9851 24.4297 84.9851 26.0884H85.3668C85.3668 24.3748 85.0041 22.8712 84.2718 21.5841L83.94 21.7729ZM84.9851 26.0884C84.9851 27.7469 84.6345 29.1947 83.9393 30.4375L84.2725 30.6238C85.0041 29.3158 85.3668 27.802 85.3668 26.0884H84.9851ZM83.94 30.4363C83.2432 31.6611 82.2945 32.62 81.092 33.3162L81.2833 33.6466C82.5451 32.916 83.542 31.9078 84.2718 30.625L83.94 30.4363ZM81.0942 33.3149C79.893 33.9893 78.5421 34.3281 77.0372 34.3281V34.7099C78.6018 34.7099 80.0179 34.3569 81.2811 33.6478L81.0942 33.3149ZM77.0372 32.0185C77.9335 32.0185 78.7655 31.8053 79.5298 31.3782L79.3435 31.045C78.6378 31.4394 77.8702 31.6368 77.0372 31.6368V32.0185ZM79.5334 31.3761C80.303 30.9234 80.9105 30.2572 81.3575 29.3856L81.0178 29.2114C80.6001 30.0259 80.0403 30.6351 79.3399 31.0471L79.5334 31.3761ZM81.3566 29.3872C81.8287 28.4881 82.0594 27.3855 82.0594 26.0884H81.6777C81.6777 27.342 81.4545 28.3795 81.0186 29.2098L81.3566 29.3872ZM82.0594 26.0884C82.0594 24.7705 81.829 23.6667 81.3557 22.7878L81.0196 22.9687C81.4542 23.7759 81.6777 24.8122 81.6777 26.0884H82.0594ZM81.3575 22.7911C80.9102 21.9189 80.3016 21.2623 79.5298 20.831L79.3435 21.1642C80.0417 21.5543 80.6004 22.1514 81.0178 22.9653L81.3575 22.7911ZM79.5356 20.8343C78.7921 20.3837 77.9796 20.1582 77.102 20.1582V20.5399C77.9106 20.5399 78.6545 20.7467 79.3377 21.1608L79.5356 20.8343ZM77.102 20.1582C76.2245 20.1582 75.4021 20.3837 74.6382 20.8331L74.8317 21.1621C75.5377 20.7468 76.2934 20.5399 77.102 20.5399V20.1582ZM74.6419 20.831C73.8697 21.2625 73.2509 21.9299 72.7826 22.8219L73.1205 22.9994C73.5601 22.1621 74.1303 21.5541 74.8281 21.1642L74.6419 20.831ZM72.7835 22.8202C72.3104 23.6988 72.0798 24.7915 72.0798 26.0884H72.4615C72.4615 24.8345 72.6848 23.8087 73.1196 23.0012L72.7835 22.8202ZM72.0798 26.0884C72.0798 27.3855 72.3105 28.4881 72.7826 29.3872L73.1205 29.2098C72.6847 28.3795 72.4615 27.342 72.4615 26.0884H72.0798ZM72.7835 29.389C73.2512 30.2575 73.857 30.9224 74.6036 31.3748L74.8015 31.0484C74.1213 30.6361 73.5598 30.0256 73.1196 29.208L72.7835 29.389ZM74.6094 31.3782C75.3721 31.8044 76.1823 32.0185 77.0372 32.0185V31.6368C76.2492 31.6368 75.5029 31.4402 74.7956 31.045L74.6094 31.3782ZM91.1932 34.1299L91.0136 34.1947C91.0409 34.2703 91.1127 34.3207 91.1932 34.3207V34.1299ZM85.389 18.0468V17.856C85.3268 17.856 85.2685 17.8863 85.2328 17.9372C85.1971 17.988 85.1884 18.0532 85.2095 18.1116L85.389 18.0468ZM88.7937 18.0468L88.9748 17.9866C88.9489 17.9086 88.8759 17.856 88.7937 17.856V18.0468ZM93.236 31.4061L93.0549 31.4664C93.0808 31.5444 93.1538 31.597 93.236 31.597V31.4061ZM93.3008 31.4061V31.597C93.3829 31.597 93.4557 31.5446 93.4818 31.4668L93.3008 31.4061ZM97.7755 18.0468V17.856C97.6935 17.856 97.6206 17.9084 97.5946 17.9862L97.7755 18.0468ZM101.115 18.0468L101.295 18.1113C101.316 18.0528 101.307 17.9878 101.271 17.937C101.236 17.8862 101.177 17.856 101.115 17.856V18.0468ZM95.3436 34.1299V34.3207C95.4242 34.3207 95.4961 34.2702 95.5233 34.1944L95.3436 34.1299ZM91.3727 34.0651L85.5685 17.9821L85.2095 18.1116L91.0136 34.1947L91.3727 34.0651ZM85.389 18.2377H88.7937V17.856H85.389V18.2377ZM88.6126 18.1071L93.0549 31.4664L93.4171 31.3459L88.9748 17.9866L88.6126 18.1071ZM93.236 31.597H93.3008V31.2153H93.236V31.597ZM93.4818 31.4668L97.9565 18.1075L97.5946 17.9862L93.1198 31.3455L93.4818 31.4668ZM97.7755 18.2377H101.115V17.856H97.7755V18.2377ZM100.936 17.9824L95.164 34.0654L95.5233 34.1944L101.295 18.1113L100.936 17.9824ZM95.3436 33.939H91.1932V34.3207H95.3436V33.939ZM103.97 33.8705L103.882 34.0395L103.887 34.042L103.97 33.8705ZM102.025 32.0547L101.857 32.1457L101.859 32.1493L102.025 32.0547ZM102.252 26.8666L102.405 26.9804L102.252 26.8666ZM104.651 25.1156L104.581 24.9381L104.651 25.1156ZM112.693 24.4995V24.6904C112.798 24.6904 112.884 24.6049 112.884 24.4995H112.693ZM112.239 22.1325L112.067 22.2154L112.239 22.1325ZM110.942 20.7382L110.849 20.9047L110.851 20.9062L110.942 20.7382ZM106.337 20.9976L106.234 20.8373L106.232 20.8388L106.337 20.9976ZM105.008 23.2025V23.3934C105.101 23.3934 105.18 23.3266 105.196 23.2352L105.008 23.2025ZM101.765 23.2025L101.576 23.1818C101.57 23.2357 101.587 23.2896 101.623 23.3299C101.66 23.3703 101.711 23.3934 101.765 23.3934V23.2025ZM102.933 20.2194L102.785 20.0987L102.784 20.0991L102.933 20.2194ZM105.494 18.3387L105.568 18.5149L105.571 18.5135L105.494 18.3387ZM112.758 18.4684L112.669 18.6377L112.758 18.4684ZM115.125 20.7706L114.957 20.8617L114.958 20.8633L115.125 20.7706ZM115.935 34.1299V34.3207C116.041 34.3207 116.126 34.2353 116.126 34.1299H115.935ZM113.179 34.1299L112.99 34.1524C113.001 34.2485 113.082 34.3207 113.179 34.3207V34.1299ZM112.855 31.4061L113.044 31.3836C113.033 31.2876 112.952 31.2153 112.855 31.2153V31.4061ZM112.79 31.4061V31.2153C112.72 31.2153 112.656 31.2534 112.622 31.3147L112.79 31.4061ZM111.85 32.7032L111.988 32.8342L111.85 32.7032ZM110.585 33.6759L110.494 33.5083L110.49 33.5102L110.585 33.6759ZM109.061 34.292L109.011 34.1077L109.01 34.1082L109.061 34.292ZM109.904 31.471L109.821 31.299L109.819 31.3003L109.904 31.471ZM111.363 30.3361L111.511 30.457L111.514 30.4537L111.363 30.3361ZM112.271 28.6824L112.091 28.6182L112.271 28.6824ZM112.628 26.8017L112.819 26.8081C112.82 26.7564 112.801 26.7062 112.765 26.669C112.729 26.6319 112.68 26.6109 112.628 26.6109V26.8017ZM106.467 27.126L106.533 27.305L106.467 27.126ZM105.202 28.0339L105.044 27.9279L105.04 27.9344L105.202 28.0339ZM105.202 30.7252L105.039 30.825L105.047 30.8353L105.202 30.7252ZM106.273 31.6007L106.19 31.7733L106.2 31.7773L106.273 31.6007ZM107.278 34.3281C105.979 34.3281 104.907 34.115 104.054 33.6989L103.887 34.042C104.806 34.4906 105.939 34.7099 107.278 34.7099V34.3281ZM104.059 33.7015C103.223 33.2623 102.603 32.6812 102.191 31.96L101.859 32.1493C102.312 32.9413 102.989 33.5707 103.882 34.0395L104.059 33.7015ZM102.193 31.9636C101.797 31.2358 101.6 30.4458 101.6 29.5903H101.218C101.218 30.5074 101.431 31.3603 101.857 32.1457L102.193 31.9636ZM101.6 29.5903C101.6 28.5668 101.87 27.7 102.405 26.9804L102.099 26.7528C101.509 27.5463 101.218 28.4954 101.218 29.5903H101.6ZM102.405 26.9804C102.942 26.2572 103.711 25.6931 104.722 25.2931L104.581 24.9381C103.517 25.3595 102.685 25.9628 102.099 26.7528L102.405 26.9804ZM104.722 25.2931C105.731 24.8935 106.959 24.6904 108.413 24.6904V24.3087C106.926 24.3087 105.647 24.5162 104.581 24.9381L104.722 25.2931ZM108.413 24.6904H112.693V24.3087H108.413V24.6904ZM112.884 24.4995C112.884 23.5296 112.73 22.7099 112.411 22.0495L112.067 22.2154C112.353 22.8088 112.502 23.5672 112.502 24.4995H112.884ZM112.411 22.0495C112.092 21.3898 111.633 20.8936 111.032 20.5701L110.851 20.9062C111.375 21.188 111.78 21.6213 112.067 22.2154L112.411 22.0495ZM111.035 20.5716C110.458 20.2487 109.743 20.0933 108.899 20.0933V20.4751C109.698 20.4751 110.344 20.6224 110.849 20.9047L111.035 20.5716ZM108.899 20.0933C107.894 20.0933 107.003 20.3396 106.234 20.8373L106.441 21.1578C107.142 20.7044 107.959 20.4751 108.899 20.4751V20.0933ZM106.232 20.8388C105.467 21.3485 105 22.1338 104.82 23.1698L105.196 23.2352C105.362 22.2824 105.781 21.5978 106.443 21.1564L106.232 20.8388ZM105.008 23.0116H101.765V23.3934H105.008V23.0116ZM101.955 23.2232C102.082 22.0647 102.459 21.1065 103.081 20.3396L102.784 20.0991C102.109 20.9318 101.709 21.9624 101.576 23.1818L101.955 23.2232ZM103.081 20.34C103.73 19.5444 104.557 18.9359 105.568 18.5149L105.421 18.1625C104.356 18.6062 103.476 19.2514 102.785 20.0987L103.081 20.34ZM105.571 18.5135C106.582 18.0712 107.701 17.8486 108.931 17.8486V17.4669C107.654 17.4669 106.482 17.6982 105.418 18.1638L105.571 18.5135ZM108.931 17.8486C110.423 17.8486 111.666 18.115 112.669 18.6377L112.846 18.2991C111.774 17.7409 110.467 17.4669 108.931 17.4669V17.8486ZM112.669 18.6377C113.675 19.1612 114.435 19.9019 114.957 20.8617L115.292 20.6794C114.733 19.6505 113.916 18.8564 112.846 18.2991L112.669 18.6377ZM114.958 20.8633C115.48 21.8024 115.744 22.9257 115.744 24.2401H116.126C116.126 22.874 115.851 21.6843 115.292 20.6779L114.958 20.8633ZM115.744 24.2401V34.1299H116.126V24.2401H115.744ZM115.935 33.939H113.179V34.3207H115.935V33.939ZM113.369 34.1073L113.044 31.3836L112.665 31.4287L112.99 34.1524L113.369 34.1073ZM112.855 31.2153H112.79V31.597H112.855V31.2153ZM112.622 31.3147C112.371 31.7761 112.067 32.1951 111.711 32.5721L111.988 32.8342C112.367 32.433 112.69 31.9873 112.958 31.4975L112.622 31.3147ZM111.711 32.5721C111.357 32.9465 110.952 33.2585 110.494 33.5084L110.677 33.8435C111.169 33.5746 111.607 33.2381 111.988 32.8342L111.711 32.5721ZM110.49 33.5102C110.052 33.7607 109.56 33.9602 109.012 34.1077L109.111 34.4763C109.687 34.3212 110.21 34.11 110.68 33.8416L110.49 33.5102ZM109.01 34.1082C108.488 34.2542 107.911 34.3281 107.278 34.3281V34.7099C107.941 34.7099 108.553 34.6325 109.113 34.4758L109.01 34.1082ZM107.959 32.0834C108.718 32.0834 109.397 31.9381 109.99 31.6417L109.819 31.3003C109.287 31.566 108.669 31.7017 107.959 31.7017V32.0834ZM109.987 31.643C110.594 31.3505 111.103 30.9553 111.511 30.457L111.216 30.2152C110.845 30.6681 110.381 31.0294 109.821 31.299L109.987 31.643ZM111.514 30.4537C111.916 29.9401 112.228 29.3708 112.451 28.7466L112.091 28.6182C111.882 29.2046 111.589 29.7377 111.213 30.2185L111.514 30.4537ZM112.451 28.7466C112.674 28.1225 112.796 27.4761 112.819 26.8081L112.437 26.7954C112.416 27.4243 112.301 28.0317 112.091 28.6182L112.451 28.7466ZM112.628 26.6109H108.737V26.9926H112.628V26.6109ZM108.737 26.6109C107.795 26.6109 107.013 26.7201 106.401 26.947L106.533 27.305C107.088 27.0995 107.82 26.9926 108.737 26.9926V26.6109ZM106.401 26.947C105.792 27.1726 105.332 27.4959 105.044 27.928L105.361 28.1398C105.592 27.7937 105.975 27.5117 106.533 27.305L106.401 26.947ZM105.04 27.9344C104.781 28.3574 104.655 28.8468 104.655 29.3958H105.037C105.037 28.9071 105.148 28.4886 105.365 28.1334L105.04 27.9344ZM104.655 29.3958C104.655 29.9248 104.782 30.403 105.04 30.8247L105.365 30.6257C105.148 30.2692 105.037 29.8611 105.037 29.3958H104.655ZM105.047 30.8353C105.327 31.2325 105.711 31.5445 106.19 31.773L106.355 31.4284C105.927 31.2246 105.597 30.9528 105.358 30.6151L105.047 30.8353ZM106.2 31.7773C106.704 31.9834 107.292 32.0834 107.959 32.0834V31.7017C107.329 31.7017 106.792 31.6071 106.345 31.424L106.2 31.7773ZM121.228 40.7447L121.169 40.9261L121.17 40.9264L121.228 40.7447ZM118.602 39.0586L118.455 39.1803L118.602 39.0586ZM118.05 34.6163L117.877 34.5363L118.05 34.6163ZM119.315 32.995L119.442 33.1376L119.315 32.995ZM121.682 31.6007L121.803 31.4527C121.748 31.4084 121.674 31.3975 121.609 31.4243L121.682 31.6007ZM123.433 33.0274L123.505 33.2041C123.567 33.1787 123.612 33.1222 123.622 33.0556C123.632 32.9889 123.606 32.922 123.554 32.8795L123.433 33.0274ZM121.26 34.4541L121.108 34.3395L121.103 34.3468L121.26 34.4541ZM121.26 37.5994L121.118 37.7267L121.26 37.5994ZM122.817 38.5073L122.875 38.3256L122.87 38.324L122.817 38.5073ZM127.421 38.4749L127.351 38.2972L127.421 38.4749ZM128.783 37.4697L128.633 37.3512L128.627 37.3603L128.783 37.4697ZM128.491 34.4217L128.37 34.5689L128.373 34.5714L128.491 34.4217ZM125.605 33.6759L125.592 33.8663L125.594 33.8664L125.605 33.6759ZM122.493 33.3192L122.454 33.5063L122.46 33.5073L122.493 33.3192ZM120.353 32.768L120.286 32.9471L120.292 32.9491L120.353 32.768ZM118.861 32.0547L118.749 32.2097L118.759 32.216L118.861 32.0547ZM117.823 31.2116H117.632C117.632 31.2647 117.655 31.3153 117.693 31.3515L117.823 31.2116ZM117.823 30.4658L117.687 30.3322C117.652 30.3679 117.632 30.4158 117.632 30.4658H117.823ZM121.066 27.1584L121.136 26.981C121.065 26.9527 120.983 26.9699 120.93 27.0248L121.066 27.1584ZM123.271 28.0339L123.409 28.1654C123.453 28.1194 123.471 28.0548 123.457 27.9929C123.444 27.931 123.4 27.8799 123.341 27.8565L123.271 28.0339ZM120.158 31.3089L119.983 31.2317C119.946 31.3166 119.975 31.4162 120.052 31.4677C120.129 31.5192 120.232 31.5076 120.296 31.4404L120.158 31.3089ZM120.774 29.9146L120.884 29.7582C120.837 29.7255 120.778 29.7154 120.723 29.7307C120.668 29.7461 120.623 29.7852 120.599 29.8374L120.774 29.9146ZM121.423 30.3361L121.324 30.4998C121.331 30.5035 121.337 30.5069 121.344 30.5099L121.423 30.3361ZM122.33 30.6604L122.277 30.8435L122.279 30.8443L122.33 30.6604ZM123.854 30.9846L123.822 31.1728L123.828 31.1737L123.854 30.9846ZM126.286 31.2116L126.303 31.0214L126.299 31.0211L126.286 31.2116ZM129.788 31.9898L129.712 32.1646L129.717 32.1667L129.788 31.9898ZM131.766 33.5462L131.604 33.646L131.605 33.6483L131.766 33.5462ZM129.237 40.4853L129.153 40.3138L129.15 40.3153L129.237 40.4853ZM121.65 28.3906L121.558 28.5581L121.56 28.559L121.65 28.3906ZM119.445 26.3153L119.279 26.4105L119.281 26.4135L119.445 26.3153ZM119.445 20.5112L119.281 20.413L119.279 20.416L119.445 20.5112ZM121.65 18.436L121.56 18.2675L121.558 18.2684L121.65 18.436ZM128.621 18.436L128.53 18.6035L128.531 18.6044L128.621 18.436ZM130.826 20.5112L130.66 20.6063L130.662 20.6094L130.826 20.5112ZM130.826 26.3153L130.662 26.2171L130.66 26.2202L130.826 26.3153ZM128.621 28.3906L128.531 28.2222L128.53 28.223L128.621 28.3906ZM127.648 25.8614L127.773 26.0059L127.773 26.0056L127.648 25.8614ZM127.648 21.03L127.521 21.1722L127.526 21.1766L127.648 21.03ZM122.59 21.03L122.715 21.1746L122.715 21.1742L122.59 21.03ZM122.59 25.8614L122.462 26.0036L122.468 26.008L122.59 25.8614ZM127.746 20.4463L127.564 20.5052C127.591 20.5887 127.672 20.6429 127.759 20.6367L127.746 20.4463ZM126.967 18.0468V17.856C126.906 17.856 126.849 17.8852 126.813 17.9346C126.777 17.984 126.767 18.0476 126.786 18.1057L126.967 18.0468ZM133.679 18.0468H133.87C133.87 17.9414 133.785 17.856 133.679 17.856V18.0468ZM133.679 20.0248L133.693 20.2152C133.793 20.2081 133.87 20.125 133.87 20.0248H133.679ZM125.151 41.105C123.697 41.105 122.41 40.9232 121.286 40.5629L121.17 40.9264C122.338 41.3011 123.666 41.4868 125.151 41.4868V41.105ZM121.287 40.5633C120.19 40.2047 119.348 39.6604 118.749 38.9368L118.455 39.1803C119.109 39.9699 120.017 40.5497 121.169 40.9261L121.287 40.5633ZM118.749 38.9368C118.153 38.2179 117.852 37.3435 117.852 36.3024H117.47C117.47 37.423 117.796 38.386 118.455 39.1803L118.749 38.9368ZM117.852 36.3024C117.852 35.7707 117.975 35.2358 118.224 34.6962L117.877 34.5363C117.607 35.1208 117.47 35.71 117.47 36.3024H117.852ZM118.224 34.6962C118.47 34.1634 118.873 33.6434 119.442 33.1376L119.188 32.8523C118.59 33.3842 118.15 33.945 117.877 34.5363L118.224 34.6962ZM119.442 33.1376C120.005 32.6373 120.773 32.1825 121.755 31.7771L121.609 31.4243C120.602 31.8403 119.793 32.3151 119.188 32.8523L119.442 33.1376ZM121.561 31.7487L123.312 33.1754L123.554 32.8795L121.803 31.4527L121.561 31.7487ZM123.361 32.8507C122.291 33.2874 121.528 33.7793 121.108 34.3396L121.413 34.5687C121.771 34.0914 122.457 33.6321 123.505 33.2041L123.361 32.8507ZM121.103 34.3468C120.717 34.9136 120.518 35.5016 120.518 36.1078H120.9C120.9 35.59 121.069 35.0755 121.418 34.5615L121.103 34.3468ZM120.518 36.1078C120.518 36.7354 120.717 37.2788 121.118 37.7267L121.403 37.4721C121.068 37.0986 120.9 36.6476 120.9 36.1078H120.518ZM121.118 37.7267C121.515 38.1703 122.068 38.4887 122.764 38.6906L122.87 38.324C122.225 38.1368 121.741 37.85 121.403 37.4721L121.118 37.7267ZM122.758 38.689C123.451 38.9126 124.25 39.0224 125.151 39.0224V38.6407C124.28 38.6407 123.522 38.5344 122.875 38.3257L122.758 38.689ZM125.151 39.0224C126.075 39.0224 126.857 38.9018 127.491 38.6525L127.351 38.2972C126.775 38.5236 126.044 38.6407 125.151 38.6407V39.0224ZM127.491 38.6525C128.123 38.4042 128.611 38.0487 128.94 37.5792L128.627 37.3603C128.35 37.7554 127.93 38.07 127.351 38.2972L127.491 38.6525ZM128.933 37.588C129.286 37.141 129.46 36.6121 129.46 36.0106H129.079C129.079 36.5331 128.929 36.977 128.633 37.3514L128.933 37.588ZM129.46 36.0106C129.46 35.3024 129.173 34.7181 128.61 34.2721L128.373 34.5714C128.847 34.9467 129.079 35.4217 129.079 36.0106H129.46ZM128.613 34.2746C128.334 34.0444 127.94 33.8703 127.445 33.7424C126.948 33.6141 126.338 33.5291 125.617 33.4854L125.594 33.8664C126.3 33.9092 126.884 33.9918 127.349 34.112C127.816 34.2327 128.151 34.3883 128.37 34.5689L128.613 34.2746ZM125.619 33.4855C124.413 33.3994 123.382 33.2811 122.526 33.1312L122.46 33.5073C123.333 33.66 124.377 33.7795 125.592 33.8663L125.619 33.4855ZM122.531 33.1323C121.693 32.9603 120.987 32.7784 120.413 32.5869L120.292 32.9491C120.885 33.1468 121.606 33.3323 122.454 33.5062L122.531 33.1323ZM120.419 32.589C119.844 32.3763 119.36 32.1439 118.963 31.8933L118.759 32.216C119.184 32.4842 119.693 32.7274 120.286 32.947L120.419 32.589ZM118.973 31.8999C118.589 31.6228 118.249 31.3467 117.953 31.0717L117.693 31.3515C118.003 31.6386 118.355 31.9245 118.749 32.2094L118.973 31.8999ZM118.014 31.2116V30.4658H117.632V31.2116H118.014ZM117.96 30.5994L121.202 27.292L120.93 27.0248L117.687 30.3322L117.96 30.5994ZM120.995 27.3358L123.2 28.2113L123.341 27.8565L121.136 26.981L120.995 27.3358ZM123.132 27.9024L120.02 31.1774L120.296 31.4404L123.409 28.1654L123.132 27.9024ZM120.333 31.386L120.949 29.9917L120.599 29.8374L119.983 31.2317L120.333 31.386ZM120.665 30.0709C120.884 30.2247 121.104 30.3677 121.324 30.4998L121.521 30.1724C121.309 30.0451 121.096 29.9071 120.884 29.7582L120.665 30.0709ZM121.344 30.5099C121.592 30.6229 121.904 30.7339 122.277 30.8435L122.384 30.4772C122.022 30.3706 121.728 30.2655 121.502 30.1623L121.344 30.5099ZM122.279 30.8443C122.677 30.9547 123.192 31.0641 123.822 31.1727L123.887 30.7965C123.263 30.689 122.762 30.5822 122.382 30.4765L122.279 30.8443ZM123.828 31.1737C124.462 31.261 125.277 31.337 126.274 31.402L126.299 31.0211C125.307 30.9564 124.501 30.8811 123.881 30.7955L123.828 31.1737ZM126.269 31.4017C127.706 31.5304 128.851 31.7868 129.712 32.1646L129.865 31.815C128.953 31.4146 127.763 31.1522 126.303 31.0215L126.269 31.4017ZM129.717 32.1667C130.596 32.5227 131.219 33.0184 131.604 33.646L131.929 33.4465C131.492 32.7338 130.796 32.1919 129.86 31.8129L129.717 32.1667ZM131.605 33.6483C131.993 34.2604 132.192 35.0122 132.192 35.9133H132.573C132.573 34.9553 132.361 34.1291 131.928 33.4441L131.605 33.6483ZM132.192 35.9133C132.192 36.7601 131.944 37.579 131.443 38.373L131.766 38.5768C132.302 37.7279 132.573 36.8391 132.573 35.9133H132.192ZM131.443 38.373C130.947 39.1587 130.187 39.8073 129.153 40.3139L129.321 40.6567C130.405 40.1257 131.224 39.434 131.766 38.5768L131.443 38.373ZM129.15 40.3153C128.127 40.8376 126.797 41.105 125.151 41.105V41.4868C126.835 41.4868 128.229 41.2138 129.324 40.6553L129.15 40.3153ZM125.151 28.9779C123.814 28.9779 122.679 28.7232 121.739 28.2222L121.56 28.559C122.566 29.0956 123.766 29.3596 125.151 29.3596V28.9779ZM121.741 28.223C120.817 27.7192 120.108 27.0505 119.608 26.2171L119.281 26.4135C119.819 27.3095 120.579 28.0243 121.558 28.5581L121.741 28.223ZM119.61 26.2202C119.131 25.3869 118.89 24.4474 118.89 23.3971H118.508C118.508 24.5084 118.764 25.5145 119.279 26.4105L119.61 26.2202ZM118.89 23.3971C118.89 22.3691 119.131 21.4403 119.61 20.6063L119.279 20.416C118.764 21.3115 118.508 22.3066 118.508 23.3971H118.89ZM119.608 20.6094C120.108 19.776 120.817 19.1073 121.741 18.6035L121.558 18.2684C120.579 18.8022 119.819 19.517 119.281 20.413L119.608 20.6094ZM121.739 18.6044C122.679 18.1034 123.814 17.8486 125.151 17.8486V17.4669C123.766 17.4669 122.566 17.7309 121.56 18.2675L121.739 18.6044ZM125.151 17.8486C126.489 17.8486 127.613 18.1034 128.53 18.6035L128.712 18.2684C127.727 17.7309 126.537 17.4669 125.151 17.4669V17.8486ZM128.531 18.6044C129.476 19.1082 130.183 19.7759 130.66 20.6063L130.991 20.416C130.475 19.5171 129.712 18.8014 128.711 18.2675L128.531 18.6044ZM130.662 20.6094C131.162 21.4429 131.413 22.3706 131.413 23.3971H131.795C131.795 22.305 131.527 21.3089 130.99 20.413L130.662 20.6094ZM131.413 23.3971C131.413 24.4459 131.162 25.3843 130.662 26.2171L130.99 26.4135C131.528 25.5171 131.795 24.5099 131.795 23.3971H131.413ZM130.66 26.2202C130.183 27.0506 129.476 27.7184 128.531 28.2222L128.711 28.559C129.712 28.0252 130.475 27.3094 130.991 26.4105L130.66 26.2202ZM128.53 28.223C127.613 28.7231 126.489 28.9779 125.151 28.9779V29.3596C126.537 29.3596 127.727 29.0957 128.712 28.5581L128.53 28.223ZM125.151 26.8629C126.223 26.8629 127.103 26.5832 127.773 26.0059L127.524 25.7168C126.939 26.2204 126.155 26.4812 125.151 26.4812V26.8629ZM127.773 26.0056C128.473 25.399 128.812 24.53 128.812 23.4295H128.43C128.43 24.4474 128.12 25.1997 127.523 25.7172L127.773 26.0056ZM128.812 23.4295C128.812 22.3293 128.473 21.469 127.77 20.8834L127.526 21.1766C128.12 21.6718 128.43 22.4112 128.43 23.4295H128.812ZM127.776 20.8879C127.106 20.2876 126.225 19.9961 125.151 19.9961V20.3778C126.153 20.3778 126.937 20.6483 127.521 21.1721L127.776 20.8879ZM125.151 19.9961C124.058 19.9961 123.156 20.2871 122.465 20.8858L122.715 21.1742C123.321 20.6488 124.127 20.3778 125.151 20.3778V19.9961ZM122.465 20.8854C121.785 21.4717 121.459 22.3314 121.459 23.4295H121.84C121.84 22.4091 122.141 21.6691 122.715 21.1746L122.465 20.8854ZM121.459 23.4295C121.459 24.5279 121.785 25.3963 122.462 26.0035L122.717 25.7193C122.141 25.2024 121.84 24.4495 121.84 23.4295H121.459ZM122.468 26.008C123.159 26.5837 124.059 26.8629 125.151 26.8629V26.4812C124.125 26.4812 123.318 26.2199 122.712 25.7148L122.468 26.008ZM127.927 20.3875L127.149 17.988L126.786 18.1057L127.564 20.5052L127.927 20.3875ZM126.967 18.2377H133.679V17.856H126.967V18.2377ZM133.489 18.0468V20.0248H133.87V18.0468H133.489ZM133.666 19.8344L127.732 20.2559L127.759 20.6367L133.693 20.2152L133.666 19.8344ZM138.406 33.4814L138.309 33.6458L138.311 33.6471L138.406 33.4814ZM135.552 30.5307L135.719 30.4385L135.552 30.5307ZM135.52 21.7109L135.352 21.6199L135.351 21.621L135.52 21.7109ZM138.373 18.7278L138.278 18.5626L138.276 18.5633L138.373 18.7278ZM146.739 18.7278L146.638 18.8898L146.64 18.8912L146.739 18.7278ZM149.398 21.4839L149.23 21.5756L149.232 21.578L149.398 21.4839ZM150.306 26.8342V27.025C150.4 27.025 150.48 26.9563 150.494 26.8632L150.306 26.8342ZM136.914 26.8342H136.723C136.723 26.9396 136.809 27.025 136.914 27.025V26.8342ZM136.914 24.5644V24.3735C136.809 24.3735 136.723 24.459 136.723 24.5644H136.914ZM147.128 24.5644V24.7552C147.18 24.7552 147.23 24.7338 147.266 24.696C147.302 24.6582 147.321 24.6073 147.319 24.5551L147.128 24.5644ZM145.766 21.4191L145.637 21.5594L145.639 21.5611L145.766 21.4191ZM140.157 20.8354L140.069 20.6657L140.067 20.6668L140.157 20.8354ZM138.373 22.5864L138.537 22.6846L138.538 22.6826L138.373 22.5864ZM138.373 29.3958L138.206 29.4881L138.207 29.49L138.373 29.3958ZM140.157 31.2116L140.064 31.3782L140.066 31.3793L140.157 31.2116ZM145.118 31.1467L145.225 31.3048L145.226 31.304L145.118 31.1467ZM146.674 29.2336V29.0428C146.598 29.0428 146.529 29.088 146.499 29.1579L146.674 29.2336ZM149.917 29.2336L150.1 29.2881C150.117 29.2304 150.106 29.1679 150.07 29.1196C150.034 29.0712 149.977 29.0428 149.917 29.0428V29.2336ZM148.458 31.9574L148.602 32.0819L148.604 32.08L148.458 31.9574ZM145.961 33.8381L146.042 34.011L146.043 34.0102L145.961 33.8381ZM142.589 34.3281C141.039 34.3281 139.678 33.9888 138.5 33.3157L138.311 33.6471C139.554 34.3574 140.982 34.7099 142.589 34.7099V34.3281ZM138.503 33.3169C137.322 32.6213 136.395 31.6629 135.719 30.4385L135.385 30.6229C136.093 31.906 137.068 32.9147 138.309 33.6458L138.503 33.3169ZM135.719 30.4385C135.046 29.2175 134.705 27.7804 134.705 26.1208H134.324C134.324 27.8334 134.675 29.3362 135.385 30.6229L135.719 30.4385ZM134.705 26.1208C134.705 24.4602 135.035 23.0223 135.688 21.8009L135.351 21.621C134.664 22.9071 134.324 24.4091 134.324 26.1208H134.705ZM135.688 21.8019C136.363 20.5559 137.29 19.5874 138.47 18.8922L138.276 18.5633C137.035 19.2949 136.06 20.3151 135.352 21.6199L135.688 21.8019ZM138.469 18.893C139.669 18.1984 141.051 17.8486 142.621 17.8486V17.4669C140.992 17.4669 139.542 17.8304 138.278 18.5626L138.469 18.893ZM142.621 17.8486C144.192 17.8486 145.528 18.1985 146.638 18.8898L146.84 18.5658C145.659 17.8303 144.25 17.4669 142.621 17.4669V17.8486ZM146.64 18.8912C147.758 19.5659 148.62 20.4602 149.23 21.5756L149.565 21.3923C148.922 20.2163 148.011 19.2731 146.838 18.5644L146.64 18.8912ZM149.232 21.578C149.863 22.6931 150.18 23.9357 150.18 25.3102H150.562C150.562 23.8744 150.23 22.5662 149.564 21.3899L149.232 21.578ZM150.18 25.3102C150.18 25.3106 150.18 25.311 150.18 25.3114C150.18 25.3118 150.18 25.3123 150.18 25.3127C150.18 25.3131 150.18 25.3135 150.18 25.314C150.18 25.3144 150.18 25.3148 150.18 25.3152C150.18 25.3156 150.18 25.3161 150.18 25.3165C150.18 25.3169 150.18 25.3173 150.18 25.3178C150.18 25.3182 150.18 25.3186 150.18 25.319C150.18 25.3195 150.18 25.3199 150.18 25.3203C150.18 25.3207 150.18 25.3211 150.18 25.3216C150.18 25.322 150.18 25.3224 150.18 25.3228C150.18 25.3233 150.18 25.3237 150.18 25.3241C150.18 25.3245 150.18 25.325 150.18 25.3254C150.18 25.3258 150.18 25.3262 150.18 25.3267C150.18 25.3271 150.18 25.3275 150.18 25.3279C150.18 25.3284 150.18 25.3288 150.18 25.3292C150.18 25.3296 150.18 25.3301 150.18 25.3305C150.18 25.3309 150.18 25.3313 150.18 25.3318C150.18 25.3322 150.18 25.3326 150.18 25.333C150.18 25.3335 150.18 25.3339 150.18 25.3343C150.18 25.3347 150.18 25.3352 150.18 25.3356C150.18 25.336 150.18 25.3364 150.18 25.3369C150.18 25.3373 150.18 25.3377 150.18 25.3381C150.18 25.3386 150.18 25.339 150.18 25.3394C150.18 25.3398 150.18 25.3403 150.18 25.3407C150.18 25.3411 150.18 25.3415 150.18 25.342C150.18 25.3424 150.18 25.3428 150.18 25.3433C150.18 25.3437 150.18 25.3441 150.18 25.3445C150.18 25.345 150.18 25.3454 150.18 25.3458C150.18 25.3462 150.18 25.3467 150.18 25.3471C150.18 25.3475 150.18 25.3479 150.18 25.3484C150.18 25.3488 150.18 25.3492 150.18 25.3497C150.18 25.3501 150.18 25.3505 150.18 25.3509C150.18 25.3514 150.18 25.3518 150.18 25.3522C150.18 25.3526 150.18 25.3531 150.18 25.3535C150.18 25.3539 150.18 25.3544 150.18 25.3548C150.18 25.3552 150.18 25.3556 150.18 25.3561C150.18 25.3565 150.18 25.3569 150.18 25.3574C150.18 25.3578 150.18 25.3582 150.18 25.3586C150.18 25.3591 150.18 25.3595 150.18 25.3599C150.18 25.3604 150.18 25.3608 150.18 25.3612C150.18 25.3616 150.18 25.3621 150.18 25.3625C150.18 25.3629 150.18 25.3634 150.18 25.3638C150.18 25.3642 150.18 25.3646 150.18 25.3651C150.18 25.3655 150.18 25.3659 150.18 25.3664C150.18 25.3668 150.18 25.3672 150.18 25.3677C150.18 25.3681 150.18 25.3685 150.18 25.3689C150.18 25.3694 150.18 25.3698 150.18 25.3702C150.18 25.3707 150.18 25.3711 150.18 25.3715C150.18 25.372 150.18 25.3724 150.18 25.3728C150.18 25.3732 150.18 25.3737 150.18 25.3741C150.18 25.3745 150.18 25.375 150.18 25.3754C150.18 25.3758 150.18 25.3763 150.18 25.3767C150.18 25.3771 150.18 25.3775 150.18 25.378C150.18 25.3784 150.18 25.3788 150.18 25.3793C150.18 25.3797 150.18 25.3801 150.18 25.3806C150.18 25.381 150.18 25.3814 150.18 25.3819C150.18 25.3823 150.18 25.3827 150.18 25.3832C150.18 25.3836 150.18 25.384 150.18 25.3845C150.18 25.3849 150.18 25.3853 150.18 25.3857C150.18 25.3862 150.18 25.3866 150.18 25.387C150.18 25.3875 150.18 25.3879 150.18 25.3883C150.18 25.3888 150.18 25.3892 150.18 25.3896C150.18 25.3901 150.18 25.3905 150.18 25.3909C150.18 25.3914 150.18 25.3918 150.18 25.3922C150.18 25.3927 150.18 25.3931 150.18 25.3935C150.18 25.394 150.18 25.3944 150.18 25.3948C150.18 25.3953 150.18 25.3957 150.18 25.3961C150.18 25.3966 150.18 25.397 150.18 25.3974C150.18 25.3979 150.18 25.3983 150.18 25.3987C150.18 25.3992 150.18 25.3996 150.18 25.4C150.18 25.4005 150.18 25.4009 150.18 25.4013C150.18 25.4018 150.18 25.4022 150.18 25.4026C150.18 25.4031 150.18 25.4035 150.18 25.4039C150.18 25.4044 150.18 25.4048 150.18 25.4052C150.18 25.4057 150.18 25.4061 150.18 25.4065C150.18 25.407 150.18 25.4074 150.18 25.4078C150.18 25.4083 150.18 25.4087 150.18 25.4092C150.18 25.4096 150.18 25.41 150.18 25.4105C150.18 25.4109 150.18 25.4113 150.18 25.4118C150.18 25.4122 150.18 25.4126 150.18 25.4131C150.18 25.4135 150.18 25.4139 150.18 25.4144C150.18 25.4148 150.18 25.4152 150.18 25.4157C150.18 25.4161 150.18 25.4166 150.18 25.417C150.18 25.4174 150.18 25.4179 150.18 25.4183C150.18 25.4187 150.18 25.4192 150.18 25.4196C150.18 25.42 150.18 25.4205 150.18 25.4209C150.18 25.4213 150.18 25.4218 150.18 25.4222C150.18 25.4227 150.18 25.4231 150.18 25.4235C150.18 25.424 150.18 25.4244 150.18 25.4248C150.18 25.4253 150.18 25.4257 150.18 25.4262C150.18 25.4266 150.18 25.427 150.18 25.4275C150.18 25.4279 150.18 25.4283 150.18 25.4288C150.18 25.4292 150.18 25.4297 150.18 25.4301C150.18 25.4305 150.18 25.431 150.18 25.4314C150.18 25.4318 150.18 25.4323 150.18 25.4327C150.18 25.4332 150.18 25.4336 150.18 25.434C150.18 25.4345 150.18 25.4349 150.18 25.4353C150.18 25.4358 150.18 25.4362 150.18 25.4367C150.18 25.4371 150.18 25.4375 150.18 25.438C150.18 25.4384 150.18 25.4389 150.18 25.4393C150.18 25.4397 150.18 25.4402 150.18 25.4406C150.18 25.441 150.18 25.4415 150.18 25.4419C150.18 25.4424 150.18 25.4428 150.18 25.4432C150.18 25.4437 150.18 25.4441 150.18 25.4446C150.18 25.445 150.18 25.4454 150.18 25.4459C150.18 25.4463 150.18 25.4468 150.18 25.4472C150.18 25.4476 150.18 25.4481 150.18 25.4485C150.18 25.449 150.18 25.4494 150.18 25.4498C150.18 25.4503 150.18 25.4507 150.18 25.4512C150.18 25.4516 150.18 25.452 150.18 25.4525C150.18 25.4529 150.18 25.4534 150.18 25.4538C150.18 25.4542 150.18 25.4547 150.18 25.4551C150.18 25.4556 150.18 25.456 150.18 25.4564C150.18 25.4569 150.18 25.4573 150.18 25.4578C150.18 25.4582 150.18 25.4586 150.18 25.4591C150.18 25.4595 150.18 25.46 150.18 25.4604C150.18 25.4609 150.18 25.4613 150.18 25.4617C150.18 25.4622 150.18 25.4626 150.18 25.4631C150.18 25.4635 150.18 25.4639 150.18 25.4644C150.18 25.4648 150.18 25.4653 150.18 25.4657C150.18 25.4662 150.18 25.4666 150.18 25.467C150.18 25.4675 150.18 25.4679 150.18 25.4684C150.18 25.4688 150.18 25.4692 150.18 25.4697C150.18 25.4701 150.18 25.4706 150.18 25.471C150.18 25.4715 150.18 25.4719 150.18 25.4723C150.18 25.4728 150.18 25.4732 150.18 25.4737C150.18 25.4741 150.18 25.4746 150.18 25.475C150.18 25.4754 150.18 25.4759 150.18 25.4763C150.18 25.4768 150.18 25.4772 150.18 25.4777C150.18 25.4781 150.18 25.4786 150.18 25.479C150.18 25.4794 150.18 25.4799 150.18 25.4803C150.18 25.4808 150.18 25.4812 150.18 25.4817C150.18 25.4821 150.18 25.4825 150.18 25.483C150.18 25.4834 150.18 25.4839 150.18 25.4843C150.18 25.4848 150.18 25.4852 150.18 25.4857C150.18 25.4861 150.18 25.4865 150.18 25.487C150.18 25.4874 150.18 25.4879 150.18 25.4883C150.18 25.4888 150.18 25.4892 150.18 25.4897C150.18 25.4901 150.18 25.4905 150.18 25.491C150.18 25.4914 150.18 25.4919 150.18 25.4923C150.18 25.4928 150.18 25.4932 150.18 25.4937C150.18 25.4941 150.18 25.4946 150.18 25.495C150.18 25.4954 150.18 25.4959 150.18 25.4963C150.18 25.4968 150.18 25.4972 150.18 25.4977C150.18 25.4981 150.18 25.4986 150.18 25.499C150.18 25.4995 150.18 25.4999 150.18 25.5004C150.18 25.5008 150.18 25.5012 150.18 25.5017C150.18 25.5021 150.18 25.5026 150.18 25.503C150.18 25.5035 150.18 25.5039 150.18 25.5044C150.18 25.5048 150.18 25.5053 150.18 25.5057C150.18 25.5062 150.18 25.5066 150.18 25.5071C150.18 25.5075 150.18 25.5079 150.18 25.5084C150.18 25.5088 150.18 25.5093 150.18 25.5097C150.18 25.5102 150.18 25.5106 150.18 25.5111C150.18 25.5115 150.18 25.512 150.18 25.5124C150.18 25.5129 150.18 25.5133 150.18 25.5138C150.18 25.5142 150.18 25.5147 150.18 25.5151C150.18 25.5156 150.18 25.516 150.18 25.5165C150.18 25.5169 150.18 25.5174 150.18 25.5178C150.18 25.5182 150.18 25.5187 150.18 25.5191C150.18 25.5196 150.18 25.52 150.18 25.5205C150.18 25.5209 150.18 25.5214 150.18 25.5218C150.18 25.5223 150.18 25.5227 150.18 25.5232C150.18 25.5236 150.18 25.5241 150.18 25.5245C150.18 25.525 150.18 25.5254 150.18 25.5259C150.18 25.5263 150.18 25.5268 150.18 25.5272C150.18 25.5277 150.18 25.5281 150.18 25.5286C150.18 25.529 150.18 25.5295 150.18 25.5299C150.18 25.5304 150.18 25.5308 150.18 25.5313C150.18 25.5317 150.18 25.5322 150.18 25.5326C150.18 25.5331 150.18 25.5335 150.18 25.534C150.18 25.5344 150.18 25.5349 150.18 25.5353C150.18 25.5358 150.18 25.5362 150.18 25.5367C150.18 25.5371 150.18 25.5376 150.18 25.538C150.18 25.5385 150.18 25.5389 150.18 25.5394C150.18 25.5398 150.18 25.5403 150.18 25.5407C150.18 25.5412 150.18 25.5416 150.18 25.5421C150.18 25.5425 150.18 25.543 150.18 25.5435C150.18 25.5439 150.18 25.5444 150.18 25.5448C150.18 25.5453 150.18 25.5457 150.18 25.5462C150.18 25.5466 150.18 25.5471 150.18 25.5475C150.18 25.548 150.18 25.5484 150.18 25.5489C150.18 25.5493 150.18 25.5498 150.18 25.5502C150.18 25.5507 150.18 25.5511 150.18 25.5516C150.18 25.552 150.18 25.5525 150.18 25.5529C150.18 25.5534 150.18 25.5539 150.18 25.5543C150.18 25.5548 150.18 25.5552 150.18 25.5557C150.18 25.5561 150.18 25.5566 150.18 25.557C150.18 25.5575 150.18 25.5579 150.18 25.5584C150.18 25.5588 150.18 25.5593 150.18 25.5597C150.18 25.5602 150.18 25.5606 150.18 25.5611C150.18 25.5616 150.18 25.562 150.18 25.5625C150.18 25.5629 150.18 25.5634 150.18 25.5638C150.18 25.5643 150.18 25.5647 150.18 25.5652C150.18 25.5656 150.18 25.5661 150.18 25.5666C150.18 25.567 150.18 25.5675 150.18 25.5679C150.18 25.5684 150.18 25.5688 150.18 25.5693C150.18 25.5697 150.18 25.5702 150.18 25.5706C150.18 25.5711 150.18 25.5716 150.18 25.572C150.18 25.5725 150.18 25.5729 150.18 25.5734C150.18 25.5738 150.18 25.5743 150.18 25.5747C150.18 25.5752 150.18 25.5756 150.18 25.5761C150.18 25.5766 150.18 25.577 150.18 25.5775C150.18 25.5779 150.18 25.5784 150.18 25.5788C150.18 25.5793 150.18 25.5798 150.18 25.5802C150.18 25.5807 150.18 25.5811 150.18 25.5816C150.18 25.582 150.18 25.5825 150.18 25.5829C150.18 25.5834 150.18 25.5839 150.18 25.5843C150.18 25.5848 150.18 25.5852 150.18 25.5857C150.18 25.5861 150.18 25.5866 150.18 25.5871C150.18 25.5875 150.18 25.588 150.18 25.5884C150.18 25.5889 150.18 25.5893 150.18 25.5898C150.18 25.5903 150.18 25.5907 150.18 25.5912C150.18 25.5916 150.18 25.5921 150.18 25.5925C150.18 25.593 150.18 25.5935 150.18 25.5939C150.18 25.5944 150.18 25.5948 150.18 25.5953C150.18 25.5957 150.18 25.5962 150.18 25.5967C150.18 25.5971 150.18 25.5976 150.18 25.598C150.18 25.5985 150.18 25.5989 150.18 25.5994C150.18 25.5999 150.18 25.6003 150.18 25.6008C150.18 25.6012 150.18 25.6017 150.18 25.6022C150.18 25.6026 150.18 25.6031 150.18 25.6035C150.18 25.604 150.18 25.6045 150.18 25.6049C150.18 25.6054 150.18 25.6058 150.18 25.6063C150.18 25.6067 150.18 25.6072 150.18 25.6077C150.18 25.6081 150.18 25.6086 150.18 25.609C150.18 25.6095 150.18 25.61 150.18 25.6104C150.18 25.6109 150.18 25.6113 150.18 25.6118C150.18 25.6123 150.18 25.6127 150.18 25.6132C150.18 25.6136 150.18 25.6141 150.18 25.6146C150.18 25.615 150.18 25.6155 150.18 25.6159C150.18 25.6164 150.18 25.6169 150.18 25.6173C150.18 25.6178 150.18 25.6182 150.18 25.6187C150.18 25.6192 150.18 25.6196 150.18 25.6201C150.18 25.6206 150.18 25.621 150.18 25.6215C150.18 25.6219 150.18 25.6224 150.18 25.6229C150.18 25.6233 150.18 25.6238 150.18 25.6242C150.18 25.6247 150.18 25.6252 150.18 25.6256C150.18 25.6261 150.18 25.6265 150.18 25.627C150.18 25.6275 150.18 25.6279 150.18 25.6284C150.18 25.6289 150.18 25.6293 150.18 25.6298C150.18 25.6302 150.18 25.6307 150.18 25.6312C150.18 25.6316 150.18 25.6321 150.18 25.6326C150.18 25.633 150.18 25.6335 150.18 25.6339C150.18 25.6344 150.18 25.6349 150.18 25.6353C150.18 25.6358 150.18 25.6362 150.18 25.6367C150.18 25.6372 150.18 25.6376 150.18 25.6381C150.18 25.6386 150.18 25.639 150.18 25.6395C150.18 25.64 150.18 25.6404 150.18 25.6409C150.18 25.6413 150.18 25.6418 150.18 25.6423C150.18 25.6427 150.18 25.6432 150.18 25.6437C150.18 25.6441 150.18 25.6446 150.18 25.6451C150.18 25.6455 150.18 25.646 150.18 25.6464C150.18 25.6469 150.18 25.6474 150.18 25.6478C150.18 25.6483 150.18 25.6488 150.18 25.6492C150.18 25.6497 150.18 25.6502 150.18 25.6506C150.18 25.6511 150.18 25.6516 150.18 25.652C150.18 25.6525 150.18 25.6529 150.18 25.6534C150.18 25.6539 150.18 25.6543 150.18 25.6548C150.18 25.6553 150.18 25.6557 150.18 25.6562C150.18 25.6567 150.18 25.6571 150.18 25.6576C150.18 25.6581 150.18 25.6585 150.18 25.659C150.18 25.6595 150.18 25.6599 150.18 25.6604C150.18 25.6609 150.18 25.6613 150.18 25.6618C150.18 25.6622 150.18 25.6627 150.18 25.6632C150.18 25.6636 150.18 25.6641 150.18 25.6646C150.18 25.665 150.18 25.6655 150.18 25.666C150.18 25.6664 150.18 25.6669 150.18 25.6674C150.18 25.6678 150.18 25.6683 150.18 25.6688C150.18 25.6692 150.18 25.6697 150.18 25.6702C150.18 25.6706 150.18 25.6711 150.18 25.6716C150.18 25.672 150.18 25.6725 150.18 25.673C150.18 25.6734 150.18 25.6739 150.18 25.6744C150.18 25.6748 150.18 25.6753 150.18 25.6758C150.18 25.6762 150.18 25.6767 150.18 25.6772C150.18 25.6777 150.18 25.6781 150.18 25.6786C150.18 25.6791 150.18 25.6795 150.18 25.68C150.18 25.6805 150.18 25.6809 150.18 25.6814C150.18 25.6819 150.18 25.6823 150.18 25.6828C150.18 25.6833 150.18 25.6837 150.18 25.6842C150.18 25.6847 150.18 25.6851 150.18 25.6856C150.18 25.6861 150.18 25.6865 150.18 25.687C150.18 25.6875 150.18 25.688 150.18 25.6884C150.18 25.6889 150.18 25.6894 150.18 25.6898C150.18 25.6903 150.18 25.6908 150.18 25.6912C150.18 25.6917 150.18 25.6922 150.18 25.6926C150.18 25.6931 150.18 25.6936 150.18 25.6941C150.18 25.6945 150.18 25.695 150.18 25.6955C150.18 25.6959 150.18 25.6964 150.18 25.6969C150.18 25.6973 150.18 25.6978 150.18 25.6983C150.18 25.6987 150.18 25.6992 150.18 25.6997C150.18 25.7002 150.18 25.7006 150.18 25.7011C150.18 25.7016 150.18 25.702 150.18 25.7025C150.18 25.703 150.18 25.7035 150.18 25.7039C150.18 25.7044 150.18 25.7049 150.18 25.7053C150.18 25.7058 150.18 25.7063 150.18 25.7067C150.18 25.7072 150.18 25.7077 150.18 25.7082C150.18 25.7086 150.18 25.7091 150.18 25.7096C150.18 25.71 150.18 25.7105 150.18 25.711C150.18 25.7115 150.18 25.7119 150.18 25.7124C150.18 25.7129 150.18 25.7133 150.18 25.7138C150.18 25.7143 150.18 25.7148 150.18 25.7152C150.18 25.7157 150.18 25.7162 150.18 25.7167C150.18 25.7171 150.18 25.7176 150.18 25.7181C150.18 25.7185 150.18 25.719 150.18 25.7195C150.18 25.72 150.18 25.7204 150.18 25.7209C150.18 25.7214 150.18 25.7218 150.18 25.7223C150.18 25.7228 150.18 25.7233 150.18 25.7237C150.18 25.7242 150.18 25.7247 150.18 25.7252C150.18 25.7256 150.18 25.7261 150.18 25.7266C150.18 25.7271 150.18 25.7275 150.18 25.728C150.18 25.7285 150.18 25.7289 150.18 25.7294C150.18 25.7299 150.18 25.7304 150.18 25.7308C150.18 25.7313 150.18 25.7318 150.18 25.7323C150.18 25.7327 150.18 25.7332 150.18 25.7337C150.18 25.7342 150.18 25.7346 150.18 25.7351C150.18 25.7356 150.18 25.7361 150.18 25.7365C150.18 25.737 150.18 25.7375 150.18 25.738C150.18 25.7384 150.18 25.7389 150.18 25.7394C150.18 25.7399 150.18 25.7403 150.18 25.7408C150.18 25.7413 150.18 25.7418 150.18 25.7422C150.18 25.7427 150.18 25.7432 150.18 25.7437C150.18 25.7441 150.18 25.7446 150.18 25.7451C150.18 25.7456 150.18 25.746 150.18 25.7465C150.18 25.747 150.18 25.7475 150.18 25.7479C150.18 25.7484 150.18 25.7489 150.18 25.7494C150.18 25.7498 150.18 25.7503 150.18 25.7508C150.18 25.7513 150.18 25.7517 150.18 25.7522C150.18 25.7527 150.18 25.7532 150.18 25.7536C150.18 25.7541 150.18 25.7546 150.18 25.7551C150.18 25.7556 150.18 25.756 150.18 25.7565C150.18 25.757 150.18 25.7575 150.18 25.7579C150.18 25.7584 150.18 25.7589 150.18 25.7594C150.18 25.7598 150.18 25.7603 150.18 25.7608C150.18 25.7613 150.18 25.7618 150.18 25.7622C150.18 25.7627 150.18 25.7632 150.18 25.7637C150.18 25.7641 150.18 25.7646 150.18 25.7651C150.18 25.7656 150.18 25.7661 150.18 25.7665C150.18 25.767 150.18 25.7675 150.18 25.768C150.18 25.7684 150.18 25.7689 150.18 25.7694C150.18 25.7699 150.18 25.7704 150.18 25.7708C150.18 25.7713 150.18 25.7718 150.18 25.7723C150.18 25.7728 150.18 25.7732 150.18 25.7737C150.18 25.7742 150.18 25.7747 150.18 25.7751C150.18 25.7756 150.18 25.7761 150.18 25.7766C150.18 25.7771 150.18 25.7775 150.18 25.778C150.18 25.7785 150.18 25.779 150.18 25.7795C150.18 25.7799 150.18 25.7804 150.18 25.7809C150.18 25.7814 150.18 25.7819 150.18 25.7823C150.18 25.7828 150.18 25.7833 150.18 25.7838C150.18 25.7843 150.18 25.7847 150.18 25.7852C150.18 25.7857 150.18 25.7862 150.18 25.7867C150.18 25.7871 150.18 25.7876 150.18 25.7881C150.18 25.7886 150.18 25.7891 150.18 25.7895C150.18 25.79 150.18 25.7905 150.18 25.791C150.18 25.7915 150.18 25.7919 150.18 25.7924C150.18 25.7929 150.18 25.7934 150.18 25.7939C150.18 25.7943 150.18 25.7948 150.18 25.7953C150.18 25.7958 150.18 25.7963 150.18 25.7968C150.18 25.7972 150.18 25.7977 150.18 25.7982C150.18 25.7987 150.18 25.7992 150.18 25.7996C150.18 25.8001 150.18 25.8006 150.18 25.8011C150.18 25.8016 150.18 25.8021 150.18 25.8025C150.18 25.803 150.18 25.8035 150.18 25.804C150.18 25.8045 150.18 25.8049 150.18 25.8054C150.18 25.8059 150.18 25.8064 150.18 25.8069C150.18 25.8074 150.18 25.8078 150.18 25.8083C150.18 25.8088 150.18 25.8093 150.18 25.8098C150.18 25.8103 150.18 25.8107 150.18 25.8112C150.18 25.8117 150.18 25.8122 150.18 25.8127C150.18 25.8132 150.18 25.8136 150.18 25.8141C150.18 25.8146 150.18 25.8151 150.18 25.8156C150.18 25.8161 150.18 25.8165 150.18 25.817C150.18 25.8175 150.18 25.818 150.18 25.8185C150.18 25.819 150.18 25.8194 150.18 25.8199C150.18 25.8204 150.18 25.8209 150.18 25.8214C150.18 25.8219 150.18 25.8223 150.18 25.8228C150.18 25.8233 150.18 25.8238 150.18 25.8243C150.18 25.8248 150.18 25.8253 150.18 25.8257C150.18 25.8262 150.18 25.8267 150.18 25.8272C150.18 25.8277 150.18 25.8282 150.18 25.8286C150.18 25.8291 150.18 25.8296 150.18 25.8301C150.18 25.8306 150.18 25.8311 150.18 25.8316C150.18 25.832 150.18 25.8325 150.18 25.833C150.18 25.8335 150.18 25.834 150.18 25.8345C150.18 25.835 150.18 25.8354 150.18 25.8359C150.18 25.8364 150.18 25.8369 150.18 25.8374C150.18 25.8379 150.18 25.8384 150.18 25.8388C150.18 25.8393 150.18 25.8398 150.18 25.8403C150.18 25.8408 150.18 25.8413 150.18 25.8418C150.18 25.8423 150.18 25.8427 150.18 25.8432C150.18 25.8437 150.18 25.8442 150.18 25.8447C150.18 25.8452 150.18 25.8457 150.18 25.8461C150.18 25.8466 150.18 25.8471 150.18 25.8476C150.18 25.8481 150.18 25.8486 150.18 25.8491C150.18 25.8496 150.18 25.85 150.18 25.8505C150.18 25.851 150.18 25.8515 150.18 25.852C150.18 25.8525 150.18 25.853 150.18 25.8535C150.18 25.8539 150.18 25.8544 150.18 25.8549C150.18 25.8554 150.18 25.8559 150.18 25.8564C150.18 25.8569 150.18 25.8574 150.18 25.8578C150.18 25.8583 150.18 25.8588 150.18 25.8593C150.18 25.8598 150.18 25.8603 150.18 25.8608C150.18 25.8613 150.18 25.8618 150.18 25.8622C150.18 25.8627 150.18 25.8632 150.18 25.8637C150.18 25.8642 150.18 25.8647 150.18 25.8652C150.18 25.8657 150.18 25.8662 150.18 25.8666C150.18 25.8671 150.18 25.8676 150.18 25.8681C150.18 25.8686 150.18 25.8691 150.18 25.8696C150.18 25.8701 150.18 25.8706 150.18 25.8711C150.18 25.8715 150.18 25.872 150.18 25.8725C150.18 25.873 150.18 25.8735 150.18 25.874C150.18 25.8745 150.18 25.875 150.18 25.8755C150.18 25.876 150.18 25.8764 150.18 25.8769C150.18 25.8774 150.18 25.8779 150.18 25.8784C150.18 25.8789 150.18 25.8794 150.18 25.8799C150.18 25.8804 150.18 25.8809 150.18 25.8814C150.18 25.8818 150.18 25.8823 150.18 25.8828C150.18 25.8833 150.18 25.8838 150.18 25.8843C150.18 25.8848 150.18 25.8853 150.18 25.8858C150.18 25.8863 150.18 25.8868 150.18 25.8872C150.18 25.8877 150.18 25.8882 150.18 25.8887C150.18 25.8892 150.18 25.8897 150.18 25.8902C150.18 25.8907 150.18 25.8912 150.18 25.8917C150.18 25.8922 150.18 25.8927 150.18 25.8932C150.18 25.8936 150.18 25.8941 150.18 25.8946C150.18 25.8951 150.18 25.8956 150.18 25.8961C150.18 25.8966 150.18 25.8971 150.18 25.8976C150.18 25.8981 150.18 25.8986 150.18 25.8991C150.18 25.8996 150.18 25.9 150.18 25.9005C150.18 25.901 150.18 25.9015 150.18 25.902C150.18 25.9025 150.18 25.903 150.18 25.9035C150.18 25.904 150.18 25.9045 150.18 25.905C150.18 25.9055 150.18 25.906 150.18 25.9065C150.18 25.907 150.18 25.9075 150.18 25.9079C150.18 25.9084 150.18 25.9089 150.18 25.9094C150.18 25.9099 150.18 25.9104 150.18 25.9109C150.18 25.9114 150.18 25.9119 150.18 25.9124C150.18 25.9129 150.18 25.9134 150.18 25.9139C150.18 25.9144 150.18 25.9149 150.18 25.9154C150.18 25.9159 150.18 25.9164 150.18 25.9168C150.18 25.9173 150.18 25.9178 150.18 25.9183C150.18 25.9188 150.18 25.9193 150.18 25.9198C150.18 25.9203 150.18 25.9208 150.18 25.9213C150.18 25.9218 150.18 25.9223 150.18 25.9228C150.18 25.9233 150.18 25.9238 150.18 25.9243C150.18 25.9248 150.18 25.9253 150.18 25.9258C150.18 25.9263 150.18 25.9268 150.18 25.9273C150.18 25.9277 150.18 25.9282 150.18 25.9287C150.18 25.9292 150.18 25.9297 150.18 25.9302C150.18 25.9307 150.18 25.9312 150.18 25.9317C150.18 25.9322 150.18 25.9327 150.18 25.9332C150.18 25.9337 150.18 25.9342 150.18 25.9347C150.18 25.9352 150.18 25.9357 150.18 25.9362C150.18 25.9367 150.18 25.9372 150.18 25.9377C150.18 25.9382 150.18 25.9387 150.18 25.9392C150.18 25.9397 150.18 25.9402 150.18 25.9407C150.18 25.9412 150.18 25.9417 150.18 25.9422C150.18 25.9427 150.18 25.9432 150.18 25.9437C150.18 25.9442 150.18 25.9446 150.18 25.9451C150.18 25.9456 150.18 25.9461 150.18 25.9466C150.18 25.9471 150.18 25.9476 150.18 25.9481C150.18 25.9486 150.18 25.9491 150.18 25.9496C150.18 25.9501 150.18 25.9506 150.18 25.9511C150.18 25.9516 150.18 25.9521 150.18 25.9526C150.18 25.9531 150.18 25.9536 150.18 25.9541C150.18 25.9546 150.18 25.9551 150.18 25.9556C150.18 25.9561 150.18 25.9566 150.18 25.9571C150.18 25.9576 150.18 25.9581 150.18 25.9586C150.18 25.9591 150.18 25.9596 150.18 25.9601C150.18 25.9606 150.18 25.9611 150.18 25.9616C150.18 25.9621 150.18 25.9626 150.18 25.9631C150.18 25.9636 150.18 25.9641 150.18 25.9646C150.18 25.9651 150.18 25.9656 150.18 25.9661C150.18 25.9666 150.18 25.9671 150.18 25.9676C150.18 25.9681 150.18 25.9686 150.18 25.9691C150.18 25.9696 150.18 25.9701 150.18 25.9706C150.18 25.9711 150.18 25.9716 150.18 25.9721C150.18 25.9726 150.18 25.9731 150.18 25.9736C150.18 25.9741 150.18 25.9746 150.18 25.9751C150.18 25.9756 150.18 25.9761 150.18 25.9766C150.18 25.9771 150.18 25.9776 150.18 25.9781C150.18 25.9786 150.18 25.9791 150.18 25.9796C150.18 25.9801 150.18 25.9806 150.18 25.9811C150.18 25.9817 150.18 25.9822 150.18 25.9827C150.18 25.9832 150.18 25.9837 150.18 25.9842C150.18 25.9847 150.18 25.9852 150.18 25.9857C150.18 25.9862 150.18 25.9867 150.18 25.9872C150.18 25.9877 150.18 25.9882 150.18 25.9887C150.18 25.9892 150.18 25.9897 150.18 25.9902C150.18 25.9907 150.18 25.9912 150.18 25.9917C150.18 25.9922 150.18 25.9927 150.18 25.9932C150.18 25.9937 150.18 25.9942 150.18 25.9947C150.18 25.9952 150.18 25.9957 150.18 25.9962C150.18 25.9967 150.18 25.9972 150.18 25.9977C150.18 25.9983 150.18 25.9988 150.18 25.9993C150.18 25.9998 150.18 26.0003 150.18 26.0008C150.18 26.0013 150.18 26.0018 150.18 26.0023C150.18 26.0028 150.18 26.0033 150.18 26.0038C150.18 26.0043 150.18 26.0048 150.18 26.0053C150.18 26.0058 150.18 26.0063 150.18 26.0068C150.18 26.0073 150.18 26.0078 150.18 26.0083C150.18 26.0088 150.18 26.0093 150.18 26.0099C150.18 26.0104 150.18 26.0109 150.18 26.0114C150.18 26.0119 150.18 26.0124 150.18 26.0129C150.18 26.0134 150.18 26.0139 150.18 26.0144C150.18 26.0149 150.18 26.0154 150.18 26.0159C150.18 26.0164 150.18 26.0169 150.18 26.0174C150.18 26.0179 150.18 26.0185 150.18 26.019C150.18 26.0195 150.18 26.02 150.18 26.0205C150.18 26.021 150.18 26.0215 150.18 26.022C150.18 26.0225 150.18 26.023 150.18 26.0235H150.562C150.562 26.023 150.562 26.0225 150.562 26.022C150.562 26.0215 150.562 26.021 150.562 26.0205C150.562 26.02 150.562 26.0195 150.562 26.019C150.562 26.0185 150.562 26.0179 150.562 26.0174C150.562 26.0169 150.562 26.0164 150.562 26.0159C150.562 26.0154 150.562 26.0149 150.562 26.0144C150.562 26.0139 150.562 26.0134 150.562 26.0129C150.562 26.0124 150.562 26.0119 150.562 26.0114C150.562 26.0109 150.562 26.0104 150.562 26.0099C150.562 26.0093 150.562 26.0088 150.562 26.0083C150.562 26.0078 150.562 26.0073 150.562 26.0068C150.562 26.0063 150.562 26.0058 150.562 26.0053C150.562 26.0048 150.562 26.0043 150.562 26.0038C150.562 26.0033 150.562 26.0028 150.562 26.0023C150.562 26.0018 150.562 26.0013 150.562 26.0008C150.562 26.0003 150.562 25.9998 150.562 25.9993C150.562 25.9988 150.562 25.9983 150.562 25.9977C150.562 25.9972 150.562 25.9967 150.562 25.9962C150.562 25.9957 150.562 25.9952 150.562 25.9947C150.562 25.9942 150.562 25.9937 150.562 25.9932C150.562 25.9927 150.562 25.9922 150.562 25.9917C150.562 25.9912 150.562 25.9907 150.562 25.9902C150.562 25.9897 150.562 25.9892 150.562 25.9887C150.562 25.9882 150.562 25.9877 150.562 25.9872C150.562 25.9867 150.562 25.9862 150.562 25.9857C150.562 25.9852 150.562 25.9847 150.562 25.9842C150.562 25.9837 150.562 25.9832 150.562 25.9827C150.562 25.9822 150.562 25.9817 150.562 25.9811C150.562 25.9806 150.562 25.9801 150.562 25.9796C150.562 25.9791 150.562 25.9786 150.562 25.9781C150.562 25.9776 150.562 25.9771 150.562 25.9766C150.562 25.9761 150.562 25.9756 150.562 25.9751C150.562 25.9746 150.562 25.9741 150.562 25.9736C150.562 25.9731 150.562 25.9726 150.562 25.9721C150.562 25.9716 150.562 25.9711 150.562 25.9706C150.562 25.9701 150.562 25.9696 150.562 25.9691C150.562 25.9686 150.562 25.9681 150.562 25.9676C150.562 25.9671 150.562 25.9666 150.562 25.9661C150.562 25.9656 150.562 25.9651 150.562 25.9646C150.562 25.9641 150.562 25.9636 150.562 25.9631C150.562 25.9626 150.562 25.9621 150.562 25.9616C150.562 25.9611 150.562 25.9606 150.562 25.9601C150.562 25.9596 150.562 25.9591 150.562 25.9586C150.562 25.9581 150.562 25.9576 150.562 25.9571C150.562 25.9566 150.562 25.9561 150.562 25.9556C150.562 25.9551 150.562 25.9546 150.562 25.9541C150.562 25.9536 150.562 25.9531 150.562 25.9526C150.562 25.9521 150.562 25.9516 150.562 25.9511C150.562 25.9506 150.562 25.9501 150.562 25.9496C150.562 25.9491 150.562 25.9486 150.562 25.9481C150.562 25.9476 150.562 25.9471 150.562 25.9466C150.562 25.9461 150.562 25.9456 150.562 25.9451C150.562 25.9446 150.562 25.9442 150.562 25.9437C150.562 25.9432 150.562 25.9427 150.562 25.9422C150.562 25.9417 150.562 25.9412 150.562 25.9407C150.562 25.9402 150.562 25.9397 150.562 25.9392C150.562 25.9387 150.562 25.9382 150.562 25.9377C150.562 25.9372 150.562 25.9367 150.562 25.9362C150.562 25.9357 150.562 25.9352 150.562 25.9347C150.562 25.9342 150.562 25.9337 150.562 25.9332C150.562 25.9327 150.562 25.9322 150.562 25.9317C150.562 25.9312 150.562 25.9307 150.562 25.9302C150.562 25.9297 150.562 25.9292 150.562 25.9287C150.562 25.9282 150.562 25.9277 150.562 25.9273C150.562 25.9268 150.562 25.9263 150.562 25.9258C150.562 25.9253 150.562 25.9248 150.562 25.9243C150.562 25.9238 150.562 25.9233 150.562 25.9228C150.562 25.9223 150.562 25.9218 150.562 25.9213C150.562 25.9208 150.562 25.9203 150.562 25.9198C150.562 25.9193 150.562 25.9188 150.562 25.9183C150.562 25.9178 150.562 25.9173 150.562 25.9168C150.562 25.9164 150.562 25.9159 150.562 25.9154C150.562 25.9149 150.562 25.9144 150.562 25.9139C150.562 25.9134 150.562 25.9129 150.562 25.9124C150.562 25.9119 150.562 25.9114 150.562 25.9109C150.562 25.9104 150.562 25.9099 150.562 25.9094C150.562 25.9089 150.562 25.9084 150.562 25.9079C150.562 25.9075 150.562 25.907 150.562 25.9065C150.562 25.906 150.562 25.9055 150.562 25.905C150.562 25.9045 150.562 25.904 150.562 25.9035C150.562 25.903 150.562 25.9025 150.562 25.902C150.562 25.9015 150.562 25.901 150.562 25.9005C150.562 25.9 150.562 25.8996 150.562 25.8991C150.562 25.8986 150.562 25.8981 150.562 25.8976C150.562 25.8971 150.562 25.8966 150.562 25.8961C150.562 25.8956 150.562 25.8951 150.562 25.8946C150.562 25.8941 150.562 25.8936 150.562 25.8932C150.562 25.8927 150.562 25.8922 150.562 25.8917C150.562 25.8912 150.562 25.8907 150.562 25.8902C150.562 25.8897 150.562 25.8892 150.562 25.8887C150.562 25.8882 150.562 25.8877 150.562 25.8872C150.562 25.8868 150.562 25.8863 150.562 25.8858C150.562 25.8853 150.562 25.8848 150.562 25.8843C150.562 25.8838 150.562 25.8833 150.562 25.8828C150.562 25.8823 150.562 25.8818 150.562 25.8814C150.562 25.8809 150.562 25.8804 150.562 25.8799C150.562 25.8794 150.562 25.8789 150.562 25.8784C150.562 25.8779 150.562 25.8774 150.562 25.8769C150.562 25.8764 150.562 25.876 150.562 25.8755C150.562 25.875 150.562 25.8745 150.562 25.874C150.562 25.8735 150.562 25.873 150.562 25.8725C150.562 25.872 150.562 25.8715 150.562 25.8711C150.562 25.8706 150.562 25.8701 150.562 25.8696C150.562 25.8691 150.562 25.8686 150.562 25.8681C150.562 25.8676 150.562 25.8671 150.562 25.8666C150.562 25.8662 150.562 25.8657 150.562 25.8652C150.562 25.8647 150.562 25.8642 150.562 25.8637C150.562 25.8632 150.562 25.8627 150.562 25.8622C150.562 25.8618 150.562 25.8613 150.562 25.8608C150.562 25.8603 150.562 25.8598 150.562 25.8593C150.562 25.8588 150.562 25.8583 150.562 25.8578C150.562 25.8574 150.562 25.8569 150.562 25.8564C150.562 25.8559 150.562 25.8554 150.562 25.8549C150.562 25.8544 150.562 25.8539 150.562 25.8535C150.562 25.853 150.562 25.8525 150.562 25.852C150.562 25.8515 150.562 25.851 150.562 25.8505C150.562 25.85 150.562 25.8496 150.562 25.8491C150.562 25.8486 150.562 25.8481 150.562 25.8476C150.562 25.8471 150.562 25.8466 150.562 25.8461C150.562 25.8457 150.562 25.8452 150.562 25.8447C150.562 25.8442 150.562 25.8437 150.562 25.8432C150.562 25.8427 150.562 25.8423 150.562 25.8418C150.562 25.8413 150.562 25.8408 150.562 25.8403C150.562 25.8398 150.562 25.8393 150.562 25.8388C150.562 25.8384 150.562 25.8379 150.562 25.8374C150.562 25.8369 150.562 25.8364 150.562 25.8359C150.562 25.8354 150.562 25.835 150.562 25.8345C150.562 25.834 150.562 25.8335 150.562 25.833C150.562 25.8325 150.562 25.832 150.562 25.8316C150.562 25.8311 150.562 25.8306 150.562 25.8301C150.562 25.8296 150.562 25.8291 150.562 25.8286C150.562 25.8282 150.562 25.8277 150.562 25.8272C150.562 25.8267 150.562 25.8262 150.562 25.8257C150.562 25.8253 150.562 25.8248 150.562 25.8243C150.562 25.8238 150.562 25.8233 150.562 25.8228C150.562 25.8223 150.562 25.8219 150.562 25.8214C150.562 25.8209 150.562 25.8204 150.562 25.8199C150.562 25.8194 150.562 25.819 150.562 25.8185C150.562 25.818 150.562 25.8175 150.562 25.817C150.562 25.8165 150.562 25.8161 150.562 25.8156C150.562 25.8151 150.562 25.8146 150.562 25.8141C150.562 25.8136 150.562 25.8132 150.562 25.8127C150.562 25.8122 150.562 25.8117 150.562 25.8112C150.562 25.8107 150.562 25.8103 150.562 25.8098C150.562 25.8093 150.562 25.8088 150.562 25.8083C150.562 25.8078 150.562 25.8074 150.562 25.8069C150.562 25.8064 150.562 25.8059 150.562 25.8054C150.562 25.8049 150.562 25.8045 150.562 25.804C150.562 25.8035 150.562 25.803 150.562 25.8025C150.562 25.8021 150.562 25.8016 150.562 25.8011C150.562 25.8006 150.562 25.8001 150.562 25.7996C150.562 25.7992 150.562 25.7987 150.562 25.7982C150.562 25.7977 150.562 25.7972 150.562 25.7968C150.562 25.7963 150.562 25.7958 150.562 25.7953C150.562 25.7948 150.562 25.7943 150.562 25.7939C150.562 25.7934 150.562 25.7929 150.562 25.7924C150.562 25.7919 150.562 25.7915 150.562 25.791C150.562 25.7905 150.562 25.79 150.562 25.7895C150.562 25.7891 150.562 25.7886 150.562 25.7881C150.562 25.7876 150.562 25.7871 150.562 25.7867C150.562 25.7862 150.562 25.7857 150.562 25.7852C150.562 25.7847 150.562 25.7843 150.562 25.7838C150.562 25.7833 150.562 25.7828 150.562 25.7823C150.562 25.7819 150.562 25.7814 150.562 25.7809C150.562 25.7804 150.562 25.7799 150.562 25.7795C150.562 25.779 150.562 25.7785 150.562 25.778C150.562 25.7775 150.562 25.7771 150.562 25.7766C150.562 25.7761 150.562 25.7756 150.562 25.7751C150.562 25.7747 150.562 25.7742 150.562 25.7737C150.562 25.7732 150.562 25.7728 150.562 25.7723C150.562 25.7718 150.562 25.7713 150.562 25.7708C150.562 25.7704 150.562 25.7699 150.562 25.7694C150.562 25.7689 150.562 25.7684 150.562 25.768C150.562 25.7675 150.562 25.767 150.562 25.7665C150.562 25.7661 150.562 25.7656 150.562 25.7651C150.562 25.7646 150.562 25.7641 150.562 25.7637C150.562 25.7632 150.562 25.7627 150.562 25.7622C150.562 25.7618 150.562 25.7613 150.562 25.7608C150.562 25.7603 150.562 25.7598 150.562 25.7594C150.562 25.7589 150.562 25.7584 150.562 25.7579C150.562 25.7575 150.562 25.757 150.562 25.7565C150.562 25.756 150.562 25.7556 150.562 25.7551C150.562 25.7546 150.562 25.7541 150.562 25.7536C150.562 25.7532 150.562 25.7527 150.562 25.7522C150.562 25.7517 150.562 25.7513 150.562 25.7508C150.562 25.7503 150.562 25.7498 150.562 25.7494C150.562 25.7489 150.562 25.7484 150.562 25.7479C150.562 25.7475 150.562 25.747 150.562 25.7465C150.562 25.746 150.562 25.7456 150.562 25.7451C150.562 25.7446 150.562 25.7441 150.562 25.7437C150.562 25.7432 150.562 25.7427 150.562 25.7422C150.562 25.7418 150.562 25.7413 150.562 25.7408C150.562 25.7403 150.562 25.7399 150.562 25.7394C150.562 25.7389 150.562 25.7384 150.562 25.738C150.562 25.7375 150.562 25.737 150.562 25.7365C150.562 25.7361 150.562 25.7356 150.562 25.7351C150.562 25.7346 150.562 25.7342 150.562 25.7337C150.562 25.7332 150.562 25.7327 150.562 25.7323C150.562 25.7318 150.562 25.7313 150.562 25.7308C150.562 25.7304 150.562 25.7299 150.562 25.7294C150.562 25.7289 150.562 25.7285 150.562 25.728C150.562 25.7275 150.562 25.7271 150.562 25.7266C150.562 25.7261 150.562 25.7256 150.562 25.7252C150.562 25.7247 150.562 25.7242 150.562 25.7237C150.562 25.7233 150.562 25.7228 150.562 25.7223C150.562 25.7218 150.562 25.7214 150.562 25.7209C150.562 25.7204 150.562 25.72 150.562 25.7195C150.562 25.719 150.562 25.7185 150.562 25.7181C150.562 25.7176 150.562 25.7171 150.562 25.7167C150.562 25.7162 150.562 25.7157 150.562 25.7152C150.562 25.7148 150.562 25.7143 150.562 25.7138C150.562 25.7133 150.562 25.7129 150.562 25.7124C150.562 25.7119 150.562 25.7115 150.562 25.711C150.562 25.7105 150.562 25.71 150.562 25.7096C150.562 25.7091 150.562 25.7086 150.562 25.7082C150.562 25.7077 150.562 25.7072 150.562 25.7067C150.562 25.7063 150.562 25.7058 150.562 25.7053C150.562 25.7049 150.562 25.7044 150.562 25.7039C150.562 25.7035 150.562 25.703 150.562 25.7025C150.562 25.702 150.562 25.7016 150.562 25.7011C150.562 25.7006 150.562 25.7002 150.562 25.6997C150.562 25.6992 150.562 25.6987 150.562 25.6983C150.562 25.6978 150.562 25.6973 150.562 25.6969C150.562 25.6964 150.562 25.6959 150.562 25.6955C150.562 25.695 150.562 25.6945 150.562 25.6941C150.562 25.6936 150.562 25.6931 150.562 25.6926C150.562 25.6922 150.562 25.6917 150.562 25.6912C150.562 25.6908 150.562 25.6903 150.562 25.6898C150.562 25.6894 150.562 25.6889 150.562 25.6884C150.562 25.688 150.562 25.6875 150.562 25.687C150.562 25.6865 150.562 25.6861 150.562 25.6856C150.562 25.6851 150.562 25.6847 150.562 25.6842C150.562 25.6837 150.562 25.6833 150.562 25.6828C150.562 25.6823 150.562 25.6819 150.562 25.6814C150.562 25.6809 150.562 25.6805 150.562 25.68C150.562 25.6795 150.562 25.6791 150.562 25.6786C150.562 25.6781 150.562 25.6777 150.562 25.6772C150.562 25.6767 150.562 25.6762 150.562 25.6758C150.562 25.6753 150.562 25.6748 150.562 25.6744C150.562 25.6739 150.562 25.6734 150.562 25.673C150.562 25.6725 150.562 25.672 150.562 25.6716C150.562 25.6711 150.562 25.6706 150.562 25.6702C150.562 25.6697 150.562 25.6692 150.562 25.6688C150.562 25.6683 150.562 25.6678 150.562 25.6674C150.562 25.6669 150.562 25.6664 150.562 25.666C150.562 25.6655 150.562 25.665 150.562 25.6646C150.562 25.6641 150.562 25.6636 150.562 25.6632C150.562 25.6627 150.562 25.6622 150.562 25.6618C150.562 25.6613 150.562 25.6609 150.562 25.6604C150.562 25.6599 150.562 25.6595 150.562 25.659C150.562 25.6585 150.562 25.6581 150.562 25.6576C150.562 25.6571 150.562 25.6567 150.562 25.6562C150.562 25.6557 150.562 25.6553 150.562 25.6548C150.562 25.6543 150.562 25.6539 150.562 25.6534C150.562 25.6529 150.562 25.6525 150.562 25.652C150.562 25.6516 150.562 25.6511 150.562 25.6506C150.562 25.6502 150.562 25.6497 150.562 25.6492C150.562 25.6488 150.562 25.6483 150.562 25.6478C150.562 25.6474 150.562 25.6469 150.562 25.6464C150.562 25.646 150.562 25.6455 150.562 25.6451C150.562 25.6446 150.562 25.6441 150.562 25.6437C150.562 25.6432 150.562 25.6427 150.562 25.6423C150.562 25.6418 150.562 25.6413 150.562 25.6409C150.562 25.6404 150.562 25.64 150.562 25.6395C150.562 25.639 150.562 25.6386 150.562 25.6381C150.562 25.6376 150.562 25.6372 150.562 25.6367C150.562 25.6362 150.562 25.6358 150.562 25.6353C150.562 25.6349 150.562 25.6344 150.562 25.6339C150.562 25.6335 150.562 25.633 150.562 25.6326C150.562 25.6321 150.562 25.6316 150.562 25.6312C150.562 25.6307 150.562 25.6302 150.562 25.6298C150.562 25.6293 150.562 25.6289 150.562 25.6284C150.562 25.6279 150.562 25.6275 150.562 25.627C150.562 25.6265 150.562 25.6261 150.562 25.6256C150.562 25.6252 150.562 25.6247 150.562 25.6242C150.562 25.6238 150.562 25.6233 150.562 25.6229C150.562 25.6224 150.562 25.6219 150.562 25.6215C150.562 25.621 150.562 25.6206 150.562 25.6201C150.562 25.6196 150.562 25.6192 150.562 25.6187C150.562 25.6182 150.562 25.6178 150.562 25.6173C150.562 25.6169 150.562 25.6164 150.562 25.6159C150.562 25.6155 150.562 25.615 150.562 25.6146C150.562 25.6141 150.562 25.6136 150.562 25.6132C150.562 25.6127 150.562 25.6123 150.562 25.6118C150.562 25.6113 150.562 25.6109 150.562 25.6104C150.562 25.61 150.562 25.6095 150.562 25.609C150.562 25.6086 150.562 25.6081 150.562 25.6077C150.562 25.6072 150.562 25.6067 150.562 25.6063C150.562 25.6058 150.562 25.6054 150.562 25.6049C150.562 25.6045 150.562 25.604 150.562 25.6035C150.562 25.6031 150.562 25.6026 150.562 25.6022C150.562 25.6017 150.562 25.6012 150.562 25.6008C150.562 25.6003 150.562 25.5999 150.562 25.5994C150.562 25.5989 150.562 25.5985 150.562 25.598C150.562 25.5976 150.562 25.5971 150.562 25.5967C150.562 25.5962 150.562 25.5957 150.562 25.5953C150.562 25.5948 150.562 25.5944 150.562 25.5939C150.562 25.5935 150.562 25.593 150.562 25.5925C150.562 25.5921 150.562 25.5916 150.562 25.5912C150.562 25.5907 150.562 25.5903 150.562 25.5898C150.562 25.5893 150.562 25.5889 150.562 25.5884C150.562 25.588 150.562 25.5875 150.562 25.5871C150.562 25.5866 150.562 25.5861 150.562 25.5857C150.562 25.5852 150.562 25.5848 150.562 25.5843C150.562 25.5839 150.562 25.5834 150.562 25.5829C150.562 25.5825 150.562 25.582 150.562 25.5816C150.562 25.5811 150.562 25.5807 150.562 25.5802C150.562 25.5798 150.562 25.5793 150.562 25.5788C150.562 25.5784 150.562 25.5779 150.562 25.5775C150.562 25.577 150.562 25.5766 150.562 25.5761C150.562 25.5756 150.562 25.5752 150.562 25.5747C150.562 25.5743 150.562 25.5738 150.562 25.5734C150.562 25.5729 150.562 25.5725 150.562 25.572C150.562 25.5716 150.562 25.5711 150.562 25.5706C150.562 25.5702 150.562 25.5697 150.562 25.5693C150.562 25.5688 150.562 25.5684 150.562 25.5679C150.562 25.5675 150.562 25.567 150.562 25.5666C150.562 25.5661 150.562 25.5656 150.562 25.5652C150.562 25.5647 150.562 25.5643 150.562 25.5638C150.562 25.5634 150.562 25.5629 150.562 25.5625C150.562 25.562 150.562 25.5616 150.562 25.5611C150.562 25.5606 150.562 25.5602 150.562 25.5597C150.562 25.5593 150.562 25.5588 150.562 25.5584C150.562 25.5579 150.562 25.5575 150.562 25.557C150.562 25.5566 150.562 25.5561 150.562 25.5557C150.562 25.5552 150.562 25.5548 150.562 25.5543C150.562 25.5539 150.562 25.5534 150.562 25.5529C150.562 25.5525 150.562 25.552 150.562 25.5516C150.562 25.5511 150.562 25.5507 150.562 25.5502C150.562 25.5498 150.562 25.5493 150.562 25.5489C150.562 25.5484 150.562 25.548 150.562 25.5475C150.562 25.5471 150.562 25.5466 150.562 25.5462C150.562 25.5457 150.562 25.5453 150.562 25.5448C150.562 25.5444 150.562 25.5439 150.562 25.5435C150.562 25.543 150.562 25.5425 150.562 25.5421C150.562 25.5416 150.562 25.5412 150.562 25.5407C150.562 25.5403 150.562 25.5398 150.562 25.5394C150.562 25.5389 150.562 25.5385 150.562 25.538C150.562 25.5376 150.562 25.5371 150.562 25.5367C150.562 25.5362 150.562 25.5358 150.562 25.5353C150.562 25.5349 150.562 25.5344 150.562 25.534C150.562 25.5335 150.562 25.5331 150.562 25.5326C150.562 25.5322 150.562 25.5317 150.562 25.5313C150.562 25.5308 150.562 25.5304 150.562 25.5299C150.562 25.5295 150.562 25.529 150.562 25.5286C150.562 25.5281 150.562 25.5277 150.562 25.5272C150.562 25.5268 150.562 25.5263 150.562 25.5259C150.562 25.5254 150.562 25.525 150.562 25.5245C150.562 25.5241 150.562 25.5236 150.562 25.5232C150.562 25.5227 150.562 25.5223 150.562 25.5218C150.562 25.5214 150.562 25.5209 150.562 25.5205C150.562 25.52 150.562 25.5196 150.562 25.5191C150.562 25.5187 150.562 25.5182 150.562 25.5178C150.562 25.5174 150.562 25.5169 150.562 25.5165C150.562 25.516 150.562 25.5156 150.562 25.5151C150.562 25.5147 150.562 25.5142 150.562 25.5138C150.562 25.5133 150.562 25.5129 150.562 25.5124C150.562 25.512 150.562 25.5115 150.562 25.5111C150.562 25.5106 150.562 25.5102 150.562 25.5097C150.562 25.5093 150.562 25.5088 150.562 25.5084C150.562 25.5079 150.562 25.5075 150.562 25.5071C150.562 25.5066 150.562 25.5062 150.562 25.5057C150.562 25.5053 150.562 25.5048 150.562 25.5044C150.562 25.5039 150.562 25.5035 150.562 25.503C150.562 25.5026 150.562 25.5021 150.562 25.5017C150.562 25.5012 150.562 25.5008 150.562 25.5004C150.562 25.4999 150.562 25.4995 150.562 25.499C150.562 25.4986 150.562 25.4981 150.562 25.4977C150.562 25.4972 150.562 25.4968 150.562 25.4963C150.562 25.4959 150.562 25.4954 150.562 25.495C150.562 25.4946 150.562 25.4941 150.562 25.4937C150.562 25.4932 150.562 25.4928 150.562 25.4923C150.562 25.4919 150.562 25.4914 150.562 25.491C150.562 25.4905 150.562 25.4901 150.562 25.4897C150.562 25.4892 150.562 25.4888 150.562 25.4883C150.562 25.4879 150.562 25.4874 150.562 25.487C150.562 25.4865 150.562 25.4861 150.562 25.4857C150.562 25.4852 150.562 25.4848 150.562 25.4843C150.562 25.4839 150.562 25.4834 150.562 25.483C150.562 25.4825 150.562 25.4821 150.562 25.4817C150.562 25.4812 150.562 25.4808 150.562 25.4803C150.562 25.4799 150.562 25.4794 150.562 25.479C150.562 25.4786 150.562 25.4781 150.562 25.4777C150.562 25.4772 150.562 25.4768 150.562 25.4763C150.562 25.4759 150.562 25.4754 150.562 25.475C150.562 25.4746 150.562 25.4741 150.562 25.4737C150.562 25.4732 150.562 25.4728 150.562 25.4723C150.562 25.4719 150.562 25.4715 150.562 25.471C150.562 25.4706 150.562 25.4701 150.562 25.4697C150.562 25.4692 150.562 25.4688 150.562 25.4684C150.562 25.4679 150.562 25.4675 150.562 25.467C150.562 25.4666 150.562 25.4662 150.562 25.4657C150.562 25.4653 150.562 25.4648 150.562 25.4644C150.562 25.4639 150.562 25.4635 150.562 25.4631C150.562 25.4626 150.562 25.4622 150.562 25.4617C150.562 25.4613 150.562 25.4609 150.562 25.4604C150.562 25.46 150.562 25.4595 150.562 25.4591C150.562 25.4586 150.562 25.4582 150.562 25.4578C150.562 25.4573 150.562 25.4569 150.562 25.4564C150.562 25.456 150.562 25.4556 150.562 25.4551C150.562 25.4547 150.562 25.4542 150.562 25.4538C150.562 25.4534 150.562 25.4529 150.562 25.4525C150.562 25.452 150.562 25.4516 150.562 25.4512C150.562 25.4507 150.562 25.4503 150.562 25.4498C150.562 25.4494 150.562 25.449 150.562 25.4485C150.562 25.4481 150.562 25.4476 150.562 25.4472C150.562 25.4468 150.562 25.4463 150.562 25.4459C150.562 25.4454 150.562 25.445 150.562 25.4446C150.562 25.4441 150.562 25.4437 150.562 25.4432C150.562 25.4428 150.562 25.4424 150.562 25.4419C150.562 25.4415 150.562 25.441 150.562 25.4406C150.562 25.4402 150.562 25.4397 150.562 25.4393C150.562 25.4389 150.562 25.4384 150.562 25.438C150.562 25.4375 150.562 25.4371 150.562 25.4367C150.562 25.4362 150.562 25.4358 150.562 25.4353C150.562 25.4349 150.562 25.4345 150.562 25.434C150.562 25.4336 150.562 25.4332 150.562 25.4327C150.562 25.4323 150.562 25.4318 150.562 25.4314C150.562 25.431 150.562 25.4305 150.562 25.4301C150.562 25.4297 150.562 25.4292 150.562 25.4288C150.562 25.4283 150.562 25.4279 150.562 25.4275C150.562 25.427 150.562 25.4266 150.562 25.4262C150.562 25.4257 150.562 25.4253 150.562 25.4248C150.562 25.4244 150.562 25.424 150.562 25.4235C150.562 25.4231 150.562 25.4227 150.562 25.4222C150.562 25.4218 150.562 25.4213 150.562 25.4209C150.562 25.4205 150.562 25.42 150.562 25.4196C150.562 25.4192 150.562 25.4187 150.562 25.4183C150.562 25.4179 150.562 25.4174 150.562 25.417C150.562 25.4166 150.562 25.4161 150.562 25.4157C150.562 25.4152 150.562 25.4148 150.562 25.4144C150.562 25.4139 150.562 25.4135 150.562 25.4131C150.562 25.4126 150.562 25.4122 150.562 25.4118C150.562 25.4113 150.562 25.4109 150.562 25.4105C150.562 25.41 150.562 25.4096 150.562 25.4092C150.562 25.4087 150.562 25.4083 150.562 25.4078C150.562 25.4074 150.562 25.407 150.562 25.4065C150.562 25.4061 150.562 25.4057 150.562 25.4052C150.562 25.4048 150.562 25.4044 150.562 25.4039C150.562 25.4035 150.562 25.4031 150.562 25.4026C150.562 25.4022 150.562 25.4018 150.562 25.4013C150.562 25.4009 150.562 25.4005 150.562 25.4C150.562 25.3996 150.562 25.3992 150.562 25.3987C150.562 25.3983 150.562 25.3979 150.562 25.3974C150.562 25.397 150.562 25.3966 150.562 25.3961C150.562 25.3957 150.562 25.3953 150.562 25.3948C150.562 25.3944 150.562 25.394 150.562 25.3935C150.562 25.3931 150.562 25.3927 150.562 25.3922C150.562 25.3918 150.562 25.3914 150.562 25.3909C150.562 25.3905 150.562 25.3901 150.562 25.3896C150.562 25.3892 150.562 25.3888 150.562 25.3883C150.562 25.3879 150.562 25.3875 150.562 25.387C150.562 25.3866 150.562 25.3862 150.562 25.3857C150.562 25.3853 150.562 25.3849 150.562 25.3845C150.562 25.384 150.562 25.3836 150.562 25.3832C150.562 25.3827 150.562 25.3823 150.562 25.3819C150.562 25.3814 150.562 25.381 150.562 25.3806C150.562 25.3801 150.562 25.3797 150.562 25.3793C150.562 25.3788 150.562 25.3784 150.562 25.378C150.562 25.3775 150.562 25.3771 150.562 25.3767C150.562 25.3763 150.562 25.3758 150.562 25.3754C150.562 25.375 150.562 25.3745 150.562 25.3741C150.562 25.3737 150.562 25.3732 150.562 25.3728C150.562 25.3724 150.562 25.372 150.562 25.3715C150.562 25.3711 150.562 25.3707 150.562 25.3702C150.562 25.3698 150.562 25.3694 150.562 25.3689C150.562 25.3685 150.562 25.3681 150.562 25.3677C150.562 25.3672 150.562 25.3668 150.562 25.3664C150.562 25.3659 150.562 25.3655 150.562 25.3651C150.562 25.3646 150.562 25.3642 150.562 25.3638C150.562 25.3634 150.562 25.3629 150.562 25.3625C150.562 25.3621 150.562 25.3616 150.562 25.3612C150.562 25.3608 150.562 25.3604 150.562 25.3599C150.562 25.3595 150.562 25.3591 150.562 25.3586C150.562 25.3582 150.562 25.3578 150.562 25.3574C150.562 25.3569 150.562 25.3565 150.562 25.3561C150.562 25.3556 150.562 25.3552 150.562 25.3548C150.562 25.3544 150.562 25.3539 150.562 25.3535C150.562 25.3531 150.562 25.3526 150.562 25.3522C150.562 25.3518 150.562 25.3514 150.562 25.3509C150.562 25.3505 150.562 25.3501 150.562 25.3497C150.562 25.3492 150.562 25.3488 150.562 25.3484C150.562 25.3479 150.562 25.3475 150.562 25.3471C150.562 25.3467 150.562 25.3462 150.562 25.3458C150.562 25.3454 150.562 25.345 150.562 25.3445C150.562 25.3441 150.562 25.3437 150.562 25.3433C150.562 25.3428 150.562 25.3424 150.562 25.342C150.562 25.3415 150.562 25.3411 150.562 25.3407C150.562 25.3403 150.562 25.3398 150.562 25.3394C150.562 25.339 150.562 25.3386 150.562 25.3381C150.562 25.3377 150.562 25.3373 150.562 25.3369C150.562 25.3364 150.562 25.336 150.562 25.3356C150.562 25.3352 150.562 25.3347 150.562 25.3343C150.562 25.3339 150.562 25.3335 150.562 25.333C150.562 25.3326 150.562 25.3322 150.562 25.3318C150.562 25.3313 150.562 25.3309 150.562 25.3305C150.562 25.3301 150.562 25.3296 150.562 25.3292C150.562 25.3288 150.562 25.3284 150.562 25.3279C150.562 25.3275 150.562 25.3271 150.562 25.3267C150.562 25.3262 150.562 25.3258 150.562 25.3254C150.562 25.325 150.562 25.3245 150.562 25.3241C150.562 25.3237 150.562 25.3233 150.562 25.3228C150.562 25.3224 150.562 25.322 150.562 25.3216C150.562 25.3211 150.562 25.3207 150.562 25.3203C150.562 25.3199 150.562 25.3195 150.562 25.319C150.562 25.3186 150.562 25.3182 150.562 25.3178C150.562 25.3173 150.562 25.3169 150.562 25.3165C150.562 25.3161 150.562 25.3156 150.562 25.3152C150.562 25.3148 150.562 25.3144 150.562 25.314C150.562 25.3135 150.562 25.3131 150.562 25.3127C150.562 25.3123 150.562 25.3118 150.562 25.3114C150.562 25.311 150.562 25.3106 150.562 25.3102H150.18ZM150.18 26.0235C150.18 26.2723 150.159 26.5328 150.117 26.8051L150.494 26.8632C150.539 26.5735 150.562 26.2935 150.562 26.0235H150.18ZM150.306 26.6433H136.914V27.025H150.306V26.6433ZM137.105 26.8342V24.5644H136.723V26.8342H137.105ZM136.914 24.7552H147.128V24.3735H136.914V24.7552ZM147.319 24.5551C147.252 23.1741 146.782 22.0739 145.894 21.277L145.639 21.5611C146.437 22.2775 146.875 23.2742 146.937 24.5736L147.319 24.5551ZM145.896 21.2789C145.013 20.4644 143.906 20.0609 142.589 20.0609V20.4426C143.822 20.4426 144.833 20.8174 145.637 21.5593L145.896 21.2789ZM142.589 20.0609C141.694 20.0609 140.853 20.2625 140.069 20.6657L140.244 21.0052C140.973 20.6302 141.754 20.4426 142.589 20.4426V20.0609ZM140.067 20.6668C139.298 21.0739 138.679 21.684 138.208 22.4902L138.538 22.6826C138.976 21.9325 139.545 21.3752 140.246 21.0041L140.067 20.6668ZM138.21 22.4882C137.733 23.2826 137.501 24.2812 137.501 25.4723H137.883C137.883 24.3287 138.106 23.4034 138.537 22.6846L138.21 22.4882ZM137.501 25.4723V26.3802H137.883V25.4723H137.501ZM137.501 26.3802C137.501 27.593 137.733 28.6318 138.206 29.4881L138.54 29.3034C138.106 28.5168 137.883 27.5453 137.883 26.3802H137.501ZM138.207 29.49C138.677 30.3172 139.295 30.9489 140.064 31.3782L140.25 31.045C139.548 30.6528 138.978 30.0739 138.539 29.3016L138.207 29.49ZM140.066 31.3793C140.85 31.8049 141.681 32.0185 142.556 32.0185V31.6368C141.746 31.6368 140.977 31.4397 140.248 31.0438L140.066 31.3793ZM142.556 32.0185C143.621 32.0185 144.515 31.7854 145.225 31.3048L145.011 30.9887C144.38 31.416 143.566 31.6368 142.556 31.6368V32.0185ZM145.226 31.304C145.948 30.8073 146.49 30.1408 146.849 29.3094L146.499 29.1579C146.167 29.9261 145.671 30.535 145.01 30.9895L145.226 31.304ZM146.674 29.4245H149.917V29.0428H146.674V29.4245ZM149.734 29.1791C149.438 30.1706 148.964 31.0553 148.311 31.8348L148.604 32.08C149.291 31.2598 149.79 30.3287 150.1 29.2881L149.734 29.1791ZM148.313 31.8328C147.661 32.5896 146.851 33.2008 145.878 33.6659L146.043 34.0102C147.06 33.5241 147.914 32.8816 148.602 32.0819L148.313 31.8328ZM145.88 33.6651C144.937 34.1052 143.841 34.3281 142.589 34.3281V34.7099C143.887 34.7099 145.039 34.4788 146.042 34.011L145.88 33.6651Z" fill="#8C8CA6" mask="url(#path-1-outside-1_1_4904)"/>
<path d="M14.4434 33.0562V34.939C14.4434 36.7756 16.8776 37.9582 18.9286 37.125L33.7366 31.0955C34.8635 30.6385 34.9649 29.3753 33.9056 28.8198L24.9916 24.0625L6.65631 31.5255C4.6391 32.3408 2.25 31.1851 2.25 29.3843V4.47759C2.25 3.02619 4.28975 2.1661 5.79985 2.98139L13.5081 7.1564C14.3082 7.5954 14.7928 8.31214 14.7928 9.09159V23.4539" stroke="#8C8CA6" stroke-width="3.80552" stroke-miterlimit="10" stroke-linecap="round" stroke-linejoin="round"/>
</svg>
