<svg width="21" height="20" viewBox="0 0 21 20" fill="none" xmlns="http://www.w3.org/2000/svg">
<path d="M3.32158 17.181L3.32038 17.1798C3.19008 17.0495 3.19008 16.8383 3.32038 16.708L10.9604 9.06795L11.4454 9.18593L11.5394 9.43243L3.79107 17.1798L3.79105 17.1798C3.72563 17.2452 3.64079 17.2778 3.55571 17.2778C3.46909 17.2778 3.38546 17.2453 3.32158 17.181ZM11.9372 8.27639L11.7882 8.24015L12.2082 7.82022C12.3384 7.68993 12.5496 7.68993 12.6799 7.82022C12.8102 7.95051 12.8102 8.16169 12.68 8.29198C12.68 8.29199 12.6799 8.292 12.6799 8.29201L12.3143 8.65763L12.2863 8.58418L12.1927 8.33853L11.9372 8.27639ZM12.7045 9.6816L13.387 8.99914L13.387 8.99911C13.9079 8.4783 13.9079 7.63393 13.387 7.11312C12.8662 6.5923 12.0219 6.5923 11.501 7.11312L10.6507 7.96346L9.34722 7.64639L9.34619 7.64614C9.22327 7.61652 9.12841 7.52014 9.10067 7.39685C9.07313 7.26948 9.1194 7.14118 9.21648 7.06326L9.21718 7.06269L11.2927 5.39047L11.4976 5.22545L11.4776 4.96318L11.2754 2.3054L11.2753 2.30486C11.2656 2.1786 11.3283 2.05835 11.4374 1.99408L11.4382 1.99362C11.5464 1.92958 11.6846 1.93282 11.7894 2.00151L11.7901 2.00197L14.0223 3.45975L14.2424 3.60349L14.4856 3.50365L16.9512 2.49143L16.9527 2.49079C17.0678 2.4431 17.2029 2.4652 17.2981 2.54921C17.3943 2.63418 17.4328 2.765 17.4 2.88511L17.3997 2.88615L16.7042 5.45838L16.6356 5.71204L16.8056 5.9124L18.53 7.94462L18.5496 7.96766C18.6154 8.06243 18.6283 8.18489 18.5822 8.29199C18.5323 8.40748 18.4201 8.48549 18.2934 8.49172L18.2929 8.49174L15.6307 8.62507L15.3682 8.63822L15.2302 8.86195L13.8317 11.1291C13.8316 11.1292 13.8315 11.1293 13.8315 11.1294C13.7699 11.2287 13.6625 11.2878 13.5468 11.2878C13.5356 11.2878 13.5238 11.2873 13.5134 11.2864C13.3884 11.2746 13.2807 11.1931 13.2351 11.0741C13.2351 11.074 13.235 11.0739 13.235 11.0738L12.7045 9.6816ZM5.07809 5.07716L5.15722 5.3143L5.39441 5.39328L6.20821 5.66426L5.3933 5.93561L5.15611 6.01459L5.07698 6.25174L4.80571 7.06467L4.53445 6.25174L4.45532 6.01459L4.21812 5.93561L3.40377 5.66445L4.21812 5.39328L4.45532 5.3143L4.53445 5.07716L4.80627 4.26256L5.07809 5.07716ZM4.88561 7.30411L4.88556 7.30396L4.88561 7.30411ZM17.1314 14.1237L17.2104 14.3608L17.4476 14.4399L18.8509 14.9077C18.8755 14.9159 18.8902 14.9385 18.8902 14.96C18.8902 14.9831 18.8751 15.0047 18.852 15.0123L17.4487 15.4801L17.2115 15.5592L17.1325 15.7963L16.6654 17.1976C16.6654 17.1977 16.6653 17.1979 16.6653 17.198C16.6566 17.223 16.6338 17.2378 16.6113 17.2378C16.587 17.2378 16.5651 17.2216 16.5578 17.1997L16.0901 15.7963L16.011 15.5592L15.7738 15.4801L14.3705 15.0123C14.3475 15.0047 14.3324 14.9831 14.3324 14.96C14.3324 14.9369 14.3475 14.9154 14.3705 14.9077L15.7738 14.4399L16.011 14.3608L16.0901 14.1237L16.5536 12.7332C16.5637 12.7284 16.5834 12.7222 16.6107 12.7222C16.6381 12.7222 16.6578 12.7284 16.6679 12.7332L17.1314 14.1237ZM8.33349 1.94445C8.33349 2.12854 8.18425 2.27778 8.00016 2.27778C7.81606 2.27778 7.66682 2.12854 7.66682 1.94445C7.66682 1.76035 7.81606 1.61111 8.00016 1.61111C8.18425 1.61111 8.33349 1.76035 8.33349 1.94445Z" fill="#7D35F2"/>
<path d="M3.32158 17.181L3.32038 17.1798C3.19008 17.0495 3.19008 16.8383 3.32038 16.708L10.9604 9.06795L11.4454 9.18593L11.5394 9.43243L3.79107 17.1798L3.79105 17.1798C3.72563 17.2452 3.64079 17.2778 3.55571 17.2778C3.46909 17.2778 3.38546 17.2453 3.32158 17.181ZM11.9372 8.27639L11.7882 8.24015L12.2082 7.82022C12.3384 7.68993 12.5496 7.68993 12.6799 7.82022C12.8102 7.95051 12.8102 8.16169 12.68 8.29198C12.68 8.29199 12.6799 8.292 12.6799 8.29201L12.3143 8.65763L12.2863 8.58418L12.1927 8.33853L11.9372 8.27639ZM12.7045 9.6816L13.387 8.99914L13.387 8.99911C13.9079 8.4783 13.9079 7.63393 13.387 7.11312C12.8662 6.5923 12.0219 6.5923 11.501 7.11312L10.6507 7.96346L9.34722 7.64639L9.34619 7.64614C9.22327 7.61652 9.12841 7.52014 9.10067 7.39685C9.07313 7.26948 9.1194 7.14118 9.21648 7.06326L9.21718 7.06269L11.2927 5.39047L11.4976 5.22545L11.4776 4.96318L11.2754 2.3054L11.2753 2.30486C11.2656 2.1786 11.3283 2.05835 11.4374 1.99408L11.4382 1.99362C11.5464 1.92958 11.6846 1.93282 11.7894 2.00151L11.7901 2.00197L14.0223 3.45975L14.2424 3.60349L14.4856 3.50365L16.9512 2.49143L16.9527 2.49079C17.0678 2.4431 17.2029 2.4652 17.2981 2.54921C17.3943 2.63418 17.4328 2.765 17.4 2.88511L17.3997 2.88615L16.7042 5.45838L16.6356 5.71204L16.8056 5.9124L18.53 7.94462L18.5496 7.96766C18.6154 8.06243 18.6283 8.18489 18.5822 8.29199C18.5323 8.40748 18.4201 8.48549 18.2934 8.49172L18.2929 8.49174L15.6307 8.62507L15.3682 8.63822L15.2302 8.86195L13.8317 11.1291C13.8316 11.1292 13.8315 11.1293 13.8315 11.1294C13.7699 11.2287 13.6625 11.2878 13.5468 11.2878C13.5356 11.2878 13.5238 11.2873 13.5134 11.2864C13.3884 11.2746 13.2807 11.1931 13.2351 11.0741C13.2351 11.074 13.235 11.0739 13.235 11.0738L12.7045 9.6816ZM5.07809 5.07716L5.15722 5.3143L5.39441 5.39328L6.20821 5.66426L5.3933 5.93561L5.15611 6.01459L5.07698 6.25174L4.80571 7.06467L4.53445 6.25174L4.45532 6.01459L4.21812 5.93561L3.40377 5.66445L4.21812 5.39328L4.45532 5.3143L4.53445 5.07716L4.80627 4.26256L5.07809 5.07716ZM4.88561 7.30411L4.88556 7.30396L4.88561 7.30411ZM17.1314 14.1237L17.2104 14.3608L17.4476 14.4399L18.8509 14.9077C18.8755 14.9159 18.8902 14.9385 18.8902 14.96C18.8902 14.9831 18.8751 15.0047 18.852 15.0123L17.4487 15.4801L17.2115 15.5592L17.1325 15.7963L16.6654 17.1976C16.6654 17.1977 16.6653 17.1979 16.6653 17.198C16.6566 17.223 16.6338 17.2378 16.6113 17.2378C16.587 17.2378 16.5651 17.2216 16.5578 17.1997L16.0901 15.7963L16.011 15.5592L15.7738 15.4801L14.3705 15.0123C14.3475 15.0047 14.3324 14.9831 14.3324 14.96C14.3324 14.9369 14.3475 14.9154 14.3705 14.9077L15.7738 14.4399L16.011 14.3608L16.0901 14.1237L16.5536 12.7332C16.5637 12.7284 16.5834 12.7222 16.6107 12.7222C16.6381 12.7222 16.6578 12.7284 16.6679 12.7332L17.1314 14.1237ZM8.33349 1.94445C8.33349 2.12854 8.18425 2.27778 8.00016 2.27778C7.81606 2.27778 7.66682 2.12854 7.66682 1.94445C7.66682 1.76035 7.81606 1.61111 8.00016 1.61111C8.18425 1.61111 8.33349 1.76035 8.33349 1.94445Z" fill="url(#paint0_linear_73_780)" fill-opacity="0.56"/>
<path d="M3.32158 17.181L3.32038 17.1798C3.19008 17.0495 3.19008 16.8383 3.32038 16.708L10.9604 9.06795L11.4454 9.18593L11.5394 9.43243L3.79107 17.1798L3.79105 17.1798C3.72563 17.2452 3.64079 17.2778 3.55571 17.2778C3.46909 17.2778 3.38546 17.2453 3.32158 17.181ZM11.9372 8.27639L11.7882 8.24015L12.2082 7.82022C12.3384 7.68993 12.5496 7.68993 12.6799 7.82022C12.8102 7.95051 12.8102 8.16169 12.68 8.29198C12.68 8.29199 12.6799 8.292 12.6799 8.29201L12.3143 8.65763L12.2863 8.58418L12.1927 8.33853L11.9372 8.27639ZM12.7045 9.6816L13.387 8.99914L13.387 8.99911C13.9079 8.4783 13.9079 7.63393 13.387 7.11312C12.8662 6.5923 12.0219 6.5923 11.501 7.11312L10.6507 7.96346L9.34722 7.64639L9.34619 7.64614C9.22327 7.61652 9.12841 7.52014 9.10067 7.39685C9.07313 7.26948 9.1194 7.14118 9.21648 7.06326L9.21718 7.06269L11.2927 5.39047L11.4976 5.22545L11.4776 4.96318L11.2754 2.3054L11.2753 2.30486C11.2656 2.1786 11.3283 2.05835 11.4374 1.99408L11.4382 1.99362C11.5464 1.92958 11.6846 1.93282 11.7894 2.00151L11.7901 2.00197L14.0223 3.45975L14.2424 3.60349L14.4856 3.50365L16.9512 2.49143L16.9527 2.49079C17.0678 2.4431 17.2029 2.4652 17.2981 2.54921C17.3943 2.63418 17.4328 2.765 17.4 2.88511L17.3997 2.88615L16.7042 5.45838L16.6356 5.71204L16.8056 5.9124L18.53 7.94462L18.5496 7.96766C18.6154 8.06243 18.6283 8.18489 18.5822 8.29199C18.5323 8.40748 18.4201 8.48549 18.2934 8.49172L18.2929 8.49174L15.6307 8.62507L15.3682 8.63822L15.2302 8.86195L13.8317 11.1291C13.8316 11.1292 13.8315 11.1293 13.8315 11.1294C13.7699 11.2287 13.6625 11.2878 13.5468 11.2878C13.5356 11.2878 13.5238 11.2873 13.5134 11.2864C13.3884 11.2746 13.2807 11.1931 13.2351 11.0741C13.2351 11.074 13.235 11.0739 13.235 11.0738L12.7045 9.6816ZM5.07809 5.07716L5.15722 5.3143L5.39441 5.39328L6.20821 5.66426L5.3933 5.93561L5.15611 6.01459L5.07698 6.25174L4.80571 7.06467L4.53445 6.25174L4.45532 6.01459L4.21812 5.93561L3.40377 5.66445L4.21812 5.39328L4.45532 5.3143L4.53445 5.07716L4.80627 4.26256L5.07809 5.07716ZM4.88561 7.30411L4.88556 7.30396L4.88561 7.30411ZM17.1314 14.1237L17.2104 14.3608L17.4476 14.4399L18.8509 14.9077C18.8755 14.9159 18.8902 14.9385 18.8902 14.96C18.8902 14.9831 18.8751 15.0047 18.852 15.0123L17.4487 15.4801L17.2115 15.5592L17.1325 15.7963L16.6654 17.1976C16.6654 17.1977 16.6653 17.1979 16.6653 17.198C16.6566 17.223 16.6338 17.2378 16.6113 17.2378C16.587 17.2378 16.5651 17.2216 16.5578 17.1997L16.0901 15.7963L16.011 15.5592L15.7738 15.4801L14.3705 15.0123C14.3475 15.0047 14.3324 14.9831 14.3324 14.96C14.3324 14.9369 14.3475 14.9154 14.3705 14.9077L15.7738 14.4399L16.011 14.3608L16.0901 14.1237L16.5536 12.7332C16.5637 12.7284 16.5834 12.7222 16.6107 12.7222C16.6381 12.7222 16.6578 12.7284 16.6679 12.7332L17.1314 14.1237ZM8.33349 1.94445C8.33349 2.12854 8.18425 2.27778 8.00016 2.27778C7.81606 2.27778 7.66682 2.12854 7.66682 1.94445C7.66682 1.76035 7.81606 1.61111 8.00016 1.61111C8.18425 1.61111 8.33349 1.76035 8.33349 1.94445Z" stroke="#7D35F2"/>
<path d="M3.32158 17.181L3.32038 17.1798C3.19008 17.0495 3.19008 16.8383 3.32038 16.708L10.9604 9.06795L11.4454 9.18593L11.5394 9.43243L3.79107 17.1798L3.79105 17.1798C3.72563 17.2452 3.64079 17.2778 3.55571 17.2778C3.46909 17.2778 3.38546 17.2453 3.32158 17.181ZM11.9372 8.27639L11.7882 8.24015L12.2082 7.82022C12.3384 7.68993 12.5496 7.68993 12.6799 7.82022C12.8102 7.95051 12.8102 8.16169 12.68 8.29198C12.68 8.29199 12.6799 8.292 12.6799 8.29201L12.3143 8.65763L12.2863 8.58418L12.1927 8.33853L11.9372 8.27639ZM12.7045 9.6816L13.387 8.99914L13.387 8.99911C13.9079 8.4783 13.9079 7.63393 13.387 7.11312C12.8662 6.5923 12.0219 6.5923 11.501 7.11312L10.6507 7.96346L9.34722 7.64639L9.34619 7.64614C9.22327 7.61652 9.12841 7.52014 9.10067 7.39685C9.07313 7.26948 9.1194 7.14118 9.21648 7.06326L9.21718 7.06269L11.2927 5.39047L11.4976 5.22545L11.4776 4.96318L11.2754 2.3054L11.2753 2.30486C11.2656 2.1786 11.3283 2.05835 11.4374 1.99408L11.4382 1.99362C11.5464 1.92958 11.6846 1.93282 11.7894 2.00151L11.7901 2.00197L14.0223 3.45975L14.2424 3.60349L14.4856 3.50365L16.9512 2.49143L16.9527 2.49079C17.0678 2.4431 17.2029 2.4652 17.2981 2.54921C17.3943 2.63418 17.4328 2.765 17.4 2.88511L17.3997 2.88615L16.7042 5.45838L16.6356 5.71204L16.8056 5.9124L18.53 7.94462L18.5496 7.96766C18.6154 8.06243 18.6283 8.18489 18.5822 8.29199C18.5323 8.40748 18.4201 8.48549 18.2934 8.49172L18.2929 8.49174L15.6307 8.62507L15.3682 8.63822L15.2302 8.86195L13.8317 11.1291C13.8316 11.1292 13.8315 11.1293 13.8315 11.1294C13.7699 11.2287 13.6625 11.2878 13.5468 11.2878C13.5356 11.2878 13.5238 11.2873 13.5134 11.2864C13.3884 11.2746 13.2807 11.1931 13.2351 11.0741C13.2351 11.074 13.235 11.0739 13.235 11.0738L12.7045 9.6816ZM5.07809 5.07716L5.15722 5.3143L5.39441 5.39328L6.20821 5.66426L5.3933 5.93561L5.15611 6.01459L5.07698 6.25174L4.80571 7.06467L4.53445 6.25174L4.45532 6.01459L4.21812 5.93561L3.40377 5.66445L4.21812 5.39328L4.45532 5.3143L4.53445 5.07716L4.80627 4.26256L5.07809 5.07716ZM4.88561 7.30411L4.88556 7.30396L4.88561 7.30411ZM17.1314 14.1237L17.2104 14.3608L17.4476 14.4399L18.8509 14.9077C18.8755 14.9159 18.8902 14.9385 18.8902 14.96C18.8902 14.9831 18.8751 15.0047 18.852 15.0123L17.4487 15.4801L17.2115 15.5592L17.1325 15.7963L16.6654 17.1976C16.6654 17.1977 16.6653 17.1979 16.6653 17.198C16.6566 17.223 16.6338 17.2378 16.6113 17.2378C16.587 17.2378 16.5651 17.2216 16.5578 17.1997L16.0901 15.7963L16.011 15.5592L15.7738 15.4801L14.3705 15.0123C14.3475 15.0047 14.3324 14.9831 14.3324 14.96C14.3324 14.9369 14.3475 14.9154 14.3705 14.9077L15.7738 14.4399L16.011 14.3608L16.0901 14.1237L16.5536 12.7332C16.5637 12.7284 16.5834 12.7222 16.6107 12.7222C16.6381 12.7222 16.6578 12.7284 16.6679 12.7332L17.1314 14.1237ZM8.33349 1.94445C8.33349 2.12854 8.18425 2.27778 8.00016 2.27778C7.81606 2.27778 7.66682 2.12854 7.66682 1.94445C7.66682 1.76035 7.81606 1.61111 8.00016 1.61111C8.18425 1.61111 8.33349 1.76035 8.33349 1.94445Z" stroke="url(#paint1_linear_73_780)" stroke-opacity="0.56"/>
<defs>
<linearGradient id="paint0_linear_73_780" x1="11.0564" y1="1.11111" x2="11.0564" y2="13.8291" gradientUnits="userSpaceOnUse">
<stop stop-color="white"/>
<stop offset="1" stop-color="white" stop-opacity="0"/>
</linearGradient>
<linearGradient id="paint1_linear_73_780" x1="11.0564" y1="1.11111" x2="11.0564" y2="13.8291" gradientUnits="userSpaceOnUse">
<stop stop-color="white"/>
<stop offset="1" stop-color="white" stop-opacity="0"/>
</linearGradient>
</defs>
</svg>
