<svg width="200" height="164" viewBox="0 0 200 164" fill="none" xmlns="http://www.w3.org/2000/svg">
<path opacity="0.6" d="M68.1948 149V138.92H69.1398L73.1018 147.397L77.0428 138.92H78.0018V148.993H77.0218V141.216L73.4308 149H72.7658L69.1818 141.216V149H68.1948ZM82.1293 149.21C81.56 149.21 81.0817 149.107 80.6943 148.902C80.3117 148.697 80.0247 148.424 79.8333 148.083C79.642 147.742 79.5463 147.371 79.5463 146.97C79.5463 146.559 79.628 146.209 79.7913 145.92C79.9593 145.626 80.1857 145.386 80.4703 145.199C80.7597 145.012 81.0933 144.87 81.4713 144.772C81.854 144.679 82.2763 144.597 82.7383 144.527C83.205 144.452 83.66 144.389 84.1033 144.338C84.5513 144.282 84.9433 144.228 85.2793 144.177L84.9153 144.401C84.9293 143.654 84.7847 143.101 84.4813 142.742C84.178 142.383 83.6507 142.203 82.8993 142.203C82.3813 142.203 81.9427 142.32 81.5833 142.553C81.2287 142.786 80.979 143.155 80.8343 143.659L79.8333 143.365C80.006 142.688 80.3537 142.163 80.8763 141.79C81.399 141.417 82.078 141.23 82.9133 141.23C83.604 141.23 84.1897 141.361 84.6703 141.622C85.1557 141.879 85.4987 142.252 85.6993 142.742C85.7927 142.961 85.8533 143.206 85.8813 143.477C85.9093 143.748 85.9233 144.023 85.9233 144.303V149H85.0063V147.103L85.2723 147.215C85.0157 147.864 84.6167 148.358 84.0753 148.699C83.534 149.04 82.8853 149.21 82.1293 149.21ZM82.2483 148.321C82.729 148.321 83.149 148.235 83.5083 148.062C83.8677 147.889 84.157 147.654 84.3763 147.355C84.5957 147.052 84.738 146.711 84.8033 146.333C84.8593 146.09 84.8897 145.824 84.8943 145.535C84.899 145.241 84.9013 145.022 84.9013 144.877L85.2933 145.08C84.9433 145.127 84.563 145.173 84.1523 145.22C83.7463 145.267 83.345 145.32 82.9483 145.381C82.5563 145.442 82.2017 145.514 81.8843 145.598C81.6697 145.659 81.462 145.745 81.2613 145.857C81.0607 145.964 80.895 146.109 80.7643 146.291C80.6383 146.473 80.5753 146.699 80.5753 146.97C80.5753 147.189 80.629 147.402 80.7363 147.607C80.8483 147.812 81.0257 147.983 81.2683 148.118C81.5157 148.253 81.8423 148.321 82.2483 148.321ZM87.8856 140.005V138.85H88.9146V140.005H87.8856ZM87.8856 149V141.44H88.9146V149H87.8856ZM91.1532 149V138.71H92.1822V149H91.1532ZM97.4168 149.21C96.6561 149.21 96.0121 149.04 95.4848 148.699C94.9574 148.358 94.5561 147.889 94.2808 147.292C94.0101 146.69 93.8701 145.999 93.8608 145.22C93.8701 144.427 94.0148 143.731 94.2948 143.134C94.5748 142.532 94.9784 142.065 95.5058 141.734C96.0331 141.398 96.6724 141.23 97.4238 141.23C98.1891 141.23 98.8541 141.417 99.4188 141.79C99.9881 142.163 100.378 142.674 100.588 143.323L99.5798 143.645C99.4024 143.192 99.1201 142.842 98.7328 142.595C98.3501 142.343 97.9114 142.217 97.4168 142.217C96.8614 142.217 96.4018 142.345 96.0378 142.602C95.6738 142.854 95.4031 143.206 95.2258 143.659C95.0484 144.112 94.9574 144.632 94.9528 145.22C94.9621 146.125 95.1721 146.853 95.5828 147.404C95.9934 147.95 96.6048 148.223 97.4168 148.223C97.9301 148.223 98.3664 148.106 98.7258 147.873C99.0898 147.635 99.3651 147.29 99.5518 146.837L100.588 147.145C100.308 147.817 99.8971 148.33 99.3558 148.685C98.8144 149.035 98.1681 149.21 97.4168 149.21ZM107.493 149V145.143C107.493 144.723 107.453 144.338 107.374 143.988C107.294 143.633 107.166 143.325 106.989 143.064C106.816 142.798 106.59 142.593 106.31 142.448C106.034 142.303 105.698 142.231 105.302 142.231C104.938 142.231 104.616 142.294 104.336 142.42C104.06 142.546 103.827 142.728 103.636 142.966C103.449 143.199 103.307 143.484 103.209 143.82C103.111 144.156 103.062 144.539 103.062 144.968L102.334 144.807C102.334 144.032 102.469 143.381 102.74 142.854C103.01 142.327 103.384 141.928 103.86 141.657C104.336 141.386 104.882 141.251 105.498 141.251C105.95 141.251 106.345 141.321 106.681 141.461C107.021 141.601 107.308 141.79 107.542 142.028C107.78 142.266 107.971 142.539 108.116 142.847C108.26 143.15 108.365 143.475 108.431 143.82C108.496 144.161 108.529 144.501 108.529 144.842V149H107.493ZM102.026 149V138.92H102.957V144.611H103.062V149H102.026ZM110.485 140.005V138.85H111.514V140.005H110.485ZM110.485 149V141.44H111.514V149H110.485ZM122.629 149L122.636 144.037C122.636 143.454 122.472 142.996 122.146 142.665C121.824 142.329 121.413 142.161 120.914 142.161C120.629 142.161 120.351 142.226 120.081 142.357C119.81 142.488 119.586 142.698 119.409 142.987C119.236 143.276 119.15 143.654 119.15 144.121L118.541 143.946C118.527 143.405 118.632 142.931 118.856 142.525C119.084 142.119 119.397 141.804 119.794 141.58C120.195 141.351 120.648 141.237 121.152 141.237C121.912 141.237 122.521 141.473 122.979 141.944C123.436 142.411 123.665 143.043 123.665 143.841L123.658 149H122.629ZM113.606 149V141.44H114.53V143.302H114.642V149H113.606ZM118.128 149L118.135 144.107C118.135 143.505 117.974 143.031 117.652 142.686C117.334 142.336 116.914 142.161 116.392 142.161C115.869 142.161 115.447 142.341 115.125 142.7C114.803 143.055 114.642 143.528 114.642 144.121L114.026 143.785C114.026 143.3 114.14 142.866 114.369 142.483C114.597 142.096 114.91 141.792 115.307 141.573C115.703 141.349 116.154 141.237 116.658 141.237C117.138 141.237 117.565 141.34 117.939 141.545C118.317 141.75 118.613 142.049 118.828 142.441C119.042 142.833 119.15 143.309 119.15 143.869L119.143 149H118.128ZM128.875 149.21C128.18 149.21 127.592 149.035 127.111 148.685C126.63 148.33 126.266 147.852 126.019 147.25C125.772 146.643 125.648 145.964 125.648 145.213C125.648 144.448 125.772 143.766 126.019 143.169C126.271 142.567 126.64 142.093 127.125 141.748C127.61 141.403 128.208 141.23 128.917 141.23C129.608 141.23 130.2 141.405 130.695 141.755C131.19 142.105 131.568 142.581 131.829 143.183C132.095 143.785 132.228 144.462 132.228 145.213C132.228 145.969 132.095 146.648 131.829 147.25C131.563 147.852 131.18 148.33 130.681 148.685C130.182 149.035 129.58 149.21 128.875 149.21ZM125.473 152.36V141.44H126.397V147.131H126.509V152.36H125.473ZM128.77 148.251C129.297 148.251 129.736 148.118 130.086 147.852C130.436 147.586 130.697 147.224 130.87 146.767C131.047 146.305 131.136 145.787 131.136 145.213C131.136 144.644 131.05 144.13 130.877 143.673C130.704 143.216 130.441 142.854 130.086 142.588C129.736 142.322 129.29 142.189 128.749 142.189C128.222 142.189 127.783 142.317 127.433 142.574C127.088 142.831 126.829 143.188 126.656 143.645C126.483 144.098 126.397 144.62 126.397 145.213C126.397 145.796 126.483 146.319 126.656 146.781C126.829 147.238 127.09 147.598 127.44 147.859C127.79 148.12 128.233 148.251 128.77 148.251Z" fill="#0E041B"/>
<path d="M116.154 63.1121C116.622 63.0517 117.091 63.0517 117.559 63.1121C117.816 62.5379 117.861 61.5255 117.634 60.4527C117.302 58.8358 116.834 57.8537 115.897 58.0048C114.961 58.1559 114.915 59.3345 115.263 60.9513C115.429 61.8428 115.776 62.6286 116.154 63.1121ZM108.042 64.3965C108.722 64.6987 109.13 64.8951 109.296 64.7138C109.583 64.4267 108.767 63.2934 107.468 62.7343C105.927 62.0997 104.175 62.3112 102.831 63.2934C102.378 63.6259 101.955 64.0792 102.015 64.3663C102.151 64.9254 103.526 63.9583 105.444 63.8374C106.486 63.7619 107.363 64.0943 108.042 64.3965ZM106.683 65.1671C105.308 65.3787 104.417 66.1493 104.643 66.6933C104.779 66.7386 104.825 66.8142 105.429 66.5724C106.335 66.2249 107.302 66.1342 108.269 66.2702C108.707 66.3155 108.918 66.3457 109.024 66.1946C109.221 65.8773 108.148 65.0009 106.683 65.1671ZM114.87 67.7661C115.384 66.7235 113.224 65.6507 112.71 66.7084C112.196 67.751 114.372 68.8087 114.87 67.7661ZM117.242 64.6685C116.079 64.6534 116.033 67.0559 117.196 67.0862C118.375 67.0862 118.42 64.6836 117.242 64.6685ZM84.1298 76.6057C83.9335 76.6511 83.2235 76.8324 82.8458 76.2431C82.0603 75.0343 84.5226 73.1606 83.299 70.8184C81.9244 68.1741 79.0845 68.7634 77.9969 69.9723C76.6827 71.4229 76.6827 73.5383 77.2416 73.6139C77.8912 73.7045 77.8609 72.6317 78.3594 71.8459C78.9486 70.9393 80.1419 70.6824 81.0483 71.2718C81.0483 71.2718 81.0634 71.2718 81.0634 71.2869C82.8156 72.4353 81.2748 73.9765 81.4108 75.6236C81.6223 78.147 84.2054 78.1017 84.6736 76.9835C84.7341 76.8777 84.719 76.7266 84.6434 76.636C84.6434 76.8022 84.7341 76.4698 84.1298 76.6057ZM129.508 74.0219C128.994 72.2388 129.115 72.6317 128.48 70.9091C128.858 70.35 130.792 67.2675 128.012 64.3663C126.441 62.7192 122.876 61.8579 121.789 61.5557C121.562 59.8331 122.498 52.6708 118.526 48.9838C121.668 45.72 123.631 42.1237 123.631 39.0411C123.616 33.1178 116.335 31.3197 107.363 35.0369L105.459 35.8377C105.444 35.8226 102.015 32.4681 101.97 32.4228C91.7582 23.5076 59.7642 59.0625 69.9908 67.7057L72.2265 69.5945C71.6223 71.2113 71.4108 72.949 71.6072 74.6716C72.1207 79.7336 77.0603 83.8285 81.8338 83.8134C90.58 103.971 122.393 104.001 130.625 84.2668C130.882 83.5868 132 80.5345 132 77.8448C132 75.1551 130.474 74.0219 129.508 74.0219ZM81.6525 81.3202C78.1933 81.2295 74.4621 78.1168 74.0996 74.4298C73.163 65.152 85.3383 63.0366 86.8187 72.5561C87.5135 77.044 86.1087 81.4109 81.6525 81.3202ZM78.8579 64.0187C76.5618 64.472 74.5377 65.7715 73.299 67.5697C72.5588 66.9502 71.1842 65.7564 70.9425 65.3031C68.9787 61.5406 73.1026 54.2423 75.9878 50.1322C83.1177 39.9478 94.2809 32.2414 99.4622 33.6316C100.308 33.8734 103.088 37.0919 103.088 37.0919C103.088 37.0919 97.9214 39.9629 93.1329 43.9671C86.6525 48.9536 81.7733 56.1764 78.8579 64.0187ZM115.021 79.3407C115.021 79.3407 109.613 80.1416 104.492 78.2679C105.429 75.2156 108.586 79.1896 119.085 76.1827C121.396 75.5178 124.432 74.2183 126.804 72.3446C127.317 73.5232 127.68 74.7623 127.876 76.0164C128.435 75.9107 130.036 75.9409 129.613 78.7514C129.115 81.7584 127.831 84.2063 125.686 86.4578C124.341 87.9084 122.74 89.1172 120.973 89.9936C119.991 90.5074 118.949 90.9456 117.891 91.2931C109.795 93.9374 101.501 91.0362 98.8126 84.7805C98.6012 84.297 98.4199 83.8134 98.2688 83.2997C97.1359 79.1745 98.1027 74.2334 101.124 71.1206C101.305 70.9242 101.501 70.6824 101.501 70.3953C101.471 70.1385 101.381 69.8967 101.214 69.7003C100.157 68.159 96.4863 65.5449 97.2265 60.4829C97.7552 56.8413 100.927 54.2876 103.903 54.4387L104.659 54.484C105.943 54.5596 107.06 54.7258 108.118 54.7711C109.885 54.8467 111.486 54.5898 113.359 53.0183C113.994 52.4894 114.508 52.021 115.369 51.885C116.079 51.7037 116.819 51.8397 117.423 52.2175C118.934 53.2299 119.145 55.6626 119.221 57.4457C119.266 58.4581 119.387 60.9362 119.432 61.6313C119.523 63.2481 119.946 63.4748 120.807 63.7467C121.29 63.913 121.743 64.0187 122.393 64.2152C124.387 64.7743 125.565 65.3485 126.335 66.0738C126.728 66.4515 126.97 66.9502 127.06 67.479C127.302 69.2016 125.731 71.3322 121.562 73.2512C114.492 76.5302 107.378 75.4422 106.35 75.3214C103.299 74.9134 101.562 78.8572 103.39 81.5469C106.819 86.6089 121.924 84.569 126.305 78.3132C126.411 78.1621 126.32 78.0715 126.199 78.1621C119.87 82.4837 111.501 83.9494 106.743 82.106C106.018 81.8189 104.508 81.1238 104.326 79.5825C110.927 81.6224 115.082 79.6883 115.082 79.6883C115.082 79.6883 115.414 79.2954 115.021 79.3407ZM92.0301 50.0869C94.5679 47.1555 97.6797 44.6018 100.489 43.1814C100.535 43.1512 100.61 43.1663 100.64 43.2267C100.656 43.257 100.656 43.3023 100.64 43.3325C100.414 43.7405 99.9909 44.6018 99.8549 45.2515C99.8398 45.312 99.8851 45.3724 99.9456 45.3875C99.9758 45.4026 100.006 45.3875 100.036 45.3724C101.773 44.1938 104.81 42.9094 107.453 42.7583C107.514 42.7583 107.574 42.8036 107.574 42.8641C107.574 42.9094 107.559 42.9396 107.529 42.9699C107.091 43.3023 106.698 43.6952 106.366 44.1485C106.335 44.1938 106.335 44.2694 106.396 44.2996C106.411 44.3147 106.441 44.3147 106.456 44.3147C108.314 44.3298 110.943 44.9795 112.665 45.9466C112.785 46.0071 112.695 46.2337 112.574 46.2035C102.045 43.7858 93.9335 49.014 92.2114 50.2682C92.151 50.2984 92.0906 50.2833 92.0453 50.238C91.9999 50.1775 91.9999 50.1171 92.0301 50.0869Z" fill="#352E3F"/>
</svg>
