<svg width="200" height="164" viewBox="0 0 200 164" fill="none" xmlns="http://www.w3.org/2000/svg">
<path opacity="0.6" d="M83.7056 149V138.92H84.6506L88.6126 147.397L92.5536 138.92H93.5126V148.993H92.5326V141.216L88.9416 149H88.2766L84.6926 141.216V149H83.7056ZM97.6401 149.21C97.0707 149.21 96.5924 149.107 96.2051 148.902C95.8224 148.697 95.5354 148.424 95.3441 148.083C95.1527 147.742 95.0571 147.371 95.0571 146.97C95.0571 146.559 95.1387 146.209 95.3021 145.92C95.4701 145.626 95.6964 145.386 95.9811 145.199C96.2704 145.012 96.6041 144.87 96.9821 144.772C97.3647 144.679 97.7871 144.597 98.2491 144.527C98.7157 144.452 99.1707 144.389 99.6141 144.338C100.062 144.282 100.454 144.228 100.79 144.177L100.426 144.401C100.44 143.654 100.295 143.101 99.9921 142.742C99.6887 142.383 99.1614 142.203 98.4101 142.203C97.8921 142.203 97.4534 142.32 97.0941 142.553C96.7394 142.786 96.4897 143.155 96.3451 143.659L95.3441 143.365C95.5167 142.688 95.8644 142.163 96.3871 141.79C96.9097 141.417 97.5887 141.23 98.4241 141.23C99.1147 141.23 99.7004 141.361 100.181 141.622C100.666 141.879 101.009 142.252 101.21 142.742C101.303 142.961 101.364 143.206 101.392 143.477C101.42 143.748 101.434 144.023 101.434 144.303V149H100.517V147.103L100.783 147.215C100.526 147.864 100.127 148.358 99.5861 148.699C99.0447 149.04 98.3961 149.21 97.6401 149.21ZM97.7591 148.321C98.2397 148.321 98.6597 148.235 99.0191 148.062C99.3784 147.889 99.6677 147.654 99.8871 147.355C100.106 147.052 100.249 146.711 100.314 146.333C100.37 146.09 100.4 145.824 100.405 145.535C100.41 145.241 100.412 145.022 100.412 144.877L100.804 145.08C100.454 145.127 100.074 145.173 99.6631 145.22C99.2571 145.267 98.8557 145.32 98.4591 145.381C98.0671 145.442 97.7124 145.514 97.3951 145.598C97.1804 145.659 96.9727 145.745 96.7721 145.857C96.5714 145.964 96.4057 146.109 96.2751 146.291C96.1491 146.473 96.0861 146.699 96.0861 146.97C96.0861 147.189 96.1397 147.402 96.2471 147.607C96.3591 147.812 96.5364 147.983 96.7791 148.118C97.0264 148.253 97.3531 148.321 97.7591 148.321ZM103.249 149L103.256 138.92H104.292V145.08L107.666 141.44H109.038L105.496 145.22L109.5 149H108.002L104.292 145.36V149H103.249ZM113.264 149.21C112.527 149.21 111.887 149.047 111.346 148.72C110.809 148.393 110.392 147.934 110.093 147.341C109.794 146.748 109.645 146.053 109.645 145.255C109.645 144.429 109.792 143.715 110.086 143.113C110.38 142.511 110.793 142.047 111.325 141.72C111.862 141.393 112.494 141.23 113.222 141.23C113.969 141.23 114.606 141.403 115.133 141.748C115.66 142.089 116.059 142.579 116.33 143.218C116.601 143.857 116.724 144.62 116.701 145.507H115.651V145.143C115.632 144.163 115.42 143.423 115.014 142.924C114.613 142.425 114.025 142.175 113.25 142.175C112.438 142.175 111.815 142.439 111.381 142.966C110.952 143.493 110.737 144.245 110.737 145.22C110.737 146.172 110.952 146.912 111.381 147.439C111.815 147.962 112.429 148.223 113.222 148.223C113.763 148.223 114.235 148.099 114.636 147.852C115.042 147.6 115.362 147.238 115.595 146.767L116.554 147.138C116.255 147.796 115.814 148.307 115.231 148.671C114.652 149.03 113.997 149.21 113.264 149.21ZM110.373 145.507V144.646H116.148V145.507H110.373Z" fill="#0E041B"/>
<path d="M140.04 93.256H125.85C125.331 93.256 124.832 93.0487 124.465 92.6796C124.097 92.3105 123.891 91.8103 123.891 91.2886V38.7022C123.894 38.1822 124.102 37.6845 124.469 37.3176C124.836 36.9507 125.332 36.7443 125.85 36.7432H140.036C140.555 36.742 141.053 36.9476 141.421 37.3149C141.79 37.6822 141.998 38.1811 142 38.7022V91.2886C142 91.5471 141.95 91.8031 141.851 92.0419C141.754 92.2811 141.609 92.498 141.427 92.6809C141.245 92.8638 141.029 93.0088 140.791 93.1072C140.553 93.206 140.298 93.2564 140.04 93.256Z" fill="#352E3F"/>
<path d="M72.9713 93.7908L60.0962 87.3895C59.6248 87.1555 59.2668 86.746 59.101 86.2512C58.9351 85.7568 58.9748 85.2175 59.2115 84.7517L83.0987 37.8256C83.3358 37.3602 83.7503 37.0067 84.2512 36.8429C84.7521 36.679 85.2983 36.7183 85.7699 36.952L98.6493 43.3407C99.1206 43.5748 99.4786 43.9841 99.6445 44.4788C99.8104 44.9733 99.7706 45.5128 99.534 45.9785L75.6424 92.9171C75.4054 93.3825 74.9909 93.7361 74.49 93.9C73.9891 94.0638 73.4429 94.0243 72.9713 93.7908Z" fill="#352E3F"/>
<path d="M111.252 92.4119L121.59 41.1705C121.693 40.6603 121.585 40.131 121.289 39.6983C120.994 39.2656 120.535 38.9646 120.013 38.8611L105.708 36.0384C105.448 35.9875 105.18 35.9872 104.92 36.0375C104.66 36.0877 104.412 36.1876 104.191 36.3313C103.97 36.4751 103.781 36.66 103.633 36.8753C103.485 37.0906 103.383 37.3323 103.331 37.5864L92.9929 88.832C92.8901 89.3431 92.9988 89.8727 93.2951 90.3056C93.5913 90.7384 94.0511 91.0392 94.5737 91.1414L108.874 93.9599C109.134 94.0121 109.403 94.0133 109.663 93.9637C109.924 93.9136 110.173 93.8139 110.394 93.6701C110.615 93.5262 110.804 93.3407 110.952 93.1249C111.099 92.9091 111.201 92.6668 111.252 92.4119Z" fill="#352E3F"/>
</svg>
