<svg width="36" height="36" viewBox="0 0 36 36" fill="none" xmlns="http://www.w3.org/2000/svg">
<rect width="36" height="36" rx="8" fill="white" fill-opacity="0.1"/>
<rect x="0.4" y="0.4" width="35.2" height="35.2" rx="7.6" stroke="url(#paint0_linear_429_54104)" stroke-opacity="0.5" stroke-width="0.8" style="mix-blend-mode:overlay"/>
<rect x="2.4" y="2.4" width="31.2" height="31.2" rx="5.6" fill="url(#paint1_radial_429_54104)"/>
<rect x="2.4" y="2.4" width="31.2" height="31.2" rx="5.6" stroke="url(#paint2_radial_429_54104)" stroke-width="0.8"/>
<g style="mix-blend-mode:overlay">
<path fill-rule="evenodd" clip-rule="evenodd" d="M26.5923 11.0743C26.5915 9.97726 25.5127 9.2034 24.4727 9.55831L24.4725 9.5584L24.4723 9.55845L15.825 12.5063L11.7148 12.8225L11.7147 12.8225C10.4097 12.9227 9.40234 14.011 9.40234 15.3195V18.7445C9.40234 19.8498 10.1212 20.7981 11.1311 21.1263L11.5445 24.8468L11.5445 24.8471C11.6507 25.8047 12.4605 26.5285 13.4235 26.5285C14.4674 26.5285 15.3141 25.6819 15.3141 24.638V21.5179L15.8254 21.5573L24.4732 24.5052L24.4732 24.5053C25.5123 24.8594 26.5923 24.0871 26.5923 22.9887V11.0749L26.5923 11.0743ZM24.9248 10.8833C25.055 10.8388 25.1922 10.9356 25.1923 11.0754V22.9887C25.1923 23.1272 25.0561 23.2248 24.9249 23.1801L24.9248 23.1801L16.6695 20.3659V13.6975L24.9244 10.8834L24.9248 10.8833ZM15.2695 13.9531L11.8221 14.2184L11.8219 14.2184C11.2467 14.2625 10.8023 14.7423 10.8023 15.3195V18.7445C10.8023 19.3179 11.2409 19.7952 11.8107 19.8447C12.1495 19.8639 12.4284 20.1251 12.4663 20.4663L12.936 24.6924L12.936 24.6927C12.9634 24.9404 13.1731 25.1285 13.4235 25.1285C13.6942 25.1285 13.9141 24.9087 13.9141 24.638V20.7619C13.9141 20.5669 13.9954 20.3808 14.1385 20.2483C14.2816 20.1158 14.4734 20.049 14.6678 20.064L15.2695 20.1103V13.9531Z" fill="white"/>
</g>
<g style="mix-blend-mode:overlay">
<path fill-rule="evenodd" clip-rule="evenodd" d="M26.5923 11.0743C26.5915 9.97726 25.5127 9.2034 24.4727 9.55831L24.4725 9.5584L24.4723 9.55845L15.825 12.5063L11.7148 12.8225L11.7147 12.8225C10.4097 12.9227 9.40234 14.011 9.40234 15.3195V18.7445C9.40234 19.8498 10.1212 20.7981 11.1311 21.1263L11.5445 24.8468L11.5445 24.8471C11.6507 25.8047 12.4605 26.5285 13.4235 26.5285C14.4674 26.5285 15.3141 25.6819 15.3141 24.638V21.5179L15.8254 21.5573L24.4732 24.5052L24.4732 24.5053C25.5123 24.8594 26.5923 24.0871 26.5923 22.9887V11.0749L26.5923 11.0743ZM24.9248 10.8833C25.055 10.8388 25.1922 10.9356 25.1923 11.0754V22.9887C25.1923 23.1272 25.0561 23.2248 24.9249 23.1801L24.9248 23.1801L16.6695 20.3659V13.6975L24.9244 10.8834L24.9248 10.8833ZM15.2695 13.9531L11.8221 14.2184L11.8219 14.2184C11.2467 14.2625 10.8023 14.7423 10.8023 15.3195V18.7445C10.8023 19.3179 11.2409 19.7952 11.8107 19.8447C12.1495 19.8639 12.4284 20.1251 12.4663 20.4663L12.936 24.6924L12.936 24.6927C12.9634 24.9404 13.1731 25.1285 13.4235 25.1285C13.6942 25.1285 13.9141 24.9087 13.9141 24.638V20.7619C13.9141 20.5669 13.9954 20.3808 14.1385 20.2483C14.2816 20.1158 14.4734 20.049 14.6678 20.064L15.2695 20.1103V13.9531Z" fill="white"/>
</g>
<g style="mix-blend-mode:overlay">
<path fill-rule="evenodd" clip-rule="evenodd" d="M26.5923 11.0743C26.5915 9.97726 25.5127 9.2034 24.4727 9.55831L24.4725 9.5584L24.4723 9.55845L15.825 12.5063L11.7148 12.8225L11.7147 12.8225C10.4097 12.9227 9.40234 14.011 9.40234 15.3195V18.7445C9.40234 19.8498 10.1212 20.7981 11.1311 21.1263L11.5445 24.8468L11.5445 24.8471C11.6507 25.8047 12.4605 26.5285 13.4235 26.5285C14.4674 26.5285 15.3141 25.6819 15.3141 24.638V21.5179L15.8254 21.5573L24.4732 24.5052L24.4732 24.5053C25.5123 24.8594 26.5923 24.0871 26.5923 22.9887V11.0749L26.5923 11.0743ZM24.9248 10.8833C25.055 10.8388 25.1922 10.9356 25.1923 11.0754V22.9887C25.1923 23.1272 25.0561 23.2248 24.9249 23.1801L24.9248 23.1801L16.6695 20.3659V13.6975L24.9244 10.8834L24.9248 10.8833ZM15.2695 13.9531L11.8221 14.2184L11.8219 14.2184C11.2467 14.2625 10.8023 14.7423 10.8023 15.3195V18.7445C10.8023 19.3179 11.2409 19.7952 11.8107 19.8447C12.1495 19.8639 12.4284 20.1251 12.4663 20.4663L12.936 24.6924L12.936 24.6927C12.9634 24.9404 13.1731 25.1285 13.4235 25.1285C13.6942 25.1285 13.9141 24.9087 13.9141 24.638V20.7619C13.9141 20.5669 13.9954 20.3808 14.1385 20.2483C14.2816 20.1158 14.4734 20.049 14.6678 20.064L15.2695 20.1103V13.9531Z" fill="white"/>
</g>
<defs>
<linearGradient id="paint0_linear_429_54104" x1="18" y1="0" x2="18" y2="36" gradientUnits="userSpaceOnUse">
<stop stop-color="white" stop-opacity="0.4"/>
<stop offset="1" stop-color="white" stop-opacity="0.2"/>
</linearGradient>
<radialGradient id="paint1_radial_429_54104" cx="0" cy="0" r="1" gradientUnits="userSpaceOnUse" gradientTransform="translate(18 0.333332) rotate(90) scale(23.6667 25.43)">
<stop stop-color="#38242B"/>
<stop offset="1" stop-color="#120C10"/>
</radialGradient>
<radialGradient id="paint2_radial_429_54104" cx="0" cy="0" r="1" gradientUnits="userSpaceOnUse" gradientTransform="translate(18 2) scale(20.6667 29.8891)">
<stop offset="0.0285444" stop-color="#6C4B56"/>
<stop offset="1" stop-color="#14131B"/>
</radialGradient>
</defs>
</svg>
