<svg width="23" height="22" viewBox="0 0 23 22" fill="none" xmlns="http://www.w3.org/2000/svg">
<path fill-rule="evenodd" clip-rule="evenodd" d="M2.21133 0C1.32767 0 0.611328 0.716344 0.611328 1.6V20.4C0.611328 21.2837 1.32767 22 2.21133 22H21.0113C21.895 22 22.6113 21.2837 22.6113 20.4V1.6C22.6113 0.716345 21.895 0 21.0113 0H2.21133ZM18.6113 9.7C18.2247 9.7 17.9113 9.3866 17.9113 9V5.68995L6.30128 17.3H9.61133C9.99793 17.3 10.3113 17.6134 10.3113 18C10.3113 18.3866 9.99793 18.7 9.61133 18.7H4.61133C4.22473 18.7 3.91133 18.3866 3.91133 18V13C3.91133 12.6134 4.22473 12.3 4.61133 12.3C4.99793 12.3 5.31133 12.6134 5.31133 13V16.3101L16.9214 4.7H13.6113C13.2247 4.7 12.9113 4.3866 12.9113 4C12.9113 3.6134 13.2247 3.3 13.6113 3.3H18.6113C18.9979 3.3 19.3113 3.6134 19.3113 4V9C19.3113 9.3866 18.9979 9.7 18.6113 9.7Z" fill="url(#paint0_linear_4899_74768)"/>
<defs>
<linearGradient id="paint0_linear_4899_74768" x1="1.19883" y1="0.587504" x2="22.6847" y2="22.0734" gradientUnits="userSpaceOnUse">
<stop stop-color="white"/>
<stop offset="1" stop-color="white" stop-opacity="0.6"/>
</linearGradient>
</defs>
</svg>
