<svg width="23" height="20" viewBox="0 0 23 20" fill="none" xmlns="http://www.w3.org/2000/svg">
<path fill-rule="evenodd" clip-rule="evenodd" d="M9.64578 2.66429H21.6985C22.2049 2.66429 22.6154 3.07481 22.6154 3.58121C22.6154 4.08761 22.2049 4.49812 21.6985 4.49812H9.64233C9.24596 5.82078 8.01941 6.78463 6.56775 6.78463C5.11608 6.78463 3.88954 5.82078 3.49317 4.49812H1.52629C1.01989 4.49812 0.609375 4.08761 0.609375 3.58121C0.609375 3.07481 1.01989 2.66429 1.52629 2.66429H3.48972C3.88239 1.33569 5.11185 0.366211 6.56775 0.366211C8.02364 0.366211 9.25311 1.33569 9.64578 2.66429ZM1.52629 15.501C1.01989 15.501 0.609375 15.9116 0.609375 16.418C0.609375 16.9244 1.01989 17.3349 1.52629 17.3349H6.32346C6.716 18.6637 7.94556 19.6334 9.40161 19.6334C10.8576 19.6334 12.0872 18.6637 12.4798 17.3349H21.6985C22.2049 17.3349 22.6154 16.9244 22.6154 16.418C22.6154 15.9116 22.2049 15.501 21.6985 15.501H12.4761C12.0796 14.1786 10.8531 13.2149 9.40161 13.2149C7.95009 13.2149 6.72365 14.1786 6.32714 15.501H1.52629ZM0.609375 9.99908C0.609375 9.49268 1.01989 9.08217 1.52629 9.08217H13.5941C13.9887 7.75664 15.2166 6.79007 16.6703 6.79007C18.124 6.79007 19.352 7.75664 19.7466 9.08217H21.6985C22.2049 9.08217 22.6154 9.49268 22.6154 9.99908C22.6154 10.5055 22.2049 10.916 21.6985 10.916H19.7467C19.3522 12.2417 18.1242 13.2085 16.6703 13.2085C15.2165 13.2085 13.9884 12.2417 13.594 10.916H1.52629C1.01989 10.916 0.609375 10.5055 0.609375 9.99908Z" fill="url(#paint0_linear_4899_68538)"/>
<defs>
<linearGradient id="paint0_linear_4899_68538" x1="1.19704" y1="0.880734" x2="19.8489" y2="22.184" gradientUnits="userSpaceOnUse">
<stop stop-color="white"/>
<stop offset="1" stop-color="white" stop-opacity="0.6"/>
</linearGradient>
</defs>
</svg>
