<svg width="21" height="22" viewBox="0 0 21 22" fill="none" xmlns="http://www.w3.org/2000/svg">
<path d="M10.957 0C6.7734 0 2.42188 0.950684 2.42188 0.950684L2.41832 0.954264C2.00656 1.03738 1.63602 1.26165 1.36964 1.589C1.10326 1.91634 0.957474 2.32657 0.957031 2.75V8.25C0.957031 17.7815 10.0675 21.7655 10.0675 21.7655C10.3392 21.9192 10.6455 22 10.957 22C11.2674 21.9993 11.5724 21.9186 11.843 21.7655H11.8466C11.8466 21.7655 20.957 17.7815 20.957 8.25V2.75C20.9572 2.32545 20.8113 1.91398 20.5442 1.58583C20.277 1.25768 19.9052 1.03319 19.4922 0.950684C19.4922 0.950684 15.1407 0 10.957 0ZM10.957 6.41667C12.4634 6.41667 13.6843 7.64775 13.6843 9.16667C13.6843 10.362 12.9234 11.3698 11.8661 11.7484V14.6667C11.8661 15.1727 11.4588 15.5833 10.957 15.5833C10.4552 15.5833 10.0479 15.1727 10.0479 14.6667V11.7484C8.99067 11.3698 8.22976 10.362 8.22976 9.16667C8.22976 7.64775 9.45067 6.41667 10.957 6.41667Z" fill="url(#paint0_linear_4899_68546)"/>
<defs>
<linearGradient id="paint0_linear_4899_68546" x1="1.49113" y1="0.587504" x2="22.8798" y2="20.0317" gradientUnits="userSpaceOnUse">
<stop stop-color="white"/>
<stop offset="1" stop-color="white" stop-opacity="0.6"/>
</linearGradient>
</defs>
</svg>
