<svg width="20" height="24" viewBox="0 0 20 24" fill="none" xmlns="http://www.w3.org/2000/svg">
<path d="M7.57673 0.825195C6.99281 0.825195 6.51889 1.29911 6.51889 1.88303C6.51889 2.46696 6.99281 2.94087 7.57673 2.94087H11.8081C12.392 2.94087 12.8659 2.46696 12.8659 1.88303C12.8659 1.29911 12.392 0.825195 11.8081 0.825195H7.57673ZM17.0911 3.15781C16.8213 3.17989 16.5588 3.3065 16.37 3.5297C15.9923 3.97505 16.0486 4.64271 16.494 5.02142L18.0001 6.29826C18.4455 6.67591 19.1131 6.61964 19.4919 6.17429C19.8695 5.72895 19.8132 5.06129 19.3679 4.68258L17.8617 3.40574C17.639 3.21691 17.3608 3.13573 17.0911 3.15781ZM9.6924 3.99871C4.44342 3.99871 0.171875 8.27025 0.171875 13.5192C0.171875 18.7682 4.44342 23.0398 9.6924 23.0398C14.9414 23.0398 19.2129 18.7682 19.2129 13.5192C19.2129 8.27025 14.9414 3.99871 9.6924 3.99871ZM9.6924 7.17222C10.2763 7.17222 10.7502 7.64613 10.7502 8.23005V13.5192C10.7502 14.1032 10.2763 14.5771 9.6924 14.5771C9.10848 14.5771 8.63457 14.1032 8.63457 13.5192V8.23005C8.63457 7.64613 9.10848 7.17222 9.6924 7.17222Z" fill="url(#paint0_linear_4899_54059)"/>
<defs>
<linearGradient id="paint0_linear_4899_54059" x1="0.694495" y1="1.41843" x2="22.2168" y2="20.3789" gradientUnits="userSpaceOnUse">
<stop stop-color="white"/>
<stop offset="1" stop-color="white" stop-opacity="0.6"/>
</linearGradient>
</defs>
</svg>
