<svg width="24" height="24" viewBox="0 0 24 24" fill="none" xmlns="http://www.w3.org/2000/svg">
<g clip-path="url(#clip0_4897_50800)">
<path d="M9 3C4.03832 3 0 7.03832 0 12C0 16.9617 4.03832 21 9 21C10.0534 21 11.0597 20.8098 12 20.4756C12.9403 20.8098 13.9466 21 15 21C19.9617 21 24 16.9617 24 12C24 7.03832 19.9617 3 15 3C13.9466 3 12.9403 3.19019 12 3.52441C11.0597 3.19019 10.0534 3 9 3ZM9 4.5C9.31847 4.5 9.62962 4.52618 9.9375 4.56445C7.56346 6.18672 6 8.91468 6 12C6 15.0853 7.56346 17.8133 9.9375 19.4355C9.62962 19.4738 9.31847 19.5 9 19.5C4.84898 19.5 1.5 16.151 1.5 12C1.5 7.84898 4.84898 4.5 9 4.5ZM15 4.5C19.151 4.5 22.5 7.84898 22.5 12C22.5 16.151 19.151 19.5 15 19.5C14.6815 19.5 14.3704 19.4738 14.0625 19.4355C16.4365 17.8133 18 15.0853 18 12C18 8.91468 16.4365 6.18672 14.0625 4.56445C14.3704 4.52618 14.6815 4.5 15 4.5Z" fill="url(#paint0_linear_4897_50800)"/>
</g>
<defs>
<linearGradient id="paint0_linear_4897_50800" x1="0.640914" y1="3.48069" x2="17.5171" y2="25.9822" gradientUnits="userSpaceOnUse">
<stop stop-color="white"/>
<stop offset="1" stop-color="white" stop-opacity="0.6"/>
</linearGradient>
<clipPath id="clip0_4897_50800">
<rect width="24" height="24" fill="white"/>
</clipPath>
</defs>
</svg>
