<svg width="200" height="79" viewBox="0 0 200 79" fill="none" xmlns="http://www.w3.org/2000/svg">
<path d="M69.0534 74L72.4274 63.92H74.1634L77.5374 74H76.2424L73.0854 64.648H73.4774L70.3484 74H69.0534ZM70.6774 71.641V70.472H75.9134V71.641H70.6774ZM84.1735 74V70.213C84.1735 69.8537 84.1409 69.5083 84.0755 69.177C84.0149 68.8457 83.9052 68.5493 83.7465 68.288C83.5925 68.022 83.3825 67.812 83.1165 67.658C82.8552 67.504 82.5239 67.427 82.1225 67.427C81.8099 67.427 81.5252 67.4807 81.2685 67.588C81.0165 67.6907 80.7995 67.8493 80.6175 68.064C80.4355 68.2787 80.2932 68.5493 80.1905 68.876C80.0925 69.198 80.0435 69.5783 80.0435 70.017L79.2245 69.765C79.2245 69.0323 79.3552 68.4047 79.6165 67.882C79.8825 67.3547 80.2535 66.951 80.7295 66.671C81.2102 66.3863 81.7749 66.244 82.4235 66.244C82.9135 66.244 83.3312 66.321 83.6765 66.475C84.0219 66.629 84.3089 66.8343 84.5375 67.091C84.7662 67.343 84.9459 67.6277 85.0765 67.945C85.2072 68.2577 85.2982 68.5773 85.3495 68.904C85.4055 69.226 85.4335 69.5317 85.4335 69.821V74H84.1735ZM78.7835 74V66.44H79.9035V68.463H80.0435V74H78.7835ZM90.1531 74.21C89.4484 74.21 88.8441 74.035 88.3401 73.685C87.8361 73.3303 87.4464 72.852 87.1711 72.25C86.9004 71.648 86.7651 70.969 86.7651 70.213C86.7651 69.457 86.9004 68.778 87.1711 68.176C87.4464 67.574 87.8361 67.1003 88.3401 66.755C88.8441 66.405 89.4461 66.23 90.1461 66.23C90.8601 66.23 91.4597 66.4027 91.9451 66.748C92.4304 67.0933 92.7967 67.567 93.0441 68.169C93.2961 68.771 93.4221 69.4523 93.4221 70.213C93.4221 70.9643 93.2961 71.6433 93.0441 72.25C92.7967 72.852 92.4304 73.3303 91.9451 73.685C91.4597 74.035 90.8624 74.21 90.1531 74.21ZM90.3071 73.069C90.8157 73.069 91.2334 72.9477 91.5601 72.705C91.8867 72.4577 92.1271 72.1193 92.2811 71.69C92.4397 71.256 92.5191 70.7637 92.5191 70.213C92.5191 69.653 92.4397 69.1607 92.2811 68.736C92.1271 68.3067 91.8891 67.973 91.5671 67.735C91.2451 67.4923 90.8367 67.371 90.3421 67.371C89.8287 67.371 89.4041 67.497 89.0681 67.749C88.7367 68.001 88.4894 68.3417 88.3261 68.771C88.1674 69.2003 88.0881 69.681 88.0881 70.213C88.0881 70.7497 88.1697 71.235 88.3331 71.669C88.4964 72.0983 88.7414 72.439 89.0681 72.691C89.3994 72.943 89.8124 73.069 90.3071 73.069ZM92.5191 74V68.435H92.3791V63.92H93.6321V74H92.5191ZM107.433 74L107.44 69.163C107.44 68.5983 107.288 68.1573 106.985 67.84C106.686 67.518 106.297 67.357 105.816 67.357C105.536 67.357 105.27 67.4223 105.018 67.553C104.766 67.679 104.561 67.8797 104.402 68.155C104.243 68.4257 104.164 68.7733 104.164 69.198L103.506 68.932C103.497 68.3953 103.606 67.9263 103.835 67.525C104.068 67.119 104.386 66.804 104.787 66.58C105.188 66.356 105.641 66.244 106.145 66.244C106.934 66.244 107.554 66.4843 108.007 66.965C108.46 67.441 108.686 68.0827 108.686 68.89L108.679 74H107.433ZM98.389 74V66.44H99.502V68.463H99.642V74H98.389ZM102.918 74L102.925 69.212C102.925 68.6333 102.776 68.1807 102.477 67.854C102.178 67.5227 101.782 67.357 101.287 67.357C100.797 67.357 100.4 67.525 100.097 67.861C99.7937 68.197 99.642 68.6427 99.642 69.198L98.984 68.806C98.984 68.316 99.1007 67.8773 99.334 67.49C99.5673 67.1027 99.8847 66.7993 100.286 66.58C100.687 66.356 101.142 66.244 101.651 66.244C102.16 66.244 102.603 66.3513 102.981 66.566C103.359 66.7807 103.651 67.0887 103.856 67.49C104.061 67.8867 104.164 68.3603 104.164 68.911L104.157 74H102.918ZM113.661 74.21C112.91 74.21 112.261 74.0397 111.715 73.699C111.174 73.3583 110.756 72.887 110.462 72.285C110.168 71.683 110.021 70.9923 110.021 70.213C110.021 69.4197 110.17 68.7243 110.469 68.127C110.768 67.5297 111.19 67.0653 111.736 66.734C112.282 66.398 112.924 66.23 113.661 66.23C114.417 66.23 115.068 66.4003 115.614 66.741C116.16 67.077 116.578 67.546 116.867 68.148C117.161 68.7453 117.308 69.4337 117.308 70.213C117.308 71.0017 117.161 71.697 116.867 72.299C116.573 72.8963 116.153 73.3653 115.607 73.706C115.061 74.042 114.412 74.21 113.661 74.21ZM113.661 73.027C114.445 73.027 115.028 72.7657 115.411 72.243C115.794 71.7203 115.985 71.0437 115.985 70.213C115.985 69.359 115.791 68.68 115.404 68.176C115.017 67.6673 114.436 67.413 113.661 67.413C113.134 67.413 112.7 67.532 112.359 67.77C112.018 68.008 111.764 68.337 111.596 68.757C111.428 69.177 111.344 69.6623 111.344 70.213C111.344 71.0623 111.54 71.7437 111.932 72.257C112.324 72.7703 112.9 73.027 113.661 73.027ZM118.849 74V66.44H119.962V68.267L119.78 68.029C119.869 67.7957 119.983 67.581 120.123 67.385C120.268 67.189 120.429 67.028 120.606 66.902C120.802 66.7433 121.024 66.622 121.271 66.538C121.518 66.454 121.77 66.405 122.027 66.391C122.284 66.3723 122.524 66.3887 122.748 66.44V67.609C122.487 67.539 122.2 67.5203 121.887 67.553C121.574 67.5857 121.285 67.7 121.019 67.896C120.776 68.0687 120.587 68.2787 120.452 68.526C120.321 68.7733 120.23 69.0417 120.179 69.331C120.128 69.6157 120.102 69.9073 120.102 70.206V74H118.849ZM127.211 74.21C126.469 74.21 125.82 74.0467 125.265 73.72C124.714 73.3887 124.285 72.929 123.977 72.341C123.669 71.7483 123.515 71.0577 123.515 70.269C123.515 69.443 123.667 68.729 123.97 68.127C124.273 67.5203 124.696 67.0537 125.237 66.727C125.783 66.3957 126.422 66.23 127.155 66.23C127.916 66.23 128.562 66.405 129.094 66.755C129.631 67.105 130.032 67.6043 130.298 68.253C130.569 68.9017 130.685 69.674 130.648 70.57H129.388V70.122C129.374 69.1933 129.185 68.5003 128.821 68.043C128.457 67.581 127.916 67.35 127.197 67.35C126.427 67.35 125.841 67.5973 125.44 68.092C125.039 68.5867 124.838 69.296 124.838 70.22C124.838 71.1113 125.039 71.802 125.44 72.292C125.841 72.782 126.413 73.027 127.155 73.027C127.654 73.027 128.088 72.9127 128.457 72.684C128.826 72.4553 129.115 72.1263 129.325 71.697L130.522 72.11C130.228 72.7773 129.785 73.2953 129.192 73.664C128.604 74.028 127.944 74.21 127.211 74.21ZM124.418 70.57V69.569H130.004V70.57H124.418Z" fill="#0E041B"/>
<path d="M84 26.6667C82.5855 26.6667 81.2289 27.2287 80.2287 28.2288C79.2285 29.229 78.6666 30.5856 78.6666 32.0001C78.6666 33.4146 79.2285 34.7711 80.2287 35.7713C81.2289 36.7715 82.5855 37.3334 84 37.3334C85.4144 37.3334 86.771 36.7715 87.7712 35.7713C88.7714 34.7711 89.3333 33.4146 89.3333 32.0001C89.3333 30.5856 88.7714 29.229 87.7712 28.2288C86.771 27.2287 85.4144 26.6667 84 26.6667ZM100 26.6667C98.5855 26.6667 97.2289 27.2287 96.2287 28.2288C95.2285 29.229 94.6666 30.5856 94.6666 32.0001C94.6666 33.4146 95.2285 34.7711 96.2287 35.7713C97.2289 36.7715 98.5855 37.3334 100 37.3334C101.414 37.3334 102.771 36.7715 103.771 35.7713C104.771 34.7711 105.333 33.4146 105.333 32.0001C105.333 30.5856 104.771 29.229 103.771 28.2288C102.771 27.2287 101.414 26.6667 100 26.6667ZM116 26.6667C114.585 26.6667 113.229 27.2287 112.229 28.2288C111.229 29.229 110.667 30.5856 110.667 32.0001C110.667 33.4146 111.229 34.7711 112.229 35.7713C113.229 36.7715 114.585 37.3334 116 37.3334C117.414 37.3334 118.771 36.7715 119.771 35.7713C120.771 34.7711 121.333 33.4146 121.333 32.0001C121.333 30.5856 120.771 29.229 119.771 28.2288C118.771 27.2287 117.414 26.6667 116 26.6667Z" fill="#0D041B" fill-opacity="0.7"/>
</svg>
