<svg width="62" height="17" viewBox="0 0 62 17" fill="none" xmlns="http://www.w3.org/2000/svg">
<g clip-path="url(#clip0_5746_109861)">
<path d="M57.3688 10.5183C55.3439 10.5183 54.0283 9.26181 54.0283 6.85237V6.32022C54.0283 3.85166 55.3882 2.62476 57.4131 2.62476H57.5612C59.5861 2.62476 60.946 3.85166 60.946 6.32022V6.85237C60.946 9.26181 59.6305 10.5183 57.6055 10.5183H57.3688ZM57.4874 8.78879C58.3742 8.78879 58.936 8.2862 58.936 7.19235V5.98025C58.936 4.93076 58.4037 4.35424 57.4874 4.35424C56.5263 4.35424 56.0388 4.93076 56.0388 5.98025V7.19235C56.0388 8.2862 56.5707 8.78879 57.4874 8.78879Z" fill="#070609"/>
<path d="M52.6386 8.61143C52.9786 8.61143 53.2887 8.61143 53.6585 8.58187V10.3705C53.2742 10.4 53.008 10.4 52.6531 10.4C49.7264 10.4 48.8097 9.29139 48.8097 7.11848V4.59079H46.9473V2.8613H48.8097V0.806641H50.8201V2.8613H52.6531V4.59079H50.8201V7.23672C50.8201 8.28621 51.3525 8.61143 52.6386 8.61143Z" fill="#070609"/>
<path d="M46.972 8.61143C47.312 8.61143 47.6226 8.61143 47.992 8.58187V10.3705C47.6081 10.4 47.3419 10.4 46.987 10.4C44.0603 10.4 43.1436 9.29139 43.1436 7.11848V4.59079H41.2812V2.8613H43.1436V0.806641H45.154V2.8613H46.987V4.59079H45.154V7.23672C45.154 8.28621 45.6864 8.61143 46.972 8.61143Z" fill="#070609"/>
<path d="M35.9952 7.16279V7.26627C35.9952 8.34533 36.5421 8.84791 37.5768 8.84791C38.4489 8.84791 38.9219 8.5523 39.0846 8.04971H40.9175C40.5628 9.58703 39.395 10.5183 37.6655 10.5183H37.429C35.3595 10.5183 34.0439 9.26181 34.0439 6.85237V6.32022C34.0439 3.85166 35.4039 2.62476 37.429 2.62476H37.5768C39.6019 2.62476 40.9619 3.88122 40.9619 6.2611V7.16279H35.9952ZM37.4881 4.29512C36.5421 4.29512 36.0395 4.78291 35.9952 5.83244H39.0106C38.9663 4.78291 38.4194 4.29512 37.4881 4.29512Z" fill="#070609"/>
<path d="M30.2351 10.5183C27.5892 10.5183 26.6727 9.52786 26.584 7.93147H28.5943C28.6386 8.74447 29.0969 8.9366 30.2646 8.9366C31.3881 8.9366 31.6985 8.75923 31.6985 8.22708C31.6985 7.54713 31.1515 7.54713 29.7473 7.28103C28.0178 6.95586 26.6579 6.58632 26.6579 4.91595C26.6579 3.37864 27.87 2.62476 30.0281 2.62476C32.3932 2.62476 33.5167 3.423 33.5758 5.19681H31.5654C31.5063 4.44293 31.1515 4.20644 29.969 4.20644C28.9047 4.20644 28.5795 4.38381 28.5795 4.84203C28.5795 5.35942 28.9047 5.43334 30.4864 5.72895C32.5854 6.12805 33.6497 6.48283 33.6497 8.12359C33.6497 9.82352 32.5262 10.5183 30.2351 10.5183Z" fill="#070609"/>
<path d="M22.8493 10.5183C20.2034 10.5183 19.2869 9.52786 19.1982 7.93147H21.2085C21.2529 8.74447 21.7111 8.9366 22.8789 8.9366C24.0023 8.9366 24.3127 8.75923 24.3127 8.22708C24.3127 7.54713 23.7658 7.54713 22.3616 7.28103C20.6321 6.95586 19.2721 6.58632 19.2721 4.91595C19.2721 3.37864 20.4843 2.62476 22.6424 2.62476C25.0075 2.62476 26.1309 3.423 26.19 5.19681H24.1797C24.1206 4.44293 23.7658 4.20644 22.5832 4.20644C21.519 4.20644 21.1938 4.38381 21.1938 4.84203C21.1938 5.35942 21.519 5.43334 23.1006 5.72895C25.1997 6.12805 26.264 6.48283 26.264 8.12359C26.264 9.82352 25.1405 10.5183 22.8493 10.5183Z" fill="#070609"/>
<path d="M14.1478 10.4592C12.5366 10.4592 11.7236 9.72012 11.7236 8.24197C11.7236 6.57161 12.8175 5.78817 15.1382 5.78817H16.6608V5.34475C16.6608 4.53175 16.3355 4.25089 15.36 4.25089C14.3104 4.25089 14 4.51694 14 5.22646H12.0489C12.0489 3.48221 13.054 2.63965 15.2861 2.63965H15.4339C17.6807 2.63965 18.6415 3.40833 18.6415 5.28558V10.3114H16.6608V9.70536L16.7494 8.30109H16.6903C16.4538 9.76449 15.6408 10.4592 14.1478 10.4592ZM14.9904 8.78888C16.173 8.78888 16.6903 8.25673 16.6903 7.089H15.1382C14.0887 7.089 13.7635 7.35505 13.7635 7.96112C13.7635 8.59671 14.1922 8.78888 14.9904 8.78888Z" fill="#070609"/>
<path d="M3.24902 2.75678V0.841553H6.5764C10.1085 0.841553 11.4566 1.96773 11.4566 4.59551C11.4566 6.71586 10.5789 7.85856 8.3843 8.22081V6.16533C8.89413 5.93649 9.41636 5.77289 9.41636 4.59551C9.41636 3.41813 8.50458 2.75131 6.84942 2.75131H5.56969V2.75678H3.24902Z" fill="#070609"/>
<path d="M3.24902 3.95898V10.4592H5.56965L5.56969 8.34962H6.5764C6.96921 8.34962 7.33494 8.33572 7.67487 8.30733V6.16548C7.42195 6.16548 7.16106 6.16548 6.84942 6.16548H5.56969V3.95898H3.24902Z" fill="#070609"/>
<path d="M1.17773 8.34605H7.67536V6.15259H1.17773V8.34605Z" fill="#070609"/>
<path d="M3.25 3.95898V10.4566H5.60213V3.95898H3.25Z" fill="#070609"/>
<path d="M16.012 16.7036C15.6975 16.7036 15.4239 16.6313 15.1912 16.4866C14.9617 16.3388 14.7825 16.1376 14.6535 15.8829C14.5277 15.625 14.4648 15.331 14.4648 15.0008C14.4648 14.6738 14.5277 14.3813 14.6535 14.1235C14.7793 13.8656 14.9617 13.6628 15.2007 13.515C15.4397 13.364 15.729 13.2886 16.0686 13.2886C16.4396 13.2886 16.7478 13.3782 16.9931 13.5574C17.2415 13.7367 17.4019 13.9836 17.4742 14.298H17.0167C16.9727 14.0999 16.8673 13.9426 16.7007 13.8263C16.5371 13.7099 16.3264 13.6518 16.0686 13.6518C15.8076 13.6518 15.5875 13.7115 15.4082 13.831C15.229 13.9505 15.0938 14.1125 15.0026 14.3169C14.9145 14.5181 14.8705 14.7461 14.8705 15.0008C14.8705 15.2587 14.9161 15.4898 15.0073 15.6942C15.0985 15.8986 15.2305 16.059 15.4035 16.1753C15.5764 16.2917 15.784 16.3499 16.0262 16.3499C16.3784 16.3499 16.644 16.2476 16.8233 16.0432C17.0025 15.8357 17.1048 15.5527 17.1299 15.1942H15.9412V14.8829H17.5355V16.647H17.1723L17.1393 16.1045C17.0198 16.2964 16.8736 16.4442 16.7007 16.548C16.5277 16.6517 16.2981 16.7036 16.012 16.7036ZM18.9357 16.647V13.6707H17.9499V13.3452H20.3177V13.6707H19.3319V16.647H18.9357ZM20.8015 16.647V13.3452H21.2638L22.4053 15.6376L23.5373 13.3452H24.0043V16.647H23.6081V14.0621L22.5515 16.1753H22.2543L21.1978 14.0669V16.647H20.8015ZM27.0033 16.7036C26.78 16.7036 26.5772 16.6627 26.3948 16.581C26.2156 16.4992 26.0725 16.3813 25.9656 16.2272C25.8618 16.07 25.8099 15.8797 25.8099 15.6565H26.225C26.225 15.8766 26.2973 16.0511 26.442 16.18C26.5866 16.3058 26.7737 16.3687 27.0033 16.3687C27.2045 16.3687 27.3712 16.32 27.5033 16.2225C27.6385 16.125 27.7061 15.9867 27.7061 15.8074C27.7061 15.6848 27.6841 15.5873 27.64 15.5149C27.5992 15.4395 27.5363 15.3781 27.4514 15.331C27.3665 15.2807 27.2596 15.2335 27.1306 15.1895C27.0017 15.1455 26.8492 15.0936 26.6731 15.0338C26.5159 14.9772 26.3806 14.9128 26.2675 14.8404C26.1574 14.7681 26.0725 14.6801 26.0127 14.5763C25.953 14.4694 25.9231 14.342 25.9231 14.1942C25.92 13.9993 25.964 13.8358 26.0552 13.7037C26.1495 13.5684 26.2753 13.4663 26.4326 13.3971C26.5929 13.3247 26.769 13.2886 26.9608 13.2886C27.1558 13.2886 27.3303 13.3247 27.4844 13.3971C27.6416 13.4663 27.7674 13.57 27.8618 13.7084C27.9561 13.8436 28.0048 14.0087 28.008 14.2037H27.5929C27.5929 14.037 27.5332 13.9002 27.4136 13.7933C27.2942 13.6832 27.1385 13.6282 26.9467 13.6282C26.7769 13.6219 26.6322 13.6644 26.5127 13.7555C26.3932 13.8468 26.3335 13.9804 26.3335 14.1565C26.3335 14.2728 26.3571 14.3656 26.4042 14.4348C26.4546 14.5008 26.5394 14.559 26.659 14.6093C26.7785 14.6596 26.9435 14.721 27.1542 14.7933C27.3052 14.8436 27.4404 14.8971 27.5599 14.9536C27.6794 15.0071 27.78 15.0716 27.8618 15.147C27.9435 15.2194 28.0064 15.3074 28.0504 15.4112C28.0945 15.5118 28.1165 15.636 28.1165 15.7838C28.1165 15.9819 28.0646 16.1502 27.9608 16.2885C27.8602 16.4237 27.725 16.5275 27.5552 16.5998C27.3885 16.669 27.2045 16.7036 27.0033 16.7036ZM29.3737 16.647V13.6707H28.3878V13.3452H30.7557V13.6707H29.7699V16.647H29.3737ZM31.2395 16.647V13.3452H32.2159C32.4486 13.3452 32.6467 13.3798 32.8102 13.449C32.9737 13.515 33.0995 13.6156 33.1875 13.7508C33.2756 13.886 33.3196 14.0574 33.3196 14.265C33.3196 14.5228 33.252 14.7178 33.1168 14.8499C32.9847 14.9819 32.8039 15.0684 32.5744 15.1093L33.5225 16.647H33.0319L32.1829 15.1847H31.6357V16.647H31.2395ZM31.6357 14.8499H32.2065C32.3826 14.8499 32.5225 14.8294 32.6262 14.7885C32.73 14.7445 32.8039 14.6785 32.8479 14.5904C32.892 14.5024 32.914 14.3939 32.914 14.265C32.914 14.1329 32.892 14.0229 32.8479 13.9348C32.8039 13.8468 32.73 13.7823 32.6262 13.7414C32.5225 13.6974 32.3826 13.6754 32.2065 13.6754H31.6357V14.8499ZM33.828 16.647L35.0449 13.3452H35.4648L36.677 16.647H36.2572L35.9553 15.798H34.5497L34.2431 16.647H33.828ZM34.6676 15.4772H35.8374L35.2525 13.8452L34.6676 15.4772ZM37.5683 16.647V13.6707H36.5825V13.3452H38.9504V13.6707H37.9645V16.647H37.5683ZM39.4342 16.647V13.3452H41.4765V13.6707H39.8304V14.7414H41.269V15.0621H39.8304V16.3215H41.4765V16.647H39.4342ZM43.5165 16.7036C43.2018 16.7036 42.9284 16.6313 42.6957 16.4866C42.4662 16.3388 42.2869 16.1376 42.1579 15.8829C42.0321 15.625 41.9691 15.331 41.9691 15.0008C41.9691 14.6738 42.0321 14.3813 42.1579 14.1235C42.2838 13.8656 42.4662 13.6628 42.7052 13.515C42.9442 13.364 43.2335 13.2886 43.573 13.2886C43.9443 13.2886 44.2521 13.3782 44.4975 13.5574C44.746 13.7367 44.9062 13.9836 44.9787 14.298H44.521C44.4771 14.0999 44.3716 13.9426 44.205 13.8263C44.0416 13.7099 43.8311 13.6518 43.573 13.6518C43.3118 13.6518 43.0918 13.7115 42.9126 13.831C42.7333 13.9505 42.5984 14.1125 42.5069 14.3169C42.4191 14.5181 42.3747 14.7461 42.3747 15.0008C42.3747 15.2587 42.4205 15.4898 42.5119 15.6942C42.6029 15.8986 42.7351 16.059 42.908 16.1753C43.081 16.2917 43.2883 16.3499 43.5305 16.3499C43.8827 16.3499 44.1484 16.2476 44.3277 16.0432C44.507 15.8357 44.6093 15.5527 44.6342 15.1942H43.4458V14.8829H45.0398V16.647H44.6767L44.6437 16.1045C44.5242 16.2964 44.3779 16.4442 44.205 16.548C44.0321 16.6517 43.8026 16.7036 43.5165 16.7036ZM46.2983 16.647V15.3923L45.2231 13.3452H45.6708L46.4966 15.0149L47.3218 13.3452H47.7655L46.6944 15.3923V16.647H46.2983Z" fill="#070609"/>
</g>
<defs>
<clipPath id="clip0_5746_109861">
<rect width="60.4069" height="15.8444" fill="white" transform="translate(0.688477 0.86377)"/>
</clipPath>
</defs>
</svg>
