<svg width="120" height="40" viewBox="0 0 120 40" fill="none" xmlns="http://www.w3.org/2000/svg">
<g opacity="0.6">
<path fill-rule="evenodd" clip-rule="evenodd" d="M14.1669 4.00773C6.18554 4.27943 0 11.2077 0 19.3586L0.0665115 35.3208C0.0665115 35.7283 0.399068 36 0.731624 36H1.39674C4.52276 36 7.31623 35.1849 9.17855 32.8076C11.3069 33.6906 13.6348 34.0302 16.1622 33.8264C23.4785 33.0793 29.1319 26.7623 29.3314 19.2227C29.4645 10.6643 22.5473 3.73603 14.1669 4.00773ZM2.06185 33.8944V31.1774C4.65579 30.8378 6.71763 28.5283 6.71763 25.7435V24.385V18.951C6.65112 14.4681 10.2427 10.8001 14.6325 10.8001C19.0222 10.8001 22.6138 14.4001 22.6138 18.8831C22.6138 23.3661 19.0887 27.034 14.699 27.1019C13.5018 27.1019 12.3711 26.8302 11.3734 26.3548V23.1623C12.3046 23.9095 13.4353 24.3171 14.699 24.3171C17.6255 24.3171 20.0199 21.8718 20.0199 18.8831C20.0199 15.8945 17.6255 13.4492 14.699 13.4492C11.7725 13.4492 9.37808 15.8945 9.37808 18.8831V24.9284V26.3548C9.37808 30.7019 6.18554 33.5547 2.06185 33.8944ZM11.3069 18.951C11.3069 17.0492 12.7702 15.5548 14.6325 15.5548C16.4948 15.5548 17.958 17.0492 17.958 18.951C17.958 20.8529 16.4948 22.3472 14.6325 22.3472C12.8367 22.3472 11.3734 20.8529 11.3069 18.951ZM14.699 31.8566C13.1692 31.8566 11.6395 31.5849 10.3092 31.0415C10.7083 30.2264 11.0409 29.4114 11.1739 28.4604C12.3046 28.868 13.4353 29.1397 14.699 29.0717C20.2194 29.0717 24.6757 24.4529 24.6092 18.8152C24.6092 13.2454 20.1529 8.76242 14.6325 8.76242C9.11204 8.76242 4.65579 13.3813 4.7223 19.019V25.8114C4.7223 27.4416 3.59161 28.8 2.06185 29.1397L1.99534 19.6982C1.99534 19.6982 1.99534 19.2227 1.99534 19.019C1.99534 11.8869 7.64879 6.04546 14.6325 6.04546C21.6161 6.04546 27.2696 11.7511 27.3361 18.8831C27.3361 26.0152 21.6827 31.8566 14.699 31.8566Z" fill="#8C8CA6"/>
<path fill-rule="evenodd" clip-rule="evenodd" d="M34.666 15.2265C34.666 14.895 34.9234 14.6298 35.2452 14.6298H36.7253C37.0471 14.6298 37.3045 14.895 37.3045 15.2265V16.3536H37.3689C37.755 15.6243 38.3342 15.1602 39.0421 14.8287C39.75 14.4972 40.4579 14.3646 41.2945 14.3646C42.1311 14.3646 42.9033 14.4972 43.6112 14.8287C44.3191 15.1602 44.8983 15.558 45.3488 16.0884C45.8636 16.6188 46.1854 17.2818 46.4428 18.011C46.7002 18.7403 46.8289 19.5359 46.8289 20.3978C46.8289 21.2597 46.7002 22.0552 46.4428 22.7845C46.1854 23.5138 45.7993 24.1768 45.3488 24.7072C44.8983 25.2376 44.3191 25.7017 43.6112 25.9668C42.9677 26.2983 42.1954 26.4309 41.4232 26.4309C40.9084 26.4309 40.3935 26.3646 40.0074 26.232C39.6213 26.0994 39.2352 25.9669 38.9134 25.768C38.5916 25.5691 38.3342 25.3702 38.1411 25.1713C37.9481 24.9724 37.755 24.7735 37.6263 24.5746H37.5619V30.9392C37.5619 31.2707 37.3045 31.5359 36.9828 31.5359H35.2452C34.9234 31.5359 34.666 31.2707 34.666 30.9392V15.2265ZM43.9974 20.3978C43.9974 19.9337 43.933 19.5359 43.8043 19.0718C43.6756 18.674 43.4182 18.2762 43.1607 17.9448C42.9033 17.6133 42.5172 17.3481 42.1311 17.1492C41.6806 17.0166 41.2301 16.9503 40.7153 16.9503C40.2005 16.9503 39.75 17.0166 39.2995 17.2155C38.9134 17.4144 38.5273 17.6796 38.2698 18.011C38.0124 18.3425 37.755 18.674 37.6263 19.1381C37.4976 19.5359 37.4332 20 37.4332 20.4641C37.4332 20.9282 37.4976 21.326 37.6263 21.7901C37.755 22.1878 38.0124 22.5856 38.2698 22.9171C38.5273 23.2486 38.9134 23.5138 39.2995 23.7127C39.6856 23.9116 40.1361 23.9779 40.7153 23.9779C41.2301 23.9779 41.6806 23.9116 42.1311 23.7127C42.5172 23.5138 42.9033 23.2486 43.1607 22.9171C43.4182 22.5856 43.6756 22.2541 43.8043 21.7901C43.933 21.2597 43.9974 20.8619 43.9974 20.3978ZM54.9375 24.7072C54.9375 24.6409 54.9375 24.6409 54.8732 24.6409C54.4871 25.3039 53.9722 25.768 53.3287 26.0994C52.6851 26.3646 52.0416 26.5635 51.2694 26.5635C50.7545 26.5635 50.2397 26.4972 49.7249 26.3646C49.21 26.232 48.8239 26.0331 48.4378 25.7017C48.0517 25.4365 47.7299 25.0387 47.5368 24.6409C47.2794 24.1768 47.2151 23.7127 47.2151 23.116C47.2151 22.5193 47.3438 21.9227 47.5368 21.5249C47.7299 21.0608 48.0517 20.7293 48.4378 20.3978C48.8239 20.1326 49.21 19.8674 49.7249 19.6685C50.2397 19.4696 50.6902 19.337 51.2694 19.2707C51.7842 19.2044 52.299 19.1381 52.8782 19.0718C53.393 19.0718 53.9079 19.0055 54.3584 19.0055H55.0662V18.674C55.0662 17.9448 54.8088 17.4144 54.3584 17.0166C53.8435 16.6851 53.2643 16.4862 52.4921 16.4862C51.9129 16.4862 51.3337 16.6188 50.8189 16.8177C50.5615 16.9503 50.1753 17.1492 49.9179 17.3481C49.6605 17.547 49.3387 17.4807 49.0813 17.2818L48.4378 16.6188C48.1804 16.3536 48.1804 15.9558 48.5021 15.6906C48.9526 15.3591 49.6605 14.8287 50.1753 14.6961C51.0119 14.4309 51.8485 14.232 52.7495 14.232C53.5218 14.232 54.2296 14.2983 54.7445 14.4972C55.3237 14.6961 55.7741 14.895 56.0959 15.2265C56.482 15.4917 56.7395 15.8232 56.9325 16.221C57.1256 16.6188 57.2543 16.9503 57.3829 17.3481C57.4472 17.7459 57.5116 18.0773 57.5116 18.4751C57.5116 18.8066 57.5116 19.1381 57.5116 19.4033V25.5691C57.5116 25.9006 57.2543 26.1657 56.9325 26.1657H55.6454C55.3237 26.1657 55.0662 25.9006 55.0662 25.5691V24.7072H54.9375ZM54.8088 20.9945H54.2296C53.8435 20.9945 53.393 20.9945 52.9426 21.0608C52.4277 21.0608 51.9773 21.1934 51.5911 21.2597C51.1406 21.3923 50.8189 21.5249 50.4971 21.7901C50.1753 22.0552 50.0466 22.3204 50.0466 22.7845C50.0466 23.0497 50.111 23.3149 50.2397 23.4475C50.3684 23.6464 50.4971 23.779 50.6902 23.9116C50.8832 24.0442 51.0763 24.1105 51.3337 24.1768C51.5911 24.2431 51.7842 24.2431 52.0416 24.2431C53.0069 24.2431 53.7148 23.9779 54.1653 23.5138C54.6158 23.0497 54.8732 22.3867 54.8732 21.5912V20.9945H54.8088ZM58.3482 17.0829C58.0264 17.0829 57.769 16.8177 57.769 16.4862V15.2928C57.769 14.9613 58.0264 14.6961 58.3482 14.6961H60.0857V11.9779C60.0857 11.6464 60.3432 11.3812 60.6649 11.3812H62.2738C62.5955 11.3812 62.853 11.6464 62.853 11.9779V14.6961H65.3628C65.6845 14.6961 65.942 14.9613 65.942 15.2928V16.4862C65.942 16.8177 65.6845 17.0829 65.3628 17.0829H62.853V22.1878C62.853 22.7845 62.9817 23.2486 63.1747 23.5801C63.3678 23.9116 63.8183 24.1105 64.3975 24.1105C64.6549 24.1105 64.9123 24.1105 65.2341 24.0442C65.5558 23.9779 65.942 24.1768 65.942 24.5746V25.768C65.942 26.0331 65.8132 26.2983 65.5558 26.3646C65.3628 26.4309 65.1053 26.4972 64.8479 26.4972C64.3975 26.5635 64.0113 26.5635 63.6896 26.5635C62.9173 26.5635 62.3381 26.4972 61.8233 26.2983C61.3728 26.0994 60.9867 25.9006 60.7293 25.5028C60.4719 25.1713 60.2788 24.7072 60.1501 24.2431C60.0214 23.7127 60.0214 23.116 60.0214 22.453V17.1492H58.3482V17.0829ZM69.4814 16.1547C69.4814 16.221 69.4814 16.221 69.4814 16.1547C69.7388 15.6906 70.125 15.2928 70.7042 14.895C71.2833 14.4972 71.9912 14.2983 72.8278 14.2983C73.6001 14.2983 74.2436 14.4309 74.7585 14.6961C75.2733 14.9613 75.7238 15.2928 76.0455 15.6906C76.3673 16.0884 76.6247 16.6188 76.7534 17.1492C76.8821 17.6796 76.9465 18.2762 76.9465 18.8729V25.5691C76.9465 25.9006 76.6891 26.1657 76.3673 26.1657H74.7585C74.4367 26.1657 74.1793 25.9006 74.1793 25.5691V20.3315C74.1793 20 74.1793 19.6685 74.1149 19.2707C74.1149 18.8729 73.9862 18.4751 73.8575 18.1436C73.7288 17.8122 73.5357 17.4807 73.214 17.2818C72.9565 17.0166 72.5704 16.9503 72.0556 16.9503C71.6051 16.9503 71.219 17.0166 70.8972 17.2155C70.5754 17.3481 70.318 17.6133 70.125 17.8785C69.9319 18.1436 69.7388 18.4751 69.6745 18.8066C69.6101 19.1381 69.5458 19.5359 69.5458 19.9337V25.5691C69.5458 25.9006 69.2884 26.1657 68.9666 26.1657H67.3577C67.036 26.1657 66.7786 25.9006 66.7786 25.5691V8.59668C66.7786 8.26519 67.036 8 67.3577 8H68.9666C69.2884 8 69.5458 8.26519 69.5458 8.59668V16.1547H69.4814ZM78.6841 8.59668C78.6841 8.26519 78.9415 8 79.2632 8H80.8721C81.1939 8 81.4513 8.26519 81.4513 8.59668V25.5691C81.4513 25.9006 81.1939 26.1657 80.8721 26.1657H79.2632C78.9415 26.1657 78.6841 25.9006 78.6841 25.5691V8.59668ZM83.3175 15.2265C83.3175 14.895 83.575 14.6298 83.8967 14.6298H85.5056C85.8274 14.6298 86.0848 14.895 86.0848 15.2265V25.5691C86.0848 25.9006 85.8274 26.1657 85.5056 26.1657H83.8967C83.575 26.1657 83.3175 25.9006 83.3175 25.5691V15.2265ZM82.9314 10.6519C82.9314 10.1878 83.1245 9.79006 83.4463 9.45856C83.768 9.12707 84.2185 8.92818 84.7333 8.92818C85.2482 8.92818 85.6986 9.06077 86.0204 9.39227C86.3422 9.72376 86.5353 10.1215 86.5353 10.6519C86.5353 11.1823 86.3422 11.5801 86.0204 11.9116C85.6986 12.2431 85.2482 12.3757 84.7333 12.3757C84.2185 12.3757 83.768 12.1768 83.4463 11.8453C83.0601 11.5138 82.9314 11.116 82.9314 10.6519ZM98.8269 14.6298C99.1486 14.6298 99.4061 14.895 99.4061 15.2265V25.1713C99.4061 26.232 99.2773 27.1602 99.0199 28.0221C98.7625 28.884 98.3764 29.6133 97.8616 30.1436C97.3467 30.7403 96.7032 31.2044 95.8666 31.5359C95.0943 31.8674 94.129 32 93.035 32C92.0053 32 90.9757 31.8674 90.0747 31.6022C89.4955 31.4033 88.5302 30.8729 87.951 30.4751C87.6936 30.2762 87.6293 29.8785 87.8223 29.6133L88.7876 28.2873C88.9807 28.0221 89.3668 27.9558 89.6886 28.1547C90.0747 28.4199 90.5896 28.8177 90.9757 29.0166C91.5549 29.2818 92.2628 29.4807 93.0994 29.4807C93.7429 29.4807 94.3221 29.4144 94.7726 29.2155C95.2231 29.0166 95.6092 28.7514 95.8666 28.4199C96.124 28.0884 96.3171 27.6906 96.4458 27.2265C96.5745 26.7624 96.6388 26.232 96.6388 25.6354V24.7735H96.5745C96.1884 25.3702 95.6092 25.768 94.9656 26.0331C94.3221 26.2983 93.6142 26.4309 92.9063 26.4309C92.0697 26.4309 91.2975 26.2983 90.5896 25.9668C89.8817 25.6354 89.3025 25.2376 88.7876 24.7072C88.2728 24.1768 87.8867 23.5801 87.6293 22.8508C87.3719 22.1215 87.2431 21.326 87.2431 20.5304C87.2431 19.6685 87.3719 18.8729 87.6293 18.1436C87.8867 17.4144 88.2728 16.7514 88.7233 16.221C89.2381 15.6906 89.8173 15.2265 90.4608 14.9613C91.1687 14.6298 91.941 14.4972 92.7776 14.4972C93.5498 14.4972 94.3221 14.6298 95.03 14.9613C95.7379 15.2928 96.2527 15.8232 96.7032 16.4862H96.7675V15.3591C96.7675 15.0276 97.025 14.7624 97.3467 14.7624H98.8269V14.6298ZM93.4211 16.9503C92.9063 16.9503 92.4558 17.0166 92.0697 17.2155C91.6836 17.4144 91.2975 17.6133 91.04 17.9448C90.7826 18.2099 90.5252 18.6077 90.3321 19.0055C90.1391 19.4033 90.0747 19.9337 90.0747 20.3978C90.0747 20.8619 90.1391 21.326 90.3321 21.7238C90.5252 22.1215 90.7183 22.453 91.04 22.7845C91.3618 23.116 91.6836 23.3149 92.0697 23.5138C92.4558 23.7127 92.9063 23.779 93.3568 23.779C93.8716 23.779 94.3221 23.7127 94.7726 23.5138C95.1587 23.3149 95.5448 23.116 95.8022 22.7845C96.0596 22.5193 96.3171 22.1215 96.4458 21.7238C96.5745 21.326 96.7032 20.8619 96.7032 20.3978C96.7032 19.4033 96.3814 18.5414 95.8022 17.9448C95.2874 17.2155 94.4508 16.9503 93.4211 16.9503ZM103.911 16.1547C103.911 16.221 103.975 16.221 103.911 16.1547C104.168 15.6906 104.554 15.2928 105.134 14.895C105.713 14.4972 106.421 14.2983 107.257 14.2983C108.03 14.2983 108.673 14.4309 109.188 14.6961C109.703 14.9613 110.153 15.2928 110.475 15.6906C110.797 16.0884 111.054 16.6188 111.183 17.1492C111.312 17.6796 111.376 18.2762 111.376 18.8729V25.5691C111.376 25.9006 111.118 26.1657 110.797 26.1657H109.188C108.866 26.1657 108.609 25.9006 108.609 25.5691V20.3315C108.609 20 108.609 19.6685 108.544 19.2707C108.544 18.8729 108.416 18.4751 108.287 18.1436C108.158 17.8122 107.965 17.4807 107.643 17.2818C107.386 17.0166 107 16.9503 106.485 16.9503C106.035 16.9503 105.648 17.0166 105.327 17.2155C105.005 17.3481 104.747 17.6133 104.554 17.8785C104.361 18.1436 104.168 18.4751 104.104 18.8066C104.04 19.1381 103.975 19.5359 103.975 19.9337V25.5691C103.975 25.9006 103.718 26.1657 103.396 26.1657H101.787C101.465 26.1657 101.208 25.9006 101.208 25.5691V8.59668C101.208 8.26519 101.465 8 101.787 8H103.396C103.718 8 103.975 8.26519 103.975 8.59668V16.1547H103.911ZM112.406 17.0829C112.084 17.0829 111.826 16.8177 111.826 16.4862V15.2928C111.826 14.9613 112.084 14.6961 112.406 14.6961H114.143V11.9779C114.143 11.6464 114.401 11.3812 114.722 11.3812H116.331C116.653 11.3812 116.91 11.6464 116.91 11.9779V14.6961H119.42C119.742 14.6961 119.999 14.9613 119.999 15.2928V16.4862C119.999 16.8177 119.742 17.0829 119.42 17.0829H116.91V22.1878C116.91 22.7845 117.039 23.2486 117.232 23.5801C117.425 23.9116 117.876 24.1105 118.455 24.1105C118.712 24.1105 118.97 24.1105 119.291 24.0442C119.613 23.9779 119.999 24.1768 119.999 24.5746V25.768C119.999 26.0331 119.806 26.2983 119.613 26.3646C119.42 26.4309 119.163 26.4972 118.905 26.4972C118.455 26.5635 118.069 26.5635 117.747 26.5635C116.975 26.5635 116.396 26.4972 115.881 26.2983C115.43 26.0994 115.044 25.9006 114.787 25.5028C114.529 25.1713 114.336 24.7072 114.207 24.2431C114.079 23.7127 114.079 23.116 114.079 22.453V17.1492H112.406V17.0829Z" fill="#8C8CA6"/>
</g>
</svg>
