<svg width="200" height="164" viewBox="0 0 200 164" fill="none" xmlns="http://www.w3.org/2000/svg">
<path opacity="0.6" d="M77.478 149V138.92H81.37C81.468 138.92 81.5777 138.925 81.699 138.934C81.825 138.939 81.951 138.953 82.077 138.976C82.6044 139.055 83.05 139.24 83.414 139.529C83.7827 139.814 84.0604 140.173 84.247 140.607C84.4384 141.041 84.534 141.522 84.534 142.049C84.534 142.572 84.4384 143.05 84.247 143.484C84.0557 143.918 83.7757 144.28 83.407 144.569C83.043 144.854 82.5997 145.036 82.077 145.115C81.951 145.134 81.825 145.148 81.699 145.157C81.5777 145.166 81.468 145.171 81.37 145.171H78.507V149H77.478ZM78.507 144.191H81.342C81.426 144.191 81.524 144.186 81.636 144.177C81.748 144.168 81.8577 144.151 81.965 144.128C82.3104 144.053 82.5927 143.911 82.812 143.701C83.036 143.491 83.2017 143.241 83.309 142.952C83.421 142.663 83.477 142.362 83.477 142.049C83.477 141.736 83.421 141.435 83.309 141.146C83.2017 140.852 83.036 140.6 82.812 140.39C82.5927 140.18 82.3104 140.038 81.965 139.963C81.8577 139.94 81.748 139.926 81.636 139.921C81.524 139.912 81.426 139.907 81.342 139.907H78.507V144.191ZM85.9273 149V141.44H86.8513V143.26L86.6693 143.022C86.7533 142.798 86.8629 142.593 86.9983 142.406C87.1336 142.215 87.2806 142.058 87.4393 141.937C87.6353 141.764 87.8639 141.634 88.1253 141.545C88.3866 141.452 88.6503 141.398 88.9163 141.384C89.1823 141.365 89.4249 141.384 89.6443 141.44V142.406C89.3689 142.336 89.0679 142.32 88.7413 142.357C88.4146 142.394 88.1136 142.525 87.8383 142.749C87.5863 142.945 87.3973 143.181 87.2713 143.456C87.1453 143.727 87.0613 144.016 87.0193 144.324C86.9773 144.627 86.9563 144.928 86.9563 145.227V149H85.9273ZM91.1122 140.005V138.85H92.1412V140.005H91.1122ZM91.1122 149V141.44H92.1412V149H91.1122ZM97.0608 149.203C96.1741 149.203 95.4438 149.012 94.8698 148.629C94.3004 148.246 93.9504 147.714 93.8198 147.033L94.8698 146.858C94.9818 147.287 95.2361 147.63 95.6328 147.887C96.0341 148.139 96.5288 148.265 97.1168 148.265C97.6908 148.265 98.1434 148.146 98.4748 147.908C98.8061 147.665 98.9718 147.336 98.9718 146.921C98.9718 146.688 98.9181 146.499 98.8108 146.354C98.7081 146.205 98.4958 146.067 98.1738 145.941C97.8518 145.815 97.3711 145.666 96.7318 145.493C96.0458 145.306 95.5091 145.12 95.1218 144.933C94.7344 144.746 94.4591 144.532 94.2958 144.289C94.1324 144.042 94.0508 143.741 94.0508 143.386C94.0508 142.957 94.1721 142.581 94.4148 142.259C94.6574 141.932 94.9934 141.68 95.4228 141.503C95.8521 141.321 96.3514 141.23 96.9208 141.23C97.4901 141.23 97.9988 141.323 98.4468 141.51C98.8994 141.692 99.2634 141.949 99.5388 142.28C99.8141 142.611 99.9774 142.996 100.029 143.435L98.9788 143.624C98.9088 143.181 98.6871 142.831 98.3138 142.574C97.9451 142.313 97.4761 142.177 96.9068 142.168C96.3701 142.154 95.9338 142.257 95.5978 142.476C95.2618 142.691 95.0938 142.978 95.0938 143.337C95.0938 143.538 95.1544 143.71 95.2758 143.855C95.3971 143.995 95.6164 144.128 95.9338 144.254C96.2558 144.38 96.7131 144.518 97.3058 144.667C98.0011 144.844 98.5471 145.031 98.9438 145.227C99.3404 145.423 99.6228 145.654 99.7908 145.92C99.9588 146.186 100.043 146.515 100.043 146.907C100.043 147.621 99.7768 148.183 99.2448 148.594C98.7174 149 97.9894 149.203 97.0608 149.203ZM110.611 149L110.618 144.037C110.618 143.454 110.455 142.996 110.128 142.665C109.806 142.329 109.396 142.161 108.896 142.161C108.612 142.161 108.334 142.226 108.063 142.357C107.793 142.488 107.569 142.698 107.391 142.987C107.219 143.276 107.132 143.654 107.132 144.121L106.523 143.946C106.509 143.405 106.614 142.931 106.838 142.525C107.067 142.119 107.38 141.804 107.776 141.58C108.178 141.351 108.63 141.237 109.134 141.237C109.895 141.237 110.504 141.473 110.961 141.944C111.419 142.411 111.647 143.043 111.647 143.841L111.64 149H110.611ZM101.588 149V141.44H102.512V143.302H102.624V149H101.588ZM106.11 149L106.117 144.107C106.117 143.505 105.956 143.031 105.634 142.686C105.317 142.336 104.897 142.161 104.374 142.161C103.852 142.161 103.429 142.341 103.107 142.7C102.785 143.055 102.624 143.528 102.624 144.121L102.008 143.785C102.008 143.3 102.123 142.866 102.351 142.483C102.58 142.096 102.893 141.792 103.289 141.573C103.686 141.349 104.136 141.237 104.64 141.237C105.121 141.237 105.548 141.34 105.921 141.545C106.299 141.75 106.596 142.049 106.81 142.441C107.025 142.833 107.132 143.309 107.132 143.869L107.125 149H106.11ZM113.602 140.005V138.85H114.631V140.005H113.602ZM113.602 149V141.44H114.631V149H113.602ZM119.866 149.21C119.105 149.21 118.461 149.04 117.934 148.699C117.407 148.358 117.005 147.889 116.73 147.292C116.459 146.69 116.319 145.999 116.31 145.22C116.319 144.427 116.464 143.731 116.744 143.134C117.024 142.532 117.428 142.065 117.955 141.734C118.482 141.398 119.122 141.23 119.873 141.23C120.638 141.23 121.303 141.417 121.868 141.79C122.437 142.163 122.827 142.674 123.037 143.323L122.029 143.645C121.852 143.192 121.569 142.842 121.182 142.595C120.799 142.343 120.361 142.217 119.866 142.217C119.311 142.217 118.851 142.345 118.487 142.602C118.123 142.854 117.852 143.206 117.675 143.659C117.498 144.112 117.407 144.632 117.402 145.22C117.411 146.125 117.621 146.853 118.032 147.404C118.443 147.95 119.054 148.223 119.866 148.223C120.379 148.223 120.816 148.106 121.175 147.873C121.539 147.635 121.814 147.29 122.001 146.837L123.037 147.145C122.757 147.817 122.346 148.33 121.805 148.685C121.264 149.035 120.617 149.21 119.866 149.21Z" fill="#0E041B"/>
<path fill-rule="evenodd" clip-rule="evenodd" d="M126.901 67.7347L131.672 72.5539C132.049 72.936 132.263 73.4558 132.263 73.9955V76.7066C132.263 83.9707 131.514 86.6058 130.107 89.2626C128.734 91.8861 126.61 94.0327 124.011 95.4237C121.381 96.8418 118.773 97.5988 111.582 97.5988H98.9558C98.7928 97.5979 98.6462 97.4984 98.5842 97.3463C98.5221 97.1943 98.5568 97.0196 98.672 96.9033V96.9051L103.441 92.086C103.818 91.7038 104.332 91.4883 104.867 91.4883H110.704C116.096 91.4883 118.051 90.9215 120.023 89.8548C121.972 88.8119 123.566 87.2022 124.596 85.2348C125.633 83.2759 126.194 81.3327 126.213 76.087L126.213 68.0227C126.214 67.8588 126.312 67.7113 126.462 67.6485C126.612 67.5857 126.785 67.6196 126.901 67.7347ZM68.4238 63.6581L73.1966 68.4773C73.5739 68.8594 73.7876 69.3792 73.7876 69.9188V75.8156C73.7876 81.265 74.3481 83.2409 75.4043 85.233C76.4344 87.2002 78.0272 88.8098 79.9759 89.853C81.9483 90.9197 83.9045 91.4865 89.297 91.4865H97.0104C97.1741 91.4859 97.322 91.5849 97.3849 91.7373C97.4479 91.8896 97.4135 92.0652 97.2978 92.182L92.525 97.0011C92.1478 97.3833 91.634 97.5988 91.1005 97.5988H88.4168C81.2262 97.5988 78.6197 96.8418 75.9899 95.4219C73.3903 94.0312 71.2655 91.8845 69.8914 89.2607C68.5044 86.6409 67.7568 84.0421 67.7363 77.0048L67.7358 63.946C67.7367 63.7821 67.8349 63.6347 67.985 63.5719C68.1352 63.509 68.3081 63.543 68.4238 63.6581ZM116.82 57.5458L121.591 62.3704C121.968 62.7526 122.18 63.2705 122.18 63.812V79.2674C122.18 83.7679 118.57 87.4171 114.115 87.4171H109.008C108.847 87.4163 108.701 87.319 108.638 87.1694C108.575 87.0199 108.606 86.8468 108.717 86.7289V86.7271L114.932 80.1548C115.363 79.7202 115.676 79.2131 115.872 78.6698C116.043 78.2095 116.131 77.7217 116.13 77.23V57.8338C116.131 57.6691 116.229 57.5207 116.38 57.4577C116.531 57.3947 116.705 57.4294 116.82 57.5458ZM78.5012 73.809H78.4994L85.0056 80.0896C85.4349 80.5243 85.9397 80.8394 86.475 81.0368C86.9169 81.2071 87.3983 81.2994 87.9013 81.2994H107.097C107.26 81.3003 107.406 81.3998 107.468 81.5518C107.53 81.7039 107.496 81.8786 107.381 81.9949L102.606 86.8158C102.229 87.1962 101.715 87.4117 101.181 87.4117H85.884C83.7425 87.4093 81.6897 86.5493 80.1772 85.0209C78.6646 83.4926 77.8162 81.421 77.8186 79.262V74.1023C77.8193 73.9398 77.9159 73.7932 78.0642 73.7295C78.2126 73.6657 78.3843 73.6968 78.5012 73.809ZM90.9909 42.5885C91.1522 42.5893 91.2975 42.6866 91.3608 42.8361C91.424 42.9857 91.3932 43.1588 91.2819 43.2767L85.0649 49.8507C84.6338 50.2854 84.323 50.7925 84.1272 51.3358C83.9549 51.7959 83.8667 52.2837 83.8668 52.7756V72.1718C83.8652 72.3354 83.7667 72.4821 83.6167 72.5445C83.4667 72.6069 83.2943 72.5728 83.1788 72.4579L78.4077 67.6333C78.0301 67.2509 77.8183 66.7332 77.8186 66.1935V50.7381C77.8186 46.2377 81.4292 42.5885 85.884 42.5885H90.9909ZM124.011 34.5782C126.61 35.9692 128.734 38.1159 130.107 40.7394C131.494 43.3593 132.242 45.958 132.263 52.9953L132.263 66.0541C132.263 66.2188 132.164 66.3672 132.014 66.4302C131.863 66.4932 131.689 66.4584 131.573 66.342V66.3402L126.804 61.5229C126.425 61.1403 126.213 60.6218 126.213 60.0813V54.1845C126.213 48.7351 125.651 46.7593 124.596 44.7671C123.566 42.7997 121.972 41.1901 120.023 40.1472C118.052 39.0805 116.096 38.5136 110.704 38.5136H102.989C102.825 38.5128 102.679 38.4132 102.617 38.2612C102.555 38.1092 102.589 37.9345 102.705 37.8182L107.474 32.999C107.851 32.6169 108.365 32.4014 108.9 32.4014H111.582C118.773 32.4014 121.381 33.1584 124.011 34.5782ZM101.043 32.4014C101.206 32.4022 101.353 32.5018 101.415 32.6538C101.477 32.8058 101.442 32.9805 101.327 33.0968L96.5577 37.916C96.1787 38.2981 95.6667 38.5136 95.1314 38.5136H89.2952C83.9027 38.5136 81.9465 39.0805 79.9741 40.1472C78.0247 41.1901 76.4313 42.7997 75.4007 44.7671C74.3463 46.7593 73.784 48.7351 73.784 54.1845V61.9793C73.7832 62.1432 73.685 62.2906 73.5348 62.3534C73.3847 62.4163 73.2118 62.3823 73.096 62.2672L68.3286 57.448C67.9493 57.0658 67.7358 56.5472 67.7358 56.0064V53.2953C67.7358 46.0312 68.4849 43.3962 69.8914 40.7394C71.265 38.1159 73.3891 35.9692 75.9881 34.5782C78.5814 33.1781 81.1537 32.4225 88.1181 32.4018L101.043 32.4014ZM114.115 42.5885C118.57 42.5885 122.18 46.2377 122.18 50.7381V55.8978C122.18 56.0604 122.083 56.2069 121.935 56.2707C121.786 56.3344 121.615 56.3033 121.498 56.1912L114.995 49.9105C114.564 49.4758 114.061 49.1607 113.524 48.9633C113.068 48.7893 112.585 48.7003 112.098 48.7007H92.9022C92.7389 48.7006 92.5916 48.6013 92.5291 48.4491C92.4667 48.297 92.5012 48.1218 92.6166 48.0053L97.393 43.1843C97.7702 42.804 98.2822 42.5885 98.8175 42.5885H114.115Z" fill="#0D041B" fill-opacity="0.75"/>
</svg>
