<svg width="24" height="25" viewBox="0 0 24 25" fill="none" xmlns="http://www.w3.org/2000/svg">
<path fill-rule="evenodd" clip-rule="evenodd" d="M20 7.68769L19.6493 8.08713L15.3816 12.9478C15.3266 12.709 15.2523 12.4762 15.1597 12.2515C15.0541 11.9954 14.9249 11.7499 14.7737 11.5182C14.6068 11.2624 14.4132 11.0234 14.1952 10.8054C13.9882 10.5984 13.7621 10.4133 13.5206 10.2522L13.4825 10.227C13.0474 9.94315 12.5638 9.73661 12.0529 9.61912L17.3127 5.00098H18C19.1046 5.00098 20 5.89641 20 7.00098V7.48762V7.68769ZM20 9.80959V21.001C20 22.1055 19.1046 23.001 18 23.001H4C2.89543 23.001 2 22.1055 2 21.001V7.00098C2 5.89641 2.89543 5.00098 4 5.00098H15.1908L10.5582 9.06843C10.0807 9.11545 9.61182 9.23264 9.16689 9.41696C8.57049 9.66403 8.02897 10.0268 7.5736 10.4844C7.03135 11.0273 6.69143 11.7702 6.46474 12.4187C6.22664 13.0999 6.05763 13.8445 5.93632 14.5246C5.69392 15.8834 5.61762 17.1262 5.60313 17.3921C5.58857 17.6495 5.62654 17.9072 5.71473 18.1495C5.80335 18.393 5.94081 18.6158 6.11868 18.8043C6.29654 18.9927 6.51105 19.1428 6.74903 19.2453C6.97704 19.3435 7.22198 19.3961 7.47 19.4001C7.51418 19.4013 7.5584 19.4008 7.60255 19.3984L7.60457 19.3983C7.8676 19.3841 9.1141 19.3077 10.4765 19.0645C11.1566 18.9431 11.9011 18.774 12.582 18.536C13.2302 18.3094 13.9734 17.9693 14.5158 17.4265C15.2025 16.7401 15.6701 15.8655 15.8598 14.9133C15.8907 14.7581 15.914 14.6019 15.9297 14.4454L20 9.80959ZM10.0357 10.5918C10.363 10.4937 10.7035 10.444 11.0464 10.4449C11.3156 10.4451 11.5824 10.4761 11.8419 10.5366C12.2514 10.6321 12.6426 10.801 12.9957 11.0371C13.1876 11.1655 13.3655 11.3118 13.5271 11.4736C13.8514 11.798 14.1105 12.1845 14.2876 12.6124C14.3612 12.7903 14.4197 12.9731 14.463 13.159C14.5757 13.6432 14.5847 14.1481 14.4867 14.6399C14.4653 14.7477 14.4388 14.8542 14.4075 14.9589C14.2413 15.5153 13.9391 16.0235 13.526 16.4364C12.2544 17.71 8.00866 17.9744 7.52889 18.0004C7.51977 18.0009 7.51063 18.0009 7.5015 18.0004C7.43321 18.0004 7.36563 17.9865 7.30291 17.9595C7.24018 17.9325 7.18365 17.8929 7.13677 17.8433C7.08989 17.7936 7.05366 17.7349 7.03031 17.6707C7.00695 17.6065 6.99696 17.5383 7.00095 17.4701C7.02693 16.9922 7.28995 12.7479 8.56493 11.4729C8.89004 11.146 9.27676 10.8868 9.70271 10.7104C9.81185 10.6652 9.92301 10.6256 10.0357 10.5918Z" fill="url(#paint0_radial_155_17932)"/>
<path fill-rule="evenodd" clip-rule="evenodd" d="M21.9796 2.12582C22.1802 2.20889 22.3624 2.33065 22.5159 2.48414C22.6693 2.63762 22.7911 2.81982 22.8742 3.02035C22.9572 3.22089 23 3.43582 23 3.65288C23 3.86993 22.9572 4.08487 22.8742 4.2854C22.7911 4.48593 22.6693 4.66814 22.5159 4.82161L15.3815 12.9472C15.1949 12.1359 14.7838 11.3935 14.1951 10.8049C13.6065 10.2162 12.8641 9.8051 12.0528 9.61854L20.1784 2.48414C20.3319 2.33065 20.5141 2.20889 20.7146 2.12582C20.9151 2.04276 21.1301 2 21.3471 2C21.5642 2 21.7791 2.04276 21.9796 2.12582ZM9.70261 10.7098C10.1286 10.5333 10.5853 10.4431 11.0463 10.4443C11.7404 10.4447 12.4187 10.6507 12.9956 11.0365C13.5725 11.4223 14.0221 11.9705 14.2875 12.6118C14.5529 13.2531 14.6222 13.9586 14.4866 14.6393C14.3511 15.32 14.0168 15.9451 13.5259 16.4358C12.2543 17.7094 8.00857 17.9738 7.52879 17.9998C7.51967 18.0003 7.51053 18.0003 7.50141 17.9998C7.43311 17.9999 7.36553 17.9859 7.30281 17.9589C7.24009 17.9319 7.18355 17.8924 7.13667 17.8427C7.0898 17.793 7.05357 17.7343 7.03021 17.6701C7.00685 17.606 6.99687 17.5377 7.00086 17.4695C7.02683 16.9916 7.28985 12.7473 8.56484 11.4724C8.88994 11.1454 9.27666 10.8862 9.70261 10.7098Z" fill="url(#paint1_radial_155_17932)"/>
<defs>
<radialGradient id="paint0_radial_155_17932" cx="0" cy="0" r="1" gradientUnits="userSpaceOnUse" gradientTransform="translate(-1.01457 1.95508) rotate(47.5445) scale(71.5935 914.862)">
<stop offset="0.0263922" stop-color="#C5EAFC"/>
<stop offset="0.131767" stop-color="#83F1F1"/>
<stop offset="0.235204" stop-color="#64E8D2"/>
<stop offset="0.436949" stop-color="#3A786B" stop-opacity="0.85"/>
</radialGradient>
<radialGradient id="paint1_radial_155_17932" cx="0" cy="0" r="1" gradientUnits="userSpaceOnUse" gradientTransform="translate(4.32039 -0.707492) rotate(47.5448) scale(63.639 813.215)">
<stop offset="0.0263922" stop-color="#C5EAFC"/>
<stop offset="0.131767" stop-color="#83F1F1"/>
<stop offset="0.235204" stop-color="#64E8D2"/>
<stop offset="0.436949" stop-color="#3A786B" stop-opacity="0.85"/>
</radialGradient>
</defs>
</svg>
