<svg width="200" height="164" viewBox="0 0 200 164" fill="none" xmlns="http://www.w3.org/2000/svg">
<path opacity="0.6" d="M70.0611 149.21C69.3564 149.21 68.7217 149.093 68.1571 148.86C67.5971 148.622 67.1327 148.286 66.7641 147.852C66.4001 147.418 66.1621 146.902 66.0501 146.305L67.1001 146.13C67.2681 146.783 67.6227 147.297 68.1641 147.67C68.7054 148.039 69.3517 148.223 70.1031 148.223C70.5977 148.223 71.0411 148.146 71.4331 147.992C71.8251 147.833 72.1331 147.609 72.3571 147.32C72.5811 147.031 72.6931 146.688 72.6931 146.291C72.6931 146.03 72.6464 145.808 72.5531 145.626C72.4597 145.439 72.3361 145.285 72.1821 145.164C72.0281 145.043 71.8601 144.942 71.6781 144.863C71.4961 144.779 71.3187 144.711 71.1461 144.66L68.5911 143.897C68.2831 143.808 67.9984 143.696 67.7371 143.561C67.4757 143.421 67.2471 143.255 67.0511 143.064C66.8597 142.868 66.7104 142.639 66.6031 142.378C66.4957 142.117 66.4421 141.818 66.4421 141.482C66.4421 140.913 66.5914 140.42 66.8901 140.005C67.1887 139.59 67.5971 139.27 68.1151 139.046C68.6331 138.822 69.2234 138.712 69.8861 138.717C70.5581 138.717 71.1577 138.836 71.6851 139.074C72.2171 139.312 72.6557 139.653 73.0011 140.096C73.3464 140.535 73.5751 141.055 73.6871 141.657L72.6091 141.853C72.5391 141.414 72.3781 141.034 72.1261 140.712C71.8741 140.39 71.5521 140.143 71.1601 139.97C70.7727 139.793 70.3457 139.702 69.8791 139.697C69.4264 139.697 69.0227 139.774 68.6681 139.928C68.3181 140.077 68.0404 140.283 67.8351 140.544C67.6297 140.805 67.5271 141.104 67.5271 141.44C67.5271 141.781 67.6204 142.054 67.8071 142.259C67.9984 142.464 68.2317 142.625 68.5071 142.742C68.7871 142.859 69.0577 142.954 69.3191 143.029L71.2931 143.61C71.4984 143.666 71.7387 143.748 72.0141 143.855C72.2941 143.958 72.5647 144.107 72.8261 144.303C73.0921 144.494 73.3114 144.746 73.4841 145.059C73.6567 145.372 73.7431 145.768 73.7431 146.249C73.7431 146.716 73.6497 147.133 73.4631 147.502C73.2811 147.871 73.0221 148.181 72.6861 148.433C72.3547 148.685 71.9651 148.876 71.5171 149.007C71.0737 149.142 70.5884 149.21 70.0611 149.21ZM77.351 149.21C76.7817 149.21 76.3033 149.107 75.916 148.902C75.5333 148.697 75.2463 148.424 75.055 148.083C74.8637 147.742 74.768 147.371 74.768 146.97C74.768 146.559 74.8497 146.209 75.013 145.92C75.181 145.626 75.4073 145.386 75.692 145.199C75.9813 145.012 76.315 144.87 76.693 144.772C77.0757 144.679 77.498 144.597 77.96 144.527C78.4267 144.452 78.8817 144.389 79.325 144.338C79.773 144.282 80.165 144.228 80.501 144.177L80.137 144.401C80.151 143.654 80.0063 143.101 79.703 142.742C79.3997 142.383 78.8723 142.203 78.121 142.203C77.603 142.203 77.1643 142.32 76.805 142.553C76.4503 142.786 76.2007 143.155 76.056 143.659L75.055 143.365C75.2277 142.688 75.5753 142.163 76.098 141.79C76.6207 141.417 77.2997 141.23 78.135 141.23C78.8257 141.23 79.4113 141.361 79.892 141.622C80.3773 141.879 80.7203 142.252 80.921 142.742C81.0143 142.961 81.075 143.206 81.103 143.477C81.131 143.748 81.145 144.023 81.145 144.303V149H80.228V147.103L80.494 147.215C80.2373 147.864 79.8383 148.358 79.297 148.699C78.7557 149.04 78.107 149.21 77.351 149.21ZM77.47 148.321C77.9507 148.321 78.3707 148.235 78.73 148.062C79.0893 147.889 79.3787 147.654 79.598 147.355C79.8173 147.052 79.9597 146.711 80.025 146.333C80.081 146.09 80.1113 145.824 80.116 145.535C80.1207 145.241 80.123 145.022 80.123 144.877L80.515 145.08C80.165 145.127 79.7847 145.173 79.374 145.22C78.968 145.267 78.5667 145.32 78.17 145.381C77.778 145.442 77.4233 145.514 77.106 145.598C76.8913 145.659 76.6837 145.745 76.483 145.857C76.2823 145.964 76.1167 146.109 75.986 146.291C75.86 146.473 75.797 146.699 75.797 146.97C75.797 147.189 75.8507 147.402 75.958 147.607C76.07 147.812 76.2473 147.983 76.49 148.118C76.7373 148.253 77.064 148.321 77.47 148.321ZM83.1073 149V138.71H84.1363V149H83.1073ZM89.4339 149.21C88.6965 149.21 88.0572 149.047 87.5159 148.72C86.9792 148.393 86.5615 147.934 86.2629 147.341C85.9642 146.748 85.8149 146.053 85.8149 145.255C85.8149 144.429 85.9619 143.715 86.2559 143.113C86.5499 142.511 86.9629 142.047 87.4949 141.72C88.0315 141.393 88.6639 141.23 89.3919 141.23C90.1385 141.23 90.7755 141.403 91.3029 141.748C91.8302 142.089 92.2292 142.579 92.4999 143.218C92.7705 143.857 92.8942 144.62 92.8709 145.507H91.8209V145.143C91.8022 144.163 91.5899 143.423 91.1839 142.924C90.7825 142.425 90.1945 142.175 89.4199 142.175C88.6079 142.175 87.9849 142.439 87.5509 142.966C87.1215 143.493 86.9069 144.245 86.9069 145.22C86.9069 146.172 87.1215 146.912 87.5509 147.439C87.9849 147.962 88.5985 148.223 89.3919 148.223C89.9332 148.223 90.4045 148.099 90.8059 147.852C91.2119 147.6 91.5315 147.238 91.7649 146.767L92.7239 147.138C92.4252 147.796 91.9842 148.307 91.4009 148.671C90.8222 149.03 90.1665 149.21 89.4339 149.21ZM86.5429 145.507V144.646H92.3179V145.507H86.5429ZM97.2453 149.203C96.3587 149.203 95.6283 149.012 95.0543 148.629C94.485 148.246 94.135 147.714 94.0043 147.033L95.0543 146.858C95.1663 147.287 95.4207 147.63 95.8173 147.887C96.2187 148.139 96.7133 148.265 97.3013 148.265C97.8753 148.265 98.328 148.146 98.6593 147.908C98.9907 147.665 99.1563 147.336 99.1563 146.921C99.1563 146.688 99.1027 146.499 98.9953 146.354C98.8927 146.205 98.6803 146.067 98.3583 145.941C98.0363 145.815 97.5557 145.666 96.9163 145.493C96.2303 145.306 95.6937 145.12 95.3063 144.933C94.919 144.746 94.6437 144.532 94.4803 144.289C94.317 144.042 94.2353 143.741 94.2353 143.386C94.2353 142.957 94.3567 142.581 94.5993 142.259C94.842 141.932 95.178 141.68 95.6073 141.503C96.0367 141.321 96.536 141.23 97.1053 141.23C97.6747 141.23 98.1833 141.323 98.6313 141.51C99.084 141.692 99.448 141.949 99.7233 142.28C99.9987 142.611 100.162 142.996 100.213 143.435L99.1633 143.624C99.0933 143.181 98.8717 142.831 98.4983 142.574C98.1297 142.313 97.6607 142.177 97.0913 142.168C96.5547 142.154 96.1183 142.257 95.7823 142.476C95.4463 142.691 95.2783 142.978 95.2783 143.337C95.2783 143.538 95.339 143.71 95.4603 143.855C95.5817 143.995 95.801 144.128 96.1183 144.254C96.4403 144.38 96.8977 144.518 97.4903 144.667C98.1857 144.844 98.7317 145.031 99.1283 145.227C99.525 145.423 99.8073 145.654 99.9753 145.92C100.143 146.186 100.227 146.515 100.227 146.907C100.227 147.621 99.9613 148.183 99.4293 148.594C98.902 149 98.174 149.203 97.2453 149.203ZM102.529 149V140.88C102.529 140.684 102.538 140.49 102.557 140.299C102.58 140.108 102.624 139.926 102.69 139.753C102.755 139.576 102.858 139.412 102.998 139.263C103.152 139.095 103.32 138.974 103.502 138.899C103.684 138.82 103.873 138.768 104.069 138.745C104.269 138.722 104.465 138.71 104.657 138.71H105.623V139.578H104.727C104.335 139.578 104.041 139.674 103.845 139.865C103.653 140.056 103.558 140.357 103.558 140.768V149H102.529ZM101.22 142.322V141.44H105.623V142.322H101.22ZM109.626 149.21C108.875 149.21 108.233 149.04 107.701 148.699C107.169 148.358 106.761 147.887 106.476 147.285C106.192 146.683 106.049 145.992 106.049 145.213C106.049 144.42 106.194 143.724 106.483 143.127C106.773 142.53 107.183 142.065 107.715 141.734C108.252 141.398 108.889 141.23 109.626 141.23C110.382 141.23 111.026 141.4 111.558 141.741C112.095 142.077 112.503 142.546 112.783 143.148C113.068 143.745 113.21 144.434 113.21 145.213C113.21 146.006 113.068 146.704 112.783 147.306C112.499 147.903 112.088 148.37 111.551 148.706C111.015 149.042 110.373 149.21 109.626 149.21ZM109.626 148.223C110.466 148.223 111.092 147.945 111.502 147.39C111.913 146.83 112.118 146.104 112.118 145.213C112.118 144.298 111.911 143.57 111.495 143.029C111.085 142.488 110.462 142.217 109.626 142.217C109.062 142.217 108.595 142.345 108.226 142.602C107.862 142.854 107.589 143.206 107.407 143.659C107.23 144.107 107.141 144.625 107.141 145.213C107.141 146.123 107.351 146.853 107.771 147.404C108.191 147.95 108.81 148.223 109.626 148.223ZM114.754 149V141.44H115.678V143.26L115.496 143.022C115.58 142.798 115.69 142.593 115.825 142.406C115.961 142.215 116.108 142.058 116.266 141.937C116.462 141.764 116.691 141.634 116.952 141.545C117.214 141.452 117.477 141.398 117.743 141.384C118.009 141.365 118.252 141.384 118.471 141.44V142.406C118.196 142.336 117.895 142.32 117.568 142.357C117.242 142.394 116.941 142.525 116.665 142.749C116.413 142.945 116.224 143.181 116.098 143.456C115.972 143.727 115.888 144.016 115.846 144.324C115.804 144.627 115.783 144.928 115.783 145.227V149H114.754ZM122.799 149.21C122.038 149.21 121.394 149.04 120.867 148.699C120.339 148.358 119.938 147.889 119.663 147.292C119.392 146.69 119.252 145.999 119.243 145.22C119.252 144.427 119.397 143.731 119.677 143.134C119.957 142.532 120.36 142.065 120.888 141.734C121.415 141.398 122.054 141.23 122.806 141.23C123.571 141.23 124.236 141.417 124.801 141.79C125.37 142.163 125.76 142.674 125.97 143.323L124.962 143.645C124.784 143.192 124.502 142.842 124.115 142.595C123.732 142.343 123.293 142.217 122.799 142.217C122.243 142.217 121.784 142.345 121.42 142.602C121.056 142.854 120.785 143.206 120.608 143.659C120.43 144.112 120.339 144.632 120.335 145.22C120.344 146.125 120.554 146.853 120.965 147.404C121.375 147.95 121.987 148.223 122.799 148.223C123.312 148.223 123.748 148.106 124.108 147.873C124.472 147.635 124.747 147.29 124.934 146.837L125.97 147.145C125.69 147.817 125.279 148.33 124.738 148.685C124.196 149.035 123.55 149.21 122.799 149.21ZM130.408 149.21C129.671 149.21 129.032 149.047 128.49 148.72C127.954 148.393 127.536 147.934 127.237 147.341C126.939 146.748 126.789 146.053 126.789 145.255C126.789 144.429 126.936 143.715 127.23 143.113C127.524 142.511 127.937 142.047 128.469 141.72C129.006 141.393 129.638 141.23 130.366 141.23C131.113 141.23 131.75 141.403 132.277 141.748C132.805 142.089 133.204 142.579 133.474 143.218C133.745 143.857 133.869 144.62 133.845 145.507H132.795V145.143C132.777 144.163 132.564 143.423 132.158 142.924C131.757 142.425 131.169 142.175 130.394 142.175C129.582 142.175 128.959 142.439 128.525 142.966C128.096 143.493 127.881 144.245 127.881 145.22C127.881 146.172 128.096 146.912 128.525 147.439C128.959 147.962 129.573 148.223 130.366 148.223C130.908 148.223 131.379 148.099 131.78 147.852C132.186 147.6 132.506 147.238 132.739 146.767L133.698 147.138C133.4 147.796 132.959 148.307 132.375 148.671C131.797 149.03 131.141 149.21 130.408 149.21ZM127.517 145.507V144.646H133.292V145.507H127.517Z" fill="#0E041B"/>
<path fill-rule="evenodd" clip-rule="evenodd" d="M91.3559 35.2762C94.8726 31.6303 99.767 29.3726 105.174 29.3726C112.384 29.3726 118.632 33.3615 121.996 39.305C124.983 37.9754 128.218 37.289 131.489 37.2906C144.466 37.2906 155 47.8612 155 60.905C155 73.9487 144.466 84.5194 131.489 84.5194C129.903 84.5194 128.357 84.3606 126.843 84.0606C123.899 89.2861 118.271 92.8362 111.863 92.8362C109.254 92.8414 106.678 92.2519 104.333 91.113C101.349 98.0936 94.3999 103 86.3093 103C77.8581 103 70.6886 97.6947 67.925 90.2355C66.6949 90.494 65.4412 90.6239 64.184 90.6232C54.1307 90.6232 46 82.406 46 72.3141C46 65.5329 49.6608 59.6293 55.092 56.4382C53.9398 53.7947 53.3467 50.9432 53.3497 48.0615C53.3497 36.4138 62.8423 27 74.5377 27C81.3868 27 87.5148 30.251 91.3599 35.2969" fill="#352E3F"/>
<path fill-rule="evenodd" clip-rule="evenodd" d="M61.8773 66.3895C61.8088 66.5674 61.9017 66.6045 61.9238 66.636C62.1284 66.7836 62.3363 66.8905 62.5446 67.0105C63.6581 67.5969 64.7074 67.7684 65.8049 67.7684C68.0399 67.7684 69.4297 66.5837 69.4297 64.677V64.6395C69.4297 62.8764 67.8596 62.2342 66.3937 61.7755L66.2018 61.7137C65.0924 61.3555 64.1351 61.0435 64.1351 60.3175V60.2804C64.1351 59.6582 64.6958 59.1994 65.561 59.1994C66.5222 59.1994 67.6678 59.5182 68.4007 59.9214C68.4007 59.9214 68.6178 60.061 68.6967 59.8524C68.7396 59.7395 69.1133 58.7435 69.1533 58.6318C69.1958 58.5149 69.1213 58.4268 69.0448 58.3813C68.2037 57.8707 67.0421 57.5237 65.8405 57.5237L65.6175 57.5245C63.5707 57.5245 62.1409 58.7571 62.1409 60.5202V60.5581C62.1409 62.4169 63.7189 63.0232 65.1929 63.4421L65.43 63.5154C66.5034 63.8441 67.4327 64.1297 67.4327 64.8797V64.9172C67.4327 65.6072 66.8279 66.1218 65.8586 66.1218C65.4817 66.1218 64.2805 66.1154 62.9788 65.2961C62.8214 65.2048 62.7316 65.1389 62.6103 65.0651C62.5462 65.0264 62.386 64.9566 62.3163 65.1657L61.8757 66.3863L61.8773 66.3895ZM94.5989 66.3863C94.5305 66.5642 94.6234 66.6013 94.6462 66.6328C94.8501 66.7804 95.0587 66.8873 95.267 67.0073C96.3805 67.5937 97.4299 67.7652 98.5273 67.7652C100.762 67.7652 102.152 66.5805 102.152 64.6738V64.6363C102.152 62.8732 100.586 62.231 99.1161 61.7723L98.9243 61.7105C97.8148 61.3523 96.8575 61.0403 96.8575 60.3143V60.2772C96.8575 59.655 97.4183 59.1962 98.2834 59.1962C99.2447 59.1962 100.386 59.515 101.123 59.9182C101.123 59.9182 101.34 60.0579 101.42 59.8492C101.462 59.7363 101.836 58.7403 101.872 58.6286C101.915 58.5118 101.84 58.4236 101.764 58.3781C100.923 57.8675 99.7614 57.5205 98.5598 57.5205L98.3363 57.5213C96.2896 57.5213 94.8597 58.7539 94.8597 60.517V60.5549C94.8597 62.4137 96.4378 63.02 97.9117 63.4389L98.1484 63.5123C99.2259 63.8409 100.151 64.1265 100.151 64.8765V64.914C100.151 65.604 99.5463 66.1186 98.577 66.1186C98.1993 66.1186 96.9949 66.1122 95.6972 65.2929C95.5398 65.2016 95.4477 65.1385 95.3283 65.0619C95.2879 65.0364 95.0992 64.963 95.0347 65.1625L94.5941 66.3831L94.5989 66.3863ZM116.944 62.6495C116.944 63.7265 116.742 64.5761 116.347 65.1784C115.953 65.7728 115.358 66.064 114.528 66.064C113.699 66.064 113.107 65.7752 112.718 65.1824C112.327 64.5841 112.129 63.7304 112.129 62.6534C112.129 61.5764 112.328 60.7308 112.718 60.1364C113.106 59.5461 113.695 59.2629 114.528 59.2629C115.362 59.2629 115.954 59.5489 116.347 60.1364C116.744 60.7308 116.944 61.5764 116.944 62.6534V62.6495ZM118.81 60.655C118.626 60.0367 118.342 59.4942 117.961 59.0395C117.58 58.5847 117.1 58.2178 116.527 57.9545C115.958 57.6892 115.285 57.5556 114.524 57.5556C113.763 57.5556 113.095 57.69 112.522 57.9545C111.953 58.2194 111.468 58.5847 111.088 59.0395C110.708 59.4942 110.423 60.0367 110.239 60.655C110.057 61.2693 109.964 61.9394 109.964 62.6534C109.964 63.3675 110.057 64.0376 110.239 64.6519C110.422 65.2702 110.707 65.8127 111.088 66.2674C111.469 66.7221 111.953 67.0851 112.522 67.3444C113.095 67.6029 113.767 67.7345 114.524 67.7345C115.281 67.7345 115.954 67.6029 116.523 67.3444C117.092 67.0859 117.577 66.7221 117.957 66.2674C118.337 65.8127 118.622 65.2702 118.806 64.6519C118.988 64.0376 119.08 63.3675 119.08 62.6534C119.08 61.9434 118.988 61.2693 118.806 60.655H118.81ZM134.146 65.7608C134.085 65.5801 133.908 65.6483 133.908 65.6483C133.637 65.7516 133.347 65.8474 133.039 65.8952C132.728 65.9439 132.382 65.9682 132.018 65.9682C131.116 65.9682 130.395 65.7006 129.883 65.1704C129.366 64.6399 129.078 63.7863 129.082 62.6295C129.085 61.5764 129.34 60.7866 129.799 60.1803C130.251 59.582 130.948 59.2708 131.869 59.2708C132.638 59.2708 133.227 59.3598 133.844 59.5521C133.844 59.5521 133.99 59.6155 134.06 59.4236C134.224 58.9729 134.345 58.6498 134.521 58.1551C134.571 58.0135 134.449 57.9537 134.404 57.9366C134.162 57.8424 133.591 57.688 133.159 57.623C132.754 57.5616 132.286 57.5297 131.757 57.5297C130.972 57.5297 130.275 57.6633 129.678 57.9282C129.081 58.1926 128.577 58.5584 128.176 59.0132C127.776 59.4679 127.471 60.0104 127.267 60.6287C127.065 61.243 126.962 61.9171 126.962 62.6311C126.962 64.1708 127.379 65.4194 128.204 66.3328C129.029 67.2503 130.271 67.713 131.889 67.713C132.846 67.713 133.828 67.5203 134.533 67.2423C134.533 67.2423 134.667 67.1777 134.609 67.0213L134.148 65.7608H134.146ZM137.412 61.6123C137.502 61.014 137.666 60.5154 137.925 60.1285C138.312 59.5381 138.902 59.215 139.731 59.215C140.56 59.215 141.109 59.5397 141.502 60.1285C141.762 60.5174 141.876 61.0339 141.918 61.6123L137.392 61.6115L137.412 61.6123ZM143.701 60.296C143.542 59.7016 143.148 59.0993 142.892 58.8241C142.483 58.3893 142.086 58.0821 141.69 57.9146C141.117 57.6722 140.502 57.5478 139.88 57.5488C139.091 57.5488 138.374 57.6817 137.793 57.9517C137.212 58.2238 136.723 58.5939 136.339 59.0566C135.955 59.5194 135.666 60.0658 135.482 60.6921C135.298 61.3104 135.205 61.9885 135.205 62.6985C135.205 63.4245 135.301 64.0986 135.491 64.7089C135.683 65.3232 135.992 65.8617 136.408 66.3085C136.825 66.7592 137.357 67.1103 137.998 67.3576C138.635 67.6029 139.408 67.7301 140.293 67.7273C142.12 67.7214 143.081 67.3165 143.474 67.0971C143.544 67.058 143.61 66.9906 143.527 66.7963L143.115 65.6435C143.051 65.4716 142.877 65.5338 142.877 65.5338C142.424 65.7022 141.783 66.0045 140.281 66.0005C139.3 65.9989 138.575 65.7105 138.118 65.2586C137.654 64.7959 137.422 64.1218 137.385 63.1644L143.714 63.1692C143.714 63.1692 143.88 63.1676 143.898 63.0057C143.904 62.9387 144.114 61.7133 143.709 60.2972L143.701 60.296ZM86.8255 61.6123C86.9148 61.014 87.0798 60.5154 87.3381 60.1285C87.7259 59.5381 88.3154 59.215 89.1445 59.215C89.9736 59.215 90.5224 59.5397 90.9149 60.1285C91.1748 60.5174 91.2886 61.0339 91.3314 61.6123L86.8054 61.6115L86.8255 61.6123ZM93.1138 60.296C92.9552 59.7016 92.561 59.0993 92.3047 58.8241C91.8962 58.3893 91.4996 58.0821 91.1031 57.9146C90.5306 57.6722 89.9148 57.5478 89.2927 57.5488C88.5037 57.5488 87.7867 57.6817 87.206 57.9517C86.6252 58.2238 86.1366 58.5939 85.7521 59.0566C85.3687 59.5194 85.0792 60.0658 84.8949 60.6921C84.7111 61.3104 84.6186 61.9885 84.6186 62.6985C84.6186 63.4245 84.7143 64.0986 84.9053 64.7089C85.0968 65.3232 85.406 65.8617 85.8185 66.3085C86.2351 66.7592 86.7678 67.1103 87.4086 67.3576C88.0455 67.6029 88.8145 67.7301 89.7037 67.7273C91.5301 67.7214 92.4914 67.3165 92.8839 67.0971C92.9536 67.058 93.0201 66.9906 92.9371 66.7963L92.5246 65.6435C92.4609 65.4716 92.2863 65.5338 92.2863 65.5338C91.8337 65.7022 91.1928 66.0045 89.6909 66.0005C88.7136 65.9989 87.9846 65.7105 87.528 65.2586C87.0634 64.7959 86.8311 64.1218 86.795 63.1644L93.1234 63.1692C93.1234 63.1692 93.29 63.1676 93.3072 63.0057C93.314 62.9387 93.5239 61.7133 93.1182 60.2972L93.1138 60.296ZM73.1674 65.7209C72.9195 65.5239 72.8851 65.4756 72.8029 65.3476C72.6776 65.1549 72.6135 64.8809 72.6135 64.5298C72.6135 63.9794 72.7977 63.5805 73.1782 63.3132C73.1742 63.314 73.723 62.8425 75.0127 62.8585C75.5867 62.8687 76.1594 62.9174 76.7269 63.0041V65.8641H76.7277C76.7277 65.8641 75.9267 66.036 75.0215 66.0903C73.7358 66.1673 73.167 65.7217 73.171 65.7229L73.1674 65.7209ZM75.6827 61.2932C75.4264 61.2745 75.094 61.2653 74.6974 61.2653C74.1567 61.2653 73.632 61.3323 73.1434 61.4639C72.6507 61.5964 72.2062 61.8014 71.8257 62.0743C71.4441 62.3453 71.1303 62.7002 70.9084 63.1114C70.6845 63.5262 70.5704 64.0129 70.5704 64.5633C70.5704 65.1218 70.6677 65.6044 70.86 65.9993C71.0484 66.391 71.332 66.7297 71.6851 66.9846C72.0363 67.2391 72.4701 67.4274 72.9708 67.5391C73.4674 67.652 74.0282 67.709 74.645 67.709C75.2938 67.709 75.9387 67.6547 76.5635 67.5498C77.0957 67.4584 77.6258 67.3558 78.1536 67.2419C78.3643 67.1936 78.5982 67.1302 78.5982 67.1302C78.7544 67.0907 78.7424 66.9244 78.7424 66.9244L78.7388 61.1803C78.7388 59.9198 78.4007 58.9824 77.7335 58.4041C77.0686 57.8257 76.0953 57.5345 74.8336 57.5345C74.361 57.5345 73.596 57.5983 73.1394 57.6896C73.1394 57.6896 71.7616 57.9561 71.1928 58.3997C71.1928 58.3997 71.0679 58.4763 71.1359 58.6498L71.5845 59.8464C71.6402 60.0016 71.792 59.9486 71.792 59.9486C71.792 59.9486 71.8397 59.9298 71.8957 59.8967C73.1094 59.2385 74.6474 59.2585 74.6474 59.2585C75.3283 59.2585 75.857 59.3961 76.2094 59.6653C76.5543 59.929 76.7301 60.3275 76.7301 61.1652V61.4312C76.1894 61.3531 75.6888 61.308 75.6888 61.308L75.6827 61.2932ZM126.55 58.0502C126.559 58.0292 126.564 58.0066 126.564 57.9836C126.564 57.9607 126.56 57.938 126.551 57.9169C126.542 57.8958 126.529 57.8766 126.512 57.8606C126.496 57.8446 126.476 57.832 126.455 57.8237C126.347 57.783 125.81 57.6701 125.398 57.6446C124.605 57.5951 124.164 57.7283 123.767 57.9054C123.376 58.0813 122.942 58.3642 122.702 58.6913L122.701 57.9254C122.701 57.8201 122.626 57.7351 122.52 57.7351H120.902C120.797 57.7351 120.721 57.8201 120.721 57.9254V67.2993C120.721 67.35 120.741 67.3985 120.777 67.4343C120.813 67.4701 120.862 67.4903 120.913 67.4904H122.571C122.622 67.4903 122.67 67.4701 122.706 67.4343C122.742 67.3985 122.762 67.3499 122.762 67.2993V62.5924C122.762 61.9622 122.832 61.3359 122.971 60.941C123.108 60.5505 123.294 60.239 123.524 60.0156C123.743 59.7998 124.01 59.6397 124.305 59.5489C124.581 59.47 124.866 59.4299 125.154 59.43C125.484 59.43 125.847 59.5146 125.847 59.5146C125.968 59.5281 126.036 59.4539 126.077 59.3446C126.186 59.057 126.494 58.1958 126.554 58.0243" fill="#EFEAF6"/>
<path fill-rule="evenodd" clip-rule="evenodd" d="M111.063 53.7239C110.858 53.6622 110.649 53.6129 110.438 53.5763C110.154 53.5291 109.867 53.5069 109.579 53.5101C108.437 53.5101 107.536 53.8316 106.904 54.4666C106.276 55.0968 105.848 56.057 105.634 57.3203L105.557 57.7467H104.122C104.122 57.7467 103.947 57.7395 103.91 57.9298L103.675 59.2381C103.658 59.3634 103.713 59.4416 103.881 59.4408H105.277L103.86 67.3161C103.749 67.9503 103.622 68.4721 103.482 68.8674C103.343 69.2575 103.208 69.5499 103.041 69.7621C102.88 69.9675 102.727 70.1187 102.463 70.2069C102.245 70.2799 101.994 70.3134 101.719 70.3134C101.566 70.3134 101.363 70.2878 101.213 70.2579C101.063 70.2284 100.985 70.1949 100.872 70.1478C100.872 70.1478 100.708 70.0856 100.644 70.2491C100.591 70.3828 100.219 71.4019 100.175 71.528C100.13 71.6524 100.193 71.7506 100.272 71.7789C100.458 71.8451 100.596 71.8874 100.85 71.9468C101.201 72.0294 101.498 72.0346 101.775 72.0346C102.357 72.0346 102.887 71.9532 103.326 71.7952C103.768 71.6361 104.153 71.3589 104.494 70.9835C104.862 70.5786 105.093 70.1546 105.315 69.5762C105.534 69.003 105.72 68.2914 105.87 67.4621L107.293 59.4408H109.374C109.374 59.4408 109.55 59.4472 109.586 59.2577L109.822 57.9493C109.838 57.8241 109.785 57.7459 109.616 57.7467H107.596C107.606 57.7012 107.697 56.9936 107.929 56.3274C108.028 56.043 108.214 55.8137 108.372 55.6561C108.52 55.506 108.701 55.3936 108.901 55.3282C109.121 55.2606 109.35 55.2278 109.579 55.2309C109.77 55.2309 109.956 55.2536 110.099 55.2831C110.294 55.3246 110.371 55.3465 110.422 55.3617C110.628 55.4243 110.655 55.3637 110.696 55.2644L111.179 53.9432C111.228 53.8012 111.108 53.7414 111.063 53.7239V53.7239ZM82.8357 67.3328C82.8357 67.4382 82.7604 67.5239 82.6547 67.5239H80.9793C80.8732 67.5239 80.7979 67.4382 80.7979 67.3328V53.903C80.7979 53.7981 80.8732 53.7131 80.9793 53.7131H82.6547C82.7604 53.7131 82.8357 53.7981 82.8357 53.903V67.3328" fill="#EFEAF6"/>
</svg>
