<svg width="200" height="164" viewBox="0 0 200 164" fill="none" xmlns="http://www.w3.org/2000/svg">
<path opacity="0.6" d="M84.0952 149.21C83.3906 149.21 82.7559 149.093 82.1912 148.86C81.6312 148.622 81.1669 148.286 80.7982 147.852C80.4342 147.418 80.1962 146.902 80.0842 146.305L81.1342 146.13C81.3022 146.783 81.6569 147.297 82.1982 147.67C82.7396 148.039 83.3859 148.223 84.1372 148.223C84.6319 148.223 85.0752 148.146 85.4672 147.992C85.8592 147.833 86.1672 147.609 86.3912 147.32C86.6152 147.031 86.7272 146.688 86.7272 146.291C86.7272 146.03 86.6806 145.808 86.5872 145.626C86.4939 145.439 86.3702 145.285 86.2162 145.164C86.0622 145.043 85.8942 144.942 85.7122 144.863C85.5302 144.779 85.3529 144.711 85.1802 144.66L82.6252 143.897C82.3172 143.808 82.0326 143.696 81.7712 143.561C81.5099 143.421 81.2812 143.255 81.0852 143.064C80.8939 142.868 80.7446 142.639 80.6372 142.378C80.5299 142.117 80.4762 141.818 80.4762 141.482C80.4762 140.913 80.6256 140.42 80.9242 140.005C81.2229 139.59 81.6312 139.27 82.1492 139.046C82.6672 138.822 83.2576 138.712 83.9202 138.717C84.5922 138.717 85.1919 138.836 85.7192 139.074C86.2512 139.312 86.6899 139.653 87.0352 140.096C87.3806 140.535 87.6092 141.055 87.7212 141.657L86.6432 141.853C86.5732 141.414 86.4122 141.034 86.1602 140.712C85.9082 140.39 85.5862 140.143 85.1942 139.97C84.8069 139.793 84.3799 139.702 83.9132 139.697C83.4606 139.697 83.0569 139.774 82.7022 139.928C82.3522 140.077 82.0746 140.283 81.8692 140.544C81.6639 140.805 81.5612 141.104 81.5612 141.44C81.5612 141.781 81.6546 142.054 81.8412 142.259C82.0326 142.464 82.2659 142.625 82.5412 142.742C82.8212 142.859 83.0919 142.954 83.3532 143.029L85.3272 143.61C85.5326 143.666 85.7729 143.748 86.0482 143.855C86.3282 143.958 86.5989 144.107 86.8602 144.303C87.1262 144.494 87.3456 144.746 87.5182 145.059C87.6909 145.372 87.7772 145.768 87.7772 146.249C87.7772 146.716 87.6839 147.133 87.4972 147.502C87.3152 147.871 87.0562 148.181 86.7202 148.433C86.3889 148.685 85.9992 148.876 85.5512 149.007C85.1079 149.142 84.6226 149.21 84.0952 149.21ZM91.3852 149.21C90.8159 149.21 90.3375 149.107 89.9502 148.902C89.5675 148.697 89.2805 148.424 89.0892 148.083C88.8979 147.742 88.8022 147.371 88.8022 146.97C88.8022 146.559 88.8839 146.209 89.0472 145.92C89.2152 145.626 89.4415 145.386 89.7262 145.199C90.0155 145.012 90.3492 144.87 90.7272 144.772C91.1099 144.679 91.5322 144.597 91.9942 144.527C92.4609 144.452 92.9159 144.389 93.3592 144.338C93.8072 144.282 94.1992 144.228 94.5352 144.177L94.1712 144.401C94.1852 143.654 94.0405 143.101 93.7372 142.742C93.4339 142.383 92.9065 142.203 92.1552 142.203C91.6372 142.203 91.1985 142.32 90.8392 142.553C90.4845 142.786 90.2349 143.155 90.0902 143.659L89.0892 143.365C89.2619 142.688 89.6095 142.163 90.1322 141.79C90.6549 141.417 91.3339 141.23 92.1692 141.23C92.8599 141.23 93.4455 141.361 93.9262 141.622C94.4115 141.879 94.7545 142.252 94.9552 142.742C95.0485 142.961 95.1092 143.206 95.1372 143.477C95.1652 143.748 95.1792 144.023 95.1792 144.303V149H94.2622V147.103L94.5282 147.215C94.2715 147.864 93.8725 148.358 93.3312 148.699C92.7899 149.04 92.1412 149.21 91.3852 149.21ZM91.5042 148.321C91.9849 148.321 92.4049 148.235 92.7642 148.062C93.1235 147.889 93.4129 147.654 93.6322 147.355C93.8515 147.052 93.9939 146.711 94.0592 146.333C94.1152 146.09 94.1455 145.824 94.1502 145.535C94.1549 145.241 94.1572 145.022 94.1572 144.877L94.5492 145.08C94.1992 145.127 93.8189 145.173 93.4082 145.22C93.0022 145.267 92.6009 145.32 92.2042 145.381C91.8122 145.442 91.4575 145.514 91.1402 145.598C90.9255 145.659 90.7179 145.745 90.5172 145.857C90.3165 145.964 90.1509 146.109 90.0202 146.291C89.8942 146.473 89.8312 146.699 89.8312 146.97C89.8312 147.189 89.8849 147.402 89.9922 147.607C90.1042 147.812 90.2815 147.983 90.5242 148.118C90.7715 148.253 91.0982 148.321 91.5042 148.321ZM102.461 149V145.143C102.461 144.723 102.422 144.338 102.342 143.988C102.263 143.633 102.135 143.325 101.957 143.064C101.785 142.798 101.558 142.593 101.278 142.448C101.003 142.303 100.667 142.231 100.27 142.231C99.9065 142.231 99.5845 142.294 99.3045 142.42C99.0292 142.546 98.7958 142.728 98.6045 142.966C98.4178 143.199 98.2755 143.484 98.1775 143.82C98.0795 144.156 98.0305 144.539 98.0305 144.968L97.3025 144.807C97.3025 144.032 97.4378 143.381 97.7085 142.854C97.9792 142.327 98.3525 141.928 98.8285 141.657C99.3045 141.386 99.8505 141.251 100.466 141.251C100.919 141.251 101.313 141.321 101.649 141.461C101.99 141.601 102.277 141.79 102.51 142.028C102.748 142.266 102.94 142.539 103.084 142.847C103.229 143.15 103.334 143.475 103.399 143.82C103.465 144.161 103.497 144.501 103.497 144.842V149H102.461ZM96.9945 149V141.44H97.9255V143.302H98.0305V149H96.9945ZM105.454 140.005V138.85H106.483V140.005H105.454ZM105.454 149V141.44H106.483V149H105.454ZM112.698 149C112.273 149.089 111.853 149.124 111.438 149.105C111.027 149.086 110.658 148.998 110.332 148.839C110.01 148.68 109.765 148.433 109.597 148.097C109.461 147.817 109.387 147.535 109.373 147.25C109.363 146.961 109.359 146.632 109.359 146.263V139.34H110.381V146.221C110.381 146.538 110.383 146.804 110.388 147.019C110.397 147.229 110.446 147.416 110.535 147.579C110.703 147.892 110.969 148.078 111.333 148.139C111.701 148.2 112.156 148.186 112.698 148.097V149ZM107.742 142.322V141.44H112.698V142.322H107.742ZM115.06 152.36L116.523 148.391L116.544 149.567L113.233 141.44H114.325L117.041 148.237H116.593L119.099 141.44H120.149L116.089 152.36H115.06Z" fill="#0E041B"/>
<path d="M151.157 67.2319V75.92H146.372V67.2319" fill="#0D041B" fill-opacity="0.75"/>
<path d="M146.372 67.2317L154.468 53.0239H159.55L151.157 67.2317H146.372Z" fill="#0D041B" fill-opacity="0.75"/>
<path d="M146.373 67.2317L138.052 53.0239H143.286L148.924 62.7602L146.373 67.2317Z" fill="#0D041B" fill-opacity="0.75"/>
<path d="M129.468 61.0227V75.92H124.611V63.5661L129.468 61.0227Z" fill="#0D041B" fill-opacity="0.75"/>
<path d="M124.611 63.5537L136.924 57.201L134.844 53.6541L124.611 58.6955V63.5537Z" fill="#0D041B" fill-opacity="0.75"/>
<path d="M124.612 57.2006H117.192V53.0239H134.474L136.925 57.2006H129.469H124.612Z" fill="#0D041B" fill-opacity="0.75"/>
<path d="M114.407 53.0239H109.587V75.9238H114.407V53.0239Z" fill="#0D041B" fill-opacity="0.75"/>
<path d="M89.9354 59.8429V75.9198H85.3037V53.0239L89.9354 59.8429Z" fill="#0D041B" fill-opacity="0.75"/>
<path d="M90.6515 53.0239L100.852 68.6665V75.9198L85.3037 53.0239H90.6515Z" fill="#0D041B" fill-opacity="0.75"/>
<path d="M100.852 67.4908V53.0239H105.483V75.9198H100.852V67.4908Z" fill="#0D041B" fill-opacity="0.75"/>
<path d="M64.4727 76.2947L75.8219 70.312L74.4226 66.6582L66.9509 70.1712L64.4727 76.2947Z" fill="#0D041B" fill-opacity="0.75"/>
<path d="M71.49 58.9541L64.4726 76.2944L60.8633 73.1619L69.2247 53.0239L71.49 58.9541Z" fill="#0D041B" fill-opacity="0.75"/>
<path d="M69.2246 53.0239H74.0088L82.8573 75.9198H77.9603L69.2246 53.0239Z" fill="#0D041B" fill-opacity="0.75"/>
<path d="M42.9048 55.6665C42.9048 58.8548 44.8926 60.7518 48.8721 61.7521L53.089 62.7206C56.8553 63.5774 59.1488 65.7056 59.1488 69.1729C59.1781 70.6834 58.6823 72.158 57.7445 73.3495C57.7445 69.8903 55.9378 68.0211 51.5801 66.8972L47.4396 65.9647C44.124 65.2154 41.5649 63.4659 41.5649 59.6997C41.5475 58.2453 42.0189 56.8265 42.9048 55.6665Z" fill="#0D041B" fill-opacity="0.75"/>
<path d="M55.1538 68.3239C56.9524 69.4637 57.741 71.0579 57.741 73.3455C56.2523 75.2345 53.6368 76.2946 50.5626 76.2946C45.3881 76.2946 41.7667 73.7719 40.9619 69.388H45.9313C46.5711 71.4006 48.2651 72.3332 50.5264 72.3332C53.2867 72.3332 55.1216 70.8745 55.1578 68.3159" fill="#0D041B" fill-opacity="0.75"/>
<path d="M45.4884 60.393C44.667 59.9095 43.9932 59.2148 43.5384 58.3826C43.0836 57.5504 42.8648 56.6118 42.9051 55.6663C44.3416 53.7932 46.8404 52.6494 49.8864 52.6494C55.1575 52.6494 58.2075 55.4073 58.96 59.289H54.1797C53.6526 57.7586 52.3328 56.567 49.9266 56.567C47.3554 56.567 45.6011 58.0496 45.5005 60.393" fill="#0D041B" fill-opacity="0.75"/>
</svg>
