<svg width="200" height="164" viewBox="0 0 200 164" fill="none" xmlns="http://www.w3.org/2000/svg">
<path opacity="0.6" d="M79.9185 149.21C79.2138 149.21 78.5791 149.093 78.0145 148.86C77.4545 148.622 76.9901 148.286 76.6215 147.852C76.2575 147.418 76.0195 146.902 75.9075 146.305L76.9575 146.13C77.1255 146.783 77.4801 147.297 78.0215 147.67C78.5628 148.039 79.2091 148.223 79.9605 148.223C80.4551 148.223 80.8985 148.146 81.2905 147.992C81.6825 147.833 81.9905 147.609 82.2145 147.32C82.4385 147.031 82.5505 146.688 82.5505 146.291C82.5505 146.03 82.5038 145.808 82.4105 145.626C82.3171 145.439 82.1935 145.285 82.0395 145.164C81.8855 145.043 81.7175 144.942 81.5355 144.863C81.3535 144.779 81.1761 144.711 81.0035 144.66L78.4485 143.897C78.1405 143.808 77.8558 143.696 77.5945 143.561C77.3331 143.421 77.1045 143.255 76.9085 143.064C76.7171 142.868 76.5678 142.639 76.4605 142.378C76.3531 142.117 76.2995 141.818 76.2995 141.482C76.2995 140.913 76.4488 140.42 76.7475 140.005C77.0461 139.59 77.4545 139.27 77.9725 139.046C78.4905 138.822 79.0808 138.712 79.7435 138.717C80.4155 138.717 81.0151 138.836 81.5425 139.074C82.0745 139.312 82.5131 139.653 82.8585 140.096C83.2038 140.535 83.4325 141.055 83.5445 141.657L82.4665 141.853C82.3965 141.414 82.2355 141.034 81.9835 140.712C81.7315 140.39 81.4095 140.143 81.0175 139.97C80.6301 139.793 80.2031 139.702 79.7365 139.697C79.2838 139.697 78.8801 139.774 78.5255 139.928C78.1755 140.077 77.8978 140.283 77.6925 140.544C77.4871 140.805 77.3845 141.104 77.3845 141.44C77.3845 141.781 77.4778 142.054 77.6645 142.259C77.8558 142.464 78.0891 142.625 78.3645 142.742C78.6445 142.859 78.9151 142.954 79.1765 143.029L81.1505 143.61C81.3558 143.666 81.5961 143.748 81.8715 143.855C82.1515 143.958 82.4221 144.107 82.6835 144.303C82.9495 144.494 83.1688 144.746 83.3415 145.059C83.5141 145.372 83.6005 145.768 83.6005 146.249C83.6005 146.716 83.5071 147.133 83.3205 147.502C83.1385 147.871 82.8795 148.181 82.5435 148.433C82.2121 148.685 81.8225 148.876 81.3745 149.007C80.9311 149.142 80.4458 149.21 79.9185 149.21ZM90.5054 149V145.143C90.5054 144.723 90.4658 144.338 90.3864 143.988C90.3071 143.633 90.1788 143.325 90.0014 143.064C89.8288 142.798 89.6024 142.593 89.3224 142.448C89.0471 142.303 88.7111 142.231 88.3144 142.231C87.9504 142.231 87.6284 142.294 87.3484 142.42C87.0731 142.546 86.8398 142.728 86.6484 142.966C86.4618 143.199 86.3194 143.484 86.2214 143.82C86.1234 144.156 86.0744 144.539 86.0744 144.968L85.3464 144.807C85.3464 144.032 85.4818 143.381 85.7524 142.854C86.0231 142.327 86.3964 141.928 86.8724 141.657C87.3484 141.386 87.8944 141.251 88.5104 141.251C88.9631 141.251 89.3574 141.321 89.6934 141.461C90.0341 141.601 90.3211 141.79 90.5544 142.028C90.7924 142.266 90.9838 142.539 91.1284 142.847C91.2731 143.15 91.3781 143.475 91.4434 143.82C91.5088 144.161 91.5414 144.501 91.5414 144.842V149H90.5054ZM85.0384 149V138.92H85.9694V144.611H86.0744V149H85.0384ZM96.5149 149.21C95.7636 149.21 95.1219 149.04 94.5899 148.699C94.0579 148.358 93.6496 147.887 93.3649 147.285C93.0803 146.683 92.9379 145.992 92.9379 145.213C92.9379 144.42 93.0826 143.724 93.3719 143.127C93.6613 142.53 94.0719 142.065 94.6039 141.734C95.1406 141.398 95.7776 141.23 96.5149 141.23C97.2709 141.23 97.9149 141.4 98.4469 141.741C98.9836 142.077 99.3919 142.546 99.6719 143.148C99.9566 143.745 100.099 144.434 100.099 145.213C100.099 146.006 99.9566 146.704 99.6719 147.306C99.3873 147.903 98.9766 148.37 98.4399 148.706C97.9033 149.042 97.2616 149.21 96.5149 149.21ZM96.5149 148.223C97.3549 148.223 97.9803 147.945 98.3909 147.39C98.8016 146.83 99.0069 146.104 99.0069 145.213C99.0069 144.298 98.7993 143.57 98.3839 143.029C97.9733 142.488 97.3503 142.217 96.5149 142.217C95.9503 142.217 95.4836 142.345 95.1149 142.602C94.7509 142.854 94.4779 143.206 94.2959 143.659C94.1186 144.107 94.0299 144.625 94.0299 145.213C94.0299 146.123 94.2399 146.853 94.6599 147.404C95.0799 147.95 95.6983 148.223 96.5149 148.223ZM105.038 149.21C104.343 149.21 103.755 149.035 103.274 148.685C102.793 148.33 102.429 147.852 102.182 147.25C101.935 146.643 101.811 145.964 101.811 145.213C101.811 144.448 101.935 143.766 102.182 143.169C102.434 142.567 102.803 142.093 103.288 141.748C103.773 141.403 104.371 141.23 105.08 141.23C105.771 141.23 106.363 141.405 106.858 141.755C107.353 142.105 107.731 142.581 107.992 143.183C108.258 143.785 108.391 144.462 108.391 145.213C108.391 145.969 108.258 146.648 107.992 147.25C107.726 147.852 107.343 148.33 106.844 148.685C106.345 149.035 105.743 149.21 105.038 149.21ZM101.636 152.36V141.44H102.56V147.131H102.672V152.36H101.636ZM104.933 148.251C105.46 148.251 105.899 148.118 106.249 147.852C106.599 147.586 106.86 147.224 107.033 146.767C107.21 146.305 107.299 145.787 107.299 145.213C107.299 144.644 107.213 144.13 107.04 143.673C106.867 143.216 106.604 142.854 106.249 142.588C105.899 142.322 105.453 142.189 104.912 142.189C104.385 142.189 103.946 142.317 103.596 142.574C103.251 142.831 102.992 143.188 102.819 143.645C102.646 144.098 102.56 144.62 102.56 145.213C102.56 145.796 102.646 146.319 102.819 146.781C102.992 147.238 103.253 147.598 103.603 147.859C103.953 148.12 104.396 148.251 104.933 148.251ZM110.068 140.005V138.85H111.097V140.005H110.068ZM110.068 149V141.44H111.097V149H110.068ZM113.945 149V140.88C113.945 140.684 113.954 140.49 113.973 140.299C113.996 140.108 114.04 139.926 114.106 139.753C114.171 139.576 114.274 139.412 114.414 139.263C114.568 139.095 114.736 138.974 114.918 138.899C115.1 138.82 115.289 138.768 115.485 138.745C115.685 138.722 115.881 138.71 116.073 138.71H117.039V139.578H116.143C115.751 139.578 115.457 139.674 115.261 139.865C115.069 140.056 114.974 140.357 114.974 140.768V149H113.945ZM112.636 142.322V141.44H117.039V142.322H112.636ZM119.237 152.36L120.7 148.391L120.721 149.567L117.41 141.44H118.502L121.218 148.237H120.77L123.276 141.44H124.326L120.266 152.36H119.237Z" fill="#0E041B"/>
<path d="M124.055 43.0187C124.005 42.6568 123.684 42.4565 123.419 42.4345C123.155 42.4127 117.561 42.0025 117.561 42.0025C117.561 42.0025 113.676 38.1868 113.249 37.7645C112.823 37.3424 111.989 37.4708 111.666 37.565C111.618 37.5788 110.817 37.8235 109.492 38.2292C108.194 34.5347 105.903 31.1397 101.874 31.1397C101.763 31.1397 101.648 31.1442 101.534 31.1506C100.388 29.6514 98.9683 29 97.7421 29C88.3556 29 83.8712 40.6081 82.4652 46.5069C78.8178 47.625 76.2267 48.4198 75.8958 48.5227C73.8599 49.1544 73.7955 49.2179 73.5282 51.1157C73.327 52.5525 68 93.3062 68 93.3062L109.509 101L132 96.1867C132 96.1867 124.105 43.3805 124.055 43.0187H124.055ZM107.198 38.9311L103.685 40.0065C103.686 39.7617 103.688 39.5207 103.688 39.2573C103.688 36.9612 103.366 35.1125 102.849 33.6469C104.925 33.9047 106.308 36.2417 107.198 38.9311ZM100.273 34.1022C100.85 35.5331 101.226 37.5865 101.226 40.3575C101.226 40.4993 101.224 40.6289 101.223 40.76C98.939 41.4599 96.4569 42.2198 93.9692 42.9822C95.366 37.6495 97.9842 35.0738 100.273 34.1022V34.1022ZM97.4843 31.4906C97.8894 31.4906 98.2976 31.6267 98.6882 31.8927C95.6799 33.293 92.4555 36.8199 91.0938 43.8631L85.3599 45.6198C86.9549 40.2477 90.742 31.4906 97.4841 31.4906H97.4843Z" fill="#352E3F"/>
<path d="M123.419 42.4336C123.155 42.4118 117.561 42.0016 117.561 42.0016C117.561 42.0016 113.675 38.1859 113.249 37.7636C113.089 37.6065 112.874 37.5259 112.649 37.4912L109.511 100.999L132 96.1859C132 96.1859 124.104 43.3796 124.055 43.0178C124.004 42.6559 123.684 42.4557 123.419 42.4336Z" fill="#352E3F"/>
<path d="M123.419 42.4336C123.155 42.4118 117.561 42.0016 117.561 42.0016C117.561 42.0016 113.675 38.1859 113.249 37.7636C113.089 37.6065 112.874 37.5259 112.649 37.4912L109.511 100.999L132 96.1859C132 96.1859 124.104 43.3796 124.055 43.0178C124.004 42.6559 123.684 42.4557 123.419 42.4336Z" fill="black" fill-opacity="0.2"/>
<path d="M101.875 54.7295L99.1013 62.8902C99.1013 62.8902 96.6715 61.6073 93.6931 61.6073C89.3267 61.6073 89.107 64.3181 89.107 65.0011C89.107 68.7283 98.9282 70.1564 98.9282 78.8867C98.9282 85.7554 94.5244 90.1783 88.5866 90.1783C81.4612 90.1783 77.8174 85.7913 77.8174 85.7913L79.7252 79.5554C79.7252 79.5554 83.4708 82.7365 86.6314 82.7365C88.6966 82.7365 89.5367 81.128 89.5367 79.9527C89.5367 75.0909 81.4793 74.874 81.4793 66.885C81.4793 60.1611 86.3578 53.6543 96.2055 53.6543C100 53.6543 101.875 54.7295 101.875 54.7295" fill="#EFEAF6"/>
</svg>
