<svg width="357" height="868" viewBox="0 0 357 868" fill="none" xmlns="http://www.w3.org/2000/svg">
<g clip-path="url(#clip0_155_24761)">
<rect width="360" height="2915" transform="translate(-3 -121)" fill="#070609"/>
<g opacity="0.2" filter="url(#filter0_f_155_24761)">
<path d="M393.094 541.083C401.065 600.205 292.129 594.022 213.364 548.267C129.26 499.411 27.5617 442.408 3.38622 419.391C-15.172 401.723 88.1369 388.907 193.311 337.464C260.629 304.537 324.619 260.019 379.179 200.468C420.259 180.549 457.07 215.905 462.745 243.173C428.254 311.99 435.465 297.692 403.219 382.485C390.854 415.001 383.027 466.425 393.094 541.083Z" fill="url(#paint0_linear_155_24761)" fill-opacity="0.6"/>
</g>
<g style="mix-blend-mode:lighten" opacity="0.08" filter="url(#filter1_f_155_24761)">
<path d="M199.558 434.829C58.609 578.172 -43.7415 703.488 -29.0481 714.731C-14.3547 725.975 111.818 618.887 252.768 475.545C393.717 332.202 496.067 206.886 481.374 195.642C466.68 184.399 340.507 291.487 199.558 434.829Z" fill="url(#paint1_linear_155_24761)"/>
</g>
<g style="mix-blend-mode:lighten" opacity="0.02" filter="url(#filter2_f_155_24761)">
<path d="M402.122 426.58C381.202 624.854 355.955 783.668 345.732 781.301C335.509 778.933 344.181 616.281 365.102 418.007C386.023 219.733 411.27 60.9191 421.493 63.2865C431.715 65.6538 423.043 228.306 402.122 426.58Z" fill="url(#paint2_linear_155_24761)"/>
</g>
<g style="mix-blend-mode:lighten" opacity="0.04" filter="url(#filter3_f_155_24761)">
<path d="M259.939 295.695C24.3109 387.858 -50.2205 444.578 -45.1032 454.26C-39.986 463.942 103.637 419.415 278.471 330.757C452.058 252.866 588.63 181.874 583.513 172.192C578.396 162.51 437.337 219.052 259.939 295.695Z" fill="url(#paint3_linear_155_24761)"/>
</g>
<g style="mix-blend-mode:plus-lighter" opacity="0.04" filter="url(#filter4_f_155_24761)">
<path d="M379.07 334.236C255.693 496.091 148.403 620.994 139.432 613.215C130.461 605.436 223.206 467.92 346.584 306.065C469.961 144.21 577.251 19.3063 586.222 27.0856C595.193 34.8648 502.448 172.381 379.07 334.236Z" fill="url(#paint4_linear_155_24761)"/>
</g>
<g style="mix-blend-mode:overlay" opacity="0.4" filter="url(#filter5_f_155_24761)">
<path d="M345.815 474.887C258.655 589.229 201.711 572.172 186.703 559.159C171.696 546.145 101.107 502.876 188.267 388.534C363.69 325.517 482.903 131.151 502.337 145.088C529.099 166.571 337.256 385.155 345.815 474.887Z" fill="url(#paint5_linear_155_24761)"/>
</g>
<g style="mix-blend-mode:overlay" opacity="0.07" filter="url(#filter6_f_155_24761)">
<path d="M373.333 383.258C298.336 481.645 255.722 480.469 243.88 470.2C232.038 459.931 223.13 422.263 298.128 323.876C422.985 217.249 506.678 106.285 515.47 113.909C520.823 118.551 435.38 245.334 373.333 383.258Z" fill="url(#paint6_linear_155_24761)"/>
</g>
<g style="mix-blend-mode:overlay" opacity="0.06" filter="url(#filter7_f_155_24761)">
<path d="M471.397 137.21L473.868 138.723L288.395 520.737L278.502 515.926L471.397 137.21Z" fill="url(#paint7_linear_155_24761)"/>
</g>
<g style="mix-blend-mode:overlay" opacity="0.2" filter="url(#filter8_f_155_24761)">
<path d="M446.577 159.749L449.278 160.803L328.334 599.051L317.727 596.133L446.577 159.749Z" fill="url(#paint8_linear_155_24761)"/>
</g>
<g style="mix-blend-mode:overlay" opacity="0.04" filter="url(#filter9_f_155_24761)">
<path d="M478.691 186.699L480.309 189.712L125.045 422.379L117.975 411.468L478.691 186.699Z" fill="url(#paint9_linear_155_24761)"/>
</g>
<g style="mix-blend-mode:overlay" opacity="0.05" filter="url(#filter10_f_155_24761)">
<path d="M501.096 161.714L503.161 164.763L172.425 431.158L163.715 420.197L501.096 161.714Z" fill="url(#paint10_linear_155_24761)"/>
</g>
<g style="mix-blend-mode:overlay" opacity="0.1" filter="url(#filter11_f_155_24761)">
<path d="M487.538 121.744L498.559 129.716L259.977 481.615L231.005 461.948L487.538 121.744Z" fill="url(#paint11_linear_155_24761)"/>
</g>
<g style="mix-blend-mode:plus-lighter" opacity="0.1" filter="url(#filter12_f_155_24761)">
<path d="M363.134 375.94C370.693 429.294 373.947 462.987 338.937 470.27C303.926 477.553 230.729 419.542 223.489 384.755C216.249 349.968 265.346 345.854 312.851 326.013C339.602 317.327 411.49 235.745 425.913 246.766C437.743 255.805 360.339 345.655 363.134 375.94Z" fill="url(#paint12_radial_155_24761)"/>
</g>
<g style="mix-blend-mode:plus-lighter" opacity="0.1" filter="url(#filter13_f_155_24761)">
<path d="M353.226 368.506C355.947 408.843 357.097 422.963 326.597 429.308C296.096 435.654 266.241 416.148 259.913 385.742C253.585 355.336 266.112 350.512 306.994 337.22C330.298 329.644 338.304 311.925 350.877 321.564C361.19 329.471 350.773 342.038 353.226 368.506Z" fill="url(#paint13_radial_155_24761)"/>
</g>
<g opacity="0.3" filter="url(#filter14_f_155_24761)">
<path d="M407.217 273.489C375.768 246.022 305.188 256.712 277.414 269.575C204.888 289.558 181.654 243.765 223.776 189.593L468.581 138.665C488.753 225.287 521.421 399.356 490.712 402.652C460.004 405.949 447.298 380.552 444.784 367.442C441.512 344.505 429.417 293.604 407.217 273.489Z" fill="#070609"/>
</g>
<g style="mix-blend-mode:hue">
<rect width="387" height="548" transform="matrix(-1 0.000136128 -0.000136285 1 517.979 119)" fill="url(#paint14_radial_155_24761)"/>
</g>
<g opacity="0.16" filter="url(#filter15_f_155_24761)">
<path d="M-31.1231 540.083C-39.0945 599.204 69.842 593.021 148.606 547.267C232.71 498.411 334.409 441.408 358.584 418.391C377.143 400.722 273.834 387.906 168.659 336.463C101.341 303.537 37.3513 259.018 -17.2081 199.467C-58.2888 179.549 -95.0997 214.905 -100.775 242.173C-66.2835 310.989 -73.4944 296.691 -41.2487 381.485C-28.8833 414.001 -21.0568 465.424 -31.1231 540.083Z" fill="url(#paint15_linear_155_24761)" fill-opacity="0.6"/>
</g>
<g style="mix-blend-mode:lighten" opacity="0.07" filter="url(#filter16_f_155_24761)">
<path d="M161.32 434.889C302.226 578.274 404.544 703.629 389.854 714.877C375.165 726.125 249.03 619.007 108.124 475.622C-32.7814 332.236 -135.1 206.881 -120.41 195.633C-105.72 184.385 20.4148 291.503 161.32 434.889Z" fill="url(#paint16_linear_155_24761)"/>
</g>
<g style="mix-blend-mode:lighten" opacity="0.02" filter="url(#filter17_f_155_24761)">
<path d="M-41.2182 426.596C-20.3353 624.874 4.88038 783.689 15.1027 781.319C25.325 778.949 16.6829 616.292 -4.19998 418.014C-25.0828 219.736 -50.2985 60.9207 -60.5208 63.2906C-70.7431 65.6606 -62.101 228.318 -41.2182 426.596Z" fill="url(#paint17_linear_155_24761)"/>
</g>
<g style="mix-blend-mode:lighten" opacity="0.04" filter="url(#filter18_f_155_24761)">
<path d="M101.005 295.735C336.617 387.928 411.147 444.662 406.031 454.345C400.916 464.028 257.304 419.483 82.4802 330.8C-91.0967 252.885 -227.662 181.873 -222.546 172.19C-217.431 162.507 -76.3815 219.068 101.005 295.735Z" fill="url(#paint18_linear_155_24761)"/>
</g>
<g style="mix-blend-mode:plus-lighter" opacity="0.04" filter="url(#filter19_f_155_24761)">
<path d="M-18.1901 334.318C105.135 496.214 212.38 621.147 221.348 613.365C230.317 605.583 137.613 468.032 14.2877 306.137C-109.037 144.242 -216.282 19.3081 -225.251 27.0902C-234.219 34.8723 -141.515 172.423 -18.1901 334.318Z" fill="url(#paint19_linear_155_24761)"/>
</g>
<g style="mix-blend-mode:overlay" opacity="0.4" filter="url(#filter20_f_155_24761)">
<path d="M15.0971 474.999C102.22 589.369 159.147 572.304 174.15 559.285C189.153 546.267 259.721 502.981 172.598 388.61C-2.76111 325.586 -121.92 131.17 -141.349 145.112C-168.104 166.603 23.6597 385.239 15.0971 474.999Z" fill="url(#paint20_linear_155_24761)"/>
</g>
<g style="mix-blend-mode:overlay" opacity="0.07" filter="url(#filter21_f_155_24761)">
<path d="M-11.4234 383.339C63.5421 481.75 106.142 480.571 117.981 470.299C129.819 460.026 138.727 422.347 63.7611 323.935C-61.0471 217.284 -144.704 106.293 -153.493 113.92C-158.845 118.563 -73.4396 245.378 -11.4234 383.339Z" fill="url(#paint21_linear_155_24761)"/>
</g>
<g style="mix-blend-mode:overlay" opacity="0.06" filter="url(#filter22_f_155_24761)">
<path d="M-110.43 137.21L-112.9 138.724L72.4518 520.801L82.3432 515.986L-110.43 137.21Z" fill="url(#paint22_linear_155_24761)"/>
</g>
<g style="mix-blend-mode:overlay" opacity="0.2" filter="url(#filter23_f_155_24761)">
<path d="M-85.6102 159.749L-88.3106 160.803L32.2376 598.128L42.8436 595.207L-85.6102 159.749Z" fill="url(#paint23_linear_155_24761)"/>
</g>
<g style="mix-blend-mode:overlay" opacity="0.04" filter="url(#filter24_f_155_24761)">
<path d="M-117.723 186.699L-119.341 189.713L235.875 422.458L242.942 411.546L-117.723 186.699Z" fill="url(#paint24_linear_155_24761)"/>
</g>
<g style="mix-blend-mode:overlay" opacity="0.05" filter="url(#filter25_f_155_24761)">
<path d="M-140.129 161.714L-142.193 164.764L188.476 431.248L197.183 420.284L-140.129 161.714Z" fill="url(#paint25_linear_155_24761)"/>
</g>
<g style="mix-blend-mode:overlay" opacity="0.1" filter="url(#filter26_f_155_24761)">
<path d="M-126.569 121.746L-137.588 129.721L100.884 481.706L129.849 462.03L-126.569 121.746Z" fill="url(#paint26_linear_155_24761)"/>
</g>
<g style="mix-blend-mode:plus-lighter" opacity="0.08" filter="url(#filter27_f_155_24761)">
<path d="M-2.16937 375.94C-9.7285 429.294 -12.9824 462.987 22.0282 470.27C57.0388 477.553 130.236 419.542 137.476 384.755C144.716 349.968 95.619 345.854 48.1138 326.013C21.3626 317.327 -50.5251 235.745 -64.9478 246.766C-76.7779 255.805 0.626254 345.655 -2.16937 375.94Z" fill="url(#paint27_radial_155_24761)"/>
</g>
<g style="mix-blend-mode:plus-lighter" opacity="0.1" filter="url(#filter28_f_155_24761)">
<path d="M7.73864 368.505C5.01794 408.843 3.86811 422.963 34.3683 429.308C64.8686 435.653 94.7239 416.148 101.052 385.742C107.38 355.336 94.8531 350.511 53.9704 337.22C30.6673 329.644 22.6607 311.924 10.0879 321.564C-0.224749 329.47 10.1919 342.037 7.73864 368.505Z" fill="url(#paint28_radial_155_24761)"/>
</g>
<g opacity="0.3" filter="url(#filter29_f_155_24761)">
<path d="M-46.1598 273.043C-14.7359 245.701 55.8404 256.405 83.6198 269.242C156.15 289.208 179.345 243.599 137.188 189.592L-107.616 138.664C-127.72 224.956 -160.25 398.365 -129.544 401.673C-98.8377 404.981 -86.1535 379.686 -83.6497 366.626C-80.3951 343.775 -68.3408 293.068 -46.1598 273.043Z" fill="#070609"/>
</g>
<g style="mix-blend-mode:hue">
<rect width="387" height="548" transform="matrix(1 4.96715e-06 4.98671e-06 1 -83.0117 106)" fill="url(#paint29_radial_155_24761)"/>
</g>
</g>
<defs>
<filter id="filter0_f_155_24761" x="-61.7556" y="131.675" width="587.467" height="515.296" filterUnits="userSpaceOnUse" color-interpolation-filters="sRGB">
<feFlood flood-opacity="0" result="BackgroundImageFix"/>
<feBlend mode="normal" in="SourceGraphic" in2="BackgroundImageFix" result="shape"/>
<feGaussianBlur stdDeviation="31.483" result="effect1_foregroundBlur_155_24761"/>
</filter>
<filter id="filter1_f_155_24761" x="-64.6209" y="160.663" width="581.567" height="589.048" filterUnits="userSpaceOnUse" color-interpolation-filters="sRGB">
<feFlood flood-opacity="0" result="BackgroundImageFix"/>
<feBlend mode="normal" in="SourceGraphic" in2="BackgroundImageFix" result="shape"/>
<feGaussianBlur stdDeviation="17.0846" result="effect1_foregroundBlur_155_24761"/>
</filter>
<filter id="filter2_f_155_24761" x="328.848" y="50.6671" width="109.527" height="743.253" filterUnits="userSpaceOnUse" color-interpolation-filters="sRGB">
<feFlood flood-opacity="0" result="BackgroundImageFix"/>
<feBlend mode="normal" in="SourceGraphic" in2="BackgroundImageFix" result="shape"/>
<feGaussianBlur stdDeviation="6.2966" result="effect1_foregroundBlur_155_24761"/>
</filter>
<filter id="filter3_f_155_24761" x="-64.237" y="152.222" width="666.779" height="322.232" filterUnits="userSpaceOnUse" color-interpolation-filters="sRGB">
<feFlood flood-opacity="0" result="BackgroundImageFix"/>
<feBlend mode="normal" in="SourceGraphic" in2="BackgroundImageFix" result="shape"/>
<feGaussianBlur stdDeviation="9.4449" result="effect1_foregroundBlur_155_24761"/>
</filter>
<filter id="filter4_f_155_24761" x="126.239" y="14.148" width="473.176" height="612.005" filterUnits="userSpaceOnUse" color-interpolation-filters="sRGB">
<feFlood flood-opacity="0" result="BackgroundImageFix"/>
<feBlend mode="normal" in="SourceGraphic" in2="BackgroundImageFix" result="shape"/>
<feGaussianBlur stdDeviation="6.2966" result="effect1_foregroundBlur_155_24761"/>
</filter>
<filter id="filter5_f_155_24761" x="120.314" y="119.189" width="409.773" height="474.509" filterUnits="userSpaceOnUse" color-interpolation-filters="sRGB">
<feFlood flood-opacity="0" result="BackgroundImageFix"/>
<feBlend mode="normal" in="SourceGraphic" in2="BackgroundImageFix" result="shape"/>
<feGaussianBlur stdDeviation="12.5932" result="effect1_foregroundBlur_155_24761"/>
</filter>
<filter id="filter6_f_155_24761" x="198.216" y="75.758" width="355.274" height="436.805" filterUnits="userSpaceOnUse" color-interpolation-filters="sRGB">
<feFlood flood-opacity="0" result="BackgroundImageFix"/>
<feBlend mode="normal" in="SourceGraphic" in2="BackgroundImageFix" result="shape"/>
<feGaussianBlur stdDeviation="18.8898" result="effect1_foregroundBlur_155_24761"/>
</filter>
<filter id="filter7_f_155_24761" x="268.427" y="127.135" width="215.515" height="403.676" filterUnits="userSpaceOnUse" color-interpolation-filters="sRGB">
<feFlood flood-opacity="0" result="BackgroundImageFix"/>
<feBlend mode="normal" in="SourceGraphic" in2="BackgroundImageFix" result="shape"/>
<feGaussianBlur stdDeviation="5.03728" result="effect1_foregroundBlur_155_24761"/>
</filter>
<filter id="filter8_f_155_24761" x="307.653" y="149.674" width="151.699" height="459.452" filterUnits="userSpaceOnUse" color-interpolation-filters="sRGB">
<feFlood flood-opacity="0" result="BackgroundImageFix"/>
<feBlend mode="normal" in="SourceGraphic" in2="BackgroundImageFix" result="shape"/>
<feGaussianBlur stdDeviation="5.03728" result="effect1_foregroundBlur_155_24761"/>
</filter>
<filter id="filter9_f_155_24761" x="107.901" y="176.624" width="382.483" height="255.829" filterUnits="userSpaceOnUse" color-interpolation-filters="sRGB">
<feFlood flood-opacity="0" result="BackgroundImageFix"/>
<feBlend mode="normal" in="SourceGraphic" in2="BackgroundImageFix" result="shape"/>
<feGaussianBlur stdDeviation="5.03728" result="effect1_foregroundBlur_155_24761"/>
</filter>
<filter id="filter10_f_155_24761" x="153.641" y="151.639" width="359.594" height="289.593" filterUnits="userSpaceOnUse" color-interpolation-filters="sRGB">
<feFlood flood-opacity="0" result="BackgroundImageFix"/>
<feBlend mode="normal" in="SourceGraphic" in2="BackgroundImageFix" result="shape"/>
<feGaussianBlur stdDeviation="5.03728" result="effect1_foregroundBlur_155_24761"/>
</filter>
<filter id="filter11_f_155_24761" x="223.005" y="113.745" width="283.553" height="375.871" filterUnits="userSpaceOnUse" color-interpolation-filters="sRGB">
<feFlood flood-opacity="0" result="BackgroundImageFix"/>
<feBlend mode="normal" in="SourceGraphic" in2="BackgroundImageFix" result="shape"/>
<feGaussianBlur stdDeviation="4" result="effect1_foregroundBlur_155_24761"/>
</filter>
<filter id="filter12_f_155_24761" x="200.107" y="223.076" width="249.704" height="270.487" filterUnits="userSpaceOnUse" color-interpolation-filters="sRGB">
<feFlood flood-opacity="0" result="BackgroundImageFix"/>
<feBlend mode="normal" in="SourceGraphic" in2="BackgroundImageFix" result="shape"/>
<feGaussianBlur stdDeviation="11.3339" result="effect1_foregroundBlur_155_24761"/>
</filter>
<filter id="filter13_f_155_24761" x="240.732" y="301.132" width="132.427" height="147.005" filterUnits="userSpaceOnUse" color-interpolation-filters="sRGB">
<feFlood flood-opacity="0" result="BackgroundImageFix"/>
<feBlend mode="normal" in="SourceGraphic" in2="BackgroundImageFix" result="shape"/>
<feGaussianBlur stdDeviation="8.81524" result="effect1_foregroundBlur_155_24761"/>
</filter>
<filter id="filter14_f_155_24761" x="114.691" y="50.5126" width="476.753" height="440.585" filterUnits="userSpaceOnUse" color-interpolation-filters="sRGB">
<feFlood flood-opacity="0" result="BackgroundImageFix"/>
<feBlend mode="normal" in="SourceGraphic" in2="BackgroundImageFix" result="shape"/>
<feGaussianBlur stdDeviation="44.0762" result="effect1_foregroundBlur_155_24761"/>
</filter>
<filter id="filter15_f_155_24761" x="-163.741" y="130.674" width="587.467" height="515.296" filterUnits="userSpaceOnUse" color-interpolation-filters="sRGB">
<feFlood flood-opacity="0" result="BackgroundImageFix"/>
<feBlend mode="normal" in="SourceGraphic" in2="BackgroundImageFix" result="shape"/>
<feGaussianBlur stdDeviation="31.483" result="effect1_foregroundBlur_155_24761"/>
</filter>
<filter id="filter16_f_155_24761" x="-155.982" y="160.653" width="581.409" height="589.204" filterUnits="userSpaceOnUse" color-interpolation-filters="sRGB">
<feFlood flood-opacity="0" result="BackgroundImageFix"/>
<feBlend mode="normal" in="SourceGraphic" in2="BackgroundImageFix" result="shape"/>
<feGaussianBlur stdDeviation="17.0846" result="effect1_foregroundBlur_155_24761"/>
</filter>
<filter id="filter17_f_155_24761" x="-77.4106" y="50.6714" width="109.403" height="743.267" filterUnits="userSpaceOnUse" color-interpolation-filters="sRGB">
<feFlood flood-opacity="0" result="BackgroundImageFix"/>
<feBlend mode="normal" in="SourceGraphic" in2="BackgroundImageFix" result="shape"/>
<feGaussianBlur stdDeviation="6.2966" result="effect1_foregroundBlur_155_24761"/>
</filter>
<filter id="filter18_f_155_24761" x="-241.575" y="152.22" width="666.74" height="322.319" filterUnits="userSpaceOnUse" color-interpolation-filters="sRGB">
<feFlood flood-opacity="0" result="BackgroundImageFix"/>
<feBlend mode="normal" in="SourceGraphic" in2="BackgroundImageFix" result="shape"/>
<feGaussianBlur stdDeviation="9.4449" result="effect1_foregroundBlur_155_24761"/>
</filter>
<filter id="filter19_f_155_24761" x="-238.444" y="14.1524" width="472.984" height="612.151" filterUnits="userSpaceOnUse" color-interpolation-filters="sRGB">
<feFlood flood-opacity="0" result="BackgroundImageFix"/>
<feBlend mode="normal" in="SourceGraphic" in2="BackgroundImageFix" result="shape"/>
<feGaussianBlur stdDeviation="6.2966" result="effect1_foregroundBlur_155_24761"/>
</filter>
<filter id="filter20_f_155_24761" x="-169.098" y="119.213" width="409.629" height="474.616" filterUnits="userSpaceOnUse" color-interpolation-filters="sRGB">
<feFlood flood-opacity="0" result="BackgroundImageFix"/>
<feBlend mode="normal" in="SourceGraphic" in2="BackgroundImageFix" result="shape"/>
<feGaussianBlur stdDeviation="12.5932" result="effect1_foregroundBlur_155_24761"/>
</filter>
<filter id="filter21_f_155_24761" x="-191.513" y="75.7682" width="355.156" height="436.896" filterUnits="userSpaceOnUse" color-interpolation-filters="sRGB">
<feFlood flood-opacity="0" result="BackgroundImageFix"/>
<feBlend mode="normal" in="SourceGraphic" in2="BackgroundImageFix" result="shape"/>
<feGaussianBlur stdDeviation="18.8898" result="effect1_foregroundBlur_155_24761"/>
</filter>
<filter id="filter22_f_155_24761" x="-122.975" y="127.136" width="215.393" height="403.739" filterUnits="userSpaceOnUse" color-interpolation-filters="sRGB">
<feFlood flood-opacity="0" result="BackgroundImageFix"/>
<feBlend mode="normal" in="SourceGraphic" in2="BackgroundImageFix" result="shape"/>
<feGaussianBlur stdDeviation="5.03728" result="effect1_foregroundBlur_155_24761"/>
</filter>
<filter id="filter23_f_155_24761" x="-98.3851" y="149.675" width="151.303" height="458.528" filterUnits="userSpaceOnUse" color-interpolation-filters="sRGB">
<feFlood flood-opacity="0" result="BackgroundImageFix"/>
<feBlend mode="normal" in="SourceGraphic" in2="BackgroundImageFix" result="shape"/>
<feGaussianBlur stdDeviation="5.03728" result="effect1_foregroundBlur_155_24761"/>
</filter>
<filter id="filter24_f_155_24761" x="-129.416" y="176.625" width="382.433" height="255.908" filterUnits="userSpaceOnUse" color-interpolation-filters="sRGB">
<feFlood flood-opacity="0" result="BackgroundImageFix"/>
<feBlend mode="normal" in="SourceGraphic" in2="BackgroundImageFix" result="shape"/>
<feGaussianBlur stdDeviation="5.03728" result="effect1_foregroundBlur_155_24761"/>
</filter>
<filter id="filter25_f_155_24761" x="-152.267" y="151.64" width="359.525" height="289.682" filterUnits="userSpaceOnUse" color-interpolation-filters="sRGB">
<feFlood flood-opacity="0" result="BackgroundImageFix"/>
<feBlend mode="normal" in="SourceGraphic" in2="BackgroundImageFix" result="shape"/>
<feGaussianBlur stdDeviation="5.03728" result="effect1_foregroundBlur_155_24761"/>
</filter>
<filter id="filter26_f_155_24761" x="-145.588" y="113.746" width="283.436" height="375.959" filterUnits="userSpaceOnUse" color-interpolation-filters="sRGB">
<feFlood flood-opacity="0" result="BackgroundImageFix"/>
<feBlend mode="normal" in="SourceGraphic" in2="BackgroundImageFix" result="shape"/>
<feGaussianBlur stdDeviation="4" result="effect1_foregroundBlur_155_24761"/>
</filter>
<filter id="filter27_f_155_24761" x="-88.8465" y="223.076" width="249.704" height="270.487" filterUnits="userSpaceOnUse" color-interpolation-filters="sRGB">
<feFlood flood-opacity="0" result="BackgroundImageFix"/>
<feBlend mode="normal" in="SourceGraphic" in2="BackgroundImageFix" result="shape"/>
<feGaussianBlur stdDeviation="11.3339" result="effect1_foregroundBlur_155_24761"/>
</filter>
<filter id="filter28_f_155_24761" x="-12.194" y="301.131" width="132.427" height="147.005" filterUnits="userSpaceOnUse" color-interpolation-filters="sRGB">
<feFlood flood-opacity="0" result="BackgroundImageFix"/>
<feBlend mode="normal" in="SourceGraphic" in2="BackgroundImageFix" result="shape"/>
<feGaussianBlur stdDeviation="8.81524" result="effect1_foregroundBlur_155_24761"/>
</filter>
<filter id="filter29_f_155_24761" x="-230.304" y="50.5121" width="476.613" height="439.609" filterUnits="userSpaceOnUse" color-interpolation-filters="sRGB">
<feFlood flood-opacity="0" result="BackgroundImageFix"/>
<feBlend mode="normal" in="SourceGraphic" in2="BackgroundImageFix" result="shape"/>
<feGaussianBlur stdDeviation="44.0762" result="effect1_foregroundBlur_155_24761"/>
</filter>
<linearGradient id="paint0_linear_155_24761" x1="243.616" y1="294.448" x2="331.424" y2="656.36" gradientUnits="userSpaceOnUse">
<stop stop-color="#8650DB"/>
<stop offset="1" stop-color="#AD50DB" stop-opacity="0.5"/>
</linearGradient>
<linearGradient id="paint1_linear_155_24761" x1="307.753" y1="372.211" x2="98.7227" y2="645.385" gradientUnits="userSpaceOnUse">
<stop stop-color="#AEA8F0"/>
<stop offset="1" stop-color="#BF8CF2" stop-opacity="0.6"/>
</linearGradient>
<linearGradient id="paint2_linear_155_24761" x1="367.895" y1="644.642" x2="413.734" y2="258.442" gradientUnits="userSpaceOnUse">
<stop offset="0.160542" stop-color="#8981E4"/>
<stop offset="0.823287" stop-color="#8981E4"/>
<stop offset="1" stop-color="#8981E4" stop-opacity="0.2"/>
</linearGradient>
<linearGradient id="paint3_linear_155_24761" x1="78.1454" y1="393.704" x2="421.752" y2="253.97" gradientUnits="userSpaceOnUse">
<stop stop-color="#8981E4"/>
<stop offset="0.676732" stop-color="#8981E4"/>
<stop offset="1" stop-color="#8981E4" stop-opacity="0.2"/>
</linearGradient>
<linearGradient id="paint4_linear_155_24761" x1="345.297" y1="354.287" x2="405.844" y2="251.481" gradientUnits="userSpaceOnUse">
<stop stop-color="#FF80D5"/>
<stop offset="1" stop-color="#F28CD0" stop-opacity="0.2"/>
</linearGradient>
<linearGradient id="paint5_linear_155_24761" x1="325.938" y1="387.572" x2="406.296" y2="282.086" gradientUnits="userSpaceOnUse">
<stop stop-color="white"/>
<stop offset="1" stop-color="white" stop-opacity="0"/>
</linearGradient>
<linearGradient id="paint6_linear_155_24761" x1="366.342" y1="321.567" x2="434.964" y2="230.407" gradientUnits="userSpaceOnUse">
<stop stop-color="white"/>
<stop offset="1" stop-color="white" stop-opacity="0"/>
</linearGradient>
<linearGradient id="paint7_linear_155_24761" x1="473.897" y1="138.461" x2="293.487" y2="500.733" gradientUnits="userSpaceOnUse">
<stop stop-color="white" stop-opacity="0.2"/>
<stop offset="1" stop-color="white"/>
</linearGradient>
<linearGradient id="paint8_linear_155_24761" x1="449.264" y1="160.523" x2="330.147" y2="577.103" gradientUnits="userSpaceOnUse">
<stop stop-color="white" stop-opacity="0.2"/>
<stop offset="1" stop-color="white"/>
</linearGradient>
<linearGradient id="paint9_linear_155_24761" x1="480.461" y1="189.488" x2="139.077" y2="406.85" gradientUnits="userSpaceOnUse">
<stop stop-color="white" stop-opacity="0.2"/>
<stop offset="1" stop-color="white"/>
</linearGradient>
<linearGradient id="paint10_linear_155_24761" x1="503.285" y1="164.519" x2="184.576" y2="413.946" gradientUnits="userSpaceOnUse">
<stop stop-color="white" stop-opacity="0.5"/>
<stop offset="0.662479" stop-color="white"/>
</linearGradient>
<linearGradient id="paint11_linear_155_24761" x1="495.158" y1="127.256" x2="257.6" y2="456.084" gradientUnits="userSpaceOnUse">
<stop stop-color="white" stop-opacity="0.2"/>
<stop offset="1" stop-color="white"/>
</linearGradient>
<radialGradient id="paint12_radial_155_24761" cx="0" cy="0" r="1" gradientUnits="userSpaceOnUse" gradientTransform="translate(338.784 337.472) rotate(78.2433) scale(46.3035 46.5076)">
<stop stop-color="white"/>
<stop offset="1" stop-color="white" stop-opacity="0"/>
</radialGradient>
<radialGradient id="paint13_radial_155_24761" cx="0" cy="0" r="1" gradientUnits="userSpaceOnUse" gradientTransform="translate(330.549 349.726) rotate(78.2433) scale(40.4719 40.5161)">
<stop stop-color="white"/>
<stop offset="1" stop-color="white" stop-opacity="0"/>
</radialGradient>
<radialGradient id="paint14_radial_155_24761" cx="0" cy="0" r="1" gradientUnits="userSpaceOnUse" gradientTransform="translate(170.25 225.25) rotate(-47.0257) scale(110.024 212.972)">
<stop stop-color="#BBE3F7"/>
<stop offset="1" stop-color="#C5BBF7"/>
</radialGradient>
<linearGradient id="paint15_linear_155_24761" x1="118.355" y1="293.447" x2="30.5469" y2="655.359" gradientUnits="userSpaceOnUse">
<stop stop-color="#8650DB"/>
<stop offset="1" stop-color="#AD50DB" stop-opacity="0.5"/>
</linearGradient>
<linearGradient id="paint16_linear_155_24761" x1="53.1571" y1="372.255" x2="262.293" y2="645.382" gradientUnits="userSpaceOnUse">
<stop stop-color="#AEA8F0"/>
<stop offset="1" stop-color="#BF8CF2" stop-opacity="0.6"/>
</linearGradient>
<linearGradient id="paint17_linear_155_24761" x1="-7.0332" y1="644.66" x2="-52.9691" y2="258.474" gradientUnits="userSpaceOnUse">
<stop offset="0.160542" stop-color="#8981E4"/>
<stop offset="0.823287" stop-color="#8981E4"/>
<stop offset="1" stop-color="#8981E4" stop-opacity="0.2"/>
</linearGradient>
<linearGradient id="paint18_linear_155_24761" x1="282.79" y1="393.771" x2="-60.837" y2="254.099" gradientUnits="userSpaceOnUse">
<stop stop-color="#8981E4"/>
<stop offset="0.676732" stop-color="#8981E4"/>
<stop offset="1" stop-color="#8981E4" stop-opacity="0.2"/>
</linearGradient>
<linearGradient id="paint19_linear_155_24761" x1="15.5707" y1="354.373" x2="-45.0122" y2="251.578" gradientUnits="userSpaceOnUse">
<stop stop-color="#FF80D5"/>
<stop offset="1" stop-color="#F28CD0" stop-opacity="0.2"/>
</linearGradient>
<linearGradient id="paint20_linear_155_24761" x1="34.9742" y1="387.657" x2="-45.4171" y2="282.196" gradientUnits="userSpaceOnUse">
<stop stop-color="white"/>
<stop offset="1" stop-color="white" stop-opacity="0"/>
</linearGradient>
<linearGradient id="paint21_linear_155_24761" x1="-4.43077" y1="321.63" x2="-73.0811" y2="230.491" gradientUnits="userSpaceOnUse">
<stop stop-color="white"/>
<stop offset="1" stop-color="white" stop-opacity="0"/>
</linearGradient>
<linearGradient id="paint22_linear_155_24761" x1="-112.93" y1="138.462" x2="67.5972" y2="500.677" gradientUnits="userSpaceOnUse">
<stop stop-color="white" stop-opacity="0.2"/>
<stop offset="1" stop-color="white"/>
</linearGradient>
<linearGradient id="paint23_linear_155_24761" x1="-88.2964" y1="160.524" x2="30.6735" y2="576.157" gradientUnits="userSpaceOnUse">
<stop stop-color="white" stop-opacity="0.2"/>
<stop offset="1" stop-color="white"/>
</linearGradient>
<linearGradient id="paint24_linear_155_24761" x1="-119.493" y1="189.489" x2="221.938" y2="406.777" gradientUnits="userSpaceOnUse">
<stop stop-color="white" stop-opacity="0.2"/>
<stop offset="1" stop-color="white"/>
</linearGradient>
<linearGradient id="paint25_linear_155_24761" x1="-142.317" y1="164.52" x2="176.457" y2="413.865" gradientUnits="userSpaceOnUse">
<stop stop-color="white" stop-opacity="0.5"/>
<stop offset="0.662479" stop-color="white"/>
</linearGradient>
<linearGradient id="paint26_linear_155_24761" x1="-134.188" y1="127.261" x2="103.478" y2="456.01" gradientUnits="userSpaceOnUse">
<stop stop-color="white" stop-opacity="0.2"/>
<stop offset="1" stop-color="white"/>
</linearGradient>
<radialGradient id="paint27_radial_155_24761" cx="0" cy="0" r="1" gradientUnits="userSpaceOnUse" gradientTransform="translate(22.181 337.472) rotate(101.757) scale(46.3035 46.5076)">
<stop stop-color="white"/>
<stop offset="1" stop-color="white" stop-opacity="0"/>
</radialGradient>
<radialGradient id="paint28_radial_155_24761" cx="0" cy="0" r="1" gradientUnits="userSpaceOnUse" gradientTransform="translate(30.4162 349.725) rotate(101.757) scale(40.4719 40.5161)">
<stop stop-color="white"/>
<stop offset="1" stop-color="white" stop-opacity="0"/>
</radialGradient>
<radialGradient id="paint29_radial_155_24761" cx="0" cy="0" r="1" gradientUnits="userSpaceOnUse" gradientTransform="translate(110.25 253.5) rotate(-42.2914) scale(108.485 209.994)">
<stop stop-color="#F7BBCF"/>
<stop offset="1" stop-color="#EDBBF7"/>
</radialGradient>
<clipPath id="clip0_155_24761">
<rect width="360" height="2915" fill="white" transform="translate(-3 -121)"/>
</clipPath>
</defs>
</svg>
