<svg width="28" height="28" viewBox="0 0 28 28" fill="none" xmlns="http://www.w3.org/2000/svg">
<g id="Speedometer">
<path id="Vector" d="M24.267 9.93782C24.2312 9.88364 24.1838 9.8381 24.1283 9.80451C24.0727 9.77092 24.0103 9.75012 23.9457 9.74363C23.8811 9.73714 23.8159 9.74511 23.7547 9.76697C23.6936 9.78883 23.638 9.82403 23.5922 9.87001L15.3431 18.1191C15.1762 18.2675 14.9588 18.3464 14.7355 18.3396C14.5123 18.3329 14.3 18.2411 14.1423 18.0829C13.9846 17.9248 13.8933 17.7123 13.8872 17.489C13.8811 17.2658 13.9606 17.0486 14.1094 16.882L24.2484 6.74407C24.3297 6.66277 24.3942 6.56626 24.4382 6.46004C24.4822 6.35382 24.5049 6.23998 24.5049 6.12501C24.5049 6.01004 24.4822 5.89619 24.4382 5.78997C24.3942 5.68375 24.3297 5.58724 24.2484 5.50595C24.1671 5.42465 24.0706 5.36016 23.9644 5.31616C23.8582 5.27217 23.7443 5.24952 23.6294 5.24952C23.5144 5.24952 23.4006 5.27217 23.2943 5.31616C23.1881 5.36016 23.0916 5.42465 23.0103 5.50595L21.5469 6.97048C19.4584 5.33934 16.8974 4.4291 14.2479 4.37622C11.5984 4.32334 9.00321 5.13066 6.85126 6.67716C4.69932 8.22367 3.10662 10.426 2.31194 12.9541C1.51725 15.4821 1.56339 18.1996 2.44344 20.6992C2.56401 21.0419 2.7877 21.3389 3.0838 21.5495C3.37989 21.76 3.73389 21.8737 4.09719 21.875H23.9017C24.2647 21.8752 24.6187 21.7626 24.9148 21.5527C25.2109 21.3429 25.4344 21.0461 25.5544 20.7036C26.1781 18.9303 26.3863 17.0375 26.1632 15.1709C25.94 13.3044 25.2913 11.5141 24.267 9.93782ZM6.2825 18.2011C6.32861 18.4285 6.2825 18.6649 6.1543 18.8584C6.02611 19.0518 5.82633 19.1864 5.59891 19.2325C5.54132 19.2443 5.48269 19.2501 5.42391 19.25C5.22223 19.2497 5.02683 19.1798 4.87078 19.0521C4.71472 18.9243 4.60759 18.7466 4.5675 18.5489C4.25461 17.0086 4.32341 15.4152 4.7679 13.9077C5.21239 12.4001 6.01906 11.0242 7.11753 9.90007C8.21599 8.77593 9.57287 7.93769 11.0698 7.4585C12.5667 6.9793 14.1581 6.87371 15.7052 7.15095C15.9336 7.19185 16.1364 7.32182 16.269 7.51227C16.4016 7.70272 16.4532 7.93805 16.4123 8.16649C16.3714 8.39493 16.2414 8.59777 16.0509 8.73037C15.8605 8.86298 15.6252 8.9145 15.3967 8.8736C14.1307 8.64695 12.8285 8.73352 11.6036 9.12575C10.3788 9.51798 9.26848 10.204 8.36963 11.1238C7.47077 12.0437 6.81066 13.1696 6.44686 14.4032C6.08306 15.6368 6.02664 16.9407 6.2825 18.2011Z" fill="url(#paint0_linear_3976_6436)"/>
</g>
<defs>
<linearGradient id="paint0_linear_3976_6436" x1="18.6149" y1="19.9857" x2="1.64735" y2="3.65943" gradientUnits="userSpaceOnUse">
<stop offset="0.27" stop-color="#19191E"/>
<stop offset="0.875" stop-color="#49494A" stop-opacity="0.7"/>
</linearGradient>
</defs>
</svg>
