<svg width="200" height="164" viewBox="0 0 200 164" fill="none" xmlns="http://www.w3.org/2000/svg">
<path opacity="0.6" d="M61.8443 149.21C61.1396 149.21 60.5049 149.093 59.9403 148.86C59.3803 148.622 58.9159 148.286 58.5473 147.852C58.1833 147.418 57.9453 146.902 57.8333 146.305L58.8833 146.13C59.0513 146.783 59.4059 147.297 59.9473 147.67C60.4886 148.039 61.1349 148.223 61.8863 148.223C62.3809 148.223 62.8243 148.146 63.2163 147.992C63.6083 147.833 63.9163 147.609 64.1403 147.32C64.3643 147.031 64.4763 146.688 64.4763 146.291C64.4763 146.03 64.4296 145.808 64.3363 145.626C64.2429 145.439 64.1193 145.285 63.9653 145.164C63.8113 145.043 63.6433 144.942 63.4613 144.863C63.2793 144.779 63.1019 144.711 62.9293 144.66L60.3743 143.897C60.0663 143.808 59.7816 143.696 59.5203 143.561C59.2589 143.421 59.0303 143.255 58.8343 143.064C58.6429 142.868 58.4936 142.639 58.3863 142.378C58.2789 142.117 58.2253 141.818 58.2253 141.482C58.2253 140.913 58.3746 140.42 58.6733 140.005C58.9719 139.59 59.3803 139.27 59.8983 139.046C60.4163 138.822 61.0066 138.712 61.6693 138.717C62.3413 138.717 62.9409 138.836 63.4683 139.074C64.0003 139.312 64.4389 139.653 64.7843 140.096C65.1296 140.535 65.3583 141.055 65.4703 141.657L64.3923 141.853C64.3223 141.414 64.1613 141.034 63.9093 140.712C63.6573 140.39 63.3353 140.143 62.9433 139.97C62.5559 139.793 62.1289 139.702 61.6623 139.697C61.2096 139.697 60.8059 139.774 60.4513 139.928C60.1013 140.077 59.8236 140.283 59.6183 140.544C59.4129 140.805 59.3103 141.104 59.3103 141.44C59.3103 141.781 59.4036 142.054 59.5903 142.259C59.7816 142.464 60.0149 142.625 60.2903 142.742C60.5703 142.859 60.8409 142.954 61.1023 143.029L63.0763 143.61C63.2816 143.666 63.5219 143.748 63.7973 143.855C64.0773 143.958 64.3479 144.107 64.6093 144.303C64.8753 144.494 65.0946 144.746 65.2673 145.059C65.4399 145.372 65.5263 145.768 65.5263 146.249C65.5263 146.716 65.4329 147.133 65.2463 147.502C65.0643 147.871 64.8053 148.181 64.4693 148.433C64.1379 148.685 63.7483 148.876 63.3003 149.007C62.8569 149.142 62.3716 149.21 61.8443 149.21ZM69.9042 149.21C69.1995 149.21 68.5975 149.035 68.0982 148.685C67.5989 148.33 67.2162 147.852 66.9502 147.25C66.6842 146.648 66.5512 145.969 66.5512 145.213C66.5512 144.462 66.6819 143.785 66.9432 143.183C67.2092 142.581 67.5895 142.105 68.0842 141.755C68.5789 141.405 69.1715 141.23 69.8622 141.23C70.5715 141.23 71.1689 141.403 71.6542 141.748C72.1395 142.093 72.5059 142.567 72.7532 143.169C73.0052 143.766 73.1312 144.448 73.1312 145.213C73.1312 145.964 73.0075 146.643 72.7602 147.25C72.5129 147.852 72.1489 148.33 71.6682 148.685C71.1875 149.035 70.5995 149.21 69.9042 149.21ZM70.0092 148.251C70.5459 148.251 70.9892 148.12 71.3392 147.859C71.6892 147.598 71.9505 147.238 72.1232 146.781C72.2959 146.319 72.3822 145.796 72.3822 145.213C72.3822 144.62 72.2959 144.098 72.1232 143.645C71.9505 143.188 71.6892 142.831 71.3392 142.574C70.9939 142.317 70.5575 142.189 70.0302 142.189C69.4889 142.189 69.0409 142.322 68.6862 142.588C68.3315 142.854 68.0679 143.216 67.8952 143.673C67.7272 144.13 67.6432 144.644 67.6432 145.213C67.6432 145.787 67.7295 146.305 67.9022 146.767C68.0795 147.224 68.3432 147.586 68.6932 147.852C69.0432 148.118 69.4819 148.251 70.0092 148.251ZM72.2702 152.36V147.131H72.3822V141.44H73.3062V152.36H72.2702ZM78.161 149.189C77.7084 149.189 77.3117 149.119 76.971 148.979C76.635 148.839 76.348 148.65 76.11 148.412C75.8767 148.174 75.6877 147.903 75.543 147.6C75.3984 147.292 75.2934 146.968 75.228 146.627C75.1627 146.282 75.13 145.939 75.13 145.598V141.44H76.166V145.297C76.166 145.712 76.2057 146.097 76.285 146.452C76.3644 146.807 76.4904 147.117 76.663 147.383C76.8404 147.644 77.0667 147.847 77.342 147.992C77.622 148.137 77.9604 148.209 78.357 148.209C78.721 148.209 79.0407 148.146 79.316 148.02C79.596 147.894 79.8294 147.714 80.016 147.481C80.2074 147.243 80.352 146.956 80.45 146.62C80.548 146.279 80.597 145.897 80.597 145.472L81.325 145.633C81.325 146.408 81.1897 147.059 80.919 147.586C80.6484 148.113 80.275 148.512 79.799 148.783C79.323 149.054 78.777 149.189 78.161 149.189ZM80.702 149V147.138H80.597V141.44H81.626V149H80.702ZM85.7455 149.21C85.1762 149.21 84.6979 149.107 84.3105 148.902C83.9279 148.697 83.6409 148.424 83.4495 148.083C83.2582 147.742 83.1625 147.371 83.1625 146.97C83.1625 146.559 83.2442 146.209 83.4075 145.92C83.5755 145.626 83.8019 145.386 84.0865 145.199C84.3759 145.012 84.7095 144.87 85.0875 144.772C85.4702 144.679 85.8925 144.597 86.3545 144.527C86.8212 144.452 87.2762 144.389 87.7195 144.338C88.1675 144.282 88.5595 144.228 88.8955 144.177L88.5315 144.401C88.5455 143.654 88.4009 143.101 88.0975 142.742C87.7942 142.383 87.2669 142.203 86.5155 142.203C85.9975 142.203 85.5589 142.32 85.1995 142.553C84.8449 142.786 84.5952 143.155 84.4505 143.659L83.4495 143.365C83.6222 142.688 83.9699 142.163 84.4925 141.79C85.0152 141.417 85.6942 141.23 86.5295 141.23C87.2202 141.23 87.8059 141.361 88.2865 141.622C88.7719 141.879 89.1149 142.252 89.3155 142.742C89.4089 142.961 89.4695 143.206 89.4975 143.477C89.5255 143.748 89.5395 144.023 89.5395 144.303V149H88.6225V147.103L88.8885 147.215C88.6319 147.864 88.2329 148.358 87.6915 148.699C87.1502 149.04 86.5015 149.21 85.7455 149.21ZM85.8645 148.321C86.3452 148.321 86.7652 148.235 87.1245 148.062C87.4839 147.889 87.7732 147.654 87.9925 147.355C88.2119 147.052 88.3542 146.711 88.4195 146.333C88.4755 146.09 88.5059 145.824 88.5105 145.535C88.5152 145.241 88.5175 145.022 88.5175 144.877L88.9095 145.08C88.5595 145.127 88.1792 145.173 87.7685 145.22C87.3625 145.267 86.9612 145.32 86.5645 145.381C86.1725 145.442 85.8179 145.514 85.5005 145.598C85.2859 145.659 85.0782 145.745 84.8775 145.857C84.6769 145.964 84.5112 146.109 84.3805 146.291C84.2545 146.473 84.1915 146.699 84.1915 146.97C84.1915 147.189 84.2452 147.402 84.3525 147.607C84.4645 147.812 84.6419 147.983 84.8845 148.118C85.1319 148.253 85.4585 148.321 85.8645 148.321ZM91.3618 149V141.44H92.2858V143.26L92.1038 143.022C92.1878 142.798 92.2975 142.593 92.4328 142.406C92.5682 142.215 92.7152 142.058 92.8738 141.937C93.0698 141.764 93.2985 141.634 93.5598 141.545C93.8212 141.452 94.0848 141.398 94.3508 141.384C94.6168 141.365 94.8595 141.384 95.0788 141.44V142.406C94.8035 142.336 94.5025 142.32 94.1758 142.357C93.8492 142.394 93.5482 142.525 93.2728 142.749C93.0208 142.945 92.8318 143.181 92.7058 143.456C92.5798 143.727 92.4958 144.016 92.4538 144.324C92.4118 144.627 92.3908 144.928 92.3908 145.227V149H91.3618ZM99.469 149.21C98.7317 149.21 98.0924 149.047 97.551 148.72C97.0144 148.393 96.5967 147.934 96.298 147.341C95.9994 146.748 95.85 146.053 95.85 145.255C95.85 144.429 95.997 143.715 96.291 143.113C96.585 142.511 96.998 142.047 97.53 141.72C98.0667 141.393 98.699 141.23 99.427 141.23C100.174 141.23 100.811 141.403 101.338 141.748C101.865 142.089 102.264 142.579 102.535 143.218C102.806 143.857 102.929 144.62 102.906 145.507H101.856V145.143C101.837 144.163 101.625 143.423 101.219 142.924C100.818 142.425 100.23 142.175 99.455 142.175C98.643 142.175 98.02 142.439 97.586 142.966C97.1567 143.493 96.942 144.245 96.942 145.22C96.942 146.172 97.1567 146.912 97.586 147.439C98.02 147.962 98.6337 148.223 99.427 148.223C99.9684 148.223 100.44 148.099 100.841 147.852C101.247 147.6 101.567 147.238 101.8 146.767L102.759 147.138C102.46 147.796 102.019 148.307 101.436 148.671C100.857 149.03 100.202 149.21 99.469 149.21ZM96.578 145.507V144.646H102.353V145.507H96.578ZM107.28 149.203C106.394 149.203 105.663 149.012 105.089 148.629C104.52 148.246 104.17 147.714 104.039 147.033L105.089 146.858C105.201 147.287 105.456 147.63 105.852 147.887C106.254 148.139 106.748 148.265 107.336 148.265C107.91 148.265 108.363 148.146 108.694 147.908C109.026 147.665 109.191 147.336 109.191 146.921C109.191 146.688 109.138 146.499 109.03 146.354C108.928 146.205 108.715 146.067 108.393 145.941C108.071 145.815 107.591 145.666 106.951 145.493C106.265 145.306 105.729 145.12 105.341 144.933C104.954 144.746 104.679 144.532 104.515 144.289C104.352 144.042 104.27 143.741 104.27 143.386C104.27 142.957 104.392 142.581 104.634 142.259C104.877 141.932 105.213 141.68 105.642 141.503C106.072 141.321 106.571 141.23 107.14 141.23C107.71 141.23 108.218 141.323 108.666 141.51C109.119 141.692 109.483 141.949 109.758 142.28C110.034 142.611 110.197 142.996 110.248 143.435L109.198 143.624C109.128 143.181 108.907 142.831 108.533 142.574C108.165 142.313 107.696 142.177 107.126 142.168C106.59 142.154 106.153 142.257 105.817 142.476C105.481 142.691 105.313 142.978 105.313 143.337C105.313 143.538 105.374 143.71 105.495 143.855C105.617 143.995 105.836 144.128 106.153 144.254C106.475 144.38 106.933 144.518 107.525 144.667C108.221 144.844 108.767 145.031 109.163 145.227C109.56 145.423 109.842 145.654 110.01 145.92C110.178 146.186 110.262 146.515 110.262 146.907C110.262 147.621 109.996 148.183 109.464 148.594C108.937 149 108.209 149.203 107.28 149.203ZM115.21 149.21C114.515 149.21 113.927 149.035 113.446 148.685C112.965 148.33 112.601 147.852 112.354 147.25C112.107 146.643 111.983 145.964 111.983 145.213C111.983 144.448 112.107 143.766 112.354 143.169C112.606 142.567 112.975 142.093 113.46 141.748C113.945 141.403 114.543 141.23 115.252 141.23C115.943 141.23 116.535 141.405 117.03 141.755C117.525 142.105 117.903 142.581 118.164 143.183C118.43 143.785 118.563 144.462 118.563 145.213C118.563 145.969 118.43 146.648 118.164 147.25C117.898 147.852 117.515 148.33 117.016 148.685C116.517 149.035 115.915 149.21 115.21 149.21ZM111.808 152.36V141.44H112.732V147.131H112.844V152.36H111.808ZM115.105 148.251C115.632 148.251 116.071 148.118 116.421 147.852C116.771 147.586 117.032 147.224 117.205 146.767C117.382 146.305 117.471 145.787 117.471 145.213C117.471 144.644 117.385 144.13 117.212 143.673C117.039 143.216 116.776 142.854 116.421 142.588C116.071 142.322 115.625 142.189 115.084 142.189C114.557 142.189 114.118 142.317 113.768 142.574C113.423 142.831 113.164 143.188 112.991 143.645C112.818 144.098 112.732 144.62 112.732 145.213C112.732 145.796 112.818 146.319 112.991 146.781C113.164 147.238 113.425 147.598 113.775 147.859C114.125 148.12 114.568 148.251 115.105 148.251ZM122.263 149.21C121.694 149.21 121.215 149.107 120.828 148.902C120.445 148.697 120.158 148.424 119.967 148.083C119.776 147.742 119.68 147.371 119.68 146.97C119.68 146.559 119.762 146.209 119.925 145.92C120.093 145.626 120.319 145.386 120.604 145.199C120.893 145.012 121.227 144.87 121.605 144.772C121.988 144.679 122.41 144.597 122.872 144.527C123.339 144.452 123.794 144.389 124.237 144.338C124.685 144.282 125.077 144.228 125.413 144.177L125.049 144.401C125.063 143.654 124.918 143.101 124.615 142.742C124.312 142.383 123.784 142.203 123.033 142.203C122.515 142.203 122.076 142.32 121.717 142.553C121.362 142.786 121.113 143.155 120.968 143.659L119.967 143.365C120.14 142.688 120.487 142.163 121.01 141.79C121.533 141.417 122.212 141.23 123.047 141.23C123.738 141.23 124.323 141.361 124.804 141.622C125.289 141.879 125.632 142.252 125.833 142.742C125.926 142.961 125.987 143.206 126.015 143.477C126.043 143.748 126.057 144.023 126.057 144.303V149H125.14V147.103L125.406 147.215C125.149 147.864 124.75 148.358 124.209 148.699C123.668 149.04 123.019 149.21 122.263 149.21ZM122.382 148.321C122.863 148.321 123.283 148.235 123.642 148.062C124.001 147.889 124.291 147.654 124.51 147.355C124.729 147.052 124.872 146.711 124.937 146.333C124.993 146.09 125.023 145.824 125.028 145.535C125.033 145.241 125.035 145.022 125.035 144.877L125.427 145.08C125.077 145.127 124.697 145.173 124.286 145.22C123.88 145.267 123.479 145.32 123.082 145.381C122.69 145.442 122.335 145.514 122.018 145.598C121.803 145.659 121.596 145.745 121.395 145.857C121.194 145.964 121.029 146.109 120.898 146.291C120.772 146.473 120.709 146.699 120.709 146.97C120.709 147.189 120.763 147.402 120.87 147.607C120.982 147.812 121.159 147.983 121.402 148.118C121.649 148.253 121.976 148.321 122.382 148.321ZM131.015 149.21C130.255 149.21 129.611 149.04 129.083 148.699C128.556 148.358 128.155 147.889 127.879 147.292C127.609 146.69 127.469 145.999 127.459 145.22C127.469 144.427 127.613 143.731 127.893 143.134C128.173 142.532 128.577 142.065 129.104 141.734C129.632 141.398 130.271 141.23 131.022 141.23C131.788 141.23 132.453 141.417 133.017 141.79C133.587 142.163 133.976 142.674 134.186 143.323L133.178 143.645C133.001 143.192 132.719 142.842 132.331 142.595C131.949 142.343 131.51 142.217 131.015 142.217C130.46 142.217 130 142.345 129.636 142.602C129.272 142.854 129.002 143.206 128.824 143.659C128.647 144.112 128.556 144.632 128.551 145.22C128.561 146.125 128.771 146.853 129.181 147.404C129.592 147.95 130.203 148.223 131.015 148.223C131.529 148.223 131.965 148.106 132.324 147.873C132.688 147.635 132.964 147.29 133.15 146.837L134.186 147.145C133.906 147.817 133.496 148.33 132.954 148.685C132.413 149.035 131.767 149.21 131.015 149.21ZM138.625 149.21C137.888 149.21 137.249 149.047 136.707 148.72C136.171 148.393 135.753 147.934 135.454 147.341C135.156 146.748 135.006 146.053 135.006 145.255C135.006 144.429 135.153 143.715 135.447 143.113C135.741 142.511 136.154 142.047 136.686 141.72C137.223 141.393 137.855 141.23 138.583 141.23C139.33 141.23 139.967 141.403 140.494 141.748C141.022 142.089 141.421 142.579 141.691 143.218C141.962 143.857 142.086 144.62 142.062 145.507H141.012V145.143C140.994 144.163 140.781 143.423 140.375 142.924C139.974 142.425 139.386 142.175 138.611 142.175C137.799 142.175 137.176 142.439 136.742 142.966C136.313 143.493 136.098 144.245 136.098 145.22C136.098 146.172 136.313 146.912 136.742 147.439C137.176 147.962 137.79 148.223 138.583 148.223C139.125 148.223 139.596 148.099 139.997 147.852C140.403 147.6 140.723 147.238 140.956 146.767L141.915 147.138C141.617 147.796 141.176 148.307 140.592 148.671C140.014 149.03 139.358 149.21 138.625 149.21ZM135.734 145.507V144.646H141.509V145.507H135.734Z" fill="#0E041B"/>
<path d="M110.962 45.5946C109.449 44.0685 106.994 44.0685 105.482 45.5946L80.8152 70.4639C77.7863 73.5151 72.8791 73.5151 69.8527 70.4639C66.823 67.4118 66.823 62.4635 69.8527 59.4099L94.0442 35.0201C91.0169 31.9672 86.1081 31.9672 83.0808 35.0201L64.3694 53.8841C58.3157 59.989 58.3157 69.8847 64.3694 75.9905C70.4247 82.0954 80.24 82.0954 86.2953 75.9905L110.962 51.1212C112.475 49.5951 112.475 47.1206 110.962 45.5946ZM119.184 37.3059C113.129 31.2001 103.314 31.2001 97.2586 37.3059L72.5923 62.1736C71.0795 63.6988 71.0795 66.1749 72.5923 67.7002C74.1059 69.2262 76.5595 69.2262 78.0732 67.7002L102.741 42.8325C105.768 39.7796 110.676 39.7796 113.702 42.8325C115.217 44.3577 117.671 44.3577 119.184 42.8325C120.698 41.3048 120.698 38.8319 119.184 37.3059ZM127.407 62.1736C125.894 60.6492 123.439 60.6492 121.925 62.1736L97.2586 87.0421C94.2313 90.0941 89.3225 90.0941 86.2953 87.0421C84.7824 85.5168 82.3288 85.5168 80.8152 87.0421C79.2992 88.5689 79.2992 91.0434 80.8152 92.5679C86.8681 98.6728 96.6858 98.6728 102.741 92.5679L127.407 67.7002C128.92 66.1749 128.92 63.6988 127.407 62.1736ZM135.63 53.8849C129.575 47.7807 119.758 47.7807 113.704 53.8849L89.0365 78.7542C87.5229 80.2786 87.5229 82.7547 89.0365 84.28C90.5509 85.8068 93.0053 85.8068 94.5182 84.28L119.184 59.4115C122.211 56.3586 127.121 56.3586 130.147 59.4115C133.174 62.4635 133.174 67.4118 130.147 70.4639L105.956 94.8545C108.983 97.9057 113.889 97.9057 116.919 94.8545L135.63 75.9905C141.684 69.8847 141.684 59.989 135.63 53.8849Z" fill="#0D041B" fill-opacity="0.75"/>
</svg>
