<svg width="108" height="40" viewBox="0 0 108 40" fill="none" xmlns="http://www.w3.org/2000/svg">
<g opacity="0.6">
<path d="M42.3828 15.7643C42.7357 16.176 43.1671 16.5289 43.6964 16.8426C44.5787 17.3916 45.8923 17.921 47.6765 17.921C50.9115 17.921 52.8722 15.9603 52.8722 13.7056C52.8722 8.9217 46.01 9.96083 46.01 7.62768C46.01 6.84343 46.5786 6.25524 48.0686 6.25524C48.8529 6.25524 49.4803 6.54934 49.9312 6.84343C50.1861 7.01989 50.4018 7.21595 50.6174 7.43162L52.5781 5.47099C52.2448 5.13769 51.8722 4.82399 51.4213 4.5495C50.6567 4.07895 49.4803 3.6084 47.9706 3.6084C44.8336 3.6084 42.971 5.47099 42.971 7.62768C42.971 12.4116 49.8332 11.3725 49.8332 13.7056C49.8332 14.5879 49.147 15.2741 47.5785 15.2741C46.5393 15.2741 45.7355 14.9212 45.1865 14.5487C44.8532 14.333 44.5787 14.0781 44.3434 13.8037L42.3828 15.7643Z" fill="#8C8CA6"/>
<path d="M55.1261 14.2938C55.1261 16.5681 56.4005 17.8229 58.3612 17.8229C58.8513 17.8229 59.3023 17.7641 59.616 17.6857C59.7924 17.6269 59.9689 17.5877 60.1257 17.5289V15.0781C60.0277 15.1173 59.9297 15.1565 59.812 15.1761C59.5963 15.2349 59.3415 15.2741 59.0474 15.2741C58.2631 15.2741 57.773 14.784 57.773 13.9017V10.6667H59.9297V8.21587H57.773V5.27493H55.4202V7.0395C55.4202 7.82375 55.0673 8.21587 54.3419 8.21587H53.4596V10.6667H55.1261V14.2938Z" fill="#8C8CA6"/>
<path d="M67.0002 17.6269H69.647V11.647C69.647 9.50989 67.9805 7.82375 65.5297 7.82375C64.2553 7.82375 63.2946 8.2943 62.6084 8.76485C62.2162 9.03934 61.8829 9.35304 61.6084 9.68634L63.1769 11.2548C63.3338 11.0588 63.5299 10.8823 63.7455 10.7255C64.118 10.4314 64.6474 10.1765 65.3336 10.1765C66.3336 10.1765 66.9021 10.7647 67.0002 11.4509L63.9612 11.9999C62.177 12.3136 61.1183 13.5096 61.1183 15.0781C61.1183 16.6466 62.2947 17.8229 64.0592 17.8229C64.9807 17.8229 65.7062 17.5092 66.1767 17.1367C66.4512 16.9407 66.6865 16.7054 66.9021 16.4505H67.0002V17.6269ZM67.0002 13.5096C67.0002 14.784 66.1179 15.6663 64.9415 15.6663C64.1573 15.6663 63.7651 15.2937 63.7651 14.6859C63.7651 14.1958 64.1573 13.8429 64.8435 13.7056L67.0002 13.3135V13.5096Z" fill="#8C8CA6"/>
<path d="M71.3189 17.6269H73.9658V13.1174C73.9658 11.5489 74.9461 10.5686 76.2205 10.5686C76.5146 10.5686 76.7303 10.6078 76.8871 10.6274L77.1028 10.6667V8.1589H76.9067C75.9656 8.1589 75.2598 8.21587 74.7892 8.608C74.5148 8.84327 74.2795 9.09815 74.0638 9.39225H73.9658V8.01981H71.3189V17.6269Z" fill="#8C8CA6"/>
<path d="M79.4019 14.2938C79.4019 16.5681 80.6763 17.8229 82.6369 17.8229C83.1271 17.8229 83.578 17.7641 83.8917 17.6857C84.0682 17.6269 84.2447 17.5877 84.4015 17.5289V15.0781C84.3035 15.1173 84.2054 15.1565 84.0878 15.1761C83.8721 15.2349 83.6173 15.2741 83.3232 15.2741C82.5389 15.2741 82.0488 14.784 82.0488 13.9017V10.6667H84.2054V8.21587H82.0488V5.27493H79.696V7.0395C79.696 7.82375 79.3431 8.21587 78.6177 8.21587H77.7354V10.6667H79.4019V14.2938Z" fill="#8C8CA6"/>
<path d="M85.8842 13.8037C85.8842 16.2544 87.4527 17.8229 89.4134 17.8229C90.3349 17.8229 91.0603 17.4308 91.5308 17.0387C91.8053 16.8034 92.0406 16.5485 92.2563 16.2544H92.3543V17.6269H95.0011V8.01981H92.3543V13.1174C92.3543 14.3918 91.472 15.2741 90.2956 15.2741C89.1977 15.2741 88.5311 14.5879 88.5311 13.4115V8.01981H85.8842V13.8037Z" fill="#8C8CA6"/>
<path d="M97.1525 21.7442H99.7993V16.2544H99.8974C100.093 16.5485 100.348 16.8034 100.642 17.0387C101.172 17.4308 101.897 17.8229 102.936 17.8229C105.211 17.8229 107.25 15.7643 107.25 12.8233C107.25 9.90201 105.211 7.82375 102.936 7.82375C101.897 7.82375 101.172 8.21587 100.642 8.608C100.348 8.84327 100.093 9.09815 99.8974 9.39225H99.7993V8.01981H97.1525V21.7442ZM102.152 15.3722C100.78 15.3722 99.7013 14.2938 99.7013 12.8233C99.7013 11.3529 100.78 10.2745 102.152 10.2745C103.525 10.2745 104.603 11.3529 104.603 12.8233C104.603 14.2938 103.525 15.3722 102.152 15.3722Z" fill="#8C8CA6"/>
<path d="M42.3828 34.7002C42.7357 35.112 43.1671 35.4649 43.6964 35.7786C44.5787 36.3276 45.8923 36.8569 47.6765 36.8569C50.9115 36.8569 52.8722 34.8963 52.8722 32.6416C52.8722 27.8577 46.01 28.8968 46.01 26.5636C46.01 25.7794 46.5786 25.1912 48.0686 25.1912C48.8529 25.1912 49.4803 25.4853 49.9312 25.7794C50.1861 25.9558 50.4018 26.1519 50.6174 26.3676L52.5781 24.4069C52.2448 24.0736 51.8722 23.7599 51.4213 23.4855C50.6567 23.0149 49.4803 22.5444 47.9706 22.5444C44.8336 22.5444 42.971 24.4069 42.971 26.5636C42.971 31.3476 49.8332 30.3084 49.8332 32.6416C49.8332 33.5239 49.147 34.2101 47.5785 34.2101C46.5393 34.2101 45.7355 33.8572 45.1865 33.4847C44.8532 33.269 44.5787 33.0141 44.3434 32.7396L42.3828 34.7002Z" fill="#8C8CA6"/>
<path d="M55.1261 33.2298C55.1261 35.5041 56.4005 36.7589 58.3612 36.7589C58.8513 36.7589 59.3023 36.7001 59.616 36.6217C59.7924 36.5628 59.9689 36.5236 60.1257 36.4648V34.014C60.0277 34.0532 59.9297 34.0924 59.812 34.1121C59.5963 34.1709 59.3415 34.2101 59.0474 34.2101C58.2631 34.2101 57.773 33.7199 57.773 32.8376V29.6026H59.9297V27.1518H57.773V24.2109H55.4202V25.9754C55.4202 26.7597 55.0673 27.1518 54.3419 27.1518H53.4596V29.6026H55.1261V33.2298Z" fill="#8C8CA6"/>
<path d="M67.0002 36.5628H69.647V30.5829C69.647 28.4458 67.9805 26.7597 65.5297 26.7597C64.2553 26.7597 63.2946 27.2303 62.6084 27.7008C62.2162 27.9753 61.8829 28.289 61.6084 28.6223L63.1769 30.1908C63.3338 29.9947 63.5299 29.8183 63.7455 29.6614C64.118 29.3673 64.6474 29.1125 65.3336 29.1125C66.3336 29.1125 66.9021 29.7006 67.0002 30.3869L63.9612 30.9358C62.177 31.2495 61.1183 32.4455 61.1183 34.014C61.1183 35.5825 62.2947 36.7589 64.0592 36.7589C64.9807 36.7589 65.7062 36.4452 66.1767 36.0727C66.4512 35.8766 66.6865 35.6413 66.9021 35.3865H67.0002V36.5628ZM67.0002 32.4455C67.0002 33.7199 66.1179 34.6022 64.9415 34.6022C64.1573 34.6022 63.7651 34.2297 63.7651 33.6219C63.7651 33.1317 64.1573 32.7788 64.8435 32.6416L67.0002 32.2495V32.4455Z" fill="#8C8CA6"/>
<path d="M78.1811 33.1317C78.0047 33.3474 77.789 33.5435 77.5537 33.7199C77.142 34.014 76.5538 34.3081 75.8284 34.3081C74.4559 34.3081 73.3776 33.2298 73.3776 31.7593C73.3776 30.2888 74.4559 29.2105 75.8284 29.2105C76.5538 29.2105 77.142 29.5046 77.5537 29.7987C77.789 29.9751 78.0047 30.1712 78.1811 30.3869L79.8477 28.7203C79.5928 28.3478 79.2595 28.0341 78.8673 27.74C78.1811 27.2499 77.2204 26.7597 75.8284 26.7597C72.9855 26.7597 70.7307 29.0144 70.7307 31.7593C70.7307 34.5042 72.9855 36.7589 75.8284 36.7589C77.2204 36.7589 78.1811 36.2687 78.8673 35.7786C79.2595 35.4845 79.5928 35.1708 79.8477 34.7983L78.1811 33.1317Z" fill="#8C8CA6"/>
<path d="M81.2109 36.5628H83.8578V34.3081L85.1322 32.8376L87.5829 36.5628H90.6219L86.8967 30.975L90.4258 26.9558H87.2888L83.8578 30.877V22.8384H81.2109V36.5628Z" fill="#8C8CA6"/>
<path d="M15.9325 21.4765V2.02545C15.9325 1.06346 14.9522 0.412261 14.0654 0.785116L1.20877 6.19076C0.709501 6.40068 0.384766 6.88949 0.384766 7.4311V21.4765C0.384766 22.2196 0.987169 22.822 1.73027 22.822H14.587C15.3301 22.822 15.9325 22.2196 15.9325 21.4765Z" fill="#8C8CA6"/>
<path d="M18.3234 18.5129V37.9639C18.3234 38.9259 19.3036 39.5771 20.1904 39.2043L33.0471 33.7986C33.5464 33.5887 33.8711 33.0999 33.8711 32.5583V18.5129C33.8711 17.7698 33.2687 17.1674 32.5256 17.1674H19.6689C18.9258 17.1674 18.3234 17.7698 18.3234 18.5129Z" fill="#8C8CA6"/>
<path d="M18.3234 13.4315V2.07806C18.3234 1.10241 19.3293 0.451119 20.2195 0.850361L33.0762 6.6163C33.5599 6.83322 33.8711 7.31391 33.8711 7.844V13.4315C33.8711 14.1746 33.2687 14.777 32.5256 14.777H19.6689C18.9258 14.777 18.3234 14.1746 18.3234 13.4315Z" fill="#8C8CA6"/>
<path d="M15.9325 26.5685V37.9219C15.9325 38.8976 14.9266 39.5489 14.0364 39.1496L1.17968 33.3837C0.696004 33.1668 0.384766 32.6861 0.384766 32.156V26.5685C0.384766 25.8254 0.987169 25.223 1.73027 25.223H14.5869C15.3301 25.223 15.9325 25.8254 15.9325 26.5685Z" fill="#8C8CA6"/>
</g>
</svg>
