<svg width="20" height="24" viewBox="0 0 20 24" fill="none" xmlns="http://www.w3.org/2000/svg">
<path fill-rule="evenodd" clip-rule="evenodd" d="M16.8613 0.5H15.278C15.1724 0.499963 15.0693 0.530576 14.9819 0.587885C14.8945 0.645194 14.8268 0.726567 14.7877 0.821491L13.8651 3.05557H12.6549L12.0955 0.886913C12.0669 0.776387 12.001 0.678281 11.9082 0.60818C11.8155 0.538079 11.7012 0.500003 11.5836 0.5H8.41688C8.29907 0.499918 8.18461 0.538015 8.09174 0.608224C7.99887 0.678434 7.93292 0.776718 7.90441 0.887424L7.34549 3.05557H6.1353L5.21274 0.821491C5.17358 0.726567 5.10593 0.645194 5.01853 0.587885C4.93113 0.530576 4.82799 0.499963 4.72244 0.5H3.13911C2.99913 0.5 2.86489 0.55385 2.76591 0.649702C2.66693 0.745554 2.61133 0.875558 2.61133 1.01111V5.10003C2.61133 5.17061 2.62644 5.24044 2.65568 5.30509C2.68493 5.36975 2.72769 5.42783 2.78127 5.47569L5.79172 8.16671H14.2087L17.2171 5.47569C17.271 5.42802 17.3142 5.37001 17.3438 5.30534C17.3734 5.24068 17.3888 5.17076 17.3891 5.10003V1.01111C17.3891 0.875558 17.3335 0.745554 17.2345 0.649702C17.1355 0.55385 17.0013 0.5 16.8613 0.5ZM5.77864 9.18945L3.25586 18.3895H16.7459L14.2231 9.18945H5.77864ZM1.02778 23.5002H18.9722C19.1122 23.5002 19.2464 23.4463 19.3454 23.3505C19.4444 23.2546 19.5 23.1246 19.5 22.9891V20.9446C19.5 20.538 19.3332 20.1479 19.0363 19.8604C18.7393 19.5728 18.3366 19.4113 17.9167 19.4113H2.08333C1.66341 19.4113 1.26068 19.5728 0.963748 19.8604C0.666815 20.1479 0.5 20.538 0.5 20.9446V22.9891C0.5 23.1246 0.555605 23.2546 0.654583 23.3505C0.75356 23.4463 0.887802 23.5002 1.02778 23.5002Z" fill="url(#paint0_linear_8_67652)"/>
<defs>
<linearGradient id="paint0_linear_8_67652" x1="1.00739" y1="1.11421" x2="23.0661" y2="19.3366" gradientUnits="userSpaceOnUse">
<stop stop-color="white"/>
<stop offset="1" stop-color="white" stop-opacity="0.6"/>
</linearGradient>
</defs>
</svg>
