<svg width="200" height="164" viewBox="0 0 200 164" fill="none" xmlns="http://www.w3.org/2000/svg">
<path opacity="0.6" d="M85.3189 149.21C84.6142 149.21 83.9795 149.093 83.4149 148.86C82.8549 148.622 82.3905 148.286 82.0219 147.852C81.6579 147.418 81.4199 146.902 81.3079 146.305L82.3579 146.13C82.5259 146.783 82.8805 147.297 83.4219 147.67C83.9632 148.039 84.6095 148.223 85.3609 148.223C85.8555 148.223 86.2989 148.146 86.6909 147.992C87.0829 147.833 87.3909 147.609 87.6149 147.32C87.8389 147.031 87.9509 146.688 87.9509 146.291C87.9509 146.03 87.9042 145.808 87.8109 145.626C87.7175 145.439 87.5939 145.285 87.4399 145.164C87.2859 145.043 87.1179 144.942 86.9359 144.863C86.7539 144.779 86.5765 144.711 86.4039 144.66L83.8489 143.897C83.5409 143.808 83.2562 143.696 82.9949 143.561C82.7335 143.421 82.5049 143.255 82.3089 143.064C82.1175 142.868 81.9682 142.639 81.8609 142.378C81.7535 142.117 81.6999 141.818 81.6999 141.482C81.6999 140.913 81.8492 140.42 82.1479 140.005C82.4465 139.59 82.8549 139.27 83.3729 139.046C83.8909 138.822 84.4812 138.712 85.1439 138.717C85.8159 138.717 86.4155 138.836 86.9429 139.074C87.4749 139.312 87.9135 139.653 88.2589 140.096C88.6042 140.535 88.8329 141.055 88.9449 141.657L87.8669 141.853C87.7969 141.414 87.6359 141.034 87.3839 140.712C87.1319 140.39 86.8099 140.143 86.4179 139.97C86.0305 139.793 85.6035 139.702 85.1369 139.697C84.6842 139.697 84.2805 139.774 83.9259 139.928C83.5759 140.077 83.2982 140.283 83.0929 140.544C82.8875 140.805 82.7849 141.104 82.7849 141.44C82.7849 141.781 82.8782 142.054 83.0649 142.259C83.2562 142.464 83.4895 142.625 83.7649 142.742C84.0449 142.859 84.3155 142.954 84.5769 143.029L86.5509 143.61C86.7562 143.666 86.9965 143.748 87.2719 143.855C87.5519 143.958 87.8225 144.107 88.0839 144.303C88.3499 144.494 88.5692 144.746 88.7419 145.059C88.9145 145.372 89.0009 145.768 89.0009 146.249C89.0009 146.716 88.9075 147.133 88.7209 147.502C88.5389 147.871 88.2799 148.181 87.9439 148.433C87.6125 148.685 87.2229 148.876 86.7749 149.007C86.3315 149.142 85.8462 149.21 85.3189 149.21ZM94.5618 149C94.1372 149.089 93.7172 149.124 93.3018 149.105C92.8912 149.086 92.5225 148.998 92.1958 148.839C91.8738 148.68 91.6288 148.433 91.4608 148.097C91.3255 147.817 91.2508 147.535 91.2368 147.25C91.2275 146.961 91.2228 146.632 91.2228 146.263V139.34H92.2448V146.221C92.2448 146.538 92.2472 146.804 92.2518 147.019C92.2612 147.229 92.3102 147.416 92.3988 147.579C92.5668 147.892 92.8328 148.078 93.1968 148.139C93.5655 148.2 94.0205 148.186 94.5618 148.097V149ZM89.6058 142.322V141.44H94.5618V142.322H89.6058ZM96.0513 149V141.44H96.9753V143.26L96.7933 143.022C96.8773 142.798 96.987 142.593 97.1223 142.406C97.2576 142.215 97.4046 142.058 97.5633 141.937C97.7593 141.764 97.988 141.634 98.2493 141.545C98.5106 141.452 98.7743 141.398 99.0403 141.384C99.3063 141.365 99.549 141.384 99.7683 141.44V142.406C99.493 142.336 99.192 142.32 98.8653 142.357C98.5386 142.394 98.2376 142.525 97.9623 142.749C97.7103 142.945 97.5213 143.181 97.3953 143.456C97.2693 143.727 97.1853 144.016 97.1433 144.324C97.1013 144.627 97.0803 144.928 97.0803 145.227V149H96.0513ZM102.972 149.21C102.403 149.21 101.924 149.107 101.537 148.902C101.154 148.697 100.867 148.424 100.676 148.083C100.485 147.742 100.389 147.371 100.389 146.97C100.389 146.559 100.471 146.209 100.634 145.92C100.802 145.626 101.028 145.386 101.313 145.199C101.602 145.012 101.936 144.87 102.314 144.772C102.697 144.679 103.119 144.597 103.581 144.527C104.048 144.452 104.503 144.389 104.946 144.338C105.394 144.282 105.786 144.228 106.122 144.177L105.758 144.401C105.772 143.654 105.627 143.101 105.324 142.742C105.021 142.383 104.493 142.203 103.742 142.203C103.224 142.203 102.785 142.32 102.426 142.553C102.071 142.786 101.822 143.155 101.677 143.659L100.676 143.365C100.849 142.688 101.196 142.163 101.719 141.79C102.242 141.417 102.921 141.23 103.756 141.23C104.447 141.23 105.032 141.361 105.513 141.622C105.998 141.879 106.341 142.252 106.542 142.742C106.635 142.961 106.696 143.206 106.724 143.477C106.752 143.748 106.766 144.023 106.766 144.303V149H105.849V147.103L106.115 147.215C105.858 147.864 105.459 148.358 104.918 148.699C104.377 149.04 103.728 149.21 102.972 149.21ZM103.091 148.321C103.572 148.321 103.992 148.235 104.351 148.062C104.71 147.889 105 147.654 105.219 147.355C105.438 147.052 105.581 146.711 105.646 146.333C105.702 146.09 105.732 145.824 105.737 145.535C105.742 145.241 105.744 145.022 105.744 144.877L106.136 145.08C105.786 145.127 105.406 145.173 104.995 145.22C104.589 145.267 104.188 145.32 103.791 145.381C103.399 145.442 103.044 145.514 102.727 145.598C102.512 145.659 102.305 145.745 102.104 145.857C101.903 145.964 101.738 146.109 101.607 146.291C101.481 146.473 101.418 146.699 101.418 146.97C101.418 147.189 101.472 147.402 101.579 147.607C101.691 147.812 101.868 147.983 102.111 148.118C102.358 148.253 102.685 148.321 103.091 148.321ZM111.983 149.21C111.288 149.21 110.7 149.035 110.219 148.685C109.739 148.33 109.375 147.852 109.127 147.25C108.88 146.643 108.756 145.964 108.756 145.213C108.756 144.448 108.88 143.766 109.127 143.169C109.379 142.567 109.748 142.093 110.233 141.748C110.719 141.403 111.316 141.23 112.025 141.23C112.716 141.23 113.309 141.405 113.803 141.755C114.298 142.105 114.676 142.581 114.937 143.183C115.203 143.785 115.336 144.462 115.336 145.213C115.336 145.969 115.203 146.648 114.937 147.25C114.671 147.852 114.289 148.33 113.789 148.685C113.29 149.035 112.688 149.21 111.983 149.21ZM108.581 152.36V141.44H109.505V147.131H109.617V152.36H108.581ZM111.878 148.251C112.406 148.251 112.844 148.118 113.194 147.852C113.544 147.586 113.806 147.224 113.978 146.767C114.156 146.305 114.244 145.787 114.244 145.213C114.244 144.644 114.158 144.13 113.985 143.673C113.813 143.216 113.549 142.854 113.194 142.588C112.844 142.322 112.399 142.189 111.857 142.189C111.33 142.189 110.891 142.317 110.541 142.574C110.196 142.831 109.937 143.188 109.764 143.645C109.592 144.098 109.505 144.62 109.505 145.213C109.505 145.796 109.592 146.319 109.764 146.781C109.937 147.238 110.198 147.598 110.548 147.859C110.898 148.12 111.342 148.251 111.878 148.251ZM117.014 140.005V138.85H118.043V140.005H117.014ZM117.014 149V141.44H118.043V149H117.014Z" fill="#0E041B"/>
<path fill-rule="evenodd" clip-rule="evenodd" d="M111.877 82.9814V59.4025C111.877 58.9993 111.718 58.6127 111.435 58.3276C111.153 58.0425 110.769 57.8823 110.369 57.8823H87.0093V33.5437H134.483C134.681 33.5437 134.877 33.583 135.06 33.6594C135.243 33.7358 135.41 33.8477 135.55 33.9889C135.69 34.1301 135.801 34.2978 135.877 34.4823C135.953 34.6668 135.992 34.8645 135.992 35.0642V82.9814H111.877Z" fill="#0D041B" fill-opacity="0.75"/>
<path opacity="0.405" fill-rule="evenodd" clip-rule="evenodd" d="M87.0091 33.5437V57.8823H64.714C64.5649 57.8823 64.4191 57.8377 64.2952 57.7542C64.1712 57.6707 64.0745 57.552 64.0174 57.4131C63.9603 57.2742 63.9454 57.1214 63.9744 56.974C64.0034 56.8265 64.0751 56.691 64.1805 56.5846L87.0091 33.5437ZM111.877 105.483V82.9814H135.991L113.165 106.02C113.059 106.127 112.925 106.199 112.778 106.228C112.632 106.258 112.481 106.243 112.343 106.185C112.205 106.128 112.087 106.03 112.004 105.905C111.921 105.78 111.877 105.633 111.877 105.483ZM87.0091 57.8823H111.123C111.323 57.8823 111.515 57.9624 111.656 58.1049C111.798 58.2475 111.877 58.4408 111.877 58.6424V82.9814H88.5173C88.3192 82.9814 88.1231 82.942 87.9401 82.8656C87.7572 82.7892 87.5909 82.6772 87.4509 82.536C87.3108 82.3948 87.1997 82.2272 87.1239 82.0427C87.0482 81.8583 87.0091 81.6605 87.0091 81.4609V57.8823Z" fill="#0D041B" fill-opacity="0.75"/>
</svg>
