<svg width="14" height="22" viewBox="0 0 14 22" fill="none" xmlns="http://www.w3.org/2000/svg">
<path fill-rule="evenodd" clip-rule="evenodd" d="M1 0C0.447715 0 0 0.447715 0 1C0 1.55228 0.447716 2 1 2L1 19C0.447715 19 0 19.4477 0 20C0 20.5523 0.447716 21 1 21L1 21.5C1 21.7761 1.22386 22 1.5 22H2.5C2.77614 22 3 21.7761 3 21.5V21H11V21.5C11 21.7761 11.2239 22 11.5 22H12.5C12.7761 22 13 21.7761 13 21.5V21C13.5523 21 14 20.5523 14 20C14 19.4477 13.5523 19 13 19V2C13.5523 2 14 1.55228 14 1C14 0.447715 13.5523 0 13 0H1ZM11 6.7C11 6.3134 10.6866 6 10.3 6H3.7C3.3134 6 3 6.3134 3 6.7C3 7.0866 3.3134 7.4 3.7 7.4H10.3C10.6866 7.4 11 7.0866 11 6.7ZM10.5 9.7C10.5 9.3134 10.1866 9 9.8 9H4.2C3.8134 9 3.5 9.3134 3.5 9.7C3.5 10.0866 3.8134 10.4 4.2 10.4H9.8C10.1866 10.4 10.5 10.0866 10.5 9.7ZM8.8 12C9.1866 12 9.5 12.3134 9.5 12.7C9.5 13.0866 9.1866 13.4 8.8 13.4H5.2C4.8134 13.4 4.5 13.0866 4.5 12.7C4.5 12.3134 4.8134 12 5.2 12H8.8Z" fill="url(#paint0_radial_155_17916)"/>
<defs>
<radialGradient id="paint0_radial_155_17916" cx="0" cy="0" r="1" gradientUnits="userSpaceOnUse" gradientTransform="translate(-1.08275 -1.83575) rotate(60.007) scale(66.7923 741.981)">
<stop offset="0.0263922" stop-color="#FCC5D7"/>
<stop offset="0.131767" stop-color="#F391D2"/>
<stop offset="0.235204" stop-color="#EA72D6"/>
<stop offset="0.436949" stop-color="#833F7B" stop-opacity="0.85"/>
</radialGradient>
</defs>
</svg>
