<svg width="18" height="18" viewBox="0 0 18 18" fill="none" xmlns="http://www.w3.org/2000/svg">
<path fill-rule="evenodd" clip-rule="evenodd" d="M9 18C13.9706 18 18 13.9706 18 9C18 4.02944 13.9706 0 9 0C4.02944 0 0 4.02944 0 9C0 13.9706 4.02944 18 9 18ZM3.30664 8.5332V7.47559H5.17285V6.73438H3.30664H3.04004H2.35156V11H3.30664V9.27148H4.98535V8.5332H3.30664ZM7.27637 6.73438H5.63867V11H6.59375V9.45898H7.22116L8 11H9.02246V10.9561L8.11353 9.22306C8.23161 9.16811 8.33829 9.1032 8.43359 9.02832C8.57227 8.9209 8.67969 8.78516 8.75586 8.62109C8.83203 8.45703 8.87012 8.25781 8.87012 8.02344C8.87012 7.74219 8.80566 7.50586 8.67676 7.31445C8.54785 7.12305 8.36328 6.97852 8.12305 6.88086C7.88477 6.7832 7.60254 6.73438 7.27637 6.73438ZM6.59375 8.71777H7.2793C7.42188 8.71777 7.54004 8.69238 7.63379 8.6416C7.72754 8.59082 7.79785 8.51953 7.84473 8.42773C7.89355 8.33398 7.91797 8.22461 7.91797 8.09961C7.91797 7.9707 7.89355 7.85938 7.84473 7.76562C7.7959 7.67188 7.72363 7.60059 7.62793 7.55176C7.53418 7.50098 7.41699 7.47559 7.27637 7.47559H6.59375V8.71777ZM12.418 11V10.2617H10.4727V9.16602H12.125V8.45117H10.4727V7.47559H12.4209V6.73438H10.4727H10.1475H9.51758V11H10.1475H10.4727H12.418ZM15.7871 11V10.2617H13.8418V9.16602H15.4941V8.45117H13.8418V7.47559H15.79V6.73438H13.8418H13.5166H12.8867V11H13.5166H13.8418H15.7871Z" fill="url(#paint0_radial_155_26888)"/>
<defs>
<radialGradient id="paint0_radial_155_26888" cx="0" cy="0" r="1" gradientUnits="userSpaceOnUse" gradientTransform="translate(-0.529431 1.0062) rotate(45) scale(61.3935 787.31)">
<stop stop-color="#63E9D2"/>
<stop offset="0.1835" stop-color="#1CC9C9"/>
<stop offset="0.364955" stop-color="#11B0D0"/>
</radialGradient>
</defs>
</svg>
