<svg width="22" height="22" viewBox="0 0 22 22" fill="none" xmlns="http://www.w3.org/2000/svg">
<path fill-rule="evenodd" clip-rule="evenodd" d="M1.6 0C0.716345 0 0 0.716344 0 1.6V20.4C0 21.2837 0.716344 22 1.6 22H20.4C21.2837 22 22 21.2837 22 20.4V1.6C22 0.716345 21.2837 0 20.4 0H1.6ZM18 9.7C17.6134 9.7 17.3 9.3866 17.3 9V5.68995L7.68975 15.3002H10.9992C11.3858 15.3002 11.6992 15.6136 11.6992 16.0002C11.6992 16.3868 11.3858 16.7002 10.9992 16.7002H6.28975L5.49498 17.495C5.22161 17.7683 4.77839 17.7683 4.50503 17.495C4.23166 17.2216 4.23166 16.7784 4.50503 16.505L5.29922 15.7108V11.0002C5.29922 10.6136 5.61262 10.3002 5.99922 10.3002C6.38582 10.3002 6.69922 10.6136 6.69922 11.0002V14.3108L16.31 4.7H13C12.6134 4.7 12.3 4.3866 12.3 4C12.3 3.6134 12.6134 3.3 13 3.3H18C18.3866 3.3 18.7 3.6134 18.7 4V9C18.7 9.3866 18.3866 9.7 18 9.7Z" fill="url(#paint0_linear_327_36416)"/>
<defs>
<linearGradient id="paint0_linear_327_36416" x1="1.53409" y1="1.53409" x2="21.0667" y2="21.0667" gradientUnits="userSpaceOnUse">
<stop stop-color="white"/>
<stop offset="1" stop-color="white" stop-opacity="0.6"/>
</linearGradient>
</defs>
</svg>
