<svg width="26" height="26" viewBox="0 0 26 26" fill="none" xmlns="http://www.w3.org/2000/svg">
<g clip-path="url(#clip0_6_2186)">
<rect width="24" height="24" rx="12" transform="matrix(-1 0 0 1 25 1)" fill="#E55678" fill-opacity="0.1"/>
<g opacity="0.7" filter="url(#filter0_f_6_2186)">
<path fill-rule="evenodd" clip-rule="evenodd" d="M16.3502 8.63322C16.6314 8.35204 17.0873 8.35204 17.3685 8.63322C17.6496 8.91439 17.6496 9.37027 17.3685 9.65145L14.0202 12.9998L17.3679 16.3475C17.6491 16.6287 17.6491 17.0846 17.3679 17.3657C17.0867 17.6469 16.6308 17.6469 16.3497 17.3657L13.0019 14.018L9.65418 17.3657C9.373 17.6469 8.91712 17.6469 8.63594 17.3657C8.35477 17.0846 8.35477 16.6287 8.63594 16.3475L11.9837 12.9998L8.63538 9.65145C8.35421 9.37027 8.35421 8.91439 8.63538 8.63322C8.91656 8.35204 9.37244 8.35204 9.65362 8.63322L13.0019 11.9815L16.3502 8.63322Z" fill="url(#paint0_linear_6_2186)"/>
</g>
<path fill-rule="evenodd" clip-rule="evenodd" d="M16.3502 8.63322C16.6314 8.35204 17.0873 8.35204 17.3685 8.63322C17.6496 8.91439 17.6496 9.37027 17.3685 9.65145L14.0202 12.9998L17.3679 16.3475C17.6491 16.6287 17.6491 17.0846 17.3679 17.3657C17.0867 17.6469 16.6308 17.6469 16.3497 17.3657L13.0019 14.018L9.65418 17.3657C9.373 17.6469 8.91712 17.6469 8.63594 17.3657C8.35477 17.0846 8.35477 16.6287 8.63594 16.3475L11.9837 12.9998L8.63538 9.65145C8.35421 9.37027 8.35421 8.91439 8.63538 8.63322C8.91656 8.35204 9.37244 8.35204 9.65362 8.63322L13.0019 11.9815L16.3502 8.63322Z" fill="url(#paint1_linear_6_2186)"/>
</g>
<rect x="0.42" y="-0.42" width="24.84" height="24.84" rx="12.42" transform="matrix(-1 0 0 1 25.84 1)" stroke="#E55678" stroke-opacity="0.2" stroke-width="0.84"/>
<defs>
<filter id="filter0_f_6_2186" x="-1.57544" y="-1.57767" width="29.1548" height="29.1543" filterUnits="userSpaceOnUse" color-interpolation-filters="sRGB">
<feFlood flood-opacity="0" result="BackgroundImageFix"/>
<feBlend mode="normal" in="SourceGraphic" in2="BackgroundImageFix" result="shape"/>
<feGaussianBlur stdDeviation="5" result="effect1_foregroundBlur_6_2186"/>
</filter>
<linearGradient id="paint0_linear_6_2186" x1="8.42464" y1="8.42233" x2="27.4997" y2="27.5008" gradientUnits="userSpaceOnUse">
<stop stop-color="#E55678"/>
<stop offset="1" stop-color="#E55678" stop-opacity="0.2"/>
</linearGradient>
<linearGradient id="paint1_linear_6_2186" x1="8.42464" y1="8.42233" x2="27.4997" y2="27.5008" gradientUnits="userSpaceOnUse">
<stop stop-color="#E55678"/>
<stop offset="1" stop-color="#E55678" stop-opacity="0.2"/>
</linearGradient>
<clipPath id="clip0_6_2186">
<rect width="24" height="24" rx="12" transform="matrix(-1 0 0 1 25 1)" fill="white"/>
</clipPath>
</defs>
</svg>
