<svg width="28" height="28" viewBox="0 0 28 28" fill="none" xmlns="http://www.w3.org/2000/svg">
<g id="ThumbsUp">
<path id="Vector" d="M25.5938 8.76313C25.3474 8.48392 25.0444 8.26033 24.7049 8.1072C24.3655 7.95408 23.9974 7.87493 23.625 7.875H17.5V6.125C17.5 4.96468 17.0391 3.85188 16.2186 3.03141C15.3981 2.21094 14.2853 1.75 13.125 1.75C12.9624 1.74988 12.8031 1.79505 12.6647 1.88044C12.5264 1.96583 12.4146 2.08807 12.3419 2.23344L8.20969 10.5H3.5C3.03587 10.5 2.59075 10.6844 2.26256 11.0126C1.93437 11.3408 1.75 11.7859 1.75 12.25V21.875C1.75 22.3391 1.93437 22.7842 2.26256 23.1124C2.59075 23.4406 3.03587 23.625 3.5 23.625H22.3125C22.952 23.6252 23.5696 23.392 24.0493 22.969C24.5291 22.5461 24.8379 21.9626 24.9178 21.3281L26.2303 10.8281C26.2768 10.4585 26.2441 10.0831 26.1344 9.72709C26.0246 9.37104 25.8403 9.04244 25.5938 8.76313ZM3.5 12.25H7.875V21.875H3.5V12.25Z" fill="url(#paint0_linear_3976_6452)"/>
</g>
<defs>
<linearGradient id="paint0_linear_3976_6452" x1="18.6161" y1="21.2636" x2="-1.90122" y2="5.46972" gradientUnits="userSpaceOnUse">
<stop offset="0.27" stop-color="#19191E"/>
<stop offset="0.875" stop-color="#49494A" stop-opacity="0.7"/>
</linearGradient>
</defs>
</svg>
