<svg width="24" height="20" viewBox="0 0 24 20" fill="none" xmlns="http://www.w3.org/2000/svg">
<path d="M10 0C4.477 0 0 4.477 0 10C0 15.523 4.477 20 10 20C15.523 20 20 15.523 20 10C20 4.477 15.523 0 10 0ZM17.5039 0.644531C20.2429 2.84353 22 6.214 22 10C22 13.786 20.2429 17.1565 17.5039 19.3555C21.2959 17.9345 24 14.288 24 10C24 5.712 21.2959 2.06553 17.5039 0.644531ZM9 4H11V5.61523C12.35 5.91723 13.2529 6.83708 13.2969 8.08008H11.6113C11.5283 7.40408 10.8992 6.95312 10.0332 6.95312C9.1372 6.95312 8.54492 7.36848 8.54492 8.02148C8.54492 8.54948 8.95208 8.85341 9.95508 9.06641L10.9883 9.28516C12.7093 9.64716 13.4492 10.3907 13.4492 11.7188C13.4492 13.1488 12.532 14.1074 11 14.3984V16H9V14.4023C7.529 14.1263 6.60478 13.2233 6.55078 11.9023H8.28125C8.36425 12.5963 9.06522 13.041 10.0742 13.041C11.0052 13.041 11.6641 12.5904 11.6641 11.9434C11.6641 11.3974 11.2375 11.0834 10.1875 10.8574L9.07227 10.6191C7.51227 10.2931 6.74609 9.48078 6.74609 8.17578C6.74609 6.86278 7.615 5.92714 9 5.61914V4Z" fill="url(#paint0_linear_8_67785)"/>
<defs>
<linearGradient id="paint0_linear_8_67785" x1="0.640914" y1="0.534095" x2="19.8533" y2="23.589" gradientUnits="userSpaceOnUse">
<stop stop-color="white"/>
<stop offset="1" stop-color="white" stop-opacity="0.6"/>
</linearGradient>
</defs>
</svg>
