<svg width="125" height="35" viewBox="0 0 125 35" fill="none" xmlns="http://www.w3.org/2000/svg">
<path fill-rule="evenodd" clip-rule="evenodd" d="M4.95745 0.904785V5.90468V10.9046H0V15.8321H4.95745V22.5663C4.95745 29.0069 10.2056 34.228 16.6795 34.228C23.1533 34.228 28.4015 29.0069 28.4015 22.5663C28.4015 16.1257 23.1533 10.9046 16.6795 10.9046H9.91041V0.904785H4.95745ZM9.91041 22.5663V15.8321H16.6795C20.418 15.8321 23.4485 18.8471 23.4485 22.5663C23.4485 26.2855 20.4178 29.3005 16.6795 29.3005C12.941 29.3005 9.91041 26.2855 9.91041 22.5663ZM125 14.2227C125 12.7228 123.784 11.5069 122.284 11.5069C120.784 11.5069 119.569 12.7228 119.569 14.2227V31.2307C119.569 32.7305 120.784 33.9464 122.284 33.9464C123.784 33.9464 125 32.7305 125 31.2307V14.2227ZM119.569 8.99134V3.21649H125V8.99134H119.569ZM114.036 34.1939C111.493 34.1939 109.517 33.5065 108.107 32.1315C106.725 30.729 106.034 28.7628 106.034 26.2329V16.3331H102.137V11.507H102.551C103.657 11.507 104.514 11.2182 105.122 10.6407C105.73 10.0633 106.034 9.22452 106.034 8.12455V6.39209H111.466V11.507H116.649V16.3331H111.466V25.9441C111.466 26.6866 111.59 27.3191 111.839 27.8415C112.115 28.3641 112.53 28.7628 113.083 29.0378C113.663 29.3128 114.396 29.4503 115.28 29.4503C115.474 29.4503 115.695 29.4365 115.944 29.409C116.22 29.3815 116.483 29.3541 116.731 29.3266V33.9465C116.344 34.0014 115.902 34.0564 115.405 34.1114C114.907 34.1664 114.451 34.1939 114.036 34.1939ZM36.4733 32.9154C38.2977 33.9329 40.3156 34.4416 42.5268 34.4416C44.7105 34.4416 46.7007 33.9329 48.4974 32.9154C50.2942 31.898 51.7314 30.5093 52.8095 28.7493C53.8875 26.9893 54.4265 24.9818 54.4265 22.7269C54.4265 20.4445 53.8875 18.437 52.8095 16.7046C51.7591 14.9446 50.3356 13.5559 48.5389 12.5384C46.7421 11.5209 44.7381 11.0122 42.5268 11.0122C40.2879 11.0122 38.2701 11.5209 36.4733 12.5384C34.6766 13.5559 33.2393 14.9446 32.1612 16.7046C31.1109 18.4645 30.5857 20.472 30.5857 22.7269C30.5857 24.9818 31.1109 26.9893 32.1612 28.7493C33.2393 30.5093 34.6766 31.898 36.4733 32.9154ZM45.7195 28.6255C44.8072 29.203 43.7431 29.4918 42.5268 29.4918C41.283 29.4918 40.1912 29.203 39.2513 28.6255C38.3115 28.048 37.5652 27.2506 37.0123 26.2331C36.4871 25.1881 36.2246 24.0194 36.2246 22.7269C36.2246 21.407 36.4871 20.252 37.0123 19.262C37.5652 18.2446 38.3115 17.447 39.2513 16.8695C40.1912 16.2646 41.283 15.9621 42.5268 15.9621C43.7431 15.9621 44.8072 16.2646 45.7195 16.8695C46.6592 17.447 47.3917 18.2446 47.917 19.262C48.4698 20.252 48.7462 21.407 48.7462 22.7269C48.7462 24.0194 48.4698 25.1881 47.917 26.2331C47.3917 27.2506 46.6592 28.048 45.7195 28.6255ZM65.2707 34.4414C63.5292 34.4414 62.009 34.0563 60.7098 33.2864C59.4384 32.5165 58.457 31.4439 57.766 30.069C57.1027 28.694 56.771 27.0852 56.771 25.2429V11.5069H62.2025V24.7891C62.2025 25.7241 62.3822 26.549 62.7415 27.264C63.1285 27.9515 63.6676 28.5015 64.3586 28.914C65.0772 29.2989 65.8788 29.4915 66.7634 29.4915C67.6479 29.4915 68.4356 29.2989 69.1268 28.914C69.8178 28.5015 70.3567 27.9377 70.7437 27.2227C71.1307 26.5077 71.3243 25.6554 71.3243 24.6654V11.5069H76.7558V33.9464H71.6145V31.2788C71.0908 32.1833 70.3721 32.8936 69.4584 33.4101C68.2698 34.0976 66.874 34.4414 65.2707 34.4414ZM80.4926 11.5072H85.5926V14.2603C86.1145 13.3394 86.8331 12.6142 87.7485 12.0847C88.9648 11.3697 90.3745 11.0122 91.9777 11.0122C93.6363 11.0122 95.1012 11.3697 96.3727 12.0847C97.6718 12.7997 98.6808 13.8033 99.3995 15.0958C100.118 16.3608 100.477 17.8321 100.477 19.5094V33.9467H95.0459V20.7882C95.0459 19.7982 94.8524 18.9458 94.4655 18.2308C94.0785 17.5158 93.5395 16.9658 92.8484 16.5809C92.185 16.1684 91.3973 15.9621 90.485 15.9621C89.6005 15.9621 88.8128 16.1684 88.1218 16.5809C87.4307 16.9658 86.8917 17.5158 86.5047 18.2308C86.1178 18.9458 85.9243 19.7982 85.9243 20.7882V33.9467H80.4926V11.5072Z" fill="url(#paint0_linear_294_25481)"/>
<defs>
<linearGradient id="paint0_linear_294_25481" x1="3.3381" y1="1.80038" x2="19.5798" y2="62.8496" gradientUnits="userSpaceOnUse">
<stop stop-color="white"/>
<stop offset="1" stop-color="white" stop-opacity="0.6"/>
</linearGradient>
</defs>
</svg>
