<svg width="36" height="24" viewBox="0 0 36 24" fill="none" xmlns="http://www.w3.org/2000/svg">
<path fill-rule="evenodd" clip-rule="evenodd" d="M7.78607 11.6888H13.8421C14.3944 11.6888 14.8421 12.1365 14.8421 12.6888V23.0007C14.8421 23.553 14.3944 24.0007 13.8421 24.0007H1.00505C0.452765 24.0007 0.00504858 23.553 0.00504858 23.0007V11.6888C-0.109978 7.79255 1.69768 0 9.84855 0H10.1646C10.7169 0 11.1645 0.447715 11.1645 1V4.09954C11.1645 4.61391 10.7475 5.03089 10.2331 5.03089C9.16135 5.07375 7.0898 6.29121 6.81617 10.6881C6.78187 11.2393 7.23379 11.6888 7.78607 11.6888ZM28.9443 11.6888H35.0003C35.5526 11.6888 36.0003 12.1365 36.0003 12.6888V23.0007C36.0003 23.553 35.5526 24.0007 35.0003 24.0007H22.1633C21.611 24.0007 21.1633 23.553 21.1633 23.0007V11.6888C21.0482 7.79255 22.8559 0 31.0068 0H31.3228C31.8751 0 32.3227 0.447715 32.3227 1V4.09954C32.3227 4.61391 31.9057 5.03089 31.3913 5.03089C30.3196 5.07375 28.248 6.29121 27.9744 10.6881C27.9401 11.2393 28.392 11.6888 28.9443 11.6888Z" fill="url(#paint0_linear_81_12647)"/>
<defs>
<linearGradient id="paint0_linear_81_12647" x1="5" y1="-3" x2="28.5" y2="28" gradientUnits="userSpaceOnUse">
<stop stop-color="#060609" stop-opacity="0.7"/>
<stop offset="1" stop-color="#060609"/>
</linearGradient>
</defs>
</svg>
