<svg width="20" height="20" viewBox="0 0 20 20" fill="none" xmlns="http://www.w3.org/2000/svg">
<path fill-rule="evenodd" clip-rule="evenodd" d="M0 2C0 0.89543 0.895431 0 2 0H16C17.1046 0 18 0.895431 18 2V9.088L8.80656 6.5343C8.15729 6.35112 7.4787 6.54513 7.02267 7.00115C6.55718 7.46664 6.37905 8.14548 6.55362 8.77828L9.11525 18H2C0.89543 18 0 17.1046 0 16V2ZM18 12.196L19.4491 11.575C19.5696 11.5235 19.6442 11.4017 19.6353 11.271C19.6264 11.1404 19.5364 11.0297 19.4103 10.9949L8.31366 7.91252C8.2067 7.8817 8.09173 7.91283 8.01313 7.99143C7.93453 8.07003 7.90432 8.18469 7.93391 8.29196L11.0163 19.3884C11.0514 19.5145 11.1624 19.6048 11.2925 19.6134C11.4275 19.6245 11.5449 19.5478 11.5964 19.4272L12.2081 18H12.3261L13.349 15.613L15.7361 18H15.7363L16.928 19.1918C16.9885 19.2519 17.0674 19.2821 17.1463 19.2821C17.2252 19.2821 17.3041 19.2519 17.3642 19.1918L19.2136 17.3423C19.3342 17.2218 19.3342 17.027 19.2136 16.9065L15.6351 13.3277L18 12.3142V12.196Z" fill="url(#paint0_radial_155_17889)"/>
<defs>
<radialGradient id="paint0_radial_155_17889" cx="0" cy="0" r="1" gradientUnits="userSpaceOnUse" gradientTransform="translate(-3.40814 -3.44364) rotate(47.5451) scale(80.9415 1034.31)">
<stop offset="0.0263922" stop-color="#FCC5D7"/>
<stop offset="0.131767" stop-color="#F391D2"/>
<stop offset="0.235204" stop-color="#EA72D6"/>
<stop offset="0.436949" stop-color="#833F7B" stop-opacity="0.85"/>
</radialGradient>
</defs>
</svg>
