<svg width="22" height="20" viewBox="0 0 22 20" fill="none" xmlns="http://www.w3.org/2000/svg">
<path fill-rule="evenodd" clip-rule="evenodd" d="M2.06251 0H15.8126C16.3596 0 16.8842 0.210712 17.271 0.585781C17.6578 0.96085 17.8751 1.46955 17.8751 1.99998V10.6666C17.8751 11.197 17.6578 11.7057 17.271 12.0808C16.8842 12.4558 16.3596 12.6665 15.8126 12.6665H9.96469L4.01228 17.9132C3.96299 17.9565 3.90178 17.9851 3.83608 17.9954C3.77038 18.0057 3.70301 17.9972 3.64215 17.9711C3.58129 17.945 3.52956 17.9023 3.49324 17.8482C3.45691 17.7942 3.43756 17.731 3.43752 17.6665V12.6665H2.06251C1.5155 12.6665 0.990892 12.4558 0.604096 12.0808C0.2173 11.7057 0 11.197 0 10.6666V1.99998C0 1.46955 0.2173 0.96085 0.604096 0.585781C0.990892 0.210712 1.5155 0 2.06251 0ZM19.2493 4.66663H19.9368C20.4838 4.66663 21.0084 4.87734 21.3952 5.25241C21.782 5.62748 21.9993 6.13618 21.9993 6.66661V13.9999C21.9993 14.5303 21.782 15.039 21.3952 15.4141C21.0084 15.7891 20.4838 15.9998 19.9368 15.9998H19.2493V19.6665C19.2494 19.7293 19.2311 19.7908 19.1967 19.8439C19.1622 19.8971 19.113 19.9398 19.0547 19.967C18.9964 19.9942 18.9313 20.0049 18.867 19.9979C18.8026 19.9908 18.7417 19.9663 18.6911 19.9271L13.6283 15.9998H8.22656L10.4953 13.9999H15.8118C16.7232 13.9988 17.5969 13.6473 18.2413 13.0224C18.8857 12.3975 19.2482 11.5503 19.2493 10.6666V4.66663Z" fill="url(#paint0_linear_327_35227)"/>
<defs>
<linearGradient id="paint0_linear_327_35227" x1="15.1441" y1="17.841" x2="-3.52518" y2="3.72727" gradientUnits="userSpaceOnUse">
<stop offset="0.27" stop-color="#19191E"/>
<stop offset="0.875" stop-color="#49494A" stop-opacity="0.7"/>
</linearGradient>
</defs>
</svg>
