<svg width="20" height="22" viewBox="0 0 20 22" fill="none" xmlns="http://www.w3.org/2000/svg">
<path fill-rule="evenodd" clip-rule="evenodd" d="M2.67011 0.792535C3.15532 0.285083 3.81339 0 4.49958 0C5.18576 0 5.84384 0.285083 6.32904 0.792535C6.81425 1.29999 7.08683 1.98824 7.08683 2.70588C7.08683 3.42353 6.81425 4.11178 6.32904 4.61923C5.84384 5.12668 5.18576 5.41176 4.49958 5.41176C3.81339 5.41176 3.15532 5.12668 2.67011 4.61923C2.18491 4.11178 1.91232 3.42353 1.91232 2.70588C1.91232 1.98824 2.18491 1.29999 2.67011 0.792535ZM0.281224 8.6705C1.22613 7.22344 2.81224 6.35294 4.49958 6.35294C6.18692 6.35294 7.77302 7.22344 8.71793 8.6705C8.90916 8.95285 9.0104 9.30584 8.99915 9.65878C8.99915 9.84701 8.84167 10 8.66169 10H0.337468C0.157485 10 0 9.84701 0 9.65878C0 9.30584 0.0899915 8.96461 0.281224 8.6705ZM2.67011 12.7925C3.15532 12.2851 3.81339 12 4.49958 12C5.18576 12 5.84384 12.2851 6.32904 12.7925C6.81425 13.3 7.08683 13.9882 7.08683 14.7059C7.08683 15.4235 6.81425 16.1118 6.32904 16.6192C5.84384 17.1267 5.18576 17.4118 4.49958 17.4118C3.81339 17.4118 3.15532 17.1267 2.67011 16.6192C2.18491 16.1118 1.91232 15.4235 1.91232 14.7059C1.91232 13.9882 2.18491 13.3 2.67011 12.7925ZM0.281224 20.6705C1.22613 19.2234 2.81224 18.3529 4.49958 18.3529C6.18692 18.3529 7.77302 19.2234 8.71793 20.6705C8.90916 20.9528 9.0104 21.3058 8.99915 21.6588C8.99915 21.847 8.84167 22 8.66169 22H0.337468C0.157485 22 0 21.847 0 21.6588C0 21.3058 0.0899915 20.9646 0.281224 20.6705ZM15.4996 0C14.8134 0 14.1553 0.285083 13.6701 0.792535C13.1849 1.29999 12.9123 1.98824 12.9123 2.70588C12.9123 3.42353 13.1849 4.11178 13.6701 4.61923C14.1553 5.12668 14.8134 5.41176 15.4996 5.41176C16.1858 5.41176 16.8438 5.12668 17.329 4.61923C17.8142 4.11178 18.0868 3.42353 18.0868 2.70588C18.0868 1.98824 17.8142 1.29999 17.329 0.792535C16.8438 0.285083 16.1858 0 15.4996 0ZM15.4996 6.35294C13.8122 6.35294 12.2261 7.22344 11.2812 8.6705C11.09 8.96461 11 9.30584 11 9.65878C11 9.84701 11.1575 10 11.3375 10H19.6617C19.8417 10 19.9992 9.84701 19.9992 9.65878C20.0104 9.30584 19.9092 8.95285 19.7179 8.6705C18.773 7.22344 17.1869 6.35294 15.4996 6.35294ZM13.6701 12.7925C14.1553 12.2851 14.8134 12 15.4996 12C16.1858 12 16.8438 12.2851 17.329 12.7925C17.8142 13.3 18.0868 13.9882 18.0868 14.7059C18.0868 15.4235 17.8142 16.1118 17.329 16.6192C16.8438 17.1267 16.1858 17.4118 15.4996 17.4118C14.8134 17.4118 14.1553 17.1267 13.6701 16.6192C13.1849 16.1118 12.9123 15.4235 12.9123 14.7059C12.9123 13.9882 13.1849 13.3 13.6701 12.7925ZM11.2812 20.6705C12.2261 19.2234 13.8122 18.3529 15.4996 18.3529C17.1869 18.3529 18.773 19.2234 19.7179 20.6705C19.9092 20.9528 20.0104 21.3058 19.9992 21.6588C19.9992 21.847 19.8417 22 19.6617 22H11.3375C11.1575 22 11 21.847 11 21.6588C11 21.3058 11.09 20.9646 11.2812 20.6705Z" fill="url(#paint0_linear_327_35204)"/>
<defs>
<linearGradient id="paint0_linear_327_35204" x1="13.7678" y1="19.6251" x2="-5.416" y2="7.63904" gradientUnits="userSpaceOnUse">
<stop offset="0.27" stop-color="#19191E"/>
<stop offset="0.875" stop-color="#49494A" stop-opacity="0.7"/>
</linearGradient>
</defs>
</svg>
