<svg width="20" height="20" viewBox="0 0 20 20" fill="none" xmlns="http://www.w3.org/2000/svg">
<path fill-rule="evenodd" clip-rule="evenodd" d="M0.5 7.28971C0.5 8.26189 1.28811 9.05 2.26029 9.05H7.28971C8.26189 9.05 9.05 8.26189 9.05 7.28971V2.26029C9.05 1.28811 8.26189 0.5 7.28971 0.5H2.26029C1.28811 0.5 0.5 1.28811 0.5 2.26029V7.28971ZM0.5 17.7397C0.5 18.7119 1.28811 19.5 2.26029 19.5H7.28971C8.26189 19.5 9.05 18.7119 9.05 17.7397V12.7103C9.05 11.7381 8.26189 10.95 7.28971 10.95H2.26029C1.28811 10.95 0.5 11.7381 0.5 12.7103V17.7397ZM12.7103 9.05C11.7381 9.05 10.95 8.26189 10.95 7.28971V2.26029C10.95 1.28811 11.7381 0.5 12.7103 0.5H17.7397C18.7119 0.5 19.5 1.28811 19.5 2.26029V7.28971C19.5 8.26189 18.7119 9.05 17.7397 9.05H12.7103ZM12.5786 15.7V17.3286C12.5786 17.6284 12.8216 17.8714 13.1214 17.8714H14.75V19.5H13.1214C11.9222 19.5 10.95 18.5278 10.95 17.3286V15.7H12.5786ZM13.1214 10.95C11.9222 10.95 10.95 11.9222 10.95 13.1214V14.75H12.5786V13.1214C12.5786 12.8216 12.8216 12.5786 13.1214 12.5786H14.75V10.95H13.1214ZM15.7 10.95H17.3286C18.5278 10.95 19.5 11.9222 19.5 13.1214V14.75H17.8714V13.1214C17.8714 12.8216 17.6284 12.5786 17.3286 12.5786H15.7V10.95ZM19.5 17.3286V15.7H17.8714V17.3286C17.8714 17.6284 17.6284 17.8714 17.3286 17.8714H15.7V19.5H17.3286C18.5278 19.5 19.5 18.5278 19.5 17.3286Z" fill="url(#paint0_radial_155_17874)"/>
<defs>
<radialGradient id="paint0_radial_155_17874" cx="0" cy="0" r="1" gradientUnits="userSpaceOnUse" gradientTransform="translate(-5.20001 -4.72499) rotate(45.5457) scale(70.5371 901.363)">
<stop offset="0.0263922" stop-color="#EBD7FE"/>
<stop offset="0.131767" stop-color="#C2B6FB"/>
<stop offset="0.235204" stop-color="#8E8EF6"/>
<stop offset="0.436949" stop-color="#3B409B" stop-opacity="0.85"/>
</radialGradient>
</defs>
</svg>
