<svg width="22" height="22" viewBox="0 0 22 22" fill="none" xmlns="http://www.w3.org/2000/svg">
<path fill-rule="evenodd" clip-rule="evenodd" d="M0 2.34521C0 1.04998 1.04999 0 2.34521 0H17.8229C19.1182 0 20.1682 1.04999 20.1682 2.34521V10.1933L9.8676 7.32905C9.14013 7.12359 8.37979 7.3412 7.86884 7.85268C7.34727 8.37478 7.14769 9.13618 7.34329 9.84594L10.2135 20.1892H2.34521C1.04999 20.1892 0 19.1392 0 17.844V2.34521ZM20.1682 13.6784L21.7898 12.9828C21.9248 12.925 22.0084 12.7885 21.9984 12.6419C21.9883 12.4953 21.8875 12.3712 21.7462 12.3321L9.313 8.87488C9.19316 8.84031 9.06433 8.87522 8.97627 8.96338C8.8882 9.05154 8.85435 9.18015 8.88751 9.30046L12.3412 21.7465C12.3806 21.8879 12.5049 21.9892 12.6506 21.9989C12.8019 22.0113 12.9335 21.9252 12.9912 21.79L13.6765 20.1892H13.8111L14.9566 17.5134L18.965 21.5259C19.0327 21.5933 19.1211 21.6272 19.2095 21.6272C19.2979 21.6272 19.3864 21.5933 19.4537 21.5259L21.5259 19.4516C21.661 19.3164 21.661 19.0979 21.5259 18.9627L20.1682 17.6035V17.6013L17.5185 14.9487L20.1682 13.812V13.6784Z" fill="url(#paint0_linear_327_36338)"/>
<defs>
<linearGradient id="paint0_linear_327_36338" x1="21.4492" y1="19.3264" x2="4.19937" y2="-1.1627" gradientUnits="userSpaceOnUse">
<stop offset="0.27" stop-color="#19191E"/>
<stop offset="0.875" stop-color="#49494A" stop-opacity="0.7"/>
</linearGradient>
</defs>
</svg>
