<svg width="24" height="24" viewBox="0 0 24 24" fill="none" xmlns="http://www.w3.org/2000/svg">
<path fill-rule="evenodd" clip-rule="evenodd" d="M10.3567 0.5C10.3567 0.223857 10.5806 0 10.8567 0H13.1294C13.4056 0 13.6294 0.223858 13.6294 0.5V1.75946C18.0456 2.45949 21.5336 5.94746 22.2338 10.3635H23.4993C23.7754 10.3635 23.9993 10.5874 23.9993 10.8635V13.1363C23.9993 13.4124 23.7754 13.6363 23.4993 13.6363H22.2339C21.5338 18.0522 18.046 21.5403 13.6301 22.2406V23.5012C13.6301 23.7774 13.4063 24.0012 13.1301 24.0012H10.8574C10.5813 24.0012 10.3574 23.7774 10.3574 23.5012V22.2407C5.94102 21.5408 2.45271 18.0526 1.75265 13.6363H0.5C0.223858 13.6363 0 13.4124 0 13.1363V10.8635C0 10.5874 0.223858 10.3635 0.5 10.3635H1.75271C2.45286 5.94758 5.94077 2.45968 10.3567 1.75952V0.5ZM19.6296 12.0001C19.6296 16.2175 16.2107 19.6364 11.9933 19.6364C7.77581 19.6364 4.35689 16.2175 4.35689 12.0001C4.35689 7.78262 7.77581 4.3637 11.9933 4.3637C16.2107 4.3637 19.6296 7.78262 19.6296 12.0001ZM12.0008 15.0015C13.6584 15.0015 15.0022 13.6577 15.0022 12C15.0022 10.3423 13.6584 8.99854 12.0008 8.99854C10.3431 8.99854 8.99929 10.3423 8.99929 12C8.99929 13.6577 10.3431 15.0015 12.0008 15.0015Z" fill="url(#paint0_linear_5278_137371)"/>
<defs>
<linearGradient id="paint0_linear_5278_137371" x1="0.640895" y1="0.640946" x2="24.0812" y2="24.0794" gradientUnits="userSpaceOnUse">
<stop stop-color="white"/>
<stop offset="1" stop-color="white" stop-opacity="0.6"/>
</linearGradient>
</defs>
</svg>
