<svg width="36" height="36" viewBox="0 0 36 36" fill="none" xmlns="http://www.w3.org/2000/svg">
<rect width="36" height="36" rx="8" fill="white" fill-opacity="0.1"/>
<rect x="0.4" y="0.4" width="35.2" height="35.2" rx="7.6" stroke="url(#paint0_linear_429_53978)" stroke-opacity="0.5" stroke-width="0.8" style="mix-blend-mode:overlay"/>
<rect x="2.4" y="2.4" width="31.2" height="31.2" rx="5.6" fill="url(#paint1_radial_429_53978)"/>
<rect x="2.4" y="2.4" width="31.2" height="31.2" rx="5.6" stroke="url(#paint2_radial_429_53978)" stroke-width="0.8"/>
<g style="mix-blend-mode:overlay">
<path fill-rule="evenodd" clip-rule="evenodd" d="M25.4207 8.85799C25.4208 8.85798 25.4209 8.85796 25.536 9.54843C26.2265 9.66355 26.2265 9.66364 26.2265 9.66375L26.2264 9.66407L26.2262 9.66506L26.2257 9.6685L26.2235 9.68102L26.2155 9.72795C26.2084 9.76868 26.198 9.82792 26.1843 9.90342C26.1569 10.0544 26.1165 10.2706 26.0638 10.5337C25.9587 11.0593 25.8041 11.776 25.6068 12.5369C25.4101 13.2953 25.1675 14.1114 24.8841 14.8308C24.61 15.5264 24.264 16.2223 23.8246 16.6617C23.158 17.3283 22.3056 17.6968 21.4335 17.7673L26.0518 22.3855L26.3899 22.7236L26.1978 23.1616C25.609 24.5043 24.634 25.5667 23.1567 26.1996L22.7211 26.3863L22.3861 26.0512L17.5578 21.223L17.4597 21.3211L16.2482 22.533L13.2181 25.5635L13.2178 25.5638C12.2287 26.5516 10.6262 26.5521 9.63763 25.5635L9.59225 25.5181L9.54688 25.4728C9.07227 24.9981 8.80469 24.3546 8.80469 23.6825C8.80469 23.0112 9.07177 22.3664 9.54715 21.892C10.429 21.0097 11.605 19.8338 12.5605 18.8784L13.7642 17.6748L13.887 17.5521L10.6252 14.2904L10.4753 14.1405L10.4338 13.9326L9.76552 10.5886L9.55984 9.55927L10.5891 9.76496L13.9331 10.4332L14.141 10.4748L14.2909 10.6247L17.3172 13.6509C17.3877 12.7788 17.7562 11.9264 18.4227 11.2599C18.8622 10.8204 19.5581 10.4744 20.2536 10.2004C20.973 9.91697 21.7891 9.67434 22.5475 9.47767C23.3085 9.28035 24.0251 9.12579 24.5507 9.02064C24.8139 8.968 25.0301 8.92756 25.181 8.90018C25.2565 8.88649 25.3158 8.87605 25.3565 8.86898L25.4034 8.86091L25.416 8.85879L25.4194 8.85822L25.4204 8.85805L25.4207 8.85799ZM14.8769 18.5421L14.7541 18.6649L13.5503 19.8684C12.5947 20.8239 11.4187 21.9999 10.537 22.8821L10.5362 22.8829C10.3243 23.0942 10.2047 23.3824 10.2047 23.6825C10.2047 23.9821 10.3239 24.2699 10.5368 24.4828L10.5822 24.5282L10.6276 24.5736C11.069 25.015 11.7855 25.0155 12.2283 24.5734L12.2284 24.5732L15.2581 21.5431L16.4696 20.3313L16.5679 20.233L14.8769 18.5421ZM25.536 9.54843L25.4209 8.85796L26.3877 8.69678L26.2265 9.66355L25.536 9.54843ZM24.6569 10.4275C24.1695 10.5273 23.5496 10.6641 22.8989 10.8329C22.1682 11.0223 21.4125 11.2486 20.7668 11.5029C20.0973 11.7667 19.635 12.0274 19.4127 12.2498C18.4687 13.1938 18.4687 14.7278 19.4127 15.6718C20.3566 16.6158 21.8907 16.6158 22.8346 15.6718C23.057 15.4494 23.3177 14.9871 23.5815 14.3176C23.8359 13.672 24.0621 12.9162 24.2516 12.1855C24.4203 11.5349 24.5571 10.9149 24.6569 10.4275ZM11.7651 13.4503L11.3441 11.3435L13.4509 11.7645L22.0941 20.4077L20.4083 22.0935L11.7651 13.4503ZM21.3982 23.0835L23.0242 24.7094C23.7716 24.3001 24.3165 23.7311 24.7078 23.0215L23.084 21.3977L21.3982 23.0835Z" fill="white"/>
</g>
<g style="mix-blend-mode:overlay">
<path fill-rule="evenodd" clip-rule="evenodd" d="M25.4207 8.85799C25.4208 8.85798 25.4209 8.85796 25.536 9.54843C26.2265 9.66355 26.2265 9.66364 26.2265 9.66375L26.2264 9.66407L26.2262 9.66506L26.2257 9.6685L26.2235 9.68102L26.2155 9.72795C26.2084 9.76868 26.198 9.82792 26.1843 9.90342C26.1569 10.0544 26.1165 10.2706 26.0638 10.5337C25.9587 11.0593 25.8041 11.776 25.6068 12.5369C25.4101 13.2953 25.1675 14.1114 24.8841 14.8308C24.61 15.5264 24.264 16.2223 23.8246 16.6617C23.158 17.3283 22.3056 17.6968 21.4335 17.7673L26.0518 22.3855L26.3899 22.7236L26.1978 23.1616C25.609 24.5043 24.634 25.5667 23.1567 26.1996L22.7211 26.3863L22.3861 26.0512L17.5578 21.223L17.4597 21.3211L16.2482 22.533L13.2181 25.5635L13.2178 25.5638C12.2287 26.5516 10.6262 26.5521 9.63763 25.5635L9.59225 25.5181L9.54688 25.4728C9.07227 24.9981 8.80469 24.3546 8.80469 23.6825C8.80469 23.0112 9.07177 22.3664 9.54715 21.892C10.429 21.0097 11.605 19.8338 12.5605 18.8784L13.7642 17.6748L13.887 17.5521L10.6252 14.2904L10.4753 14.1405L10.4338 13.9326L9.76552 10.5886L9.55984 9.55927L10.5891 9.76496L13.9331 10.4332L14.141 10.4748L14.2909 10.6247L17.3172 13.6509C17.3877 12.7788 17.7562 11.9264 18.4227 11.2599C18.8622 10.8204 19.5581 10.4744 20.2536 10.2004C20.973 9.91697 21.7891 9.67434 22.5475 9.47767C23.3085 9.28035 24.0251 9.12579 24.5507 9.02064C24.8139 8.968 25.0301 8.92756 25.181 8.90018C25.2565 8.88649 25.3158 8.87605 25.3565 8.86898L25.4034 8.86091L25.416 8.85879L25.4194 8.85822L25.4204 8.85805L25.4207 8.85799ZM14.8769 18.5421L14.7541 18.6649L13.5503 19.8684C12.5947 20.8239 11.4187 21.9999 10.537 22.8821L10.5362 22.8829C10.3243 23.0942 10.2047 23.3824 10.2047 23.6825C10.2047 23.9821 10.3239 24.2699 10.5368 24.4828L10.5822 24.5282L10.6276 24.5736C11.069 25.015 11.7855 25.0155 12.2283 24.5734L12.2284 24.5732L15.2581 21.5431L16.4696 20.3313L16.5679 20.233L14.8769 18.5421ZM25.536 9.54843L25.4209 8.85796L26.3877 8.69678L26.2265 9.66355L25.536 9.54843ZM24.6569 10.4275C24.1695 10.5273 23.5496 10.6641 22.8989 10.8329C22.1682 11.0223 21.4125 11.2486 20.7668 11.5029C20.0973 11.7667 19.635 12.0274 19.4127 12.2498C18.4687 13.1938 18.4687 14.7278 19.4127 15.6718C20.3566 16.6158 21.8907 16.6158 22.8346 15.6718C23.057 15.4494 23.3177 14.9871 23.5815 14.3176C23.8359 13.672 24.0621 12.9162 24.2516 12.1855C24.4203 11.5349 24.5571 10.9149 24.6569 10.4275ZM11.7651 13.4503L11.3441 11.3435L13.4509 11.7645L22.0941 20.4077L20.4083 22.0935L11.7651 13.4503ZM21.3982 23.0835L23.0242 24.7094C23.7716 24.3001 24.3165 23.7311 24.7078 23.0215L23.084 21.3977L21.3982 23.0835Z" fill="white"/>
</g>
<g style="mix-blend-mode:overlay">
<path fill-rule="evenodd" clip-rule="evenodd" d="M25.4207 8.85799C25.4208 8.85798 25.4209 8.85796 25.536 9.54843C26.2265 9.66355 26.2265 9.66364 26.2265 9.66375L26.2264 9.66407L26.2262 9.66506L26.2257 9.6685L26.2235 9.68102L26.2155 9.72795C26.2084 9.76868 26.198 9.82792 26.1843 9.90342C26.1569 10.0544 26.1165 10.2706 26.0638 10.5337C25.9587 11.0593 25.8041 11.776 25.6068 12.5369C25.4101 13.2953 25.1675 14.1114 24.8841 14.8308C24.61 15.5264 24.264 16.2223 23.8246 16.6617C23.158 17.3283 22.3056 17.6968 21.4335 17.7673L26.0518 22.3855L26.3899 22.7236L26.1978 23.1616C25.609 24.5043 24.634 25.5667 23.1567 26.1996L22.7211 26.3863L22.3861 26.0512L17.5578 21.223L17.4597 21.3211L16.2482 22.533L13.2181 25.5635L13.2178 25.5638C12.2287 26.5516 10.6262 26.5521 9.63763 25.5635L9.59225 25.5181L9.54688 25.4728C9.07227 24.9981 8.80469 24.3546 8.80469 23.6825C8.80469 23.0112 9.07177 22.3664 9.54715 21.892C10.429 21.0097 11.605 19.8338 12.5605 18.8784L13.7642 17.6748L13.887 17.5521L10.6252 14.2904L10.4753 14.1405L10.4338 13.9326L9.76552 10.5886L9.55984 9.55927L10.5891 9.76496L13.9331 10.4332L14.141 10.4748L14.2909 10.6247L17.3172 13.6509C17.3877 12.7788 17.7562 11.9264 18.4227 11.2599C18.8622 10.8204 19.5581 10.4744 20.2536 10.2004C20.973 9.91697 21.7891 9.67434 22.5475 9.47767C23.3085 9.28035 24.0251 9.12579 24.5507 9.02064C24.8139 8.968 25.0301 8.92756 25.181 8.90018C25.2565 8.88649 25.3158 8.87605 25.3565 8.86898L25.4034 8.86091L25.416 8.85879L25.4194 8.85822L25.4204 8.85805L25.4207 8.85799ZM14.8769 18.5421L14.7541 18.6649L13.5503 19.8684C12.5947 20.8239 11.4187 21.9999 10.537 22.8821L10.5362 22.8829C10.3243 23.0942 10.2047 23.3824 10.2047 23.6825C10.2047 23.9821 10.3239 24.2699 10.5368 24.4828L10.5822 24.5282L10.6276 24.5736C11.069 25.015 11.7855 25.0155 12.2283 24.5734L12.2284 24.5732L15.2581 21.5431L16.4696 20.3313L16.5679 20.233L14.8769 18.5421ZM25.536 9.54843L25.4209 8.85796L26.3877 8.69678L26.2265 9.66355L25.536 9.54843ZM24.6569 10.4275C24.1695 10.5273 23.5496 10.6641 22.8989 10.8329C22.1682 11.0223 21.4125 11.2486 20.7668 11.5029C20.0973 11.7667 19.635 12.0274 19.4127 12.2498C18.4687 13.1938 18.4687 14.7278 19.4127 15.6718C20.3566 16.6158 21.8907 16.6158 22.8346 15.6718C23.057 15.4494 23.3177 14.9871 23.5815 14.3176C23.8359 13.672 24.0621 12.9162 24.2516 12.1855C24.4203 11.5349 24.5571 10.9149 24.6569 10.4275ZM11.7651 13.4503L11.3441 11.3435L13.4509 11.7645L22.0941 20.4077L20.4083 22.0935L11.7651 13.4503ZM21.3982 23.0835L23.0242 24.7094C23.7716 24.3001 24.3165 23.7311 24.7078 23.0215L23.084 21.3977L21.3982 23.0835Z" fill="white"/>
</g>
<defs>
<linearGradient id="paint0_linear_429_53978" x1="18" y1="0" x2="18" y2="36" gradientUnits="userSpaceOnUse">
<stop stop-color="white" stop-opacity="0.4"/>
<stop offset="1" stop-color="white" stop-opacity="0.2"/>
</linearGradient>
<radialGradient id="paint1_radial_429_53978" cx="0" cy="0" r="1" gradientUnits="userSpaceOnUse" gradientTransform="translate(18 0.333332) rotate(90) scale(23.6667 25.43)">
<stop stop-color="#382438"/>
<stop offset="1" stop-color="#0E0C12"/>
</radialGradient>
<radialGradient id="paint2_radial_429_53978" cx="0" cy="0" r="1" gradientUnits="userSpaceOnUse" gradientTransform="translate(18 2) scale(20.6667 29.8891)">
<stop offset="0.0285444" stop-color="#6A4B6C"/>
<stop offset="1" stop-color="#14131B"/>
</radialGradient>
</defs>
</svg>
