<svg width="18" height="18" viewBox="0 0 18 18" fill="none" xmlns="http://www.w3.org/2000/svg">
<path d="M2.75 0.5C1.51 0.5 0.5 1.509 0.5 2.75V12.25C0.5 13.491 1.51 14.5 2.75 14.5H3.5V16.75C3.5 16.962 3.59005 17.1656 3.74805 17.3086C3.88705 17.4326 4.065 17.5 4.25 17.5C4.276 17.5 4.30212 17.4991 4.32812 17.4961C4.53013 17.4751 6.24377 17.214 7.25977 14.5H15.25C16.49 14.5 17.5 13.491 17.5 12.25V2.75C17.5 1.509 16.49 0.5 15.25 0.5H2.75ZM5.29102 5H12.791C13.205 5 13.541 5.336 13.541 5.75C13.541 6.164 13.205 6.5 12.791 6.5H5.29102C4.87702 6.5 4.54102 6.164 4.54102 5.75C4.54102 5.336 4.87702 5 5.29102 5ZM5.25 8.5H8.75C9.164 8.5 9.5 8.836 9.5 9.25C9.5 9.664 9.164 10 8.75 10H5.25C4.836 10 4.5 9.664 4.5 9.25C4.5 8.836 4.836 8.5 5.25 8.5Z" fill="url(#paint0_radial_155_26884)"/>
<defs>
<radialGradient id="paint0_radial_155_26884" cx="0" cy="0" r="1" gradientUnits="userSpaceOnUse" gradientTransform="translate(-1.78042e-05 1.4503) rotate(45) scale(57.9828 743.571)">
<stop stop-color="#63E9D2"/>
<stop offset="0.1835" stop-color="#1CC9C9"/>
<stop offset="0.364955" stop-color="#11B0D0"/>
</radialGradient>
</defs>
</svg>
