<svg width="16" height="16" viewBox="0 0 16 16" fill="none" xmlns="http://www.w3.org/2000/svg">
<path d="M2.16667 0.5C1.24583 0.5 0.5 1.24583 0.5 2.16667V13.8333C0.5 14.7542 1.24583 15.5 2.16667 15.5H13.8333C14.7542 15.5 15.5 14.7542 15.5 13.8333V2.16667C15.5 1.24583 14.7542 0.5 13.8333 0.5H2.16667ZM4.66667 3.83333C4.87979 3.83333 5.09294 3.91456 5.25586 4.07747L8 6.82162L10.7441 4.07747C10.8256 3.99602 10.9189 3.93428 11.0192 3.89355C11.3201 3.77137 11.6782 3.8331 11.9225 4.07747C12.2484 4.40331 12.2484 4.93003 11.9225 5.25586L9.17838 8L11.9225 10.7441C12.1669 10.9885 12.2286 11.3466 12.1064 11.6475C12.0657 11.7477 12.004 11.8411 11.9225 11.9225C11.8413 12.0038 11.7478 12.0641 11.6475 12.1048C11.5471 12.1455 11.44 12.1667 11.3333 12.1667C11.12 12.1667 10.9066 12.085 10.7441 11.9225L8 9.17838L5.25586 11.9225C5.09336 12.085 4.88 12.1667 4.66667 12.1667C4.45333 12.1667 4.23997 12.085 4.07747 11.9225C3.75164 11.5967 3.75164 11.07 4.07747 10.7441L6.82162 8L4.07747 5.25586C3.75164 4.93003 3.75164 4.40331 4.07747 4.07747C4.24039 3.91456 4.45354 3.83333 4.66667 3.83333Z" fill="url(#paint0_radial_155_26904)"/>
<defs>
<radialGradient id="paint0_radial_155_26904" cx="0" cy="0" r="1" gradientUnits="userSpaceOnUse" gradientTransform="translate(0.0588078 1.3385) rotate(45) scale(51.1613 656.092)">
<stop stop-color="#F098AE"/>
<stop offset="0.1835" stop-color="#EB70AD"/>
<stop offset="0.364955" stop-color="#D435AC"/>
</radialGradient>
</defs>
</svg>
