<svg width="24" height="18" viewBox="0 0 24 18" fill="none" xmlns="http://www.w3.org/2000/svg">
<path d="M23.9848 12.3886C23.8831 11.2422 23.4406 10.1656 22.7268 9.32788C22.013 8.49014 21.0683 7.93867 20.041 7.76001C19.7524 5.45404 18.6681 3.36181 17.0158 1.92316C15.3636 0.484506 13.2722 -0.188498 11.1814 0.0456295C9.62961 0.227912 8.15743 0.89863 6.93891 1.97847C5.72039 3.05831 4.8065 4.50211 4.3053 6.13914C3.08592 6.41236 1.99002 7.14612 1.2048 8.21506C0.419572 9.284 -0.00625133 10.6218 6.93651e-05 11.9999C0.000118189 13.5186 0.518562 14.981 1.45139 16.0938C2.38421 17.2067 3.66241 17.8876 5.02954 18H11.2347V13.2857H8.13969C8.06747 13.2856 7.9967 13.2632 7.93538 13.221C7.87407 13.1787 7.82465 13.1183 7.79273 13.0465C7.7608 12.9748 7.74765 12.8946 7.75474 12.815C7.76184 12.7353 7.78891 12.6595 7.83289 12.5961L11.7017 7.02458C11.7393 6.97494 11.7862 6.93502 11.8392 6.90763C11.8922 6.88024 11.95 6.86605 12.0085 6.86605C12.067 6.86605 12.1248 6.88024 12.1778 6.90763C12.2308 6.93502 12.2777 6.97494 12.3153 7.02458L16.1841 12.5961C16.2281 12.6595 16.2552 12.7353 16.2623 12.815C16.2694 12.8946 16.2562 12.9748 16.2243 13.0465C16.1924 13.1183 16.143 13.1787 16.0816 13.221C16.0203 13.2632 15.9495 13.2856 15.8773 13.2857H12.7823V18H19.7311C19.7434 18 19.7562 18 19.7698 18C20.9949 17.8603 22.1221 17.1949 22.9099 16.1461C23.6977 15.0974 24.0835 13.7486 23.9848 12.3886Z" fill="url(#paint0_linear_327_36332)"/>
<defs>
<linearGradient id="paint0_linear_327_36332" x1="23.4" y1="15.8125" x2="10.4683" y2="-4.66839" gradientUnits="userSpaceOnUse">
<stop offset="0.27" stop-color="#19191E"/>
<stop offset="0.875" stop-color="#49494A" stop-opacity="0.7"/>
</linearGradient>
</defs>
</svg>
