<svg width="18" height="18" viewBox="0 0 18 18" fill="none" xmlns="http://www.w3.org/2000/svg">
<path d="M9.08256 0.537414C9.03009 0.513635 8.96991 0.513635 8.91744 0.537414L0.182788 4.49589C0.0819377 4.54159 0.0374125 4.66053 0.0834602 4.76123L0.632783 5.96245C0.67861 6.06266 0.796862 6.10692 0.897228 6.06144L8.91744 2.42649C8.96991 2.40271 9.03009 2.40271 9.08256 2.42649L17.1028 6.06144C17.2031 6.10692 17.3214 6.06266 17.3672 5.96245L17.9165 4.76123C17.9626 4.66053 17.9181 4.54159 17.8172 4.49589L9.08256 0.537414ZM9.0848 4.44715C9.03106 4.42199 8.96894 4.42199 8.9152 4.44715L2.04108 7.66527C1.88747 7.73718 1.88747 7.95563 2.04108 8.02754L8.9152 11.2457C8.96894 11.2708 9.03106 11.2708 9.0848 11.2457L15.9589 8.02754C16.1125 7.95563 16.1125 7.73718 15.9589 7.66527L9.0848 4.44715ZM15.0495 10.6714C15.0495 10.525 14.8972 10.4282 14.7646 10.4903L9.08477 13.1532C9.03105 13.1783 8.96893 13.1784 8.91518 13.1533L3.23518 10.4982C3.10257 10.4363 2.95049 10.533 2.95049 10.6794V14.367C2.95049 14.4429 2.99346 14.5123 3.06142 14.5461L8.91093 17.4557C8.96703 17.4836 9.03297 17.4836 9.08907 17.4557L14.9386 14.5461C15.0065 14.5123 15.0495 14.4429 15.0495 14.367V10.6714Z" fill="url(#paint0_radial_155_26902)"/>
<defs>
<radialGradient id="paint0_radial_155_26902" cx="0" cy="0" r="1" gradientUnits="userSpaceOnUse" gradientTransform="translate(-0.529431 1.3944) rotate(41.6335) scale(58.083 739.719)">
<stop stop-color="#D1AFF4"/>
<stop offset="0.1835" stop-color="#9679EC"/>
<stop offset="0.364955" stop-color="#6060BE"/>
</radialGradient>
</defs>
</svg>
