<svg width="18" height="17" viewBox="0 0 18 17" fill="none" xmlns="http://www.w3.org/2000/svg">
<path d="M16.7765 7.78393L16.1469 7.15476C15.9536 6.96143 15.9011 6.66559 16.0169 6.41768L16.3931 5.61143C16.6556 5.04934 16.6273 4.39351 16.3165 3.85601C16.0065 3.31893 15.4527 2.96601 14.8344 2.91226L13.9473 2.83518C13.6752 2.81143 13.4448 2.61809 13.3744 2.35393L13.1444 1.49434C12.984 0.895177 12.5406 0.410594 11.9573 0.198511C11.3744 -0.0135727 10.7236 0.0722607 10.2156 0.428094L9.48648 0.938927H9.48606C9.26231 1.09559 8.9619 1.09559 8.73815 0.938927L8.0094 0.428094C7.50148 0.0722607 6.85106 -0.0135727 6.26731 0.198511C5.6844 0.410594 5.24065 0.895177 5.08023 1.49434L4.85023 2.35434C4.77982 2.61809 4.5494 2.81143 4.27732 2.83518L3.39023 2.91226C2.77232 2.96601 2.21815 3.31893 1.90773 3.85601C1.59773 4.39309 1.56898 5.04934 1.83148 5.61101L2.20773 6.41768C2.32357 6.66518 2.27107 6.96143 2.07773 7.15476L1.44857 7.78351C1.0094 8.22184 0.811899 8.84851 0.919399 9.45893C1.0269 10.0698 1.4269 10.591 1.98898 10.8527L2.79607 11.2289C3.04398 11.3443 3.19398 11.6043 3.16982 11.8768L3.0919 12.7631C3.03732 13.381 3.28898 13.9877 3.76357 14.3864C4.23857 14.7852 4.87982 14.9273 5.47898 14.7664L6.33857 14.5356C6.60273 14.4656 6.88523 14.5673 7.04148 14.7914L7.5519 15.5206C7.91065 16.0298 8.49315 16.3331 9.11398 16.3331C9.73398 16.3331 10.3169 16.0298 10.6723 15.5214L11.1827 14.7918C11.3394 14.5677 11.6227 14.466 11.8856 14.536L12.7452 14.7668C13.344 14.9273 13.9852 14.7856 14.4602 14.3868C14.9356 13.9881 15.1869 13.381 15.1323 12.7635L15.0544 11.8764C15.0302 11.6043 15.1806 11.3443 15.4286 11.2285L16.2348 10.8527C16.7977 10.591 17.1977 10.0698 17.3048 9.45893C17.4127 8.84851 17.2152 8.22226 16.7765 7.78393ZM12.5681 6.56684L8.40148 10.7335C8.2794 10.8556 8.1194 10.9164 7.9594 10.9164C7.7994 10.9164 7.6394 10.8556 7.51731 10.7335L5.43398 8.65018C5.18982 8.40643 5.18982 8.01018 5.43398 7.76643C5.67815 7.52226 6.07357 7.52226 6.31773 7.76643L7.95898 9.40768L11.6836 5.68309C11.9277 5.43893 12.3231 5.43893 12.5673 5.68309C12.8119 5.92684 12.8119 6.32268 12.5681 6.56684Z" fill="url(#paint0_radial_155_26894)"/>
<defs>
<radialGradient id="paint0_radial_155_26894" cx="0" cy="0" r="1" gradientUnits="userSpaceOnUse" gradientTransform="translate(0.406986 0.992306) rotate(44.6599) scale(55.7536 714.933)">
<stop stop-color="#63E9D2"/>
<stop offset="0.1835" stop-color="#1CC9C9"/>
<stop offset="0.364955" stop-color="#11B0D0"/>
</radialGradient>
</defs>
</svg>
