<svg width="18" height="16" viewBox="0 0 18 16" fill="none" xmlns="http://www.w3.org/2000/svg">
<path d="M7.5 0.5C3.35775 0.5 0 3.85775 0 8C0 12.1423 3.35775 15.5 7.5 15.5C11.6423 15.5 15 12.1423 15 8C15 3.85775 11.6423 0.5 7.5 0.5ZM13.1279 0.983398C15.1822 2.63265 16.5 5.1605 16.5 8C16.5 10.8395 15.1822 13.3674 13.1279 15.0166C15.9719 13.9509 18 11.216 18 8C18 4.784 15.9719 2.04915 13.1279 0.983398ZM6.75 3.5H8.25V4.71143C9.2625 4.93793 9.93966 5.62781 9.97266 6.56006H8.7085C8.64625 6.05306 8.1744 5.71484 7.5249 5.71484C6.8529 5.71484 6.40869 6.02636 6.40869 6.51611C6.40869 6.91211 6.71406 7.14005 7.46631 7.2998L8.24121 7.46387C9.53196 7.73537 10.0869 8.29306 10.0869 9.28906C10.0869 10.3616 9.399 11.0806 8.25 11.2988V12.5H6.75V11.3018C5.64675 11.0948 4.95359 10.4175 4.91309 9.42676H6.21094C6.27319 9.94726 6.79891 10.2808 7.55566 10.2808C8.25391 10.2808 8.74805 9.94277 8.74805 9.45752C8.74805 9.04802 8.42813 8.81257 7.64062 8.64307L6.8042 8.46436C5.6342 8.21986 5.05957 7.61059 5.05957 6.63184C5.05957 5.64709 5.71125 4.94536 6.75 4.71436V3.5Z" fill="url(#paint0_radial_155_26886)"/>
<defs>
<radialGradient id="paint0_radial_155_26886" cx="0" cy="0" r="1" gradientUnits="userSpaceOnUse" gradientTransform="translate(-0.529431 1.3385) rotate(39.8056) scale(56.5095 712.797)">
<stop stop-color="#63E9D2"/>
<stop offset="0.1835" stop-color="#1CC9C9"/>
<stop offset="0.364955" stop-color="#11B0D0"/>
</radialGradient>
</defs>
</svg>
