<svg width="16" height="16" viewBox="0 0 16 16" fill="none" xmlns="http://www.w3.org/2000/svg">
<path d="M0.2 0C0.0895432 0 0 0.0895431 0 0.2V5.13333C0 5.24379 0.0895431 5.33333 0.2 5.33333H5.13333C5.24379 5.33333 5.33333 5.24379 5.33333 5.13333V3.75556C5.33333 3.6451 5.42288 3.55556 5.53333 3.55556H10.68C10.7646 3.55556 10.8394 3.60915 10.8719 3.68732C11.0059 4.00945 11.202 4.30261 11.4495 4.54983C11.6969 4.79701 11.9903 4.99276 12.3125 5.12641C12.3907 5.15887 12.4444 5.23372 12.4444 5.31846V10.4667C12.4444 10.5771 12.3549 10.6667 12.2444 10.6667H10.8667C10.7562 10.6667 10.6667 10.7562 10.6667 10.8667V12.2444C10.6667 12.3549 10.5771 12.4444 10.4667 12.4444H5.53333C5.42288 12.4444 5.33333 12.3549 5.33333 12.2444V10.8667C5.33333 10.7562 5.24379 10.6667 5.13333 10.6667H0.2C0.0895432 10.6667 0 10.7562 0 10.8667V15.8C0 15.9105 0.0895431 16 0.2 16H5.13333C5.24379 16 5.33333 15.9105 5.33333 15.8V14.4222C5.33333 14.3118 5.42288 14.2222 5.53333 14.2222H10.4667C10.5771 14.2222 10.6667 14.3118 10.6667 14.4222V15.8C10.6667 15.9105 10.7562 16 10.8667 16H15.8C15.9105 16 16 15.9105 16 15.8V10.8667C16 10.7562 15.9105 10.6667 15.8 10.6667H14.4222C14.3118 10.6667 14.2222 10.5771 14.2222 10.4667V5.32024C14.2222 5.23548 14.276 5.16061 14.3543 5.12816C14.818 4.936 15.219 4.61638 15.5101 4.20508C15.8284 3.75522 15.9996 3.21778 16 2.66667C16 1.95942 15.719 1.28115 15.219 0.781049C14.7189 0.280952 14.0406 0 13.3333 0C12.7825 0.000772823 12.2455 0.172093 11.7959 0.490421C11.385 0.781451 11.0656 1.1823 10.8736 1.64575C10.8411 1.72405 10.7663 1.77778 10.6815 1.77778H5.53333C5.42288 1.77778 5.33333 1.68823 5.33333 1.57778V0.2C5.33333 0.089543 5.24379 0 5.13333 0H0.2Z" fill="url(#paint0_radial_155_26898)"/>
<defs>
<radialGradient id="paint0_radial_155_26898" cx="0" cy="0" r="1" gradientUnits="userSpaceOnUse" gradientTransform="translate(-0.470605 0.841785) rotate(43.2643) scale(52.9913 678.313)">
<stop stop-color="#D1AFF4"/>
<stop offset="0.1835" stop-color="#9679EC"/>
<stop offset="0.364955" stop-color="#6060BE"/>
</radialGradient>
</defs>
</svg>
