<svg width="16" height="18" viewBox="0 0 16 18" fill="none" xmlns="http://www.w3.org/2000/svg">
<path d="M14.2222 0.5H1.77778C0.797333 0.5 0 1.29733 0 2.27778V15.5C0 16.6046 0.895431 17.5 2 17.5H14C15.1046 17.5 16 16.6046 16 15.5V2.27778C16 1.29733 15.2027 0.5 14.2222 0.5ZM10.6667 14.2778C10.6667 14.5231 10.4676 14.7222 10.2222 14.7222H3.11111C2.86578 14.7222 2.66667 14.5231 2.66667 14.2778V13.3889C2.66667 13.1436 2.86578 12.9444 3.11111 12.9444H10.2222C10.4676 12.9444 10.6667 13.1436 10.6667 13.3889V14.2778ZM13.3333 10.7222C13.3333 10.9676 13.1342 11.1667 12.8889 11.1667H3.11111C2.86578 11.1667 2.66667 10.9676 2.66667 10.7222V9.83333C2.66667 9.588 2.86578 9.38889 3.11111 9.38889H12.8889C13.1342 9.38889 13.3333 9.588 13.3333 9.83333V10.7222ZM13.3333 6.27778C13.3333 6.52311 13.1342 6.72222 12.8889 6.72222H3.11111C2.86578 6.72222 2.66667 6.52311 2.66667 6.27778V3.61111C2.66667 3.36578 2.86578 3.16667 3.11111 3.16667H12.8889C13.1342 3.16667 13.3333 3.36578 13.3333 3.61111V6.27778Z" fill="url(#paint0_radial_155_26908)"/>
<defs>
<radialGradient id="paint0_radial_155_26908" cx="0" cy="0" r="1" gradientUnits="userSpaceOnUse" gradientTransform="translate(-0.470605 1.3944) rotate(45) scale(54.572 699.831)">
<stop stop-color="#D1AFF4"/>
<stop offset="0.1835" stop-color="#9679EC"/>
<stop offset="0.364955" stop-color="#6060BE"/>
</radialGradient>
</defs>
</svg>
