<svg width="22" height="20" viewBox="0 0 22 20" fill="none" xmlns="http://www.w3.org/2000/svg">
<path d="M2.64163 0.000976562L4.33413 1.69348L1.02724 4.97434L2.66767 6.61476L5.94852 3.30787L7.66707 5.02641V0.000976562H2.64163ZM16.3332 0.000976562C15.8743 0.000976562 15.5 0.375281 15.5 0.83421V19.1653C15.5 19.6243 15.8743 19.9986 16.3332 19.9986H20.9988C21.4577 19.9986 21.832 19.6243 21.832 19.1653V0.83421C21.832 0.375281 21.4577 0.000976562 20.9988 0.000976562H16.3332ZM8.5003 6.66684C8.04137 6.66684 7.66707 7.04115 7.66707 7.50008V19.1653C7.66707 19.6243 8.04137 19.9986 8.5003 19.9986H13.4997C13.9586 19.9986 14.3329 19.6243 14.3329 19.1653V7.50008C14.3329 7.04115 13.9586 6.66684 13.4997 6.66684H8.5003ZM1.0012 10.833C0.542273 10.833 0.167969 11.2073 0.167969 11.6662V19.1653C0.167969 19.6243 0.542273 19.9986 1.0012 19.9986H5.66677C6.1257 19.9986 6.5 19.6243 6.5 19.1653V11.6662C6.5 11.2073 6.1257 10.833 5.66677 10.833H1.0012Z" fill="url(#paint0_linear_327_36398)"/>
<defs>
<linearGradient id="paint0_linear_327_36398" x1="0.746502" y1="0.535007" x2="20.2144" y2="21.6252" gradientUnits="userSpaceOnUse">
<stop stop-color="white"/>
<stop offset="1" stop-color="white" stop-opacity="0.6"/>
</linearGradient>
</defs>
</svg>
