<svg width="18" height="16" viewBox="0 0 18 16" fill="none" xmlns="http://www.w3.org/2000/svg">
<path d="M15.6641 0.5H2.33073C1.41156 0.5 0.664062 1.2475 0.664062 2.16667V13.8333C0.664062 14.7525 1.41156 15.5 2.33073 15.5H15.6641C16.5832 15.5 17.3307 14.7525 17.3307 13.8333V2.16667C17.3307 1.2475 16.5832 0.5 15.6641 0.5ZM6.4974 10.755V5.245C6.4974 4.80167 6.97656 4.52333 7.36156 4.74333L12.0482 7.49833C12.4366 7.72 12.4366 8.27917 12.0482 8.50083L7.36156 11.2558C6.97656 11.4767 6.4974 11.1983 6.4974 10.755Z" fill="url(#paint0_radial_155_26892)"/>
<defs>
<radialGradient id="paint0_radial_155_26892" cx="0" cy="0" r="1" gradientUnits="userSpaceOnUse" gradientTransform="translate(0.173849 1.3385) rotate(41.9872) scale(54.0783 689.669)">
<stop stop-color="#F098AE"/>
<stop offset="0.1835" stop-color="#EB70AD"/>
<stop offset="0.364955" stop-color="#D435AC"/>
</radialGradient>
</defs>
</svg>
