<svg width="26" height="26" viewBox="0 0 26 26" fill="none" xmlns="http://www.w3.org/2000/svg">
<path d="M0.441406 0.441406V6.02287H3.23214V3.23214H6.02287V0.441406H0.441406ZM19.9765 0.441406V3.23214H22.7673V6.02287H25.558V0.441406H19.9765ZM12.9997 3.23214C10.6918 3.23214 8.8136 5.1103 8.8136 7.41823C8.8136 9.72617 10.6918 11.6043 12.9997 11.6043C15.3076 11.6043 17.1858 9.72617 17.1858 7.41823C17.1858 5.1103 15.3076 3.23214 12.9997 3.23214ZM12.9997 12.9997C10.6708 12.9997 6.02287 14.1676 6.02287 16.4881V19.9765H19.9765V16.4881C19.9765 14.1676 15.3286 12.9997 12.9997 12.9997ZM0.441406 19.9765V25.558H6.02287V22.7673H3.23214V19.9765H0.441406ZM22.7673 19.9765V22.7673H19.9765V25.558H25.558V19.9765H22.7673Z" fill="url(#paint0_linear_130_11045)"/>
<defs>
<linearGradient id="paint0_linear_130_11045" x1="17.7313" y1="22.8466" x2="-5.01878" y2="7.21088" gradientUnits="userSpaceOnUse">
<stop offset="0.27" stop-color="#19191E"/>
<stop offset="0.875" stop-color="#49494A" stop-opacity="0.7"/>
</linearGradient>
</defs>
</svg>
