<svg width="22" height="22" viewBox="0 0 22 22" fill="none" xmlns="http://www.w3.org/2000/svg">
<path d="M19 0.5H3C2.33696 0.5 1.70107 0.763392 1.23223 1.23223C0.763392 1.70107 0.5 2.33696 0.5 3V19C0.5 19.663 0.763392 20.2989 1.23223 20.7678C1.70107 21.2366 2.33696 21.5 3 21.5H19C19.663 21.5 20.2989 21.2366 20.7678 20.7678C21.2366 20.2989 21.5 19.663 21.5 19V3C21.5 2.33696 21.2366 1.70107 20.7678 1.23223C20.2989 0.763392 19.663 0.5 19 0.5ZM8 4C8.39556 4 8.78224 4.1173 9.11114 4.33706C9.44004 4.55682 9.69638 4.86918 9.84776 5.23463C9.99913 5.60009 10.0387 6.00222 9.96157 6.39018C9.8844 6.77814 9.69392 7.13451 9.41421 7.41421C9.13451 7.69392 8.77814 7.8844 8.39018 7.96157C8.00222 8.03874 7.60009 7.99913 7.23463 7.84776C6.86918 7.69638 6.55682 7.44004 6.33706 7.11114C6.1173 6.78224 6 6.39556 6 6C6 5.46957 6.21071 4.96086 6.58579 4.58579C6.96086 4.21071 7.46957 4 8 4ZM18.9315 17.2525C18.8874 17.3278 18.8244 17.3903 18.7487 17.4337C18.673 17.4771 18.5873 17.5 18.5 17.5H3.5C3.40948 17.5 3.32065 17.4755 3.243 17.4289C3.16534 17.3824 3.10177 17.3157 3.05906 17.2359C3.01636 17.1561 2.99612 17.0662 3.00051 16.9757C3.00491 16.8853 3.03376 16.7978 3.084 16.7225L6.084 12.2225C6.12044 12.1679 6.16728 12.1209 6.22185 12.0844C6.27643 12.0479 6.33766 12.0225 6.40206 12.0096C6.46646 11.9967 6.53276 11.9967 6.59718 12.0095C6.6616 12.0222 6.72287 12.0475 6.7775 12.084C6.80479 12.1023 6.83024 12.1233 6.8535 12.1465L9.43 14.7225L13.589 8.7155C13.6366 8.6452 13.7016 8.58845 13.7776 8.55076C13.8537 8.51308 13.9382 8.49576 14.023 8.5005C14.1078 8.50438 14.1902 8.52978 14.2624 8.57431C14.3347 8.61883 14.3944 8.68101 14.436 8.755L18.936 16.755C18.9787 16.8311 19.0008 16.9171 19 17.0043C18.9992 17.0916 18.9756 17.1772 18.9315 17.2525Z" fill="url(#paint0_linear_327_36348)"/>
<defs>
<linearGradient id="paint0_linear_327_36348" x1="20.975" y1="18.9479" x2="4.5094" y2="-0.610491" gradientUnits="userSpaceOnUse">
<stop offset="0.27" stop-color="#19191E"/>
<stop offset="0.875" stop-color="#49494A" stop-opacity="0.7"/>
</linearGradient>
</defs>
</svg>
