<svg width="18" height="18" viewBox="0 0 18 18" fill="none" xmlns="http://www.w3.org/2000/svg">
<path d="M14.8346 0.229004C14.5903 0.229004 14.3454 0.322702 14.1592 0.508952L13.1175 1.55062C13.111 1.5571 13.1048 1.56376 13.0988 1.57057C13.0363 1.64106 12.9399 1.66457 12.8565 1.62087C11.7018 1.0159 10.3922 0.666829 9.0013 0.666829C4.40608 0.666829 0.667969 4.40494 0.667969 9.00016C0.667969 13.5954 4.40608 17.3335 9.0013 17.3335C13.5965 17.3335 17.3346 13.5954 17.3346 9.00016C17.3346 8.49399 17.2893 7.99778 17.2028 7.51579C17.1883 7.43499 17.158 7.35784 17.1136 7.28875C17.0693 7.21967 17.0118 7.15999 16.9444 7.11313C16.8769 7.06627 16.801 7.03315 16.7208 7.01566C16.6405 6.99816 16.5577 6.99664 16.4769 7.01118C16.3961 7.02571 16.3189 7.05602 16.2499 7.10037C16.1808 7.14472 16.1211 7.20224 16.0742 7.26966C16.0274 7.33707 15.9943 7.41305 15.9768 7.49326C15.9593 7.57347 15.9578 7.65634 15.9723 7.73714C16.0458 8.14681 16.0846 8.568 16.0846 9.00016C16.0846 12.9199 12.9211 16.0835 9.0013 16.0835C5.08152 16.0835 1.91797 12.9199 1.91797 9.00016C1.91797 5.08038 5.08152 1.91683 9.0013 1.91683C10.1903 1.91683 11.3048 2.21463 12.2862 2.73115C12.3661 2.77323 12.4052 2.86466 12.3873 2.95321C12.355 3.11274 12.3346 3.27486 12.3346 3.44027V4.69857C12.3346 4.75161 12.3136 4.80248 12.2761 4.83999L12.1892 4.92687C12.1179 4.99814 12.005 5.00488 11.9233 4.94589C11.1006 4.35213 10.0902 4.00016 9.0013 4.00016C6.24756 4.00016 4.0013 6.24643 4.0013 9.00016C4.0013 11.7539 6.24756 14.0002 9.0013 14.0002C11.6124 14.0002 13.7683 11.9843 13.9834 9.42334C13.9931 9.34011 13.9859 9.25578 13.9624 9.17537C13.9388 9.09496 13.8994 9.0201 13.8463 8.95525C13.7933 8.8904 13.7277 8.83687 13.6535 8.79786C13.5794 8.75885 13.4981 8.73515 13.4146 8.72816C13.3311 8.72118 13.2471 8.73105 13.1675 8.7572C13.0879 8.78335 13.0143 8.82523 12.9512 8.88037C12.8881 8.9355 12.8368 9.00276 12.8002 9.07814C12.7636 9.15352 12.7426 9.23549 12.7383 9.31917C12.5767 11.2432 10.9719 12.7502 9.0013 12.7502C6.92337 12.7502 5.2513 11.0781 5.2513 9.00016C5.2513 6.92223 6.92337 5.25016 9.0013 5.25016C9.72866 5.25016 10.3993 5.4604 10.971 5.81719C11.0759 5.88268 11.0879 6.02812 11.0005 6.1156L9.74463 7.37141C9.68691 7.42914 9.60022 7.44489 9.52278 7.41907C9.35488 7.36308 9.17886 7.33411 9.0013 7.3335C8.55927 7.3335 8.13535 7.50909 7.82279 7.82165C7.51023 8.13421 7.33464 8.55814 7.33464 9.00016C7.33464 9.44219 7.51023 9.86611 7.82279 10.1787C8.13535 10.4912 8.55927 10.6668 9.0013 10.6668C9.2761 10.6664 9.54653 10.5981 9.78853 10.4679C10.0305 10.3377 10.2366 10.1497 10.3883 9.9206C10.5401 9.69151 10.6328 9.42845 10.6584 9.15485C10.6797 8.926 10.6534 8.69572 10.5818 8.47835C10.5563 8.40108 10.5721 8.31475 10.6297 8.25722L13.1615 5.72541C13.199 5.6879 13.2499 5.66683 13.3029 5.66683H14.5612C15.2695 5.66683 15.9492 5.38479 16.4508 4.88395L17.4925 3.84229C17.865 3.46978 17.865 2.86387 17.4925 2.49137L17.0854 2.08429C17.0073 2.00619 17.0073 1.87955 17.0854 1.80145L17.1523 1.73454C17.2432 1.64673 17.3054 1.53345 17.3305 1.40962C17.3557 1.28578 17.3428 1.15723 17.2934 1.0409C17.2441 0.924566 17.1606 0.825925 17.0541 0.757984C16.9475 0.690042 16.8229 0.65599 16.6966 0.660319C16.5343 0.66505 16.3802 0.732762 16.2669 0.849121L16.2 0.916033C16.1219 0.994138 15.9953 0.994138 15.9172 0.916033L15.5101 0.508952C15.3238 0.322702 15.079 0.229004 14.8346 0.229004Z" fill="url(#paint0_radial_155_26880)"/>
<defs>
<radialGradient id="paint0_radial_155_26880" cx="0" cy="0" r="1" gradientUnits="userSpaceOnUse" gradientTransform="translate(0.164894 1.1289) rotate(43.2653) scale(56.6483 725.126)">
<stop stop-color="#D1AFF4"/>
<stop offset="0.1835" stop-color="#9679EC"/>
<stop offset="0.364955" stop-color="#6060BE"/>
</radialGradient>
</defs>
</svg>
