<svg width="18" height="19" viewBox="0 0 18 19" fill="none" xmlns="http://www.w3.org/2000/svg">
<path d="M15.2857 0.5H2.71429C2.19332 0.5 1.6937 0.725765 1.32533 1.12763C0.956951 1.52949 0.75 2.07454 0.75 2.64286V16.3571C0.75 16.9255 0.956951 17.4705 1.32533 17.8724C1.6937 18.2742 2.19332 18.5 2.71429 18.5H15.2857C15.8067 18.5 16.3063 18.2742 16.6747 17.8724C17.043 17.4705 17.25 16.9255 17.25 16.3571V2.64286C17.25 2.07454 17.043 1.52949 16.6747 1.12763C16.3063 0.725765 15.8067 0.5 15.2857 0.5ZM6.64286 3.5C6.95366 3.5 7.25748 3.60054 7.5159 3.78891C7.77432 3.97728 7.97573 4.24501 8.09467 4.55826C8.21361 4.8715 8.24473 5.21619 8.18409 5.54873C8.12346 5.88127 7.97379 6.18672 7.75402 6.42647C7.53426 6.66622 7.25425 6.82949 6.94943 6.89563C6.6446 6.96178 6.32864 6.92783 6.0415 6.79808C5.75436 6.66833 5.50893 6.4486 5.33626 6.16669C5.16359 5.88478 5.07143 5.55334 5.07143 5.21429C5.07143 4.75963 5.23699 4.32359 5.53169 4.0021C5.82639 3.68061 6.22609 3.5 6.64286 3.5ZM15.2319 14.8593C15.1973 14.9238 15.1478 14.9774 15.0883 15.0146C15.0288 15.0518 14.9614 15.0714 14.8929 15.0714H3.10714C3.03602 15.0714 2.96623 15.0504 2.90521 15.0105C2.8442 14.9706 2.79425 14.9135 2.76069 14.845C2.72714 14.7766 2.71124 14.6996 2.71469 14.6221C2.71814 14.5446 2.74081 14.4695 2.78029 14.405L5.13743 10.5479C5.16606 10.501 5.20286 10.4608 5.24574 10.4295C5.28862 10.3982 5.33673 10.3764 5.38733 10.3654C5.43793 10.3543 5.49003 10.3543 5.54064 10.3652C5.59126 10.3762 5.6394 10.3979 5.68232 10.4291C5.70376 10.4449 5.72376 10.4628 5.74204 10.4827L7.76643 12.6907L11.0342 7.54186C11.0716 7.4816 11.1227 7.43295 11.1824 7.40065C11.2422 7.36836 11.3086 7.35351 11.3752 7.35757C11.4418 7.3609 11.5066 7.38267 11.5633 7.42083C11.6201 7.459 11.667 7.5123 11.6997 7.57571L15.2354 14.4329C15.269 14.4981 15.2864 14.5718 15.2857 14.6466C15.2851 14.7214 15.2665 14.7947 15.2319 14.8593Z" fill="url(#paint0_radial_219_16890)"/>
<defs>
<radialGradient id="paint0_radial_219_16890" cx="0" cy="0" r="1" gradientUnits="userSpaceOnUse" gradientTransform="translate(-2.1138 -2.66016) rotate(50.0463) scale(71.4921 902.99)">
<stop offset="0.0263922" stop-color="#FCC5D7"/>
<stop offset="0.131767" stop-color="#F391D2"/>
<stop offset="0.235204" stop-color="#EA72D6"/>
<stop offset="0.436949" stop-color="#833F7B" stop-opacity="0.85"/>
</radialGradient>
</defs>
</svg>
