<svg width="16" height="19" viewBox="0 0 16 19" fill="none" xmlns="http://www.w3.org/2000/svg">
<path d="M6.33333 0.833496C5.87333 0.833496 5.5 1.20683 5.5 1.66683C5.5 2.12683 5.87333 2.50016 6.33333 2.50016H9.66667C10.1267 2.50016 10.5 2.12683 10.5 1.66683C10.5 1.20683 10.1267 0.833496 9.66667 0.833496H6.33333ZM13.8284 2.67106C13.6159 2.68846 13.4092 2.7882 13.2604 2.96403C12.9629 3.31486 13.0072 3.84083 13.3581 4.13916L14.5446 5.14502C14.8954 5.44252 15.4214 5.3982 15.7197 5.04736C16.0172 4.69653 15.9729 4.17057 15.6221 3.87223L14.4355 2.86637C14.2601 2.71762 14.0409 2.65367 13.8284 2.67106ZM8 3.3335C3.865 3.3335 0.5 6.6985 0.5 10.8335C0.5 14.9685 3.865 18.3335 8 18.3335C12.135 18.3335 15.5 14.9685 15.5 10.8335C15.5 6.6985 12.135 3.3335 8 3.3335ZM8 5.8335C8.46 5.8335 8.83333 6.20683 8.83333 6.66683V10.8335C8.83333 11.2935 8.46 11.6668 8 11.6668C7.54 11.6668 7.16667 11.2935 7.16667 10.8335V6.66683C7.16667 6.20683 7.54 5.8335 8 5.8335Z" fill="url(#paint0_radial_155_26896)"/>
<defs>
<radialGradient id="paint0_radial_155_26896" cx="0" cy="0" r="1" gradientUnits="userSpaceOnUse" gradientTransform="translate(0.0465447 1.81174) rotate(48.621) scale(56.248 715.57)">
<stop stop-color="#F098AE"/>
<stop offset="0.1835" stop-color="#EB70AD"/>
<stop offset="0.364955" stop-color="#D435AC"/>
</radialGradient>
</defs>
</svg>
