<svg width="18" height="14" viewBox="0 0 18 14" fill="none" xmlns="http://www.w3.org/2000/svg">
<path d="M3.16406 0.333496C2.2474 0.333496 1.4974 1.0835 1.4974 2.00016V8.66683C1.4974 9.5835 2.2474 10.3335 3.16406 10.3335H14.8307C15.7474 10.3335 16.4974 9.5835 16.4974 8.66683V2.00016C16.4974 1.0835 15.7474 0.333496 14.8307 0.333496H3.16406ZM5.66406 2.8335H12.3307C12.7907 2.8335 13.1641 3.20683 13.1641 3.66683C13.1641 4.12683 12.7907 4.50016 12.3307 4.50016H5.66406C5.20406 4.50016 4.83073 4.12683 4.83073 3.66683C4.83073 3.20683 5.20406 2.8335 5.66406 2.8335ZM5.66406 6.16683H9.83073C10.2907 6.16683 10.6641 6.54016 10.6641 7.00016C10.6641 7.46016 10.2907 7.8335 9.83073 7.8335H5.66406C5.20406 7.8335 4.83073 7.46016 4.83073 7.00016C4.83073 6.54016 5.20406 6.16683 5.66406 6.16683ZM1.4974 12.0002C1.0374 12.0002 0.664062 12.3735 0.664062 12.8335C0.664062 13.2935 1.0374 13.6668 1.4974 13.6668H16.4974C16.9574 13.6668 17.3307 13.2935 17.3307 12.8335C17.3307 12.3735 16.9574 12.0002 16.4974 12.0002H1.4974Z" fill="url(#paint0_radial_155_26872)"/>
<defs>
<radialGradient id="paint0_radial_155_26872" cx="0" cy="0" r="1" gradientUnits="userSpaceOnUse" gradientTransform="translate(0.173849 1.07883) rotate(38.6598) scale(51.4761 644.029)">
<stop stop-color="#63E9D2"/>
<stop offset="0.1835" stop-color="#1CC9C9"/>
<stop offset="0.364955" stop-color="#11B0D0"/>
</radialGradient>
</defs>
</svg>
