<svg width="20" height="20" viewBox="0 0 20 20" fill="none" xmlns="http://www.w3.org/2000/svg">
<path d="M19.14 3.78523C19.0811 3.6384 18.9519 3.52922 18.7951 3.49627C18.6384 3.46333 18.475 3.51227 18.362 3.62428L15.4902 6.46679L13.9788 5.96794L13.4753 4.47045L16.3461 1.62699C16.4592 1.51499 16.5086 1.35309 16.4753 1.19779C16.443 1.04249 16.3338 0.91354 16.1837 0.856125C14.2477 0.106907 12.0475 0.561521 10.5798 2.01572C9.17675 3.40592 8.69701 5.44368 9.31164 7.29131L1.47253 13.8809C0.175824 15.1656 0.175824 17.2552 1.47253 18.5399C2.11755 19.179 2.96302 19.5 3.81324 19.5C4.67201 19.5 5.53648 19.1715 6.20145 18.5117L12.912 10.6731C14.7217 11.1588 16.633 10.6609 17.9687 9.33566C19.4383 7.88052 19.8971 5.70252 19.14 3.78523Z" fill="url(#paint0_radial_155_26900)"/>
<defs>
<radialGradient id="paint0_radial_155_26900" cx="0" cy="0" r="1" gradientUnits="userSpaceOnUse" gradientTransform="translate(-0.0588434 1.49962) rotate(43.2643) scale(62.9271 805.497)">
<stop stop-color="#D1AFF4"/>
<stop offset="0.1835" stop-color="#9679EC"/>
<stop offset="0.364955" stop-color="#6060BE"/>
</radialGradient>
</defs>
</svg>
