<svg width="30" height="22" viewBox="0 0 30 22" fill="none" xmlns="http://www.w3.org/2000/svg">
<path d="M11.4844 0.6875C5.66991 0.6875 0.9375 5.41991 0.9375 11.2344C0.9375 17.0488 5.66991 21.7812 11.4844 21.7812C12.7188 21.7812 13.8981 21.5584 15 21.1667C16.1019 21.5584 17.2812 21.7812 18.5156 21.7812C24.3301 21.7812 29.0625 17.0488 29.0625 11.2344C29.0625 5.41991 24.3301 0.6875 18.5156 0.6875C17.2812 0.6875 16.1019 0.910383 15 1.30205C13.8981 0.910383 12.7188 0.6875 11.4844 0.6875ZM11.4844 2.44531C11.8576 2.44531 12.2222 2.47599 12.583 2.52084C9.80093 4.42194 7.96875 7.61876 7.96875 11.2344C7.96875 14.85 9.80093 18.0468 12.583 19.9479C12.2222 19.9928 11.8576 20.0234 11.4844 20.0234C6.6199 20.0234 2.69531 16.0989 2.69531 11.2344C2.69531 6.3699 6.6199 2.44531 11.4844 2.44531ZM18.5156 2.44531C23.3801 2.44531 27.3047 6.3699 27.3047 11.2344C27.3047 16.0989 23.3801 20.0234 18.5156 20.0234C18.1424 20.0234 17.7778 19.9928 17.417 19.9479C20.1991 18.0468 22.0312 14.85 22.0312 11.2344C22.0312 7.61876 20.1991 4.42194 17.417 2.52084C17.7778 2.47599 18.1424 2.44531 18.5156 2.44531Z" fill="url(#paint0_linear_130_11059)"/>
<defs>
<linearGradient id="paint0_linear_130_11059" x1="20.2984" y1="19.5041" x2="-0.0894459" y2="0.82124" gradientUnits="userSpaceOnUse">
<stop offset="0.27" stop-color="#19191E"/>
<stop offset="0.875" stop-color="#49494A" stop-opacity="0.7"/>
</linearGradient>
</defs>
</svg>
