<svg width="24" height="20" viewBox="0 0 24 20" fill="none" xmlns="http://www.w3.org/2000/svg">
<path d="M9.87449 17.3415C9.55516 17.0249 9.08846 16.9457 8.67088 17.1304C8.64632 17.1304 8.64632 17.1304 8.62175 17.1304C8.62175 17.1304 8.62175 17.1304 8.62175 17.104C8.64632 16.4707 8.17961 15.9166 7.59009 15.8638C7.44271 15.8638 7.29533 15.8902 7.14795 15.943C6.97601 15.9694 7.02513 15.8111 7.02513 15.8111C7.2462 15.2042 7.00057 14.5445 6.43561 14.2806C6.14085 14.1487 5.79696 14.1751 5.5022 14.3334C5.37938 14.3598 5.40395 14.2279 5.40395 14.2279C5.69871 13.6737 5.52677 12.9877 5.0355 12.671C4.54423 12.3808 3.95471 12.5127 3.61082 12.9877L2.7511 14.1223C2.38265 14.6237 2.45634 15.3625 2.89848 15.7583C2.89848 15.7583 2.89848 15.7583 2.92305 15.7847L3.04586 15.8902C3.38975 16.1805 3.88102 16.2069 4.24947 15.9694C4.27403 15.943 4.2986 15.9694 4.32316 15.9958V16.0485C4.24947 16.4707 4.39685 16.9193 4.71617 17.1832L4.81443 17.2623C5.15831 17.5526 5.60046 17.579 5.99347 17.3943C6.01803 17.3679 6.0426 17.3943 6.06716 17.4207V17.447C6.01803 17.8428 6.16541 18.2386 6.46017 18.5025L6.53386 18.5553C6.87775 18.8455 7.31989 18.8719 7.71291 18.6872C7.73747 18.6608 7.7866 18.6872 7.7866 18.7136V18.74C7.83573 19.0303 7.98311 19.2941 8.20418 19.4788L8.2533 19.5316C8.74457 19.9274 9.43235 19.8482 9.8008 19.3205C9.82536 19.2677 9.84992 19.2413 9.89905 19.1886L10.0464 18.8983C10.3412 18.3706 10.2675 17.7373 9.87449 17.3415ZM19.7735 14.4653C19.7244 14.3862 19.6753 14.307 19.6262 14.2542L18.8401 13.2252L12.5028 4.93969C12.4291 4.86053 12.3308 4.83414 12.2326 4.88691L9.18671 6.70761C8.20418 7.28812 7.0497 7.39366 5.99347 6.97147C5.42851 6.76038 4.96181 6.25903 4.74074 5.65213C4.56879 5.01885 4.64248 4.35918 4.93724 3.77867C5.01093 3.62035 4.96181 3.43564 4.83899 3.35648C4.78986 3.33009 4.74074 3.33009 4.69161 3.30371H0.589522C0.270197 3.30371 0 3.59396 0 3.93699V12.7238C5.05263e-08 13.0668 0.270197 13.3307 0.589522 13.3307H1.84226L2.72654 12.1697C3.51257 11.1406 4.93724 11.0087 5.89522 11.853C6.2391 12.1697 6.5093 12.5919 6.63212 13.0668C7.39358 13.2779 7.98311 13.9112 8.17961 14.7292C8.72001 14.9139 9.21128 15.2833 9.48147 15.8374C9.94818 15.9166 10.3903 16.1541 10.7342 16.5235C11.4465 17.3151 11.5939 18.5553 11.0535 19.5052L10.9307 19.7427C11.4957 20.1913 12.3063 20.033 12.7238 19.4261C12.9203 19.1094 12.994 18.74 12.9449 18.3706C12.9449 18.3706 12.9449 18.3442 12.9449 18.3178H12.9695L13.0677 18.4234C13.5099 18.8983 14.1976 18.9775 14.738 18.6081C15.1556 18.2914 15.3521 17.7373 15.2539 17.2096V17.1832H15.2784L15.3767 17.2887C15.8188 17.7637 16.5066 17.8428 17.047 17.4734C17.4646 17.1568 17.6611 16.6027 17.5874 16.0749C17.5874 16.0485 17.5874 16.0485 17.5874 16.0222H17.612L17.7102 16.1277C18.1278 16.5763 18.7664 16.6554 19.2823 16.3388C19.9455 15.9958 20.142 15.125 19.7735 14.4653ZM23.4335 3.3037H22.3281C21.8614 3.3037 21.3947 3.22454 20.9771 3.03984L14.2959 0.295606C12.9449 -0.258517 11.422 -0.0210358 10.2921 0.902503L6.09172 4.33279C6.01803 4.41195 5.94434 4.5175 5.89522 4.62305C5.72327 5.04524 5.89522 5.54659 6.31279 5.75768C7.07426 6.10071 7.93398 6.07432 8.64632 5.62575L12.208 3.46203C12.4782 3.3037 12.8221 3.38287 13.0186 3.62035L20.8052 13.7793C20.8789 13.8584 21.0017 13.8848 21.0754 13.8057L21.3947 13.5154C21.5667 13.3835 21.7632 13.3043 21.9597 13.3043H23.4089C23.7283 13.3043 23.9739 13.0404 23.9984 12.6974V3.93699C24.023 3.59396 23.7528 3.3037 23.4335 3.3037Z" fill="url(#paint0_linear_5278_137369)"/>
<defs>
<linearGradient id="paint0_linear_5278_137369" x1="0.640914" y1="0.534095" x2="19.8533" y2="23.589" gradientUnits="userSpaceOnUse">
<stop stop-color="white"/>
<stop offset="1" stop-color="white" stop-opacity="0.6"/>
</linearGradient>
</defs>
</svg>
