<svg width="26" height="24" viewBox="0 0 26 24" fill="none" xmlns="http://www.w3.org/2000/svg">
<path d="M25.5058 9.32173C25.4386 9.12065 25.2609 8.97402 25.0455 8.94402L17.0759 7.81424L13.512 0.77225C13.3206 0.392323 12.6814 0.392323 12.4912 0.77225L8.92506 7.81424L0.955402 8.94402C0.741207 8.97402 0.562331 9.12065 0.49511 9.32173C0.429029 9.5228 0.484856 9.74387 0.639806 9.89051L6.40712 15.3717L5.04562 23.1113C5.00916 23.3202 5.09689 23.5301 5.27235 23.6545C5.44894 23.7801 5.68023 23.7956 5.87278 23.6968L13.0005 20.043L20.1282 23.6979C20.2113 23.7412 20.3025 23.7623 20.3936 23.7623C20.5121 23.7623 20.6295 23.7268 20.7286 23.6557C20.904 23.5312 20.9918 23.3213 20.9553 23.1124L19.5938 15.3728L25.3611 9.89051C25.5161 9.74387 25.5719 9.5228 25.5058 9.32173Z" fill="url(#paint0_linear_130_11038)"/>
<defs>
<linearGradient id="paint0_linear_130_11038" x1="17.7225" y1="21.2497" x2="-3.87434" y2="5.26487" gradientUnits="userSpaceOnUse">
<stop offset="0.27" stop-color="#19191E"/>
<stop offset="0.875" stop-color="#49494A" stop-opacity="0.7"/>
</linearGradient>
</defs>
</svg>
