<svg width="18" height="18" viewBox="0 0 18 18" fill="none" xmlns="http://www.w3.org/2000/svg">
<path d="M2.38889 0.5C1.34528 0.5 0.5 1.34528 0.5 2.38889V3.33333V4.27778V15.6111C0.5 16.6434 1.35655 17.5 2.38889 17.5H15.6111C16.6434 17.5 17.5 16.6434 17.5 15.6111V4.27778V3.33333V2.38889C17.5 1.34528 16.6547 0.5 15.6111 0.5H2.38889ZM2.38889 4.47778C2.38889 4.36732 2.47843 4.27778 2.58889 4.27778H15.4111C15.5216 4.27778 15.6111 4.36732 15.6111 4.47778V15.4111C15.6111 15.5216 15.5216 15.6111 15.4111 15.6111H2.58889C2.47843 15.6111 2.38889 15.5216 2.38889 15.4111V4.47778ZM6.15191 6.15375C5.90175 6.15766 5.66336 6.26067 5.48906 6.44015C5.31476 6.61964 5.2188 6.86094 5.22222 7.11111V7.85271C5.22222 7.96427 5.12997 8.05217 5.02064 8.0744C4.96475 8.08577 4.90986 8.1022 4.85668 8.12357C4.74054 8.17024 4.63484 8.23953 4.54571 8.3274C4.45659 8.41528 4.38581 8.51999 4.33751 8.63546C4.2892 8.75092 4.26433 8.87484 4.26433 9C4.26433 9.12516 4.2892 9.24908 4.33751 9.36454C4.38581 9.48001 4.45659 9.58472 4.54571 9.6726C4.63484 9.76047 4.74054 9.82976 4.85668 9.87642C4.90986 9.8978 4.96475 9.91423 5.02064 9.92559C5.12997 9.94783 5.22222 10.0357 5.22222 10.1473V12.7778C5.22045 12.9029 5.24357 13.0272 5.29024 13.1433C5.33691 13.2595 5.4062 13.3652 5.49407 13.4543C5.58195 13.5434 5.68666 13.6142 5.80212 13.6625C5.91759 13.7108 6.0415 13.7357 6.16667 13.7357C6.29183 13.7357 6.41574 13.7108 6.53121 13.6625C6.64667 13.6142 6.75139 13.5434 6.83926 13.4543C6.92714 13.3652 6.99642 13.2595 7.04309 13.1433C7.08976 13.0272 7.11288 12.9029 7.11111 12.7778V10.1473C7.11111 10.0357 7.20337 9.94783 7.31269 9.92559C7.36858 9.91423 7.42347 9.8978 7.47665 9.87642C7.59279 9.82976 7.69849 9.76047 7.78762 9.6726C7.87675 9.58472 7.94752 9.48001 7.99582 9.36454C8.04413 9.24908 8.06901 9.12516 8.06901 9C8.06901 8.87484 8.04413 8.75092 7.99582 8.63546C7.94752 8.51999 7.87675 8.41528 7.78762 8.3274C7.69849 8.23953 7.59279 8.17024 7.47665 8.12357C7.42347 8.1022 7.36858 8.08577 7.31269 8.0744C7.20337 8.05217 7.11111 7.96427 7.11111 7.85271V7.11111C7.11284 6.98475 7.0892 6.85933 7.04158 6.74228C6.99397 6.62523 6.92335 6.51892 6.83391 6.42965C6.74447 6.34038 6.63802 6.26996 6.52087 6.22257C6.40373 6.17518 6.27826 6.15178 6.15191 6.15375ZM11.8186 6.15375C11.5684 6.15766 11.33 6.26067 11.1557 6.44015C10.9814 6.61964 10.8855 6.86094 10.8889 7.11111V9.7416C10.8889 9.85316 10.7966 9.94106 10.6873 9.96329C10.6314 9.97466 10.5765 9.99109 10.5233 10.0125C10.4072 10.0591 10.3015 10.1284 10.2124 10.2163C10.1233 10.3042 10.0525 10.4089 10.0042 10.5243C9.95587 10.6398 9.93099 10.7637 9.93099 10.8889C9.93099 11.0141 9.95587 11.138 10.0042 11.2534C10.0525 11.3689 10.1233 11.4736 10.2124 11.5615C10.3015 11.6494 10.4072 11.7186 10.5233 11.7653C10.5765 11.7867 10.6314 11.8031 10.6873 11.8145C10.7966 11.8367 10.8889 11.9246 10.8889 12.0362V12.7778C10.8871 12.9029 10.9102 13.0272 10.9569 13.1433C11.0036 13.2595 11.0729 13.3652 11.1607 13.4543C11.2486 13.5434 11.3533 13.6142 11.4688 13.6625C11.5843 13.7108 11.7082 13.7357 11.8333 13.7357C11.9585 13.7357 12.0824 13.7108 12.1979 13.6625C12.3133 13.6142 12.4181 13.5434 12.5059 13.4543C12.5938 13.3652 12.6631 13.2595 12.7098 13.1433C12.7564 13.0272 12.7795 12.9029 12.7778 12.7778V12.0362C12.7778 11.9246 12.87 11.8367 12.9794 11.8145C13.0353 11.8031 13.0901 11.7867 13.1433 11.7653C13.2595 11.7186 13.3652 11.6494 13.4543 11.5615C13.5434 11.4736 13.6142 11.3689 13.6625 11.2534C13.7108 11.138 13.7357 11.0141 13.7357 10.8889C13.7357 10.7637 13.7108 10.6398 13.6625 10.5243C13.6142 10.4089 13.5434 10.3042 13.4543 10.2163C13.3652 10.1284 13.2595 10.0591 13.1433 10.0125C13.0901 9.99109 13.0353 9.97466 12.9794 9.96329C12.87 9.94106 12.7778 9.85316 12.7778 9.7416V7.11111C12.7795 6.98475 12.7559 6.85933 12.7083 6.74228C12.6606 6.62523 12.59 6.51892 12.5006 6.42965C12.4111 6.34038 12.3047 6.26996 12.1875 6.22257C12.0704 6.17518 11.9449 6.15178 11.8186 6.15375Z" fill="url(#paint0_radial_155_26906)"/>
<defs>
<radialGradient id="paint0_radial_155_26906" cx="0" cy="0" r="1" gradientUnits="userSpaceOnUse" gradientTransform="translate(-1.78012e-05 1.3944) rotate(43.2643) scale(56.3032 720.708)">
<stop stop-color="#D1AFF4"/>
<stop offset="0.1835" stop-color="#9679EC"/>
<stop offset="0.364955" stop-color="#6060BE"/>
</radialGradient>
</defs>
</svg>
