<svg width="24" height="20" viewBox="0 0 24 20" fill="none" xmlns="http://www.w3.org/2000/svg">
<path d="M12 0C14.2758 0.000184046 16.5046 0.647411 18.4265 1.86618C20.3484 3.08495 21.8841 4.82502 22.8544 6.88341C23.8248 8.9418 24.1898 11.2336 23.9069 13.4916C23.624 15.7496 22.7049 17.8806 21.2567 19.636C21.1629 19.7499 21.045 19.8416 20.9115 19.9045C20.778 19.9674 20.6323 20 20.4847 20H3.51532C3.36774 20 3.22198 19.9674 3.0885 19.9045C2.95501 19.8416 2.83711 19.7499 2.74326 19.636C1.29509 17.8806 0.375961 15.7496 0.0930786 13.4916C-0.189804 11.2336 0.175223 8.9418 1.14558 6.88341C2.11594 4.82502 3.65163 3.08495 5.5735 1.86618C7.49538 0.647411 9.7242 0.000184046 12 0ZM10.5859 15.414C10.961 15.7889 11.4696 15.9996 12 15.9996C12.5304 15.9996 13.039 15.7889 13.4141 15.414C13.8141 15.014 17.6305 10.106 18.7905 8.614C18.935 8.42143 19.0051 8.18322 18.988 7.94311C18.971 7.703 18.8679 7.4771 18.6976 7.30689C18.5274 7.13668 18.3015 7.03358 18.0614 7.01652C17.8212 6.99945 17.583 7.06957 17.3904 7.214C15.8963 8.374 10.9899 12.186 10.5899 12.59C10.2156 12.9644 10.005 13.4718 10.0043 14.0012C10.0035 14.5305 10.2127 15.0386 10.5859 15.414Z" fill="url(#paint0_linear_327_35214)"/>
<defs>
<linearGradient id="paint0_linear_327_35214" x1="21.5" y1="20" x2="2.59729" y2="0.903696" gradientUnits="userSpaceOnUse">
<stop offset="0.27" stop-color="#19191E"/>
<stop offset="0.875" stop-color="#49494A" stop-opacity="0.7"/>
</linearGradient>
</defs>
</svg>
