<svg width="26" height="26" viewBox="0 0 26 26" fill="none" xmlns="http://www.w3.org/2000/svg">
<path d="M20.617 0.8125L19.0072 2.4223C14.3576 -0.22531 8.34751 0.416487 4.38208 4.38322C-0.377361 9.14267 -0.377361 16.8585 4.38208 21.6179C9.14152 26.3774 16.8603 26.3774 21.6198 21.6179C24.7795 18.4551 25.8293 13.9924 24.7888 9.95355L21.8995 10.9474C22.0518 11.6086 22.1405 12.2937 22.1405 13.0006C22.1405 18.0495 18.0483 22.1416 12.9994 22.1416C7.95052 22.1416 3.85838 18.0495 3.85838 13.0006C3.85838 7.95166 7.95052 3.85952 12.9994 3.85952C14.6683 3.85952 16.2249 4.31792 17.57 5.10034V6.27273L16.0643 7.77839C15.1612 7.24259 14.1262 6.90654 12.9994 6.90654C9.634 6.90654 6.90539 9.63514 6.90539 13.0006C6.90539 16.366 9.634 19.0946 12.9994 19.0946C16.3649 19.0946 19.0935 16.366 19.0935 13.0006C19.0935 12.7995 19.0538 12.6079 19.034 12.4114L15.1538 15.1549C14.6023 15.7064 13.8404 16.0476 12.9994 16.0476C11.316 16.0476 9.95241 14.684 9.95241 13.0006C9.95241 11.3171 11.316 9.95355 12.9994 9.95355C13.2702 9.95355 13.5276 9.99849 13.7761 10.0666L11.9193 11.9234L11.9223 11.9264C11.7103 12.1396 11.5661 12.4108 11.5079 12.7058C11.4497 13.0008 11.4801 13.3064 11.5953 13.5841C11.7105 13.8619 11.9053 14.0993 12.1551 14.2666C12.405 14.4339 12.6988 14.5234 12.9994 14.5241C13.203 14.5241 13.4046 14.4833 13.5922 14.404C13.7797 14.3248 13.9495 14.2088 14.0915 14.0629L19.7213 8.43004H22.1405L25.1875 5.38303V3.85952H22.1405V0.8125H20.617Z" fill="url(#paint0_linear_130_11052)"/>
<defs>
<linearGradient id="paint0_linear_130_11052" x1="17.5919" y1="22.5562" x2="-4.48647" y2="7.3821" gradientUnits="userSpaceOnUse">
<stop offset="0.27" stop-color="#19191E"/>
<stop offset="0.875" stop-color="#49494A" stop-opacity="0.7"/>
</linearGradient>
</defs>
</svg>
