<svg width="37" height="36" viewBox="0 0 37 36" fill="none" xmlns="http://www.w3.org/2000/svg">
<path fill-rule="evenodd" clip-rule="evenodd" d="M18.7188 36C28.6599 36 36.7188 27.9411 36.7188 18C36.7188 8.05887 28.6599 0 18.7188 0C8.77762 0 0.71875 8.05887 0.71875 18C0.71875 27.9411 8.77762 36 18.7188 36ZM26.2607 18.8628C26.9197 18.4765 26.9197 17.5237 26.2607 17.1374L15.0409 10.5603C14.3743 10.1695 13.5352 10.6503 13.5352 11.423L13.5352 24.5772C13.5352 25.3499 14.3743 25.8307 15.0409 25.4399L26.2607 18.8628Z" fill="url(#paint0_linear_271_23284)"/>
<path d="M26.7425 17.1376C27.4015 17.5239 27.4015 18.4766 26.7425 18.863L14.9862 25.7546C14.3195 26.1454 13.4805 25.6647 13.4805 24.8919L13.4805 11.1086C13.4805 10.3359 14.3195 9.85515 14.9862 10.2459L26.7425 17.1376Z" fill="white"/>
<defs>
<linearGradient id="paint0_linear_271_23284" x1="8.25775" y1="2.76667" x2="5.18316" y2="34.5572" gradientUnits="userSpaceOnUse">
<stop stop-color="#FB939C"/>
<stop offset="0.447505" stop-color="#C6549A"/>
<stop offset="1" stop-color="#522E8A"/>
</linearGradient>
</defs>
</svg>
