<svg width="200" height="164" viewBox="0 0 200 164" fill="none" xmlns="http://www.w3.org/2000/svg">
<path opacity="0.6" d="M79.3539 149L76.4419 138.92H77.5129L79.8719 147.243L82.2169 138.927L83.2949 138.92L85.6539 147.243L87.9989 138.92H89.0769L86.1719 149H85.1359L82.7559 140.733L80.3899 149H79.3539ZM92.6536 149.21C91.9163 149.21 91.2769 149.047 90.7356 148.72C90.1989 148.393 89.7813 147.934 89.4826 147.341C89.1839 146.748 89.0346 146.053 89.0346 145.255C89.0346 144.429 89.1816 143.715 89.4756 143.113C89.7696 142.511 90.1826 142.047 90.7146 141.72C91.2513 141.393 91.8836 141.23 92.6116 141.23C93.3583 141.23 93.9953 141.403 94.5226 141.748C95.0499 142.089 95.4489 142.579 95.7196 143.218C95.9903 143.857 96.1139 144.62 96.0906 145.507H95.0406V145.143C95.0219 144.163 94.8096 143.423 94.4036 142.924C94.0023 142.425 93.4143 142.175 92.6396 142.175C91.8276 142.175 91.2046 142.439 90.7706 142.966C90.3413 143.493 90.1266 144.245 90.1266 145.22C90.1266 146.172 90.3413 146.912 90.7706 147.439C91.2046 147.962 91.8183 148.223 92.6116 148.223C93.1529 148.223 93.6243 148.099 94.0256 147.852C94.4316 147.6 94.7513 147.238 94.9846 146.767L95.9436 147.138C95.6449 147.796 95.2039 148.307 94.6206 148.671C94.0419 149.03 93.3863 149.21 92.6536 149.21ZM89.7626 145.507V144.646H95.5376V145.507H89.7626ZM100.843 149.21C100.106 149.21 99.4664 149.047 98.9251 148.72C98.3884 148.393 97.9707 147.934 97.6721 147.341C97.3734 146.748 97.2241 146.053 97.2241 145.255C97.2241 144.429 97.3711 143.715 97.6651 143.113C97.9591 142.511 98.3721 142.047 98.9041 141.72C99.4407 141.393 100.073 141.23 100.801 141.23C101.548 141.23 102.185 141.403 102.712 141.748C103.239 142.089 103.638 142.579 103.909 143.218C104.18 143.857 104.303 144.62 104.28 145.507H103.23V145.143C103.211 144.163 102.999 143.423 102.593 142.924C102.192 142.425 101.604 142.175 100.829 142.175C100.017 142.175 99.3941 142.439 98.9601 142.966C98.5307 143.493 98.3161 144.245 98.3161 145.22C98.3161 146.172 98.5307 146.912 98.9601 147.439C99.3941 147.962 100.008 148.223 100.801 148.223C101.342 148.223 101.814 148.099 102.215 147.852C102.621 147.6 102.941 147.238 103.174 146.767L104.133 147.138C103.834 147.796 103.393 148.307 102.81 148.671C102.231 149.03 101.576 149.21 100.843 149.21ZM97.9521 145.507V144.646H103.727V145.507H97.9521ZM109.229 149.21C108.533 149.21 107.945 149.035 107.465 148.685C106.984 148.33 106.62 147.852 106.373 147.25C106.125 146.643 106.002 145.964 106.002 145.213C106.002 144.448 106.125 143.766 106.373 143.169C106.625 142.567 106.993 142.093 107.479 141.748C107.964 141.403 108.561 141.23 109.271 141.23C109.961 141.23 110.554 141.405 111.049 141.755C111.543 142.105 111.921 142.581 112.183 143.183C112.449 143.785 112.582 144.462 112.582 145.213C112.582 145.969 112.449 146.648 112.183 147.25C111.917 147.852 111.534 148.33 111.035 148.685C110.535 149.035 109.933 149.21 109.229 149.21ZM105.827 149V138.92H106.863V143.309H106.751V149H105.827ZM109.124 148.251C109.651 148.251 110.09 148.118 110.44 147.852C110.79 147.586 111.051 147.224 111.224 146.767C111.401 146.305 111.49 145.787 111.49 145.213C111.49 144.644 111.403 144.13 111.231 143.673C111.058 143.216 110.794 142.854 110.44 142.588C110.09 142.322 109.644 142.189 109.103 142.189C108.575 142.189 108.137 142.317 107.787 142.574C107.441 142.831 107.182 143.188 107.01 143.645C106.837 144.098 106.751 144.62 106.751 145.213C106.751 145.796 106.837 146.319 107.01 146.781C107.182 147.238 107.444 147.598 107.794 147.859C108.144 148.12 108.587 148.251 109.124 148.251ZM114.259 149V138.71H115.288V149H114.259ZM118.464 152.36L119.927 148.391L119.948 149.567L116.637 141.44H117.729L120.445 148.237H119.997L122.503 141.44H123.553L119.493 152.36H118.464Z" fill="#0E041B"/>
<path d="M101.192 60.0181C98.8767 60.0181 97.2874 61.798 97.0455 63.9885H105.372C105.096 61.7637 103.679 60.0181 101.192 60.0181ZM121.611 60.4973C118.813 60.4973 117.5 63.0644 117.5 65.5972C117.5 68.0958 118.743 70.9709 121.611 70.9709C124.341 70.9709 125.688 68.1643 125.688 65.7684C125.619 63.3382 124.306 60.4973 121.611 60.4973ZM80.8066 60.0181C78.4917 60.0181 76.9024 61.798 76.6606 63.9885H84.9873C84.6763 61.7637 83.2598 60.0181 80.8066 60.0181ZM154.953 52.7277C152.327 52.7277 150.219 54.1995 149.252 56.6639L148.595 58.3752L147.973 56.6639C147.075 54.2337 144.898 52.6935 142.273 52.6935C141.927 52.6935 141.616 52.7277 141.271 52.7962V50.4687C141.271 46.9433 138.714 44.342 135.328 44.342C131.942 44.342 129.385 46.9775 129.385 50.4687V54.9868C127.416 53.3439 124.997 52.4882 122.371 52.4882C121.784 52.4882 121.197 52.5224 120.644 52.625V50.503C120.644 46.9776 118.122 44.3763 114.805 44.3763C111.488 44.3763 108.966 47.0118 108.966 50.503V55.466C106.72 53.5492 103.956 52.5224 100.95 52.5224C97.391 52.5224 94.1087 53.9942 91.7592 56.6639C91.3792 57.0746 91.0337 57.5196 90.7227 58.033C90.4118 57.588 90.0663 57.1431 89.6862 56.6981C87.2677 53.9942 83.9508 52.5224 80.4266 52.5224C77.7662 52.5224 75.2785 53.3438 73.2055 54.8841C72.169 53.4123 70.4414 52.5224 68.3338 52.5224C65.6389 52.5224 63.3585 54.3364 62.6329 57.0062C61.3546 52.9673 58.1759 52.5224 56.8284 52.5224C55.4809 52.5224 52.3022 52.9673 51.0239 57.0062C50.3328 54.3364 48.0871 52.5224 45.323 52.5224C42.0061 52.5224 39.3457 54.8841 39.3457 57.8961C39.3457 59.231 39.6567 60.292 40.0713 61.4557L44.5974 74.1541C46.1177 78.364 49.1927 78.9801 50.9202 78.9801C53.5806 78.9801 55.6882 77.6111 56.7938 75.2151C57.8649 77.6453 59.9725 79.0144 62.6675 79.0144C64.395 79.0144 67.4701 78.3983 68.9903 74.1541L69.5085 72.6823C71.7198 76.5842 75.8313 79.0144 80.8412 79.0144C84.469 79.0144 89.2716 77.4742 91.4828 74.6675C93.8323 77.3715 97.3565 79.0144 101.433 79.0144C104.198 79.0144 107.687 78.1245 110.14 76.4131C111.177 77.8849 112.87 78.7748 114.839 78.7748C116.014 78.7748 117.05 78.501 117.914 77.9876C119.227 78.6379 120.678 78.9801 122.199 78.9801C125.17 78.9801 127.934 77.8849 130.042 75.797C131.009 77.748 132.944 78.9801 135.293 78.9801C137.815 78.9801 139.889 77.4742 140.752 75.2836C140.752 75.2836 139.889 80.0412 139.889 80.9311C139.889 84.0458 142.48 86.4075 145.9 86.4075C148.319 86.4075 150.392 84.8673 151.394 82.3002L160.135 60.7712C160.481 59.984 160.654 59.1283 160.654 58.1699C160.723 54.9525 157.717 52.7277 154.953 52.7277ZM70.476 60.3262L65.9153 73.0588C65.3624 74.599 64.4296 75.7285 62.702 75.7285C61.0781 75.7285 60.1107 74.8386 59.627 73.2984L56.8975 64.81H56.8629L54.1334 73.2984C53.6497 74.8386 52.6823 75.7285 51.0584 75.7285C49.2963 75.7285 48.398 74.5648 47.8452 73.0588L43.319 60.3947C42.939 59.3336 42.7662 58.6491 42.7662 57.8961C42.7662 56.6981 43.8719 55.7739 45.4266 55.7739C46.7396 55.7739 47.6379 56.5954 47.9488 57.8618L51.0239 67.9589H51.093L54.2025 58.1014C54.6172 56.6639 55.3773 55.7739 56.8975 55.7739C58.4177 55.7739 59.1779 56.6296 59.5925 58.1014L62.702 67.9589H62.7711L65.8462 57.8618C66.1226 56.5954 67.09 55.7739 68.3684 55.7739C69.9232 55.7739 71.0288 56.6981 71.0288 58.341C70.9942 58.9229 70.7178 59.5047 70.476 60.3262ZM81.3595 71.279C84.0544 71.279 85.8856 69.1568 87.3022 69.1568C88.4078 69.1568 89.4444 70.2521 89.4444 71.3816C89.4444 73.6064 84.8145 75.7628 80.9103 75.7628C75.0021 75.7628 71.1324 71.5185 71.1324 65.8368C71.1324 60.6 75.0021 55.8424 80.4957 55.8424C86.162 55.8424 89.8935 60.9423 89.8935 65.2892C89.8935 66.8294 89.2025 67.6166 87.6132 67.6166H76.4533C76.7988 70.081 78.9409 71.279 81.3595 71.279ZM108.171 67.5482H97.011C97.3565 70.081 99.4986 71.2447 101.952 71.2447C104.647 71.2447 106.478 69.1226 107.894 69.1226C109 69.1226 110.037 70.2179 110.037 71.3474C110.037 73.5722 105.407 75.7285 101.503 75.7285C95.5944 75.7285 91.7247 71.4843 91.7247 65.8026C91.7247 60.5658 95.5944 55.8082 101.088 55.8082C106.754 55.8082 110.486 60.9081 110.486 65.2549C110.451 66.7952 109.726 67.5482 108.171 67.5482ZM122.268 75.7628C120.471 75.7628 118.467 74.9755 117.5 73.4011C117.189 74.7702 116.325 75.5574 114.908 75.5574C113.388 75.5574 112.317 74.3937 112.317 72.6823V50.5372C112.317 48.7916 113.319 47.6621 114.874 47.6621C116.394 47.6621 117.43 48.8258 117.43 50.5372V57.588C118.916 56.39 120.609 55.7739 122.44 55.7739C128.038 55.7739 130.905 60.9765 130.905 66.0421C130.871 70.8682 127.519 75.7628 122.268 75.7628ZM138.023 72.8534C138.023 74.599 136.917 75.7285 135.397 75.7285C133.877 75.7285 132.771 74.5648 132.771 72.8534V50.4687C132.771 48.7231 133.877 47.5936 135.397 47.5936C136.917 47.5936 138.023 48.7574 138.023 50.4687V72.8534ZM157.198 59.539L148.492 81.1365C148.077 82.1975 147.248 83.1901 146.039 83.1901C144.242 83.1901 143.309 82.0948 143.309 80.9653C143.309 80.4861 143.447 79.9385 143.62 79.4593L145.9 73.846L140.13 59.5732C139.992 59.1967 139.889 58.7859 139.889 58.2383C139.889 56.9377 141.271 56.0135 142.342 56.0135C143.62 56.0135 144.518 56.6981 144.933 57.8618L148.526 67.5824L152.396 57.8618C152.811 56.6981 153.743 56.0135 154.987 56.0135C156.058 56.0135 157.44 56.9377 157.44 58.2383C157.475 58.7517 157.371 59.1282 157.198 59.539Z" fill="#0D041B" fill-opacity="0.75"/>
</svg>
