<svg width="356" height="260" viewBox="0 0 356 260" fill="none" xmlns="http://www.w3.org/2000/svg">
<mask id="mask0_2001_7713" style="mask-type:alpha" maskUnits="userSpaceOnUse" x="114" y="66" width="128" height="128">
<rect x="114.455" y="66.4546" width="127.091" height="127.091" fill="#D9D9D9"/>
</mask>
<g mask="url(#mask0_2001_7713)">
<path d="M144.191 167.068H188.591V144.868C188.591 143.657 189.001 142.641 189.821 141.821C190.641 141.001 191.657 140.591 192.868 140.591H215.068V96.1913C215.068 95.2407 214.763 94.4597 214.152 93.848C213.541 93.2373 212.76 92.9319 211.809 92.9319H144.191C143.241 92.9319 142.46 93.2373 141.848 93.848C141.237 94.4597 140.932 95.2407 140.932 96.1913V163.809C140.932 164.76 141.237 165.541 141.848 166.152C142.46 166.763 143.241 167.068 144.191 167.068ZM144.191 172.364C141.838 172.364 139.824 171.526 138.149 169.851C136.474 168.176 135.636 166.162 135.636 163.809V96.1913C135.636 93.8383 136.474 91.8243 138.149 90.1492C139.824 88.474 141.838 87.6365 144.191 87.6365H211.809C214.162 87.6365 216.176 88.474 217.851 90.1492C219.526 91.8243 220.364 93.8383 220.364 96.1913V138.564C220.364 139.735 220.133 140.851 219.671 141.912C219.21 142.973 218.596 143.887 217.829 144.654L192.654 169.829C191.887 170.596 190.973 171.21 189.912 171.671C188.851 172.133 187.735 172.364 186.564 172.364H144.191ZM175.352 137.739H158.854C158.104 137.739 157.475 137.485 156.968 136.977C156.46 136.469 156.207 135.84 156.207 135.088C156.207 134.337 156.46 133.708 156.968 133.203C157.475 132.697 158.104 132.444 158.854 132.444H175.352C176.103 132.444 176.731 132.698 177.239 133.207C177.746 133.715 178 134.345 178 135.096C178 135.847 177.746 136.475 177.239 136.981C176.731 137.487 176.103 137.739 175.352 137.739ZM197.146 116.761H158.854C158.104 116.761 157.475 116.507 156.968 115.999C156.46 115.491 156.207 114.861 156.207 114.11C156.207 113.359 156.46 112.73 156.968 112.225C157.475 111.719 158.104 111.466 158.854 111.466H197.146C197.896 111.466 198.525 111.72 199.032 112.229C199.54 112.737 199.794 113.367 199.794 114.118C199.794 114.869 199.54 115.497 199.032 116.003C198.525 116.509 197.896 116.761 197.146 116.761Z" fill="white"/>
</g>
</svg>
