<svg width="356" height="260" viewBox="0 0 356 260" fill="none" xmlns="http://www.w3.org/2000/svg">
<mask id="mask0_2001_7708" style="mask-type:alpha" maskUnits="userSpaceOnUse" x="114" y="66" width="128" height="128">
<rect x="114.455" y="66.7083" width="127.091" height="127.091" fill="#EFEAF6"/>
</mask>
<g mask="url(#mask0_2001_7708)">
<path d="M157.43 156.731C154.992 156.731 152.957 155.915 151.324 154.282C149.692 152.649 148.875 150.614 148.875 148.176V142.881C148.875 142.128 149.128 141.499 149.634 140.993C150.139 140.486 150.769 140.233 151.523 140.233C152.277 140.233 152.906 140.486 153.412 140.993C153.918 141.499 154.171 142.128 154.171 142.881V148.176C154.171 148.992 154.51 149.739 155.189 150.418C155.867 151.096 156.614 151.436 157.43 151.436H214.457C215.272 151.436 216.019 151.096 216.698 150.418C217.377 149.739 217.716 148.992 217.716 148.176V98.4811H154.171V107.036C154.171 107.789 153.918 108.418 153.412 108.924C152.906 109.43 152.277 109.684 151.523 109.684C150.769 109.684 150.139 109.43 149.634 108.924C149.128 108.418 148.875 107.789 148.875 107.036V91.1495C148.875 88.7119 149.692 86.6766 151.324 85.0439C152.957 83.4111 154.992 82.5947 157.43 82.5947H214.457C216.894 82.5947 218.93 83.4111 220.562 85.0439C222.195 86.6766 223.012 88.7119 223.012 91.1495V148.176C223.012 150.614 222.195 152.649 220.562 154.282C218.93 155.915 216.894 156.731 214.457 156.731H157.43ZM141.544 172.617C139.106 172.617 137.071 171.801 135.438 170.168C133.805 168.536 132.989 166.501 132.989 164.064V104.388C132.989 103.634 133.242 103.005 133.747 102.499C134.253 101.993 134.883 101.74 135.636 101.74C136.39 101.74 137.02 101.993 137.526 102.499C138.031 103.005 138.284 103.634 138.284 104.388V164.064C138.284 164.879 138.624 165.625 139.302 166.304C139.981 166.983 140.728 167.322 141.544 167.322H201.218C201.972 167.322 202.602 167.575 203.107 168.081C203.613 168.586 203.866 169.216 203.866 169.97C203.866 170.723 203.613 171.353 203.107 171.859C202.602 172.365 201.972 172.617 201.218 172.617H141.544ZM189.518 127.606H151.523C150.769 127.606 150.139 127.353 149.634 126.848C149.128 126.342 148.875 125.712 148.875 124.958C148.875 124.205 149.128 123.575 149.634 123.069C150.139 122.564 150.769 122.311 151.523 122.311H189.518L178.336 110.925C177.84 110.429 177.61 109.827 177.644 109.118C177.678 108.409 177.952 107.796 178.469 107.279C178.964 106.784 179.572 106.537 180.292 106.537C181.011 106.537 181.619 106.784 182.115 107.279L196.697 121.964C197.552 122.82 197.98 123.818 197.98 124.958C197.98 126.099 197.552 127.097 196.697 127.953L182.013 142.637C181.517 143.132 180.914 143.368 180.204 143.344C179.496 143.321 178.883 143.052 178.367 142.535C177.871 142.039 177.623 141.448 177.623 140.763C177.623 140.078 177.871 139.487 178.367 138.991L189.518 127.606Z" fill="white"/>
</g>
</svg>
