<svg width="356" height="260" viewBox="0 0 356 260" fill="none" xmlns="http://www.w3.org/2000/svg">
<mask id="mask0_2001_7703" style="mask-type:alpha" maskUnits="userSpaceOnUse" x="114" y="66" width="128" height="128">
<rect x="114" y="66" width="127.091" height="127.091" fill="#D9D9D9"/>
</mask>
<g mask="url(#mask0_2001_7703)">
<path d="M174.898 127.325L165.549 136.644C165.07 137.139 164.472 137.387 163.755 137.387C163.036 137.387 162.419 137.129 161.904 136.612C161.34 136.117 161.075 135.493 161.11 134.739C161.143 133.985 161.408 133.361 161.904 132.866L174.551 120.218C175.407 119.362 176.405 118.935 177.545 118.935C178.686 118.935 179.684 119.362 180.54 120.218L193.187 132.866C193.683 133.361 193.953 133.976 193.997 134.713C194.041 135.449 193.771 136.084 193.187 136.62C192.692 137.111 192.073 137.344 191.329 137.321C190.585 137.297 189.956 137.037 189.44 136.542L180.193 127.325V158.059C180.193 158.874 180.532 159.621 181.211 160.3C181.89 160.979 182.637 161.318 183.452 161.318H211.966C215.673 161.318 218.806 160.038 221.365 157.479C223.925 154.92 225.205 151.786 225.205 148.08C225.205 144.373 223.925 141.24 221.365 138.68C218.806 136.121 215.673 134.841 211.966 134.841H204.023V124.25C204.023 116.925 201.441 110.68 196.278 105.517C191.115 100.354 184.871 97.7728 177.545 97.7728C170.22 97.7728 163.976 100.354 158.813 105.517C153.65 110.68 151.068 116.925 151.068 124.25H148.216C143.301 124.25 139.017 126.059 135.364 129.678C131.712 133.296 129.886 137.665 129.886 142.784C129.886 147.903 131.696 152.272 135.314 155.89C138.933 159.509 143.301 161.318 148.42 161.318H159.011C159.761 161.318 160.39 161.572 160.898 162.081C161.405 162.589 161.659 163.219 161.659 163.97C161.659 164.721 161.405 165.349 160.898 165.855C160.39 166.361 159.761 166.614 159.011 166.614H148.42C141.814 166.614 136.191 164.316 131.552 159.722C126.911 155.128 124.591 149.512 124.591 142.875C124.591 136.603 126.75 131.165 131.067 126.562C135.386 121.959 140.457 119.484 146.282 119.137C147.47 111.425 151.017 105.054 156.924 100.023C162.83 94.9926 169.704 92.4773 177.545 92.4773C186.397 92.4773 193.905 95.5601 200.07 101.726C206.235 107.891 209.318 115.399 209.318 124.25V129.545H212.577C217.649 129.709 221.904 131.571 225.342 135.131C228.781 138.692 230.5 143.008 230.5 148.08C230.5 153.274 228.743 157.661 225.23 161.241C221.716 164.823 217.363 166.614 212.17 166.614H183.452C181.015 166.614 178.98 165.797 177.347 164.165C175.714 162.532 174.898 160.497 174.898 158.059V127.325Z" fill="white"/>
</g>
</svg>
