<svg width="200" height="164" viewBox="0 0 200 164" fill="none" xmlns="http://www.w3.org/2000/svg">
<path opacity="0.6" d="M91.4057 149L88.4937 138.92H89.5647L91.9237 147.243L94.2687 138.927L95.3467 138.92L97.7057 147.243L100.051 138.92H101.129L98.2237 149H97.1877L94.8077 140.733L92.4417 149H91.4057ZM102.207 140.005V138.85H103.236V140.005H102.207ZM102.207 149V141.44H103.236V149H102.207ZM104.494 149L107.448 145.178L104.557 141.44H105.789L108.05 144.387L110.29 141.44H111.522L108.631 145.178L111.592 149H110.353L108.05 145.969L105.733 149H104.494Z" fill="#0E041B"/>
<path d="M51.8545 45.9453C51.8545 45.9453 55.6714 45.4599 58.216 47.7325C59.7866 49.1346 60.2444 51.369 60.2444 51.369L65.441 71.767L69.763 55.0724C70.1829 53.2979 70.9422 51.1032 72.1419 49.62C73.673 47.7309 76.7812 47.6115 77.1127 47.6115C77.4442 47.6115 80.5507 47.7309 82.0803 49.62C83.28 51.1032 84.0393 53.2963 84.4608 55.0724L88.7828 71.767L93.9778 51.369C93.9778 51.369 94.4371 49.1346 96.0078 47.7325C98.5524 45.4599 102.368 45.9453 102.368 45.9453L92.4166 84.0659C92.4166 84.0659 89.1348 84.3062 87.4915 83.458C85.3337 82.3439 84.3092 81.4845 83.0022 76.2963C82.3416 73.6427 81.6891 70.987 81.0448 68.3294L80.8001 67.3283C80.1103 64.4923 79.4221 61.6675 78.9375 59.702L78.7007 58.7471C78.4828 57.8813 78.3329 57.2989 78.2792 57.1238C78.1324 56.6448 77.9572 55.5037 77.1111 55.5037C76.2839 55.5037 76.0929 56.6464 75.943 57.1238C75.8877 57.2989 75.7378 57.8798 75.5215 58.7471L75.2847 59.702C74.7807 61.7444 74.2808 63.7879 73.7851 65.8324L73.542 66.8286C72.7776 69.9873 72.0041 73.1437 71.2216 76.2979C69.9145 81.4845 68.8885 82.3455 66.7306 83.458C65.0874 84.3062 61.8056 84.0659 61.8056 84.0659L51.8545 45.9453ZM111.836 52.2682V53.6448H111.839V76.656C111.822 81.3779 111.368 82.4267 109.398 83.5137C107.867 84.3587 105.525 84.0389 105.525 84.0389V58.2617C105.525 56.9678 105.923 56.1196 107.389 55.3589C108.265 54.9037 109.081 54.5552 109.93 54.0395C111.091 53.3393 111.679 52.5069 111.809 52.3096L111.836 52.2682ZM114.996 46.0726C114.996 46.0726 120.137 45.1543 122.683 47.5845C124.115 48.9516 125.698 51.2815 126.057 51.8194L126.125 51.9213L126.133 51.934L130.616 58.7073C130.832 59.059 131.116 59.4426 131.571 59.4426C132.024 59.4426 132.309 59.0606 132.527 58.7073L137.009 51.934L137.017 51.9213L137.084 51.8194C137.443 51.2815 139.026 48.9516 140.459 47.5829C143.004 45.1543 148.145 46.071 148.145 46.071L135.964 65.0669L148.112 84.0007C148.112 84.0007 142.852 84.7105 140.306 82.2803C138.677 80.727 137.009 78.1981 137.009 78.1981L132.526 71.4264C132.309 71.0731 132.024 70.6895 131.571 70.6895C131.116 70.6895 130.832 71.0715 130.614 71.4264L126.133 78.1981C126.133 78.1981 124.556 80.727 122.928 82.2803C120.382 84.7105 115.028 84.0007 115.028 84.0007L127.176 65.0669L114.996 46.0726ZM111.823 45.9023H111.839C111.839 48.4327 111.602 49.9367 110.087 51.1048C109.383 51.6499 108.607 52.093 107.782 52.421C106.945 52.7502 106.179 53.2386 105.525 53.8597C105.525 49.2508 106.192 47.5813 107.987 46.593C109.103 45.9787 110.936 45.9087 111.594 45.9023H111.823Z" fill="#0D041B" fill-opacity="0.75"/>
</svg>
