<svg width="200" height="164" viewBox="0 0 200 164" fill="none" xmlns="http://www.w3.org/2000/svg">
<path opacity="0.6" d="M68.2182 149L65.3062 138.92H66.3772L68.7362 147.243L71.0812 138.927L72.1592 138.92L74.5182 147.243L76.8632 138.92H77.9412L75.0362 149H74.0002L71.6202 140.733L69.2542 149H68.2182ZM81.4759 149.21C80.7245 149.21 80.0829 149.04 79.5509 148.699C79.0189 148.358 78.6105 147.887 78.3259 147.285C78.0412 146.683 77.8989 145.992 77.8989 145.213C77.8989 144.42 78.0435 143.724 78.3329 143.127C78.6222 142.53 79.0329 142.065 79.5649 141.734C80.1015 141.398 80.7385 141.23 81.4759 141.23C82.2319 141.23 82.8759 141.4 83.4079 141.741C83.9445 142.077 84.3529 142.546 84.6329 143.148C84.9175 143.745 85.0599 144.434 85.0599 145.213C85.0599 146.006 84.9175 146.704 84.6329 147.306C84.3482 147.903 83.9375 148.37 83.4009 148.706C82.8642 149.042 82.2225 149.21 81.4759 149.21ZM81.4759 148.223C82.3159 148.223 82.9412 147.945 83.3519 147.39C83.7625 146.83 83.9679 146.104 83.9679 145.213C83.9679 144.298 83.7602 143.57 83.3449 143.029C82.9342 142.488 82.3112 142.217 81.4759 142.217C80.9112 142.217 80.4445 142.345 80.0759 142.602C79.7119 142.854 79.4389 143.206 79.2569 143.659C79.0795 144.107 78.9909 144.625 78.9909 145.213C78.9909 146.123 79.2009 146.853 79.6209 147.404C80.0409 147.95 80.6592 148.223 81.4759 148.223ZM86.604 149V141.44H87.528V143.26L87.346 143.022C87.43 142.798 87.5397 142.593 87.675 142.406C87.8104 142.215 87.9574 142.058 88.116 141.937C88.312 141.764 88.5407 141.634 88.802 141.545C89.0634 141.452 89.327 141.398 89.593 141.384C89.859 141.365 90.1017 141.384 90.321 141.44V142.406C90.0457 142.336 89.7447 142.32 89.418 142.357C89.0914 142.394 88.7904 142.525 88.515 142.749C88.263 142.945 88.074 143.181 87.948 143.456C87.822 143.727 87.738 144.016 87.696 144.324C87.654 144.627 87.633 144.928 87.633 145.227V149H86.604ZM94.4452 149.21C93.7406 149.21 93.1386 149.035 92.6392 148.685C92.1399 148.33 91.7572 147.852 91.4912 147.25C91.2252 146.648 91.0922 145.969 91.0922 145.213C91.0922 144.462 91.2229 143.785 91.4842 143.183C91.7502 142.581 92.1306 142.105 92.6252 141.755C93.1199 141.405 93.7126 141.23 94.4032 141.23C95.1126 141.23 95.7099 141.403 96.1952 141.748C96.6806 142.093 97.0469 142.567 97.2942 143.169C97.5462 143.766 97.6722 144.448 97.6722 145.213C97.6722 145.964 97.5486 146.643 97.3012 147.25C97.0539 147.852 96.6899 148.33 96.2092 148.685C95.7286 149.035 95.1406 149.21 94.4452 149.21ZM94.5502 148.251C95.0869 148.251 95.5302 148.12 95.8802 147.859C96.2302 147.598 96.4916 147.238 96.6642 146.781C96.8369 146.319 96.9232 145.796 96.9232 145.213C96.9232 144.62 96.8369 144.098 96.6642 143.645C96.4916 143.188 96.2302 142.831 95.8802 142.574C95.5349 142.317 95.0986 142.189 94.5712 142.189C94.0299 142.189 93.5819 142.322 93.2272 142.588C92.8726 142.854 92.6089 143.216 92.4362 143.673C92.2682 144.13 92.1842 144.644 92.1842 145.213C92.1842 145.787 92.2706 146.305 92.4432 146.767C92.6206 147.224 92.8842 147.586 93.2342 147.852C93.5842 148.118 94.0229 148.251 94.5502 148.251ZM96.9232 149V143.309H96.8112V138.92H97.8472V149H96.9232ZM103.206 149.21C102.511 149.21 101.923 149.035 101.442 148.685C100.961 148.33 100.597 147.852 100.35 147.25C100.103 146.643 99.9791 145.964 99.9791 145.213C99.9791 144.448 100.103 143.766 100.35 143.169C100.602 142.567 100.971 142.093 101.456 141.748C101.941 141.403 102.539 141.23 103.248 141.23C103.939 141.23 104.531 141.405 105.026 141.755C105.521 142.105 105.899 142.581 106.16 143.183C106.426 143.785 106.559 144.462 106.559 145.213C106.559 145.969 106.426 146.648 106.16 147.25C105.894 147.852 105.511 148.33 105.012 148.685C104.513 149.035 103.911 149.21 103.206 149.21ZM99.8041 152.36V141.44H100.728V147.131H100.84V152.36H99.8041ZM103.101 148.251C103.628 148.251 104.067 148.118 104.417 147.852C104.767 147.586 105.028 147.224 105.201 146.767C105.378 146.305 105.467 145.787 105.467 145.213C105.467 144.644 105.381 144.13 105.208 143.673C105.035 143.216 104.772 142.854 104.417 142.588C104.067 142.322 103.621 142.189 103.08 142.189C102.553 142.189 102.114 142.317 101.764 142.574C101.419 142.831 101.16 143.188 100.987 143.645C100.814 144.098 100.728 144.62 100.728 145.213C100.728 145.796 100.814 146.319 100.987 146.781C101.16 147.238 101.421 147.598 101.771 147.859C102.121 148.12 102.564 148.251 103.101 148.251ZM108.096 149V141.44H109.02V143.26L108.838 143.022C108.922 142.798 109.032 142.593 109.167 142.406C109.303 142.215 109.45 142.058 109.608 141.937C109.804 141.764 110.033 141.634 110.294 141.545C110.556 141.452 110.819 141.398 111.085 141.384C111.351 141.365 111.594 141.384 111.813 141.44V142.406C111.538 142.336 111.237 142.32 110.91 142.357C110.584 142.394 110.283 142.525 110.007 142.749C109.755 142.945 109.566 143.181 109.44 143.456C109.314 143.727 109.23 144.016 109.188 144.324C109.146 144.627 109.125 144.928 109.125 145.227V149H108.096ZM116.203 149.21C115.466 149.21 114.827 149.047 114.285 148.72C113.749 148.393 113.331 147.934 113.032 147.341C112.734 146.748 112.584 146.053 112.584 145.255C112.584 144.429 112.731 143.715 113.025 143.113C113.319 142.511 113.732 142.047 114.264 141.72C114.801 141.393 115.433 141.23 116.161 141.23C116.908 141.23 117.545 141.403 118.072 141.748C118.6 142.089 118.999 142.579 119.269 143.218C119.54 143.857 119.664 144.62 119.64 145.507H118.59V145.143C118.572 144.163 118.359 143.423 117.953 142.924C117.552 142.425 116.964 142.175 116.189 142.175C115.377 142.175 114.754 142.439 114.32 142.966C113.891 143.493 113.676 144.245 113.676 145.22C113.676 146.172 113.891 146.912 114.32 147.439C114.754 147.962 115.368 148.223 116.161 148.223C116.703 148.223 117.174 148.099 117.575 147.852C117.981 147.6 118.301 147.238 118.534 146.767L119.493 147.138C119.195 147.796 118.754 148.307 118.17 148.671C117.592 149.03 116.936 149.21 116.203 149.21ZM113.312 145.507V144.646H119.087V145.507H113.312ZM124.015 149.203C123.128 149.203 122.398 149.012 121.824 148.629C121.255 148.246 120.905 147.714 120.774 147.033L121.824 146.858C121.936 147.287 122.19 147.63 122.587 147.887C122.988 148.139 123.483 148.265 124.071 148.265C124.645 148.265 125.098 148.146 125.429 147.908C125.76 147.665 125.926 147.336 125.926 146.921C125.926 146.688 125.872 146.499 125.765 146.354C125.662 146.205 125.45 146.067 125.128 145.941C124.806 145.815 124.325 145.666 123.686 145.493C123 145.306 122.463 145.12 122.076 144.933C121.689 144.746 121.413 144.532 121.25 144.289C121.087 144.042 121.005 143.741 121.005 143.386C121.005 142.957 121.126 142.581 121.369 142.259C121.612 141.932 121.948 141.68 122.377 141.503C122.806 141.321 123.306 141.23 123.875 141.23C124.444 141.23 124.953 141.323 125.401 141.51C125.854 141.692 126.218 141.949 126.493 142.28C126.768 142.611 126.932 142.996 126.983 143.435L125.933 143.624C125.863 143.181 125.641 142.831 125.268 142.574C124.899 142.313 124.43 142.177 123.861 142.168C123.324 142.154 122.888 142.257 122.552 142.476C122.216 142.691 122.048 142.978 122.048 143.337C122.048 143.538 122.109 143.71 122.23 143.855C122.351 143.995 122.571 144.128 122.888 144.254C123.21 144.38 123.667 144.518 124.26 144.667C124.955 144.844 125.501 145.031 125.898 145.227C126.295 145.423 126.577 145.654 126.745 145.92C126.913 146.186 126.997 146.515 126.997 146.907C126.997 147.621 126.731 148.183 126.199 148.594C125.672 149 124.944 149.203 124.015 149.203ZM131.37 149.203C130.484 149.203 129.753 149.012 129.179 148.629C128.61 148.246 128.26 147.714 128.129 147.033L129.179 146.858C129.291 147.287 129.546 147.63 129.942 147.887C130.344 148.139 130.838 148.265 131.426 148.265C132 148.265 132.453 148.146 132.784 147.908C133.116 147.665 133.281 147.336 133.281 146.921C133.281 146.688 133.228 146.499 133.12 146.354C133.018 146.205 132.805 146.067 132.483 145.941C132.161 145.815 131.681 145.666 131.041 145.493C130.355 145.306 129.819 145.12 129.431 144.933C129.044 144.746 128.769 144.532 128.605 144.289C128.442 144.042 128.36 143.741 128.36 143.386C128.36 142.957 128.482 142.581 128.724 142.259C128.967 141.932 129.303 141.68 129.732 141.503C130.162 141.321 130.661 141.23 131.23 141.23C131.8 141.23 132.308 141.323 132.756 141.51C133.209 141.692 133.573 141.949 133.848 142.28C134.124 142.611 134.287 142.996 134.338 143.435L133.288 143.624C133.218 143.181 132.997 142.831 132.623 142.574C132.255 142.313 131.786 142.177 131.216 142.168C130.68 142.154 130.243 142.257 129.907 142.476C129.571 142.691 129.403 142.978 129.403 143.337C129.403 143.538 129.464 143.71 129.585 143.855C129.707 143.995 129.926 144.128 130.243 144.254C130.565 144.38 131.023 144.518 131.615 144.667C132.311 144.844 132.857 145.031 133.253 145.227C133.65 145.423 133.932 145.654 134.1 145.92C134.268 146.186 134.352 146.515 134.352 146.907C134.352 147.621 134.086 148.183 133.554 148.594C133.027 149 132.299 149.203 131.37 149.203Z" fill="#0E041B"/>
<path fill-rule="evenodd" clip-rule="evenodd" d="M127.441 49.9956C127.575 50.9932 127.65 52.059 127.65 53.2097C127.65 58.7071 127.141 59.0169 115.72 92.0291C125.017 86.6068 131.272 76.5345 131.272 64.9988C131.272 59.5608 129.883 54.4486 127.441 49.9956ZM100.55 67.7349L91.1659 94.9958C97.4983 96.8596 104.209 96.6698 110.385 94.4996C110.301 94.3651 110.226 94.2207 110.163 94.0675L100.55 67.7349ZM121.112 63.42C121.112 59.5549 119.723 56.8772 118.532 54.7946C116.949 52.2179 115.461 50.0392 115.461 47.4626C115.461 44.5888 117.643 41.9123 120.714 41.9123C120.852 41.9123 120.983 41.9305 121.118 41.9368C115.555 36.8397 108.143 33.7283 100 33.7283C89.0769 33.7283 79.4641 39.3314 73.8727 47.8214C75.8647 47.8839 78.5384 47.9096 84.2204 47.4656C85.906 47.3655 86.103 49.8414 84.4206 50.0384C84.4206 50.0384 82.7257 50.2391 80.84 50.3392L92.2291 84.2115L99.0713 63.6857L94.1992 50.3361C92.5168 50.2392 90.9219 50.0384 90.9219 50.0384C89.2364 49.9383 89.4334 47.3625 91.119 47.4626C97.5828 47.9598 100.891 47.9973 107.69 47.4626C109.375 47.3625 109.575 49.8383 107.89 50.0384C107.89 50.0384 106.192 50.2392 104.309 50.3361L115.611 83.9519C120.073 69.0422 121.112 66.547 121.112 63.42ZM68.7285 64.9988C68.7285 77.3756 75.921 88.0733 86.3532 93.1422L71.4366 52.2722C69.7011 56.1623 68.7285 60.4645 68.7285 64.9988Z" fill="#0D041B" fill-opacity="0.75"/>
</svg>
