<svg width="20" height="20" viewBox="0 0 20 20" fill="none" xmlns="http://www.w3.org/2000/svg">
<g clip-path="url(#clip0_3883_61074)">
<path fill-rule="evenodd" clip-rule="evenodd" d="M18.775 5.20197C18.818 5.52096 18.842 5.86178 18.842 6.22977C18.842 7.98771 18.679 8.08677 15.027 18.6434C18 16.9095 20 13.6885 20 9.99966C20 8.26072 19.556 6.62593 18.775 5.20197ZM10.176 10.8746L7.175 19.5921C9.2 20.1881 11.346 20.1274 13.321 19.4334C13.294 19.3904 13.27 19.3442 13.25 19.2952L10.176 10.8746ZM16.751 9.4948C16.751 8.25884 16.307 7.40257 15.926 6.73659C15.42 5.91262 14.944 5.21591 14.944 4.39194C14.944 3.47297 15.642 2.6171 16.624 2.6171C16.668 2.6171 16.71 2.62291 16.753 2.62491C14.974 0.994967 12.604 0 10 0C6.507 0 3.433 1.79178 1.645 4.50668C2.282 4.52668 3.13699 4.53491 4.95399 4.39292C5.49299 4.36092 5.55601 5.15265 5.01801 5.21564C5.01801 5.21564 4.476 5.27983 3.873 5.31183L7.515 16.1435L9.703 9.57976L8.145 5.31086C7.607 5.27986 7.097 5.21564 7.097 5.21564C6.558 5.18365 6.621 4.35994 7.16 4.39194C9.227 4.55094 10.285 4.56294 12.459 4.39194C12.998 4.35994 13.062 5.15165 12.523 5.21564C12.523 5.21564 11.98 5.27986 11.378 5.31086L14.992 16.0605C16.419 11.2927 16.751 10.4948 16.751 9.4948ZM0 9.99966C0 13.9575 2.3 17.3784 5.636 18.9994L0.865997 5.92998C0.310997 7.17393 0 8.54971 0 9.99966Z" fill="url(#paint0_linear_3883_61074)"/>
</g>
<defs>
<linearGradient id="paint0_linear_3883_61074" x1="1.39463" y1="1.39463" x2="19.1515" y2="19.1515" gradientUnits="userSpaceOnUse">
<stop stop-color="white"/>
<stop offset="1" stop-color="white" stop-opacity="0.6"/>
</linearGradient>
<clipPath id="clip0_3883_61074">
<rect width="20" height="20" fill="white"/>
</clipPath>
</defs>
</svg>
