<svg width="22" height="22" viewBox="0 0 22 22" fill="none" xmlns="http://www.w3.org/2000/svg">
<g style="mix-blend-mode:overlay">
<path d="M15.7448 3.88916H18.2748L12.7473 10.1018L19.25 18.5558H14.1585L10.1705 13.4285L5.60746 18.5558H3.07582L8.98807 11.9107L2.75 3.88916H7.97083L11.5756 8.57573L15.7448 3.88916ZM14.8567 17.0666H16.2587L7.20904 5.30017H5.7046L14.8567 17.0666Z" fill="white"/>
</g>
<g style="mix-blend-mode:overlay">
<path d="M15.7448 3.88916H18.2748L12.7473 10.1018L19.25 18.5558H14.1585L10.1705 13.4285L5.60746 18.5558H3.07582L8.98807 11.9107L2.75 3.88916H7.97083L11.5756 8.57573L15.7448 3.88916ZM14.8567 17.0666H16.2587L7.20904 5.30017H5.7046L14.8567 17.0666Z" fill="white"/>
</g>
</svg>
