<svg width="200" height="164" viewBox="0 0 200 164" fill="none" xmlns="http://www.w3.org/2000/svg">
<path opacity="0.6" d="M80.117 149V148.783L85.626 139.907H80.257V138.92H87.313V139.158L81.832 148.02H87.264V149H80.117ZM91.1596 149.21C90.5903 149.21 90.1119 149.107 89.7246 148.902C89.3419 148.697 89.0549 148.424 88.8636 148.083C88.6723 147.742 88.5766 147.371 88.5766 146.97C88.5766 146.559 88.6583 146.209 88.8216 145.92C88.9896 145.626 89.2159 145.386 89.5006 145.199C89.7899 145.012 90.1236 144.87 90.5016 144.772C90.8843 144.679 91.3066 144.597 91.7686 144.527C92.2353 144.452 92.6903 144.389 93.1336 144.338C93.5816 144.282 93.9736 144.228 94.3096 144.177L93.9456 144.401C93.9596 143.654 93.8149 143.101 93.5116 142.742C93.2083 142.383 92.6809 142.203 91.9296 142.203C91.4116 142.203 90.9729 142.32 90.6136 142.553C90.2589 142.786 90.0093 143.155 89.8646 143.659L88.8636 143.365C89.0363 142.688 89.3839 142.163 89.9066 141.79C90.4293 141.417 91.1083 141.23 91.9436 141.23C92.6343 141.23 93.2199 141.361 93.7006 141.622C94.1859 141.879 94.5289 142.252 94.7296 142.742C94.8229 142.961 94.8836 143.206 94.9116 143.477C94.9396 143.748 94.9536 144.023 94.9536 144.303V149H94.0366V147.103L94.3026 147.215C94.0459 147.864 93.6469 148.358 93.1056 148.699C92.5643 149.04 91.9156 149.21 91.1596 149.21ZM91.2786 148.321C91.7593 148.321 92.1793 148.235 92.5386 148.062C92.8979 147.889 93.1873 147.654 93.4066 147.355C93.6259 147.052 93.7683 146.711 93.8336 146.333C93.8896 146.09 93.9199 145.824 93.9246 145.535C93.9293 145.241 93.9316 145.022 93.9316 144.877L94.3236 145.08C93.9736 145.127 93.5933 145.173 93.1826 145.22C92.7766 145.267 92.3753 145.32 91.9786 145.381C91.5866 145.442 91.2319 145.514 90.9146 145.598C90.6999 145.659 90.4923 145.745 90.2916 145.857C90.0909 145.964 89.9253 146.109 89.7946 146.291C89.6686 146.473 89.6056 146.699 89.6056 146.97C89.6056 147.189 89.6593 147.402 89.7666 147.607C89.8786 147.812 90.0559 147.983 90.2986 148.118C90.5459 148.253 90.8726 148.321 91.2786 148.321ZM100.171 149.21C99.4756 149.21 98.8876 149.035 98.4069 148.685C97.9262 148.33 97.5622 147.852 97.3149 147.25C97.0676 146.643 96.9439 145.964 96.9439 145.213C96.9439 144.448 97.0676 143.766 97.3149 143.169C97.5669 142.567 97.9356 142.093 98.4209 141.748C98.9062 141.403 99.5036 141.23 100.213 141.23C100.904 141.23 101.496 141.405 101.991 141.755C102.486 142.105 102.864 142.581 103.125 143.183C103.391 143.785 103.524 144.462 103.524 145.213C103.524 145.969 103.391 146.648 103.125 147.25C102.859 147.852 102.476 148.33 101.977 148.685C101.478 149.035 100.876 149.21 100.171 149.21ZM96.7689 152.36V141.44H97.6929V147.131H97.8049V152.36H96.7689ZM100.066 148.251C100.593 148.251 101.032 148.118 101.382 147.852C101.732 147.586 101.993 147.224 102.166 146.767C102.343 146.305 102.432 145.787 102.432 145.213C102.432 144.644 102.346 144.13 102.173 143.673C102 143.216 101.737 142.854 101.382 142.588C101.032 142.322 100.586 142.189 100.045 142.189C99.5176 142.189 99.0789 142.317 98.7289 142.574C98.3836 142.831 98.1246 143.188 97.9519 143.645C97.7792 144.098 97.6929 144.62 97.6929 145.213C97.6929 145.796 97.7792 146.319 97.9519 146.781C98.1246 147.238 98.3859 147.598 98.7359 147.859C99.0859 148.12 99.5292 148.251 100.066 148.251ZM105.201 140.005V138.85H106.23V140.005H105.201ZM105.201 149V141.44H106.23V149H105.201ZM111.528 149.21C110.79 149.21 110.151 149.047 109.61 148.72C109.073 148.393 108.655 147.934 108.357 147.341C108.058 146.748 107.909 146.053 107.909 145.255C107.909 144.429 108.056 143.715 108.35 143.113C108.644 142.511 109.057 142.047 109.589 141.72C110.125 141.393 110.758 141.23 111.486 141.23C112.232 141.23 112.869 141.403 113.397 141.748C113.924 142.089 114.323 142.579 114.594 143.218C114.864 143.857 114.988 144.62 114.965 145.507H113.915V145.143C113.896 144.163 113.684 143.423 113.278 142.924C112.876 142.425 112.288 142.175 111.514 142.175C110.702 142.175 110.079 142.439 109.645 142.966C109.215 143.493 109.001 144.245 109.001 145.22C109.001 146.172 109.215 146.912 109.645 147.439C110.079 147.962 110.692 148.223 111.486 148.223C112.027 148.223 112.498 148.099 112.9 147.852C113.306 147.6 113.625 147.238 113.859 146.767L114.818 147.138C114.519 147.796 114.078 148.307 113.495 148.671C112.916 149.03 112.26 149.21 111.528 149.21ZM108.637 145.507V144.646H114.412V145.507H108.637ZM116.518 149V141.44H117.442V143.26L117.26 143.022C117.344 142.798 117.454 142.593 117.589 142.406C117.724 142.215 117.871 142.058 118.03 141.937C118.226 141.764 118.455 141.634 118.716 141.545C118.977 141.452 119.241 141.398 119.507 141.384C119.773 141.365 120.016 141.384 120.235 141.44V142.406C119.96 142.336 119.659 142.32 119.332 142.357C119.005 142.394 118.704 142.525 118.429 142.749C118.177 142.945 117.988 143.181 117.862 143.456C117.736 143.727 117.652 144.016 117.61 144.324C117.568 144.627 117.547 144.928 117.547 145.227V149H116.518Z" fill="#0E041B"/>
<path d="M100.021 31C101.942 31.0035 103.831 31.1662 105.667 31.474V51.3189L119.701 37.2858C121.247 38.3868 122.698 39.615 124.041 40.9579C125.385 42.3009 126.614 43.7539 127.717 45.3018L113.683 59.3347H133.529C133.843 61.199 134 63.0863 134 64.9768V65.0229C134 66.9472 133.837 68.8326 133.529 70.6685H113.68L127.717 84.6979C126.615 86.2448 125.386 87.6977 124.045 89.0419H124.041C122.7 90.3847 121.25 91.613 119.705 92.7139L105.667 78.6808V98.5257C103.803 98.838 101.915 98.9967 100.025 99H99.9753C98.0858 98.9966 96.1998 98.8381 94.3361 98.526V78.6811L80.3028 92.7139C77.2039 90.5084 74.4944 87.7992 72.2863 84.6982L86.3203 70.6685H66.4741C66.1583 68.7998 65.9997 66.9077 66 65.0123V64.9135C66.0032 64.4141 66.0359 63.804 66.0826 63.1729L66.0972 62.983C66.2359 61.2065 66.4741 59.3347 66.4741 59.3347H86.3203L72.2863 45.3018C73.3847 43.7549 74.6118 42.304 75.9546 40.9648L75.9615 40.9579C77.3037 39.6144 78.7559 38.386 80.3028 37.2858L94.3361 51.3189V31.474C96.202 31.1616 98.0904 31.003 99.9822 31L100.021 31ZM100.018 56.5012H99.9854C97.4596 56.5012 95.0405 56.9646 92.8045 57.8066C91.943 60.1011 91.5007 62.5324 91.4989 64.984V65.016C91.5002 67.4679 91.9435 69.8994 92.8077 72.1931C95.1023 73.0582 97.5339 73.5004 99.9854 73.4985H100.018C102.544 73.4985 104.963 73.0352 107.196 72.1931C108.06 69.8995 108.502 67.4676 108.501 65.0157V64.9838C108.501 62.4581 108.037 60.0385 107.196 57.8066C104.901 56.9416 102.469 56.4994 100.018 56.5012Z" fill="#352E3F"/>
</svg>
