<svg width="134" height="32" viewBox="0 0 134 32" fill="none" xmlns="http://www.w3.org/2000/svg">
<path fill-rule="evenodd" clip-rule="evenodd" d="M12.0686 4.0055C12.0686 2.89755 12.9718 2 14.0867 2C15.2015 2 16.1047 2.89755 16.1047 4.0055V11.1586L18.2741 9.00276L21.1935 6.10148C21.9823 5.31845 23.2598 5.31845 24.0477 6.10148C24.8356 6.88539 24.8356 8.15492 24.0477 8.93795L21.1283 11.8392L18.9593 13.9947H26.1569C27.2718 13.9947 28.175 14.8923 28.175 16.0002C28.175 17.1082 27.2718 18.0057 26.1569 18.0057H18.9592L19.2907 18.3352L24.0477 23.0627C24.8356 23.8466 24.8365 25.1161 24.0477 25.8991C23.2589 26.6821 21.9814 26.6821 21.1935 25.8991L16.4365 21.1717L16.1047 20.842V27.9943C16.1047 29.1023 15.2015 29.9998 14.0867 29.9998C12.9718 29.9998 12.0686 29.1023 12.0686 27.9943V20.8447L6.98047 25.9012C6.19165 26.6843 4.91418 26.6843 4.12626 25.9012C3.33833 25.1173 3.33833 23.8478 4.12626 23.0648L9.2156 18.0071H12.0686V18.0057H2.01805C0.903164 18.0057 0 17.1082 0 16.0002C0 14.8923 0.903164 13.9947 2.01805 13.9947H9.21503L4.12659 8.93795C3.33867 8.15403 3.33777 6.8845 4.12659 6.10148C4.91541 5.31845 6.19288 5.31845 6.9808 6.10148L12.0686 11.1576V4.0055ZM122.173 10.5756C123.453 9.53693 125.081 8.97141 126.829 8.97141L126.828 8.97319C130.85 8.97319 134 11.9899 134 15.8402C134 19.6905 130.85 22.7072 126.828 22.7072C125.098 22.7072 123.496 22.1656 122.246 21.1695V21.1855L122.065 21.0204C121.958 20.929 121.854 20.834 121.753 20.7354L121.737 20.7203C120.393 19.4916 119.497 17.5385 119.444 15.7709V15.7505C119.442 15.6644 119.442 15.5792 119.444 15.4948V4.24662C119.444 3.52219 120.057 2.95401 120.809 2.95401C121.561 2.95401 122.173 3.53373 122.173 4.24662V10.5756ZM122.323 16.0373C122.422 18.4449 124.367 20.2693 126.846 20.2693C129.397 20.2693 131.395 18.3242 131.395 15.8393C131.395 13.3544 129.325 11.4084 126.846 11.4084C124.367 11.4084 122.422 13.2328 122.323 15.6529V16.0373ZM93.7705 9.02629C92.058 9.02629 90.8582 9.64241 90.1221 10.2008V4.3015C90.1221 3.58861 89.5102 3.00888 88.7571 3.00888C88.004 3.00888 87.393 3.57707 87.393 4.3015V21.394C87.393 22.1326 87.9924 22.7115 88.7571 22.7115C89.5218 22.7115 90.1221 22.1202 90.1221 21.394V15.0019C90.1221 12.3927 91.8695 11.4632 93.5052 11.4632C95.6081 11.4632 96.9141 12.8189 96.9141 15.0019V21.394C96.9141 22.1326 97.5136 22.7115 98.2792 22.7115C99.0448 22.7115 99.6433 22.1202 99.6433 21.394V15.0517C99.6433 11.5041 97.2286 9.02717 93.7705 9.02717V9.02629ZM77.1646 9.0263C73.5663 9.0263 71.0524 11.5041 71.0524 15.0517V21.394C71.0524 22.1326 71.6519 22.7115 72.4174 22.7115C73.183 22.7115 73.7816 22.1202 73.7816 21.394V15.002C73.7816 12.8526 75.1091 11.4633 77.1646 11.4633C79.2202 11.4633 80.5736 12.8189 80.5736 15.002V21.394C80.5736 22.1326 81.173 22.7115 81.9386 22.7115C82.7042 22.7115 83.3036 22.1202 83.3036 21.394V15.0517C83.3036 11.5041 80.7791 9.0263 77.1655 9.0263H77.1646ZM113.117 10.3696C113.117 9.64528 113.717 9.07718 114.482 9.07696C115.235 9.07719 115.847 9.65682 115.847 10.3696V16.7119C115.847 20.2737 113.308 22.7612 109.709 22.7612C106.109 22.7612 103.596 20.2737 103.596 16.7119V10.3696C103.596 9.64514 104.209 9.07696 104.961 9.07696C105.714 9.07696 106.325 9.65668 106.325 10.3696V16.7865C106.325 18.9367 107.606 20.3252 109.709 20.3252C111.811 20.3252 113.117 18.9686 113.117 16.7865V10.3696ZM51.044 20.2843L42.953 20.2861L51.9105 11.3878C52.1624 11.1526 52.3009 10.8401 52.3009 10.5098C52.3009 9.82445 51.7131 9.26692 50.9904 9.26692L40.4767 9.26869C39.754 9.26869 39.1662 9.82622 39.1662 10.5116C39.1662 11.1969 39.7665 11.7545 40.4767 11.7545H48.1254L39.176 20.6012L39.1653 20.6119C39.0232 20.7664 38.7597 21.054 38.7597 21.5015C38.7597 22.2001 39.36 22.7692 40.097 22.7692H51.0422C51.7649 22.7692 52.3527 22.2117 52.3527 21.5263C52.3527 20.8409 51.7774 20.2834 51.0422 20.2834L51.044 20.2843ZM66.0464 18.4955C65.589 18.4955 65.2978 18.7583 65.0164 19.0131L64.9967 19.0326C64.4196 19.6798 63.403 20.4513 61.8325 20.4513C60.9177 20.4513 60.0592 20.1752 59.3321 19.6514L66.4377 12.5766C66.7101 12.2783 66.8325 11.9934 66.8325 11.6533C66.8325 11.3133 66.6628 10.9467 66.3716 10.6883C65.2129 9.62566 63.5584 9.01575 61.8325 9.01575C57.9536 9.01575 54.9145 12.0466 54.9145 15.9156C54.9145 19.7846 57.9527 22.8154 61.8325 22.8154C63.8631 22.8154 65.7283 21.9871 66.946 20.5472C67.1684 20.295 67.3122 19.963 67.3122 19.702C67.3122 19.014 66.7682 18.4946 66.0464 18.4946V18.4955ZM57.4712 15.9165C57.4712 13.3739 59.3874 11.3817 61.8325 11.3817C62.5838 11.3817 63.3226 11.593 63.8657 11.957L57.9036 17.9113C57.6195 17.2961 57.4712 16.6134 57.4712 15.9165Z" fill="#9593A7"/>
</svg>
