<svg width="127" height="32" viewBox="0 0 127 32" fill="none" xmlns="http://www.w3.org/2000/svg">
<path d="M24.7484 14.2152V8.81702C24.7484 7.83931 23.9646 7.04883 22.9953 7.04883H17.6328L24.7484 14.2256C24.7484 14.2204 24.7484 14.2204 24.7484 14.2152Z" fill="#8C8CA6"/>
<path d="M2.78436 7.04883C1.81499 7.04883 1.03125 7.83931 1.03125 8.81702V14.2152C1.03125 14.2204 1.03125 14.2256 1.03125 14.2256L8.1468 7.04883H2.78436Z" fill="#8C8CA6"/>
<path opacity="0.8" d="M25.2641 14.7518L24.7484 14.2318C24.7433 15.2043 23.9595 15.9896 22.9953 15.9896H17.3184V24.5237C17.3184 25.5014 16.5346 26.2919 15.5653 26.2919H10.2131C9.24376 26.2919 8.46002 25.5014 8.46002 24.5237V15.9844H2.78305C1.81885 15.9844 1.03511 15.1991 1.02995 14.2266L0.51433 14.7466C-0.171443 15.4383 -0.171443 16.5564 0.51433 17.2481L11.6517 28.4813C12.3375 29.173 13.4461 29.173 14.1318 28.4813L25.2692 17.2481C25.9498 16.5616 25.9498 15.4383 25.2641 14.7518Z" fill="#8C8CA6"/>
<path opacity="0.6" d="M17.6342 7.05059L14.128 3.51421C13.4474 2.82773 12.3336 2.82773 11.653 3.51941L8.1468 7.05579L1.03125 14.2326C1.03641 15.2051 1.82015 15.9904 2.78436 15.9904H8.46648V24.5245C8.46648 25.5022 9.25022 26.2927 10.2196 26.2927H15.5717C16.5411 26.2927 17.3248 25.5022 17.3248 24.5245V15.9852H22.9966C23.9608 15.9852 24.7446 15.1999 24.7497 14.2274L17.6342 7.05059Z" fill="#8C8CA6"/>
<path d="M43.1994 13.1423H38.9559V24.1987H36.2385V13.1423H32.0156V10.7812H43.1994V13.1423Z" fill="#8C8CA6"/>
<path d="M45.6986 15.3081C46.3947 14.3356 47.4723 13.6907 48.9263 13.6699C49.1171 13.6699 49.3595 13.7063 49.5657 13.7843V16.655C49.5657 16.655 48.849 16.5042 48.3024 16.5042C46.4153 16.5042 45.6986 17.8564 45.6986 19.2033V24.1907H43.0586V13.8623H45.6986V15.3081Z" fill="#8C8CA6"/>
<path d="M60.4869 13.8652V24.1988H57.8624V23.5123C57.089 24.0427 56.1248 24.3496 55.0729 24.3496C52.072 24.3496 50.6953 22.9402 50.6953 19.5911V13.8652H53.3198V19.5911C53.3198 21.1876 54.0932 21.9677 55.5473 21.9677C56.4909 21.9677 57.2643 21.6609 57.8676 21.1512V13.8652H60.4869Z" fill="#8C8CA6"/>
<path d="M64.8088 19.776C65.0924 21.1282 66.1649 22.0799 67.7324 22.0799C68.81 22.0799 69.8052 21.5858 70.3723 20.8058L72.0533 22.2151C71.1097 23.51 69.4288 24.3473 67.4333 24.3473C64.3396 24.3473 62.1895 21.9707 62.1895 19.022C62.1895 16.0524 64.3396 13.6758 67.4333 13.6758C70.5837 13.6758 72.4142 15.9796 72.4142 19.1936C72.4142 19.4016 72.3936 19.6096 72.3936 19.7812H64.8088V19.776ZM64.8243 18.0859H69.898C69.8051 16.9053 69.1813 15.782 67.4281 15.782C66.0514 15.782 65.0718 16.8117 64.8243 18.0859Z" fill="#8C8CA6"/>
<path d="M84.0972 20.0068L86.1906 21.7958C84.8912 23.356 82.9267 24.3441 80.6992 24.3441C76.8321 24.3441 73.6816 21.281 73.6816 17.4949C73.6816 13.7089 76.8321 10.625 80.6992 10.625C82.9267 10.625 84.886 11.6339 86.1906 13.1941L84.0972 14.9831C83.3443 13.8962 82.0965 13.2149 80.6992 13.2149C78.3789 13.2149 76.4763 14.9259 76.4763 17.4949C76.4763 20.0276 78.3841 21.775 80.6992 21.775C82.0965 21.7802 83.3443 21.0937 84.0972 20.0068Z" fill="#8C8CA6"/>
<path d="M87.5645 9.84766H90.2044V24.1908H87.5645V9.84766Z" fill="#8C8CA6"/>
<path d="M92.2695 11.2008C92.2695 10.3427 92.9502 9.64062 93.7803 9.64062C94.6104 9.64062 95.2704 10.3427 95.2704 11.2008C95.2704 12.0589 94.6104 12.7402 93.7803 12.7402C92.9502 12.7402 92.2695 12.0537 92.2695 11.2008ZM92.4809 13.8635H95.1054V24.197H92.4809V13.8635Z" fill="#8C8CA6"/>
<path d="M106.285 22.2723C105.362 23.5464 103.908 24.3473 102.325 24.3473C99.2318 24.3473 96.7207 21.9707 96.7207 19.022C96.7207 16.0524 99.2318 13.6758 102.325 13.6758C103.965 13.6758 105.399 14.4767 106.327 15.73L104.63 17.311C104.12 16.5517 103.274 16.0576 102.331 16.0576C100.67 16.0576 99.3143 17.389 99.3143 19.0272C99.3143 20.6445 100.67 21.9759 102.331 21.9759C103.274 21.9759 104.125 21.4818 104.63 20.7017L106.285 22.2723Z" fill="#8C8CA6"/>
<path d="M117.876 24.1908H114.973L112.349 19.9679L110.369 21.8922V24.196H107.744V9.84766H110.369V18.2934L114.746 13.8625H117.819L114.086 17.8981L117.876 24.1908Z" fill="#8C8CA6"/>
<path d="M119.434 21.3934C120.697 21.9447 121.662 22.2307 122.94 22.2307C124.147 22.2307 124.621 21.7731 124.621 21.2426C124.621 20.6549 124.039 20.3845 122.45 20.0465C120.244 19.5524 118.64 18.8295 118.64 16.8325C118.64 14.9655 120.166 13.6758 122.543 13.6758C124.147 13.6758 125.431 14.0554 126.544 14.5131L125.678 16.4529C124.678 16.0732 123.507 15.7872 122.492 15.7872C121.491 15.7872 120.981 16.1512 120.981 16.7025C120.981 17.2746 121.605 17.5398 123.244 17.883C125.621 18.3771 126.998 19.2144 126.998 21.097C126.998 23.0576 125.508 24.3525 122.884 24.3525C121.11 24.3525 119.96 24.1029 118.449 23.3644L119.434 21.3934Z" fill="#8C8CA6"/>
</svg>
