<svg width="128" height="28" viewBox="0 0 128 28" fill="none" xmlns="http://www.w3.org/2000/svg">
<path d="M42.9058 8.83984C42.9058 9.05497 42.6548 9.16766 42.4936 9.02424C42.2447 8.80297 41.9713 8.60832 41.6693 8.44032C40.9592 8.04898 40.1491 7.85024 39.2329 7.85024C38.1494 7.85024 37.1699 8.13094 36.2966 8.69028C35.4212 9.25166 34.7295 10.0036 34.2214 10.9481C33.7133 11.8947 33.4582 12.9621 33.4582 14.1484C33.4582 15.3347 33.7112 16.3776 34.2214 17.3242C34.7295 18.2707 35.4212 19.0186 36.2966 19.5697C37.1699 20.1209 38.1494 20.3995 39.2329 20.3995C40.1491 20.3995 40.9653 20.2028 41.6815 19.8094C41.9713 19.6517 42.2324 19.4693 42.4712 19.2624C42.6426 19.1128 42.9058 19.2317 42.9058 19.4591C42.9058 19.8402 43.2139 20.1495 43.5935 20.1495H44.9708C45.3504 20.1495 45.6585 19.8402 45.6585 19.4591V8.83575C45.6585 8.42802 45.3279 8.09816 44.9239 8.09816H43.6445C43.2384 8.09816 42.9099 8.43007 42.9099 8.83575L42.9058 8.83984ZM42.1427 16.7607C41.5162 17.4471 40.6959 17.7913 39.6798 17.7913C39.0125 17.7913 38.4269 17.6376 37.9167 17.3262C37.4066 17.0168 37.0067 16.5866 36.7169 16.0334C36.4251 15.4822 36.2802 14.8451 36.2802 14.1259C36.2802 13.4068 36.4272 12.7716 36.7169 12.2184C37.0067 11.6673 37.4066 11.235 37.9167 10.9256C38.4248 10.6162 39.0125 10.4605 39.6798 10.4605C40.347 10.4605 40.9592 10.6142 41.4672 10.9256C41.9774 11.237 42.3712 11.6652 42.6548 12.2184C42.9385 12.7696 43.0793 13.4068 43.0793 14.1259C43.0793 15.1975 42.7671 16.0764 42.1427 16.7607ZM59.3504 15.0397L57.0201 8.58988C56.914 8.29894 56.6385 8.1043 56.3304 8.1043H55.759C55.4489 8.1043 55.1734 8.29894 55.0693 8.58988L52.7391 15.0397C52.6554 15.2712 52.331 15.2712 52.2473 15.0397L49.8517 8.58169C49.7436 8.2928 49.4702 8.10225 49.162 8.10225H47.9112C47.3909 8.10225 47.0358 8.63086 47.2297 9.11439L51.4617 19.6845C51.5719 19.9631 51.8433 20.1475 52.1432 20.1475H52.7452C53.0472 20.1475 53.3186 19.9611 53.4308 19.6783L55.8019 13.5952C55.8896 13.3719 56.2039 13.3719 56.2896 13.5952L58.6607 19.6783C58.7709 19.9611 59.0422 20.1475 59.3463 20.1475H59.9482C60.2482 20.1475 60.5175 19.9652 60.6298 19.6845L64.8618 9.11439C65.0556 8.62881 64.7006 8.10225 64.1803 8.10225H62.9294C62.6213 8.10225 62.3479 8.2928 62.2397 8.58169L59.8442 15.0397C59.7585 15.2712 59.434 15.2692 59.3524 15.0397H59.3504ZM75.0154 8.80706C75.0154 9.03653 74.7481 9.15332 74.5787 9.0017C74.3359 8.79067 74.0707 8.60218 73.7789 8.44032C73.0688 8.04898 72.2587 7.85024 71.3425 7.85024C70.259 7.85024 69.2795 8.13094 68.4062 8.69028C67.5308 9.25166 66.8391 10.0036 66.331 10.9481C65.8229 11.8947 65.5678 12.9601 65.5678 14.1484C65.5678 15.3368 65.8208 16.3776 66.331 17.3242C66.8391 18.2707 67.5308 19.0186 68.4062 19.5697C69.2795 20.1209 70.259 20.3995 71.3425 20.3995C72.2587 20.3995 73.0749 20.2028 73.7911 19.8094C74.0788 19.6517 74.342 19.4693 74.5787 19.2624C74.7502 19.1128 75.0134 19.2317 75.0134 19.4591C75.0134 19.8402 75.3215 20.1495 75.701 20.1495H77.0784C77.4579 20.1495 77.766 19.8402 77.766 19.4591V8.78862C77.766 8.40753 77.4579 8.09816 77.0784 8.09816H75.701C75.3215 8.09816 75.0134 8.40753 75.0134 8.78862V8.80501H75.0154V8.80706ZM74.2523 16.7607C73.6258 17.4471 72.8055 17.7913 71.7894 17.7913C71.1221 17.7913 70.5365 17.6376 70.0264 17.3262C69.5183 17.0168 69.1183 16.5866 68.8265 16.0334C68.5347 15.4822 68.3899 14.8451 68.3899 14.1259C68.3899 13.4068 68.5368 12.7716 68.8265 12.2184C69.1183 11.6673 69.5183 11.235 70.0264 10.9256C70.5344 10.6162 71.1221 10.4605 71.7894 10.4605C72.4566 10.4605 73.0688 10.6142 73.5769 10.9256C74.0849 11.237 74.4808 11.6652 74.7644 12.2184C75.0481 12.7696 75.1889 13.4068 75.1889 14.1259C75.1889 15.1975 74.8767 16.0764 74.2523 16.7607ZM83.1857 8.83984C83.1857 8.98736 83.3673 9.06522 83.4672 8.95663C84.1447 8.23338 85.1201 7.85024 86.3097 7.85024C86.9096 7.85024 87.4503 7.96088 87.936 8.17601C88.2053 8.29894 88.4665 8.46285 88.7175 8.66774C89.0481 8.94024 89.0766 9.44426 88.7767 9.75364L87.9503 10.606C87.7074 10.8559 87.33 10.8928 87.03 10.7146C86.9423 10.6633 86.8525 10.6203 86.7586 10.5834C86.4913 10.483 86.1852 10.4339 85.8322 10.4339C85.065 10.4339 84.4324 10.6777 83.9325 11.1633C83.4326 11.6488 83.1816 12.411 83.1816 13.4477V19.412C83.1816 19.8197 82.8531 20.1495 82.447 20.1495H81.1676C80.7615 20.1495 80.433 19.8176 80.433 19.412V8.83984C80.433 8.43212 80.7615 8.10225 81.1676 8.10225H82.447C82.8531 8.10225 83.1816 8.43417 83.1816 8.83984H83.1857ZM98.5834 9.44426C98.2365 9.04268 97.8264 8.70872 97.3469 8.44032C96.6368 8.04898 95.8267 7.85024 94.9105 7.85024C93.827 7.85024 92.8475 8.13094 91.9742 8.69028C91.0988 9.25166 90.4071 10.0036 89.899 10.9481C89.3888 11.8947 89.1358 12.9601 89.1358 14.1484C89.1358 15.3368 89.3888 16.3776 89.899 17.3242C90.4071 18.2707 91.0988 19.0186 91.9742 19.5697C92.8475 20.1209 93.827 20.3995 94.9105 20.3995C95.8267 20.3995 96.6429 20.2028 97.3591 19.8094C97.6489 19.6517 97.91 19.4693 98.1488 19.2624C98.3202 19.1128 98.5834 19.2317 98.5834 19.4591C98.5834 19.8402 98.8915 20.1495 99.2711 20.1495H100.648C101.028 20.1495 101.336 19.8402 101.336 19.4591V3.74638C101.336 3.33866 101.006 3.00879 100.601 3.00879H99.3221C98.916 3.00879 98.5875 3.3407 98.5875 3.74638V9.44426H98.5834ZM97.1469 17.3242C96.6368 17.6356 96.043 17.7893 95.3594 17.7893C94.6758 17.7893 94.1065 17.6356 93.5964 17.3242C93.0883 17.0148 92.6863 16.5845 92.3966 16.0313C92.1048 15.4802 91.9599 14.843 91.9599 14.1239C91.9599 13.4047 92.1068 12.7696 92.3966 12.2164C92.6863 11.6652 93.0883 11.2329 93.5964 10.9235C94.1045 10.6142 94.6921 10.4584 95.3594 10.4584C96.0266 10.4584 96.6388 10.6121 97.1469 10.9235C97.655 11.235 98.0508 11.6632 98.3345 12.2164C98.6181 12.7675 98.7589 13.4047 98.7589 14.1239C98.7589 14.843 98.6161 15.4781 98.3345 16.0313C98.0508 16.5825 97.655 17.0148 97.1469 17.3242ZM107.719 10.9768C108.243 10.6674 108.847 10.5117 109.531 10.5117C110.114 10.5117 110.651 10.6162 111.143 10.8252C111.435 10.9481 111.698 11.11 111.939 11.3046C112.228 11.5402 112.653 11.5136 112.916 11.2452L113.7 10.4482C113.991 10.1511 113.983 9.66553 113.673 9.38484C113.222 8.97507 112.712 8.6452 112.143 8.39114C111.333 8.03259 110.463 7.85229 109.531 7.85229C108.347 7.85229 107.278 8.12684 106.319 8.68208C105.36 9.23322 104.607 9.98311 104.056 10.9276C103.505 11.8742 103.23 12.9396 103.23 14.128C103.23 15.3163 103.505 16.3633 104.056 17.316C104.607 18.2687 105.36 19.0227 106.319 19.5738C107.276 20.125 108.347 20.4036 109.531 20.4036C110.463 20.4036 111.335 20.2233 112.143 19.8648C112.712 19.6107 113.224 19.2788 113.673 18.8711C113.981 18.5904 113.991 18.1048 113.7 17.8077L112.916 17.0107C112.653 16.7423 112.228 16.7136 111.939 16.9513C111.698 17.148 111.431 17.3078 111.143 17.4307C110.651 17.6417 110.114 17.7442 109.531 17.7442C108.847 17.7442 108.243 17.5905 107.719 17.2791C107.194 16.9697 106.786 16.5436 106.495 16.0006C106.203 15.4577 106.058 14.8328 106.058 14.13C106.058 13.4272 106.205 12.7839 106.495 12.2491C106.784 11.7144 107.194 11.2923 107.719 10.9809V10.9768ZM126.763 10.9256C126.204 9.98106 125.451 9.23118 124.5 8.68003C123.549 8.12889 122.484 7.85024 121.301 7.85024C120.117 7.85024 119.076 8.13094 118.128 8.69028C117.179 9.25166 116.424 9.9995 115.865 10.9358C115.305 11.8722 115.028 12.9273 115.028 14.0972C115.028 15.2671 115.308 16.3325 115.865 17.2852C116.422 18.238 117.177 18.996 118.128 19.5574C119.078 20.1188 120.135 20.3975 121.301 20.3975C122.466 20.3975 123.549 20.1168 124.5 19.5574C125.449 18.9981 126.204 18.24 126.763 17.2852C127.32 16.3325 127.6 15.2692 127.6 14.0972C127.6 12.9253 127.32 11.8681 126.763 10.9215V10.9256ZM124.341 15.9822C124.049 16.5333 123.641 16.9656 123.115 17.275C122.59 17.5864 121.986 17.7401 121.303 17.7401C120.619 17.7401 120.039 17.5864 119.515 17.275C118.991 16.9656 118.583 16.5354 118.291 15.9822C117.999 15.431 117.854 14.8041 117.854 14.1013C117.854 13.3986 118.001 12.7798 118.291 12.245C118.581 11.7103 118.991 11.2882 119.515 10.9768C120.039 10.6674 120.635 10.5117 121.303 10.5117C121.97 10.5117 122.586 10.6654 123.102 10.9768C123.619 11.2882 124.029 11.7082 124.327 12.245C124.627 12.7798 124.776 13.3986 124.776 14.1013C124.776 14.8041 124.629 15.4331 124.339 15.9822H124.341ZM23.7372 14.1239L28.3324 5.66411L28.6956 4.99618C29.1221 4.21147 28.5569 3.2567 27.6672 3.2567H20.3397C19.9112 3.2567 19.5174 3.49232 19.3113 3.86931L18.3359 5.66206L18.2951 5.73787C18.2645 5.71124 18.2339 5.68665 18.2033 5.66411C18.1706 5.63748 18.138 5.61084 18.1033 5.58421C18.0319 5.52684 17.9584 5.47152 17.885 5.4162C17.8503 5.38956 17.8156 5.36293 17.7809 5.33834C17.7442 5.31171 17.7095 5.28507 17.6728 5.26049C17.3973 5.0638 17.1136 4.88145 16.8198 4.71139C16.779 4.68681 16.7362 4.66427 16.6953 4.64173C16.6566 4.61919 16.6158 4.59665 16.575 4.57617C16.5137 4.54134 16.4525 4.50855 16.3893 4.47782C16.3852 4.47782 16.3811 4.47372 16.3811 4.47372C16.3321 4.44709 16.2811 4.4225 16.2321 4.39792C16.1934 4.37743 16.1546 4.35899 16.1138 4.34055C16.0567 4.31391 16.0016 4.28523 15.9444 4.26064C15.8179 4.20123 15.6914 4.14591 15.5608 4.09264C14.261 3.55174 12.8367 3.2567 11.339 3.26899C5.43984 3.31202 0.626255 8.15757 0.599728 14.0788C0.577282 18.9469 3.74213 23.0753 8.12108 24.4808C8.90872 24.7328 9.73513 24.8988 10.5881 24.9623C10.8615 24.9828 11.139 24.9931 11.4186 24.9931C12.8816 24.9931 14.2773 24.7021 15.5506 24.1715H15.5547C16.5525 23.7555 17.4769 23.1962 18.2972 22.516L18.3339 22.5815L19.3093 24.3743C19.5153 24.7513 19.9092 24.9869 20.3377 24.9869H27.6652C28.5548 24.9869 29.1201 24.0321 28.6936 23.2474L28.3304 22.5795L23.7372 14.1259V14.1239ZM21.4844 5.66411H24.8146C25.1696 5.66411 25.3961 6.04725 25.2268 6.36072L22.3741 11.612L21.0886 9.24552L21.0825 9.23322C21.0539 9.17586 21.0253 9.12054 20.9947 9.06317L20.8641 8.8214C20.8172 8.7374 20.7682 8.65135 20.7192 8.56939C20.6927 8.52432 20.6662 8.48129 20.6397 8.43622C20.6356 8.43007 20.6335 8.42597 20.6295 8.41983C20.5968 8.36656 20.5642 8.31534 20.5295 8.26207C20.4438 8.12684 20.356 7.99571 20.2642 7.86459C20.2295 7.81336 20.1908 7.76214 20.1561 7.71092C20.1193 7.6597 20.0806 7.60848 20.0418 7.55726L20.8702 6.03086C20.9927 5.80343 21.2294 5.66206 21.4865 5.66206L21.4844 5.66411ZM18.742 18.2994L15.318 12.0033C14.565 10.6142 13.0999 9.66963 11.4145 9.66963C11.3839 9.66963 11.3533 9.66963 11.3227 9.66963C8.9128 9.7188 6.97431 11.696 6.97431 14.1259C6.97431 16.5558 8.96178 18.5842 11.4145 18.5842C12.9469 18.5842 14.2998 17.8036 15.0976 16.6173L17.1198 20.3401C15.7261 21.6309 13.8998 22.4566 11.8858 22.5672C11.7308 22.5754 11.5757 22.5795 11.4186 22.5795C10.686 22.5795 9.97387 22.4852 9.29642 22.307C5.67654 21.3604 2.9953 18.0495 2.9953 14.1218C2.9953 9.4586 6.7723 5.66411 11.4186 5.66411C13.6142 5.66411 15.618 6.51234 17.1177 7.90147H17.1198C17.7585 8.49154 18.3053 9.17995 18.7379 9.94213V9.94418L18.7665 9.9954C18.8012 10.0569 18.8338 10.1163 18.8665 10.1777L21.007 14.1177V14.1218L22.0619 16.06L22.3721 16.6317L25.2206 21.8767C25.39 22.1902 25.1655 22.5733 24.8084 22.5733H21.4783C21.2212 22.5733 20.9845 22.432 20.8621 22.2066L20.0377 20.6904C20.0377 20.6904 20.0377 20.6884 20.0398 20.6864L18.7399 18.2953" fill="#8C8CA6"/>
</svg>
