<svg width="122" height="32" viewBox="0 0 122 32" fill="none" xmlns="http://www.w3.org/2000/svg">
<g clip-path="url(#clip0_5829_78198)">
<mask id="mask0_5829_78198" style="mask-type:alpha" maskUnits="userSpaceOnUse" x="-5" y="-1" width="132" height="34">
<path d="M46.4833 7.7362C45.4574 6.99379 44.1453 6.62258 42.5488 6.62258C41.9017 6.62258 41.2644 6.68742 40.6384 6.8171C40.0125 6.94678 39.4565 7.16237 38.9703 7.46225C38.4842 7.76376 38.0956 8.16738 37.8046 8.67313C37.5136 9.17888 37.3673 9.80944 37.3673 10.5616C37.3673 11.2716 37.577 11.8486 37.9981 12.2895C38.4192 12.7305 38.9801 13.0919 39.6824 13.3707C40.3832 13.6512 41.1766 13.883 42.0627 14.0645C42.9471 14.2477 43.8494 14.4471 44.7664 14.6627C45.6834 14.8783 46.5857 15.1311 47.4702 15.4213C48.3546 15.7115 49.148 16.1054 49.8504 16.5998C50.5511 17.0958 51.1136 17.7199 51.5347 18.472C51.9558 19.2258 52.1655 20.1724 52.1655 21.3136C52.1655 22.5407 51.8908 23.5894 51.3396 24.4615C50.7885 25.3336 50.0812 26.0436 49.2179 26.5931C48.3546 27.1426 47.3872 27.5414 46.3191 27.7878C45.2509 28.0342 44.186 28.159 43.1292 28.159C41.8334 28.159 40.6075 27.9969 39.4532 27.6743C38.2972 27.3518 37.2827 26.8622 36.408 26.2057C35.5333 25.5492 34.8424 24.7095 34.3351 23.6867C33.8278 22.6639 33.5742 21.453 33.5742 20.0541H36.4893C36.4893 21.0234 36.6779 21.8566 37.0567 22.5569C37.4339 23.2571 37.9314 23.8326 38.546 24.2848C39.1606 24.7371 39.8792 25.071 40.7002 25.2866C41.5213 25.5022 42.3634 25.6092 43.2267 25.6092C43.9177 25.6092 44.6136 25.5444 45.3159 25.4147C46.0167 25.285 46.6491 25.0645 47.21 24.7533C47.7709 24.4421 48.2245 24.0158 48.5708 23.4776C48.9155 22.9394 49.0895 22.2505 49.0895 21.4108C49.0895 20.6149 48.8781 19.9682 48.4587 19.4738C48.0376 18.9794 47.475 18.5757 46.7743 18.2629C46.0719 17.9517 45.2785 17.6972 44.3941 17.5043C43.508 17.3097 42.6073 17.112 41.6903 16.9061C40.7718 16.7019 39.871 16.4652 38.9866 16.1961C38.1005 15.927 37.3071 15.572 36.6064 15.1311C35.904 14.6902 35.3431 14.1196 34.922 13.4194C34.5009 12.7207 34.2912 11.8422 34.2912 10.7869C34.2912 9.62465 34.5286 8.61802 35.0033 7.767C35.4781 6.9176 36.1089 6.21734 36.8974 5.66782C37.6859 5.11831 38.5818 4.70982 39.5865 4.44073C40.5897 4.17165 41.6221 4.03711 42.6788 4.03711C43.8657 4.03711 44.968 4.17813 45.9825 4.45694C46.997 4.73737 47.888 5.17829 48.6554 5.78129C49.4211 6.3843 50.026 7.14292 50.4698 8.05716C50.912 8.97301 51.1559 10.0656 51.1982 11.3348H48.2831C48.1107 9.67652 47.5108 8.47699 46.4849 7.73458L46.4833 7.7362Z" fill="white" stroke="white" stroke-width="0.212983" stroke-miterlimit="10"/>
<path d="M57.9361 10.791V27.646H55.1836V10.791H57.9361Z" fill="white" stroke="white" stroke-width="0.212983" stroke-miterlimit="10"/>
<path d="M61.3672 27.6421V10.7855H63.7962L63.8612 14.6288L63.3751 14.7909C63.5474 14.1458 63.8336 13.559 64.2335 13.0305C64.6335 12.5037 65.1131 12.045 65.6756 11.6576C66.2365 11.2701 66.8527 10.9751 67.5209 10.7693C68.1892 10.565 68.8915 10.4629 69.6264 10.4629C70.5108 10.4629 71.3059 10.6088 72.0066 10.8989C72.7073 11.1891 73.3024 11.6851 73.7885 12.3838C74.2746 13.084 74.6469 14.0031 74.9054 15.1443L74.3218 14.8541L74.5478 14.3046C74.764 13.8102 75.0827 13.3304 75.5037 12.8684C75.9248 12.4065 76.411 11.9915 76.9605 11.6251C77.5116 11.2588 78.1148 10.9735 78.7749 10.7693C79.4334 10.565 80.1081 10.4629 80.7991 10.4629C81.9859 10.4629 82.9907 10.7158 83.8117 11.2215C84.6328 11.7273 85.2538 12.4972 85.6733 13.5298C86.0928 14.5624 86.3041 15.877 86.3041 17.4688V27.6405H83.8101V17.5985C83.8101 16.48 83.6686 15.5641 83.389 14.8541C83.1077 14.1441 82.6932 13.6108 82.142 13.2559C81.5908 12.9009 80.895 12.7225 80.0528 12.7225C79.3179 12.7225 78.6432 12.8474 78.0287 13.0938C77.4141 13.3418 76.8841 13.6854 76.4418 14.1263C75.9996 14.5672 75.6533 15.0681 75.4062 15.6274C75.1574 16.1882 75.0339 16.7896 75.0339 17.4364V27.6405H72.5724V17.5661C72.5724 16.4897 72.4261 15.5966 72.135 14.8866C71.844 14.1766 71.4164 13.6384 70.8555 13.2721C70.2946 12.9057 69.6036 12.7225 68.7826 12.7225C68.0705 12.7225 67.4104 12.8474 66.8072 13.0938C66.2024 13.3418 65.6789 13.6805 65.2367 14.1101C64.7944 14.5413 64.4481 15.0357 64.201 15.5949C63.9523 16.1542 63.8287 16.7572 63.8287 17.404V27.6405H61.3672V27.6421Z" fill="white" stroke="white" stroke-width="0.212983" stroke-miterlimit="10"/>
<path d="M96.9912 27.9623C95.3068 27.9623 93.811 27.5862 92.5055 26.8324C91.1983 26.0787 90.1741 25.0348 89.4294 23.7007C88.6848 22.3666 88.3125 20.8478 88.3125 19.1473C88.3125 17.4469 88.6848 15.9718 89.4294 14.6588C90.1741 13.3458 91.2 12.3133 92.5055 11.5595C93.811 10.8058 95.3068 10.4297 96.9912 10.4297C98.6755 10.4297 100.139 10.8074 101.444 11.5595C102.75 12.3133 103.776 13.3458 104.52 14.6588C105.265 15.9718 105.637 17.468 105.637 19.1473C105.637 20.8267 105.265 22.3666 104.52 23.7007C103.776 25.0364 102.75 26.0803 101.444 26.8324C100.137 27.5862 98.6528 27.9623 96.9912 27.9623ZM96.9912 25.6702C98.178 25.6702 99.2364 25.3849 100.165 24.8143C101.093 24.2437 101.817 23.4689 102.335 22.4898C102.854 21.5107 103.112 20.3971 103.112 19.1473C103.112 17.8976 102.854 16.7904 102.335 15.8211C101.817 14.8517 101.093 14.0931 100.165 13.5452C99.2364 12.9957 98.178 12.7218 96.9912 12.7218C95.8043 12.7218 94.741 12.9957 93.8013 13.5452C92.8616 14.0947 92.1283 14.8582 91.5983 15.8373C91.0683 16.8164 90.8163 17.9203 90.8374 19.1473C90.8163 20.3955 91.0699 21.5107 91.5983 22.4898C92.1267 23.4705 92.8616 24.2454 93.8013 24.8143C94.741 25.3849 95.8043 25.6702 96.9912 25.6702Z" fill="white" stroke="white" stroke-width="0.212983" stroke-miterlimit="10"/>
<path d="M107.652 27.6413V10.7847H110.048L110.146 14.3038L109.757 14.4659C109.973 13.7349 110.394 13.067 111.02 12.464C111.646 11.861 112.397 11.3715 113.271 10.9954C114.145 10.6193 115.046 10.4297 115.974 10.4297C117.226 10.4297 118.273 10.6777 119.115 11.1721C119.958 11.6681 120.593 12.4316 121.026 13.4642C121.458 14.4967 121.673 15.8114 121.673 17.4032V27.6397H119.211V17.5328C119.211 16.4144 119.065 15.4936 118.774 14.7723C118.483 14.051 118.034 13.5193 117.429 13.174C116.825 12.8304 116.08 12.6683 115.194 12.6893C114.459 12.6893 113.779 12.8142 113.153 13.0605C112.528 13.3086 111.988 13.6473 111.534 14.0785C111.081 14.5097 110.725 15.0041 110.466 15.5633C110.207 16.1242 110.077 16.7256 110.077 17.3724V27.6413H107.648H107.652Z" fill="white" stroke="white" stroke-width="0.212983" stroke-miterlimit="10"/>
<path d="M19.0602 27.0956V27.4425H23.6629V27.4377H23.6646V22.8681H23.6629V22.8535H19.0602V26.7196C19.0602 26.8298 19.0602 26.94 19.0586 27.0519C19.0586 27.0681 19.0602 27.081 19.0602 27.0956Z" fill="white"/>
<path d="M0.329751 22.8562L1.72471 24.221L5.00238 27.604V22.8578H19.0576V18.1326H5.02514C4.88857 18.0824 0.328125 13.4609 0.328125 13.4609V22.8578L0.329751 22.8562Z" fill="white"/>
<path d="M4.93442 4.5422V4.19531H0.331704V4.20018H0.330078V8.76973H0.331704V8.78432H4.93442V4.91827C4.93442 4.80804 4.93442 4.69782 4.93604 4.58597C4.93604 4.56976 4.93442 4.55679 4.93442 4.5422Z" fill="white"/>
<path d="M23.6634 8.78303L22.2685 7.41815L18.9908 4.03516V8.7814H4.93555V13.5066H18.9664C19.103 13.5568 23.6634 18.1783 23.6634 18.1783V8.7814V8.78303Z" fill="white"/>
<path d="M57.9361 4.78516H55.1836V7.52949H57.9361V4.78516Z" fill="white" stroke="white" stroke-width="0.212983" stroke-miterlimit="10"/>
</mask>
<g mask="url(#mask0_5829_78198)">
<rect x="-4.03125" y="-0.273438" width="130.066" height="32.7439" fill="#9593A7"/>
</g>
</g>
<defs>
<clipPath id="clip0_5829_78198">
<rect width="122" height="24" fill="white" transform="translate(0 4)"/>
</clipPath>
</defs>
</svg>
