<svg width="122" height="32" viewBox="0 0 122 32" fill="none" xmlns="http://www.w3.org/2000/svg">
<g clip-path="url(#clip0_5954_18973)">
<mask id="mask0_5954_18973" style="mask-type:alpha" maskUnits="userSpaceOnUse" x="-5" y="-1" width="132" height="34">
<path d="M46.4833 7.73425C45.4574 6.99184 44.1453 6.62063 42.5488 6.62063C41.9017 6.62063 41.2644 6.68547 40.6384 6.81515C40.0125 6.94483 39.4565 7.16042 38.9703 7.4603C38.4842 7.7618 38.0956 8.16543 37.8046 8.67118C37.5136 9.17692 37.3673 9.80749 37.3673 10.5596C37.3673 11.2696 37.577 11.8467 37.9981 12.2876C38.4192 12.7285 38.9801 13.09 39.6824 13.3688C40.3832 13.6492 41.1766 13.881 42.0627 14.0626C42.9471 14.2457 43.8494 14.4451 44.7664 14.6607C45.6834 14.8763 46.5857 15.1292 47.4702 15.4193C48.3546 15.7095 49.148 16.1034 49.8504 16.5978C50.5511 17.0938 51.1136 17.7179 51.5347 18.47C51.9558 19.2238 52.1655 20.1705 52.1655 21.3116C52.1655 22.5387 51.8908 23.5875 51.3396 24.4596C50.7885 25.3317 50.0812 26.0417 49.2179 26.5912C48.3546 27.1407 47.3872 27.5395 46.3191 27.7858C45.2509 28.0322 44.186 28.157 43.1292 28.157C41.8334 28.157 40.6075 27.995 39.4532 27.6724C38.2972 27.3498 37.2827 26.8603 36.408 26.2038C35.5333 25.5473 34.8424 24.7076 34.3351 23.6847C33.8278 22.6619 33.5742 21.451 33.5742 20.0521H36.4893C36.4893 21.0215 36.6779 21.8547 37.0567 22.5549C37.4339 23.2552 37.9314 23.8306 38.546 24.2829C39.1606 24.7351 39.8792 25.0691 40.7002 25.2847C41.5213 25.5003 42.3634 25.6072 43.2267 25.6072C43.9177 25.6072 44.6136 25.5424 45.3159 25.4127C46.0167 25.283 46.6491 25.0626 47.21 24.7514C47.7709 24.4401 48.2245 24.0138 48.5708 23.4756C48.9155 22.9375 49.0895 22.2486 49.0895 21.4089C49.0895 20.613 48.8781 19.9662 48.4587 19.4718C48.0376 18.9774 47.475 18.5738 46.7743 18.2609C46.0719 17.9497 45.2785 17.6952 44.3941 17.5023C43.508 17.3078 42.6073 17.11 41.6903 16.9042C40.7718 16.6999 39.871 16.4633 38.9866 16.1942C38.1005 15.9251 37.3071 15.5701 36.6064 15.1292C35.904 14.6883 35.3431 14.1177 34.922 13.4174C34.5009 12.7188 34.2912 11.8402 34.2912 10.7849C34.2912 9.6227 34.5286 8.61606 35.0033 7.76505C35.4781 6.91565 36.1089 6.21538 36.8974 5.66587C37.6859 5.11635 38.5818 4.70786 39.5865 4.43878C40.5897 4.1697 41.6221 4.03516 42.6788 4.03516C43.8657 4.03516 44.968 4.17618 45.9825 4.45499C46.997 4.73542 47.888 5.17633 48.6554 5.77934C49.4211 6.38235 50.026 7.14097 50.4698 8.0552C50.912 8.97106 51.1559 10.0636 51.1982 11.3328H48.2831C48.1107 9.67456 47.5108 8.47504 46.4849 7.73263L46.4833 7.73425Z" fill="white" stroke="white" stroke-width="0.212983" stroke-miterlimit="10"/>
<path d="M57.9361 10.7905V27.6455H55.1836V10.7905H57.9361Z" fill="white" stroke="white" stroke-width="0.212983" stroke-miterlimit="10"/>
<path d="M61.3672 27.6421V10.7855H63.7962L63.8612 14.6288L63.3751 14.7909C63.5474 14.1458 63.8336 13.559 64.2335 13.0305C64.6335 12.5037 65.1131 12.045 65.6756 11.6576C66.2365 11.2701 66.8527 10.9751 67.5209 10.7693C68.1892 10.565 68.8915 10.4629 69.6264 10.4629C70.5108 10.4629 71.3059 10.6088 72.0066 10.8989C72.7073 11.1891 73.3024 11.6851 73.7885 12.3838C74.2746 13.084 74.6469 14.0031 74.9054 15.1443L74.3218 14.8541L74.5478 14.3046C74.764 13.8102 75.0827 13.3304 75.5037 12.8684C75.9248 12.4065 76.411 11.9915 76.9605 11.6251C77.5116 11.2588 78.1148 10.9735 78.7749 10.7693C79.4334 10.565 80.1081 10.4629 80.7991 10.4629C81.9859 10.4629 82.9907 10.7158 83.8117 11.2215C84.6328 11.7273 85.2538 12.4972 85.6733 13.5298C86.0928 14.5624 86.3041 15.877 86.3041 17.4688V27.6405H83.8101V17.5985C83.8101 16.48 83.6686 15.5641 83.389 14.8541C83.1077 14.1441 82.6932 13.6108 82.142 13.2559C81.5908 12.9009 80.895 12.7225 80.0528 12.7225C79.3179 12.7225 78.6432 12.8474 78.0287 13.0938C77.4141 13.3418 76.8841 13.6854 76.4418 14.1263C75.9996 14.5672 75.6533 15.0681 75.4062 15.6274C75.1574 16.1882 75.0339 16.7896 75.0339 17.4364V27.6405H72.5724V17.5661C72.5724 16.4897 72.4261 15.5966 72.135 14.8866C71.844 14.1766 71.4164 13.6384 70.8555 13.2721C70.2946 12.9057 69.6036 12.7225 68.7826 12.7225C68.0705 12.7225 67.4104 12.8474 66.8072 13.0938C66.2024 13.3418 65.6789 13.6805 65.2367 14.1101C64.7944 14.5413 64.4481 15.0357 64.201 15.5949C63.9523 16.1542 63.8287 16.7572 63.8287 17.404V27.6405H61.3672V27.6421Z" fill="white" stroke="white" stroke-width="0.212983" stroke-miterlimit="10"/>
<path d="M96.9912 27.9632C95.3068 27.9632 93.811 27.5872 92.5055 26.8334C91.1983 26.0797 90.1741 25.0357 89.4294 23.7017C88.6848 22.3676 88.3125 20.8487 88.3125 19.1483C88.3125 17.4479 88.6848 15.9728 89.4294 14.6598C90.1741 13.3468 91.2 12.3142 92.5055 11.5605C93.811 10.8067 95.3068 10.4307 96.9912 10.4307C98.6755 10.4307 100.139 10.8084 101.444 11.5605C102.75 12.3142 103.776 13.3468 104.52 14.6598C105.265 15.9728 105.637 17.469 105.637 19.1483C105.637 20.8277 105.265 22.3676 104.52 23.7017C103.776 25.0374 102.75 26.0813 101.444 26.8334C100.137 27.5872 98.6528 27.9632 96.9912 27.9632ZM96.9912 25.6712C98.178 25.6712 99.2364 25.3859 100.165 24.8153C101.093 24.2447 101.817 23.4699 102.335 22.4908C102.854 21.5117 103.112 20.3981 103.112 19.1483C103.112 17.8985 102.854 16.7914 102.335 15.8221C101.817 14.8527 101.093 14.0941 100.165 13.5462C99.2364 12.9967 98.178 12.7227 96.9912 12.7227C95.8043 12.7227 94.741 12.9967 93.8013 13.5462C92.8616 14.0957 92.1283 14.8592 91.5983 15.8383C91.0683 16.8174 90.8163 17.9212 90.8374 19.1483C90.8163 20.3965 91.0699 21.5117 91.5983 22.4908C92.1267 23.4715 92.8616 24.2463 93.8013 24.8153C94.741 25.3859 95.8043 25.6712 96.9912 25.6712Z" fill="white" stroke="white" stroke-width="0.212983" stroke-miterlimit="10"/>
<path d="M107.652 27.6423V10.7857H110.048L110.146 14.3048L109.757 14.4669C109.973 13.7359 110.394 13.068 111.02 12.465C111.646 11.862 112.397 11.3725 113.271 10.9964C114.145 10.6203 115.046 10.4307 115.974 10.4307C117.226 10.4307 118.273 10.6787 119.115 11.1731C119.958 11.6691 120.593 12.4326 121.026 13.4652C121.458 14.4977 121.673 15.8123 121.673 17.4041V27.6407H119.211V17.5338C119.211 16.4153 119.065 15.4946 118.774 14.7733C118.483 14.0519 118.034 13.5203 117.429 13.175C116.825 12.8313 116.08 12.6692 115.194 12.6903C114.459 12.6903 113.779 12.8151 113.153 13.0615C112.528 13.3095 111.988 13.6483 111.534 14.0795C111.081 14.5107 110.725 15.0051 110.466 15.5643C110.207 16.1252 110.077 16.7266 110.077 17.3733V27.6423H107.648H107.652Z" fill="white" stroke="white" stroke-width="0.212983" stroke-miterlimit="10"/>
<path d="M19.0602 27.0956V27.4425H23.6629V27.4377H23.6646V22.8681H23.6629V22.8535H19.0602V26.7196C19.0602 26.8298 19.0602 26.94 19.0586 27.0519C19.0586 27.0681 19.0602 27.081 19.0602 27.0956Z" fill="white"/>
<path d="M0.329751 22.8557L1.72471 24.2206L5.00238 27.6036V22.8573H19.0576V18.1321H5.02514C4.88857 18.0819 0.328125 13.4604 0.328125 13.4604V22.8573L0.329751 22.8557Z" fill="white"/>
<path d="M4.93442 4.5422V4.19531H0.331704V4.20018H0.330078V8.76973H0.331704V8.78432H4.93442V4.91827C4.93442 4.80804 4.93442 4.69782 4.93604 4.58597C4.93604 4.56976 4.93442 4.55679 4.93442 4.5422Z" fill="white"/>
<path d="M23.6634 8.78303L22.2685 7.41815L18.9908 4.03516V8.7814H4.93555V13.5066H18.9664C19.103 13.5568 23.6634 18.1783 23.6634 18.1783V8.7814V8.78303Z" fill="white"/>
<path d="M57.9361 4.78711H55.1836V7.53144H57.9361V4.78711Z" fill="white" stroke="white" stroke-width="0.212983" stroke-miterlimit="10"/>
</mask>
<g mask="url(#mask0_5954_18973)">
<rect x="-4.03125" y="-0.273438" width="130.066" height="32.7439" fill="#8C8CA6"/>
</g>
</g>
<defs>
<clipPath id="clip0_5954_18973">
<rect width="122" height="24" fill="white" transform="translate(0 4)"/>
</clipPath>
</defs>
</svg>
