<svg width="200" height="134" viewBox="0 0 200 134" fill="none" xmlns="http://www.w3.org/2000/svg">
<mask id="mask0_6_2345" style="mask-type:alpha" maskUnits="userSpaceOnUse" x="45" y="26" width="112" height="39">
<path d="M156 34.1123V60.2346L152.357 63.7635V38.2006L156 34.1123Z" fill="#E79225"/>
<path d="M132.132 34.1338L128.359 38.2006L128.554 38.4589L152.206 38.3728L152.423 38.2006L156 34.1123L132.132 34.1338Z" fill="#FFF16D"/>
<path d="M152.423 38.2012H128.359V63.7856H152.423V38.2012Z" fill="url(#paint0_linear_6_2345)"/>
<path d="M148.759 47.4105C148.282 46.227 147.567 45.1512 146.635 44.2259C145.746 43.3222 144.749 42.6336 143.621 42.1817C142.516 41.7299 141.323 41.4932 140.023 41.4932C138.722 41.4932 137.508 41.7299 136.402 42.1817C135.275 42.6336 134.278 43.3222 133.389 44.2259C132.457 45.1512 131.763 46.227 131.286 47.4105C130.809 48.594 130.592 49.885 130.592 51.3052C130.592 52.6823 130.831 53.9734 131.308 55.1783C131.785 56.3833 132.478 57.4592 133.411 58.406C134.278 59.2882 135.275 59.9552 136.381 60.4071C137.486 60.859 138.722 61.0957 140.044 61.0957C141.323 61.0957 142.516 60.859 143.621 60.4071C144.727 59.9552 145.746 59.2882 146.635 58.406C147.567 57.4592 148.282 56.3833 148.759 55.1999C149.236 54.0164 149.475 52.7038 149.475 51.3267C149.475 49.885 149.236 48.594 148.759 47.4105ZM143.795 55.8454C142.863 56.9428 141.627 57.5022 140.023 57.5022C138.418 57.5022 137.161 56.9428 136.229 55.8454C135.297 54.748 134.841 53.2202 134.841 51.2837C134.841 49.304 135.318 47.7763 136.229 46.6574C137.161 45.5385 138.397 45.0005 140.023 45.0005C141.627 45.0005 142.863 45.56 143.795 46.6574C144.705 47.7763 145.182 49.304 145.182 51.2837C145.182 53.2202 144.727 54.748 143.795 55.8454Z" fill="white"/>
<path d="M125.996 31.9814V32.1106L129.074 55.5862L127.275 60.5353L127.036 60.3631L123.871 37.8557L123.936 37.5545L125.909 32.1106L125.996 31.9814Z" fill="#009ADA"/>
<path d="M102.3 35.2521L125.995 31.9814L124 37.619L123.719 37.9203L101.562 41.1479L101.671 37.1241L102.3 35.2521Z" fill="#91C9ED"/>
<path d="M124.001 37.6191L127.274 60.5353L103.926 63.7845L100.782 41.6429L102.148 40.5886L124.001 37.6191Z" fill="url(#paint1_linear_6_2345)"/>
<path d="M120.034 42.009C119.925 41.2989 119.687 40.761 119.297 40.3952C118.972 40.1155 118.581 39.9648 118.126 39.9648C118.018 39.9648 117.888 39.9648 117.758 39.9864C117.151 40.0724 116.695 40.3522 116.413 40.804C116.197 41.1268 116.11 41.5356 116.11 42.009C116.11 42.1812 116.132 42.3748 116.153 42.5685L116.999 48.5288L110.278 49.5186L109.433 43.5583C109.324 42.8697 109.086 42.3318 108.696 41.966C108.37 41.6647 107.98 41.5141 107.547 41.5141C107.438 41.5141 107.33 41.5141 107.221 41.5356C106.593 41.6217 106.116 41.9014 105.812 42.3533C105.596 42.6761 105.509 43.0849 105.509 43.5583C105.509 43.7304 105.53 43.9241 105.552 44.1393L107.85 59.6534C107.959 60.3635 108.197 60.9014 108.631 61.2672C108.956 61.547 109.346 61.6761 109.823 61.6761C109.953 61.6761 110.083 61.6761 110.213 61.6546C110.799 61.5685 111.232 61.2888 111.514 60.8369C111.709 60.5141 111.796 60.1268 111.796 59.6749C111.796 59.5028 111.774 59.3091 111.752 59.1155L110.82 52.983L117.541 51.9932L118.473 58.1257C118.581 58.8358 118.82 59.3737 119.232 59.718C119.557 59.9977 119.947 60.1483 120.402 60.1483C120.511 60.1483 120.641 60.1483 120.771 60.1268C121.378 60.0407 121.833 59.761 122.115 59.3091C122.31 58.9864 122.419 58.5991 122.419 58.1257C122.419 57.9535 122.397 57.7599 122.375 57.5662L120.034 42.009Z" fill="white"/>
<path d="M80.1202 26L71.687 45.8822L72.836 54.6184L72.901 54.5968L82.3748 33.4451L82.3315 32.9932L80.2936 26.2797L80.1202 26Z" fill="#66BF6B"/>
<path d="M80.1201 26L82.3097 33.2945L82.3531 33.4451L103.208 42.7192L103.273 42.6761L101.496 35.7044L80.1201 26Z" fill="#98D0A0"/>
<path d="M82.3107 33.2949L103.274 42.6766L93.8007 64.0005L72.8369 54.6188L82.3107 33.2949Z" fill="url(#paint2_linear_6_2345)"/>
<path d="M96.9214 44.3977C96.4662 43.1927 95.8375 42.1599 95.0137 41.2992C94.1899 40.4385 93.1926 39.7499 92.0219 39.255C90.8513 38.7601 89.6806 38.5234 88.4882 38.5234H88.4232C87.2092 38.5234 86.0168 38.8032 84.8461 39.3196C83.6104 39.8575 82.5481 40.5891 81.6376 41.5574C80.7271 42.5042 79.99 43.6661 79.4263 45.0002C78.8627 46.3128 78.5592 47.6469 78.4941 48.9595V49.4113C78.4941 50.5733 78.6893 51.7137 79.1012 52.8326C79.5347 54.0161 80.1634 55.0274 80.9872 55.8881C81.8111 56.7488 82.83 57.4374 84.044 57.9323C85.193 58.4272 86.3637 58.6639 87.556 58.6639H87.5777C88.7701 58.6639 89.9624 58.4057 91.1331 57.9108C92.3688 57.3728 93.4528 56.6197 94.3633 55.6514C95.2738 54.7046 96.0326 53.5642 96.5962 52.2301C97.1599 50.896 97.4634 49.5835 97.5284 48.2709V47.8836C97.5501 46.7001 97.355 45.5382 96.9214 44.3977ZM92.7374 50.5948C91.9569 52.4453 90.8946 53.7148 89.6156 54.4034C88.9218 54.7692 88.2064 54.9629 87.491 54.9629C86.8623 54.9629 86.1902 54.8122 85.5182 54.5325C84.044 53.9085 83.1335 52.9187 82.7433 51.4985C82.6132 51.0251 82.5481 50.5302 82.5481 50.0138C82.5481 48.981 82.8083 47.8405 83.3286 46.614C84.1307 44.7205 85.193 43.4294 86.4721 42.7194C87.1658 42.332 87.8812 42.1599 88.5966 42.1599C89.247 42.1599 89.8974 42.3105 90.5911 42.5903C92.0436 43.2143 92.9541 44.2041 93.3444 45.6242C93.4744 46.0761 93.5395 46.571 93.5395 47.0874C93.5395 48.1633 93.2793 49.3253 92.7374 50.5948Z" fill="white"/>
<path d="M70.0181 29.3779L73.4434 52.1435L71.8825 60.1481L71.6657 59.8683L68.3271 37.8774V37.447L69.8013 29.7652L70.0181 29.3779Z" fill="#760D16"/>
<path d="M45 41.148L46.6259 33.1005L70.0178 29.3779L68.4352 37.5761V38.1141L45.2818 41.3632L45 41.148Z" fill="#EF463E"/>
<path d="M68.4352 37.5762L71.8822 60.1481L48.7288 63.7415L45 41.1481L68.4352 37.5762Z" fill="url(#paint3_linear_6_2345)"/>
<path d="M65.9432 56.5543C65.7698 56.3391 65.5096 56.1885 65.2061 56.0809C64.9026 55.9733 64.534 55.9302 64.0788 55.9302C63.6669 55.9302 63.1899 55.9733 62.6696 56.0594L56.5561 57.0922C56.6211 56.6188 56.8596 56.0163 57.2715 55.2632C57.7268 54.424 58.4205 53.4127 59.3094 52.2507C59.6129 51.8419 59.8513 51.5407 60.0248 51.3255C60.1332 51.1749 60.3066 50.9812 60.5234 50.7015C61.9325 48.8725 62.778 47.3878 63.1249 46.2258C63.32 45.5588 63.4284 44.8917 63.4718 44.2247C63.4934 44.031 63.4934 43.8589 63.4934 43.6868C63.4934 43.2134 63.4501 42.74 63.3634 42.2666C63.2983 41.8362 63.1899 41.492 63.0382 41.2122C62.8864 40.9325 62.713 40.7173 62.4962 40.5882C62.2577 40.4376 61.8892 40.373 61.4339 40.373C61.0654 40.373 60.6101 40.4161 60.0681 40.5022L53.0007 41.7071C52.1552 41.8578 51.5049 42.0945 51.1146 42.4818C50.7894 42.783 50.6377 43.1703 50.6377 43.6007C50.6377 43.7083 50.6377 43.8374 50.6594 43.9665C50.7678 44.569 51.0713 44.9993 51.5699 45.2145C51.8734 45.3436 52.2203 45.4082 52.6539 45.4082C52.9357 45.4082 53.2609 45.3866 53.6077 45.3221L59.5045 44.2892C59.5045 44.3968 59.5262 44.5044 59.5262 44.5905C59.5262 44.9563 59.4611 45.3221 59.331 45.6664C59.1576 46.1613 58.724 46.8498 58.0086 47.7321C57.8135 47.9687 57.51 48.3561 57.0981 48.851C55.4938 50.766 54.3665 52.4014 53.6728 53.757C53.1742 54.7037 52.849 55.6075 52.6539 56.5327C52.5455 57.0707 52.4804 57.5656 52.4804 58.0605C52.4804 58.4048 52.5021 58.749 52.5671 59.0718C52.6539 59.5452 52.7623 59.9325 52.914 60.2338C53.0658 60.535 53.2826 60.7717 53.521 60.9008C53.7595 61.0299 54.0847 61.0729 54.5616 61.0729C55.147 61.0729 55.9491 60.9869 56.968 60.8147L63.385 59.7173C64.5124 59.5237 65.3145 59.244 65.7698 58.8782C66.1383 58.5769 66.3334 58.1681 66.3334 57.6947C66.3334 57.5656 66.3117 57.4365 66.2901 57.3074C66.2467 57.0276 66.1383 56.7694 65.9432 56.5543Z" fill="white"/>
</mask>
<g mask="url(#mask0_6_2345)">
<rect width="115.476" height="73.1266" transform="translate(42.3145 9.25977)" fill="#352E3F"/>
<path d="M148.759 47.4105C148.282 46.227 147.567 45.1512 146.634 44.2259C145.746 43.3222 144.748 42.6336 143.621 42.1817C142.515 41.7299 141.323 41.4932 140.022 41.4932C138.721 41.4932 137.507 41.7299 136.402 42.1817C135.274 42.6336 134.277 43.3222 133.388 44.2259C132.456 45.1512 131.762 46.227 131.286 47.4105C130.809 48.594 130.592 49.885 130.592 51.3052C130.592 52.6823 130.83 53.9734 131.307 55.1783C131.784 56.3833 132.478 57.4592 133.41 58.406C134.277 59.2882 135.274 59.9552 136.38 60.4071C137.486 60.859 138.721 61.0957 140.044 61.0957C141.323 61.0957 142.515 60.859 143.621 60.4071C144.727 59.9552 145.746 59.2882 146.634 58.406C147.567 57.4592 148.282 56.3833 148.759 55.1999C149.236 54.0164 149.474 52.7038 149.474 51.3267C149.474 49.885 149.236 48.594 148.759 47.4105ZM143.794 55.8454C142.862 56.9428 141.626 57.5022 140.022 57.5022C138.418 57.5022 137.161 56.9428 136.228 55.8454C135.296 54.748 134.841 53.2202 134.841 51.2837C134.841 49.304 135.318 47.7763 136.228 46.6574C137.161 45.5385 138.396 45.0005 140.022 45.0005C141.626 45.0005 142.862 45.56 143.794 46.6574C144.705 47.7763 145.182 49.304 145.182 51.2837C145.182 53.2202 144.727 54.748 143.794 55.8454Z" fill="white"/>
<path d="M120.034 42.009C119.925 41.2989 119.687 40.761 119.297 40.3952C118.972 40.1155 118.581 39.9648 118.126 39.9648C118.018 39.9648 117.888 39.9648 117.758 39.9864C117.151 40.0724 116.695 40.3522 116.413 40.804C116.197 41.1268 116.11 41.5356 116.11 42.009C116.11 42.1812 116.132 42.3748 116.153 42.5685L116.999 48.5288L110.278 49.5186L109.433 43.5583C109.324 42.8697 109.086 42.3318 108.696 41.966C108.37 41.6647 107.98 41.5141 107.547 41.5141C107.438 41.5141 107.33 41.5141 107.221 41.5356C106.593 41.6217 106.116 41.9014 105.812 42.3533C105.596 42.6761 105.509 43.0849 105.509 43.5583C105.509 43.7304 105.53 43.9241 105.552 44.1393L107.85 59.6534C107.959 60.3635 108.197 60.9014 108.631 61.2672C108.956 61.547 109.346 61.6761 109.823 61.6761C109.953 61.6761 110.083 61.6761 110.213 61.6546C110.799 61.5685 111.232 61.2888 111.514 60.8369C111.709 60.5141 111.796 60.1268 111.796 59.6749C111.796 59.5028 111.774 59.3091 111.752 59.1155L110.82 52.983L117.541 51.9932L118.473 58.1257C118.581 58.8358 118.82 59.3737 119.232 59.718C119.557 59.9977 119.947 60.1483 120.402 60.1483C120.511 60.1483 120.641 60.1483 120.771 60.1268C121.378 60.0407 121.833 59.761 122.115 59.3091C122.31 58.9864 122.419 58.5991 122.419 58.1257C122.419 57.9535 122.397 57.7599 122.375 57.5662L120.034 42.009Z" fill="white"/>
<path d="M96.9214 44.3977C96.4662 43.1927 95.8375 42.1599 95.0137 41.2992C94.1899 40.4385 93.1926 39.7499 92.0219 39.255C90.8513 38.7601 89.6806 38.5234 88.4882 38.5234H88.4232C87.2092 38.5234 86.0168 38.8032 84.8461 39.3196C83.6104 39.8575 82.5481 40.5891 81.6376 41.5574C80.7271 42.5042 79.99 43.6661 79.4263 45.0002C78.8627 46.3128 78.5592 47.6469 78.4941 48.9595V49.4113C78.4941 50.5733 78.6893 51.7137 79.1012 52.8326C79.5347 54.0161 80.1634 55.0274 80.9872 55.8881C81.8111 56.7488 82.83 57.4374 84.044 57.9323C85.193 58.4272 86.3637 58.6639 87.556 58.6639H87.5777C88.7701 58.6639 89.9624 58.4057 91.1331 57.9108C92.3688 57.3728 93.4528 56.6197 94.3633 55.6514C95.2738 54.7046 96.0326 53.5642 96.5962 52.2301C97.1599 50.896 97.4634 49.5835 97.5284 48.2709V47.8836C97.5501 46.7001 97.355 45.5382 96.9214 44.3977ZM92.7374 50.5948C91.9569 52.4453 90.8946 53.7148 89.6156 54.4034C88.9218 54.7692 88.2064 54.9629 87.491 54.9629C86.8623 54.9629 86.1902 54.8122 85.5182 54.5325C84.044 53.9085 83.1335 52.9187 82.7433 51.4985C82.6132 51.0251 82.5481 50.5302 82.5481 50.0138C82.5481 48.981 82.8083 47.8405 83.3286 46.614C84.1307 44.7205 85.193 43.4294 86.4721 42.7194C87.1658 42.332 87.8812 42.1599 88.5966 42.1599C89.247 42.1599 89.8974 42.3105 90.5911 42.5903C92.0436 43.2143 92.9541 44.2041 93.3444 45.6242C93.4744 46.0761 93.5395 46.571 93.5395 47.0874C93.5395 48.1633 93.2793 49.3253 92.7374 50.5948Z" fill="white"/>
<path d="M65.9432 56.5552C65.7698 56.3401 65.5096 56.1894 65.2061 56.0818C64.9026 55.9743 64.534 55.9312 64.0788 55.9312C63.6669 55.9312 63.1899 55.9743 62.6696 56.0603L56.5561 57.0932C56.6211 56.6198 56.8596 56.0173 57.2715 55.2642C57.7268 54.425 58.4205 53.4137 59.3094 52.2517C59.6129 51.8429 59.8513 51.5416 60.0248 51.3265C60.1332 51.1758 60.3066 50.9822 60.5234 50.7025C61.9325 48.8735 62.778 47.3888 63.1249 46.2268C63.32 45.5598 63.4284 44.8927 63.4718 44.2257C63.4934 44.032 63.4934 43.8599 63.4934 43.6877C63.4934 43.2143 63.4501 42.741 63.3634 42.2676C63.2983 41.8372 63.1899 41.4929 63.0382 41.2132C62.8864 40.9335 62.713 40.7183 62.4962 40.5892C62.2577 40.4386 61.8892 40.374 61.4339 40.374C61.0654 40.374 60.6101 40.4171 60.0681 40.5031L53.0007 41.7081C52.1552 41.8587 51.5049 42.0954 51.1146 42.4827C50.7894 42.784 50.6377 43.1713 50.6377 43.6017C50.6377 43.7092 50.6377 43.8384 50.6594 43.9675C50.7678 44.5699 51.0713 45.0003 51.5699 45.2155C51.8734 45.3446 52.2203 45.4091 52.6539 45.4091C52.9357 45.4091 53.2609 45.3876 53.6077 45.3231L59.5045 44.2902C59.5045 44.3978 59.5262 44.5054 59.5262 44.5915C59.5262 44.9573 59.4611 45.3231 59.331 45.6673C59.1576 46.1622 58.724 46.8508 58.0086 47.733C57.8135 47.9697 57.51 48.357 57.0981 48.8519C55.4938 50.767 54.3665 52.4023 53.6728 53.758C53.1742 54.7047 52.849 55.6085 52.6539 56.5337C52.5455 57.0717 52.4804 57.5666 52.4804 58.0615C52.4804 58.4057 52.5021 58.75 52.5671 59.0728C52.6539 59.5462 52.7623 59.9335 52.914 60.2347C53.0658 60.536 53.2826 60.7727 53.521 60.9018C53.7595 61.0309 54.0847 61.0739 54.5616 61.0739C55.147 61.0739 55.9491 60.9879 56.968 60.8157L63.385 59.7183C64.5124 59.5247 65.3145 59.2449 65.7698 58.8791C66.1383 58.5779 66.3334 58.1691 66.3334 57.6957C66.3334 57.5666 66.3117 57.4375 66.2901 57.3083C66.2467 57.0286 66.1383 56.7704 65.9432 56.5552Z" fill="white"/>
</g>
<path opacity="0.6" d="M83.9588 129V128.783L89.4678 119.907H84.0988V118.92H91.1548V119.158L85.6738 128.02H91.1058V129H83.9588ZM95.9954 129.21C95.2441 129.21 94.6024 129.04 94.0704 128.699C93.5384 128.358 93.1301 127.887 92.8454 127.285C92.5607 126.683 92.4184 125.992 92.4184 125.213C92.4184 124.42 92.5631 123.724 92.8524 123.127C93.1417 122.53 93.5524 122.065 94.0844 121.734C94.6211 121.398 95.2581 121.23 95.9954 121.23C96.7514 121.23 97.3954 121.4 97.9274 121.741C98.4641 122.077 98.8724 122.546 99.1524 123.148C99.4371 123.745 99.5794 124.434 99.5794 125.213C99.5794 126.006 99.4371 126.704 99.1524 127.306C98.8677 127.903 98.4571 128.37 97.9204 128.706C97.3837 129.042 96.7421 129.21 95.9954 129.21ZM95.9954 128.223C96.8354 128.223 97.4607 127.945 97.8714 127.39C98.2821 126.83 98.4874 126.104 98.4874 125.213C98.4874 124.298 98.2797 123.57 97.8644 123.029C97.4537 122.488 96.8307 122.217 95.9954 122.217C95.4307 122.217 94.9641 122.345 94.5954 122.602C94.2314 122.854 93.9584 123.206 93.7764 123.659C93.5991 124.107 93.5104 124.625 93.5104 125.213C93.5104 126.123 93.7204 126.853 94.1404 127.404C94.5604 127.95 95.1787 128.223 95.9954 128.223ZM106.584 129V125.143C106.584 124.723 106.544 124.338 106.465 123.988C106.385 123.633 106.257 123.325 106.08 123.064C105.907 122.798 105.681 122.593 105.401 122.448C105.125 122.303 104.789 122.231 104.393 122.231C104.029 122.231 103.707 122.294 103.427 122.42C103.151 122.546 102.918 122.728 102.727 122.966C102.54 123.199 102.398 123.484 102.3 123.82C102.202 124.156 102.153 124.539 102.153 124.968L101.425 124.807C101.425 124.032 101.56 123.381 101.831 122.854C102.101 122.327 102.475 121.928 102.951 121.657C103.427 121.386 103.973 121.251 104.589 121.251C105.041 121.251 105.436 121.321 105.772 121.461C106.112 121.601 106.399 121.79 106.633 122.028C106.871 122.266 107.062 122.539 107.207 122.847C107.351 123.15 107.456 123.475 107.522 123.82C107.587 124.161 107.62 124.501 107.62 124.842V129H106.584ZM101.117 129V118.92H102.048V124.611H102.153V129H101.117ZM112.593 129.21C111.842 129.21 111.2 129.04 110.668 128.699C110.136 128.358 109.728 127.887 109.443 127.285C109.158 126.683 109.016 125.992 109.016 125.213C109.016 124.42 109.161 123.724 109.45 123.127C109.739 122.53 110.15 122.065 110.682 121.734C111.219 121.398 111.856 121.23 112.593 121.23C113.349 121.23 113.993 121.4 114.525 121.741C115.062 122.077 115.47 122.546 115.75 123.148C116.035 123.745 116.177 124.434 116.177 125.213C116.177 126.006 116.035 126.704 115.75 127.306C115.465 127.903 115.055 128.37 114.518 128.706C113.981 129.042 113.34 129.21 112.593 129.21ZM112.593 128.223C113.433 128.223 114.058 127.945 114.469 127.39C114.88 126.83 115.085 126.104 115.085 125.213C115.085 124.298 114.877 123.57 114.462 123.029C114.051 122.488 113.428 122.217 112.593 122.217C112.028 122.217 111.562 122.345 111.193 122.602C110.829 122.854 110.556 123.206 110.374 123.659C110.197 124.107 110.108 124.625 110.108 125.213C110.108 126.123 110.318 126.853 110.738 127.404C111.158 127.95 111.776 128.223 112.593 128.223Z" fill="#0E041B"/>
<defs>
<linearGradient id="paint0_linear_6_2345" x1="140.39" y1="38.5673" x2="140.39" y2="63.0132" gradientUnits="userSpaceOnUse">
<stop offset="0.005618" stop-color="#FFE513"/>
<stop offset="1" stop-color="#FDB924"/>
</linearGradient>
<linearGradient id="paint1_linear_6_2345" x1="101.978" y1="41.1499" x2="125.891" y2="60.6897" gradientUnits="userSpaceOnUse">
<stop offset="0.005618" stop-color="#008CD2"/>
<stop offset="1" stop-color="#00649D"/>
</linearGradient>
<linearGradient id="paint2_linear_6_2345" x1="88.0562" y1="41.8246" x2="88.0562" y2="63.2417" gradientUnits="userSpaceOnUse">
<stop stop-color="#26A146"/>
<stop offset="1" stop-color="#008A52"/>
</linearGradient>
<linearGradient id="paint3_linear_6_2345" x1="56.7566" y1="39.7238" x2="60.2785" y2="61.9918" gradientUnits="userSpaceOnUse">
<stop stop-color="#D92231"/>
<stop offset="1" stop-color="#BA2234"/>
</linearGradient>
</defs>
</svg>
